<?xml version="1.0" encoding="UTF-8" standalone="no"?>
<!DOCTYPE svg PUBLIC "-//W3C//DTD SVG 1.1//EN"
 "http://www.w3.org/Graphics/SVG/1.1/DTD/svg11.dtd">
<!-- Generated by graphviz version 3.0.0 (20220413.0106)
 -->
<!-- Title: include/yaclib/util/detail/atomic_counter.hpp Pages: 1 -->
<svg width="1849pt" height="508pt"
 viewBox="0.00 0.00 1849.46 508.00" xmlns="http://www.w3.org/2000/svg" xmlns:xlink="http://www.w3.org/1999/xlink">
<g id="graph0" class="graph" transform="scale(1 1) rotate(0) translate(4 504)">
<title>include/yaclib/util/detail/atomic_counter.hpp</title>
<!-- Node1 -->
<g id="node1" class="node">
<title>Node1</title>
<g id="a_node1"><a xlink:title=" ">
<polygon fill="#bfbfbf" stroke="black" points="792.5,-469.5 792.5,-499.5 923.5,-499.5 923.5,-469.5 792.5,-469.5"/>
<text text-anchor="start" x="800.5" y="-487.5" font-family="Helvetica,sans-Serif" font-size="10.00">include/yaclib/util</text>
<text text-anchor="middle" x="858" y="-476.5" font-family="Helvetica,sans-Serif" font-size="10.00">/detail/atomic_counter.hpp</text>
</a>
</g>
</g>
<!-- Node2 -->
<g id="node2" class="node">
<title>Node2</title>
<g id="a_node2"><a xlink:href="wait__impl_8hpp.html" target="_top" xlink:title=" ">
<polygon fill="none" stroke="black" points="932.5,-402.5 932.5,-432.5 1037.5,-432.5 1037.5,-402.5 932.5,-402.5"/>
<text text-anchor="start" x="940.5" y="-420.5" font-family="Helvetica,sans-Serif" font-size="10.00">include/yaclib/algo</text>
<text text-anchor="middle" x="985" y="-409.5" font-family="Helvetica,sans-Serif" font-size="10.00">/detail/wait_impl.hpp</text>
</a>
</g>
</g>
<!-- Node1&#45;&gt;Node2 -->
<g id="edge1" class="edge">
<title>Node1&#45;&gt;Node2</title>
<path fill="none" stroke="midnightblue" d="M894.7,-464.71C914.73,-454.46 939.12,-441.98 957.5,-432.58"/>
<polygon fill="midnightblue" stroke="midnightblue" points="892.86,-461.72 885.56,-469.4 896.05,-467.96 892.86,-461.72"/>
</g>
<!-- Node12 -->
<g id="node12" class="node">
<title>Node12</title>
<g id="a_node12"><a xlink:href="wait__group_8hpp.html" target="_top" xlink:title=" ">
<polygon fill="none" stroke="black" points="464,-134.5 464,-164.5 560,-164.5 560,-134.5 464,-134.5"/>
<text text-anchor="start" x="472" y="-152.5" font-family="Helvetica,sans-Serif" font-size="10.00">include/yaclib/algo</text>
<text text-anchor="middle" x="512" y="-141.5" font-family="Helvetica,sans-Serif" font-size="10.00">/wait_group.hpp</text>
</a>
</g>
</g>
<!-- Node1&#45;&gt;Node12 -->
<g id="edge37" class="edge">
<title>Node1&#45;&gt;Node12</title>
<path fill="none" stroke="midnightblue" d="M782.17,-475.29C715.07,-466.92 623.1,-452.41 592,-433 553.62,-409.05 531,-396.74 531,-351.5 531,-351.5 531,-351.5 531,-282.5 531,-239.2 520.86,-188.73 515.4,-164.66"/>
<polygon fill="midnightblue" stroke="midnightblue" points="781.95,-478.79 792.3,-476.53 782.8,-471.84 781.95,-478.79"/>
</g>
<!-- Node18 -->
<g id="node18" class="node">
<title>Node18</title>
<g id="a_node18"><a xlink:href="await_8hpp.html" target="_top" xlink:title=" ">
<polygon fill="none" stroke="black" points="1618,-67.5 1618,-97.5 1736,-97.5 1736,-67.5 1618,-67.5"/>
<text text-anchor="start" x="1626" y="-85.5" font-family="Helvetica,sans-Serif" font-size="10.00">include/yaclib/coroutine</text>
<text text-anchor="middle" x="1677" y="-74.5" font-family="Helvetica,sans-Serif" font-size="10.00">/await.hpp</text>
</a>
</g>
</g>
<!-- Node1&#45;&gt;Node18 -->
<g id="edge41" class="edge">
<title>Node1&#45;&gt;Node18</title>
<path fill="none" stroke="midnightblue" d="M933.78,-481.1C1098.54,-475.46 1484.83,-459.75 1613,-433 1717.93,-411.1 1840,-458.69 1840,-351.5 1840,-351.5 1840,-351.5 1840,-215.5 1840,-178.31 1845.84,-161.68 1821,-134 1799.42,-109.94 1765.7,-97.35 1736.32,-90.75"/>
<polygon fill="midnightblue" stroke="midnightblue" points="933.6,-477.61 923.73,-481.44 933.84,-484.6 933.6,-477.61"/>
</g>
<!-- Node19 -->
<g id="node19" class="node">
<title>Node19</title>
<g id="a_node19"><a xlink:href="await__awaiter_8hpp.html" target="_top" xlink:title=" ">
<polygon fill="none" stroke="black" points="1552,-134.5 1552,-164.5 1676,-164.5 1676,-134.5 1552,-134.5"/>
<text text-anchor="start" x="1560" y="-152.5" font-family="Helvetica,sans-Serif" font-size="10.00">include/yaclib/coroutine</text>
<text text-anchor="middle" x="1614" y="-141.5" font-family="Helvetica,sans-Serif" font-size="10.00">/detail/await_awaiter.hpp</text>
</a>
</g>
</g>
<!-- Node1&#45;&gt;Node19 -->
<g id="edge42" class="edge">
<title>Node1&#45;&gt;Node19</title>
<path fill="none" stroke="midnightblue" d="M933.79,-478.01C1067.19,-466.25 1330,-432.77 1330,-351.5 1330,-351.5 1330,-351.5 1330,-282.5 1330,-232.67 1363.92,-226.04 1407,-201 1419.63,-193.66 1495.52,-176.14 1551.77,-163.81"/>
<polygon fill="midnightblue" stroke="midnightblue" points="933.29,-474.54 923.63,-478.89 933.89,-481.52 933.29,-474.54"/>
</g>
<!-- Node24 -->
<g id="node24" class="node">
<title>Node24</title>
<g id="a_node24"><a xlink:href="when__all__impl_8hpp.html" target="_top" xlink:title=" ">
<polygon fill="none" stroke="black" points="601.5,-402.5 601.5,-432.5 726.5,-432.5 726.5,-402.5 601.5,-402.5"/>
<text text-anchor="start" x="609.5" y="-420.5" font-family="Helvetica,sans-Serif" font-size="10.00">include/yaclib/algo</text>
<text text-anchor="middle" x="664" y="-409.5" font-family="Helvetica,sans-Serif" font-size="10.00">/detail/when_all_impl.hpp</text>
</a>
</g>
</g>
<!-- Node1&#45;&gt;Node24 -->
<g id="edge33" class="edge">
<title>Node1&#45;&gt;Node24</title>
<path fill="none" stroke="midnightblue" d="M806.04,-466.09C774.73,-455.6 735.36,-442.41 706.01,-432.58"/>
<polygon fill="midnightblue" stroke="midnightblue" points="805.31,-469.54 815.9,-469.4 807.53,-462.9 805.31,-469.54"/>
</g>
<!-- Node25 -->
<g id="node25" class="node">
<title>Node25</title>
<g id="a_node25"><a xlink:href="when__any__impl_8hpp.html" target="_top" xlink:title=" ">
<polygon fill="none" stroke="black" points="702.5,-201.5 702.5,-231.5 833.5,-231.5 833.5,-201.5 702.5,-201.5"/>
<text text-anchor="start" x="710.5" y="-219.5" font-family="Helvetica,sans-Serif" font-size="10.00">include/yaclib/algo</text>
<text text-anchor="middle" x="768" y="-208.5" font-family="Helvetica,sans-Serif" font-size="10.00">/detail/when_any_impl.hpp</text>
</a>
</g>
</g>
<!-- Node1&#45;&gt;Node25 -->
<g id="edge35" class="edge">
<title>Node1&#45;&gt;Node25</title>
<path fill="none" stroke="midnightblue" d="M843.57,-460.57C829.68,-437.51 809.05,-400.52 797,-366 780.38,-318.38 772.38,-258.66 769.41,-231.77"/>
<polygon fill="midnightblue" stroke="midnightblue" points="840.69,-462.56 848.89,-469.27 846.66,-458.91 840.69,-462.56"/>
</g>
<!-- Node26 -->
<g id="node26" class="node">
<title>Node26</title>
<g id="a_node26"><a xlink:href="core_8hpp.html" target="_top" xlink:title=" ">
<polygon fill="none" stroke="black" points="806,-335.5 806,-365.5 910,-365.5 910,-335.5 806,-335.5"/>
<text text-anchor="start" x="814" y="-353.5" font-family="Helvetica,sans-Serif" font-size="10.00">include/yaclib/async</text>
<text text-anchor="middle" x="858" y="-342.5" font-family="Helvetica,sans-Serif" font-size="10.00">/detail/core.hpp</text>
</a>
</g>
</g>
<!-- Node1&#45;&gt;Node26 -->
<g id="edge38" class="edge">
<title>Node1&#45;&gt;Node26</title>
<path fill="none" stroke="midnightblue" d="M858,-459.02C858,-431.51 858,-387.79 858,-365.52"/>
<polygon fill="midnightblue" stroke="midnightblue" points="854.5,-459.37 858,-469.37 861.5,-459.37 854.5,-459.37"/>
</g>
<!-- Node27 -->
<g id="node27" class="node">
<title>Node27</title>
<g id="a_node27"><a xlink:href="promise__type_8hpp.html" target="_top" xlink:title=" ">
<polygon fill="none" stroke="black" points="1482,-402.5 1482,-432.5 1604,-432.5 1604,-402.5 1482,-402.5"/>
<text text-anchor="start" x="1490" y="-420.5" font-family="Helvetica,sans-Serif" font-size="10.00">include/yaclib/coroutine</text>
<text text-anchor="middle" x="1543" y="-409.5" font-family="Helvetica,sans-Serif" font-size="10.00">/detail/promise_type.hpp</text>
</a>
</g>
</g>
<!-- Node1&#45;&gt;Node27 -->
<g id="edge43" class="edge">
<title>Node1&#45;&gt;Node27</title>
<path fill="none" stroke="midnightblue" d="M933.67,-476.32C1070.54,-463.33 1356.63,-436.18 1481.97,-424.29"/>
<polygon fill="midnightblue" stroke="midnightblue" points="933.31,-472.84 923.68,-477.27 933.97,-479.81 933.31,-472.84"/>
</g>
<!-- Node32 -->
<g id="node32" class="node">
<title>Node32</title>
<g id="a_node32"><a xlink:href="helper_8hpp.html" target="_top" xlink:title=" ">
<polygon fill="none" stroke="black" points="216.5,-335.5 216.5,-365.5 307.5,-365.5 307.5,-335.5 216.5,-335.5"/>
<text text-anchor="start" x="224.5" y="-353.5" font-family="Helvetica,sans-Serif" font-size="10.00">include/yaclib/util</text>
<text text-anchor="middle" x="262" y="-342.5" font-family="Helvetica,sans-Serif" font-size="10.00">/helper.hpp</text>
</a>
</g>
</g>
<!-- Node1&#45;&gt;Node32 -->
<g id="edge49" class="edge">
<title>Node1&#45;&gt;Node32</title>
<path fill="none" stroke="midnightblue" d="M782.36,-475.87C712.82,-468.01 607.15,-453.94 517,-433 438.23,-414.71 348.73,-383.63 299.48,-365.6"/>
<polygon fill="midnightblue" stroke="midnightblue" points="782.03,-479.35 792.35,-476.98 782.8,-472.39 782.03,-479.35"/>
</g>
<!-- Node3 -->
<g id="node3" class="node">
<title>Node3</title>
<g id="a_node3"><a xlink:href="wait_8hpp.html" target="_top" xlink:title=" ">
<polygon fill="none" stroke="black" points="1060,-335.5 1060,-365.5 1156,-365.5 1156,-335.5 1060,-335.5"/>
<text text-anchor="start" x="1068" y="-353.5" font-family="Helvetica,sans-Serif" font-size="10.00">include/yaclib/algo</text>
<text text-anchor="middle" x="1108" y="-342.5" font-family="Helvetica,sans-Serif" font-size="10.00">/wait.hpp</text>
</a>
</g>
</g>
<!-- Node2&#45;&gt;Node3 -->
<g id="edge2" class="edge">
<title>Node2&#45;&gt;Node3</title>
<path fill="none" stroke="midnightblue" d="M1020.55,-397.71C1039.95,-387.46 1063.56,-374.98 1081.36,-365.58"/>
<polygon fill="midnightblue" stroke="midnightblue" points="1018.9,-394.63 1011.69,-402.4 1022.17,-400.82 1018.9,-394.63"/>
</g>
<!-- Node11 -->
<g id="node11" class="node">
<title>Node11</title>
<g id="a_node11"><a xlink:href="wait__for_8hpp.html" target="_top" xlink:title=" ">
<polygon fill="none" stroke="black" points="616,-134.5 616,-164.5 712,-164.5 712,-134.5 616,-134.5"/>
<text text-anchor="start" x="624" y="-152.5" font-family="Helvetica,sans-Serif" font-size="10.00">include/yaclib/algo</text>
<text text-anchor="middle" x="664" y="-141.5" font-family="Helvetica,sans-Serif" font-size="10.00">/wait_for.hpp</text>
</a>
</g>
</g>
<!-- Node2&#45;&gt;Node11 -->
<g id="edge30" class="edge">
<title>Node2&#45;&gt;Node11</title>
<path fill="none" stroke="midnightblue" d="M922.12,-409.91C883.45,-403.47 834.33,-390.81 797,-366 734.21,-324.27 729.2,-298.13 693,-232 680.81,-209.74 672.08,-181.35 667.55,-164.63"/>
<polygon fill="midnightblue" stroke="midnightblue" points="921.8,-413.4 932.22,-411.49 922.88,-406.49 921.8,-413.4"/>
</g>
<!-- Node14 -->
<g id="node14" class="node">
<title>Node14</title>
<g id="a_node14"><a xlink:href="wait__until_8hpp.html" target="_top" xlink:title=" ">
<polygon fill="none" stroke="black" points="1438,-134.5 1438,-164.5 1534,-164.5 1534,-134.5 1438,-134.5"/>
<text text-anchor="start" x="1446" y="-152.5" font-family="Helvetica,sans-Serif" font-size="10.00">include/yaclib/algo</text>
<text text-anchor="middle" x="1486" y="-141.5" font-family="Helvetica,sans-Serif" font-size="10.00">/wait_until.hpp</text>
</a>
</g>
</g>
<!-- Node2&#45;&gt;Node14 -->
<g id="edge31" class="edge">
<title>Node2&#45;&gt;Node14</title>
<path fill="none" stroke="midnightblue" d="M1047.72,-407.73C1084,-400.57 1129.37,-387.92 1165,-366 1249.66,-313.91 1231.74,-253.74 1316,-201 1336.36,-188.26 1395.03,-172.29 1437.76,-161.76"/>
<polygon fill="midnightblue" stroke="midnightblue" points="1046.92,-404.31 1037.74,-409.6 1048.21,-411.19 1046.92,-404.31"/>
</g>
<!-- Node23 -->
<g id="node23" class="node">
<title>Node23</title>
<g id="a_node23"><a xlink:href="wait__impl_8cpp.html" target="_top" xlink:title=" ">
<polygon fill="none" stroke="black" points="928.5,-341 928.5,-360 1041.5,-360 1041.5,-341 928.5,-341"/>
<text text-anchor="middle" x="985" y="-348" font-family="Helvetica,sans-Serif" font-size="10.00">src/algo/wait_impl.cpp</text>
</a>
</g>
</g>
<!-- Node2&#45;&gt;Node23 -->
<g id="edge32" class="edge">
<title>Node2&#45;&gt;Node23</title>
<path fill="none" stroke="midnightblue" d="M985,-392.25C985,-381.02 985,-368.38 985,-360.19"/>
<polygon fill="midnightblue" stroke="midnightblue" points="981.5,-392.4 985,-402.4 988.5,-392.4 981.5,-392.4"/>
</g>
<!-- Node4 -->
<g id="node4" class="node">
<title>Node4</title>
<g id="a_node4"><a xlink:href="future__impl_8hpp.html" target="_top" xlink:title=" ">
<polygon fill="none" stroke="black" points="968,-268.5 968,-298.5 1080,-298.5 1080,-268.5 968,-268.5"/>
<text text-anchor="start" x="976" y="-286.5" font-family="Helvetica,sans-Serif" font-size="10.00">include/yaclib/async</text>
<text text-anchor="middle" x="1024" y="-275.5" font-family="Helvetica,sans-Serif" font-size="10.00">/detail/future_impl.hpp</text>
</a>
</g>
</g>
<!-- Node3&#45;&gt;Node4 -->
<g id="edge3" class="edge">
<title>Node3&#45;&gt;Node4</title>
<path fill="none" stroke="midnightblue" d="M1081.72,-329.17C1068.88,-319.23 1053.74,-307.51 1042.19,-298.58"/>
<polygon fill="midnightblue" stroke="midnightblue" points="1079.72,-332.04 1089.77,-335.4 1084.01,-326.51 1079.72,-332.04"/>
</g>
<!-- Node5 -->
<g id="node5" class="node">
<title>Node5</title>
<g id="a_node5"><a xlink:href="future_8hpp.html" target="_top" xlink:title=" ">
<polygon fill="none" stroke="black" points="978,-201.5 978,-231.5 1082,-231.5 1082,-201.5 978,-201.5"/>
<text text-anchor="start" x="986" y="-219.5" font-family="Helvetica,sans-Serif" font-size="10.00">include/yaclib/async</text>
<text text-anchor="middle" x="1030" y="-208.5" font-family="Helvetica,sans-Serif" font-size="10.00">/future.hpp</text>
</a>
</g>
</g>
<!-- Node4&#45;&gt;Node5 -->
<g id="edge4" class="edge">
<title>Node4&#45;&gt;Node5</title>
<path fill="none" stroke="midnightblue" d="M1026.22,-258.4C1027.06,-249.37 1027.98,-239.41 1028.7,-231.58"/>
<polygon fill="midnightblue" stroke="midnightblue" points="1022.74,-258.12 1025.3,-268.4 1029.71,-258.76 1022.74,-258.12"/>
</g>
<!-- Node5&#45;&gt;Node3 -->
<g id="edge10" class="edge">
<title>Node5&#45;&gt;Node3</title>
<path fill="none" stroke="midnightblue" d="M1060.92,-237.82C1071.25,-246.05 1081.93,-256.36 1089,-268 1101.82,-289.11 1106,-318.12 1107.35,-335.23"/>
<polygon fill="midnightblue" stroke="midnightblue" points="1062.87,-234.91 1052.78,-231.69 1058.66,-240.5 1062.87,-234.91"/>
</g>
<!-- Node6 -->
<g id="node6" class="node">
<title>Node6</title>
<g id="a_node6"><a xlink:href="when__impl_8hpp.html" target="_top" xlink:title=" ">
<polygon fill="none" stroke="black" points="806,-134.5 806,-164.5 916,-164.5 916,-134.5 806,-134.5"/>
<text text-anchor="start" x="814" y="-152.5" font-family="Helvetica,sans-Serif" font-size="10.00">include/yaclib/algo</text>
<text text-anchor="middle" x="861" y="-141.5" font-family="Helvetica,sans-Serif" font-size="10.00">/detail/when_impl.hpp</text>
</a>
</g>
</g>
<!-- Node5&#45;&gt;Node6 -->
<g id="edge5" class="edge">
<title>Node5&#45;&gt;Node6</title>
<path fill="none" stroke="midnightblue" d="M983.67,-197.68C956.57,-187.26 922.83,-174.28 897.6,-164.58"/>
<polygon fill="midnightblue" stroke="midnightblue" points="982.74,-201.07 993.33,-201.4 985.25,-194.54 982.74,-201.07"/>
</g>
<!-- Node7 -->
<g id="node7" class="node">
<title>Node7</title>
<g id="a_node7"><a xlink:href="when__all_8hpp.html" target="_top" xlink:title=" ">
<polygon fill="none" stroke="black" points="720,-67.5 720,-97.5 816,-97.5 816,-67.5 720,-67.5"/>
<text text-anchor="start" x="728" y="-85.5" font-family="Helvetica,sans-Serif" font-size="10.00">include/yaclib/algo</text>
<text text-anchor="middle" x="768" y="-74.5" font-family="Helvetica,sans-Serif" font-size="10.00">/when_all.hpp</text>
</a>
</g>
</g>
<!-- Node5&#45;&gt;Node7 -->
<g id="edge15" class="edge">
<title>Node5&#45;&gt;Node7</title>
<path fill="none" stroke="midnightblue" d="M967.82,-208.88C907.66,-201.29 822.01,-186.99 797,-165 777.26,-147.65 770.96,-115.93 768.94,-97.6"/>
<polygon fill="midnightblue" stroke="midnightblue" points="967.64,-212.38 977.99,-210.13 968.49,-205.43 967.64,-212.38"/>
</g>
<!-- Node9 -->
<g id="node9" class="node">
<title>Node9</title>
<g id="a_node9"><a xlink:href="when__any_8hpp.html" target="_top" xlink:title=" ">
<polygon fill="none" stroke="black" points="836,-67.5 836,-97.5 932,-97.5 932,-67.5 836,-67.5"/>
<text text-anchor="start" x="844" y="-85.5" font-family="Helvetica,sans-Serif" font-size="10.00">include/yaclib/algo</text>
<text text-anchor="middle" x="884" y="-74.5" font-family="Helvetica,sans-Serif" font-size="10.00">/when_any.hpp</text>
</a>
</g>
</g>
<!-- Node5&#45;&gt;Node9 -->
<g id="edge16" class="edge">
<title>Node5&#45;&gt;Node9</title>
<path fill="none" stroke="midnightblue" d="M1001.28,-195.37C989.13,-186.47 975.04,-175.63 963,-165 938.04,-142.96 911.61,-114.5 896.52,-97.7"/>
<polygon fill="midnightblue" stroke="midnightblue" points="999.57,-198.45 1009.72,-201.47 1003.67,-192.78 999.57,-198.45"/>
</g>
<!-- Node5&#45;&gt;Node11 -->
<g id="edge11" class="edge">
<title>Node5&#45;&gt;Node11</title>
<path fill="none" stroke="midnightblue" d="M968.06,-204.5C895.79,-191.66 777.81,-170.71 712.08,-159.04"/>
<polygon fill="midnightblue" stroke="midnightblue" points="967.49,-207.95 977.95,-206.26 968.72,-201.06 967.49,-207.95"/>
</g>
<!-- Node5&#45;&gt;Node12 -->
<g id="edge12" class="edge">
<title>Node5&#45;&gt;Node12</title>
<path fill="none" stroke="midnightblue" d="M967.87,-208.72C885.33,-199.58 735.04,-182.41 607,-165 591.79,-162.93 575.24,-160.48 560.28,-158.18"/>
<polygon fill="midnightblue" stroke="midnightblue" points="967.51,-212.21 977.83,-209.83 968.28,-205.25 967.51,-212.21"/>
</g>
<!-- Node5&#45;&gt;Node14 -->
<g id="edge14" class="edge">
<title>Node5&#45;&gt;Node14</title>
<path fill="none" stroke="midnightblue" d="M1092.33,-209.5C1170.26,-201.54 1307.58,-186.02 1424,-165 1428.46,-164.19 1433.08,-163.28 1437.7,-162.3"/>
<polygon fill="midnightblue" stroke="midnightblue" points="1091.8,-206.04 1082.2,-210.53 1092.51,-213 1091.8,-206.04"/>
</g>
<!-- Node15 -->
<g id="node15" class="node">
<title>Node15</title>
<g id="a_node15"><a xlink:href="contract_8hpp.html" target="_top" xlink:title=" ">
<polygon fill="none" stroke="black" points="1278,-134.5 1278,-164.5 1382,-164.5 1382,-134.5 1278,-134.5"/>
<text text-anchor="start" x="1286" y="-152.5" font-family="Helvetica,sans-Serif" font-size="10.00">include/yaclib/async</text>
<text text-anchor="middle" x="1330" y="-141.5" font-family="Helvetica,sans-Serif" font-size="10.00">/contract.hpp</text>
</a>
</g>
</g>
<!-- Node5&#45;&gt;Node15 -->
<g id="edge17" class="edge">
<title>Node5&#45;&gt;Node15</title>
<path fill="none" stroke="midnightblue" d="M1092.12,-202.16C1139.28,-192.01 1205.74,-177.69 1264,-165 1268.47,-164.03 1273.11,-163.01 1277.77,-161.99"/>
<polygon fill="midnightblue" stroke="midnightblue" points="1091.1,-198.8 1082.06,-204.32 1092.57,-205.64 1091.1,-198.8"/>
</g>
<!-- Node16 -->
<g id="node16" class="node">
<title>Node16</title>
<g id="a_node16"><a xlink:href="simple_8cpp.html" target="_top" xlink:title=" ">
<polygon fill="none" stroke="black" points="1122.5,-67.5 1122.5,-97.5 1223.5,-97.5 1223.5,-67.5 1122.5,-67.5"/>
<text text-anchor="start" x="1130.5" y="-85.5" font-family="Helvetica,sans-Serif" font-size="10.00">test/example/async</text>
<text text-anchor="middle" x="1173" y="-74.5" font-family="Helvetica,sans-Serif" font-size="10.00">/simple.cpp</text>
</a>
</g>
</g>
<!-- Node5&#45;&gt;Node16 -->
<g id="edge29" class="edge">
<title>Node5&#45;&gt;Node16</title>
<path fill="none" stroke="midnightblue" d="M1092.11,-208.25C1144.62,-200.7 1213.96,-186.86 1231,-165 1248.94,-141.99 1218.36,-114.08 1195.21,-97.61"/>
<polygon fill="midnightblue" stroke="midnightblue" points="1091.61,-204.79 1082.19,-209.64 1092.58,-211.72 1091.61,-204.79"/>
</g>
<!-- Node17 -->
<g id="node17" class="node">
<title>Node17</title>
<g id="a_node17"><a xlink:href="run_8hpp.html" target="_top" xlink:title=" ">
<polygon fill="none" stroke="black" points="972,-134.5 972,-164.5 1076,-164.5 1076,-134.5 972,-134.5"/>
<text text-anchor="start" x="980" y="-152.5" font-family="Helvetica,sans-Serif" font-size="10.00">include/yaclib/async</text>
<text text-anchor="middle" x="1024" y="-141.5" font-family="Helvetica,sans-Serif" font-size="10.00">/run.hpp</text>
</a>
</g>
</g>
<!-- Node5&#45;&gt;Node17 -->
<g id="edge19" class="edge">
<title>Node5&#45;&gt;Node17</title>
<path fill="none" stroke="midnightblue" d="M1027.78,-191.4C1026.94,-182.37 1026.02,-172.41 1025.3,-164.58"/>
<polygon fill="midnightblue" stroke="midnightblue" points="1024.29,-191.76 1028.7,-201.4 1031.26,-191.12 1024.29,-191.76"/>
</g>
<!-- Node5&#45;&gt;Node18 -->
<g id="edge23" class="edge">
<title>Node5&#45;&gt;Node18</title>
<path fill="none" stroke="midnightblue" d="M1092.45,-208.62C1188.5,-197.76 1364.24,-176.68 1391,-165 1410.98,-156.28 1409.29,-143.3 1429,-134 1502.78,-99.19 1529.1,-114.51 1609,-98 1611.84,-97.41 1614.74,-96.81 1617.67,-96.2"/>
<polygon fill="midnightblue" stroke="midnightblue" points="1091.82,-205.17 1082.28,-209.77 1092.61,-212.12 1091.82,-205.17"/>
</g>
<!-- Node5&#45;&gt;Node19 -->
<g id="edge24" class="edge">
<title>Node5&#45;&gt;Node19</title>
<path fill="none" stroke="midnightblue" d="M1092.49,-211.44C1189.35,-204.68 1381.42,-189.39 1543,-165 1545.86,-164.57 1548.78,-164.1 1551.73,-163.6"/>
<polygon fill="midnightblue" stroke="midnightblue" points="1092.02,-207.96 1082.29,-212.15 1092.5,-214.95 1092.02,-207.96"/>
</g>
<!-- Node21 -->
<g id="node21" class="node">
<title>Node21</title>
<g id="a_node21"><a xlink:href="future__traits_8hpp.html" target="_top" xlink:title=" ">
<polygon fill="none" stroke="black" points="1694,-134.5 1694,-164.5 1812,-164.5 1812,-134.5 1694,-134.5"/>
<text text-anchor="start" x="1702" y="-152.5" font-family="Helvetica,sans-Serif" font-size="10.00">include/yaclib/coroutine</text>
<text text-anchor="middle" x="1753" y="-141.5" font-family="Helvetica,sans-Serif" font-size="10.00">/future_traits.hpp</text>
</a>
</g>
</g>
<!-- Node5&#45;&gt;Node21 -->
<g id="edge27" class="edge">
<title>Node5&#45;&gt;Node21</title>
<path fill="none" stroke="midnightblue" d="M1092.23,-213.46C1208.97,-209.03 1468.59,-196.27 1685,-165 1687.87,-164.59 1690.79,-164.12 1693.75,-163.62"/>
<polygon fill="midnightblue" stroke="midnightblue" points="1091.92,-209.97 1082.05,-213.84 1092.18,-216.97 1091.92,-209.97"/>
</g>
<!-- Node22 -->
<g id="node22" class="node">
<title>Node22</title>
<g id="a_node22"><a xlink:href="future__impl_8cpp.html" target="_top" xlink:title=" ">
<polygon fill="none" stroke="black" points="1094,-140 1094,-159 1222,-159 1222,-140 1094,-140"/>
<text text-anchor="middle" x="1158" y="-147" font-family="Helvetica,sans-Serif" font-size="10.00">src/async/future_impl.cpp</text>
</a>
</g>
</g>
<!-- Node5&#45;&gt;Node22 -->
<g id="edge28" class="edge">
<title>Node5&#45;&gt;Node22</title>
<path fill="none" stroke="midnightblue" d="M1066.82,-196.8C1091.36,-184.34 1122.44,-168.56 1141.25,-159.01"/>
<polygon fill="midnightblue" stroke="midnightblue" points="1065.11,-193.75 1057.77,-201.4 1068.28,-199.99 1065.11,-193.75"/>
</g>
<!-- Node6&#45;&gt;Node7 -->
<g id="edge6" class="edge">
<title>Node6&#45;&gt;Node7</title>
<path fill="none" stroke="midnightblue" d="M832.31,-128.45C818.01,-118.45 801.05,-106.6 788.14,-97.58"/>
<polygon fill="midnightblue" stroke="midnightblue" points="830.62,-131.54 840.82,-134.4 834.63,-125.8 830.62,-131.54"/>
</g>
<!-- Node6&#45;&gt;Node9 -->
<g id="edge8" class="edge">
<title>Node6&#45;&gt;Node9</title>
<path fill="none" stroke="midnightblue" d="M869.42,-124.7C872.65,-115.59 876.22,-105.49 879.02,-97.58"/>
<polygon fill="midnightblue" stroke="midnightblue" points="866.03,-123.8 865.99,-134.4 872.63,-126.14 866.03,-123.8"/>
</g>
<!-- Node8 -->
<g id="node8" class="node">
<title>Node8</title>
<g id="a_node8"><a xlink:href="when__all_8cpp.html" target="_top" xlink:title=" ">
<polygon fill="none" stroke="black" points="715.5,-0.5 715.5,-30.5 816.5,-30.5 816.5,-0.5 715.5,-0.5"/>
<text text-anchor="start" x="723.5" y="-18.5" font-family="Helvetica,sans-Serif" font-size="10.00">test/example/async</text>
<text text-anchor="middle" x="766" y="-7.5" font-family="Helvetica,sans-Serif" font-size="10.00">/when_all.cpp</text>
</a>
</g>
</g>
<!-- Node7&#45;&gt;Node8 -->
<g id="edge7" class="edge">
<title>Node7&#45;&gt;Node8</title>
<path fill="none" stroke="midnightblue" d="M767.25,-57.11C766.97,-48.15 766.67,-38.32 766.43,-30.58"/>
<polygon fill="midnightblue" stroke="midnightblue" points="763.76,-57.51 767.57,-67.4 770.76,-57.29 763.76,-57.51"/>
</g>
<!-- Node10 -->
<g id="node10" class="node">
<title>Node10</title>
<g id="a_node10"><a xlink:href="when__any_8cpp.html" target="_top" xlink:title=" ">
<polygon fill="none" stroke="black" points="834.5,-0.5 834.5,-30.5 935.5,-30.5 935.5,-0.5 834.5,-0.5"/>
<text text-anchor="start" x="842.5" y="-18.5" font-family="Helvetica,sans-Serif" font-size="10.00">test/example/async</text>
<text text-anchor="middle" x="885" y="-7.5" font-family="Helvetica,sans-Serif" font-size="10.00">/when_any.cpp</text>
</a>
</g>
</g>
<!-- Node9&#45;&gt;Node10 -->
<g id="edge9" class="edge">
<title>Node9&#45;&gt;Node10</title>
<path fill="none" stroke="midnightblue" d="M884.38,-57.11C884.51,-48.15 884.66,-38.32 884.78,-30.58"/>
<polygon fill="midnightblue" stroke="midnightblue" points="880.87,-57.34 884.22,-67.4 887.87,-57.45 880.87,-57.34"/>
</g>
<!-- Node13 -->
<g id="node13" class="node">
<title>Node13</title>
<g id="a_node13"><a xlink:href="wait__group_8cpp.html" target="_top" xlink:title=" ">
<polygon fill="none" stroke="black" points="561.5,-73 561.5,-92 680.5,-92 680.5,-73 561.5,-73"/>
<text text-anchor="middle" x="621" y="-80" font-family="Helvetica,sans-Serif" font-size="10.00">src/algo/wait_group.cpp</text>
</a>
</g>
</g>
<!-- Node12&#45;&gt;Node13 -->
<g id="edge13" class="edge">
<title>Node12&#45;&gt;Node13</title>
<path fill="none" stroke="midnightblue" d="M544.46,-129.14C565.18,-116.79 591,-101.39 606.73,-92.01"/>
<polygon fill="midnightblue" stroke="midnightblue" points="542.45,-126.27 535.65,-134.4 546.03,-132.28 542.45,-126.27"/>
</g>
<!-- Node15&#45;&gt;Node16 -->
<g id="edge18" class="edge">
<title>Node15&#45;&gt;Node16</title>
<path fill="none" stroke="midnightblue" d="M1286.63,-130.54C1261.51,-120.14 1230.34,-107.24 1207,-97.58"/>
<polygon fill="midnightblue" stroke="midnightblue" points="1285.36,-133.8 1295.93,-134.4 1288.03,-127.34 1285.36,-133.8"/>
</g>
<!-- Node17&#45;&gt;Node8 -->
<g id="edge21" class="edge">
<title>Node17&#45;&gt;Node8</title>
<path fill="none" stroke="midnightblue" d="M1006.82,-126.34C991.44,-107.93 967.31,-82.37 941,-67 930.08,-60.62 864.45,-42.49 816.76,-29.79"/>
<polygon fill="midnightblue" stroke="midnightblue" points="1004.22,-128.68 1013.25,-134.23 1009.65,-124.26 1004.22,-128.68"/>
</g>
<!-- Node17&#45;&gt;Node10 -->
<g id="edge22" class="edge">
<title>Node17&#45;&gt;Node10</title>
<path fill="none" stroke="midnightblue" d="M1018.14,-124.3C1012.8,-106.6 1003.35,-82.98 988,-67 972.13,-50.49 949.73,-38.62 929.88,-30.55"/>
<polygon fill="midnightblue" stroke="midnightblue" points="1014.9,-125.74 1020.95,-134.44 1021.65,-123.87 1014.9,-125.74"/>
</g>
<!-- Node17&#45;&gt;Node16 -->
<g id="edge20" class="edge">
<title>Node17&#45;&gt;Node16</title>
<path fill="none" stroke="midnightblue" d="M1065.79,-130.27C1089.52,-119.92 1118.78,-107.15 1140.73,-97.58"/>
<polygon fill="midnightblue" stroke="midnightblue" points="1064.1,-127.19 1056.33,-134.4 1066.9,-133.61 1064.1,-127.19"/>
</g>
<!-- Node19&#45;&gt;Node18 -->
<g id="edge25" class="edge">
<title>Node19&#45;&gt;Node18</title>
<path fill="none" stroke="midnightblue" d="M1634.81,-127.02C1644.2,-117.34 1655.02,-106.17 1663.36,-97.58"/>
<polygon fill="midnightblue" stroke="midnightblue" points="1632.12,-124.78 1627.67,-134.4 1637.14,-129.65 1632.12,-124.78"/>
</g>
<!-- Node20 -->
<g id="node20" class="node">
<title>Node20</title>
<g id="a_node20"><a xlink:href="await__awaiter_8cpp.html" target="_top" xlink:title=" ">
<polygon fill="none" stroke="black" points="1500.5,-67.5 1500.5,-97.5 1599.5,-97.5 1599.5,-67.5 1500.5,-67.5"/>
<text text-anchor="start" x="1508.5" y="-85.5" font-family="Helvetica,sans-Serif" font-size="10.00">src/coroutine/await</text>
<text text-anchor="middle" x="1550" y="-74.5" font-family="Helvetica,sans-Serif" font-size="10.00">_awaiter.cpp</text>
</a>
</g>
</g>
<!-- Node19&#45;&gt;Node20 -->
<g id="edge26" class="edge">
<title>Node19&#45;&gt;Node20</title>
<path fill="none" stroke="midnightblue" d="M1592.85,-127.02C1583.32,-117.34 1572.33,-106.17 1563.86,-97.58"/>
<polygon fill="midnightblue" stroke="midnightblue" points="1590.6,-129.73 1600.11,-134.4 1595.59,-124.81 1590.6,-129.73"/>
</g>
<!-- Node24&#45;&gt;Node7 -->
<g id="edge34" class="edge">
<title>Node24&#45;&gt;Node7</title>
<path fill="none" stroke="midnightblue" d="M642.07,-394.92C619.62,-370.42 588,-328.17 588,-284.5 588,-284.5 588,-284.5 588,-215.5 588,-178.31 581.7,-161.27 607,-134 622.44,-117.36 678.21,-102.35 719.8,-93.11"/>
<polygon fill="midnightblue" stroke="midnightblue" points="639.57,-397.37 648.98,-402.23 644.65,-392.56 639.57,-397.37"/>
</g>
<!-- Node25&#45;&gt;Node9 -->
<g id="edge36" class="edge">
<title>Node25&#45;&gt;Node9</title>
<path fill="none" stroke="midnightblue" d="M771.99,-191.33C775.89,-173.83 783.33,-150.45 797,-134 810.28,-118.02 830.02,-105.98 847.33,-97.68"/>
<polygon fill="midnightblue" stroke="midnightblue" points="768.51,-190.86 769.99,-201.35 775.37,-192.23 768.51,-190.86"/>
</g>
<!-- Node26&#45;&gt;Node4 -->
<g id="edge39" class="edge">
<title>Node26&#45;&gt;Node4</title>
<path fill="none" stroke="midnightblue" d="M903.51,-331.68C930.13,-321.26 963.27,-308.28 988.05,-298.58"/>
<polygon fill="midnightblue" stroke="midnightblue" points="902.05,-328.49 894.02,-335.4 904.61,-335.01 902.05,-328.49"/>
</g>
<!-- Node26&#45;&gt;Node17 -->
<g id="edge40" class="edge">
<title>Node26&#45;&gt;Node17</title>
<path fill="none" stroke="midnightblue" d="M872.99,-326.81C893.27,-296.78 931.25,-242.77 969,-201 980.82,-187.92 995.61,-174.49 1006.87,-164.76"/>
<polygon fill="midnightblue" stroke="midnightblue" points="869.95,-325.06 867.29,-335.32 875.77,-328.96 869.95,-325.06"/>
</g>
<!-- Node27&#45;&gt;Node21 -->
<g id="edge48" class="edge">
<title>Node27&#45;&gt;Node21</title>
<path fill="none" stroke="midnightblue" d="M1578.18,-397.42C1612.58,-377.14 1664.27,-342.07 1696,-299 1727.77,-255.87 1744.12,-192.83 1750.18,-164.82"/>
<polygon fill="midnightblue" stroke="midnightblue" points="1576.3,-394.46 1569.4,-402.5 1579.81,-400.52 1576.3,-394.46"/>
</g>
<!-- Node28 -->
<g id="node28" class="node">
<title>Node28</title>
<g id="a_node28"><a xlink:href="on__awaiter_8hpp.html" target="_top" xlink:title=" ">
<polygon fill="none" stroke="black" points="1484,-335.5 1484,-365.5 1602,-365.5 1602,-335.5 1484,-335.5"/>
<text text-anchor="start" x="1492" y="-353.5" font-family="Helvetica,sans-Serif" font-size="10.00">include/yaclib/coroutine</text>
<text text-anchor="middle" x="1543" y="-342.5" font-family="Helvetica,sans-Serif" font-size="10.00">/detail/on_awaiter.hpp</text>
</a>
</g>
</g>
<!-- Node27&#45;&gt;Node28 -->
<g id="edge44" class="edge">
<title>Node27&#45;&gt;Node28</title>
<path fill="none" stroke="midnightblue" d="M1543,-392.11C1543,-383.15 1543,-373.32 1543,-365.58"/>
<polygon fill="midnightblue" stroke="midnightblue" points="1539.5,-392.4 1543,-402.4 1546.5,-392.4 1539.5,-392.4"/>
</g>
<!-- Node29 -->
<g id="node29" class="node">
<title>Node29</title>
<g id="a_node29"><a xlink:href="on_8hpp.html" target="_top" xlink:title=" ">
<polygon fill="none" stroke="black" points="1409,-268.5 1409,-298.5 1527,-298.5 1527,-268.5 1409,-268.5"/>
<text text-anchor="start" x="1417" y="-286.5" font-family="Helvetica,sans-Serif" font-size="10.00">include/yaclib/coroutine</text>
<text text-anchor="middle" x="1468" y="-275.5" font-family="Helvetica,sans-Serif" font-size="10.00">/on.hpp</text>
</a>
</g>
</g>
<!-- Node28&#45;&gt;Node29 -->
<g id="edge45" class="edge">
<title>Node28&#45;&gt;Node29</title>
<path fill="none" stroke="midnightblue" d="M1518.88,-328.6C1507.56,-318.78 1494.36,-307.34 1484.24,-298.58"/>
<polygon fill="midnightblue" stroke="midnightblue" points="1516.88,-331.49 1526.73,-335.4 1521.46,-326.2 1516.88,-331.49"/>
</g>
<!-- Node31 -->
<g id="node31" class="node">
<title>Node31</title>
<g id="a_node31"><a xlink:href="on__awaiter_8cpp.html" target="_top" xlink:title=" ">
<polygon fill="none" stroke="black" points="1545.5,-274 1545.5,-293 1686.5,-293 1686.5,-274 1545.5,-274"/>
<text text-anchor="middle" x="1616" y="-281" font-family="Helvetica,sans-Serif" font-size="10.00">src/coroutine/on_awaiter.cpp</text>
</a>
</g>
</g>
<!-- Node28&#45;&gt;Node31 -->
<g id="edge47" class="edge">
<title>Node28&#45;&gt;Node31</title>
<path fill="none" stroke="midnightblue" d="M1566.39,-328.67C1579.87,-316.67 1596.1,-302.22 1606.24,-293.19"/>
<polygon fill="midnightblue" stroke="midnightblue" points="1563.98,-326.13 1558.84,-335.4 1568.64,-331.36 1563.98,-326.13"/>
</g>
<!-- Node30 -->
<g id="node30" class="node">
<title>Node30</title>
<g id="a_node30"><a xlink:href="on_8cpp.html" target="_top" xlink:title=" ">
<polygon fill="none" stroke="black" points="1416,-207 1416,-226 1520,-226 1520,-207 1416,-207"/>
<text text-anchor="middle" x="1468" y="-214" font-family="Helvetica,sans-Serif" font-size="10.00">src/coroutine/on.cpp</text>
</a>
</g>
</g>
<!-- Node29&#45;&gt;Node30 -->
<g id="edge46" class="edge">
<title>Node29&#45;&gt;Node30</title>
<path fill="none" stroke="midnightblue" d="M1468,-258.25C1468,-247.02 1468,-234.38 1468,-226.19"/>
<polygon fill="midnightblue" stroke="midnightblue" points="1464.5,-258.4 1468,-268.4 1471.5,-258.4 1464.5,-258.4"/>
</g>
<!-- Node32&#45;&gt;Node5 -->
<g id="edge50" class="edge">
<title>Node32&#45;&gt;Node5</title>
<path fill="none" stroke="midnightblue" d="M317.61,-339.94C460.45,-315.39 838.73,-250.37 977.77,-226.48"/>
<polygon fill="midnightblue" stroke="midnightblue" points="317,-336.49 307.74,-341.64 318.19,-343.39 317,-336.49"/>
</g>
<!-- Node33 -->
<g id="node33" class="node">
<title>Node33</title>
<g id="a_node33"><a xlink:href="shared__func_8hpp.html" target="_top" xlink:title=" ">
<polygon fill="none" stroke="black" points="247.5,-268.5 247.5,-298.5 364.5,-298.5 364.5,-268.5 247.5,-268.5"/>
<text text-anchor="start" x="255.5" y="-286.5" font-family="Helvetica,sans-Serif" font-size="10.00">include/yaclib/util</text>
<text text-anchor="middle" x="306" y="-275.5" font-family="Helvetica,sans-Serif" font-size="10.00">/detail/shared_func.hpp</text>
</a>
</g>
</g>
<!-- Node32&#45;&gt;Node33 -->
<g id="edge51" class="edge">
<title>Node32&#45;&gt;Node33</title>
<path fill="none" stroke="midnightblue" d="M277.32,-326.87C283.69,-317.46 290.88,-306.83 296.47,-298.58"/>
<polygon fill="midnightblue" stroke="midnightblue" points="274.25,-325.15 271.55,-335.4 280.05,-329.08 274.25,-325.15"/>
</g>
<!-- Node36 -->
<g id="node36" class="node">
<title>Node36</title>
<g id="a_node36"><a xlink:href="src_2executor_2thread__pool_8cpp.html" target="_top" xlink:title=" ">
<polygon fill="none" stroke="black" points="107,-67.5 107,-97.5 207,-97.5 207,-67.5 107,-67.5"/>
<text text-anchor="start" x="115" y="-85.5" font-family="Helvetica,sans-Serif" font-size="10.00">src/executor/thread</text>
<text text-anchor="middle" x="157" y="-74.5" font-family="Helvetica,sans-Serif" font-size="10.00">_pool.cpp</text>
</a>
</g>
</g>
<!-- Node32&#45;&gt;Node36 -->
<g id="edge64" class="edge">
<title>Node32&#45;&gt;Node36</title>
<path fill="none" stroke="midnightblue" d="M245.68,-326.5C222.84,-292.89 182.21,-227.51 165,-165 158.66,-141.97 157.2,-114.07 156.94,-97.61"/>
<polygon fill="midnightblue" stroke="midnightblue" points="243.06,-328.87 251.62,-335.12 248.82,-324.9 243.06,-328.87"/>
</g>
<!-- Node39 -->
<g id="node39" class="node">
<title>Node39</title>
<g id="a_node39"><a xlink:href="thread__factory_8cpp.html" target="_top" xlink:title=" ">
<polygon fill="none" stroke="black" points="174,-134.5 174,-164.5 274,-164.5 274,-134.5 174,-134.5"/>
<text text-anchor="start" x="182" y="-152.5" font-family="Helvetica,sans-Serif" font-size="10.00">src/executor/thread</text>
<text text-anchor="middle" x="224" y="-141.5" font-family="Helvetica,sans-Serif" font-size="10.00">_factory.cpp</text>
</a>
</g>
</g>
<!-- Node32&#45;&gt;Node39 -->
<g id="edge63" class="edge">
<title>Node32&#45;&gt;Node39</title>
<path fill="none" stroke="midnightblue" d="M248.9,-326.32C244.74,-317.95 240.56,-308.28 238,-299 224.79,-251.07 223.52,-191.5 223.71,-164.72"/>
<polygon fill="midnightblue" stroke="midnightblue" points="245.93,-328.2 253.67,-335.43 252.13,-324.95 245.93,-328.2"/>
</g>
<!-- Node40 -->
<g id="node40" class="node">
<title>Node40</title>
<g id="a_node40"><a xlink:href="src_2executor_2strand_8cpp.html" target="_top" xlink:title=" ">
<polygon fill="none" stroke="black" points="0,-274 0,-293 118,-293 118,-274 0,-274"/>
<text text-anchor="middle" x="59" y="-281" font-family="Helvetica,sans-Serif" font-size="10.00">src/executor/strand.cpp</text>
</a>
</g>
</g>
<!-- Node32&#45;&gt;Node40 -->
<g id="edge62" class="edge">
<title>Node32&#45;&gt;Node40</title>
<path fill="none" stroke="midnightblue" d="M208.19,-332.27C168.63,-319.6 116.57,-302.93 85.57,-293.01"/>
<polygon fill="midnightblue" stroke="midnightblue" points="207.36,-335.68 217.95,-335.4 209.5,-329.01 207.36,-335.68"/>
</g>
<!-- Node34 -->
<g id="node34" class="node">
<title>Node34</title>
<g id="a_node34"><a xlink:href="thread__factory_8hpp.html" target="_top" xlink:title=" ">
<polygon fill="none" stroke="black" points="248.5,-201.5 248.5,-231.5 363.5,-231.5 363.5,-201.5 248.5,-201.5"/>
<text text-anchor="start" x="256.5" y="-219.5" font-family="Helvetica,sans-Serif" font-size="10.00">include/yaclib/executor</text>
<text text-anchor="middle" x="306" y="-208.5" font-family="Helvetica,sans-Serif" font-size="10.00">/thread_factory.hpp</text>
</a>
</g>
</g>
<!-- Node33&#45;&gt;Node34 -->
<g id="edge52" class="edge">
<title>Node33&#45;&gt;Node34</title>
<path fill="none" stroke="midnightblue" d="M306,-258.11C306,-249.15 306,-239.32 306,-231.58"/>
<polygon fill="midnightblue" stroke="midnightblue" points="302.5,-258.4 306,-268.4 309.5,-258.4 302.5,-258.4"/>
</g>
<!-- Node35 -->
<g id="node35" class="node">
<title>Node35</title>
<g id="a_node35"><a xlink:href="thread__pool_8hpp.html" target="_top" xlink:title=" ">
<polygon fill="none" stroke="black" points="330.5,-134.5 330.5,-164.5 445.5,-164.5 445.5,-134.5 330.5,-134.5"/>
<text text-anchor="start" x="338.5" y="-152.5" font-family="Helvetica,sans-Serif" font-size="10.00">include/yaclib/executor</text>
<text text-anchor="middle" x="388" y="-141.5" font-family="Helvetica,sans-Serif" font-size="10.00">/thread_pool.hpp</text>
</a>
</g>
</g>
<!-- Node34&#45;&gt;Node35 -->
<g id="edge53" class="edge">
<title>Node34&#45;&gt;Node35</title>
<path fill="none" stroke="midnightblue" d="M331.65,-195.17C344.19,-185.23 358.97,-173.51 370.24,-164.58"/>
<polygon fill="midnightblue" stroke="midnightblue" points="329.46,-192.44 323.79,-201.4 333.8,-197.93 329.46,-192.44"/>
</g>
<!-- Node34&#45;&gt;Node36 -->
<g id="edge61" class="edge">
<title>Node34&#45;&gt;Node36</title>
<path fill="none" stroke="midnightblue" d="M304.74,-191.12C302.61,-173.32 297.08,-149.66 283,-134 271.93,-121.69 235.06,-107.68 204.04,-97.55"/>
<polygon fill="midnightblue" stroke="midnightblue" points="301.28,-191.68 305.68,-201.32 308.25,-191.04 301.28,-191.68"/>
</g>
<!-- Node34&#45;&gt;Node39 -->
<g id="edge60" class="edge">
<title>Node34&#45;&gt;Node39</title>
<path fill="none" stroke="midnightblue" d="M280.35,-195.17C267.81,-185.23 253.03,-173.51 241.76,-164.58"/>
<polygon fill="midnightblue" stroke="midnightblue" points="278.2,-197.93 288.21,-201.4 282.54,-192.44 278.2,-197.93"/>
</g>
<!-- Node35&#45;&gt;Node8 -->
<g id="edge56" class="edge">
<title>Node35&#45;&gt;Node8</title>
<path fill="none" stroke="midnightblue" d="M423.39,-129.29C439.65,-120.19 459.05,-108.93 476,-98 495.8,-85.23 497.42,-76.46 519,-67 583.34,-38.79 664.09,-26.11 715.39,-20.56"/>
<polygon fill="midnightblue" stroke="midnightblue" points="421.26,-126.47 414.22,-134.39 424.66,-132.59 421.26,-126.47"/>
</g>
<!-- Node35&#45;&gt;Node10 -->
<g id="edge57" class="edge">
<title>Node35&#45;&gt;Node10</title>
<path fill="none" stroke="midnightblue" d="M440.16,-130.88C462.89,-122.3 489.45,-111 512,-98 531.48,-86.77 531.24,-75.66 552,-67 664.95,-19.88 704.68,-53.41 825,-31 828.06,-30.43 831.19,-29.8 834.34,-29.14"/>
<polygon fill="midnightblue" stroke="midnightblue" points="438.83,-127.64 430.67,-134.4 441.26,-134.21 438.83,-127.64"/>
</g>
<!-- Node35&#45;&gt;Node16 -->
<g id="edge55" class="edge">
<title>Node35&#45;&gt;Node16</title>
<path fill="none" stroke="midnightblue" d="M455.8,-134.16C554.36,-122.51 975.75,-95.79 1122.47,-86.63"/>
<polygon fill="midnightblue" stroke="midnightblue" points="455.12,-130.72 445.65,-135.48 456.02,-137.67 455.12,-130.72"/>
</g>
<!-- Node35&#45;&gt;Node36 -->
<g id="edge54" class="edge">
<title>Node35&#45;&gt;Node36</title>
<path fill="none" stroke="midnightblue" d="M328.35,-131.71C290.76,-121.14 242.77,-107.63 207.15,-97.61"/>
<polygon fill="midnightblue" stroke="midnightblue" points="327.59,-135.14 338.16,-134.48 329.48,-128.4 327.59,-135.14"/>
</g>
<!-- Node37 -->
<g id="node37" class="node">
<title>Node37</title>
<g id="a_node37"><a xlink:href="test_2example_2executor_2strand_8cpp.html" target="_top" xlink:title=" ">
<polygon fill="none" stroke="black" points="355,-67.5 355,-97.5 467,-97.5 467,-67.5 355,-67.5"/>
<text text-anchor="start" x="363" y="-85.5" font-family="Helvetica,sans-Serif" font-size="10.00">test/example/executor</text>
<text text-anchor="middle" x="411" y="-74.5" font-family="Helvetica,sans-Serif" font-size="10.00">/strand.cpp</text>
</a>
</g>
</g>
<!-- Node35&#45;&gt;Node37 -->
<g id="edge58" class="edge">
<title>Node35&#45;&gt;Node37</title>
<path fill="none" stroke="midnightblue" d="M396.42,-124.7C399.65,-115.59 403.22,-105.49 406.02,-97.58"/>
<polygon fill="midnightblue" stroke="midnightblue" points="393.03,-123.8 392.99,-134.4 399.63,-126.14 393.03,-123.8"/>
</g>
<!-- Node38 -->
<g id="node38" class="node">
<title>Node38</title>
<g id="a_node38"><a xlink:href="test_2example_2executor_2thread__pool_8cpp.html" target="_top" xlink:title=" ">
<polygon fill="none" stroke="black" points="225,-67.5 225,-97.5 337,-97.5 337,-67.5 225,-67.5"/>
<text text-anchor="start" x="233" y="-85.5" font-family="Helvetica,sans-Serif" font-size="10.00">test/example/executor</text>
<text text-anchor="middle" x="281" y="-74.5" font-family="Helvetica,sans-Serif" font-size="10.00">/thread_pool.cpp</text>
</a>
</g>
</g>
<!-- Node35&#45;&gt;Node38 -->
<g id="edge59" class="edge">
<title>Node35&#45;&gt;Node38</title>
<path fill="none" stroke="midnightblue" d="M355.92,-129.02C339.27,-118.9 319.31,-106.77 304.17,-97.58"/>
<polygon fill="midnightblue" stroke="midnightblue" points="354.42,-132.2 364.78,-134.4 358.05,-126.21 354.42,-132.2"/>
</g>
</g>
</svg>
