<?xml version="1.0" encoding="UTF-8" standalone="no"?>
<!DOCTYPE svg PUBLIC "-//W3C//DTD SVG 1.1//EN"
 "http://www.w3.org/Graphics/SVG/1.1/DTD/svg11.dtd">
<!-- Generated by graphviz version 3.0.0 (20220413.0106)
 -->
<!-- Title: include/yaclib/coroutine/detail/await_awaiter.hpp Pages: 1 -->
<svg width="1256pt" height="676pt"
 viewBox="0.00 0.00 1256.00 676.00" xmlns="http://www.w3.org/2000/svg" xmlns:xlink="http://www.w3.org/1999/xlink">
<g id="graph0" class="graph" transform="scale(1 1) rotate(0) translate(4 672)">
<title>include/yaclib/coroutine/detail/await_awaiter.hpp</title>
<!-- Node1 -->
<g id="node1" class="node">
<title>Node1</title>
<g id="a_node1"><a xlink:title=" ">
<polygon fill="#bfbfbf" stroke="black" points="554,-637.5 554,-667.5 678,-667.5 678,-637.5 554,-637.5"/>
<text text-anchor="start" x="562" y="-655.5" font-family="Helvetica,sans-Serif" font-size="10.00">include/yaclib/coroutine</text>
<text text-anchor="middle" x="616" y="-644.5" font-family="Helvetica,sans-Serif" font-size="10.00">/detail/await_awaiter.hpp</text>
</a>
</g>
</g>
<!-- Node2 -->
<g id="node2" class="node">
<title>Node2</title>
<g id="a_node2"><a xlink:href="future_8hpp.html" target="_top" xlink:title=" ">
<polygon fill="none" stroke="black" points="668,-581.5 668,-600.5 784,-600.5 784,-581.5 668,-581.5"/>
<text text-anchor="middle" x="726" y="-588.5" font-family="Helvetica,sans-Serif" font-size="10.00">yaclib/async/future.hpp</text>
</a>
</g>
</g>
<!-- Node1&#45;&gt;Node2 -->
<g id="edge1" class="edge">
<title>Node1&#45;&gt;Node2</title>
<path fill="none" stroke="midnightblue" d="M642.07,-637.4C659.87,-627.77 683.31,-615.09 700.9,-605.58"/>
<polygon fill="midnightblue" stroke="midnightblue" points="702.86,-608.49 709.99,-600.66 699.53,-602.34 702.86,-608.49"/>
</g>
<!-- Node19 -->
<g id="node19" class="node">
<title>Node19</title>
<g id="a_node19"><a xlink:href="type__traits_8hpp.html" target="_top" xlink:title=" ">
<polygon fill="none" stroke="black" points="1096.5,-252 1096.5,-271 1219.5,-271 1219.5,-252 1096.5,-252"/>
<text text-anchor="middle" x="1158" y="-259" font-family="Helvetica,sans-Serif" font-size="10.00">yaclib/util/type_traits.hpp</text>
</a>
</g>
</g>
<!-- Node1&#45;&gt;Node19 -->
<g id="edge73" class="edge">
<title>Node1&#45;&gt;Node19</title>
<path fill="none" stroke="midnightblue" d="M678.17,-651.85C830.49,-651.03 1210,-638.18 1210,-530.5 1210,-530.5 1210,-530.5 1210,-394.5 1210,-350.58 1184.77,-303.79 1169.46,-279.45"/>
<polygon fill="midnightblue" stroke="midnightblue" points="1172.35,-277.48 1163.97,-271 1166.48,-281.29 1172.35,-277.48"/>
</g>
<!-- Node25 -->
<g id="node25" class="node">
<title>Node25</title>
<g id="a_node25"><a xlink:href="atomic__counter_8hpp.html" target="_top" xlink:title=" ">
<polygon fill="none" stroke="black" points="421,-313.5 421,-343.5 525,-343.5 525,-313.5 421,-313.5"/>
<text text-anchor="start" x="429" y="-331.5" font-family="Helvetica,sans-Serif" font-size="10.00">yaclib/util/detail</text>
<text text-anchor="middle" x="473" y="-320.5" font-family="Helvetica,sans-Serif" font-size="10.00">/atomic_counter.hpp</text>
</a>
</g>
</g>
<!-- Node1&#45;&gt;Node25 -->
<g id="edge72" class="edge">
<title>Node1&#45;&gt;Node25</title>
<path fill="none" stroke="midnightblue" d="M579.47,-637.34C539.49,-619.17 481,-583.53 481,-530.5 481,-530.5 481,-530.5 481,-461.5 481,-423.93 477.73,-380.46 475.37,-353.98"/>
<polygon fill="midnightblue" stroke="midnightblue" points="478.83,-353.38 474.43,-343.74 471.86,-354.02 478.83,-353.38"/>
</g>
<!-- Node39 -->
<g id="node39" class="node">
<title>Node39</title>
<g id="a_node39"><a xlink:href="coroutine_8hpp.html" target="_top" xlink:title=" ">
<polygon fill="none" stroke="black" points="11.5,-520 11.5,-539 156.5,-539 156.5,-520 11.5,-520"/>
<text text-anchor="middle" x="84" y="-527" font-family="Helvetica,sans-Serif" font-size="10.00">yaclib/coroutine/coroutine.hpp</text>
</a>
</g>
</g>
<!-- Node1&#45;&gt;Node39 -->
<g id="edge70" class="edge">
<title>Node1&#45;&gt;Node39</title>
<path fill="none" stroke="midnightblue" d="M554.19,-637.44C446.7,-612.99 227.59,-563.16 131.24,-541.25"/>
<polygon fill="midnightblue" stroke="midnightblue" points="132.01,-537.83 121.49,-539.03 130.46,-544.66 132.01,-537.83"/>
</g>
<!-- Node3 -->
<g id="node3" class="node">
<title>Node3</title>
<g id="a_node3"><a xlink:href="result__core_8hpp.html" target="_top" xlink:title=" ">
<polygon fill="none" stroke="black" points="695,-380.5 695,-410.5 791,-410.5 791,-380.5 695,-380.5"/>
<text text-anchor="start" x="703" y="-398.5" font-family="Helvetica,sans-Serif" font-size="10.00">yaclib/async/detail</text>
<text text-anchor="middle" x="743" y="-387.5" font-family="Helvetica,sans-Serif" font-size="10.00">/result_core.hpp</text>
</a>
</g>
</g>
<!-- Node2&#45;&gt;Node3 -->
<g id="edge2" class="edge">
<title>Node2&#45;&gt;Node3</title>
<path fill="none" stroke="midnightblue" d="M726.75,-581.44C729.21,-553.45 737.07,-464.03 740.88,-420.61"/>
<polygon fill="midnightblue" stroke="midnightblue" points="744.37,-420.9 741.76,-410.63 737.4,-420.29 744.37,-420.9"/>
</g>
<!-- Node12 -->
<g id="node12" class="node">
<title>Node12</title>
<g id="a_node12"><a xlink:href="executor_8hpp.html" target="_top" xlink:title=" ">
<polygon fill="none" stroke="black" points="722.5,-252 722.5,-271 861.5,-271 861.5,-252 722.5,-252"/>
<text text-anchor="middle" x="792" y="-259" font-family="Helvetica,sans-Serif" font-size="10.00">yaclib/executor/executor.hpp</text>
</a>
</g>
</g>
<!-- Node2&#45;&gt;Node12 -->
<g id="edge35" class="edge">
<title>Node2&#45;&gt;Node12</title>
<path fill="none" stroke="midnightblue" d="M784.29,-585.52C811.66,-580.14 841.95,-568.77 859,-545 920.15,-459.76 837.59,-326.4 804.57,-279.5"/>
<polygon fill="midnightblue" stroke="midnightblue" points="807.36,-277.39 798.68,-271.31 801.68,-281.48 807.36,-277.39"/>
</g>
<!-- Node2&#45;&gt;Node19 -->
<g id="edge43" class="edge">
<title>Node2&#45;&gt;Node19</title>
<path fill="none" stroke="midnightblue" d="M784.17,-584C895.77,-570.88 1129,-534.91 1129,-463.5 1129,-463.5 1129,-463.5 1129,-394.5 1129,-353.01 1142.84,-305.86 1151.4,-280.66"/>
<polygon fill="midnightblue" stroke="midnightblue" points="1154.77,-281.6 1154.79,-271.01 1148.17,-279.28 1154.77,-281.6"/>
</g>
<!-- Node24 -->
<g id="node24" class="node">
<title>Node24</title>
<g id="a_node24"><a xlink:href="helper_8hpp.html" target="_top" xlink:title=" ">
<polygon fill="none" stroke="black" points="518,-386 518,-405 622,-405 622,-386 518,-386"/>
<text text-anchor="middle" x="570" y="-393" font-family="Helvetica,sans-Serif" font-size="10.00">yaclib/util/helper.hpp</text>
</a>
</g>
</g>
<!-- Node2&#45;&gt;Node24 -->
<g id="edge36" class="edge">
<title>Node2&#45;&gt;Node24</title>
<path fill="none" stroke="midnightblue" d="M710.68,-581.38C682.91,-564.95 624.26,-526.45 593,-478 580.51,-458.64 574.69,-432.45 572.06,-415.04"/>
<polygon fill="midnightblue" stroke="midnightblue" points="575.52,-414.49 570.75,-405.03 568.58,-415.4 575.52,-414.49"/>
</g>
<!-- Node28 -->
<g id="node28" class="node">
<title>Node28</title>
<g id="a_node28"><a xlink:href="future__impl_8hpp.html" target="_top" xlink:title=" ">
<polygon fill="none" stroke="black" points="754,-514.5 754,-544.5 850,-544.5 850,-514.5 754,-514.5"/>
<text text-anchor="start" x="762" y="-532.5" font-family="Helvetica,sans-Serif" font-size="10.00">yaclib/async/detail</text>
<text text-anchor="middle" x="802" y="-521.5" font-family="Helvetica,sans-Serif" font-size="10.00">/future_impl.hpp</text>
</a>
</g>
</g>
<!-- Node2&#45;&gt;Node28 -->
<g id="edge44" class="edge">
<title>Node2&#45;&gt;Node28</title>
<path fill="none" stroke="midnightblue" d="M736.89,-581.48C747.09,-573.49 762.72,-561.25 776.11,-550.77"/>
<polygon fill="midnightblue" stroke="midnightblue" points="778.37,-553.44 784.09,-544.52 774.06,-547.93 778.37,-553.44"/>
</g>
<!-- Node4 -->
<g id="node4" class="node">
<title>Node4</title>
<g id="a_node4"><a xlink:href="base__core_8hpp.html" target="_top" xlink:title=" ">
<polygon fill="none" stroke="black" points="543,-313.5 543,-343.5 639,-343.5 639,-313.5 543,-313.5"/>
<text text-anchor="start" x="551" y="-331.5" font-family="Helvetica,sans-Serif" font-size="10.00">yaclib/async/detail</text>
<text text-anchor="middle" x="591" y="-320.5" font-family="Helvetica,sans-Serif" font-size="10.00">/base_core.hpp</text>
</a>
</g>
</g>
<!-- Node3&#45;&gt;Node4 -->
<g id="edge3" class="edge">
<title>Node3&#45;&gt;Node4</title>
<path fill="none" stroke="midnightblue" d="M710.02,-380.4C687.51,-370.77 657.5,-357.94 633.24,-347.56"/>
<polygon fill="midnightblue" stroke="midnightblue" points="634.49,-344.29 623.92,-343.58 631.74,-350.73 634.49,-344.29"/>
</g>
<!-- Node5 -->
<g id="node5" class="node">
<title>Node5</title>
<g id="a_node5"><a xlink:href="inline__core_8hpp.html" target="_top" xlink:title=" ">
<polygon fill="none" stroke="black" points="532,-246.5 532,-276.5 628,-276.5 628,-246.5 532,-246.5"/>
<text text-anchor="start" x="540" y="-264.5" font-family="Helvetica,sans-Serif" font-size="10.00">yaclib/async/detail</text>
<text text-anchor="middle" x="580" y="-253.5" font-family="Helvetica,sans-Serif" font-size="10.00">/inline_core.hpp</text>
</a>
</g>
</g>
<!-- Node3&#45;&gt;Node5 -->
<g id="edge22" class="edge">
<title>Node3&#45;&gt;Node5</title>
<path fill="none" stroke="midnightblue" d="M727.15,-380.31C708.52,-363.76 676.53,-335.78 648,-313 635.02,-302.64 620.26,-291.59 607.82,-282.48"/>
<polygon fill="midnightblue" stroke="midnightblue" points="609.76,-279.57 599.62,-276.51 605.64,-285.23 609.76,-279.57"/>
</g>
<!-- Node11 -->
<g id="node11" class="node">
<title>Node11</title>
<g id="a_node11"><a xlink:title=" ">
<polygon fill="none" stroke="#bfbfbf" points="604.5,-56.5 604.5,-75.5 643.5,-75.5 643.5,-56.5 604.5,-56.5"/>
<text text-anchor="middle" x="624" y="-63.5" font-family="Helvetica,sans-Serif" font-size="10.00">utility</text>
</a>
</g>
</g>
<!-- Node3&#45;&gt;Node11 -->
<g id="edge34" class="edge">
<title>Node3&#45;&gt;Node11</title>
<path fill="none" stroke="midnightblue" d="M791.2,-387.77C839.46,-379.93 908.83,-365.27 925,-344 969.47,-285.52 957.09,-239.22 915,-179 854.01,-91.73 714.96,-72.45 653.8,-68.2"/>
<polygon fill="midnightblue" stroke="midnightblue" points="653.85,-64.69 643.66,-67.58 653.43,-71.68 653.85,-64.69"/>
</g>
<!-- Node13 -->
<g id="node13" class="node">
<title>Node13</title>
<g id="a_node13"><a xlink:href="intrusive__ptr_8hpp.html" target="_top" xlink:title=" ">
<polygon fill="none" stroke="black" points="808.5,-179.5 808.5,-209.5 905.5,-209.5 905.5,-179.5 808.5,-179.5"/>
<text text-anchor="start" x="816.5" y="-197.5" font-family="Helvetica,sans-Serif" font-size="10.00">yaclib/util/intrusive</text>
<text text-anchor="middle" x="857" y="-186.5" font-family="Helvetica,sans-Serif" font-size="10.00">_ptr.hpp</text>
</a>
</g>
</g>
<!-- Node3&#45;&gt;Node13 -->
<g id="edge23" class="edge">
<title>Node3&#45;&gt;Node13</title>
<path fill="none" stroke="midnightblue" d="M791.08,-393.78C828.54,-390.36 878.34,-378.94 904,-344 929.78,-308.89 919.94,-286.53 904,-246 899.64,-234.91 891.56,-224.81 883.32,-216.6"/>
<polygon fill="midnightblue" stroke="midnightblue" points="885.52,-213.87 875.81,-209.63 880.76,-219 885.52,-213.87"/>
</g>
<!-- Node18 -->
<g id="node18" class="node">
<title>Node18</title>
<g id="a_node18"><a xlink:href="result_8hpp.html" target="_top" xlink:title=" ">
<polygon fill="none" stroke="black" points="994,-319 994,-338 1096,-338 1096,-319 994,-319"/>
<text text-anchor="middle" x="1045" y="-326" font-family="Helvetica,sans-Serif" font-size="10.00">yaclib/util/result.hpp</text>
</a>
</g>
</g>
<!-- Node3&#45;&gt;Node18 -->
<g id="edge24" class="edge">
<title>Node3&#45;&gt;Node18</title>
<path fill="none" stroke="midnightblue" d="M791.14,-384.38C839.05,-374.28 914.65,-358.25 980,-344 985.44,-342.81 991.13,-341.56 996.78,-340.31"/>
<polygon fill="midnightblue" stroke="midnightblue" points="997.86,-343.66 1006.86,-338.07 996.34,-336.82 997.86,-343.66"/>
</g>
<!-- Node4&#45;&gt;Node5 -->
<g id="edge4" class="edge">
<title>Node4&#45;&gt;Node5</title>
<path fill="none" stroke="midnightblue" d="M588.61,-313.4C587.29,-305.56 585.6,-295.6 584.07,-286.57"/>
<polygon fill="midnightblue" stroke="midnightblue" points="587.5,-285.85 582.38,-276.58 580.6,-287.02 587.5,-285.85"/>
</g>
<!-- Node9 -->
<g id="node9" class="node">
<title>Node9</title>
<g id="a_node9"><a xlink:href="ref_8hpp.html" target="_top" xlink:title=" ">
<polygon fill="none" stroke="black" points="445.5,-56.5 445.5,-75.5 534.5,-75.5 534.5,-56.5 445.5,-56.5"/>
<text text-anchor="middle" x="490" y="-63.5" font-family="Helvetica,sans-Serif" font-size="10.00">yaclib/util/ref.hpp</text>
</a>
</g>
</g>
<!-- Node4&#45;&gt;Node9 -->
<g id="edge20" class="edge">
<title>Node4&#45;&gt;Node9</title>
<path fill="none" stroke="midnightblue" d="M562.59,-313.3C548.42,-304.74 532.36,-292.48 523,-277 485.61,-215.18 486.11,-125.12 488.41,-86.15"/>
<polygon fill="midnightblue" stroke="midnightblue" points="491.93,-86 489.14,-75.78 484.95,-85.51 491.93,-86"/>
</g>
<!-- Node4&#45;&gt;Node12 -->
<g id="edge11" class="edge">
<title>Node4&#45;&gt;Node12</title>
<path fill="none" stroke="midnightblue" d="M634.61,-313.4C670.97,-301.64 722.15,-285.09 756.16,-274.09"/>
<polygon fill="midnightblue" stroke="midnightblue" points="757.26,-277.41 765.69,-271.01 755.1,-270.75 757.26,-277.41"/>
</g>
<!-- Node4&#45;&gt;Node13 -->
<g id="edge19" class="edge">
<title>Node4&#45;&gt;Node13</title>
<path fill="none" stroke="midnightblue" d="M609.3,-313.28C632.6,-295.69 674.57,-265.65 714,-246 740.97,-232.56 772.4,-221.04 798.92,-212.42"/>
<polygon fill="midnightblue" stroke="midnightblue" points="799.99,-215.75 808.45,-209.37 797.86,-209.08 799.99,-215.75"/>
</g>
<!-- Node17 -->
<g id="node17" class="node">
<title>Node17</title>
<g id="a_node17"><a xlink:title=" ">
<polygon fill="none" stroke="#bfbfbf" points="384,-252 384,-271 476,-271 476,-252 384,-252"/>
<text text-anchor="middle" x="430" y="-259" font-family="Helvetica,sans-Serif" font-size="10.00">yaclib_std/atomic</text>
</a>
</g>
</g>
<!-- Node4&#45;&gt;Node17 -->
<g id="edge21" class="edge">
<title>Node4&#45;&gt;Node17</title>
<path fill="none" stroke="midnightblue" d="M556.07,-313.4C527.57,-301.89 487.71,-285.8 460.48,-274.81"/>
<polygon fill="midnightblue" stroke="midnightblue" points="461.65,-271.51 451.07,-271.01 459.03,-278 461.65,-271.51"/>
</g>
<!-- Node6 -->
<g id="node6" class="node">
<title>Node6</title>
<g id="a_node6"><a xlink:href="job_8hpp.html" target="_top" xlink:title=" ">
<polygon fill="none" stroke="black" points="580.5,-185 580.5,-204 695.5,-204 695.5,-185 580.5,-185"/>
<text text-anchor="middle" x="638" y="-192" font-family="Helvetica,sans-Serif" font-size="10.00">yaclib/executor/job.hpp</text>
</a>
</g>
</g>
<!-- Node5&#45;&gt;Node6 -->
<g id="edge5" class="edge">
<title>Node5&#45;&gt;Node6</title>
<path fill="none" stroke="midnightblue" d="M592.59,-246.4C601.63,-236.26 613.85,-222.57 623.33,-211.94"/>
<polygon fill="midnightblue" stroke="midnightblue" points="626.2,-213.99 630.24,-204.19 620.97,-209.33 626.2,-213.99"/>
</g>
<!-- Node7 -->
<g id="node7" class="node">
<title>Node7</title>
<g id="a_node7"><a xlink:href="node_8hpp.html" target="_top" xlink:title=" ">
<polygon fill="none" stroke="black" points="690.5,-112.5 690.5,-142.5 773.5,-142.5 773.5,-112.5 690.5,-112.5"/>
<text text-anchor="start" x="698.5" y="-130.5" font-family="Helvetica,sans-Serif" font-size="10.00">yaclib/util/detail</text>
<text text-anchor="middle" x="732" y="-119.5" font-family="Helvetica,sans-Serif" font-size="10.00">/node.hpp</text>
</a>
</g>
</g>
<!-- Node6&#45;&gt;Node7 -->
<g id="edge6" class="edge">
<title>Node6&#45;&gt;Node7</title>
<path fill="none" stroke="midnightblue" d="M650.68,-184.73C664.11,-175.44 685.78,-160.46 703.37,-148.3"/>
<polygon fill="midnightblue" stroke="midnightblue" points="705.39,-151.16 711.63,-142.59 701.41,-145.4 705.39,-151.16"/>
</g>
<!-- Node8 -->
<g id="node8" class="node">
<title>Node8</title>
<g id="a_node8"><a xlink:href="func_8hpp.html" target="_top" xlink:title=" ">
<polygon fill="none" stroke="black" points="575.5,-118 575.5,-137 672.5,-137 672.5,-118 575.5,-118"/>
<text text-anchor="middle" x="624" y="-125" font-family="Helvetica,sans-Serif" font-size="10.00">yaclib/util/func.hpp</text>
</a>
</g>
</g>
<!-- Node6&#45;&gt;Node8 -->
<g id="edge7" class="edge">
<title>Node6&#45;&gt;Node8</title>
<path fill="none" stroke="midnightblue" d="M636.11,-184.73C634.03,-175.09 630.63,-159.3 627.96,-146.91"/>
<polygon fill="midnightblue" stroke="midnightblue" points="631.39,-146.17 625.86,-137.13 624.54,-147.64 631.39,-146.17"/>
</g>
<!-- Node8&#45;&gt;Node9 -->
<g id="edge8" class="edge">
<title>Node8&#45;&gt;Node9</title>
<path fill="none" stroke="midnightblue" d="M604.8,-117.98C582.21,-107.95 544.5,-91.2 518.5,-79.65"/>
<polygon fill="midnightblue" stroke="midnightblue" points="519.72,-76.37 509.16,-75.51 516.88,-82.77 519.72,-76.37"/>
</g>
<!-- Node10 -->
<g id="node10" class="node">
<title>Node10</title>
<g id="a_node10"><a xlink:title=" ">
<polygon fill="none" stroke="#bfbfbf" points="847,-56.5 847,-75.5 909,-75.5 909,-56.5 847,-56.5"/>
<text text-anchor="middle" x="878" y="-63.5" font-family="Helvetica,sans-Serif" font-size="10.00">type_traits</text>
</a>
</g>
</g>
<!-- Node8&#45;&gt;Node10 -->
<g id="edge9" class="edge">
<title>Node8&#45;&gt;Node10</title>
<path fill="none" stroke="midnightblue" d="M657.71,-117.96C665.67,-115.97 674.13,-113.89 682,-112 735.41,-99.19 797.19,-85.14 836.88,-76.2"/>
<polygon fill="midnightblue" stroke="midnightblue" points="837.74,-79.59 846.73,-73.98 836.2,-72.76 837.74,-79.59"/>
</g>
<!-- Node8&#45;&gt;Node11 -->
<g id="edge10" class="edge">
<title>Node8&#45;&gt;Node11</title>
<path fill="none" stroke="midnightblue" d="M624,-117.98C624,-109.58 624,-96.48 624,-85.66"/>
<polygon fill="midnightblue" stroke="midnightblue" points="627.5,-85.51 624,-75.51 620.5,-85.51 627.5,-85.51"/>
</g>
<!-- Node12&#45;&gt;Node6 -->
<g id="edge12" class="edge">
<title>Node12&#45;&gt;Node6</title>
<path fill="none" stroke="midnightblue" d="M771.55,-251.87C744.97,-240.65 698.36,-220.98 667.83,-208.09"/>
<polygon fill="midnightblue" stroke="midnightblue" points="669.11,-204.83 658.53,-204.17 666.39,-211.28 669.11,-204.83"/>
</g>
<!-- Node12&#45;&gt;Node13 -->
<g id="edge13" class="edge">
<title>Node12&#45;&gt;Node13</title>
<path fill="none" stroke="midnightblue" d="M800.77,-251.73C809.64,-242.86 823.69,-228.81 835.53,-216.97"/>
<polygon fill="midnightblue" stroke="midnightblue" points="838.31,-219.13 842.91,-209.59 833.37,-214.19 838.31,-219.13"/>
</g>
<!-- Node13&#45;&gt;Node9 -->
<g id="edge14" class="edge">
<title>Node13&#45;&gt;Node9</title>
<path fill="none" stroke="midnightblue" d="M808.38,-188.59C737.12,-180.79 608.29,-164.27 567,-143 539.7,-128.94 515.86,-101.84 502.2,-84.09"/>
<polygon fill="midnightblue" stroke="midnightblue" points="504.8,-81.71 496.02,-75.78 499.18,-85.89 504.8,-81.71"/>
</g>
<!-- Node13&#45;&gt;Node10 -->
<g id="edge15" class="edge">
<title>Node13&#45;&gt;Node10</title>
<path fill="none" stroke="midnightblue" d="M859.33,-179.48C863.12,-156.62 870.65,-111.3 874.89,-85.71"/>
<polygon fill="midnightblue" stroke="midnightblue" points="878.36,-86.23 876.54,-75.79 871.45,-85.08 878.36,-86.23"/>
</g>
<!-- Node14 -->
<g id="node14" class="node">
<title>Node14</title>
<g id="a_node14"><a xlink:href="intrusive__ptr__impl_8hpp.html" target="_top" xlink:title=" ">
<polygon fill="none" stroke="black" points="906,-112.5 906,-142.5 1020,-142.5 1020,-112.5 906,-112.5"/>
<text text-anchor="start" x="914" y="-130.5" font-family="Helvetica,sans-Serif" font-size="10.00">yaclib/util/detail</text>
<text text-anchor="middle" x="963" y="-119.5" font-family="Helvetica,sans-Serif" font-size="10.00">/intrusive_ptr_impl.hpp</text>
</a>
</g>
</g>
<!-- Node13&#45;&gt;Node14 -->
<g id="edge16" class="edge">
<title>Node13&#45;&gt;Node14</title>
<path fill="none" stroke="midnightblue" d="M880,-179.4C895,-170.2 914.79,-158.07 931.27,-147.95"/>
<polygon fill="midnightblue" stroke="midnightblue" points="933.35,-150.79 940.04,-142.58 929.69,-144.82 933.35,-150.79"/>
</g>
<!-- Node15 -->
<g id="node15" class="node">
<title>Node15</title>
<g id="a_node15"><a xlink:href="log_8hpp.html" target="_top" xlink:title=" ">
<polygon fill="none" stroke="black" points="1068.5,-56.5 1068.5,-75.5 1143.5,-75.5 1143.5,-56.5 1068.5,-56.5"/>
<text text-anchor="middle" x="1106" y="-63.5" font-family="Helvetica,sans-Serif" font-size="10.00">yaclib/log.hpp</text>
</a>
</g>
</g>
<!-- Node14&#45;&gt;Node15 -->
<g id="edge17" class="edge">
<title>Node14&#45;&gt;Node15</title>
<path fill="none" stroke="midnightblue" d="M996.89,-112.4C1020.88,-102.42 1052.77,-89.15 1075.88,-79.53"/>
<polygon fill="midnightblue" stroke="midnightblue" points="1077.3,-82.73 1085.19,-75.66 1074.61,-76.27 1077.3,-82.73"/>
</g>
<!-- Node16 -->
<g id="node16" class="node">
<title>Node16</title>
<g id="a_node16"><a xlink:title=" ">
<polygon fill="none" stroke="#bfbfbf" points="1073,-0.5 1073,-19.5 1139,-19.5 1139,-0.5 1073,-0.5"/>
<text text-anchor="middle" x="1106" y="-7.5" font-family="Helvetica,sans-Serif" font-size="10.00">string_view</text>
</a>
</g>
</g>
<!-- Node15&#45;&gt;Node16 -->
<g id="edge18" class="edge">
<title>Node15&#45;&gt;Node16</title>
<path fill="none" stroke="midnightblue" d="M1106,-56.08C1106,-49.01 1106,-38.86 1106,-29.99"/>
<polygon fill="midnightblue" stroke="midnightblue" points="1109.5,-29.75 1106,-19.75 1102.5,-29.75 1109.5,-29.75"/>
</g>
<!-- Node18&#45;&gt;Node19 -->
<g id="edge25" class="edge">
<title>Node18&#45;&gt;Node19</title>
<path fill="none" stroke="midnightblue" d="M1060.24,-318.73C1079.22,-307.82 1111.85,-289.05 1134.15,-276.22"/>
<polygon fill="midnightblue" stroke="midnightblue" points="1136.08,-279.15 1143,-271.13 1132.59,-273.08 1136.08,-279.15"/>
</g>
<!-- Node22 -->
<g id="node22" class="node">
<title>Node22</title>
<g id="a_node22"><a xlink:title=" ">
<polygon fill="none" stroke="#bfbfbf" points="962,-185 962,-204 1020,-204 1020,-185 962,-185"/>
<text text-anchor="middle" x="991" y="-192" font-family="Helvetica,sans-Serif" font-size="10.00">exception</text>
</a>
</g>
</g>
<!-- Node18&#45;&gt;Node22 -->
<g id="edge32" class="edge">
<title>Node18&#45;&gt;Node22</title>
<path fill="none" stroke="midnightblue" d="M1047.88,-318.93C1052.55,-303.52 1060.15,-270.5 1049,-246 1042.1,-230.84 1028.16,-218.47 1015.67,-209.76"/>
<polygon fill="midnightblue" stroke="midnightblue" points="1017.25,-206.61 1006.96,-204.08 1013.42,-212.48 1017.25,-206.61"/>
</g>
<!-- Node23 -->
<g id="node23" class="node">
<title>Node23</title>
<g id="a_node23"><a xlink:title=" ">
<polygon fill="none" stroke="#bfbfbf" points="994,-252 994,-271 1040,-271 1040,-252 994,-252"/>
<text text-anchor="middle" x="1017" y="-259" font-family="Helvetica,sans-Serif" font-size="10.00">variant</text>
</a>
</g>
</g>
<!-- Node18&#45;&gt;Node23 -->
<g id="edge33" class="edge">
<title>Node18&#45;&gt;Node23</title>
<path fill="none" stroke="midnightblue" d="M1041.22,-318.73C1037.03,-308.99 1030.13,-292.98 1024.77,-280.53"/>
<polygon fill="midnightblue" stroke="midnightblue" points="1027.89,-278.93 1020.72,-271.13 1021.46,-281.7 1027.89,-278.93"/>
</g>
<!-- Node19&#45;&gt;Node10 -->
<g id="edge31" class="edge">
<title>Node19&#45;&gt;Node10</title>
<path fill="none" stroke="midnightblue" d="M1132.46,-251.88C1112.24,-243.89 1084.57,-230.16 1067,-210 1036.3,-174.79 1063.33,-143.68 1029,-112 999.07,-84.38 952.88,-73.67 919.46,-69.54"/>
<polygon fill="midnightblue" stroke="midnightblue" points="919.42,-66.01 909.1,-68.41 918.67,-72.97 919.42,-66.01"/>
</g>
<!-- Node20 -->
<g id="node20" class="node">
<title>Node20</title>
<g id="a_node20"><a xlink:href="fwd_8hpp.html" target="_top" xlink:title=" ">
<polygon fill="none" stroke="black" points="1135,-118 1135,-137 1213,-137 1213,-118 1135,-118"/>
<text text-anchor="middle" x="1174" y="-125" font-family="Helvetica,sans-Serif" font-size="10.00">yaclib/fwd.hpp</text>
</a>
</g>
</g>
<!-- Node19&#45;&gt;Node20 -->
<g id="edge26" class="edge">
<title>Node19&#45;&gt;Node20</title>
<path fill="none" stroke="midnightblue" d="M1165.82,-252C1173.93,-242.56 1186.1,-226.46 1191,-210 1197.42,-188.43 1189.75,-162.96 1182.74,-146.3"/>
<polygon fill="midnightblue" stroke="midnightblue" points="1185.92,-144.84 1178.6,-137.18 1179.55,-147.74 1185.92,-144.84"/>
</g>
<!-- Node21 -->
<g id="node21" class="node">
<title>Node21</title>
<g id="a_node21"><a xlink:href="type__traits__impl_8hpp.html" target="_top" xlink:title=" ">
<polygon fill="none" stroke="black" points="1076,-179.5 1076,-209.5 1182,-209.5 1182,-179.5 1076,-179.5"/>
<text text-anchor="start" x="1084" y="-197.5" font-family="Helvetica,sans-Serif" font-size="10.00">yaclib/util/detail</text>
<text text-anchor="middle" x="1129" y="-186.5" font-family="Helvetica,sans-Serif" font-size="10.00">/type_traits_impl.hpp</text>
</a>
</g>
</g>
<!-- Node19&#45;&gt;Node21 -->
<g id="edge27" class="edge">
<title>Node19&#45;&gt;Node21</title>
<path fill="none" stroke="midnightblue" d="M1154.09,-251.73C1150.36,-243.37 1144.57,-230.4 1139.49,-219.02"/>
<polygon fill="midnightblue" stroke="midnightblue" points="1142.56,-217.3 1135.29,-209.59 1136.16,-220.15 1142.56,-217.3"/>
</g>
<!-- Node19&#45;&gt;Node22 -->
<g id="edge30" class="edge">
<title>Node19&#45;&gt;Node22</title>
<path fill="none" stroke="midnightblue" d="M1135.82,-251.87C1106.8,-240.57 1055.73,-220.7 1022.65,-207.82"/>
<polygon fill="midnightblue" stroke="midnightblue" points="1023.59,-204.43 1013,-204.06 1021.05,-210.95 1023.59,-204.43"/>
</g>
<!-- Node21&#45;&gt;Node10 -->
<g id="edge29" class="edge">
<title>Node21&#45;&gt;Node10</title>
<path fill="none" stroke="midnightblue" d="M1121.27,-179.31C1110.48,-160.88 1089.14,-129.06 1062,-112 1018.17,-84.44 958.66,-73.76 919.34,-69.62"/>
<polygon fill="midnightblue" stroke="midnightblue" points="919.59,-66.13 909.3,-68.66 918.92,-73.1 919.59,-66.13"/>
</g>
<!-- Node21&#45;&gt;Node20 -->
<g id="edge28" class="edge">
<title>Node21&#45;&gt;Node20</title>
<path fill="none" stroke="midnightblue" d="M1138.76,-179.4C1145.64,-169.46 1154.89,-156.11 1162.18,-145.57"/>
<polygon fill="midnightblue" stroke="midnightblue" points="1165.17,-147.41 1167.98,-137.19 1159.41,-143.42 1165.17,-147.41"/>
</g>
<!-- Node24&#45;&gt;Node13 -->
<g id="edge42" class="edge">
<title>Node24&#45;&gt;Node13</title>
<path fill="none" stroke="midnightblue" d="M605.35,-385.99C677.98,-367.73 839.79,-322.68 871,-277 882.58,-260.05 876.86,-236.62 869.55,-219.23"/>
<polygon fill="midnightblue" stroke="midnightblue" points="872.56,-217.39 865.19,-209.78 866.2,-220.33 872.56,-217.39"/>
</g>
<!-- Node24&#45;&gt;Node25 -->
<g id="edge37" class="edge">
<title>Node24&#45;&gt;Node25</title>
<path fill="none" stroke="midnightblue" d="M556.92,-385.73C543.05,-376.44 520.7,-361.46 502.54,-349.3"/>
<polygon fill="midnightblue" stroke="midnightblue" points="504.28,-346.25 494.03,-343.59 500.38,-352.06 504.28,-346.25"/>
</g>
<!-- Node25&#45;&gt;Node11 -->
<g id="edge40" class="edge">
<title>Node25&#45;&gt;Node11</title>
<path fill="none" stroke="midnightblue" d="M421.85,-313.43C403.83,-305.74 385.46,-294.16 375,-277 367.83,-265.24 368.71,-258.26 375,-246 421.88,-154.57 539.58,-99.26 594.69,-77.58"/>
<polygon fill="midnightblue" stroke="midnightblue" points="596.14,-80.77 604.22,-73.92 593.63,-74.24 596.14,-80.77"/>
</g>
<!-- Node25&#45;&gt;Node17 -->
<g id="edge41" class="edge">
<title>Node25&#45;&gt;Node17</title>
<path fill="none" stroke="midnightblue" d="M463.67,-313.4C457.1,-303.46 448.26,-290.11 441.29,-279.57"/>
<polygon fill="midnightblue" stroke="midnightblue" points="444.19,-277.6 435.75,-271.19 438.35,-281.47 444.19,-277.6"/>
</g>
<!-- Node26 -->
<g id="node26" class="node">
<title>Node26</title>
<g id="a_node26"><a xlink:title=" ">
<polygon fill="none" stroke="#bfbfbf" points="0,-252 0,-271 88,-271 88,-252 0,-252"/>
<text text-anchor="middle" x="44" y="-259" font-family="Helvetica,sans-Serif" font-size="10.00">yaclib/config.hpp</text>
</a>
</g>
</g>
<!-- Node25&#45;&gt;Node26 -->
<g id="edge38" class="edge">
<title>Node25&#45;&gt;Node26</title>
<path fill="none" stroke="midnightblue" d="M420.88,-319.94C325.79,-306.13 133.23,-278.17 126,-277 116.99,-275.55 107.43,-273.93 98.14,-272.32"/>
<polygon fill="midnightblue" stroke="midnightblue" points="98.67,-268.85 88.22,-270.57 97.46,-275.75 98.67,-268.85"/>
</g>
<!-- Node27 -->
<g id="node27" class="node">
<title>Node27</title>
<g id="a_node27"><a xlink:title=" ">
<polygon fill="none" stroke="#bfbfbf" points="278.5,-252 278.5,-271 327.5,-271 327.5,-252 278.5,-252"/>
<text text-anchor="middle" x="303" y="-259" font-family="Helvetica,sans-Serif" font-size="10.00">cstddef</text>
</a>
</g>
</g>
<!-- Node25&#45;&gt;Node27 -->
<g id="edge39" class="edge">
<title>Node25&#45;&gt;Node27</title>
<path fill="none" stroke="midnightblue" d="M436.11,-313.4C405.89,-301.84 363.56,-285.66 334.81,-274.66"/>
<polygon fill="midnightblue" stroke="midnightblue" points="335.84,-271.31 325.25,-271.01 333.34,-277.85 335.84,-271.31"/>
</g>
<!-- Node28&#45;&gt;Node15 -->
<g id="edge68" class="edge">
<title>Node28&#45;&gt;Node15</title>
<path fill="none" stroke="midnightblue" d="M850.15,-528.6C965.48,-526.08 1248,-502.26 1248,-329.5 1248,-329.5 1248,-329.5 1248,-193.5 1248,-155.48 1248.05,-139.7 1222,-112 1204,-92.86 1176.92,-81.75 1153.45,-75.36"/>
<polygon fill="midnightblue" stroke="midnightblue" points="1154.2,-71.94 1143.65,-72.9 1152.5,-78.73 1154.2,-71.94"/>
</g>
<!-- Node28&#45;&gt;Node18 -->
<g id="edge69" class="edge">
<title>Node28&#45;&gt;Node18</title>
<path fill="none" stroke="midnightblue" d="M819.48,-514.19C863.95,-477.77 981.1,-381.83 1026.58,-344.58"/>
<polygon fill="midnightblue" stroke="midnightblue" points="1028.92,-347.19 1034.44,-338.14 1024.49,-341.77 1028.92,-347.19"/>
</g>
<!-- Node29 -->
<g id="node29" class="node">
<title>Node29</title>
<g id="a_node29"><a xlink:href="wait_8hpp.html" target="_top" xlink:title=" ">
<polygon fill="none" stroke="black" points="227.5,-453 227.5,-472 328.5,-472 328.5,-453 227.5,-453"/>
<text text-anchor="middle" x="278" y="-460" font-family="Helvetica,sans-Serif" font-size="10.00">yaclib/algo/wait.hpp</text>
</a>
</g>
</g>
<!-- Node28&#45;&gt;Node29 -->
<g id="edge45" class="edge">
<title>Node28&#45;&gt;Node29</title>
<path fill="none" stroke="midnightblue" d="M753.64,-522.5C657.77,-510.61 443.81,-484.07 338.67,-471.03"/>
<polygon fill="midnightblue" stroke="midnightblue" points="338.9,-467.53 328.54,-469.77 338.03,-474.47 338.9,-467.53"/>
</g>
<!-- Node38 -->
<g id="node38" class="node">
<title>Node38</title>
<g id="a_node38"><a xlink:href="core_8hpp.html" target="_top" xlink:title=" ">
<polygon fill="none" stroke="black" points="602,-447.5 602,-477.5 698,-477.5 698,-447.5 602,-447.5"/>
<text text-anchor="start" x="610" y="-465.5" font-family="Helvetica,sans-Serif" font-size="10.00">yaclib/async/detail</text>
<text text-anchor="middle" x="650" y="-454.5" font-family="Helvetica,sans-Serif" font-size="10.00">/core.hpp</text>
</a>
</g>
</g>
<!-- Node28&#45;&gt;Node38 -->
<g id="edge65" class="edge">
<title>Node28&#45;&gt;Node38</title>
<path fill="none" stroke="midnightblue" d="M769.02,-514.4C746.51,-504.77 716.5,-491.94 692.24,-481.56"/>
<polygon fill="midnightblue" stroke="midnightblue" points="693.49,-478.29 682.92,-477.58 690.74,-484.73 693.49,-478.29"/>
</g>
<!-- Node29&#45;&gt;Node2 -->
<g id="edge61" class="edge">
<title>Node29&#45;&gt;Node2</title>
<path fill="none" stroke="midnightblue" d="M306.56,-472.03C357.14,-487.1 465.84,-519.25 558,-545 600.56,-556.89 649.37,-569.9 683.37,-578.85"/>
<polygon fill="midnightblue" stroke="midnightblue" points="682.86,-582.34 693.42,-581.5 684.64,-575.57 682.86,-582.34"/>
</g>
<!-- Node29&#45;&gt;Node26 -->
<g id="edge62" class="edge">
<title>Node29&#45;&gt;Node26</title>
<path fill="none" stroke="midnightblue" d="M227.25,-455.55C166.03,-445.2 66.86,-417.39 31,-344 21.1,-323.74 28.28,-297.6 35.29,-280.46"/>
<polygon fill="midnightblue" stroke="midnightblue" points="38.59,-281.64 39.47,-271.08 32.2,-278.79 38.59,-281.64"/>
</g>
<!-- Node29&#45;&gt;Node27 -->
<g id="edge64" class="edge">
<title>Node29&#45;&gt;Node27</title>
<path fill="none" stroke="midnightblue" d="M264.55,-452.73C230.89,-429.67 148.12,-365.52 183,-313 192.93,-298.05 236.72,-282.21 268.54,-272.34"/>
<polygon fill="midnightblue" stroke="midnightblue" points="269.84,-275.61 278.39,-269.36 267.81,-268.91 269.84,-275.61"/>
</g>
<!-- Node30 -->
<g id="node30" class="node">
<title>Node30</title>
<g id="a_node30"><a xlink:href="wait__impl_8hpp.html" target="_top" xlink:title=" ">
<polygon fill="none" stroke="black" points="348.5,-380.5 348.5,-410.5 437.5,-410.5 437.5,-380.5 348.5,-380.5"/>
<text text-anchor="start" x="356.5" y="-398.5" font-family="Helvetica,sans-Serif" font-size="10.00">yaclib/algo/detail</text>
<text text-anchor="middle" x="393" y="-387.5" font-family="Helvetica,sans-Serif" font-size="10.00">/wait_impl.hpp</text>
</a>
</g>
</g>
<!-- Node29&#45;&gt;Node30 -->
<g id="edge46" class="edge">
<title>Node29&#45;&gt;Node30</title>
<path fill="none" stroke="midnightblue" d="M293.51,-452.73C310.25,-443.27 337.42,-427.91 359.14,-415.64"/>
<polygon fill="midnightblue" stroke="midnightblue" points="361.09,-418.56 368.07,-410.59 357.65,-412.46 361.09,-418.56"/>
</g>
<!-- Node31 -->
<g id="node31" class="node">
<title>Node31</title>
<g id="a_node31"><a xlink:href="default__event_8hpp.html" target="_top" xlink:title=" ">
<polygon fill="none" stroke="black" points="40,-313.5 40,-343.5 136,-343.5 136,-313.5 40,-313.5"/>
<text text-anchor="start" x="48" y="-331.5" font-family="Helvetica,sans-Serif" font-size="10.00">yaclib/util/detail</text>
<text text-anchor="middle" x="88" y="-320.5" font-family="Helvetica,sans-Serif" font-size="10.00">/default_event.hpp</text>
</a>
</g>
</g>
<!-- Node29&#45;&gt;Node31 -->
<g id="edge63" class="edge">
<title>Node29&#45;&gt;Node31</title>
<path fill="none" stroke="midnightblue" d="M241.97,-452.96C214.75,-445.24 177.52,-431.84 150,-411 129.12,-395.19 111.74,-370.59 100.75,-352.55"/>
<polygon fill="midnightblue" stroke="midnightblue" points="103.68,-350.63 95.59,-343.79 97.65,-354.18 103.68,-350.63"/>
</g>
<!-- Node30&#45;&gt;Node4 -->
<g id="edge47" class="edge">
<title>Node30&#45;&gt;Node4</title>
<path fill="none" stroke="midnightblue" d="M435.96,-380.4C466.06,-370.52 506.46,-357.25 538.48,-346.74"/>
<polygon fill="midnightblue" stroke="midnightblue" points="539.71,-350.02 548.12,-343.58 537.53,-343.37 539.71,-350.02"/>
</g>
<!-- Node30&#45;&gt;Node10 -->
<g id="edge60" class="edge">
<title>Node30&#45;&gt;Node10</title>
<path fill="none" stroke="midnightblue" d="M437.51,-387.58C505.87,-376.67 630.67,-355.53 648,-344 691.73,-314.92 681.51,-287.25 714,-246 764.28,-182.17 831.83,-112.97 862.13,-82.68"/>
<polygon fill="midnightblue" stroke="midnightblue" points="864.7,-85.06 869.32,-75.53 859.77,-80.1 864.7,-85.06"/>
</g>
<!-- Node30&#45;&gt;Node19 -->
<g id="edge57" class="edge">
<title>Node30&#45;&gt;Node19</title>
<path fill="none" stroke="midnightblue" d="M437.72,-386.78C568.48,-364.22 950.27,-298.34 1098.34,-272.79"/>
<polygon fill="midnightblue" stroke="midnightblue" points="1099.33,-276.17 1108.59,-271.03 1098.14,-269.28 1099.33,-276.17"/>
</g>
<!-- Node30&#45;&gt;Node25 -->
<g id="edge48" class="edge">
<title>Node30&#45;&gt;Node25</title>
<path fill="none" stroke="midnightblue" d="M410.36,-380.4C421.26,-371.54 435.51,-359.96 447.66,-350.09"/>
<polygon fill="midnightblue" stroke="midnightblue" points="450.12,-352.6 455.68,-343.58 445.71,-347.17 450.12,-352.6"/>
</g>
<!-- Node30&#45;&gt;Node27 -->
<g id="edge58" class="edge">
<title>Node30&#45;&gt;Node27</title>
<path fill="none" stroke="midnightblue" d="M392.46,-380.34C391.17,-363.08 386.93,-333.66 373,-313 362.32,-297.15 344.9,-284.56 330.12,-275.92"/>
<polygon fill="midnightblue" stroke="midnightblue" points="331.78,-272.84 321.34,-271.05 328.39,-278.96 331.78,-272.84"/>
</g>
<!-- Node30&#45;&gt;Node31 -->
<g id="edge49" class="edge">
<title>Node30&#45;&gt;Node31</title>
<path fill="none" stroke="midnightblue" d="M348.32,-384.98C294.75,-373.56 204.84,-354.4 145.96,-341.85"/>
<polygon fill="midnightblue" stroke="midnightblue" points="146.58,-338.41 136.07,-339.74 145.12,-345.25 146.58,-338.41"/>
</g>
<!-- Node36 -->
<g id="node36" class="node">
<title>Node36</title>
<g id="a_node36"><a xlink:href="set__one__deleter_8hpp.html" target="_top" xlink:title=" ">
<polygon fill="none" stroke="black" points="192.5,-313.5 192.5,-343.5 299.5,-343.5 299.5,-313.5 192.5,-313.5"/>
<text text-anchor="start" x="200.5" y="-331.5" font-family="Helvetica,sans-Serif" font-size="10.00">yaclib/util/detail</text>
<text text-anchor="middle" x="246" y="-320.5" font-family="Helvetica,sans-Serif" font-size="10.00">/set_one_deleter.hpp</text>
</a>
</g>
</g>
<!-- Node30&#45;&gt;Node36 -->
<g id="edge56" class="edge">
<title>Node30&#45;&gt;Node36</title>
<path fill="none" stroke="midnightblue" d="M361.1,-380.4C339.43,-370.81 310.57,-358.05 287.16,-347.7"/>
<polygon fill="midnightblue" stroke="midnightblue" points="288.4,-344.42 277.83,-343.58 285.56,-350.82 288.4,-344.42"/>
</g>
<!-- Node37 -->
<g id="node37" class="node">
<title>Node37</title>
<g id="a_node37"><a xlink:title=" ">
<polygon fill="none" stroke="#bfbfbf" points="317.5,-319 317.5,-338 364.5,-338 364.5,-319 317.5,-319"/>
<text text-anchor="middle" x="341" y="-326" font-family="Helvetica,sans-Serif" font-size="10.00">iterator</text>
</a>
</g>
</g>
<!-- Node30&#45;&gt;Node37 -->
<g id="edge59" class="edge">
<title>Node30&#45;&gt;Node37</title>
<path fill="none" stroke="midnightblue" d="M381.72,-380.4C373.69,-370.36 362.87,-356.84 354.4,-346.25"/>
<polygon fill="midnightblue" stroke="midnightblue" points="356.94,-343.82 347.96,-338.19 351.47,-348.19 356.94,-343.82"/>
</g>
<!-- Node31&#45;&gt;Node26 -->
<g id="edge50" class="edge">
<title>Node31&#45;&gt;Node26</title>
<path fill="none" stroke="midnightblue" d="M78.45,-313.4C71.73,-303.46 62.69,-290.11 55.56,-279.57"/>
<polygon fill="midnightblue" stroke="midnightblue" points="58.39,-277.51 49.89,-271.19 52.59,-281.44 58.39,-277.51"/>
</g>
<!-- Node32 -->
<g id="node32" class="node">
<title>Node32</title>
<g id="a_node32"><a xlink:href="mutex__event_8hpp.html" target="_top" xlink:title=" ">
<polygon fill="none" stroke="black" points="135.5,-246.5 135.5,-276.5 228.5,-276.5 228.5,-246.5 135.5,-246.5"/>
<text text-anchor="start" x="143.5" y="-264.5" font-family="Helvetica,sans-Serif" font-size="10.00">yaclib/util/detail</text>
<text text-anchor="middle" x="182" y="-253.5" font-family="Helvetica,sans-Serif" font-size="10.00">/mutex_event.hpp</text>
</a>
</g>
</g>
<!-- Node31&#45;&gt;Node32 -->
<g id="edge51" class="edge">
<title>Node31&#45;&gt;Node32</title>
<path fill="none" stroke="midnightblue" d="M108.4,-313.4C121.45,-304.37 138.6,-292.51 153.05,-282.52"/>
<polygon fill="midnightblue" stroke="midnightblue" points="155.41,-285.14 161.64,-276.58 151.43,-279.39 155.41,-285.14"/>
</g>
<!-- Node32&#45;&gt;Node9 -->
<g id="edge52" class="edge">
<title>Node32&#45;&gt;Node9</title>
<path fill="none" stroke="midnightblue" d="M196.96,-246.43C218.68,-226.15 258.08,-189.93 274,-179 336.35,-136.19 417.15,-98.48 460.09,-79.67"/>
<polygon fill="midnightblue" stroke="midnightblue" points="461.63,-82.82 469.41,-75.63 458.84,-76.4 461.63,-82.82"/>
</g>
<!-- Node33 -->
<g id="node33" class="node">
<title>Node33</title>
<g id="a_node33"><a xlink:title=" ">
<polygon fill="none" stroke="#bfbfbf" points="283,-185 283,-204 329,-204 329,-185 283,-185"/>
<text text-anchor="middle" x="306" y="-192" font-family="Helvetica,sans-Serif" font-size="10.00">chrono</text>
</a>
</g>
</g>
<!-- Node32&#45;&gt;Node33 -->
<g id="edge53" class="edge">
<title>Node32&#45;&gt;Node33</title>
<path fill="none" stroke="midnightblue" d="M208.91,-246.4C230.28,-235.19 259.95,-219.64 280.85,-208.69"/>
<polygon fill="midnightblue" stroke="midnightblue" points="282.54,-211.75 289.77,-204.01 279.29,-205.55 282.54,-211.75"/>
</g>
<!-- Node34 -->
<g id="node34" class="node">
<title>Node34</title>
<g id="a_node34"><a xlink:title=" ">
<polygon fill="none" stroke="#bfbfbf" points="18,-179.5 18,-209.5 120,-209.5 120,-179.5 18,-179.5"/>
<text text-anchor="start" x="26" y="-197.5" font-family="Helvetica,sans-Serif" font-size="10.00">yaclib_std/condition</text>
<text text-anchor="middle" x="69" y="-186.5" font-family="Helvetica,sans-Serif" font-size="10.00">_variable</text>
</a>
</g>
</g>
<!-- Node32&#45;&gt;Node34 -->
<g id="edge54" class="edge">
<title>Node32&#45;&gt;Node34</title>
<path fill="none" stroke="midnightblue" d="M157.48,-246.4C141.34,-237.11 120.01,-224.84 102.33,-214.67"/>
<polygon fill="midnightblue" stroke="midnightblue" points="103.88,-211.53 93.47,-209.58 100.39,-217.6 103.88,-211.53"/>
</g>
<!-- Node35 -->
<g id="node35" class="node">
<title>Node35</title>
<g id="a_node35"><a xlink:title=" ">
<polygon fill="none" stroke="#bfbfbf" points="137.5,-185 137.5,-204 226.5,-204 226.5,-185 137.5,-185"/>
<text text-anchor="middle" x="182" y="-192" font-family="Helvetica,sans-Serif" font-size="10.00">yaclib_std/mutex</text>
</a>
</g>
</g>
<!-- Node32&#45;&gt;Node35 -->
<g id="edge55" class="edge">
<title>Node32&#45;&gt;Node35</title>
<path fill="none" stroke="midnightblue" d="M182,-246.4C182,-237.06 182,-224.71 182,-214.52"/>
<polygon fill="midnightblue" stroke="midnightblue" points="185.5,-214.19 182,-204.19 178.5,-214.19 185.5,-214.19"/>
</g>
<!-- Node38&#45;&gt;Node3 -->
<g id="edge66" class="edge">
<title>Node38&#45;&gt;Node3</title>
<path fill="none" stroke="midnightblue" d="M670.18,-447.4C683.1,-438.37 700.06,-426.51 714.36,-416.52"/>
<polygon fill="midnightblue" stroke="midnightblue" points="716.67,-419.17 722.86,-410.58 712.66,-413.44 716.67,-419.17"/>
</g>
<!-- Node38&#45;&gt;Node25 -->
<g id="edge67" class="edge">
<title>Node38&#45;&gt;Node25</title>
<path fill="none" stroke="midnightblue" d="M650.68,-447.49C650.76,-429.55 648.14,-398.58 631,-380 624.06,-372.48 576.14,-357.75 534.87,-346.13"/>
<polygon fill="midnightblue" stroke="midnightblue" points="535.67,-342.72 525.1,-343.4 533.79,-349.46 535.67,-342.72"/>
</g>
<!-- Node39&#45;&gt;Node26 -->
<g id="edge71" class="edge">
<title>Node39&#45;&gt;Node26</title>
<path fill="none" stroke="midnightblue" d="M80.06,-519.92C68.42,-494.04 34.32,-414.28 23,-344 20.81,-330.4 20.3,-326.51 23,-313 25.27,-301.65 30.14,-289.66 34.62,-280.21"/>
<polygon fill="midnightblue" stroke="midnightblue" points="37.83,-281.61 39.18,-271.1 31.57,-278.47 37.83,-281.61"/>
</g>
</g>
</svg>
