<?xml version="1.0" encoding="UTF-8" standalone="no"?>
<!DOCTYPE svg PUBLIC "-//W3C//DTD SVG 1.1//EN"
 "http://www.w3.org/Graphics/SVG/1.1/DTD/svg11.dtd">
<!-- Generated by graphviz version 3.0.0 (20220413.0106)
 -->
<!-- Title: include/yaclib/coroutine/await.hpp Pages: 1 -->
<svg width="1240pt" height="743pt"
 viewBox="0.00 0.00 1240.01 743.00" xmlns="http://www.w3.org/2000/svg" xmlns:xlink="http://www.w3.org/1999/xlink">
<g id="graph0" class="graph" transform="scale(1 1) rotate(0) translate(4 739)">
<title>include/yaclib/coroutine/await.hpp</title>
<!-- Node1 -->
<g id="node1" class="node">
<title>Node1</title>
<g id="a_node1"><a xlink:title=" ">
<polygon fill="#bfbfbf" stroke="black" points="408,-704.5 408,-734.5 526,-734.5 526,-704.5 408,-704.5"/>
<text text-anchor="start" x="416" y="-722.5" font-family="Helvetica,sans-Serif" font-size="10.00">include/yaclib/coroutine</text>
<text text-anchor="middle" x="467" y="-711.5" font-family="Helvetica,sans-Serif" font-size="10.00">/await.hpp</text>
</a>
</g>
</g>
<!-- Node2 -->
<g id="node2" class="node">
<title>Node2</title>
<g id="a_node2"><a xlink:href="future_8hpp.html" target="_top" xlink:title=" ">
<polygon fill="none" stroke="black" points="588,-581.5 588,-600.5 704,-600.5 704,-581.5 588,-581.5"/>
<text text-anchor="middle" x="646" y="-588.5" font-family="Helvetica,sans-Serif" font-size="10.00">yaclib/async/future.hpp</text>
</a>
</g>
</g>
<!-- Node1&#45;&gt;Node2 -->
<g id="edge1" class="edge">
<title>Node1&#45;&gt;Node2</title>
<path fill="none" stroke="midnightblue" d="M486.84,-704.48C520.93,-680.39 590.31,-631.35 625.11,-606.76"/>
<polygon fill="midnightblue" stroke="midnightblue" points="627.42,-609.42 633.56,-600.79 623.38,-603.7 627.42,-609.42"/>
</g>
<!-- Node19 -->
<g id="node19" class="node">
<title>Node19</title>
<g id="a_node19"><a xlink:href="type__traits_8hpp.html" target="_top" xlink:title=" ">
<polygon fill="none" stroke="black" points="1057.5,-252 1057.5,-271 1180.5,-271 1180.5,-252 1057.5,-252"/>
<text text-anchor="middle" x="1119" y="-259" font-family="Helvetica,sans-Serif" font-size="10.00">yaclib/util/type_traits.hpp</text>
</a>
</g>
</g>
<!-- Node1&#45;&gt;Node19 -->
<g id="edge78" class="edge">
<title>Node1&#45;&gt;Node19</title>
<path fill="none" stroke="midnightblue" d="M526.17,-713.94C694,-700.23 1161,-656.3 1161,-592 1161,-592 1161,-592 1161,-394.5 1161,-351.8 1140.8,-304.84 1128.42,-280.07"/>
<polygon fill="midnightblue" stroke="midnightblue" points="1131.52,-278.44 1123.82,-271.16 1125.3,-281.65 1131.52,-278.44"/>
</g>
<!-- Node25 -->
<g id="node25" class="node">
<title>Node25</title>
<g id="a_node25"><a xlink:href="atomic__counter_8hpp.html" target="_top" xlink:title=" ">
<polygon fill="none" stroke="black" points="224,-313.5 224,-343.5 328,-343.5 328,-313.5 224,-313.5"/>
<text text-anchor="start" x="232" y="-331.5" font-family="Helvetica,sans-Serif" font-size="10.00">yaclib/util/detail</text>
<text text-anchor="middle" x="276" y="-320.5" font-family="Helvetica,sans-Serif" font-size="10.00">/atomic_counter.hpp</text>
</a>
</g>
</g>
<!-- Node1&#45;&gt;Node25 -->
<g id="edge77" class="edge">
<title>Node1&#45;&gt;Node25</title>
<path fill="none" stroke="midnightblue" d="M407.76,-713.64C334.97,-704.05 221,-675.68 221,-592 221,-592 221,-592 221,-461.5 221,-420.59 243.78,-377.66 260.02,-352.26"/>
<polygon fill="midnightblue" stroke="midnightblue" points="263.07,-354 265.65,-343.73 257.22,-350.15 263.07,-354"/>
</g>
<!-- Node39 -->
<g id="node39" class="node">
<title>Node39</title>
<g id="a_node39"><a xlink:href="coroutine_8hpp.html" target="_top" xlink:title=" ">
<polygon fill="none" stroke="black" points="47.5,-581.5 47.5,-600.5 192.5,-600.5 192.5,-581.5 47.5,-581.5"/>
<text text-anchor="middle" x="120" y="-588.5" font-family="Helvetica,sans-Serif" font-size="10.00">yaclib/coroutine/coroutine.hpp</text>
</a>
</g>
</g>
<!-- Node1&#45;&gt;Node39 -->
<g id="edge70" class="edge">
<title>Node1&#45;&gt;Node39</title>
<path fill="none" stroke="midnightblue" d="M407.95,-715.79C353.36,-711.3 271.23,-699.42 207,-668 177.27,-653.46 149.72,-626.09 133.9,-608.47"/>
<polygon fill="midnightblue" stroke="midnightblue" points="136.32,-605.93 127.11,-600.7 131.05,-610.54 136.32,-605.93"/>
</g>
<!-- Node40 -->
<g id="node40" class="node">
<title>Node40</title>
<g id="a_node40"><a xlink:href="await__awaiter_8hpp.html" target="_top" xlink:title=" ">
<polygon fill="none" stroke="black" points="412,-637.5 412,-667.5 522,-667.5 522,-637.5 412,-637.5"/>
<text text-anchor="start" x="420" y="-655.5" font-family="Helvetica,sans-Serif" font-size="10.00">yaclib/coroutine/detail</text>
<text text-anchor="middle" x="467" y="-644.5" font-family="Helvetica,sans-Serif" font-size="10.00">/await_awaiter.hpp</text>
</a>
</g>
</g>
<!-- Node1&#45;&gt;Node40 -->
<g id="edge72" class="edge">
<title>Node1&#45;&gt;Node40</title>
<path fill="none" stroke="midnightblue" d="M467,-704.4C467,-696.64 467,-686.81 467,-677.86"/>
<polygon fill="midnightblue" stroke="midnightblue" points="470.5,-677.58 467,-667.58 463.5,-677.58 470.5,-677.58"/>
</g>
<!-- Node3 -->
<g id="node3" class="node">
<title>Node3</title>
<g id="a_node3"><a xlink:href="result__core_8hpp.html" target="_top" xlink:title=" ">
<polygon fill="none" stroke="black" points="689,-380.5 689,-410.5 785,-410.5 785,-380.5 689,-380.5"/>
<text text-anchor="start" x="697" y="-398.5" font-family="Helvetica,sans-Serif" font-size="10.00">yaclib/async/detail</text>
<text text-anchor="middle" x="737" y="-387.5" font-family="Helvetica,sans-Serif" font-size="10.00">/result_core.hpp</text>
</a>
</g>
</g>
<!-- Node2&#45;&gt;Node3 -->
<g id="edge2" class="edge">
<title>Node2&#45;&gt;Node3</title>
<path fill="none" stroke="midnightblue" d="M650.03,-581.44C663.27,-553.28 705.78,-462.89 726.05,-419.79"/>
<polygon fill="midnightblue" stroke="midnightblue" points="729.27,-421.17 730.35,-410.63 722.93,-418.19 729.27,-421.17"/>
</g>
<!-- Node12 -->
<g id="node12" class="node">
<title>Node12</title>
<g id="a_node12"><a xlink:href="executor_8hpp.html" target="_top" xlink:title=" ">
<polygon fill="none" stroke="black" points="645.5,-252 645.5,-271 784.5,-271 784.5,-252 645.5,-252"/>
<text text-anchor="middle" x="715" y="-259" font-family="Helvetica,sans-Serif" font-size="10.00">yaclib/executor/executor.hpp</text>
</a>
</g>
</g>
<!-- Node2&#45;&gt;Node12 -->
<g id="edge35" class="edge">
<title>Node2&#45;&gt;Node12</title>
<path fill="none" stroke="midnightblue" d="M700.74,-581.45C740.89,-573.93 790.5,-561.59 803,-545 867.48,-459.44 768.49,-325.79 729.59,-279.19"/>
<polygon fill="midnightblue" stroke="midnightblue" points="732.02,-276.65 722.88,-271.31 726.69,-281.19 732.02,-276.65"/>
</g>
<!-- Node2&#45;&gt;Node19 -->
<g id="edge43" class="edge">
<title>Node2&#45;&gt;Node19</title>
<path fill="none" stroke="midnightblue" d="M704.3,-585.47C823.71,-574.59 1085,-541.82 1085,-463.5 1085,-463.5 1085,-463.5 1085,-394.5 1085,-352.67 1101.21,-305.68 1111.24,-280.59"/>
<polygon fill="midnightblue" stroke="midnightblue" points="1114.51,-281.84 1115.1,-271.26 1108.04,-279.17 1114.51,-281.84"/>
</g>
<!-- Node24 -->
<g id="node24" class="node">
<title>Node24</title>
<g id="a_node24"><a xlink:href="helper_8hpp.html" target="_top" xlink:title=" ">
<polygon fill="none" stroke="black" points="509,-386 509,-405 613,-405 613,-386 509,-386"/>
<text text-anchor="middle" x="561" y="-393" font-family="Helvetica,sans-Serif" font-size="10.00">yaclib/util/helper.hpp</text>
</a>
</g>
</g>
<!-- Node2&#45;&gt;Node24 -->
<g id="edge36" class="edge">
<title>Node2&#45;&gt;Node24</title>
<path fill="none" stroke="midnightblue" d="M637.96,-581.24C622.1,-563.37 586.91,-520.77 571,-478 563.41,-457.59 561.32,-432.52 560.86,-415.62"/>
<polygon fill="midnightblue" stroke="midnightblue" points="564.36,-415.34 560.76,-405.38 557.36,-415.41 564.36,-415.34"/>
</g>
<!-- Node28 -->
<g id="node28" class="node">
<title>Node28</title>
<g id="a_node28"><a xlink:href="future__impl_8hpp.html" target="_top" xlink:title=" ">
<polygon fill="none" stroke="black" points="698,-514.5 698,-544.5 794,-544.5 794,-514.5 698,-514.5"/>
<text text-anchor="start" x="706" y="-532.5" font-family="Helvetica,sans-Serif" font-size="10.00">yaclib/async/detail</text>
<text text-anchor="middle" x="746" y="-521.5" font-family="Helvetica,sans-Serif" font-size="10.00">/future_impl.hpp</text>
</a>
</g>
</g>
<!-- Node2&#45;&gt;Node28 -->
<g id="edge44" class="edge">
<title>Node2&#45;&gt;Node28</title>
<path fill="none" stroke="midnightblue" d="M660.33,-581.48C674.12,-573.27 695.48,-560.56 713.42,-549.88"/>
<polygon fill="midnightblue" stroke="midnightblue" points="715.63,-552.64 722.43,-544.52 712.05,-546.63 715.63,-552.64"/>
</g>
<!-- Node4 -->
<g id="node4" class="node">
<title>Node4</title>
<g id="a_node4"><a xlink:href="base__core_8hpp.html" target="_top" xlink:title=" ">
<polygon fill="none" stroke="black" points="613,-313.5 613,-343.5 709,-343.5 709,-313.5 613,-313.5"/>
<text text-anchor="start" x="621" y="-331.5" font-family="Helvetica,sans-Serif" font-size="10.00">yaclib/async/detail</text>
<text text-anchor="middle" x="661" y="-320.5" font-family="Helvetica,sans-Serif" font-size="10.00">/base_core.hpp</text>
</a>
</g>
</g>
<!-- Node3&#45;&gt;Node4 -->
<g id="edge3" class="edge">
<title>Node3&#45;&gt;Node4</title>
<path fill="none" stroke="midnightblue" d="M720.51,-380.4C710.15,-371.54 696.62,-359.96 685.07,-350.09"/>
<polygon fill="midnightblue" stroke="midnightblue" points="687.33,-347.42 677.46,-343.58 682.78,-352.74 687.33,-347.42"/>
</g>
<!-- Node5 -->
<g id="node5" class="node">
<title>Node5</title>
<g id="a_node5"><a xlink:href="inline__core_8hpp.html" target="_top" xlink:title=" ">
<polygon fill="none" stroke="black" points="531,-246.5 531,-276.5 627,-276.5 627,-246.5 531,-246.5"/>
<text text-anchor="start" x="539" y="-264.5" font-family="Helvetica,sans-Serif" font-size="10.00">yaclib/async/detail</text>
<text text-anchor="middle" x="579" y="-253.5" font-family="Helvetica,sans-Serif" font-size="10.00">/inline_core.hpp</text>
</a>
</g>
</g>
<!-- Node3&#45;&gt;Node5 -->
<g id="edge22" class="edge">
<title>Node3&#45;&gt;Node5</title>
<path fill="none" stroke="midnightblue" d="M737.56,-380.28C737.49,-362.41 734.68,-331.8 718,-313 706.68,-300.24 669.66,-287.12 636.67,-277.45"/>
<polygon fill="midnightblue" stroke="midnightblue" points="637.62,-274.08 627.05,-274.69 635.7,-280.81 637.62,-274.08"/>
</g>
<!-- Node11 -->
<g id="node11" class="node">
<title>Node11</title>
<g id="a_node11"><a xlink:title=" ">
<polygon fill="none" stroke="#bfbfbf" points="584.5,-56.5 584.5,-75.5 623.5,-75.5 623.5,-56.5 584.5,-56.5"/>
<text text-anchor="middle" x="604" y="-63.5" font-family="Helvetica,sans-Serif" font-size="10.00">utility</text>
</a>
</g>
</g>
<!-- Node3&#45;&gt;Node11 -->
<g id="edge34" class="edge">
<title>Node3&#45;&gt;Node11</title>
<path fill="none" stroke="midnightblue" d="M785.21,-392.08C819.18,-387.55 862.49,-375.46 885,-344 927.69,-284.33 922.78,-238.61 880,-179 821.25,-97.13 692.01,-75 633.65,-69.1"/>
<polygon fill="midnightblue" stroke="midnightblue" points="633.88,-65.61 623.6,-68.18 633.24,-72.58 633.88,-65.61"/>
</g>
<!-- Node13 -->
<g id="node13" class="node">
<title>Node13</title>
<g id="a_node13"><a xlink:href="intrusive__ptr_8hpp.html" target="_top" xlink:title=" ">
<polygon fill="none" stroke="black" points="773.5,-179.5 773.5,-209.5 870.5,-209.5 870.5,-179.5 773.5,-179.5"/>
<text text-anchor="start" x="781.5" y="-197.5" font-family="Helvetica,sans-Serif" font-size="10.00">yaclib/util/intrusive</text>
<text text-anchor="middle" x="822" y="-186.5" font-family="Helvetica,sans-Serif" font-size="10.00">_ptr.hpp</text>
</a>
</g>
</g>
<!-- Node3&#45;&gt;Node13 -->
<g id="edge23" class="edge">
<title>Node3&#45;&gt;Node13</title>
<path fill="none" stroke="midnightblue" d="M785.19,-388.85C813.53,-382.78 847.19,-370.17 865,-344 889.5,-307.99 880.04,-286.87 865,-246 861.02,-235.19 853.59,-225.12 846,-216.86"/>
<polygon fill="midnightblue" stroke="midnightblue" points="848.3,-214.2 838.8,-209.53 843.31,-219.11 848.3,-214.2"/>
</g>
<!-- Node18 -->
<g id="node18" class="node">
<title>Node18</title>
<g id="a_node18"><a xlink:href="result_8hpp.html" target="_top" xlink:title=" ">
<polygon fill="none" stroke="black" points="955,-319 955,-338 1057,-338 1057,-319 955,-319"/>
<text text-anchor="middle" x="1006" y="-326" font-family="Helvetica,sans-Serif" font-size="10.00">yaclib/util/result.hpp</text>
</a>
</g>
</g>
<!-- Node3&#45;&gt;Node18 -->
<g id="edge24" class="edge">
<title>Node3&#45;&gt;Node18</title>
<path fill="none" stroke="midnightblue" d="M785.09,-382.88C834.9,-370.85 912.11,-352.19 960.81,-340.42"/>
<polygon fill="midnightblue" stroke="midnightblue" points="961.85,-343.77 970.75,-338.02 960.21,-336.96 961.85,-343.77"/>
</g>
<!-- Node4&#45;&gt;Node5 -->
<g id="edge4" class="edge">
<title>Node4&#45;&gt;Node5</title>
<path fill="none" stroke="midnightblue" d="M643.21,-313.4C631.92,-304.45 617.15,-292.74 604.61,-282.8"/>
<polygon fill="midnightblue" stroke="midnightblue" points="606.77,-280.05 596.76,-276.58 602.42,-285.53 606.77,-280.05"/>
</g>
<!-- Node9 -->
<g id="node9" class="node">
<title>Node9</title>
<g id="a_node9"><a xlink:href="ref_8hpp.html" target="_top" xlink:title=" ">
<polygon fill="none" stroke="black" points="391.5,-56.5 391.5,-75.5 480.5,-75.5 480.5,-56.5 391.5,-56.5"/>
<text text-anchor="middle" x="436" y="-63.5" font-family="Helvetica,sans-Serif" font-size="10.00">yaclib/util/ref.hpp</text>
</a>
</g>
</g>
<!-- Node4&#45;&gt;Node9 -->
<g id="edge20" class="edge">
<title>Node4&#45;&gt;Node9</title>
<path fill="none" stroke="midnightblue" d="M612.78,-316.5C584.64,-308.55 549.39,-295.85 522,-277 457.12,-232.34 433.51,-216.81 406,-143 401.19,-130.09 402.01,-125.19 406,-112 409.12,-101.7 415.45,-91.61 421.5,-83.6"/>
<polygon fill="midnightblue" stroke="midnightblue" points="424.23,-85.8 427.79,-75.82 418.78,-81.4 424.23,-85.8"/>
</g>
<!-- Node4&#45;&gt;Node12 -->
<g id="edge11" class="edge">
<title>Node4&#45;&gt;Node12</title>
<path fill="none" stroke="midnightblue" d="M672.72,-313.4C681.14,-303.26 692.51,-289.57 701.34,-278.94"/>
<polygon fill="midnightblue" stroke="midnightblue" points="704.08,-281.12 707.78,-271.19 698.69,-276.65 704.08,-281.12"/>
</g>
<!-- Node4&#45;&gt;Node13 -->
<g id="edge19" class="edge">
<title>Node4&#45;&gt;Node13</title>
<path fill="none" stroke="midnightblue" d="M709.06,-319.76C737.19,-312.92 771.49,-300.24 794,-277 808.98,-261.53 815.97,-237.69 819.21,-219.78"/>
<polygon fill="midnightblue" stroke="midnightblue" points="822.69,-220.2 820.76,-209.78 815.77,-219.13 822.69,-220.2"/>
</g>
<!-- Node17 -->
<g id="node17" class="node">
<title>Node17</title>
<g id="a_node17"><a xlink:title=" ">
<polygon fill="none" stroke="#bfbfbf" points="345,-252 345,-271 437,-271 437,-252 345,-252"/>
<text text-anchor="middle" x="391" y="-259" font-family="Helvetica,sans-Serif" font-size="10.00">yaclib_std/atomic</text>
</a>
</g>
</g>
<!-- Node4&#45;&gt;Node17 -->
<g id="edge21" class="edge">
<title>Node4&#45;&gt;Node17</title>
<path fill="none" stroke="midnightblue" d="M612.62,-315.88C570.05,-305.66 506.41,-290.36 451,-277 446.24,-275.85 441.26,-274.65 436.3,-273.45"/>
<polygon fill="midnightblue" stroke="midnightblue" points="436.76,-269.96 426.21,-271.02 435.11,-276.77 436.76,-269.96"/>
</g>
<!-- Node6 -->
<g id="node6" class="node">
<title>Node6</title>
<g id="a_node6"><a xlink:href="job_8hpp.html" target="_top" xlink:title=" ">
<polygon fill="none" stroke="black" points="542.5,-185 542.5,-204 657.5,-204 657.5,-185 542.5,-185"/>
<text text-anchor="middle" x="600" y="-192" font-family="Helvetica,sans-Serif" font-size="10.00">yaclib/executor/job.hpp</text>
</a>
</g>
</g>
<!-- Node5&#45;&gt;Node6 -->
<g id="edge5" class="edge">
<title>Node5&#45;&gt;Node6</title>
<path fill="none" stroke="midnightblue" d="M583.56,-246.4C586.64,-236.86 590.73,-224.18 594.07,-213.86"/>
<polygon fill="midnightblue" stroke="midnightblue" points="597.45,-214.79 597.19,-204.19 590.79,-212.63 597.45,-214.79"/>
</g>
<!-- Node7 -->
<g id="node7" class="node">
<title>Node7</title>
<g id="a_node7"><a xlink:href="node_8hpp.html" target="_top" xlink:title=" ">
<polygon fill="none" stroke="black" points="415.5,-112.5 415.5,-142.5 498.5,-142.5 498.5,-112.5 415.5,-112.5"/>
<text text-anchor="start" x="423.5" y="-130.5" font-family="Helvetica,sans-Serif" font-size="10.00">yaclib/util/detail</text>
<text text-anchor="middle" x="457" y="-119.5" font-family="Helvetica,sans-Serif" font-size="10.00">/node.hpp</text>
</a>
</g>
</g>
<!-- Node6&#45;&gt;Node7 -->
<g id="edge6" class="edge">
<title>Node6&#45;&gt;Node7</title>
<path fill="none" stroke="midnightblue" d="M581.01,-184.87C559.74,-175.2 524.65,-159.25 497.21,-146.78"/>
<polygon fill="midnightblue" stroke="midnightblue" points="498.41,-143.48 487.86,-142.53 495.52,-149.85 498.41,-143.48"/>
</g>
<!-- Node8 -->
<g id="node8" class="node">
<title>Node8</title>
<g id="a_node8"><a xlink:href="func_8hpp.html" target="_top" xlink:title=" ">
<polygon fill="none" stroke="black" points="555.5,-118 555.5,-137 652.5,-137 652.5,-118 555.5,-118"/>
<text text-anchor="middle" x="604" y="-125" font-family="Helvetica,sans-Serif" font-size="10.00">yaclib/util/func.hpp</text>
</a>
</g>
</g>
<!-- Node6&#45;&gt;Node8 -->
<g id="edge7" class="edge">
<title>Node6&#45;&gt;Node8</title>
<path fill="none" stroke="midnightblue" d="M600.54,-184.73C601.13,-175.18 602.09,-159.62 602.84,-147.28"/>
<polygon fill="midnightblue" stroke="midnightblue" points="606.35,-147.32 603.47,-137.13 599.36,-146.89 606.35,-147.32"/>
</g>
<!-- Node8&#45;&gt;Node9 -->
<g id="edge8" class="edge">
<title>Node8&#45;&gt;Node9</title>
<path fill="none" stroke="midnightblue" d="M579.93,-117.98C550.99,-107.72 502.24,-90.46 469.6,-78.9"/>
<polygon fill="midnightblue" stroke="midnightblue" points="470.62,-75.55 460.03,-75.51 468.28,-82.15 470.62,-75.55"/>
</g>
<!-- Node10 -->
<g id="node10" class="node">
<title>Node10</title>
<g id="a_node10"><a xlink:title=" ">
<polygon fill="none" stroke="#bfbfbf" points="791,-56.5 791,-75.5 853,-75.5 853,-56.5 791,-56.5"/>
<text text-anchor="middle" x="822" y="-63.5" font-family="Helvetica,sans-Serif" font-size="10.00">type_traits</text>
</a>
</g>
</g>
<!-- Node8&#45;&gt;Node10 -->
<g id="edge9" class="edge">
<title>Node8&#45;&gt;Node10</title>
<path fill="none" stroke="midnightblue" d="M635.23,-117.98C673.6,-107.5 738.79,-89.71 781.11,-78.16"/>
<polygon fill="midnightblue" stroke="midnightblue" points="782.1,-81.52 790.82,-75.51 780.26,-74.77 782.1,-81.52"/>
</g>
<!-- Node8&#45;&gt;Node11 -->
<g id="edge10" class="edge">
<title>Node8&#45;&gt;Node11</title>
<path fill="none" stroke="midnightblue" d="M604,-117.98C604,-109.58 604,-96.48 604,-85.66"/>
<polygon fill="midnightblue" stroke="midnightblue" points="607.5,-85.51 604,-75.51 600.5,-85.51 607.5,-85.51"/>
</g>
<!-- Node12&#45;&gt;Node6 -->
<g id="edge12" class="edge">
<title>Node12&#45;&gt;Node6</title>
<path fill="none" stroke="midnightblue" d="M699.49,-251.73C680.09,-240.77 646.67,-221.88 623.97,-209.05"/>
<polygon fill="midnightblue" stroke="midnightblue" points="625.69,-206 615.26,-204.13 622.25,-212.09 625.69,-206"/>
</g>
<!-- Node12&#45;&gt;Node13 -->
<g id="edge13" class="edge">
<title>Node12&#45;&gt;Node13</title>
<path fill="none" stroke="midnightblue" d="M729.43,-251.73C744.93,-242.32 770.06,-227.05 790.23,-214.8"/>
<polygon fill="midnightblue" stroke="midnightblue" points="792.08,-217.77 798.81,-209.59 788.44,-211.79 792.08,-217.77"/>
</g>
<!-- Node13&#45;&gt;Node9 -->
<g id="edge14" class="edge">
<title>Node13&#45;&gt;Node9</title>
<path fill="none" stroke="midnightblue" d="M773.43,-191.68C716.76,-187.98 621.35,-176.79 547,-143 526.84,-133.84 526.08,-124.78 508,-112 492.3,-100.91 473.91,-89.44 459.64,-80.85"/>
<polygon fill="midnightblue" stroke="midnightblue" points="461.31,-77.77 450.93,-75.66 457.73,-83.79 461.31,-77.77"/>
</g>
<!-- Node13&#45;&gt;Node10 -->
<g id="edge15" class="edge">
<title>Node13&#45;&gt;Node10</title>
<path fill="none" stroke="midnightblue" d="M822,-179.48C822,-156.72 822,-111.7 822,-86.06"/>
<polygon fill="midnightblue" stroke="midnightblue" points="825.5,-85.79 822,-75.79 818.5,-85.79 825.5,-85.79"/>
</g>
<!-- Node14 -->
<g id="node14" class="node">
<title>Node14</title>
<g id="a_node14"><a xlink:href="intrusive__ptr__impl_8hpp.html" target="_top" xlink:title=" ">
<polygon fill="none" stroke="black" points="890,-112.5 890,-142.5 1004,-142.5 1004,-112.5 890,-112.5"/>
<text text-anchor="start" x="898" y="-130.5" font-family="Helvetica,sans-Serif" font-size="10.00">yaclib/util/detail</text>
<text text-anchor="middle" x="947" y="-119.5" font-family="Helvetica,sans-Serif" font-size="10.00">/intrusive_ptr_impl.hpp</text>
</a>
</g>
</g>
<!-- Node13&#45;&gt;Node14 -->
<g id="edge16" class="edge">
<title>Node13&#45;&gt;Node14</title>
<path fill="none" stroke="midnightblue" d="M849.12,-179.4C867.22,-169.98 891.23,-157.5 910.93,-147.26"/>
<polygon fill="midnightblue" stroke="midnightblue" points="912.67,-150.3 919.93,-142.58 909.44,-144.08 912.67,-150.3"/>
</g>
<!-- Node15 -->
<g id="node15" class="node">
<title>Node15</title>
<g id="a_node15"><a xlink:href="log_8hpp.html" target="_top" xlink:title=" ">
<polygon fill="none" stroke="black" points="1051.5,-56.5 1051.5,-75.5 1126.5,-75.5 1126.5,-56.5 1051.5,-56.5"/>
<text text-anchor="middle" x="1089" y="-63.5" font-family="Helvetica,sans-Serif" font-size="10.00">yaclib/log.hpp</text>
</a>
</g>
</g>
<!-- Node14&#45;&gt;Node15 -->
<g id="edge17" class="edge">
<title>Node14&#45;&gt;Node15</title>
<path fill="none" stroke="midnightblue" d="M980.65,-112.4C1004.48,-102.42 1036.15,-89.15 1059.09,-79.53"/>
<polygon fill="midnightblue" stroke="midnightblue" points="1060.47,-82.75 1068.34,-75.66 1057.76,-76.29 1060.47,-82.75"/>
</g>
<!-- Node16 -->
<g id="node16" class="node">
<title>Node16</title>
<g id="a_node16"><a xlink:title=" ">
<polygon fill="none" stroke="#bfbfbf" points="1056,-0.5 1056,-19.5 1122,-19.5 1122,-0.5 1056,-0.5"/>
<text text-anchor="middle" x="1089" y="-7.5" font-family="Helvetica,sans-Serif" font-size="10.00">string_view</text>
</a>
</g>
</g>
<!-- Node15&#45;&gt;Node16 -->
<g id="edge18" class="edge">
<title>Node15&#45;&gt;Node16</title>
<path fill="none" stroke="midnightblue" d="M1089,-56.08C1089,-49.01 1089,-38.86 1089,-29.99"/>
<polygon fill="midnightblue" stroke="midnightblue" points="1092.5,-29.75 1089,-19.75 1085.5,-29.75 1092.5,-29.75"/>
</g>
<!-- Node18&#45;&gt;Node19 -->
<g id="edge25" class="edge">
<title>Node18&#45;&gt;Node19</title>
<path fill="none" stroke="midnightblue" d="M1021.24,-318.73C1040.22,-307.82 1072.85,-289.05 1095.15,-276.22"/>
<polygon fill="midnightblue" stroke="midnightblue" points="1097.08,-279.15 1104,-271.13 1093.59,-273.08 1097.08,-279.15"/>
</g>
<!-- Node22 -->
<g id="node22" class="node">
<title>Node22</title>
<g id="a_node22"><a xlink:title=" ">
<polygon fill="none" stroke="#bfbfbf" points="942,-185 942,-204 1000,-204 1000,-185 942,-185"/>
<text text-anchor="middle" x="971" y="-192" font-family="Helvetica,sans-Serif" font-size="10.00">exception</text>
</a>
</g>
</g>
<!-- Node18&#45;&gt;Node22 -->
<g id="edge32" class="edge">
<title>Node18&#45;&gt;Node22</title>
<path fill="none" stroke="midnightblue" d="M1001.41,-318.81C996.38,-308.95 988.46,-292.24 984,-277 977.86,-255.99 974.42,-231.04 972.64,-214.33"/>
<polygon fill="midnightblue" stroke="midnightblue" points="976.11,-213.84 971.66,-204.22 969.14,-214.51 976.11,-213.84"/>
</g>
<!-- Node23 -->
<g id="node23" class="node">
<title>Node23</title>
<g id="a_node23"><a xlink:title=" ">
<polygon fill="none" stroke="#bfbfbf" points="993,-252 993,-271 1039,-271 1039,-252 993,-252"/>
<text text-anchor="middle" x="1016" y="-259" font-family="Helvetica,sans-Serif" font-size="10.00">variant</text>
</a>
</g>
</g>
<!-- Node18&#45;&gt;Node23 -->
<g id="edge33" class="edge">
<title>Node18&#45;&gt;Node23</title>
<path fill="none" stroke="midnightblue" d="M1007.35,-318.73C1008.82,-309.18 1011.21,-293.62 1013.11,-281.28"/>
<polygon fill="midnightblue" stroke="midnightblue" points="1016.61,-281.54 1014.67,-271.13 1009.69,-280.48 1016.61,-281.54"/>
</g>
<!-- Node19&#45;&gt;Node10 -->
<g id="edge31" class="edge">
<title>Node19&#45;&gt;Node10</title>
<path fill="none" stroke="midnightblue" d="M1102.63,-251.92C1087.4,-243.2 1064.99,-228.37 1051,-210 1022.69,-172.84 1048.24,-142.67 1013,-112 990.93,-92.79 912.48,-79.1 863.25,-72.17"/>
<polygon fill="midnightblue" stroke="midnightblue" points="863.6,-68.69 853.22,-70.79 862.65,-75.62 863.6,-68.69"/>
</g>
<!-- Node20 -->
<g id="node20" class="node">
<title>Node20</title>
<g id="a_node20"><a xlink:href="fwd_8hpp.html" target="_top" xlink:title=" ">
<polygon fill="none" stroke="black" points="1119,-118 1119,-137 1197,-137 1197,-118 1119,-118"/>
<text text-anchor="middle" x="1158" y="-125" font-family="Helvetica,sans-Serif" font-size="10.00">yaclib/fwd.hpp</text>
</a>
</g>
</g>
<!-- Node19&#45;&gt;Node20 -->
<g id="edge26" class="edge">
<title>Node19&#45;&gt;Node20</title>
<path fill="none" stroke="midnightblue" d="M1134.16,-251.95C1147.72,-243.33 1166.7,-228.66 1175,-210 1184.14,-189.44 1175.88,-163.74 1168,-146.76"/>
<polygon fill="midnightblue" stroke="midnightblue" points="1170.93,-144.8 1163.3,-137.44 1164.67,-147.95 1170.93,-144.8"/>
</g>
<!-- Node21 -->
<g id="node21" class="node">
<title>Node21</title>
<g id="a_node21"><a xlink:href="type__traits__impl_8hpp.html" target="_top" xlink:title=" ">
<polygon fill="none" stroke="black" points="1060,-179.5 1060,-209.5 1166,-209.5 1166,-179.5 1060,-179.5"/>
<text text-anchor="start" x="1068" y="-197.5" font-family="Helvetica,sans-Serif" font-size="10.00">yaclib/util/detail</text>
<text text-anchor="middle" x="1113" y="-186.5" font-family="Helvetica,sans-Serif" font-size="10.00">/type_traits_impl.hpp</text>
</a>
</g>
</g>
<!-- Node19&#45;&gt;Node21 -->
<g id="edge27" class="edge">
<title>Node19&#45;&gt;Node21</title>
<path fill="none" stroke="midnightblue" d="M1118.19,-251.73C1117.43,-243.54 1116.27,-230.92 1115.24,-219.71"/>
<polygon fill="midnightblue" stroke="midnightblue" points="1118.7,-219.22 1114.3,-209.59 1111.73,-219.87 1118.7,-219.22"/>
</g>
<!-- Node19&#45;&gt;Node22 -->
<g id="edge30" class="edge">
<title>Node19&#45;&gt;Node22</title>
<path fill="none" stroke="midnightblue" d="M1099.35,-251.87C1073.91,-240.7 1029.4,-221.15 1000.05,-208.26"/>
<polygon fill="midnightblue" stroke="midnightblue" points="1001.3,-204.98 990.73,-204.17 998.48,-211.39 1001.3,-204.98"/>
</g>
<!-- Node21&#45;&gt;Node10 -->
<g id="edge29" class="edge">
<title>Node21&#45;&gt;Node10</title>
<path fill="none" stroke="midnightblue" d="M1105.56,-179.46C1094.94,-160.89 1073.64,-128.59 1046,-112 989.08,-77.84 910.86,-69.11 863.51,-67.16"/>
<polygon fill="midnightblue" stroke="midnightblue" points="863.43,-63.66 853.32,-66.83 863.2,-70.66 863.43,-63.66"/>
</g>
<!-- Node21&#45;&gt;Node20 -->
<g id="edge28" class="edge">
<title>Node21&#45;&gt;Node20</title>
<path fill="none" stroke="midnightblue" d="M1122.76,-179.4C1129.64,-169.46 1138.89,-156.11 1146.18,-145.57"/>
<polygon fill="midnightblue" stroke="midnightblue" points="1149.17,-147.41 1151.98,-137.19 1143.41,-143.42 1149.17,-147.41"/>
</g>
<!-- Node24&#45;&gt;Node13 -->
<g id="edge42" class="edge">
<title>Node24&#45;&gt;Node13</title>
<path fill="none" stroke="midnightblue" d="M613.19,-388.09C674.9,-377.32 774.48,-349.13 816,-277 825.93,-259.75 826.78,-236.94 825.52,-219.83"/>
<polygon fill="midnightblue" stroke="midnightblue" points="828.96,-219.12 824.46,-209.53 822,-219.84 828.96,-219.12"/>
</g>
<!-- Node24&#45;&gt;Node25 -->
<g id="edge37" class="edge">
<title>Node24&#45;&gt;Node25</title>
<path fill="none" stroke="midnightblue" d="M525.53,-386C517.17,-384.01 508.27,-381.92 500,-380 445.3,-367.33 382.98,-353.32 337.99,-343.27"/>
<polygon fill="midnightblue" stroke="midnightblue" points="338.61,-339.83 328.09,-341.06 337.09,-346.66 338.61,-339.83"/>
</g>
<!-- Node25&#45;&gt;Node11 -->
<g id="edge40" class="edge">
<title>Node25&#45;&gt;Node11</title>
<path fill="none" stroke="midnightblue" d="M269.44,-313.4C262.38,-295.92 253.94,-266.01 268,-246 295.16,-207.35 334.19,-242.99 368,-210 401.43,-177.37 370.64,-142.53 406,-112 430.98,-90.43 525.36,-76.34 574.24,-70.33"/>
<polygon fill="midnightblue" stroke="midnightblue" points="574.71,-73.8 584.22,-69.13 573.88,-66.84 574.71,-73.8"/>
</g>
<!-- Node25&#45;&gt;Node17 -->
<g id="edge41" class="edge">
<title>Node25&#45;&gt;Node17</title>
<path fill="none" stroke="midnightblue" d="M300.95,-313.4C320.6,-302.29 347.79,-286.92 367.15,-275.98"/>
<polygon fill="midnightblue" stroke="midnightblue" points="368.97,-278.97 375.95,-271.01 365.52,-272.88 368.97,-278.97"/>
</g>
<!-- Node26 -->
<g id="node26" class="node">
<title>Node26</title>
<g id="a_node26"><a xlink:title=" ">
<polygon fill="none" stroke="#bfbfbf" points="0,-252 0,-271 88,-271 88,-252 0,-252"/>
<text text-anchor="middle" x="44" y="-259" font-family="Helvetica,sans-Serif" font-size="10.00">yaclib/config.hpp</text>
</a>
</g>
</g>
<!-- Node25&#45;&gt;Node26 -->
<g id="edge38" class="edge">
<title>Node25&#45;&gt;Node26</title>
<path fill="none" stroke="midnightblue" d="M225.95,-313.48C183.55,-301.6 123.55,-284.79 84.22,-273.77"/>
<polygon fill="midnightblue" stroke="midnightblue" points="85.01,-270.36 74.44,-271.03 83.13,-277.1 85.01,-270.36"/>
</g>
<!-- Node27 -->
<g id="node27" class="node">
<title>Node27</title>
<g id="a_node27"><a xlink:title=" ">
<polygon fill="none" stroke="#bfbfbf" points="277.5,-252 277.5,-271 326.5,-271 326.5,-252 277.5,-252"/>
<text text-anchor="middle" x="302" y="-259" font-family="Helvetica,sans-Serif" font-size="10.00">cstddef</text>
</a>
</g>
</g>
<!-- Node25&#45;&gt;Node27 -->
<g id="edge39" class="edge">
<title>Node25&#45;&gt;Node27</title>
<path fill="none" stroke="midnightblue" d="M281.64,-313.4C285.49,-303.76 290.63,-290.91 294.79,-280.54"/>
<polygon fill="midnightblue" stroke="midnightblue" points="298.06,-281.78 298.52,-271.19 291.56,-279.18 298.06,-281.78"/>
</g>
<!-- Node28&#45;&gt;Node15 -->
<g id="edge68" class="edge">
<title>Node28&#45;&gt;Node15</title>
<path fill="none" stroke="midnightblue" d="M794.38,-525.67C917.3,-517.15 1232,-486.55 1232,-396.5 1232,-396.5 1232,-396.5 1232,-193.5 1232,-155.48 1232.09,-139.66 1206,-112 1187.77,-92.68 1160.33,-81.55 1136.6,-75.2"/>
<polygon fill="midnightblue" stroke="midnightblue" points="1137.24,-71.75 1126.69,-72.76 1135.57,-78.55 1137.24,-71.75"/>
</g>
<!-- Node28&#45;&gt;Node18 -->
<g id="edge69" class="edge">
<title>Node28&#45;&gt;Node18</title>
<path fill="none" stroke="midnightblue" d="M764.7,-514.19C812.38,-477.69 938.15,-381.43 986.6,-344.35"/>
<polygon fill="midnightblue" stroke="midnightblue" points="988.89,-347 994.71,-338.14 984.64,-341.44 988.89,-347"/>
</g>
<!-- Node29 -->
<g id="node29" class="node">
<title>Node29</title>
<g id="a_node29"><a xlink:href="wait_8hpp.html" target="_top" xlink:title=" ">
<polygon fill="none" stroke="black" points="341.5,-453 341.5,-472 442.5,-472 442.5,-453 341.5,-453"/>
<text text-anchor="middle" x="392" y="-460" font-family="Helvetica,sans-Serif" font-size="10.00">yaclib/algo/wait.hpp</text>
</a>
</g>
</g>
<!-- Node28&#45;&gt;Node29 -->
<g id="edge45" class="edge">
<title>Node28&#45;&gt;Node29</title>
<path fill="none" stroke="midnightblue" d="M697.89,-519.67C632.98,-507.75 517.55,-486.55 448.56,-473.89"/>
<polygon fill="midnightblue" stroke="midnightblue" points="448.78,-470.37 438.32,-472 447.52,-477.25 448.78,-470.37"/>
</g>
<!-- Node38 -->
<g id="node38" class="node">
<title>Node38</title>
<g id="a_node38"><a xlink:href="core_8hpp.html" target="_top" xlink:title=" ">
<polygon fill="none" stroke="black" points="580,-447.5 580,-477.5 676,-477.5 676,-447.5 580,-447.5"/>
<text text-anchor="start" x="588" y="-465.5" font-family="Helvetica,sans-Serif" font-size="10.00">yaclib/async/detail</text>
<text text-anchor="middle" x="628" y="-454.5" font-family="Helvetica,sans-Serif" font-size="10.00">/core.hpp</text>
</a>
</g>
</g>
<!-- Node28&#45;&gt;Node38 -->
<g id="edge65" class="edge">
<title>Node28&#45;&gt;Node38</title>
<path fill="none" stroke="midnightblue" d="M720.4,-514.4C703.46,-505.07 681.06,-492.73 662.55,-482.53"/>
<polygon fill="midnightblue" stroke="midnightblue" points="664,-479.34 653.55,-477.58 660.62,-485.47 664,-479.34"/>
</g>
<!-- Node29&#45;&gt;Node2 -->
<g id="edge61" class="edge">
<title>Node29&#45;&gt;Node2</title>
<path fill="none" stroke="midnightblue" d="M406.22,-472.15C431.99,-487.69 488.38,-520.91 538,-545 563.04,-557.15 592.21,-569.19 613.92,-577.75"/>
<polygon fill="midnightblue" stroke="midnightblue" points="612.74,-581.05 623.33,-581.43 615.29,-574.53 612.74,-581.05"/>
</g>
<!-- Node29&#45;&gt;Node26 -->
<g id="edge62" class="edge">
<title>Node29&#45;&gt;Node26</title>
<path fill="none" stroke="midnightblue" d="M341.28,-458.56C268.13,-451.44 134.02,-427.12 63,-344 48.06,-326.52 44.33,-299.51 43.66,-281.43"/>
<polygon fill="midnightblue" stroke="midnightblue" points="47.16,-281.23 43.57,-271.26 40.16,-281.29 47.16,-281.23"/>
</g>
<!-- Node29&#45;&gt;Node27 -->
<g id="edge64" class="edge">
<title>Node29&#45;&gt;Node27</title>
<path fill="none" stroke="midnightblue" d="M379.2,-452.89C357.02,-437.99 309.94,-406.41 270,-380 245.63,-363.89 228.89,-369.7 215,-344 208.45,-331.88 208.13,-324.94 215,-313 226.33,-293.32 248.6,-280.6 267.77,-272.85"/>
<polygon fill="midnightblue" stroke="midnightblue" points="269.01,-276.13 277.15,-269.34 266.56,-269.57 269.01,-276.13"/>
</g>
<!-- Node30 -->
<g id="node30" class="node">
<title>Node30</title>
<g id="a_node30"><a xlink:href="wait__impl_8hpp.html" target="_top" xlink:title=" ">
<polygon fill="none" stroke="black" points="401.5,-380.5 401.5,-410.5 490.5,-410.5 490.5,-380.5 401.5,-380.5"/>
<text text-anchor="start" x="409.5" y="-398.5" font-family="Helvetica,sans-Serif" font-size="10.00">yaclib/algo/detail</text>
<text text-anchor="middle" x="446" y="-387.5" font-family="Helvetica,sans-Serif" font-size="10.00">/wait_impl.hpp</text>
</a>
</g>
</g>
<!-- Node29&#45;&gt;Node30 -->
<g id="edge46" class="edge">
<title>Node29&#45;&gt;Node30</title>
<path fill="none" stroke="midnightblue" d="M399.28,-452.73C406.58,-443.95 418.1,-430.08 427.88,-418.31"/>
<polygon fill="midnightblue" stroke="midnightblue" points="430.6,-420.52 434.3,-410.59 425.21,-416.04 430.6,-420.52"/>
</g>
<!-- Node31 -->
<g id="node31" class="node">
<title>Node31</title>
<g id="a_node31"><a xlink:href="default__event_8hpp.html" target="_top" xlink:title=" ">
<polygon fill="none" stroke="black" points="72,-313.5 72,-343.5 168,-343.5 168,-313.5 72,-313.5"/>
<text text-anchor="start" x="80" y="-331.5" font-family="Helvetica,sans-Serif" font-size="10.00">yaclib/util/detail</text>
<text text-anchor="middle" x="120" y="-320.5" font-family="Helvetica,sans-Serif" font-size="10.00">/default_event.hpp</text>
</a>
</g>
</g>
<!-- Node29&#45;&gt;Node31 -->
<g id="edge63" class="edge">
<title>Node29&#45;&gt;Node31</title>
<path fill="none" stroke="midnightblue" d="M374.15,-452.84C330.51,-431.66 217.63,-376.88 158.08,-347.98"/>
<polygon fill="midnightblue" stroke="midnightblue" points="159.52,-344.79 149,-343.57 156.46,-351.09 159.52,-344.79"/>
</g>
<!-- Node30&#45;&gt;Node4 -->
<g id="edge47" class="edge">
<title>Node30&#45;&gt;Node4</title>
<path fill="none" stroke="midnightblue" d="M490.55,-381.03C523.71,-371 569.22,-357.25 604.88,-346.47"/>
<polygon fill="midnightblue" stroke="midnightblue" points="606.09,-349.76 614.65,-343.51 604.07,-343.06 606.09,-349.76"/>
</g>
<!-- Node30&#45;&gt;Node10 -->
<g id="edge60" class="edge">
<title>Node30&#45;&gt;Node10</title>
<path fill="none" stroke="midnightblue" d="M490.59,-381.43C520.92,-371.54 557.09,-357.42 566,-344 573.62,-332.52 571.9,-325.45 566,-313 555.18,-290.17 532.82,-299.83 522,-277 511.42,-254.68 529.21,-184.28 534,-179 573.71,-135.24 606.67,-163.75 662,-143 711.11,-124.58 765.79,-96.98 796.83,-80.6"/>
<polygon fill="midnightblue" stroke="midnightblue" points="798.86,-83.48 806.04,-75.7 795.57,-77.3 798.86,-83.48"/>
</g>
<!-- Node30&#45;&gt;Node19 -->
<g id="edge57" class="edge">
<title>Node30&#45;&gt;Node19</title>
<path fill="none" stroke="midnightblue" d="M490.71,-382.13C493.84,-381.38 496.96,-380.66 500,-380 595.98,-359.24 621.42,-361.77 718,-344 865.19,-316.91 901.35,-306.86 1048,-277 1054.23,-275.73 1060.77,-274.4 1067.25,-273.08"/>
<polygon fill="midnightblue" stroke="midnightblue" points="1068.23,-276.45 1077.33,-271.02 1066.83,-269.59 1068.23,-276.45"/>
</g>
<!-- Node30&#45;&gt;Node25 -->
<g id="edge48" class="edge">
<title>Node30&#45;&gt;Node25</title>
<path fill="none" stroke="midnightblue" d="M409.11,-380.4C383.61,-370.64 349.48,-357.59 322.17,-347.15"/>
<polygon fill="midnightblue" stroke="midnightblue" points="323.41,-343.88 312.82,-343.58 320.91,-350.42 323.41,-343.88"/>
</g>
<!-- Node30&#45;&gt;Node27 -->
<g id="edge58" class="edge">
<title>Node30&#45;&gt;Node27</title>
<path fill="none" stroke="midnightblue" d="M423.61,-380.44C409.14,-370.91 390.23,-357.61 375,-344 352.08,-323.52 328.97,-296.37 315.07,-279.17"/>
<polygon fill="midnightblue" stroke="midnightblue" points="317.66,-276.8 308.69,-271.16 312.19,-281.16 317.66,-276.8"/>
</g>
<!-- Node30&#45;&gt;Node31 -->
<g id="edge49" class="edge">
<title>Node30&#45;&gt;Node31</title>
<path fill="none" stroke="midnightblue" d="M401.35,-385.6C343.34,-374.03 241.92,-353.81 178,-341.06"/>
<polygon fill="midnightblue" stroke="midnightblue" points="178.57,-337.61 168.08,-339.09 177.2,-344.47 178.57,-337.61"/>
</g>
<!-- Node36 -->
<g id="node36" class="node">
<title>Node36</title>
<g id="a_node36"><a xlink:href="set__one__deleter_8hpp.html" target="_top" xlink:title=" ">
<polygon fill="none" stroke="black" points="449.5,-313.5 449.5,-343.5 556.5,-343.5 556.5,-313.5 449.5,-313.5"/>
<text text-anchor="start" x="457.5" y="-331.5" font-family="Helvetica,sans-Serif" font-size="10.00">yaclib/util/detail</text>
<text text-anchor="middle" x="503" y="-320.5" font-family="Helvetica,sans-Serif" font-size="10.00">/set_one_deleter.hpp</text>
</a>
</g>
</g>
<!-- Node30&#45;&gt;Node36 -->
<g id="edge56" class="edge">
<title>Node30&#45;&gt;Node36</title>
<path fill="none" stroke="midnightblue" d="M458.37,-380.4C465.84,-371.88 475.51,-360.85 483.94,-351.23"/>
<polygon fill="midnightblue" stroke="midnightblue" points="486.69,-353.4 490.66,-343.58 481.43,-348.79 486.69,-353.4"/>
</g>
<!-- Node37 -->
<g id="node37" class="node">
<title>Node37</title>
<g id="a_node37"><a xlink:title=" ">
<polygon fill="none" stroke="#bfbfbf" points="384.5,-319 384.5,-338 431.5,-338 431.5,-319 384.5,-319"/>
<text text-anchor="middle" x="408" y="-326" font-family="Helvetica,sans-Serif" font-size="10.00">iterator</text>
</a>
</g>
</g>
<!-- Node30&#45;&gt;Node37 -->
<g id="edge59" class="edge">
<title>Node30&#45;&gt;Node37</title>
<path fill="none" stroke="midnightblue" d="M437.75,-380.4C432.01,-370.56 424.3,-357.38 418.17,-346.89"/>
<polygon fill="midnightblue" stroke="midnightblue" points="421.15,-345.06 413.08,-338.19 415.11,-348.59 421.15,-345.06"/>
</g>
<!-- Node31&#45;&gt;Node26 -->
<g id="edge50" class="edge">
<title>Node31&#45;&gt;Node26</title>
<path fill="none" stroke="midnightblue" d="M103.51,-313.4C91.31,-302.96 74.69,-288.75 62.12,-278"/>
<polygon fill="midnightblue" stroke="midnightblue" points="64.04,-275.03 54.17,-271.19 59.49,-280.35 64.04,-275.03"/>
</g>
<!-- Node32 -->
<g id="node32" class="node">
<title>Node32</title>
<g id="a_node32"><a xlink:href="mutex__event_8hpp.html" target="_top" xlink:title=" ">
<polygon fill="none" stroke="black" points="105.5,-246.5 105.5,-276.5 198.5,-276.5 198.5,-246.5 105.5,-246.5"/>
<text text-anchor="start" x="113.5" y="-264.5" font-family="Helvetica,sans-Serif" font-size="10.00">yaclib/util/detail</text>
<text text-anchor="middle" x="152" y="-253.5" font-family="Helvetica,sans-Serif" font-size="10.00">/mutex_event.hpp</text>
</a>
</g>
</g>
<!-- Node31&#45;&gt;Node32 -->
<g id="edge51" class="edge">
<title>Node31&#45;&gt;Node32</title>
<path fill="none" stroke="midnightblue" d="M126.94,-313.4C130.93,-305.3 136.03,-294.94 140.59,-285.69"/>
<polygon fill="midnightblue" stroke="midnightblue" points="143.79,-287.09 145.07,-276.58 137.51,-284 143.79,-287.09"/>
</g>
<!-- Node32&#45;&gt;Node9 -->
<g id="edge52" class="edge">
<title>Node32&#45;&gt;Node9</title>
<path fill="none" stroke="midnightblue" d="M117.31,-246.34C102.04,-238.15 85.63,-226.21 77,-210 70.53,-197.84 68.84,-190.1 77,-179 113.4,-129.51 290.3,-92.26 381.45,-75.99"/>
<polygon fill="midnightblue" stroke="midnightblue" points="382.08,-79.44 391.33,-74.25 380.87,-72.54 382.08,-79.44"/>
</g>
<!-- Node33 -->
<g id="node33" class="node">
<title>Node33</title>
<g id="a_node33"><a xlink:title=" ">
<polygon fill="none" stroke="#bfbfbf" points="313,-185 313,-204 359,-204 359,-185 313,-185"/>
<text text-anchor="middle" x="336" y="-192" font-family="Helvetica,sans-Serif" font-size="10.00">chrono</text>
</a>
</g>
</g>
<!-- Node32&#45;&gt;Node33 -->
<g id="edge53" class="edge">
<title>Node32&#45;&gt;Node33</title>
<path fill="none" stroke="midnightblue" d="M197.65,-246.43C227.8,-236.85 268.06,-223.49 303,-210 304.61,-209.38 306.25,-208.73 307.9,-208.05"/>
<polygon fill="midnightblue" stroke="midnightblue" points="309.43,-211.2 317.28,-204.08 306.7,-204.76 309.43,-211.2"/>
</g>
<!-- Node34 -->
<g id="node34" class="node">
<title>Node34</title>
<g id="a_node34"><a xlink:title=" ">
<polygon fill="none" stroke="#bfbfbf" points="86,-179.5 86,-209.5 188,-209.5 188,-179.5 86,-179.5"/>
<text text-anchor="start" x="94" y="-197.5" font-family="Helvetica,sans-Serif" font-size="10.00">yaclib_std/condition</text>
<text text-anchor="middle" x="137" y="-186.5" font-family="Helvetica,sans-Serif" font-size="10.00">_variable</text>
</a>
</g>
</g>
<!-- Node32&#45;&gt;Node34 -->
<g id="edge54" class="edge">
<title>Node32&#45;&gt;Node34</title>
<path fill="none" stroke="midnightblue" d="M148.75,-246.4C146.94,-238.56 144.64,-228.6 142.55,-219.57"/>
<polygon fill="midnightblue" stroke="midnightblue" points="145.91,-218.53 140.25,-209.58 139.09,-220.11 145.91,-218.53"/>
</g>
<!-- Node35 -->
<g id="node35" class="node">
<title>Node35</title>
<g id="a_node35"><a xlink:title=" ">
<polygon fill="none" stroke="#bfbfbf" points="205.5,-185 205.5,-204 294.5,-204 294.5,-185 205.5,-185"/>
<text text-anchor="middle" x="250" y="-192" font-family="Helvetica,sans-Serif" font-size="10.00">yaclib_std/mutex</text>
</a>
</g>
</g>
<!-- Node32&#45;&gt;Node35 -->
<g id="edge55" class="edge">
<title>Node32&#45;&gt;Node35</title>
<path fill="none" stroke="midnightblue" d="M173.26,-246.4C189.7,-235.5 212.34,-220.48 228.77,-209.58"/>
<polygon fill="midnightblue" stroke="midnightblue" points="230.78,-212.45 237.17,-204.01 226.91,-206.62 230.78,-212.45"/>
</g>
<!-- Node38&#45;&gt;Node3 -->
<g id="edge66" class="edge">
<title>Node38&#45;&gt;Node3</title>
<path fill="none" stroke="midnightblue" d="M651.65,-447.4C667.08,-438.2 687.42,-426.07 704.38,-415.95"/>
<polygon fill="midnightblue" stroke="midnightblue" points="706.6,-418.7 713.39,-410.58 703.01,-412.69 706.6,-418.7"/>
</g>
<!-- Node38&#45;&gt;Node25 -->
<g id="edge67" class="edge">
<title>Node38&#45;&gt;Node25</title>
<path fill="none" stroke="midnightblue" d="M579.9,-456.88C531.15,-450.89 454.35,-437.86 393,-411 371.09,-401.4 368.61,-393.69 349,-380 334.49,-369.87 318.31,-358.66 304.87,-349.39"/>
<polygon fill="midnightblue" stroke="midnightblue" points="306.7,-346.4 296.49,-343.6 302.73,-352.16 306.7,-346.4"/>
</g>
<!-- Node39&#45;&gt;Node26 -->
<g id="edge71" class="edge">
<title>Node39&#45;&gt;Node26</title>
<path fill="none" stroke="midnightblue" d="M103.18,-581.43C71.47,-563.93 6,-520.85 6,-463.5 6,-463.5 6,-463.5 6,-394.5 6,-352.35 24.11,-305.48 35.33,-280.5"/>
<polygon fill="midnightblue" stroke="midnightblue" points="38.61,-281.76 39.64,-271.21 32.26,-278.81 38.61,-281.76"/>
</g>
<!-- Node40&#45;&gt;Node2 -->
<g id="edge73" class="edge">
<title>Node40&#45;&gt;Node2</title>
<path fill="none" stroke="midnightblue" d="M509.42,-637.4C540.22,-627.16 581.41,-613.47 610.48,-603.81"/>
<polygon fill="midnightblue" stroke="midnightblue" points="611.83,-607.05 620.22,-600.57 609.62,-600.4 611.83,-607.05"/>
</g>
<!-- Node40&#45;&gt;Node19 -->
<g id="edge76" class="edge">
<title>Node40&#45;&gt;Node19</title>
<path fill="none" stroke="midnightblue" d="M522.08,-647.14C679.99,-633.92 1123,-591.41 1123,-530.5 1123,-530.5 1123,-530.5 1123,-394.5 1123,-354.14 1121.11,-306.87 1119.93,-281.28"/>
<polygon fill="midnightblue" stroke="midnightblue" points="1123.42,-280.97 1119.44,-271.15 1116.42,-281.3 1123.42,-280.97"/>
</g>
<!-- Node40&#45;&gt;Node25 -->
<g id="edge75" class="edge">
<title>Node40&#45;&gt;Node25</title>
<path fill="none" stroke="midnightblue" d="M411.81,-643.65C350.18,-631.4 259,-601.31 259,-530.5 259,-530.5 259,-530.5 259,-461.5 259,-423.52 266.01,-379.9 271.02,-353.54"/>
<polygon fill="midnightblue" stroke="midnightblue" points="274.47,-354.17 272.96,-343.68 267.6,-352.82 274.47,-354.17"/>
</g>
<!-- Node40&#45;&gt;Node39 -->
<g id="edge74" class="edge">
<title>Node40&#45;&gt;Node39</title>
<path fill="none" stroke="midnightblue" d="M411.63,-642.01C348.34,-631.15 245.09,-613.45 179.94,-602.28"/>
<polygon fill="midnightblue" stroke="midnightblue" points="180.27,-598.78 169.82,-600.54 179.09,-605.68 180.27,-598.78"/>
</g>
</g>
</svg>
