<?xml version="1.0" encoding="UTF-8" standalone="no"?>
<!DOCTYPE svg PUBLIC "-//W3C//DTD SVG 1.1//EN"
 "http://www.w3.org/Graphics/SVG/1.1/DTD/svg11.dtd">
<!-- Generated by graphviz version 3.0.0 (20220413.0106)
 -->
<!-- Title: include/yaclib/async/detail/base_core.hpp Pages: 1 -->
<svg width="1803pt" height="508pt"
 viewBox="0.00 0.00 1803.00 508.00" xmlns="http://www.w3.org/2000/svg" xmlns:xlink="http://www.w3.org/1999/xlink">
<g id="graph0" class="graph" transform="scale(1 1) rotate(0) translate(4 504)">
<title>include/yaclib/async/detail/base_core.hpp</title>
<!-- Node1 -->
<g id="node1" class="node">
<title>Node1</title>
<g id="a_node1"><a xlink:title=" ">
<polygon fill="#bfbfbf" stroke="black" points="564,-469.5 564,-499.5 673,-499.5 673,-469.5 564,-469.5"/>
<text text-anchor="start" x="572" y="-487.5" font-family="Helvetica,sans-Serif" font-size="10.00">include/yaclib/async</text>
<text text-anchor="middle" x="618.5" y="-476.5" font-family="Helvetica,sans-Serif" font-size="10.00">/detail/base_core.hpp</text>
</a>
</g>
</g>
<!-- Node2 -->
<g id="node2" class="node">
<title>Node2</title>
<g id="a_node2"><a xlink:href="wait__group__impl_8hpp.html" target="_top" xlink:title=" ">
<polygon fill="none" stroke="black" points="78.5,-268.5 78.5,-298.5 212.5,-298.5 212.5,-268.5 78.5,-268.5"/>
<text text-anchor="start" x="86.5" y="-286.5" font-family="Helvetica,sans-Serif" font-size="10.00">include/yaclib/algo</text>
<text text-anchor="middle" x="145.5" y="-275.5" font-family="Helvetica,sans-Serif" font-size="10.00">/detail/wait_group_impl.hpp</text>
</a>
</g>
</g>
<!-- Node1&#45;&gt;Node2 -->
<g id="edge1" class="edge">
<title>Node1&#45;&gt;Node2</title>
<path fill="none" stroke="midnightblue" d="M553.83,-477.5C498.9,-470.95 418.67,-457.87 352.5,-433 297.49,-412.33 286.14,-400.41 238.5,-366 208.91,-344.63 177.61,-315.7 159.92,-298.68"/>
<polygon fill="midnightblue" stroke="midnightblue" points="553.44,-480.98 563.78,-478.65 554.25,-474.03 553.44,-480.98"/>
</g>
<!-- Node5 -->
<g id="node5" class="node">
<title>Node5</title>
<g id="a_node5"><a xlink:href="wait__impl_8hpp.html" target="_top" xlink:title=" ">
<polygon fill="none" stroke="black" points="362,-402.5 362,-432.5 467,-432.5 467,-402.5 362,-402.5"/>
<text text-anchor="start" x="370" y="-420.5" font-family="Helvetica,sans-Serif" font-size="10.00">include/yaclib/algo</text>
<text text-anchor="middle" x="414.5" y="-409.5" font-family="Helvetica,sans-Serif" font-size="10.00">/detail/wait_impl.hpp</text>
</a>
</g>
</g>
<!-- Node1&#45;&gt;Node5 -->
<g id="edge4" class="edge">
<title>Node1&#45;&gt;Node5</title>
<path fill="none" stroke="midnightblue" d="M564.54,-466.31C531.54,-455.79 489.84,-442.51 458.79,-432.61"/>
<polygon fill="midnightblue" stroke="midnightblue" points="563.9,-469.77 574.49,-469.48 566.02,-463.11 563.9,-469.77"/>
</g>
<!-- Node25 -->
<g id="node25" class="node">
<title>Node25</title>
<g id="a_node25"><a xlink:href="result__core_8hpp.html" target="_top" xlink:title=" ">
<polygon fill="none" stroke="black" points="791.5,-402.5 791.5,-432.5 903.5,-432.5 903.5,-402.5 791.5,-402.5"/>
<text text-anchor="start" x="799.5" y="-420.5" font-family="Helvetica,sans-Serif" font-size="10.00">include/yaclib/async</text>
<text text-anchor="middle" x="847.5" y="-409.5" font-family="Helvetica,sans-Serif" font-size="10.00">/detail/result_core.hpp</text>
</a>
</g>
</g>
<!-- Node1&#45;&gt;Node25 -->
<g id="edge35" class="edge">
<title>Node1&#45;&gt;Node25</title>
<path fill="none" stroke="midnightblue" d="M677.64,-466.71C714.9,-456.14 762.47,-442.63 797.79,-432.61"/>
<polygon fill="midnightblue" stroke="midnightblue" points="676.57,-463.38 667.91,-469.48 678.48,-470.11 676.57,-463.38"/>
</g>
<!-- Node37 -->
<g id="node37" class="node">
<title>Node37</title>
<g id="a_node37"><a xlink:href="base__core_8cpp.html" target="_top" xlink:title=" ">
<polygon fill="none" stroke="black" points="922,-408 922,-427 1047,-427 1047,-408 922,-408"/>
<text text-anchor="middle" x="984.5" y="-415" font-family="Helvetica,sans-Serif" font-size="10.00">src/async/base_core.cpp</text>
</a>
</g>
</g>
<!-- Node1&#45;&gt;Node37 -->
<g id="edge55" class="edge">
<title>Node1&#45;&gt;Node37</title>
<path fill="none" stroke="midnightblue" d="M683.07,-472.96C742.7,-463.09 833.69,-447.7 912.5,-433 922.4,-431.15 933.05,-429.06 943.04,-427.06"/>
<polygon fill="midnightblue" stroke="midnightblue" points="682.34,-469.53 673.04,-474.61 683.48,-476.43 682.34,-469.53"/>
</g>
<!-- Node3 -->
<g id="node3" class="node">
<title>Node3</title>
<g id="a_node3"><a xlink:href="wait__group_8hpp.html" target="_top" xlink:title=" ">
<polygon fill="none" stroke="black" points="11.5,-134.5 11.5,-164.5 107.5,-164.5 107.5,-134.5 11.5,-134.5"/>
<text text-anchor="start" x="19.5" y="-152.5" font-family="Helvetica,sans-Serif" font-size="10.00">include/yaclib/algo</text>
<text text-anchor="middle" x="59.5" y="-141.5" font-family="Helvetica,sans-Serif" font-size="10.00">/wait_group.hpp</text>
</a>
</g>
</g>
<!-- Node2&#45;&gt;Node3 -->
<g id="edge2" class="edge">
<title>Node2&#45;&gt;Node3</title>
<path fill="none" stroke="midnightblue" d="M130.73,-259.83C112.9,-232.47 83.47,-187.28 68.64,-164.52"/>
<polygon fill="midnightblue" stroke="midnightblue" points="127.91,-261.91 136.3,-268.37 133.77,-258.08 127.91,-261.91"/>
</g>
<!-- Node4 -->
<g id="node4" class="node">
<title>Node4</title>
<g id="a_node4"><a xlink:href="wait__group_8cpp.html" target="_top" xlink:title=" ">
<polygon fill="none" stroke="black" points="0,-73 0,-92 119,-92 119,-73 0,-73"/>
<text text-anchor="middle" x="59.5" y="-80" font-family="Helvetica,sans-Serif" font-size="10.00">src/algo/wait_group.cpp</text>
</a>
</g>
</g>
<!-- Node3&#45;&gt;Node4 -->
<g id="edge3" class="edge">
<title>Node3&#45;&gt;Node4</title>
<path fill="none" stroke="midnightblue" d="M59.5,-124.25C59.5,-113.02 59.5,-100.38 59.5,-92.19"/>
<polygon fill="midnightblue" stroke="midnightblue" points="56,-124.4 59.5,-134.4 63,-124.4 56,-124.4"/>
</g>
<!-- Node6 -->
<g id="node6" class="node">
<title>Node6</title>
<g id="a_node6"><a xlink:href="wait_8hpp.html" target="_top" xlink:title=" ">
<polygon fill="none" stroke="black" points="551.5,-335.5 551.5,-365.5 647.5,-365.5 647.5,-335.5 551.5,-335.5"/>
<text text-anchor="start" x="559.5" y="-353.5" font-family="Helvetica,sans-Serif" font-size="10.00">include/yaclib/algo</text>
<text text-anchor="middle" x="599.5" y="-342.5" font-family="Helvetica,sans-Serif" font-size="10.00">/wait.hpp</text>
</a>
</g>
</g>
<!-- Node5&#45;&gt;Node6 -->
<g id="edge5" class="edge">
<title>Node5&#45;&gt;Node6</title>
<path fill="none" stroke="midnightblue" d="M464.44,-398.96C494.24,-388.48 531.57,-375.37 559.44,-365.58"/>
<polygon fill="midnightblue" stroke="midnightblue" points="462.92,-395.78 454.64,-402.4 465.24,-402.38 462.92,-395.78"/>
</g>
<!-- Node14 -->
<g id="node14" class="node">
<title>Node14</title>
<g id="a_node14"><a xlink:href="wait__for_8hpp.html" target="_top" xlink:title=" ">
<polygon fill="none" stroke="black" points="239.5,-134.5 239.5,-164.5 335.5,-164.5 335.5,-134.5 239.5,-134.5"/>
<text text-anchor="start" x="247.5" y="-152.5" font-family="Helvetica,sans-Serif" font-size="10.00">include/yaclib/algo</text>
<text text-anchor="middle" x="287.5" y="-141.5" font-family="Helvetica,sans-Serif" font-size="10.00">/wait_for.hpp</text>
</a>
</g>
</g>
<!-- Node5&#45;&gt;Node14 -->
<g id="edge32" class="edge">
<title>Node5&#45;&gt;Node14</title>
<path fill="none" stroke="midnightblue" d="M380.63,-396.92C368.97,-388.7 356.79,-378.2 348.5,-366 303.6,-299.91 291.48,-201.06 288.44,-164.63"/>
<polygon fill="midnightblue" stroke="midnightblue" points="378.7,-399.85 388.96,-402.5 382.59,-394.03 378.7,-399.85"/>
</g>
<!-- Node15 -->
<g id="node15" class="node">
<title>Node15</title>
<g id="a_node15"><a xlink:href="wait__until_8hpp.html" target="_top" xlink:title=" ">
<polygon fill="none" stroke="black" points="125.5,-134.5 125.5,-164.5 221.5,-164.5 221.5,-134.5 125.5,-134.5"/>
<text text-anchor="start" x="133.5" y="-152.5" font-family="Helvetica,sans-Serif" font-size="10.00">include/yaclib/algo</text>
<text text-anchor="middle" x="173.5" y="-141.5" font-family="Helvetica,sans-Serif" font-size="10.00">/wait_until.hpp</text>
</a>
</g>
</g>
<!-- Node5&#45;&gt;Node15 -->
<g id="edge33" class="edge">
<title>Node5&#45;&gt;Node15</title>
<path fill="none" stroke="midnightblue" d="M374.93,-397.78C359.46,-389.35 342.19,-378.48 328.5,-366 258.34,-302.05 200.73,-201.48 180.9,-164.63"/>
<polygon fill="midnightblue" stroke="midnightblue" points="373.31,-400.88 383.78,-402.45 376.57,-394.69 373.31,-400.88"/>
</g>
<!-- Node24 -->
<g id="node24" class="node">
<title>Node24</title>
<g id="a_node24"><a xlink:href="wait__impl_8cpp.html" target="_top" xlink:title=" ">
<polygon fill="none" stroke="black" points="358,-341 358,-360 471,-360 471,-341 358,-341"/>
<text text-anchor="middle" x="414.5" y="-348" font-family="Helvetica,sans-Serif" font-size="10.00">src/algo/wait_impl.cpp</text>
</a>
</g>
</g>
<!-- Node5&#45;&gt;Node24 -->
<g id="edge34" class="edge">
<title>Node5&#45;&gt;Node24</title>
<path fill="none" stroke="midnightblue" d="M414.5,-392.25C414.5,-381.02 414.5,-368.38 414.5,-360.19"/>
<polygon fill="midnightblue" stroke="midnightblue" points="411,-392.4 414.5,-402.4 418,-392.4 411,-392.4"/>
</g>
<!-- Node7 -->
<g id="node7" class="node">
<title>Node7</title>
<g id="a_node7"><a xlink:href="future__impl_8hpp.html" target="_top" xlink:title=" ">
<polygon fill="none" stroke="black" points="627.5,-268.5 627.5,-298.5 739.5,-298.5 739.5,-268.5 627.5,-268.5"/>
<text text-anchor="start" x="635.5" y="-286.5" font-family="Helvetica,sans-Serif" font-size="10.00">include/yaclib/async</text>
<text text-anchor="middle" x="683.5" y="-275.5" font-family="Helvetica,sans-Serif" font-size="10.00">/detail/future_impl.hpp</text>
</a>
</g>
</g>
<!-- Node6&#45;&gt;Node7 -->
<g id="edge6" class="edge">
<title>Node6&#45;&gt;Node7</title>
<path fill="none" stroke="midnightblue" d="M625.78,-329.17C638.62,-319.23 653.76,-307.51 665.31,-298.58"/>
<polygon fill="midnightblue" stroke="midnightblue" points="623.49,-326.51 617.73,-335.4 627.78,-332.04 623.49,-326.51"/>
</g>
<!-- Node8 -->
<g id="node8" class="node">
<title>Node8</title>
<g id="a_node8"><a xlink:href="future_8hpp.html" target="_top" xlink:title=" ">
<polygon fill="none" stroke="black" points="626.5,-201.5 626.5,-231.5 730.5,-231.5 730.5,-201.5 626.5,-201.5"/>
<text text-anchor="start" x="634.5" y="-219.5" font-family="Helvetica,sans-Serif" font-size="10.00">include/yaclib/async</text>
<text text-anchor="middle" x="678.5" y="-208.5" font-family="Helvetica,sans-Serif" font-size="10.00">/future.hpp</text>
</a>
</g>
</g>
<!-- Node7&#45;&gt;Node8 -->
<g id="edge7" class="edge">
<title>Node7&#45;&gt;Node8</title>
<path fill="none" stroke="midnightblue" d="M681.65,-258.4C680.95,-249.37 680.19,-239.41 679.58,-231.58"/>
<polygon fill="midnightblue" stroke="midnightblue" points="678.16,-258.69 682.42,-268.4 685.14,-258.16 678.16,-258.69"/>
</g>
<!-- Node8&#45;&gt;Node3 -->
<g id="edge15" class="edge">
<title>Node8&#45;&gt;Node3</title>
<path fill="none" stroke="midnightblue" d="M616.2,-213.15C512.08,-208.49 296.39,-195.76 116.5,-165 113.58,-164.5 110.59,-163.93 107.59,-163.31"/>
<polygon fill="midnightblue" stroke="midnightblue" points="616.09,-216.65 626.23,-213.59 616.39,-209.65 616.09,-216.65"/>
</g>
<!-- Node8&#45;&gt;Node6 -->
<g id="edge13" class="edge">
<title>Node8&#45;&gt;Node6</title>
<path fill="none" stroke="midnightblue" d="M647.05,-237.73C636.54,-245.94 625.69,-256.28 618.5,-268 605.59,-289.06 601.45,-318.09 600.12,-335.22"/>
<polygon fill="midnightblue" stroke="midnightblue" points="649.37,-240.37 655.33,-231.61 645.21,-234.74 649.37,-240.37"/>
</g>
<!-- Node9 -->
<g id="node9" class="node">
<title>Node9</title>
<g id="a_node9"><a xlink:href="when__impl_8hpp.html" target="_top" xlink:title=" ">
<polygon fill="none" stroke="black" points="755.5,-134.5 755.5,-164.5 865.5,-164.5 865.5,-134.5 755.5,-134.5"/>
<text text-anchor="start" x="763.5" y="-152.5" font-family="Helvetica,sans-Serif" font-size="10.00">include/yaclib/algo</text>
<text text-anchor="middle" x="810.5" y="-141.5" font-family="Helvetica,sans-Serif" font-size="10.00">/detail/when_impl.hpp</text>
</a>
</g>
</g>
<!-- Node8&#45;&gt;Node9 -->
<g id="edge8" class="edge">
<title>Node8&#45;&gt;Node9</title>
<path fill="none" stroke="midnightblue" d="M716.37,-196.85C737.24,-186.58 762.73,-174.03 781.91,-164.58"/>
<polygon fill="midnightblue" stroke="midnightblue" points="714.57,-193.84 707.14,-201.4 717.66,-200.12 714.57,-193.84"/>
</g>
<!-- Node10 -->
<g id="node10" class="node">
<title>Node10</title>
<g id="a_node10"><a xlink:href="when__all_8hpp.html" target="_top" xlink:title=" ">
<polygon fill="none" stroke="black" points="811.5,-67.5 811.5,-97.5 907.5,-97.5 907.5,-67.5 811.5,-67.5"/>
<text text-anchor="start" x="819.5" y="-85.5" font-family="Helvetica,sans-Serif" font-size="10.00">include/yaclib/algo</text>
<text text-anchor="middle" x="859.5" y="-74.5" font-family="Helvetica,sans-Serif" font-size="10.00">/when_all.hpp</text>
</a>
</g>
</g>
<!-- Node8&#45;&gt;Node10 -->
<g id="edge17" class="edge">
<title>Node8&#45;&gt;Node10</title>
<path fill="none" stroke="midnightblue" d="M740.82,-207.77C791.81,-200.02 858.1,-186.16 874.5,-165 889.66,-145.44 877.68,-115.37 868.18,-97.75"/>
<polygon fill="midnightblue" stroke="midnightblue" points="740.22,-204.32 730.84,-209.24 741.24,-211.25 740.22,-204.32"/>
</g>
<!-- Node12 -->
<g id="node12" class="node">
<title>Node12</title>
<g id="a_node12"><a xlink:href="when__any_8hpp.html" target="_top" xlink:title=" ">
<polygon fill="none" stroke="black" points="667.5,-67.5 667.5,-97.5 763.5,-97.5 763.5,-67.5 667.5,-67.5"/>
<text text-anchor="start" x="675.5" y="-85.5" font-family="Helvetica,sans-Serif" font-size="10.00">include/yaclib/algo</text>
<text text-anchor="middle" x="715.5" y="-74.5" font-family="Helvetica,sans-Serif" font-size="10.00">/when_any.hpp</text>
</a>
</g>
</g>
<!-- Node8&#45;&gt;Node12 -->
<g id="edge18" class="edge">
<title>Node8&#45;&gt;Node12</title>
<path fill="none" stroke="midnightblue" d="M633.13,-196.49C620.25,-188.72 607.76,-178.36 600.5,-165 593.92,-152.9 592.97,-145.54 600.5,-134 615.34,-111.27 642.95,-98.7 667.39,-91.79"/>
<polygon fill="midnightblue" stroke="midnightblue" points="631.61,-199.65 642.05,-201.46 635.02,-193.54 631.61,-199.65"/>
</g>
<!-- Node8&#45;&gt;Node14 -->
<g id="edge14" class="edge">
<title>Node8&#45;&gt;Node14</title>
<path fill="none" stroke="midnightblue" d="M616.42,-207.98C549.11,-199.4 438.68,-184.05 344.5,-165 341.6,-164.41 338.62,-163.77 335.63,-163.1"/>
<polygon fill="midnightblue" stroke="midnightblue" points="616.08,-211.47 626.44,-209.25 616.96,-204.52 616.08,-211.47"/>
</g>
<!-- Node8&#45;&gt;Node15 -->
<g id="edge16" class="edge">
<title>Node8&#45;&gt;Node15</title>
<path fill="none" stroke="midnightblue" d="M616.21,-211.19C529.31,-204.55 367.01,-189.94 230.5,-165 227.59,-164.47 224.6,-163.87 221.6,-163.23"/>
<polygon fill="midnightblue" stroke="midnightblue" points="616.19,-214.69 626.42,-211.96 616.72,-207.71 616.19,-214.69"/>
</g>
<!-- Node16 -->
<g id="node16" class="node">
<title>Node16</title>
<g id="a_node16"><a xlink:href="contract_8hpp.html" target="_top" xlink:title=" ">
<polygon fill="none" stroke="black" points="1255.5,-134.5 1255.5,-164.5 1359.5,-164.5 1359.5,-134.5 1255.5,-134.5"/>
<text text-anchor="start" x="1263.5" y="-152.5" font-family="Helvetica,sans-Serif" font-size="10.00">include/yaclib/async</text>
<text text-anchor="middle" x="1307.5" y="-141.5" font-family="Helvetica,sans-Serif" font-size="10.00">/contract.hpp</text>
</a>
</g>
</g>
<!-- Node8&#45;&gt;Node16 -->
<g id="edge19" class="edge">
<title>Node8&#45;&gt;Node16</title>
<path fill="none" stroke="midnightblue" d="M740.59,-212.92C845.43,-207.92 1063.98,-194.65 1246.5,-165 1249.4,-164.53 1252.37,-164 1255.36,-163.42"/>
<polygon fill="midnightblue" stroke="midnightblue" points="740.33,-209.43 730.5,-213.4 740.65,-216.42 740.33,-209.43"/>
</g>
<!-- Node17 -->
<g id="node17" class="node">
<title>Node17</title>
<g id="a_node17"><a xlink:href="simple_8cpp.html" target="_top" xlink:title=" ">
<polygon fill="none" stroke="black" points="1130,-67.5 1130,-97.5 1231,-97.5 1231,-67.5 1130,-67.5"/>
<text text-anchor="start" x="1138" y="-85.5" font-family="Helvetica,sans-Serif" font-size="10.00">test/example/async</text>
<text text-anchor="middle" x="1180.5" y="-74.5" font-family="Helvetica,sans-Serif" font-size="10.00">/simple.cpp</text>
</a>
</g>
</g>
<!-- Node8&#45;&gt;Node17 -->
<g id="edge31" class="edge">
<title>Node8&#45;&gt;Node17</title>
<path fill="none" stroke="midnightblue" d="M740.87,-213.56C813.22,-209.74 935.27,-198.44 1034.5,-165 1082.92,-148.69 1133.77,-116.28 1160.82,-97.62"/>
<polygon fill="midnightblue" stroke="midnightblue" points="740.38,-210.08 730.57,-214.07 740.73,-217.07 740.38,-210.08"/>
</g>
<!-- Node18 -->
<g id="node18" class="node">
<title>Node18</title>
<g id="a_node18"><a xlink:href="run_8hpp.html" target="_top" xlink:title=" ">
<polygon fill="none" stroke="black" points="921.5,-134.5 921.5,-164.5 1025.5,-164.5 1025.5,-134.5 921.5,-134.5"/>
<text text-anchor="start" x="929.5" y="-152.5" font-family="Helvetica,sans-Serif" font-size="10.00">include/yaclib/async</text>
<text text-anchor="middle" x="973.5" y="-141.5" font-family="Helvetica,sans-Serif" font-size="10.00">/run.hpp</text>
</a>
</g>
</g>
<!-- Node8&#45;&gt;Node18 -->
<g id="edge21" class="edge">
<title>Node8&#45;&gt;Node18</title>
<path fill="none" stroke="midnightblue" d="M740.64,-201.81C794.31,-189.98 870.97,-173.09 921.46,-161.97"/>
<polygon fill="midnightblue" stroke="midnightblue" points="739.57,-198.46 730.56,-204.03 741.08,-205.3 739.57,-198.46"/>
</g>
<!-- Node19 -->
<g id="node19" class="node">
<title>Node19</title>
<g id="a_node19"><a xlink:href="await_8hpp.html" target="_top" xlink:title=" ">
<polygon fill="none" stroke="black" points="484.5,-67.5 484.5,-97.5 602.5,-97.5 602.5,-67.5 484.5,-67.5"/>
<text text-anchor="start" x="492.5" y="-85.5" font-family="Helvetica,sans-Serif" font-size="10.00">include/yaclib/coroutine</text>
<text text-anchor="middle" x="543.5" y="-74.5" font-family="Helvetica,sans-Serif" font-size="10.00">/await.hpp</text>
</a>
</g>
</g>
<!-- Node8&#45;&gt;Node19 -->
<g id="edge25" class="edge">
<title>Node8&#45;&gt;Node19</title>
<path fill="none" stroke="midnightblue" d="M635.83,-196.84C620.31,-188.63 603.42,-177.9 590.5,-165 570.61,-145.16 556.23,-115.19 548.94,-97.66"/>
<polygon fill="midnightblue" stroke="midnightblue" points="634.27,-199.97 644.77,-201.37 637.44,-193.73 634.27,-199.97"/>
</g>
<!-- Node20 -->
<g id="node20" class="node">
<title>Node20</title>
<g id="a_node20"><a xlink:href="await__awaiter_8hpp.html" target="_top" xlink:title=" ">
<polygon fill="none" stroke="black" points="353.5,-134.5 353.5,-164.5 477.5,-164.5 477.5,-134.5 353.5,-134.5"/>
<text text-anchor="start" x="361.5" y="-152.5" font-family="Helvetica,sans-Serif" font-size="10.00">include/yaclib/coroutine</text>
<text text-anchor="middle" x="415.5" y="-141.5" font-family="Helvetica,sans-Serif" font-size="10.00">/detail/await_awaiter.hpp</text>
</a>
</g>
</g>
<!-- Node8&#45;&gt;Node20 -->
<g id="edge26" class="edge">
<title>Node8&#45;&gt;Node20</title>
<path fill="none" stroke="midnightblue" d="M616.29,-200.13C572.61,-189.33 514.65,-175 472.23,-164.52"/>
<polygon fill="midnightblue" stroke="midnightblue" points="615.68,-203.58 626.23,-202.58 617.36,-196.78 615.68,-203.58"/>
</g>
<!-- Node22 -->
<g id="node22" class="node">
<title>Node22</title>
<g id="a_node22"><a xlink:href="future__traits_8hpp.html" target="_top" xlink:title=" ">
<polygon fill="none" stroke="black" points="1119.5,-134.5 1119.5,-164.5 1237.5,-164.5 1237.5,-134.5 1119.5,-134.5"/>
<text text-anchor="start" x="1127.5" y="-152.5" font-family="Helvetica,sans-Serif" font-size="10.00">include/yaclib/coroutine</text>
<text text-anchor="middle" x="1178.5" y="-141.5" font-family="Helvetica,sans-Serif" font-size="10.00">/future_traits.hpp</text>
</a>
</g>
</g>
<!-- Node8&#45;&gt;Node22 -->
<g id="edge29" class="edge">
<title>Node8&#45;&gt;Node22</title>
<path fill="none" stroke="midnightblue" d="M740.71,-207.44C817.52,-197.48 952.14,-180.02 1067.5,-165 1084.36,-162.8 1102.67,-160.42 1119.45,-158.22"/>
<polygon fill="midnightblue" stroke="midnightblue" points="740.19,-203.98 730.73,-208.73 741.09,-210.92 740.19,-203.98"/>
</g>
<!-- Node23 -->
<g id="node23" class="node">
<title>Node23</title>
<g id="a_node23"><a xlink:href="future__impl_8cpp.html" target="_top" xlink:title=" ">
<polygon fill="none" stroke="black" points="609.5,-140 609.5,-159 737.5,-159 737.5,-140 609.5,-140"/>
<text text-anchor="middle" x="673.5" y="-147" font-family="Helvetica,sans-Serif" font-size="10.00">src/async/future_impl.cpp</text>
</a>
</g>
</g>
<!-- Node8&#45;&gt;Node23 -->
<g id="edge30" class="edge">
<title>Node8&#45;&gt;Node23</title>
<path fill="none" stroke="midnightblue" d="M676.63,-191.25C675.77,-180.02 674.8,-167.38 674.17,-159.19"/>
<polygon fill="midnightblue" stroke="midnightblue" points="673.16,-191.69 677.42,-201.4 680.14,-191.16 673.16,-191.69"/>
</g>
<!-- Node9&#45;&gt;Node10 -->
<g id="edge9" class="edge">
<title>Node9&#45;&gt;Node10</title>
<path fill="none" stroke="midnightblue" d="M827.34,-126.16C834.49,-116.68 842.6,-105.92 848.89,-97.58"/>
<polygon fill="midnightblue" stroke="midnightblue" points="824.36,-124.3 821.13,-134.4 829.95,-128.52 824.36,-124.3"/>
</g>
<!-- Node9&#45;&gt;Node12 -->
<g id="edge11" class="edge">
<title>Node9&#45;&gt;Node12</title>
<path fill="none" stroke="midnightblue" d="M781.61,-128.73C766.91,-118.68 749.39,-106.68 736.07,-97.58"/>
<polygon fill="midnightblue" stroke="midnightblue" points="779.66,-131.64 789.89,-134.4 783.61,-125.86 779.66,-131.64"/>
</g>
<!-- Node11 -->
<g id="node11" class="node">
<title>Node11</title>
<g id="a_node11"><a xlink:href="when__all_8cpp.html" target="_top" xlink:title=" ">
<polygon fill="none" stroke="black" points="838,-0.5 838,-30.5 939,-30.5 939,-0.5 838,-0.5"/>
<text text-anchor="start" x="846" y="-18.5" font-family="Helvetica,sans-Serif" font-size="10.00">test/example/async</text>
<text text-anchor="middle" x="888.5" y="-7.5" font-family="Helvetica,sans-Serif" font-size="10.00">/when_all.cpp</text>
</a>
</g>
</g>
<!-- Node10&#45;&gt;Node11 -->
<g id="edge10" class="edge">
<title>Node10&#45;&gt;Node11</title>
<path fill="none" stroke="midnightblue" d="M869.99,-57.99C874.09,-48.8 878.65,-38.58 882.22,-30.58"/>
<polygon fill="midnightblue" stroke="midnightblue" points="866.67,-56.84 865.79,-67.4 873.06,-59.69 866.67,-56.84"/>
</g>
<!-- Node13 -->
<g id="node13" class="node">
<title>Node13</title>
<g id="a_node13"><a xlink:href="when__any_8cpp.html" target="_top" xlink:title=" ">
<polygon fill="none" stroke="black" points="701,-0.5 701,-30.5 802,-30.5 802,-0.5 701,-0.5"/>
<text text-anchor="start" x="709" y="-18.5" font-family="Helvetica,sans-Serif" font-size="10.00">test/example/async</text>
<text text-anchor="middle" x="751.5" y="-7.5" font-family="Helvetica,sans-Serif" font-size="10.00">/when_any.cpp</text>
</a>
</g>
</g>
<!-- Node12&#45;&gt;Node13 -->
<g id="edge12" class="edge">
<title>Node12&#45;&gt;Node13</title>
<path fill="none" stroke="midnightblue" d="M728.2,-58.58C733.37,-49.24 739.18,-38.75 743.7,-30.58"/>
<polygon fill="midnightblue" stroke="midnightblue" points="725.09,-56.95 723.31,-67.4 731.22,-60.34 725.09,-56.95"/>
</g>
<!-- Node16&#45;&gt;Node17 -->
<g id="edge20" class="edge">
<title>Node16&#45;&gt;Node17</title>
<path fill="none" stroke="midnightblue" d="M1270.8,-129.71C1250.77,-119.46 1226.38,-106.98 1208,-97.58"/>
<polygon fill="midnightblue" stroke="midnightblue" points="1269.45,-132.96 1279.94,-134.4 1272.64,-126.72 1269.45,-132.96"/>
</g>
<!-- Node18&#45;&gt;Node11 -->
<g id="edge23" class="edge">
<title>Node18&#45;&gt;Node11</title>
<path fill="none" stroke="midnightblue" d="M970.2,-124.18C967,-107.09 960.89,-84.27 949.5,-67 939.74,-52.19 924.33,-39.49 911.44,-30.52"/>
<polygon fill="midnightblue" stroke="midnightblue" points="966.82,-125.18 971.91,-134.48 973.73,-124.04 966.82,-125.18"/>
</g>
<!-- Node18&#45;&gt;Node13 -->
<g id="edge24" class="edge">
<title>Node18&#45;&gt;Node13</title>
<path fill="none" stroke="midnightblue" d="M962.56,-125.06C952.88,-106.75 937.1,-81.98 916.5,-67 898.15,-53.65 843.73,-38.42 802.36,-28.2"/>
<polygon fill="midnightblue" stroke="midnightblue" points="959.55,-126.86 967.18,-134.21 965.8,-123.71 959.55,-126.86"/>
</g>
<!-- Node18&#45;&gt;Node17 -->
<g id="edge22" class="edge">
<title>Node18&#45;&gt;Node17</title>
<path fill="none" stroke="midnightblue" d="M1027.82,-131.44C1061.37,-120.91 1103.91,-107.55 1135.56,-97.61"/>
<polygon fill="midnightblue" stroke="midnightblue" points="1026.65,-128.14 1018.16,-134.48 1028.75,-134.82 1026.65,-128.14"/>
</g>
<!-- Node20&#45;&gt;Node19 -->
<g id="edge27" class="edge">
<title>Node20&#45;&gt;Node19</title>
<path fill="none" stroke="midnightblue" d="M452.22,-129.85C472.46,-119.58 497.17,-107.03 515.78,-97.58"/>
<polygon fill="midnightblue" stroke="midnightblue" points="450.61,-126.75 443.27,-134.4 453.78,-132.99 450.61,-126.75"/>
</g>
<!-- Node21 -->
<g id="node21" class="node">
<title>Node21</title>
<g id="a_node21"><a xlink:href="await__awaiter_8cpp.html" target="_top" xlink:title=" ">
<polygon fill="none" stroke="black" points="366,-67.5 366,-97.5 465,-97.5 465,-67.5 366,-67.5"/>
<text text-anchor="start" x="374" y="-85.5" font-family="Helvetica,sans-Serif" font-size="10.00">src/coroutine/await</text>
<text text-anchor="middle" x="415.5" y="-74.5" font-family="Helvetica,sans-Serif" font-size="10.00">_awaiter.cpp</text>
</a>
</g>
</g>
<!-- Node20&#45;&gt;Node21 -->
<g id="edge28" class="edge">
<title>Node20&#45;&gt;Node21</title>
<path fill="none" stroke="midnightblue" d="M415.5,-124.11C415.5,-115.15 415.5,-105.32 415.5,-97.58"/>
<polygon fill="midnightblue" stroke="midnightblue" points="412,-124.4 415.5,-134.4 419,-124.4 412,-124.4"/>
</g>
<!-- Node25&#45;&gt;Node8 -->
<g id="edge43" class="edge">
<title>Node25&#45;&gt;Node8</title>
<path fill="none" stroke="midnightblue" d="M817.24,-396.4C806.41,-388.03 794.83,-377.55 786.5,-366 759.18,-328.1 777.06,-304.97 748.5,-268 736.86,-252.94 719.55,-240.39 705.05,-231.57"/>
<polygon fill="midnightblue" stroke="midnightblue" points="815.19,-399.24 825.31,-402.38 819.36,-393.61 815.19,-399.24"/>
</g>
<!-- Node26 -->
<g id="node26" class="node">
<title>Node26</title>
<g id="a_node26"><a xlink:href="when__all__impl_8hpp.html" target="_top" xlink:title=" ">
<polygon fill="none" stroke="black" points="1021,-268.5 1021,-298.5 1146,-298.5 1146,-268.5 1021,-268.5"/>
<text text-anchor="start" x="1029" y="-286.5" font-family="Helvetica,sans-Serif" font-size="10.00">include/yaclib/algo</text>
<text text-anchor="middle" x="1083.5" y="-275.5" font-family="Helvetica,sans-Serif" font-size="10.00">/detail/when_all_impl.hpp</text>
</a>
</g>
</g>
<!-- Node25&#45;&gt;Node26 -->
<g id="edge36" class="edge">
<title>Node25&#45;&gt;Node26</title>
<path fill="none" stroke="midnightblue" d="M913.57,-401.96C972.09,-388.85 1049.1,-370.88 1054.5,-366 1074.01,-348.39 1080.4,-316.77 1082.49,-298.53"/>
<polygon fill="midnightblue" stroke="midnightblue" points="912.61,-398.59 903.62,-404.19 914.14,-405.42 912.61,-398.59"/>
</g>
<!-- Node27 -->
<g id="node27" class="node">
<title>Node27</title>
<g id="a_node27"><a xlink:href="when__any__impl_8hpp.html" target="_top" xlink:title=" ">
<polygon fill="none" stroke="black" points="440,-268.5 440,-298.5 571,-298.5 571,-268.5 440,-268.5"/>
<text text-anchor="start" x="448" y="-286.5" font-family="Helvetica,sans-Serif" font-size="10.00">include/yaclib/algo</text>
<text text-anchor="middle" x="505.5" y="-275.5" font-family="Helvetica,sans-Serif" font-size="10.00">/detail/when_any_impl.hpp</text>
</a>
</g>
</g>
<!-- Node25&#45;&gt;Node27 -->
<g id="edge38" class="edge">
<title>Node25&#45;&gt;Node27</title>
<path fill="none" stroke="midnightblue" d="M781.09,-412.74C702.87,-407.09 578.93,-393.94 542.5,-366 520.8,-349.35 511.45,-317.07 507.72,-298.53"/>
<polygon fill="midnightblue" stroke="midnightblue" points="781.12,-416.25 791.34,-413.46 781.61,-409.27 781.12,-416.25"/>
</g>
<!-- Node28 -->
<g id="node28" class="node">
<title>Node28</title>
<g id="a_node28"><a xlink:href="core_8hpp.html" target="_top" xlink:title=" ">
<polygon fill="none" stroke="black" points="795.5,-335.5 795.5,-365.5 899.5,-365.5 899.5,-335.5 795.5,-335.5"/>
<text text-anchor="start" x="803.5" y="-353.5" font-family="Helvetica,sans-Serif" font-size="10.00">include/yaclib/async</text>
<text text-anchor="middle" x="847.5" y="-342.5" font-family="Helvetica,sans-Serif" font-size="10.00">/detail/core.hpp</text>
</a>
</g>
</g>
<!-- Node25&#45;&gt;Node28 -->
<g id="edge40" class="edge">
<title>Node25&#45;&gt;Node28</title>
<path fill="none" stroke="midnightblue" d="M847.5,-392.11C847.5,-383.15 847.5,-373.32 847.5,-365.58"/>
<polygon fill="midnightblue" stroke="midnightblue" points="844,-392.4 847.5,-402.4 851,-392.4 844,-392.4"/>
</g>
<!-- Node29 -->
<g id="node29" class="node">
<title>Node29</title>
<g id="a_node29"><a xlink:href="promise_8hpp.html" target="_top" xlink:title=" ">
<polygon fill="none" stroke="black" points="1302.5,-201.5 1302.5,-231.5 1406.5,-231.5 1406.5,-201.5 1302.5,-201.5"/>
<text text-anchor="start" x="1310.5" y="-219.5" font-family="Helvetica,sans-Serif" font-size="10.00">include/yaclib/async</text>
<text text-anchor="middle" x="1354.5" y="-208.5" font-family="Helvetica,sans-Serif" font-size="10.00">/promise.hpp</text>
</a>
</g>
</g>
<!-- Node25&#45;&gt;Node29 -->
<g id="edge44" class="edge">
<title>Node25&#45;&gt;Node29</title>
<path fill="none" stroke="midnightblue" d="M913.2,-402.07C913.3,-402.04 913.4,-402.02 913.5,-402 986.39,-385.99 1007.51,-391.88 1077.5,-366 1178.32,-328.73 1288.01,-260.88 1333.21,-231.59"/>
<polygon fill="midnightblue" stroke="midnightblue" points="912.69,-398.6 903.67,-404.16 914.19,-405.43 912.69,-398.6"/>
</g>
<!-- Node31 -->
<g id="node31" class="node">
<title>Node31</title>
<g id="a_node31"><a xlink:href="promise__type_8hpp.html" target="_top" xlink:title=" ">
<polygon fill="none" stroke="black" points="1244.5,-335.5 1244.5,-365.5 1366.5,-365.5 1366.5,-335.5 1244.5,-335.5"/>
<text text-anchor="start" x="1252.5" y="-353.5" font-family="Helvetica,sans-Serif" font-size="10.00">include/yaclib/coroutine</text>
<text text-anchor="middle" x="1305.5" y="-342.5" font-family="Helvetica,sans-Serif" font-size="10.00">/detail/promise_type.hpp</text>
</a>
</g>
</g>
<!-- Node25&#45;&gt;Node31 -->
<g id="edge48" class="edge">
<title>Node25&#45;&gt;Node31</title>
<path fill="none" stroke="midnightblue" d="M913.2,-402.05C913.3,-402.03 913.4,-402.02 913.5,-402 1053.38,-378.76 1090.34,-387.47 1230.5,-366 1234.96,-365.32 1239.55,-364.56 1244.17,-363.76"/>
<polygon fill="midnightblue" stroke="midnightblue" points="912.82,-398.56 903.59,-403.76 914.05,-405.45 912.82,-398.56"/>
</g>
<!-- Node36 -->
<g id="node36" class="node">
<title>Node36</title>
<g id="a_node36"><a xlink:href="result__core_8cpp.html" target="_top" xlink:title=" ">
<polygon fill="none" stroke="black" points="917.5,-341 917.5,-360 1045.5,-360 1045.5,-341 917.5,-341"/>
<text text-anchor="middle" x="981.5" y="-348" font-family="Helvetica,sans-Serif" font-size="10.00">src/async/result_core.cpp</text>
</a>
</g>
</g>
<!-- Node25&#45;&gt;Node36 -->
<g id="edge54" class="edge">
<title>Node25&#45;&gt;Node36</title>
<path fill="none" stroke="midnightblue" d="M885.71,-397.97C911.45,-385.48 944.19,-369.6 963.96,-360.01"/>
<polygon fill="midnightblue" stroke="midnightblue" points="884.05,-394.88 876.58,-402.4 887.1,-401.18 884.05,-394.88"/>
</g>
<!-- Node26&#45;&gt;Node10 -->
<g id="edge37" class="edge">
<title>Node26&#45;&gt;Node10</title>
<path fill="none" stroke="midnightblue" d="M1082.27,-258.32C1079.29,-225.56 1069.11,-167.33 1034.5,-134 1000.56,-101.32 946.85,-89.57 907.87,-85.46"/>
<polygon fill="midnightblue" stroke="midnightblue" points="1078.79,-258.68 1083.03,-268.38 1085.77,-258.15 1078.79,-258.68"/>
</g>
<!-- Node27&#45;&gt;Node12 -->
<g id="edge39" class="edge">
<title>Node27&#45;&gt;Node12</title>
<path fill="none" stroke="midnightblue" d="M513.5,-258.6C525.45,-226.23 550.91,-168.54 590.5,-134 612.28,-115 642.14,-102.57 667.21,-94.81"/>
<polygon fill="midnightblue" stroke="midnightblue" points="510.15,-257.57 510.09,-268.16 516.74,-259.92 510.15,-257.57"/>
</g>
<!-- Node28&#45;&gt;Node7 -->
<g id="edge41" class="edge">
<title>Node28&#45;&gt;Node7</title>
<path fill="none" stroke="midnightblue" d="M802.54,-331.68C776.24,-321.26 743.5,-308.28 719.02,-298.58"/>
<polygon fill="midnightblue" stroke="midnightblue" points="801.33,-334.97 811.91,-335.4 803.91,-328.46 801.33,-334.97"/>
</g>
<!-- Node28&#45;&gt;Node18 -->
<g id="edge42" class="edge">
<title>Node28&#45;&gt;Node18</title>
<path fill="none" stroke="midnightblue" d="M862.01,-326.59C888.28,-285.1 942.99,-198.68 964.52,-164.68"/>
<polygon fill="midnightblue" stroke="midnightblue" points="858.95,-324.87 856.56,-335.19 864.87,-328.61 858.95,-324.87"/>
</g>
<!-- Node29&#45;&gt;Node16 -->
<g id="edge45" class="edge">
<title>Node29&#45;&gt;Node16</title>
<path fill="none" stroke="midnightblue" d="M1338.34,-193.16C1331.49,-183.68 1323.71,-172.92 1317.68,-164.58"/>
<polygon fill="midnightblue" stroke="midnightblue" points="1335.61,-195.34 1344.3,-201.4 1341.28,-191.24 1335.61,-195.34"/>
</g>
<!-- Node29&#45;&gt;Node17 -->
<g id="edge47" class="edge">
<title>Node29&#45;&gt;Node17</title>
<path fill="none" stroke="midnightblue" d="M1416.72,-207.48C1478.69,-196.99 1559.87,-174.94 1524.5,-134 1487.21,-90.83 1317.48,-83.88 1231.19,-83.2"/>
<polygon fill="midnightblue" stroke="midnightblue" points="1415.88,-204.06 1406.57,-209.12 1417,-210.97 1415.88,-204.06"/>
</g>
<!-- Node30 -->
<g id="node30" class="node">
<title>Node30</title>
<g id="a_node30"><a xlink:href="promise__impl_8cpp.html" target="_top" xlink:title=" ">
<polygon fill="none" stroke="black" points="1378,-140 1378,-159 1515,-159 1515,-140 1378,-140"/>
<text text-anchor="middle" x="1446.5" y="-147" font-family="Helvetica,sans-Serif" font-size="10.00">src/async/promise_impl.cpp</text>
</a>
</g>
</g>
<!-- Node29&#45;&gt;Node30 -->
<g id="edge46" class="edge">
<title>Node29&#45;&gt;Node30</title>
<path fill="none" stroke="midnightblue" d="M1383.08,-195.31C1400.36,-183.1 1421.48,-168.18 1434.46,-159.01"/>
<polygon fill="midnightblue" stroke="midnightblue" points="1380.61,-192.77 1374.46,-201.4 1384.65,-198.48 1380.61,-192.77"/>
</g>
<!-- Node31&#45;&gt;Node22 -->
<g id="edge53" class="edge">
<title>Node31&#45;&gt;Node22</title>
<path fill="none" stroke="midnightblue" d="M1290.88,-326.59C1264.4,-285.1 1209.25,-198.68 1187.55,-164.68"/>
<polygon fill="midnightblue" stroke="midnightblue" points="1288.04,-328.64 1296.37,-335.19 1293.94,-324.88 1288.04,-328.64"/>
</g>
<!-- Node32 -->
<g id="node32" class="node">
<title>Node32</title>
<g id="a_node32"><a xlink:href="on__awaiter_8hpp.html" target="_top" xlink:title=" ">
<polygon fill="none" stroke="black" points="1517.5,-268.5 1517.5,-298.5 1635.5,-298.5 1635.5,-268.5 1517.5,-268.5"/>
<text text-anchor="start" x="1525.5" y="-286.5" font-family="Helvetica,sans-Serif" font-size="10.00">include/yaclib/coroutine</text>
<text text-anchor="middle" x="1576.5" y="-275.5" font-family="Helvetica,sans-Serif" font-size="10.00">/detail/on_awaiter.hpp</text>
</a>
</g>
</g>
<!-- Node31&#45;&gt;Node32 -->
<g id="edge49" class="edge">
<title>Node31&#45;&gt;Node32</title>
<path fill="none" stroke="midnightblue" d="M1373.8,-333.12C1418.14,-322.48 1475.34,-308.76 1517.67,-298.61"/>
<polygon fill="midnightblue" stroke="midnightblue" points="1372.88,-329.74 1363.97,-335.48 1374.51,-336.55 1372.88,-329.74"/>
</g>
<!-- Node33 -->
<g id="node33" class="node">
<title>Node33</title>
<g id="a_node33"><a xlink:href="on_8hpp.html" target="_top" xlink:title=" ">
<polygon fill="none" stroke="black" points="1517.5,-201.5 1517.5,-231.5 1635.5,-231.5 1635.5,-201.5 1517.5,-201.5"/>
<text text-anchor="start" x="1525.5" y="-219.5" font-family="Helvetica,sans-Serif" font-size="10.00">include/yaclib/coroutine</text>
<text text-anchor="middle" x="1576.5" y="-208.5" font-family="Helvetica,sans-Serif" font-size="10.00">/on.hpp</text>
</a>
</g>
</g>
<!-- Node32&#45;&gt;Node33 -->
<g id="edge50" class="edge">
<title>Node32&#45;&gt;Node33</title>
<path fill="none" stroke="midnightblue" d="M1576.5,-258.11C1576.5,-249.15 1576.5,-239.32 1576.5,-231.58"/>
<polygon fill="midnightblue" stroke="midnightblue" points="1573,-258.4 1576.5,-268.4 1580,-258.4 1573,-258.4"/>
</g>
<!-- Node35 -->
<g id="node35" class="node">
<title>Node35</title>
<g id="a_node35"><a xlink:href="on__awaiter_8cpp.html" target="_top" xlink:title=" ">
<polygon fill="none" stroke="black" points="1654,-207 1654,-226 1795,-226 1795,-207 1654,-207"/>
<text text-anchor="middle" x="1724.5" y="-214" font-family="Helvetica,sans-Serif" font-size="10.00">src/coroutine/on_awaiter.cpp</text>
</a>
</g>
</g>
<!-- Node32&#45;&gt;Node35 -->
<g id="edge52" class="edge">
<title>Node32&#45;&gt;Node35</title>
<path fill="none" stroke="midnightblue" d="M1617.95,-264.3C1646.49,-251.76 1683.1,-235.68 1705.13,-226.01"/>
<polygon fill="midnightblue" stroke="midnightblue" points="1616.36,-261.17 1608.61,-268.4 1619.18,-267.58 1616.36,-261.17"/>
</g>
<!-- Node34 -->
<g id="node34" class="node">
<title>Node34</title>
<g id="a_node34"><a xlink:href="on_8cpp.html" target="_top" xlink:title=" ">
<polygon fill="none" stroke="black" points="1571.5,-140 1571.5,-159 1675.5,-159 1675.5,-140 1571.5,-140"/>
<text text-anchor="middle" x="1623.5" y="-147" font-family="Helvetica,sans-Serif" font-size="10.00">src/coroutine/on.cpp</text>
</a>
</g>
</g>
<!-- Node33&#45;&gt;Node34 -->
<g id="edge51" class="edge">
<title>Node33&#45;&gt;Node34</title>
<path fill="none" stroke="midnightblue" d="M1592.79,-192.97C1601.21,-181.33 1610.99,-167.8 1617.21,-159.19"/>
<polygon fill="midnightblue" stroke="midnightblue" points="1589.72,-191.24 1586.7,-201.4 1595.39,-195.34 1589.72,-191.24"/>
</g>
</g>
</svg>
