<?xml version="1.0" encoding="UTF-8" standalone="no"?>
<!DOCTYPE svg PUBLIC "-//W3C//DTD SVG 1.1//EN"
 "http://www.w3.org/Graphics/SVG/1.1/DTD/svg11.dtd">
<!-- Generated by graphviz version 3.0.0 (20220413.0106)
 -->
<!-- Title: include/yaclib/async/detail/base_core.hpp Pages: 1 -->
<svg width="458pt" height="352pt"
 viewBox="0.00 0.00 457.51 352.00" xmlns="http://www.w3.org/2000/svg" xmlns:xlink="http://www.w3.org/1999/xlink">
<g id="graph0" class="graph" transform="scale(1 1) rotate(0) translate(4 348)">
<title>include/yaclib/async/detail/base_core.hpp</title>
<!-- Node1 -->
<g id="node1" class="node">
<title>Node1</title>
<g id="a_node1"><a xlink:title=" ">
<polygon fill="#bfbfbf" stroke="black" points="171.01,-313.5 171.01,-343.5 280.01,-343.5 280.01,-313.5 171.01,-313.5"/>
<text text-anchor="start" x="179.01" y="-331.5" font-family="Helvetica,sans-Serif" font-size="10.00">include/yaclib/async</text>
<text text-anchor="middle" x="225.51" y="-320.5" font-family="Helvetica,sans-Serif" font-size="10.00">/detail/base_core.hpp</text>
</a>
</g>
</g>
<!-- Node2 -->
<g id="node2" class="node">
<title>Node2</title>
<g id="a_node2"><a xlink:href="inline__core_8hpp.html" target="_top" xlink:title=" ">
<polygon fill="none" stroke="black" points="41.51,-246.5 41.51,-276.5 137.51,-276.5 137.51,-246.5 41.51,-246.5"/>
<text text-anchor="start" x="49.51" y="-264.5" font-family="Helvetica,sans-Serif" font-size="10.00">yaclib/async/detail</text>
<text text-anchor="middle" x="89.51" y="-253.5" font-family="Helvetica,sans-Serif" font-size="10.00">/inline_core.hpp</text>
</a>
</g>
</g>
<!-- Node1&#45;&gt;Node2 -->
<g id="edge1" class="edge">
<title>Node1&#45;&gt;Node2</title>
<path fill="none" stroke="midnightblue" d="M196,-313.4C176.13,-303.9 149.72,-291.28 128.17,-280.98"/>
<polygon fill="midnightblue" stroke="midnightblue" points="129.49,-277.73 118.96,-276.58 126.47,-284.05 129.49,-277.73"/>
</g>
<!-- Node6 -->
<g id="node6" class="node">
<title>Node6</title>
<g id="a_node6"><a xlink:href="ref_8hpp.html" target="_top" xlink:title=" ">
<polygon fill="none" stroke="black" points="106.01,-56.5 106.01,-75.5 195.01,-75.5 195.01,-56.5 106.01,-56.5"/>
<text text-anchor="middle" x="150.51" y="-63.5" font-family="Helvetica,sans-Serif" font-size="10.00">yaclib/util/ref.hpp</text>
</a>
</g>
</g>
<!-- Node1&#45;&gt;Node6 -->
<g id="edge17" class="edge">
<title>Node1&#45;&gt;Node6</title>
<path fill="none" stroke="midnightblue" d="M170.62,-320.63C119.71,-313 49.33,-298.8 32.51,-277 -12.31,-218.95 -9.1,-172.39 32.51,-112 46.87,-91.15 72.3,-79.95 95.87,-73.94"/>
<polygon fill="midnightblue" stroke="midnightblue" points="96.86,-77.31 105.83,-71.67 95.3,-70.48 96.86,-77.31"/>
</g>
<!-- Node9 -->
<g id="node9" class="node">
<title>Node9</title>
<g id="a_node9"><a xlink:href="executor_8hpp.html" target="_top" xlink:title=" ">
<polygon fill="none" stroke="black" points="156.01,-252 156.01,-271 295.01,-271 295.01,-252 156.01,-252"/>
<text text-anchor="middle" x="225.51" y="-259" font-family="Helvetica,sans-Serif" font-size="10.00">yaclib/executor/executor.hpp</text>
</a>
</g>
</g>
<!-- Node1&#45;&gt;Node9 -->
<g id="edge8" class="edge">
<title>Node1&#45;&gt;Node9</title>
<path fill="none" stroke="midnightblue" d="M225.51,-313.4C225.51,-304.06 225.51,-291.71 225.51,-281.52"/>
<polygon fill="midnightblue" stroke="midnightblue" points="229.01,-281.19 225.51,-271.19 222.01,-281.19 229.01,-281.19"/>
</g>
<!-- Node10 -->
<g id="node10" class="node">
<title>Node10</title>
<g id="a_node10"><a xlink:href="intrusive__ptr_8hpp.html" target="_top" xlink:title=" ">
<polygon fill="none" stroke="black" points="259.01,-179.5 259.01,-209.5 356.01,-209.5 356.01,-179.5 259.01,-179.5"/>
<text text-anchor="start" x="267.01" y="-197.5" font-family="Helvetica,sans-Serif" font-size="10.00">yaclib/util/intrusive</text>
<text text-anchor="middle" x="307.51" y="-186.5" font-family="Helvetica,sans-Serif" font-size="10.00">_ptr.hpp</text>
</a>
</g>
</g>
<!-- Node1&#45;&gt;Node10 -->
<g id="edge16" class="edge">
<title>Node1&#45;&gt;Node10</title>
<path fill="none" stroke="midnightblue" d="M262.14,-313.42C278.03,-305.3 295.13,-293.39 304.51,-277 314.36,-259.76 314.32,-236.94 312.27,-219.84"/>
<polygon fill="midnightblue" stroke="midnightblue" points="315.66,-218.9 310.71,-209.54 308.74,-219.95 315.66,-218.9"/>
</g>
<!-- Node14 -->
<g id="node14" class="node">
<title>Node14</title>
<g id="a_node14"><a xlink:title=" ">
<polygon fill="none" stroke="#bfbfbf" points="351.51,-252 351.51,-271 443.51,-271 443.51,-252 351.51,-252"/>
<text text-anchor="middle" x="397.51" y="-259" font-family="Helvetica,sans-Serif" font-size="10.00">yaclib_std/atomic</text>
</a>
</g>
</g>
<!-- Node1&#45;&gt;Node14 -->
<g id="edge18" class="edge">
<title>Node1&#45;&gt;Node14</title>
<path fill="none" stroke="midnightblue" d="M262.83,-313.4C293.41,-301.84 336.23,-285.66 365.32,-274.66"/>
<polygon fill="midnightblue" stroke="midnightblue" points="366.88,-277.82 375,-271.01 364.4,-271.27 366.88,-277.82"/>
</g>
<!-- Node3 -->
<g id="node3" class="node">
<title>Node3</title>
<g id="a_node3"><a xlink:href="job_8hpp.html" target="_top" xlink:title=" ">
<polygon fill="none" stroke="black" points="84.01,-185 84.01,-204 199.01,-204 199.01,-185 84.01,-185"/>
<text text-anchor="middle" x="141.51" y="-192" font-family="Helvetica,sans-Serif" font-size="10.00">yaclib/executor/job.hpp</text>
</a>
</g>
</g>
<!-- Node2&#45;&gt;Node3 -->
<g id="edge2" class="edge">
<title>Node2&#45;&gt;Node3</title>
<path fill="none" stroke="midnightblue" d="M100.79,-246.4C108.82,-236.36 119.64,-222.84 128.1,-212.25"/>
<polygon fill="midnightblue" stroke="midnightblue" points="131.04,-214.19 134.55,-204.19 125.57,-209.82 131.04,-214.19"/>
</g>
<!-- Node4 -->
<g id="node4" class="node">
<title>Node4</title>
<g id="a_node4"><a xlink:href="node_8hpp.html" target="_top" xlink:title=" ">
<polygon fill="none" stroke="black" points="42.01,-112.5 42.01,-142.5 125.01,-142.5 125.01,-112.5 42.01,-112.5"/>
<text text-anchor="start" x="50.01" y="-130.5" font-family="Helvetica,sans-Serif" font-size="10.00">yaclib/util/detail</text>
<text text-anchor="middle" x="83.51" y="-119.5" font-family="Helvetica,sans-Serif" font-size="10.00">/node.hpp</text>
</a>
</g>
</g>
<!-- Node3&#45;&gt;Node4 -->
<g id="edge3" class="edge">
<title>Node3&#45;&gt;Node4</title>
<path fill="none" stroke="midnightblue" d="M133.68,-184.73C125.85,-175.95 113.47,-162.08 102.97,-150.31"/>
<polygon fill="midnightblue" stroke="midnightblue" points="105.35,-147.72 96.08,-142.59 100.12,-152.38 105.35,-147.72"/>
</g>
<!-- Node5 -->
<g id="node5" class="node">
<title>Node5</title>
<g id="a_node5"><a xlink:href="func_8hpp.html" target="_top" xlink:title=" ">
<polygon fill="none" stroke="black" points="182.01,-118 182.01,-137 279.01,-137 279.01,-118 182.01,-118"/>
<text text-anchor="middle" x="230.51" y="-125" font-family="Helvetica,sans-Serif" font-size="10.00">yaclib/util/func.hpp</text>
</a>
</g>
</g>
<!-- Node3&#45;&gt;Node5 -->
<g id="edge4" class="edge">
<title>Node3&#45;&gt;Node5</title>
<path fill="none" stroke="midnightblue" d="M153.51,-184.73C168.05,-174.11 192.79,-156.05 210.29,-143.26"/>
<polygon fill="midnightblue" stroke="midnightblue" points="212.68,-145.85 218.69,-137.13 208.55,-140.2 212.68,-145.85"/>
</g>
<!-- Node5&#45;&gt;Node6 -->
<g id="edge5" class="edge">
<title>Node5&#45;&gt;Node6</title>
<path fill="none" stroke="midnightblue" d="M219.04,-117.98C206.33,-108.52 185.59,-93.1 170.25,-81.69"/>
<polygon fill="midnightblue" stroke="midnightblue" points="172.06,-78.67 161.95,-75.51 167.88,-84.29 172.06,-78.67"/>
</g>
<!-- Node7 -->
<g id="node7" class="node">
<title>Node7</title>
<g id="a_node7"><a xlink:title=" ">
<polygon fill="none" stroke="#bfbfbf" points="272.51,-56.5 272.51,-75.5 334.51,-75.5 334.51,-56.5 272.51,-56.5"/>
<text text-anchor="middle" x="303.51" y="-63.5" font-family="Helvetica,sans-Serif" font-size="10.00">type_traits</text>
</a>
</g>
</g>
<!-- Node5&#45;&gt;Node7 -->
<g id="edge6" class="edge">
<title>Node5&#45;&gt;Node7</title>
<path fill="none" stroke="midnightblue" d="M240.97,-117.98C252.46,-108.61 271.14,-93.38 285.09,-82.01"/>
<polygon fill="midnightblue" stroke="midnightblue" points="287.53,-84.54 293.07,-75.51 283.1,-79.11 287.53,-84.54"/>
</g>
<!-- Node8 -->
<g id="node8" class="node">
<title>Node8</title>
<g id="a_node8"><a xlink:title=" ">
<polygon fill="none" stroke="#bfbfbf" points="213.01,-56.5 213.01,-75.5 252.01,-75.5 252.01,-56.5 213.01,-56.5"/>
<text text-anchor="middle" x="232.51" y="-63.5" font-family="Helvetica,sans-Serif" font-size="10.00">utility</text>
</a>
</g>
</g>
<!-- Node5&#45;&gt;Node8 -->
<g id="edge7" class="edge">
<title>Node5&#45;&gt;Node8</title>
<path fill="none" stroke="midnightblue" d="M230.79,-117.98C231.08,-109.58 231.52,-96.48 231.88,-85.66"/>
<polygon fill="midnightblue" stroke="midnightblue" points="235.38,-85.62 232.22,-75.51 228.39,-85.39 235.38,-85.62"/>
</g>
<!-- Node9&#45;&gt;Node3 -->
<g id="edge9" class="edge">
<title>Node9&#45;&gt;Node3</title>
<path fill="none" stroke="midnightblue" d="M214.18,-251.73C200.45,-241.11 177.11,-223.05 160.59,-210.26"/>
<polygon fill="midnightblue" stroke="midnightblue" points="162.71,-207.48 152.66,-204.13 158.42,-213.02 162.71,-207.48"/>
</g>
<!-- Node9&#45;&gt;Node10 -->
<g id="edge10" class="edge">
<title>Node9&#45;&gt;Node10</title>
<path fill="none" stroke="midnightblue" d="M236.57,-251.73C248.07,-242.61 266.5,-228 281.69,-215.96"/>
<polygon fill="midnightblue" stroke="midnightblue" points="284.07,-218.54 289.73,-209.59 279.72,-213.06 284.07,-218.54"/>
</g>
<!-- Node10&#45;&gt;Node6 -->
<g id="edge11" class="edge">
<title>Node10&#45;&gt;Node6</title>
<path fill="none" stroke="midnightblue" d="M258.97,-186.49C230.15,-179.9 194.96,-167.23 172.51,-143 158.09,-127.45 153.06,-103.01 151.34,-86.07"/>
<polygon fill="midnightblue" stroke="midnightblue" points="154.81,-85.46 150.6,-75.73 147.82,-85.96 154.81,-85.46"/>
</g>
<!-- Node10&#45;&gt;Node7 -->
<g id="edge12" class="edge">
<title>Node10&#45;&gt;Node7</title>
<path fill="none" stroke="midnightblue" d="M307.06,-179.48C306.34,-156.72 304.92,-111.7 304.11,-86.06"/>
<polygon fill="midnightblue" stroke="midnightblue" points="307.6,-85.67 303.78,-75.79 300.6,-85.89 307.6,-85.67"/>
</g>
<!-- Node11 -->
<g id="node11" class="node">
<title>Node11</title>
<g id="a_node11"><a xlink:href="intrusive__ptr__impl_8hpp.html" target="_top" xlink:title=" ">
<polygon fill="none" stroke="black" points="335.51,-112.5 335.51,-142.5 449.51,-142.5 449.51,-112.5 335.51,-112.5"/>
<text text-anchor="start" x="343.51" y="-130.5" font-family="Helvetica,sans-Serif" font-size="10.00">yaclib/util/detail</text>
<text text-anchor="middle" x="392.51" y="-119.5" font-family="Helvetica,sans-Serif" font-size="10.00">/intrusive_ptr_impl.hpp</text>
</a>
</g>
</g>
<!-- Node10&#45;&gt;Node11 -->
<g id="edge13" class="edge">
<title>Node10&#45;&gt;Node11</title>
<path fill="none" stroke="midnightblue" d="M325.95,-179.4C337.65,-170.45 352.96,-158.74 365.96,-148.8"/>
<polygon fill="midnightblue" stroke="midnightblue" points="368.28,-151.43 374.1,-142.58 364.03,-145.87 368.28,-151.43"/>
</g>
<!-- Node12 -->
<g id="node12" class="node">
<title>Node12</title>
<g id="a_node12"><a xlink:href="log_8hpp.html" target="_top" xlink:title=" ">
<polygon fill="none" stroke="black" points="355.01,-56.5 355.01,-75.5 430.01,-75.5 430.01,-56.5 355.01,-56.5"/>
<text text-anchor="middle" x="392.51" y="-63.5" font-family="Helvetica,sans-Serif" font-size="10.00">yaclib/log.hpp</text>
</a>
</g>
</g>
<!-- Node11&#45;&gt;Node12 -->
<g id="edge14" class="edge">
<title>Node11&#45;&gt;Node12</title>
<path fill="none" stroke="midnightblue" d="M392.51,-112.4C392.51,-104.47 392.51,-94.46 392.51,-85.86"/>
<polygon fill="midnightblue" stroke="midnightblue" points="396.01,-85.66 392.51,-75.66 389.01,-85.66 396.01,-85.66"/>
</g>
<!-- Node13 -->
<g id="node13" class="node">
<title>Node13</title>
<g id="a_node13"><a xlink:title=" ">
<polygon fill="none" stroke="#bfbfbf" points="359.51,-0.5 359.51,-19.5 425.51,-19.5 425.51,-0.5 359.51,-0.5"/>
<text text-anchor="middle" x="392.51" y="-7.5" font-family="Helvetica,sans-Serif" font-size="10.00">string_view</text>
</a>
</g>
</g>
<!-- Node12&#45;&gt;Node13 -->
<g id="edge15" class="edge">
<title>Node12&#45;&gt;Node13</title>
<path fill="none" stroke="midnightblue" d="M392.51,-56.08C392.51,-49.01 392.51,-38.86 392.51,-29.99"/>
<polygon fill="midnightblue" stroke="midnightblue" points="396.01,-29.75 392.51,-19.75 389.01,-29.75 396.01,-29.75"/>
</g>
</g>
</svg>
