<?xml version="1.0" encoding="UTF-8" standalone="no"?>
<!DOCTYPE svg PUBLIC "-//W3C//DTD SVG 1.1//EN"
 "http://www.w3.org/Graphics/SVG/1.1/DTD/svg11.dtd">
<!-- Generated by graphviz version 3.0.0 (20220413.0106)
 -->
<!-- Title: yaclib::detail::BasePromiseType&lt; V, E &gt; Pages: 1 -->
<svg width="1657pt" height="103pt"
 viewBox="0.00 0.00 1657.00 102.50" xmlns="http://www.w3.org/2000/svg" xmlns:xlink="http://www.w3.org/1999/xlink">
<g id="graph0" class="graph" transform="scale(1 1) rotate(0) translate(4 98.5)">
<title>yaclib::detail::BasePromiseType&lt; V, E &gt;</title>
<!-- Node1 -->
<g id="node1" class="node">
<title>Node1</title>
<g id="a_node1"><a xlink:title=" ">
<polygon fill="#bfbfbf" stroke="black" points="1132,-25.5 1132,-55.5 1264,-55.5 1264,-25.5 1132,-25.5"/>
<text text-anchor="start" x="1140" y="-43.5" font-family="Helvetica,sans-Serif" font-size="10.00">yaclib::detail::BasePromise</text>
<text text-anchor="middle" x="1198" y="-32.5" font-family="Helvetica,sans-Serif" font-size="10.00">Type&lt; V, E &gt;</text>
</a>
</g>
</g>
<!-- Node12 -->
<g id="node12" class="node">
<title>Node12</title>
<g id="a_node12"><a xlink:href="classyaclib_1_1detail_1_1PromiseType.html" target="_top" xlink:title=" ">
<polygon fill="none" stroke="black" points="1349.5,-49.5 1349.5,-79.5 1480.5,-79.5 1480.5,-49.5 1349.5,-49.5"/>
<text text-anchor="start" x="1357.5" y="-67.5" font-family="Helvetica,sans-Serif" font-size="10.00">yaclib::detail::PromiseType</text>
<text text-anchor="middle" x="1415" y="-56.5" font-family="Helvetica,sans-Serif" font-size="10.00">&lt; V, E &gt;</text>
</a>
</g>
</g>
<!-- Node1&#45;&gt;Node12 -->
<g id="edge11" class="edge">
<title>Node1&#45;&gt;Node12</title>
<path fill="none" stroke="midnightblue" d="M1274.05,-48.88C1298.52,-51.61 1325.47,-54.62 1349.13,-57.26"/>
<polygon fill="midnightblue" stroke="midnightblue" points="1274.42,-45.4 1264.09,-47.77 1273.64,-52.35 1274.42,-45.4"/>
</g>
<!-- Node13 -->
<g id="node13" class="node">
<title>Node13</title>
<g id="a_node13"><a xlink:href="classyaclib_1_1detail_1_1BasePromiseType.html" target="_top" xlink:title=" ">
<polygon fill="none" stroke="black" points="1349,-0.5 1349,-30.5 1481,-30.5 1481,-0.5 1349,-0.5"/>
<text text-anchor="start" x="1357" y="-18.5" font-family="Helvetica,sans-Serif" font-size="10.00">yaclib::detail::BasePromise</text>
<text text-anchor="middle" x="1415" y="-7.5" font-family="Helvetica,sans-Serif" font-size="10.00">Type&lt; void, E &gt;</text>
</a>
</g>
</g>
<!-- Node1&#45;&gt;Node13 -->
<g id="edge12" class="edge">
<title>Node1&#45;&gt;Node13</title>
<path fill="none" stroke="orange" stroke-dasharray="5,2" d="M1274.33,-31.74C1298.6,-28.92 1325.28,-25.82 1348.76,-23.09"/>
<polygon fill="orange" stroke="orange" points="1273.62,-28.3 1264.09,-32.93 1274.43,-35.25 1273.62,-28.3"/>
<text text-anchor="middle" x="1306.5" y="-33.5" font-family="Helvetica,sans-Serif" font-size="10.00"> &lt; void, E &gt;</text>
</g>
<!-- Node2 -->
<g id="node2" class="node">
<title>Node2</title>
<g id="a_node2"><a xlink:href="structyaclib_1_1detail_1_1AtomicCounter.html" target="_top" xlink:title=" ">
<polygon fill="none" stroke="black" points="925,-20 925,-61 1095,-61 1095,-20 925,-20"/>
<text text-anchor="start" x="933" y="-49" font-family="Helvetica,sans-Serif" font-size="10.00">yaclib::detail::AtomicCounter</text>
<text text-anchor="start" x="933" y="-38" font-family="Helvetica,sans-Serif" font-size="10.00">&lt; ResultCore&lt; V, E &gt;, PromiseType</text>
<text text-anchor="middle" x="1010" y="-27" font-family="Helvetica,sans-Serif" font-size="10.00">Deleter &gt;</text>
</a>
</g>
</g>
<!-- Node2&#45;&gt;Node1 -->
<g id="edge1" class="edge">
<title>Node2&#45;&gt;Node1</title>
<path fill="none" stroke="midnightblue" d="M1105.16,-40.5C1114.15,-40.5 1123.13,-40.5 1131.75,-40.5"/>
<polygon fill="midnightblue" stroke="midnightblue" points="1105.02,-37 1095.02,-40.5 1105.02,-44 1105.02,-37"/>
</g>
<!-- Node3 -->
<g id="node3" class="node">
<title>Node3</title>
<g id="a_node3"><a xlink:href="classyaclib_1_1detail_1_1ResultCore.html" target="_top" xlink:title=" ">
<polygon fill="none" stroke="black" points="649,-50.5 649,-80.5 771,-80.5 771,-50.5 649,-50.5"/>
<text text-anchor="start" x="657" y="-68.5" font-family="Helvetica,sans-Serif" font-size="10.00">yaclib::detail::ResultCore</text>
<text text-anchor="middle" x="710" y="-57.5" font-family="Helvetica,sans-Serif" font-size="10.00">&lt; V, E &gt;</text>
</a>
</g>
</g>
<!-- Node3&#45;&gt;Node2 -->
<g id="edge2" class="edge">
<title>Node3&#45;&gt;Node2</title>
<path fill="none" stroke="midnightblue" d="M781.39,-59.59C824.35,-55.99 879.52,-51.36 924.79,-47.56"/>
<polygon fill="midnightblue" stroke="midnightblue" points="780.98,-56.12 771.3,-60.44 781.56,-63.09 780.98,-56.12"/>
</g>
<!-- Node4 -->
<g id="node4" class="node">
<title>Node4</title>
<g id="a_node4"><a xlink:href="classyaclib_1_1detail_1_1BaseCore.html" target="_top" xlink:title=" ">
<polygon fill="none" stroke="black" points="488,-56 488,-75 604,-75 604,-56 488,-56"/>
<text text-anchor="middle" x="546" y="-63" font-family="Helvetica,sans-Serif" font-size="10.00">yaclib::detail::BaseCore</text>
</a>
</g>
</g>
<!-- Node4&#45;&gt;Node3 -->
<g id="edge3" class="edge">
<title>Node4&#45;&gt;Node3</title>
<path fill="none" stroke="midnightblue" d="M614.46,-65.5C625.86,-65.5 637.63,-65.5 648.83,-65.5"/>
<polygon fill="midnightblue" stroke="midnightblue" points="614.12,-62 604.12,-65.5 614.12,-69 614.12,-62"/>
</g>
<!-- Node5 -->
<g id="node5" class="node">
<title>Node5</title>
<g id="a_node5"><a xlink:href="classyaclib_1_1detail_1_1InlineCore.html" target="_top" xlink:title=" ">
<polygon fill="none" stroke="black" points="334,-56 334,-75 451,-75 451,-56 334,-56"/>
<text text-anchor="middle" x="392.5" y="-63" font-family="Helvetica,sans-Serif" font-size="10.00">yaclib::detail::InlineCore</text>
</a>
</g>
</g>
<!-- Node5&#45;&gt;Node4 -->
<g id="edge4" class="edge">
<title>Node5&#45;&gt;Node4</title>
<path fill="none" stroke="midnightblue" d="M461.49,-65.5C470.33,-65.5 479.32,-65.5 487.95,-65.5"/>
<polygon fill="midnightblue" stroke="midnightblue" points="461.21,-62 451.21,-65.5 461.21,-69 461.21,-62"/>
</g>
<!-- Node6 -->
<g id="node6" class="node">
<title>Node6</title>
<g id="a_node6"><a xlink:href="classyaclib_1_1Job.html" target="_top" xlink:title="Callable that can be executed in an IExecutor.">
<polygon fill="none" stroke="black" points="235,-56 235,-75 297,-75 297,-56 235,-56"/>
<text text-anchor="middle" x="266" y="-63" font-family="Helvetica,sans-Serif" font-size="10.00">yaclib::Job</text>
</a>
</g>
</g>
<!-- Node6&#45;&gt;Node5 -->
<g id="edge5" class="edge">
<title>Node6&#45;&gt;Node5</title>
<path fill="none" stroke="midnightblue" d="M307.17,-65.5C315.69,-65.5 324.84,-65.5 333.87,-65.5"/>
<polygon fill="midnightblue" stroke="midnightblue" points="307.14,-62 297.14,-65.5 307.14,-69 307.14,-62"/>
</g>
<!-- Node7 -->
<g id="node7" class="node">
<title>Node7</title>
<g id="a_node7"><a xlink:href="structyaclib_1_1detail_1_1Node.html" target="_top" xlink:title="Node class, used in intrusive data structure.">
<polygon fill="none" stroke="black" points="101,-75 101,-94 198,-94 198,-75 101,-75"/>
<text text-anchor="middle" x="149.5" y="-82" font-family="Helvetica,sans-Serif" font-size="10.00">yaclib::detail::Node</text>
</a>
</g>
</g>
<!-- Node7&#45;&gt;Node6 -->
<g id="edge6" class="edge">
<title>Node7&#45;&gt;Node6</title>
<path fill="none" stroke="midnightblue" d="M208.04,-74.95C217.27,-73.42 226.5,-71.89 234.75,-70.52"/>
<polygon fill="midnightblue" stroke="midnightblue" points="207.36,-71.52 198.06,-76.61 208.5,-78.42 207.36,-71.52"/>
</g>
<!-- Node8 -->
<g id="node8" class="node">
<title>Node8</title>
<g id="a_node8"><a xlink:href="classyaclib_1_1IFunc.html" target="_top" xlink:title="Callable interface.">
<polygon fill="none" stroke="black" points="114,-37 114,-56 185,-56 185,-37 114,-37"/>
<text text-anchor="middle" x="149.5" y="-44" font-family="Helvetica,sans-Serif" font-size="10.00">yaclib::IFunc</text>
</a>
</g>
</g>
<!-- Node8&#45;&gt;Node6 -->
<g id="edge7" class="edge">
<title>Node8&#45;&gt;Node6</title>
<path fill="none" stroke="midnightblue" d="M195.08,-53.9C208.35,-56.1 222.58,-58.46 234.72,-60.48"/>
<polygon fill="midnightblue" stroke="midnightblue" points="195.6,-50.44 185.16,-52.25 194.46,-57.34 195.6,-50.44"/>
</g>
<!-- Node9 -->
<g id="node9" class="node">
<title>Node9</title>
<g id="a_node9"><a xlink:href="classyaclib_1_1IRef.html" target="_top" xlink:title="Reference counting interface.">
<polygon fill="none" stroke="black" points="0,-37 0,-56 64,-56 64,-37 0,-37"/>
<text text-anchor="middle" x="32" y="-44" font-family="Helvetica,sans-Serif" font-size="10.00">yaclib::IRef</text>
</a>
</g>
</g>
<!-- Node9&#45;&gt;Node8 -->
<g id="edge8" class="edge">
<title>Node9&#45;&gt;Node8</title>
<path fill="none" stroke="midnightblue" d="M74.35,-46.5C87.33,-46.5 101.51,-46.5 113.97,-46.5"/>
<polygon fill="midnightblue" stroke="midnightblue" points="74.26,-43 64.26,-46.5 74.26,-50 74.26,-43"/>
</g>
<!-- Node10 -->
<g id="node10" class="node">
<title>Node10</title>
<g id="a_node10"><a xlink:href="structyaclib_1_1detail_1_1AtomicCounter.html" target="_top" xlink:title=" ">
<polygon fill="none" stroke="black" points="641,-1.5 641,-31.5 779,-31.5 779,-1.5 641,-1.5"/>
<text text-anchor="start" x="649" y="-19.5" font-family="Helvetica,sans-Serif" font-size="10.00">yaclib::detail::AtomicCounter</text>
<text text-anchor="middle" x="710" y="-8.5" font-family="Helvetica,sans-Serif" font-size="10.00">&lt; CounterBase, Deleter &gt;</text>
</a>
</g>
</g>
<!-- Node10&#45;&gt;Node2 -->
<g id="edge9" class="edge">
<title>Node10&#45;&gt;Node2</title>
<path fill="none" stroke="orange" stroke-dasharray="5,2" d="M789.54,-18.97C825.41,-20.5 868.41,-22.87 907,-26.5 912.78,-27.04 918.74,-27.67 924.74,-28.36"/>
<polygon fill="orange" stroke="orange" points="789.27,-15.46 779.13,-18.55 788.98,-22.45 789.27,-15.46"/>
<text text-anchor="start" x="797" y="-40.5" font-family="Helvetica,sans-Serif" font-size="10.00"> &lt; ResultCore&lt; V, E</text>
<text text-anchor="middle" x="852" y="-29.5" font-family="Helvetica,sans-Serif" font-size="10.00"> &gt;, PromiseTypeDeleter &gt;</text>
</g>
<!-- Node11 -->
<g id="node11" class="node">
<title>Node11</title>
<g id="a_node11"><a xlink:href="classCounterBase.html" target="_top" xlink:title=" ">
<polygon fill="none" stroke="black" points="509.5,-7 509.5,-26 582.5,-26 582.5,-7 509.5,-7"/>
<text text-anchor="middle" x="546" y="-14" font-family="Helvetica,sans-Serif" font-size="10.00">CounterBase</text>
</a>
</g>
</g>
<!-- Node11&#45;&gt;Node10 -->
<g id="edge10" class="edge">
<title>Node11&#45;&gt;Node10</title>
<path fill="none" stroke="midnightblue" d="M592.58,-16.5C607.58,-16.5 624.6,-16.5 640.91,-16.5"/>
<polygon fill="midnightblue" stroke="midnightblue" points="592.55,-13 582.55,-16.5 592.55,-20 592.55,-13"/>
</g>
<!-- Node14 -->
<g id="node14" class="node">
<title>Node14</title>
<g id="a_node14"><a xlink:href="classyaclib_1_1detail_1_1PromiseType_3_01void_00_01E_01_4.html" target="_top" xlink:title=" ">
<polygon fill="none" stroke="black" points="1518,-0.5 1518,-30.5 1649,-30.5 1649,-0.5 1518,-0.5"/>
<text text-anchor="start" x="1526" y="-18.5" font-family="Helvetica,sans-Serif" font-size="10.00">yaclib::detail::PromiseType</text>
<text text-anchor="middle" x="1583.5" y="-7.5" font-family="Helvetica,sans-Serif" font-size="10.00">&lt; void, E &gt;</text>
</a>
</g>
</g>
<!-- Node13&#45;&gt;Node14 -->
<g id="edge13" class="edge">
<title>Node13&#45;&gt;Node14</title>
<path fill="none" stroke="midnightblue" d="M1491.57,-15.5C1500.37,-15.5 1509.28,-15.5 1517.91,-15.5"/>
<polygon fill="midnightblue" stroke="midnightblue" points="1491.33,-12 1481.33,-15.5 1491.33,-19 1491.33,-12"/>
</g>
</g>
</svg>
