<?xml version="1.0" encoding="UTF-8" standalone="no"?>
<!DOCTYPE svg PUBLIC "-//W3C//DTD SVG 1.1//EN"
 "http://www.w3.org/Graphics/SVG/1.1/DTD/svg11.dtd">
<!-- Generated by graphviz version 3.0.0 (20220413.0106)
 -->
<!-- Title: yaclib::detail::BaseCore Pages: 1 -->
<svg width="786pt" height="201pt"
 viewBox="0.00 0.00 786.00 200.50" xmlns="http://www.w3.org/2000/svg" xmlns:xlink="http://www.w3.org/1999/xlink">
<g id="graph0" class="graph" transform="scale(1 1) rotate(0) translate(4 196.5)">
<title>yaclib::detail::BaseCore</title>
<!-- Node1 -->
<g id="node1" class="node">
<title>Node1</title>
<g id="a_node1"><a xlink:title=" ">
<polygon fill="#bfbfbf" stroke="black" points="662,-69 662,-88 778,-88 778,-69 662,-69"/>
<text text-anchor="middle" x="720" y="-76" font-family="Helvetica,sans-Serif" font-size="10.00">yaclib::detail::BaseCore</text>
</a>
</g>
</g>
<!-- Node2 -->
<g id="node2" class="node">
<title>Node2</title>
<g id="a_node2"><a xlink:href="classyaclib_1_1detail_1_1InlineCore.html" target="_top" xlink:title=" ">
<polygon fill="none" stroke="black" points="460.5,-126 460.5,-145 577.5,-145 577.5,-126 460.5,-126"/>
<text text-anchor="middle" x="519" y="-133" font-family="Helvetica,sans-Serif" font-size="10.00">yaclib::detail::InlineCore</text>
</a>
</g>
</g>
<!-- Node2&#45;&gt;Node1 -->
<g id="edge1" class="edge">
<title>Node2&#45;&gt;Node1</title>
<path fill="none" stroke="midnightblue" d="M572.08,-123.57C594.36,-118.18 620.58,-111.47 644,-104.5 660.51,-99.58 678.78,-93.27 693.15,-88.1"/>
<polygon fill="midnightblue" stroke="midnightblue" points="571.06,-120.21 562.15,-125.94 572.69,-127.02 571.06,-120.21"/>
</g>
<!-- Node3 -->
<g id="node3" class="node">
<title>Node3</title>
<g id="a_node3"><a xlink:href="classyaclib_1_1Job.html" target="_top" xlink:title="Callable that can be executed in an IExecutor.">
<polygon fill="none" stroke="black" points="263.5,-126 263.5,-145 325.5,-145 325.5,-126 263.5,-126"/>
<text text-anchor="middle" x="294.5" y="-133" font-family="Helvetica,sans-Serif" font-size="10.00">yaclib::Job</text>
</a>
</g>
</g>
<!-- Node3&#45;&gt;Node2 -->
<g id="edge2" class="edge">
<title>Node3&#45;&gt;Node2</title>
<path fill="none" stroke="midnightblue" d="M335.75,-135.5C370.51,-135.5 421.14,-135.5 460.22,-135.5"/>
<polygon fill="midnightblue" stroke="midnightblue" points="335.51,-132 325.51,-135.5 335.51,-139 335.51,-132"/>
</g>
<!-- Node4 -->
<g id="node4" class="node">
<title>Node4</title>
<g id="a_node4"><a xlink:href="structyaclib_1_1detail_1_1Node.html" target="_top" xlink:title="Node class, used in intrusive data structure.">
<polygon fill="none" stroke="black" points="101,-144 101,-163 198,-163 198,-144 101,-144"/>
<text text-anchor="middle" x="149.5" y="-151" font-family="Helvetica,sans-Serif" font-size="10.00">yaclib::detail::Node</text>
</a>
</g>
</g>
<!-- Node4&#45;&gt;Node3 -->
<g id="edge3" class="edge">
<title>Node4&#45;&gt;Node3</title>
<path fill="none" stroke="midnightblue" d="M208.11,-146.25C226.95,-143.88 247.13,-141.34 263.14,-139.32"/>
<polygon fill="midnightblue" stroke="midnightblue" points="207.6,-142.78 198.12,-147.51 208.48,-149.73 207.6,-142.78"/>
</g>
<!-- Node4&#45;&gt;Node4 -->
<g id="edge4" class="edge">
<title>Node4&#45;&gt;Node4</title>
<path fill="none" stroke="#9a32cd" stroke-dasharray="5,2" d="M137.35,-173.27C138.3,-178 142.35,-181.5 149.5,-181.5 161.23,-181.5 164.62,-172.07 159.67,-163.26"/>
<polygon fill="#9a32cd" stroke="#9a32cd" points="140.82,-173.75 139.33,-163.26 133.95,-172.39 140.82,-173.75"/>
<text text-anchor="middle" x="149.5" y="-184.5" font-family="Helvetica,sans-Serif" font-size="10.00"> next</text>
</g>
<!-- Node5 -->
<g id="node5" class="node">
<title>Node5</title>
<g id="a_node5"><a xlink:href="classyaclib_1_1IFunc.html" target="_top" xlink:title="Callable interface.">
<polygon fill="none" stroke="black" points="114,-106 114,-125 185,-125 185,-106 114,-106"/>
<text text-anchor="middle" x="149.5" y="-113" font-family="Helvetica,sans-Serif" font-size="10.00">yaclib::IFunc</text>
</a>
</g>
</g>
<!-- Node5&#45;&gt;Node3 -->
<g id="edge5" class="edge">
<title>Node5&#45;&gt;Node3</title>
<path fill="none" stroke="midnightblue" d="M195.26,-121.76C217.33,-124.85 243.36,-128.49 263.09,-131.25"/>
<polygon fill="midnightblue" stroke="midnightblue" points="195.5,-118.26 185.12,-120.34 194.54,-125.19 195.5,-118.26"/>
</g>
<!-- Node6 -->
<g id="node6" class="node">
<title>Node6</title>
<g id="a_node6"><a xlink:href="classyaclib_1_1IRef.html" target="_top" xlink:title="Reference counting interface.">
<polygon fill="none" stroke="black" points="0,-106 0,-125 64,-125 64,-106 0,-106"/>
<text text-anchor="middle" x="32" y="-113" font-family="Helvetica,sans-Serif" font-size="10.00">yaclib::IRef</text>
</a>
</g>
</g>
<!-- Node6&#45;&gt;Node5 -->
<g id="edge6" class="edge">
<title>Node6&#45;&gt;Node5</title>
<path fill="none" stroke="midnightblue" d="M74.35,-115.5C87.33,-115.5 101.51,-115.5 113.97,-115.5"/>
<polygon fill="midnightblue" stroke="midnightblue" points="74.26,-112 64.26,-115.5 74.26,-119 74.26,-112"/>
</g>
<!-- Node7 -->
<g id="node7" class="node">
<title>Node7</title>
<g id="a_node7"><a xlink:title=" ">
<polygon fill="none" stroke="black" points="476,-88 476,-107 562,-107 562,-88 476,-88"/>
<text text-anchor="middle" x="519" y="-95" font-family="Helvetica,sans-Serif" font-size="10.00">atomic&lt; State &gt;</text>
</a>
</g>
</g>
<!-- Node7&#45;&gt;Node1 -->
<g id="edge7" class="edge">
<title>Node7&#45;&gt;Node1</title>
<path fill="none" stroke="#9a32cd" stroke-dasharray="5,2" d="M572.41,-92.5C599.89,-89.87 633.6,-86.65 661.76,-83.97"/>
<polygon fill="#9a32cd" stroke="#9a32cd" points="571.82,-89.04 562.2,-93.47 572.49,-96 571.82,-89.04"/>
<text text-anchor="middle" x="621.5" y="-92.5" font-family="Helvetica,sans-Serif" font-size="10.00"> _state</text>
</g>
<!-- Node8 -->
<g id="node8" class="node">
<title>Node8</title>
<g id="a_node8"><a xlink:title=" ">
<polygon fill="none" stroke="black" points="457,-50 457,-69 581,-69 581,-50 457,-50"/>
<text text-anchor="middle" x="519" y="-57" font-family="Helvetica,sans-Serif" font-size="10.00">IntrusivePtr&lt; IExecutor &gt;</text>
</a>
</g>
</g>
<!-- Node8&#45;&gt;Node1 -->
<g id="edge8" class="edge">
<title>Node8&#45;&gt;Node1</title>
<path fill="none" stroke="#9a32cd" stroke-dasharray="5,2" d="M591.22,-65.6C608.5,-67.14 626.92,-68.83 644,-70.5 649.73,-71.06 655.71,-71.66 661.68,-72.28"/>
<polygon fill="#9a32cd" stroke="#9a32cd" points="591.47,-62.11 581.2,-64.71 590.85,-69.08 591.47,-62.11"/>
<text text-anchor="middle" x="621.5" y="-73.5" font-family="Helvetica,sans-Serif" font-size="10.00"> _executor</text>
</g>
<!-- Node9 -->
<g id="node9" class="node">
<title>Node9</title>
<g id="a_node9"><a xlink:href="classyaclib_1_1IntrusivePtr.html" target="_top" xlink:title=" ">
<polygon fill="none" stroke="black" points="471,-0.5 471,-30.5 567,-30.5 567,-0.5 471,-0.5"/>
<text text-anchor="start" x="479" y="-18.5" font-family="Helvetica,sans-Serif" font-size="10.00">yaclib::IntrusivePtr</text>
<text text-anchor="middle" x="519" y="-7.5" font-family="Helvetica,sans-Serif" font-size="10.00">&lt; yaclib::IRef &gt;</text>
</a>
</g>
</g>
<!-- Node9&#45;&gt;Node1 -->
<g id="edge9" class="edge">
<title>Node9&#45;&gt;Node1</title>
<path fill="none" stroke="#9a32cd" stroke-dasharray="5,2" d="M576.98,-22.99C598.36,-26.71 622.64,-32.06 644,-39.5 665.76,-47.08 689.04,-60.03 703.79,-68.92"/>
<polygon fill="#9a32cd" stroke="#9a32cd" points="577.5,-19.53 567.06,-21.34 576.35,-26.43 577.5,-19.53"/>
<text text-anchor="middle" x="621.5" y="-53.5" font-family="Helvetica,sans-Serif" font-size="10.00"> _callback</text>
<text text-anchor="middle" x="621.5" y="-42.5" font-family="Helvetica,sans-Serif" font-size="10.00">_caller</text>
</g>
<!-- Node10 -->
<g id="node10" class="node">
<title>Node10</title>
<g id="a_node10"><a xlink:href="classyaclib_1_1IntrusivePtr.html" target="_top" xlink:title="A intrusive pointer to objects with an embedded reference count.">
<polygon fill="none" stroke="black" points="235,-6 235,-25 354,-25 354,-6 235,-6"/>
<text text-anchor="middle" x="294.5" y="-13" font-family="Helvetica,sans-Serif" font-size="10.00">yaclib::IntrusivePtr&lt; T &gt;</text>
</a>
</g>
</g>
<!-- Node10&#45;&gt;Node9 -->
<g id="edge10" class="edge">
<title>Node10&#45;&gt;Node9</title>
<path fill="none" stroke="orange" stroke-dasharray="5,2" d="M364.29,-15.5C398.89,-15.5 439.93,-15.5 470.9,-15.5"/>
<polygon fill="orange" stroke="orange" points="364.25,-12 354.25,-15.5 364.25,-19 364.25,-12"/>
<text text-anchor="middle" x="405.5" y="-18.5" font-family="Helvetica,sans-Serif" font-size="10.00"> &lt; yaclib::IRef &gt;</text>
</g>
</g>
</svg>
