<?xml version="1.0" encoding="UTF-8" standalone="no"?>
<!DOCTYPE svg PUBLIC "-//W3C//DTD SVG 1.1//EN"
 "http://www.w3.org/Graphics/SVG/1.1/DTD/svg11.dtd">
<!-- Generated by graphviz version 3.0.0 (20220413.0106)
 -->
<!-- Title: yaclib::detail::BasePromiseType&lt; V, E &gt; Pages: 1 -->
<svg width="1490pt" height="241pt"
 viewBox="0.00 0.00 1490.00 241.00" xmlns="http://www.w3.org/2000/svg" xmlns:xlink="http://www.w3.org/1999/xlink">
<g id="graph0" class="graph" transform="scale(1 1) rotate(0) translate(4 237)">
<title>yaclib::detail::BasePromiseType&lt; V, E &gt;</title>
<!-- Node1 -->
<g id="node1" class="node">
<title>Node1</title>
<g id="a_node1"><a xlink:title=" ">
<polygon fill="#bfbfbf" stroke="black" points="1350,-37 1350,-67 1482,-67 1482,-37 1350,-37"/>
<text text-anchor="start" x="1358" y="-55" font-family="Helvetica,sans-Serif" font-size="10.00">yaclib::detail::BasePromise</text>
<text text-anchor="middle" x="1416" y="-44" font-family="Helvetica,sans-Serif" font-size="10.00">Type&lt; V, E &gt;</text>
</a>
</g>
</g>
<!-- Node2 -->
<g id="node2" class="node">
<title>Node2</title>
<g id="a_node2"><a xlink:href="structyaclib_1_1detail_1_1AtomicCounter.html" target="_top" xlink:title=" ">
<polygon fill="none" stroke="black" points="1143,-31.5 1143,-72.5 1313,-72.5 1313,-31.5 1143,-31.5"/>
<text text-anchor="start" x="1151" y="-60.5" font-family="Helvetica,sans-Serif" font-size="10.00">yaclib::detail::AtomicCounter</text>
<text text-anchor="start" x="1151" y="-49.5" font-family="Helvetica,sans-Serif" font-size="10.00">&lt; ResultCore&lt; V, E &gt;, PromiseType</text>
<text text-anchor="middle" x="1228" y="-38.5" font-family="Helvetica,sans-Serif" font-size="10.00">Deleter &gt;</text>
</a>
</g>
</g>
<!-- Node2&#45;&gt;Node1 -->
<g id="edge1" class="edge">
<title>Node2&#45;&gt;Node1</title>
<path fill="none" stroke="midnightblue" d="M1323.16,-52C1332.15,-52 1341.13,-52 1349.75,-52"/>
<polygon fill="midnightblue" stroke="midnightblue" points="1323.02,-48.5 1313.02,-52 1323.02,-55.5 1323.02,-48.5"/>
</g>
<!-- Node3 -->
<g id="node3" class="node">
<title>Node3</title>
<g id="a_node3"><a xlink:href="classyaclib_1_1detail_1_1ResultCore.html" target="_top" xlink:title=" ">
<polygon fill="none" stroke="black" points="867,-87 867,-117 989,-117 989,-87 867,-87"/>
<text text-anchor="start" x="875" y="-105" font-family="Helvetica,sans-Serif" font-size="10.00">yaclib::detail::ResultCore</text>
<text text-anchor="middle" x="928" y="-94" font-family="Helvetica,sans-Serif" font-size="10.00">&lt; V, E &gt;</text>
</a>
</g>
</g>
<!-- Node3&#45;&gt;Node2 -->
<g id="edge2" class="edge">
<title>Node3&#45;&gt;Node2</title>
<path fill="none" stroke="midnightblue" d="M999.65,-95.55C1037.09,-91.58 1083.73,-85.75 1125,-78 1133.44,-76.41 1142.22,-74.53 1150.93,-72.52"/>
<polygon fill="midnightblue" stroke="midnightblue" points="998.94,-92.11 989.35,-96.62 999.66,-99.07 998.94,-92.11"/>
</g>
<!-- Node4 -->
<g id="node4" class="node">
<title>Node4</title>
<g id="a_node4"><a xlink:href="classyaclib_1_1detail_1_1BaseCore.html" target="_top" xlink:title=" ">
<polygon fill="none" stroke="black" points="680,-93.5 680,-112.5 796,-112.5 796,-93.5 680,-93.5"/>
<text text-anchor="middle" x="738" y="-100.5" font-family="Helvetica,sans-Serif" font-size="10.00">yaclib::detail::BaseCore</text>
</a>
</g>
</g>
<!-- Node4&#45;&gt;Node3 -->
<g id="edge3" class="edge">
<title>Node4&#45;&gt;Node3</title>
<path fill="none" stroke="midnightblue" d="M806.33,-102.64C826.09,-102.54 847.56,-102.42 866.84,-102.32"/>
<polygon fill="midnightblue" stroke="midnightblue" points="806.15,-99.14 796.17,-102.7 806.19,-106.14 806.15,-99.14"/>
</g>
<!-- Node5 -->
<g id="node5" class="node">
<title>Node5</title>
<g id="a_node5"><a xlink:href="classyaclib_1_1detail_1_1InlineCore.html" target="_top" xlink:title=" ">
<polygon fill="none" stroke="black" points="460.5,-166.5 460.5,-185.5 577.5,-185.5 577.5,-166.5 460.5,-166.5"/>
<text text-anchor="middle" x="519" y="-173.5" font-family="Helvetica,sans-Serif" font-size="10.00">yaclib::detail::InlineCore</text>
</a>
</g>
</g>
<!-- Node5&#45;&gt;Node4 -->
<g id="edge4" class="edge">
<title>Node5&#45;&gt;Node4</title>
<path fill="none" stroke="midnightblue" d="M578.18,-164.16C604.21,-158.12 635.04,-149.94 662,-140 682.71,-132.36 705.26,-120.75 720.18,-112.58"/>
<polygon fill="midnightblue" stroke="midnightblue" points="577.07,-160.82 568.09,-166.45 578.62,-167.65 577.07,-160.82"/>
</g>
<!-- Node6 -->
<g id="node6" class="node">
<title>Node6</title>
<g id="a_node6"><a xlink:href="classyaclib_1_1Job.html" target="_top" xlink:title="Callable that can be executed in an IExecutor.">
<polygon fill="none" stroke="black" points="263.5,-166.5 263.5,-185.5 325.5,-185.5 325.5,-166.5 263.5,-166.5"/>
<text text-anchor="middle" x="294.5" y="-173.5" font-family="Helvetica,sans-Serif" font-size="10.00">yaclib::Job</text>
</a>
</g>
</g>
<!-- Node6&#45;&gt;Node5 -->
<g id="edge5" class="edge">
<title>Node6&#45;&gt;Node5</title>
<path fill="none" stroke="midnightblue" d="M335.75,-176C370.51,-176 421.14,-176 460.22,-176"/>
<polygon fill="midnightblue" stroke="midnightblue" points="335.51,-172.5 325.51,-176 335.51,-179.5 335.51,-172.5"/>
</g>
<!-- Node7 -->
<g id="node7" class="node">
<title>Node7</title>
<g id="a_node7"><a xlink:href="structyaclib_1_1detail_1_1Node.html" target="_top" xlink:title="Node class, used in intrusive data structure.">
<polygon fill="none" stroke="black" points="101,-184.5 101,-203.5 198,-203.5 198,-184.5 101,-184.5"/>
<text text-anchor="middle" x="149.5" y="-191.5" font-family="Helvetica,sans-Serif" font-size="10.00">yaclib::detail::Node</text>
</a>
</g>
</g>
<!-- Node7&#45;&gt;Node6 -->
<g id="edge6" class="edge">
<title>Node7&#45;&gt;Node6</title>
<path fill="none" stroke="midnightblue" d="M208.11,-186.75C226.95,-184.38 247.13,-181.84 263.14,-179.82"/>
<polygon fill="midnightblue" stroke="midnightblue" points="207.6,-183.28 198.12,-188.01 208.48,-190.23 207.6,-183.28"/>
</g>
<!-- Node7&#45;&gt;Node7 -->
<g id="edge7" class="edge">
<title>Node7&#45;&gt;Node7</title>
<path fill="none" stroke="#9a32cd" stroke-dasharray="5,2" d="M137.35,-213.77C138.3,-218.5 142.35,-222 149.5,-222 161.23,-222 164.62,-212.57 159.67,-203.76"/>
<polygon fill="#9a32cd" stroke="#9a32cd" points="140.82,-214.25 139.33,-203.76 133.95,-212.89 140.82,-214.25"/>
<text text-anchor="middle" x="149.5" y="-225" font-family="Helvetica,sans-Serif" font-size="10.00"> next</text>
</g>
<!-- Node8 -->
<g id="node8" class="node">
<title>Node8</title>
<g id="a_node8"><a xlink:href="classyaclib_1_1IFunc.html" target="_top" xlink:title="Callable interface.">
<polygon fill="none" stroke="black" points="114,-146.5 114,-165.5 185,-165.5 185,-146.5 114,-146.5"/>
<text text-anchor="middle" x="149.5" y="-153.5" font-family="Helvetica,sans-Serif" font-size="10.00">yaclib::IFunc</text>
</a>
</g>
</g>
<!-- Node8&#45;&gt;Node6 -->
<g id="edge8" class="edge">
<title>Node8&#45;&gt;Node6</title>
<path fill="none" stroke="midnightblue" d="M195.26,-162.26C217.33,-165.35 243.36,-168.99 263.09,-171.75"/>
<polygon fill="midnightblue" stroke="midnightblue" points="195.5,-158.76 185.12,-160.84 194.54,-165.69 195.5,-158.76"/>
</g>
<!-- Node9 -->
<g id="node9" class="node">
<title>Node9</title>
<g id="a_node9"><a xlink:href="classyaclib_1_1IRef.html" target="_top" xlink:title="Reference counting interface.">
<polygon fill="none" stroke="black" points="0,-146.5 0,-165.5 64,-165.5 64,-146.5 0,-146.5"/>
<text text-anchor="middle" x="32" y="-153.5" font-family="Helvetica,sans-Serif" font-size="10.00">yaclib::IRef</text>
</a>
</g>
</g>
<!-- Node9&#45;&gt;Node8 -->
<g id="edge9" class="edge">
<title>Node9&#45;&gt;Node8</title>
<path fill="none" stroke="midnightblue" d="M74.35,-156C87.33,-156 101.51,-156 113.97,-156"/>
<polygon fill="midnightblue" stroke="midnightblue" points="74.26,-152.5 64.26,-156 74.26,-159.5 74.26,-152.5"/>
</g>
<!-- Node10 -->
<g id="node10" class="node">
<title>Node10</title>
<g id="a_node10"><a xlink:title=" ">
<polygon fill="none" stroke="black" points="476,-128.5 476,-147.5 562,-147.5 562,-128.5 476,-128.5"/>
<text text-anchor="middle" x="519" y="-135.5" font-family="Helvetica,sans-Serif" font-size="10.00">atomic&lt; State &gt;</text>
</a>
</g>
</g>
<!-- Node10&#45;&gt;Node4 -->
<g id="edge10" class="edge">
<title>Node10&#45;&gt;Node4</title>
<path fill="none" stroke="#9a32cd" stroke-dasharray="5,2" d="M572.24,-130.14C599.08,-126.04 632.31,-120.87 662,-116 668.65,-114.91 675.63,-113.74 682.54,-112.56"/>
<polygon fill="#9a32cd" stroke="#9a32cd" points="571.64,-126.69 562.28,-131.65 572.7,-133.61 571.64,-126.69"/>
<text text-anchor="middle" x="630.5" y="-128" font-family="Helvetica,sans-Serif" font-size="10.00"> _state</text>
</g>
<!-- Node11 -->
<g id="node11" class="node">
<title>Node11</title>
<g id="a_node11"><a xlink:title=" ">
<polygon fill="none" stroke="black" points="457,-90.5 457,-109.5 581,-109.5 581,-90.5 457,-90.5"/>
<text text-anchor="middle" x="519" y="-97.5" font-family="Helvetica,sans-Serif" font-size="10.00">IntrusivePtr&lt; IExecutor &gt;</text>
</a>
</g>
</g>
<!-- Node11&#45;&gt;Node4 -->
<g id="edge11" class="edge">
<title>Node11&#45;&gt;Node4</title>
<path fill="none" stroke="#9a32cd" stroke-dasharray="5,2" d="M591.4,-100.99C620.08,-101.38 652.7,-101.83 679.79,-102.21"/>
<polygon fill="#9a32cd" stroke="#9a32cd" points="591.07,-97.48 581.02,-100.84 590.97,-104.48 591.07,-97.48"/>
<text text-anchor="middle" x="630.5" y="-104" font-family="Helvetica,sans-Serif" font-size="10.00"> _executor</text>
</g>
<!-- Node12 -->
<g id="node12" class="node">
<title>Node12</title>
<g id="a_node12"><a xlink:href="classyaclib_1_1IntrusivePtr.html" target="_top" xlink:title=" ">
<polygon fill="none" stroke="black" points="471,-41 471,-71 567,-71 567,-41 471,-41"/>
<text text-anchor="start" x="479" y="-59" font-family="Helvetica,sans-Serif" font-size="10.00">yaclib::IntrusivePtr</text>
<text text-anchor="middle" x="519" y="-48" font-family="Helvetica,sans-Serif" font-size="10.00">&lt; yaclib::IRef &gt;</text>
</a>
</g>
</g>
<!-- Node12&#45;&gt;Node4 -->
<g id="edge12" class="edge">
<title>Node12&#45;&gt;Node4</title>
<path fill="none" stroke="#9a32cd" stroke-dasharray="5,2" d="M577.36,-59.34C603.6,-61.96 634.82,-66.64 662,-75 670.55,-77.63 671.74,-80.58 680,-84 688.19,-87.39 697.23,-90.63 705.64,-93.43"/>
<polygon fill="#9a32cd" stroke="#9a32cd" points="577.48,-55.83 567.2,-58.4 576.84,-62.8 577.48,-55.83"/>
<text text-anchor="middle" x="630.5" y="-89" font-family="Helvetica,sans-Serif" font-size="10.00"> _callback</text>
<text text-anchor="middle" x="630.5" y="-78" font-family="Helvetica,sans-Serif" font-size="10.00">_caller</text>
</g>
<!-- Node13 -->
<g id="node13" class="node">
<title>Node13</title>
<g id="a_node13"><a xlink:href="classyaclib_1_1IntrusivePtr.html" target="_top" xlink:title="A intrusive pointer to objects with an embedded reference count.">
<polygon fill="none" stroke="black" points="235,-46.5 235,-65.5 354,-65.5 354,-46.5 235,-46.5"/>
<text text-anchor="middle" x="294.5" y="-53.5" font-family="Helvetica,sans-Serif" font-size="10.00">yaclib::IntrusivePtr&lt; T &gt;</text>
</a>
</g>
</g>
<!-- Node13&#45;&gt;Node12 -->
<g id="edge13" class="edge">
<title>Node13&#45;&gt;Node12</title>
<path fill="none" stroke="orange" stroke-dasharray="5,2" d="M364.29,-56C398.89,-56 439.93,-56 470.9,-56"/>
<polygon fill="orange" stroke="orange" points="364.25,-52.5 354.25,-56 364.25,-59.5 364.25,-52.5"/>
<text text-anchor="middle" x="405.5" y="-59" font-family="Helvetica,sans-Serif" font-size="10.00"> &lt; yaclib::IRef &gt;</text>
</g>
<!-- Node14 -->
<g id="node14" class="node">
<title>Node14</title>
<g id="a_node14"><a xlink:title=" ">
<polygon fill="none" stroke="black" points="685,-0.5 685,-19.5 791,-19.5 791,-0.5 685,-0.5"/>
<text text-anchor="middle" x="738" y="-7.5" font-family="Helvetica,sans-Serif" font-size="10.00">atomic&lt; std::size_t &gt;</text>
</a>
</g>
</g>
<!-- Node14&#45;&gt;Node2 -->
<g id="edge14" class="edge">
<title>Node14&#45;&gt;Node2</title>
<path fill="none" stroke="#9a32cd" stroke-dasharray="5,2" d="M801.13,-9.15C853.47,-8.99 930.27,-10.03 997,-16 1045.61,-20.35 1099.53,-28.61 1142.94,-36.12"/>
<polygon fill="#9a32cd" stroke="#9a32cd" points="800.98,-5.65 791,-9.2 801.02,-12.65 800.98,-5.65"/>
<text text-anchor="middle" x="928" y="-19" font-family="Helvetica,sans-Serif" font-size="10.00"> count</text>
</g>
<!-- Node16 -->
<g id="node16" class="node">
<title>Node16</title>
<g id="a_node16"><a xlink:href="structyaclib_1_1detail_1_1AtomicCounter.html" target="_top" xlink:title=" ">
<polygon fill="none" stroke="black" points="859,-37 859,-67 997,-67 997,-37 859,-37"/>
<text text-anchor="start" x="867" y="-55" font-family="Helvetica,sans-Serif" font-size="10.00">yaclib::detail::AtomicCounter</text>
<text text-anchor="middle" x="928" y="-44" font-family="Helvetica,sans-Serif" font-size="10.00">&lt; CounterBase, Deleter &gt;</text>
</a>
</g>
</g>
<!-- Node14&#45;&gt;Node16 -->
<g id="edge18" class="edge">
<title>Node14&#45;&gt;Node16</title>
<path fill="none" stroke="#9a32cd" stroke-dasharray="5,2" d="M791.44,-21.71C812.62,-26.45 837.33,-31.97 859.8,-36.99"/>
<polygon fill="#9a32cd" stroke="#9a32cd" points="792.18,-18.3 781.66,-19.53 790.66,-25.13 792.18,-18.3"/>
<text text-anchor="middle" x="827.5" y="-36" font-family="Helvetica,sans-Serif" font-size="10.00"> count</text>
</g>
<!-- Node15 -->
<g id="node15" class="node">
<title>Node15</title>
<g id="a_node15"><a xlink:title=" ">
<polygon fill="none" stroke="black" points="496,-0.5 496,-19.5 542,-19.5 542,-0.5 496,-0.5"/>
<text text-anchor="middle" x="519" y="-7.5" font-family="Helvetica,sans-Serif" font-size="10.00">atomic</text>
</a>
</g>
</g>
<!-- Node15&#45;&gt;Node14 -->
<g id="edge15" class="edge">
<title>Node15&#45;&gt;Node14</title>
<path fill="none" stroke="orange" stroke-dasharray="5,2" d="M552.1,-10C586.99,-10 643.29,-10 684.6,-10"/>
<polygon fill="orange" stroke="orange" points="552,-6.5 542,-10 552,-13.5 552,-6.5"/>
<text text-anchor="middle" x="630.5" y="-13" font-family="Helvetica,sans-Serif" font-size="10.00"> &lt; std::size_t &gt;</text>
</g>
<!-- Node16&#45;&gt;Node2 -->
<g id="edge16" class="edge">
<title>Node16&#45;&gt;Node2</title>
<path fill="none" stroke="orange" stroke-dasharray="5,2" d="M1007.48,-52C1049.19,-52 1100.48,-52 1142.99,-52"/>
<polygon fill="orange" stroke="orange" points="1007.37,-48.5 997.37,-52 1007.37,-55.5 1007.37,-48.5"/>
<text text-anchor="start" x="1015" y="-66" font-family="Helvetica,sans-Serif" font-size="10.00"> &lt; ResultCore&lt; V, E</text>
<text text-anchor="middle" x="1070" y="-55" font-family="Helvetica,sans-Serif" font-size="10.00"> &gt;, PromiseTypeDeleter &gt;</text>
</g>
<!-- Node17 -->
<g id="node17" class="node">
<title>Node17</title>
<g id="a_node17"><a xlink:href="classCounterBase.html" target="_top" xlink:title=" ">
<polygon fill="none" stroke="black" points="701.5,-55.5 701.5,-74.5 774.5,-74.5 774.5,-55.5 701.5,-55.5"/>
<text text-anchor="middle" x="738" y="-62.5" font-family="Helvetica,sans-Serif" font-size="10.00">CounterBase</text>
</a>
</g>
</g>
<!-- Node17&#45;&gt;Node16 -->
<g id="edge17" class="edge">
<title>Node17&#45;&gt;Node16</title>
<path fill="none" stroke="midnightblue" d="M784.98,-61.82C807.23,-60.28 834.39,-58.4 858.98,-56.7"/>
<polygon fill="midnightblue" stroke="midnightblue" points="784.54,-58.34 774.8,-62.52 785.02,-65.33 784.54,-58.34"/>
</g>
</g>
</svg>
