<?xml version="1.0" encoding="UTF-8" standalone="no"?>
<!DOCTYPE svg PUBLIC "-//W3C//DTD SVG 1.1//EN"
 "http://www.w3.org/Graphics/SVG/1.1/DTD/svg11.dtd">
<!-- Generated by graphviz version 3.0.0 (20220413.0106)
 -->
<!-- Title: yaclib::IFunc Pages: 1 -->
<svg width="1651pt" height="181pt"
 viewBox="0.00 0.00 1651.00 181.00" xmlns="http://www.w3.org/2000/svg" xmlns:xlink="http://www.w3.org/1999/xlink">
<g id="graph0" class="graph" transform="scale(1 1) rotate(0) translate(4 177)">
<title>yaclib::IFunc</title>
<!-- Node1 -->
<g id="node1" class="node">
<title>Node1</title>
<g id="a_node1"><a xlink:title="Callable interface.">
<polygon fill="#bfbfbf" stroke="black" points="101,-40 101,-59 172,-59 172,-40 101,-40"/>
<text text-anchor="middle" x="136.5" y="-47" font-family="Helvetica,sans-Serif" font-size="10.00">yaclib::IFunc</text>
</a>
</g>
</g>
<!-- Node3 -->
<g id="node3" class="node">
<title>Node3</title>
<g id="a_node3"><a xlink:href="classyaclib_1_1Job.html" target="_top" xlink:title="Callable that can be executed in an IExecutor.">
<polygon fill="none" stroke="black" points="241,-72 241,-91 303,-91 303,-72 241,-72"/>
<text text-anchor="middle" x="272" y="-79" font-family="Helvetica,sans-Serif" font-size="10.00">yaclib::Job</text>
</a>
</g>
</g>
<!-- Node1&#45;&gt;Node3 -->
<g id="edge2" class="edge">
<title>Node1&#45;&gt;Node3</title>
<path fill="none" stroke="midnightblue" d="M182.06,-60.18C201.43,-64.82 223.61,-70.14 240.98,-74.3"/>
<polygon fill="midnightblue" stroke="midnightblue" points="182.77,-56.75 172.23,-57.82 181.14,-63.56 182.77,-56.75"/>
</g>
<!-- Node18 -->
<g id="node18" class="node">
<title>Node18</title>
<g id="a_node18"><a xlink:href="classyaclib_1_1detail_1_1SharedFunc.html" target="_top" xlink:title=" ">
<polygon fill="none" stroke="black" points="209,-22.5 209,-52.5 335,-52.5 335,-22.5 209,-22.5"/>
<text text-anchor="start" x="217" y="-40.5" font-family="Helvetica,sans-Serif" font-size="10.00">yaclib::detail::SharedFunc</text>
<text text-anchor="middle" x="272" y="-29.5" font-family="Helvetica,sans-Serif" font-size="10.00">&lt; Func &gt;</text>
</a>
</g>
</g>
<!-- Node1&#45;&gt;Node18 -->
<g id="edge19" class="edge">
<title>Node1&#45;&gt;Node18</title>
<path fill="none" stroke="midnightblue" d="M182.29,-45.47C190.8,-44.71 199.84,-43.9 208.77,-43.09"/>
<polygon fill="midnightblue" stroke="midnightblue" points="181.87,-42 172.23,-46.38 182.5,-48.97 181.87,-42"/>
</g>
<!-- Node2 -->
<g id="node2" class="node">
<title>Node2</title>
<g id="a_node2"><a xlink:href="classyaclib_1_1IRef.html" target="_top" xlink:title="Reference counting interface.">
<polygon fill="none" stroke="black" points="0,-40 0,-59 64,-59 64,-40 0,-40"/>
<text text-anchor="middle" x="32" y="-47" font-family="Helvetica,sans-Serif" font-size="10.00">yaclib::IRef</text>
</a>
</g>
</g>
<!-- Node2&#45;&gt;Node1 -->
<g id="edge1" class="edge">
<title>Node2&#45;&gt;Node1</title>
<path fill="none" stroke="midnightblue" d="M74.2,-49.5C83.09,-49.5 92.39,-49.5 100.99,-49.5"/>
<polygon fill="midnightblue" stroke="midnightblue" points="74.03,-46 64.03,-49.5 74.03,-53 74.03,-46"/>
</g>
<!-- Node4 -->
<g id="node4" class="node">
<title>Node4</title>
<g id="a_node4"><a xlink:href="classyaclib_1_1detail_1_1InlineCore.html" target="_top" xlink:title=" ">
<polygon fill="none" stroke="black" points="373.5,-99 373.5,-118 490.5,-118 490.5,-99 373.5,-99"/>
<text text-anchor="middle" x="432" y="-106" font-family="Helvetica,sans-Serif" font-size="10.00">yaclib::detail::InlineCore</text>
</a>
</g>
</g>
<!-- Node3&#45;&gt;Node4 -->
<g id="edge3" class="edge">
<title>Node3&#45;&gt;Node4</title>
<path fill="none" stroke="midnightblue" d="M313.1,-88.35C331.91,-91.57 354.65,-95.45 375.12,-98.95"/>
<polygon fill="midnightblue" stroke="midnightblue" points="313.54,-84.88 303.09,-86.64 312.36,-91.78 313.54,-84.88"/>
</g>
<!-- Node17 -->
<g id="node17" class="node">
<title>Node17</title>
<g id="a_node17"><a xlink:href="classyaclib_1_1detail_1_1UniqueJob.html" target="_top" xlink:title=" ">
<polygon fill="none" stroke="black" points="372,-49.5 372,-79.5 492,-79.5 492,-49.5 372,-49.5"/>
<text text-anchor="start" x="380" y="-67.5" font-family="Helvetica,sans-Serif" font-size="10.00">yaclib::detail::UniqueJob</text>
<text text-anchor="middle" x="432" y="-56.5" font-family="Helvetica,sans-Serif" font-size="10.00">&lt; Func &gt;</text>
</a>
</g>
</g>
<!-- Node3&#45;&gt;Node17 -->
<g id="edge18" class="edge">
<title>Node3&#45;&gt;Node17</title>
<path fill="none" stroke="midnightblue" d="M313.14,-77.18C330.96,-75.26 352.3,-72.97 371.89,-70.86"/>
<polygon fill="midnightblue" stroke="midnightblue" points="312.66,-73.71 303.09,-78.26 313.41,-80.67 312.66,-73.71"/>
</g>
<!-- Node5 -->
<g id="node5" class="node">
<title>Node5</title>
<g id="a_node5"><a xlink:href="classyaclib_1_1detail_1_1AllCombinator.html" target="_top" xlink:title=" ">
<polygon fill="none" stroke="black" points="532,-142.5 532,-172.5 666,-172.5 666,-142.5 532,-142.5"/>
<text text-anchor="start" x="540" y="-160.5" font-family="Helvetica,sans-Serif" font-size="10.00">yaclib::detail::AllCombinator</text>
<text text-anchor="middle" x="599" y="-149.5" font-family="Helvetica,sans-Serif" font-size="10.00">&lt; V, E, N, FutureValue &gt;</text>
</a>
</g>
</g>
<!-- Node4&#45;&gt;Node5 -->
<g id="edge4" class="edge">
<title>Node4&#45;&gt;Node5</title>
<path fill="none" stroke="midnightblue" d="M474.94,-120.95C496.98,-127.5 524.16,-135.57 547.37,-142.46"/>
<polygon fill="midnightblue" stroke="midnightblue" points="475.79,-117.56 465.21,-118.06 473.8,-124.27 475.79,-117.56"/>
</g>
<!-- Node6 -->
<g id="node6" class="node">
<title>Node6</title>
<g id="a_node6"><a xlink:href="classyaclib_1_1detail_1_1AnyCombinator.html" target="_top" xlink:title=" ">
<polygon fill="none" stroke="black" points="529,-93.5 529,-123.5 669,-123.5 669,-93.5 529,-93.5"/>
<text text-anchor="start" x="537" y="-111.5" font-family="Helvetica,sans-Serif" font-size="10.00">yaclib::detail::AnyCombinator</text>
<text text-anchor="middle" x="599" y="-100.5" font-family="Helvetica,sans-Serif" font-size="10.00">&lt; V, E, P &gt;</text>
</a>
</g>
</g>
<!-- Node4&#45;&gt;Node6 -->
<g id="edge5" class="edge">
<title>Node4&#45;&gt;Node6</title>
<path fill="none" stroke="midnightblue" d="M501.01,-108.5C510.24,-108.5 519.73,-108.5 528.98,-108.5"/>
<polygon fill="midnightblue" stroke="midnightblue" points="500.71,-105 490.71,-108.5 500.71,-112 500.71,-105"/>
</g>
<!-- Node7 -->
<g id="node7" class="node">
<title>Node7</title>
<g id="a_node7"><a xlink:href="classyaclib_1_1detail_1_1BaseCore.html" target="_top" xlink:title=" ">
<polygon fill="none" stroke="black" points="541,-55 541,-74 657,-74 657,-55 541,-55"/>
<text text-anchor="middle" x="599" y="-62" font-family="Helvetica,sans-Serif" font-size="10.00">yaclib::detail::BaseCore</text>
</a>
</g>
</g>
<!-- Node4&#45;&gt;Node7 -->
<g id="edge6" class="edge">
<title>Node4&#45;&gt;Node7</title>
<path fill="none" stroke="midnightblue" d="M478.58,-96.35C504.98,-89.3 537.74,-80.57 562.27,-74.03"/>
<polygon fill="midnightblue" stroke="midnightblue" points="477.56,-92.99 468.8,-98.95 479.37,-99.76 477.56,-92.99"/>
</g>
<!-- Node8 -->
<g id="node8" class="node">
<title>Node8</title>
<g id="a_node8"><a xlink:href="classyaclib_1_1detail_1_1ResultCore.html" target="_top" xlink:title=" ">
<polygon fill="none" stroke="black" points="937,-90.5 937,-120.5 1059,-120.5 1059,-90.5 937,-90.5"/>
<text text-anchor="start" x="945" y="-108.5" font-family="Helvetica,sans-Serif" font-size="10.00">yaclib::detail::ResultCore</text>
<text text-anchor="middle" x="998" y="-97.5" font-family="Helvetica,sans-Serif" font-size="10.00">&lt; void, E &gt;</text>
</a>
</g>
</g>
<!-- Node7&#45;&gt;Node8 -->
<g id="edge7" class="edge">
<title>Node7&#45;&gt;Node8</title>
<path fill="none" stroke="midnightblue" d="M643.48,-76.59C662.52,-81.4 685.22,-86.5 706,-89.5 785.25,-100.93 877.72,-104.34 936.78,-105.28"/>
<polygon fill="midnightblue" stroke="midnightblue" points="644.16,-73.15 633.6,-74.03 642.41,-79.92 644.16,-73.15"/>
</g>
<!-- Node12 -->
<g id="node12" class="node">
<title>Node12</title>
<g id="a_node12"><a xlink:href="classyaclib_1_1detail_1_1ResultCore.html" target="_top" xlink:title=" ">
<polygon fill="none" stroke="black" points="706,-49.5 706,-79.5 828,-79.5 828,-49.5 706,-49.5"/>
<text text-anchor="start" x="714" y="-67.5" font-family="Helvetica,sans-Serif" font-size="10.00">yaclib::detail::ResultCore</text>
<text text-anchor="middle" x="767" y="-56.5" font-family="Helvetica,sans-Serif" font-size="10.00">&lt; V, E &gt;</text>
</a>
</g>
</g>
<!-- Node7&#45;&gt;Node12 -->
<g id="edge11" class="edge">
<title>Node7&#45;&gt;Node12</title>
<path fill="none" stroke="midnightblue" d="M667.26,-64.5C680.06,-64.5 693.38,-64.5 705.94,-64.5"/>
<polygon fill="midnightblue" stroke="midnightblue" points="667.13,-61 657.13,-64.5 667.13,-68 667.13,-61"/>
</g>
<!-- Node16 -->
<g id="node16" class="node">
<title>Node16</title>
<g id="a_node16"><a xlink:href="classyaclib_1_1detail_1_1ResultCore_3_01void_00_01void_01_4.html" target="_top" xlink:title=" ">
<polygon fill="none" stroke="black" points="706,-0.5 706,-30.5 828,-30.5 828,-0.5 706,-0.5"/>
<text text-anchor="start" x="714" y="-18.5" font-family="Helvetica,sans-Serif" font-size="10.00">yaclib::detail::ResultCore</text>
<text text-anchor="middle" x="767" y="-7.5" font-family="Helvetica,sans-Serif" font-size="10.00">&lt; void, void &gt;</text>
</a>
</g>
</g>
<!-- Node7&#45;&gt;Node16 -->
<g id="edge17" class="edge">
<title>Node7&#45;&gt;Node16</title>
<path fill="none" stroke="midnightblue" d="M642.19,-52.05C664.36,-45.5 691.71,-37.43 715.06,-30.54"/>
<polygon fill="midnightblue" stroke="midnightblue" points="641,-48.75 632.4,-54.94 642.98,-55.46 641,-48.75"/>
</g>
<!-- Node9 -->
<g id="node9" class="node">
<title>Node9</title>
<g id="a_node9"><a xlink:href="structyaclib_1_1detail_1_1AtomicCounter.html" target="_top" xlink:title=" ">
<polygon fill="none" stroke="black" points="1120,-85 1120,-126 1258,-126 1258,-85 1120,-85"/>
<text text-anchor="start" x="1128" y="-114" font-family="Helvetica,sans-Serif" font-size="10.00">yaclib::detail::AtomicCounter</text>
<text text-anchor="start" x="1128" y="-103" font-family="Helvetica,sans-Serif" font-size="10.00">&lt; ResultCore&lt; void, E &gt;,</text>
<text text-anchor="middle" x="1189" y="-92" font-family="Helvetica,sans-Serif" font-size="10.00"> PromiseTypeDeleter &gt;</text>
</a>
</g>
</g>
<!-- Node8&#45;&gt;Node9 -->
<g id="edge8" class="edge">
<title>Node8&#45;&gt;Node9</title>
<path fill="none" stroke="midnightblue" d="M1069.21,-105.5C1085.78,-105.5 1103.41,-105.5 1119.87,-105.5"/>
<polygon fill="midnightblue" stroke="midnightblue" points="1069.06,-102 1059.06,-105.5 1069.06,-109 1069.06,-102"/>
</g>
<!-- Node10 -->
<g id="node10" class="node">
<title>Node10</title>
<g id="a_node10"><a xlink:href="classyaclib_1_1detail_1_1BasePromiseType.html" target="_top" xlink:title=" ">
<polygon fill="none" stroke="black" points="1343,-85.5 1343,-115.5 1475,-115.5 1475,-85.5 1343,-85.5"/>
<text text-anchor="start" x="1351" y="-103.5" font-family="Helvetica,sans-Serif" font-size="10.00">yaclib::detail::BasePromise</text>
<text text-anchor="middle" x="1409" y="-92.5" font-family="Helvetica,sans-Serif" font-size="10.00">Type&lt; void, E &gt;</text>
</a>
</g>
</g>
<!-- Node9&#45;&gt;Node10 -->
<g id="edge9" class="edge">
<title>Node9&#45;&gt;Node10</title>
<path fill="none" stroke="midnightblue" d="M1268.37,-103.7C1292.72,-103.14 1319.3,-102.53 1342.67,-102"/>
<polygon fill="midnightblue" stroke="midnightblue" points="1268,-100.21 1258.08,-103.94 1268.16,-107.21 1268,-100.21"/>
</g>
<!-- Node11 -->
<g id="node11" class="node">
<title>Node11</title>
<g id="a_node11"><a xlink:href="classyaclib_1_1detail_1_1PromiseType_3_01void_00_01E_01_4.html" target="_top" xlink:title=" ">
<polygon fill="none" stroke="black" points="1512,-85.5 1512,-115.5 1643,-115.5 1643,-85.5 1512,-85.5"/>
<text text-anchor="start" x="1520" y="-103.5" font-family="Helvetica,sans-Serif" font-size="10.00">yaclib::detail::PromiseType</text>
<text text-anchor="middle" x="1577.5" y="-92.5" font-family="Helvetica,sans-Serif" font-size="10.00">&lt; void, E &gt;</text>
</a>
</g>
</g>
<!-- Node10&#45;&gt;Node11 -->
<g id="edge10" class="edge">
<title>Node10&#45;&gt;Node11</title>
<path fill="none" stroke="midnightblue" d="M1485.57,-100.5C1494.37,-100.5 1503.28,-100.5 1511.91,-100.5"/>
<polygon fill="midnightblue" stroke="midnightblue" points="1485.33,-97 1475.33,-100.5 1485.33,-104 1485.33,-97"/>
</g>
<!-- Node12&#45;&gt;Node8 -->
<g id="edge16" class="edge">
<title>Node12&#45;&gt;Node8</title>
<path fill="none" stroke="orange" stroke-dasharray="5,2" d="M838.31,-74.2C856.79,-76.97 876.68,-80.16 895,-83.5 908.63,-85.99 923.23,-88.95 936.99,-91.89"/>
<polygon fill="orange" stroke="orange" points="838.62,-70.71 828.21,-72.7 837.59,-77.63 838.62,-70.71"/>
<text text-anchor="middle" x="870.5" y="-86.5" font-family="Helvetica,sans-Serif" font-size="10.00"> &lt; void, E &gt;</text>
</g>
<!-- Node13 -->
<g id="node13" class="node">
<title>Node13</title>
<g id="a_node13"><a xlink:href="structyaclib_1_1detail_1_1AtomicCounter.html" target="_top" xlink:title=" ">
<polygon fill="none" stroke="black" points="913,-29 913,-70 1083,-70 1083,-29 913,-29"/>
<text text-anchor="start" x="921" y="-58" font-family="Helvetica,sans-Serif" font-size="10.00">yaclib::detail::AtomicCounter</text>
<text text-anchor="start" x="921" y="-47" font-family="Helvetica,sans-Serif" font-size="10.00">&lt; ResultCore&lt; V, E &gt;, PromiseType</text>
<text text-anchor="middle" x="998" y="-36" font-family="Helvetica,sans-Serif" font-size="10.00">Deleter &gt;</text>
</a>
</g>
</g>
<!-- Node12&#45;&gt;Node13 -->
<g id="edge12" class="edge">
<title>Node12&#45;&gt;Node13</title>
<path fill="none" stroke="midnightblue" d="M838.38,-59.89C861.87,-58.35 888.27,-56.62 912.7,-55.02"/>
<polygon fill="midnightblue" stroke="midnightblue" points="837.92,-56.41 828.17,-60.56 838.37,-63.4 837.92,-56.41"/>
</g>
<!-- Node14 -->
<g id="node14" class="node">
<title>Node14</title>
<g id="a_node14"><a xlink:href="classyaclib_1_1detail_1_1BasePromiseType.html" target="_top" xlink:title=" ">
<polygon fill="none" stroke="black" points="1123,-34.5 1123,-64.5 1255,-64.5 1255,-34.5 1123,-34.5"/>
<text text-anchor="start" x="1131" y="-52.5" font-family="Helvetica,sans-Serif" font-size="10.00">yaclib::detail::BasePromise</text>
<text text-anchor="middle" x="1189" y="-41.5" font-family="Helvetica,sans-Serif" font-size="10.00">Type&lt; V, E &gt;</text>
</a>
</g>
</g>
<!-- Node13&#45;&gt;Node14 -->
<g id="edge13" class="edge">
<title>Node13&#45;&gt;Node14</title>
<path fill="none" stroke="midnightblue" d="M1093.28,-49.5C1103.29,-49.5 1113.32,-49.5 1122.89,-49.5"/>
<polygon fill="midnightblue" stroke="midnightblue" points="1093.27,-46 1083.27,-49.5 1093.27,-53 1093.27,-46"/>
</g>
<!-- Node14&#45;&gt;Node10 -->
<g id="edge15" class="edge">
<title>Node14&#45;&gt;Node10</title>
<path fill="none" stroke="orange" stroke-dasharray="5,2" d="M1264,-66.81C1289.93,-72.88 1318.81,-79.63 1343.85,-85.49"/>
<polygon fill="orange" stroke="orange" points="1264.76,-63.4 1254.23,-64.53 1263.17,-70.21 1264.76,-63.4"/>
<text text-anchor="middle" x="1300.5" y="-83.5" font-family="Helvetica,sans-Serif" font-size="10.00"> &lt; void, E &gt;</text>
</g>
<!-- Node15 -->
<g id="node15" class="node">
<title>Node15</title>
<g id="a_node15"><a xlink:href="classyaclib_1_1detail_1_1PromiseType.html" target="_top" xlink:title=" ">
<polygon fill="none" stroke="black" points="1343.5,-31.5 1343.5,-61.5 1474.5,-61.5 1474.5,-31.5 1343.5,-31.5"/>
<text text-anchor="start" x="1351.5" y="-49.5" font-family="Helvetica,sans-Serif" font-size="10.00">yaclib::detail::PromiseType</text>
<text text-anchor="middle" x="1409" y="-38.5" font-family="Helvetica,sans-Serif" font-size="10.00">&lt; V, E &gt;</text>
</a>
</g>
</g>
<!-- Node14&#45;&gt;Node15 -->
<g id="edge14" class="edge">
<title>Node14&#45;&gt;Node15</title>
<path fill="none" stroke="midnightblue" d="M1265.42,-48.46C1290.75,-48.11 1318.78,-47.73 1343.22,-47.39"/>
<polygon fill="midnightblue" stroke="midnightblue" points="1265.06,-44.97 1255.11,-48.6 1265.16,-51.97 1265.06,-44.97"/>
</g>
</g>
</svg>
