<?xml version="1.0" encoding="UTF-8" standalone="no"?>
<!DOCTYPE svg PUBLIC "-//W3C//DTD SVG 1.1//EN"
 "http://www.w3.org/Graphics/SVG/1.1/DTD/svg11.dtd">
<!-- Generated by graphviz version 3.0.0 (20220413.0106)
 -->
<!-- Title: yaclib::detail::ResultCore&lt; void, void &gt; Pages: 1 -->
<svg width="194pt" height="319pt"
 viewBox="0.00 0.00 194.00 319.00" xmlns="http://www.w3.org/2000/svg" xmlns:xlink="http://www.w3.org/1999/xlink">
<g id="graph0" class="graph" transform="scale(1 1) rotate(0) translate(4 315)">
<title>yaclib::detail::ResultCore&lt; void, void &gt;</title>
<!-- Node1 -->
<g id="node1" class="node">
<title>Node1</title>
<g id="a_node1"><a xlink:title=" ">
<polygon fill="#bfbfbf" stroke="black" points="38.5,-0.5 38.5,-30.5 160.5,-30.5 160.5,-0.5 38.5,-0.5"/>
<text text-anchor="start" x="46.5" y="-18.5" font-family="Helvetica,sans-Serif" font-size="10.00">yaclib::detail::ResultCore</text>
<text text-anchor="middle" x="99.5" y="-7.5" font-family="Helvetica,sans-Serif" font-size="10.00">&lt; void, void &gt;</text>
</a>
</g>
</g>
<!-- Node2 -->
<g id="node2" class="node">
<title>Node2</title>
<g id="a_node2"><a xlink:href="classyaclib_1_1detail_1_1BaseCore.html" target="_top" xlink:title=" ">
<polygon fill="none" stroke="black" points="41.5,-67.5 41.5,-86.5 157.5,-86.5 157.5,-67.5 41.5,-67.5"/>
<text text-anchor="middle" x="99.5" y="-74.5" font-family="Helvetica,sans-Serif" font-size="10.00">yaclib::detail::BaseCore</text>
</a>
</g>
</g>
<!-- Node2&#45;&gt;Node1 -->
<g id="edge1" class="edge">
<title>Node2&#45;&gt;Node1</title>
<path fill="none" stroke="midnightblue" d="M99.5,-57.23C99.5,-48.59 99.5,-38.5 99.5,-30.52"/>
<polygon fill="midnightblue" stroke="midnightblue" points="96,-57.48 99.5,-67.48 103,-57.48 96,-57.48"/>
</g>
<!-- Node3 -->
<g id="node3" class="node">
<title>Node3</title>
<g id="a_node3"><a xlink:href="classyaclib_1_1detail_1_1InlineCore.html" target="_top" xlink:title=" ">
<polygon fill="none" stroke="black" points="41,-123.5 41,-142.5 158,-142.5 158,-123.5 41,-123.5"/>
<text text-anchor="middle" x="99.5" y="-130.5" font-family="Helvetica,sans-Serif" font-size="10.00">yaclib::detail::InlineCore</text>
</a>
</g>
</g>
<!-- Node3&#45;&gt;Node2 -->
<g id="edge2" class="edge">
<title>Node3&#45;&gt;Node2</title>
<path fill="none" stroke="midnightblue" d="M99.5,-112.8C99.5,-103.91 99.5,-93.78 99.5,-86.75"/>
<polygon fill="midnightblue" stroke="midnightblue" points="96,-113.08 99.5,-123.08 103,-113.08 96,-113.08"/>
</g>
<!-- Node4 -->
<g id="node4" class="node">
<title>Node4</title>
<g id="a_node4"><a xlink:href="classyaclib_1_1Job.html" target="_top" xlink:title="Callable that can be executed in an IExecutor.">
<polygon fill="none" stroke="black" points="68.5,-179.5 68.5,-198.5 130.5,-198.5 130.5,-179.5 68.5,-179.5"/>
<text text-anchor="middle" x="99.5" y="-186.5" font-family="Helvetica,sans-Serif" font-size="10.00">yaclib::Job</text>
</a>
</g>
</g>
<!-- Node4&#45;&gt;Node3 -->
<g id="edge3" class="edge">
<title>Node4&#45;&gt;Node3</title>
<path fill="none" stroke="midnightblue" d="M99.5,-168.8C99.5,-159.91 99.5,-149.78 99.5,-142.75"/>
<polygon fill="midnightblue" stroke="midnightblue" points="96,-169.08 99.5,-179.08 103,-169.08 96,-169.08"/>
</g>
<!-- Node5 -->
<g id="node5" class="node">
<title>Node5</title>
<g id="a_node5"><a xlink:href="structyaclib_1_1detail_1_1Node.html" target="_top" xlink:title="Node class, used in intrusive data structure.">
<polygon fill="none" stroke="black" points="0,-235.5 0,-254.5 97,-254.5 97,-235.5 0,-235.5"/>
<text text-anchor="middle" x="48.5" y="-242.5" font-family="Helvetica,sans-Serif" font-size="10.00">yaclib::detail::Node</text>
</a>
</g>
</g>
<!-- Node5&#45;&gt;Node4 -->
<g id="edge4" class="edge">
<title>Node5&#45;&gt;Node4</title>
<path fill="none" stroke="midnightblue" d="M63.88,-227.72C72.87,-218.2 83.86,-206.56 91.24,-198.75"/>
<polygon fill="midnightblue" stroke="midnightblue" points="61.24,-225.41 56.92,-235.08 66.33,-230.22 61.24,-225.41"/>
</g>
<!-- Node6 -->
<g id="node6" class="node">
<title>Node6</title>
<g id="a_node6"><a xlink:href="classyaclib_1_1IFunc.html" target="_top" xlink:title="Callable interface.">
<polygon fill="none" stroke="black" points="115,-235.5 115,-254.5 186,-254.5 186,-235.5 115,-235.5"/>
<text text-anchor="middle" x="150.5" y="-242.5" font-family="Helvetica,sans-Serif" font-size="10.00">yaclib::IFunc</text>
</a>
</g>
</g>
<!-- Node6&#45;&gt;Node4 -->
<g id="edge5" class="edge">
<title>Node6&#45;&gt;Node4</title>
<path fill="none" stroke="midnightblue" d="M135.12,-227.72C126.13,-218.2 115.14,-206.56 107.76,-198.75"/>
<polygon fill="midnightblue" stroke="midnightblue" points="132.67,-230.22 142.08,-235.08 137.76,-225.41 132.67,-230.22"/>
</g>
<!-- Node7 -->
<g id="node7" class="node">
<title>Node7</title>
<g id="a_node7"><a xlink:href="classyaclib_1_1IRef.html" target="_top" xlink:title="Reference counting interface.">
<polygon fill="none" stroke="black" points="118.5,-291.5 118.5,-310.5 182.5,-310.5 182.5,-291.5 118.5,-291.5"/>
<text text-anchor="middle" x="150.5" y="-298.5" font-family="Helvetica,sans-Serif" font-size="10.00">yaclib::IRef</text>
</a>
</g>
</g>
<!-- Node7&#45;&gt;Node6 -->
<g id="edge6" class="edge">
<title>Node7&#45;&gt;Node6</title>
<path fill="none" stroke="midnightblue" d="M150.5,-280.8C150.5,-271.91 150.5,-261.78 150.5,-254.75"/>
<polygon fill="midnightblue" stroke="midnightblue" points="147,-281.08 150.5,-291.08 154,-281.08 147,-281.08"/>
</g>
</g>
</svg>
