<?xml version="1.0" encoding="UTF-8" standalone="no"?>
<!DOCTYPE svg PUBLIC "-//W3C//DTD SVG 1.1//EN"
 "http://www.w3.org/Graphics/SVG/1.1/DTD/svg11.dtd">
<!-- Generated by graphviz version 3.0.0 (20220413.0106)
 -->
<!-- Title: yaclib::detail::AnyCombinator&lt; V, E, P &gt; Pages: 1 -->
<svg width="462pt" height="309pt"
 viewBox="0.00 0.00 461.50 309.00" xmlns="http://www.w3.org/2000/svg" xmlns:xlink="http://www.w3.org/1999/xlink">
<g id="graph0" class="graph" transform="scale(1 1) rotate(0) translate(4 305)">
<title>yaclib::detail::AnyCombinator&lt; V, E, P &gt;</title>
<!-- Node1 -->
<g id="node1" class="node">
<title>Node1</title>
<g id="a_node1"><a xlink:title=" ">
<polygon fill="#bfbfbf" stroke="black" points="137,-0.5 137,-30.5 277,-30.5 277,-0.5 137,-0.5"/>
<text text-anchor="start" x="145" y="-18.5" font-family="Helvetica,sans-Serif" font-size="10.00">yaclib::detail::AnyCombinator</text>
<text text-anchor="middle" x="207" y="-7.5" font-family="Helvetica,sans-Serif" font-size="10.00">&lt; V, E, P &gt;</text>
</a>
</g>
</g>
<!-- Node2 -->
<g id="node2" class="node">
<title>Node2</title>
<g id="a_node2"><a xlink:href="classyaclib_1_1detail_1_1AnyCombinatorBase.html" target="_top" xlink:title=" ">
<polygon fill="none" stroke="black" points="64,-68.5 64,-98.5 204,-98.5 204,-68.5 64,-68.5"/>
<text text-anchor="start" x="72" y="-86.5" font-family="Helvetica,sans-Serif" font-size="10.00">yaclib::detail::AnyCombinator</text>
<text text-anchor="middle" x="134" y="-75.5" font-family="Helvetica,sans-Serif" font-size="10.00">Base&lt; V, E, P &gt;</text>
</a>
</g>
</g>
<!-- Node2&#45;&gt;Node1 -->
<g id="edge1" class="edge">
<title>Node2&#45;&gt;Node1</title>
<path fill="none" stroke="midnightblue" d="M157.53,-61.23C168.63,-51.19 181.58,-39.48 191.44,-30.57"/>
<polygon fill="midnightblue" stroke="midnightblue" points="154.91,-58.88 149.84,-68.18 159.6,-64.07 154.91,-58.88"/>
</g>
<!-- Node3 -->
<g id="node3" class="node">
<title>Node3</title>
<g id="a_node3"><a xlink:title=" ">
<polygon fill="none" stroke="black" points="0,-152 0,-171 80,-171 80,-152 0,-152"/>
<text text-anchor="middle" x="40" y="-159" font-family="Helvetica,sans-Serif" font-size="10.00">atomic&lt; bool &gt;</text>
</a>
</g>
</g>
<!-- Node3&#45;&gt;Node2 -->
<g id="edge2" class="edge">
<title>Node3&#45;&gt;Node2</title>
<path fill="none" stroke="#9a32cd" stroke-dasharray="5,2" d="M58.82,-145.28C75.7,-131.64 100.26,-111.78 116.66,-98.52"/>
<polygon fill="#9a32cd" stroke="#9a32cd" points="56.36,-142.77 50.78,-151.78 60.76,-148.22 56.36,-142.77"/>
<text text-anchor="middle" x="107.5" y="-120" font-family="Helvetica,sans-Serif" font-size="10.00"> _done</text>
</g>
<!-- Node4 -->
<g id="node4" class="node">
<title>Node4</title>
<g id="a_node4"><a xlink:title=" ">
<polygon fill="none" stroke="black" points="17,-224.5 17,-243.5 63,-243.5 63,-224.5 17,-224.5"/>
<text text-anchor="middle" x="40" y="-231.5" font-family="Helvetica,sans-Serif" font-size="10.00">atomic</text>
</a>
</g>
</g>
<!-- Node4&#45;&gt;Node3 -->
<g id="edge3" class="edge">
<title>Node4&#45;&gt;Node3</title>
<path fill="none" stroke="orange" stroke-dasharray="5,2" d="M40,-213.94C40,-200.03 40,-181.82 40,-171.22"/>
<polygon fill="orange" stroke="orange" points="36.5,-214.36 40,-224.36 43.5,-214.36 36.5,-214.36"/>
<text text-anchor="middle" x="58.5" y="-198" font-family="Helvetica,sans-Serif" font-size="10.00"> &lt; bool &gt;</text>
</g>
<!-- Node5 -->
<g id="node5" class="node">
<title>Node5</title>
<g id="a_node5"><a xlink:href="classyaclib_1_1IntrusivePtr.html" target="_top" xlink:title=" ">
<polygon fill="none" stroke="black" points="98,-146.5 98,-176.5 194,-176.5 194,-146.5 98,-146.5"/>
<text text-anchor="start" x="106" y="-164.5" font-family="Helvetica,sans-Serif" font-size="10.00">yaclib::IntrusivePtr</text>
<text text-anchor="middle" x="146" y="-153.5" font-family="Helvetica,sans-Serif" font-size="10.00">&lt; V, E &gt;</text>
</a>
</g>
</g>
<!-- Node5&#45;&gt;Node2 -->
<g id="edge4" class="edge">
<title>Node5&#45;&gt;Node2</title>
<path fill="none" stroke="#9a32cd" stroke-dasharray="5,2" d="M142.15,-136.09C140.2,-123.76 137.9,-109.22 136.25,-98.73"/>
<polygon fill="#9a32cd" stroke="#9a32cd" points="138.73,-136.87 143.74,-146.2 145.64,-135.78 138.73,-136.87"/>
<text text-anchor="middle" x="154.5" y="-120" font-family="Helvetica,sans-Serif" font-size="10.00"> _core</text>
</g>
<!-- Node6 -->
<g id="node6" class="node">
<title>Node6</title>
<g id="a_node6"><a xlink:href="classyaclib_1_1IntrusivePtr.html" target="_top" xlink:title="A intrusive pointer to objects with an embedded reference count.">
<polygon fill="none" stroke="black" points="86.5,-224.5 86.5,-243.5 205.5,-243.5 205.5,-224.5 86.5,-224.5"/>
<text text-anchor="middle" x="146" y="-231.5" font-family="Helvetica,sans-Serif" font-size="10.00">yaclib::IntrusivePtr&lt; T &gt;</text>
</a>
</g>
</g>
<!-- Node6&#45;&gt;Node5 -->
<g id="edge5" class="edge">
<title>Node6&#45;&gt;Node5</title>
<path fill="none" stroke="orange" stroke-dasharray="5,2" d="M146,-214.24C146,-202.41 146,-187.38 146,-176.58"/>
<polygon fill="orange" stroke="orange" points="142.5,-214.36 146,-224.36 149.5,-214.36 142.5,-214.36"/>
<text text-anchor="middle" x="164.5" y="-198" font-family="Helvetica,sans-Serif" font-size="10.00"> &lt; V, E &gt;</text>
</g>
<!-- Node7 -->
<g id="node7" class="node">
<title>Node7</title>
<g id="a_node7"><a xlink:href="classyaclib_1_1detail_1_1InlineCore.html" target="_top" xlink:title=" ">
<polygon fill="none" stroke="black" points="222.5,-74 222.5,-93 339.5,-93 339.5,-74 222.5,-74"/>
<text text-anchor="middle" x="281" y="-81" font-family="Helvetica,sans-Serif" font-size="10.00">yaclib::detail::InlineCore</text>
</a>
</g>
</g>
<!-- Node7&#45;&gt;Node1 -->
<g id="edge6" class="edge">
<title>Node7&#45;&gt;Node1</title>
<path fill="none" stroke="midnightblue" d="M263.55,-66.94C251.23,-55.95 234.86,-41.35 222.9,-30.68"/>
<polygon fill="midnightblue" stroke="midnightblue" points="261.53,-69.83 271.33,-73.87 266.19,-64.6 261.53,-69.83"/>
</g>
<!-- Node8 -->
<g id="node8" class="node">
<title>Node8</title>
<g id="a_node8"><a xlink:href="classyaclib_1_1Job.html" target="_top" xlink:title="Callable that can be executed in an IExecutor.">
<polygon fill="none" stroke="black" points="250,-152 250,-171 312,-171 312,-152 250,-152"/>
<text text-anchor="middle" x="281" y="-159" font-family="Helvetica,sans-Serif" font-size="10.00">yaclib::Job</text>
</a>
</g>
</g>
<!-- Node8&#45;&gt;Node7 -->
<g id="edge7" class="edge">
<title>Node8&#45;&gt;Node7</title>
<path fill="none" stroke="midnightblue" d="M281,-141.72C281,-126.2 281,-104.86 281,-93.12"/>
<polygon fill="midnightblue" stroke="midnightblue" points="277.5,-141.78 281,-151.78 284.5,-141.78 277.5,-141.78"/>
</g>
<!-- Node9 -->
<g id="node9" class="node">
<title>Node9</title>
<g id="a_node9"><a xlink:href="structyaclib_1_1detail_1_1Node.html" target="_top" xlink:title="Node class, used in intrusive data structure.">
<polygon fill="none" stroke="black" points="228.5,-224.5 228.5,-243.5 325.5,-243.5 325.5,-224.5 228.5,-224.5"/>
<text text-anchor="middle" x="277" y="-231.5" font-family="Helvetica,sans-Serif" font-size="10.00">yaclib::detail::Node</text>
</a>
</g>
</g>
<!-- Node9&#45;&gt;Node8 -->
<g id="edge8" class="edge">
<title>Node9&#45;&gt;Node8</title>
<path fill="none" stroke="midnightblue" d="M278.06,-214.36C278.85,-200.4 279.9,-181.93 280.51,-171.22"/>
<polygon fill="midnightblue" stroke="midnightblue" points="274.56,-214.17 277.49,-224.36 281.55,-214.57 274.56,-214.17"/>
</g>
<!-- Node9&#45;&gt;Node9 -->
<g id="edge9" class="edge">
<title>Node9&#45;&gt;Node9</title>
<path fill="none" stroke="#9a32cd" stroke-dasharray="5,2" d="M335.88,-238C340.59,-237.13 343.5,-235.79 343.5,-234 343.5,-231.13 336.04,-229.44 325.71,-228.92"/>
<polygon fill="#9a32cd" stroke="#9a32cd" points="335.29,-234.55 325.71,-239.08 336.03,-241.51 335.29,-234.55"/>
<text text-anchor="middle" x="354" y="-231.5" font-family="Helvetica,sans-Serif" font-size="10.00"> next</text>
</g>
<!-- Node10 -->
<g id="node10" class="node">
<title>Node10</title>
<g id="a_node10"><a xlink:href="classyaclib_1_1IFunc.html" target="_top" xlink:title="Callable interface.">
<polygon fill="none" stroke="black" points="382.5,-224.5 382.5,-243.5 453.5,-243.5 453.5,-224.5 382.5,-224.5"/>
<text text-anchor="middle" x="418" y="-231.5" font-family="Helvetica,sans-Serif" font-size="10.00">yaclib::IFunc</text>
</a>
</g>
</g>
<!-- Node10&#45;&gt;Node8 -->
<g id="edge10" class="edge">
<title>Node10&#45;&gt;Node8</title>
<path fill="none" stroke="midnightblue" d="M392.37,-219.81C364.62,-205.53 321.17,-183.17 297.58,-171.03"/>
<polygon fill="midnightblue" stroke="midnightblue" points="390.98,-223.03 401.47,-224.5 394.18,-216.81 390.98,-223.03"/>
</g>
<!-- Node11 -->
<g id="node11" class="node">
<title>Node11</title>
<g id="a_node11"><a xlink:href="classyaclib_1_1IRef.html" target="_top" xlink:title="Reference counting interface.">
<polygon fill="none" stroke="black" points="386,-281.5 386,-300.5 450,-300.5 450,-281.5 386,-281.5"/>
<text text-anchor="middle" x="418" y="-288.5" font-family="Helvetica,sans-Serif" font-size="10.00">yaclib::IRef</text>
</a>
</g>
</g>
<!-- Node11&#45;&gt;Node10 -->
<g id="edge11" class="edge">
<title>Node11&#45;&gt;Node10</title>
<path fill="none" stroke="midnightblue" d="M418,-271.12C418,-261.82 418,-251.06 418,-243.71"/>
<polygon fill="midnightblue" stroke="midnightblue" points="414.5,-271.41 418,-281.41 421.5,-271.41 414.5,-271.41"/>
</g>
</g>
</svg>
