<?xml version="1.0" encoding="UTF-8" standalone="no"?>
<!DOCTYPE svg PUBLIC "-//W3C//DTD SVG 1.1//EN"
 "http://www.w3.org/Graphics/SVG/1.1/DTD/svg11.dtd">
<!-- Generated by graphviz version 3.0.0 (20220413.0106)
 -->
<!-- Title: CounterBase Pages: 1 -->
<!--zoomable 201 -->
<svg id="main" version="1.1" xmlns="http://www.w3.org/2000/svg" xmlns:xlink="http://www.w3.org/1999/xlink" xml:space="preserve" onload="init(evt)">
<style type="text/css"><![CDATA[
.edge:hover path { stroke: red; }
.edge:hover polygon { stroke: red; fill: red; }
]]></style>
<script type="text/javascript"><![CDATA[
var edges = document.getElementsByTagName('g');
if (edges && edges.length) {
  for (var i=0;i<edges.length;i++) {
    if (edges[i].id.substr(0,4)=='edge') {
      edges[i].setAttribute('class','edge');
    }
  }
}
]]></script>
        <defs>
                <circle id="rim" cx="0" cy="0" r="7"/>
                <circle id="rim2" cx="0" cy="0" r="3.5"/>
                <g id="zoomPlus">
                        <use xlink:href="#rim" fill="#404040">
                                <set attributeName="fill" to="#808080" begin="zoomplus.mouseover" end="zoomplus.mouseout"/>
                        </use>
                        <path d="M-4,0h8M0,-4v8" fill="none" stroke="white" stroke-width="1.5" pointer-events="none"/>
                </g>
                <g id="zoomMin">
                        <use xlink:href="#rim" fill="#404040">
                                <set attributeName="fill" to="#808080" begin="zoomminus.mouseover" end="zoomminus.mouseout"/>
                        </use>
                        <path d="M-4,0h8" fill="none" stroke="white" stroke-width="1.5" pointer-events="none"/>
                </g>
                <g id="dirArrow">
                        <path fill="none" stroke="white" stroke-width="1.5" d="M0,-3.0v7 M-2.5,-0.5L0,-3.0L2.5,-0.5"/>
                </g>
               <g id="resetDef">
                       <use xlink:href="#rim2" fill="#404040">
                               <set attributeName="fill" to="#808080" begin="reset.mouseover" end="reset.mouseout"/>
                       </use>
               </g>
        </defs>

<script type="text/javascript">
var viewWidth = 1271;
var viewHeight = 201;
var sectionId = 'dynsection-0';
</script>
<script xlink:href="svgpan.js"/>
<svg id="graph" class="graph">
<g id="viewport">
<title>CounterBase</title>
<!-- Node1 -->
<g id="node1" class="node">
<title>Node1</title>
<g id="a_node1"><a xlink:title=" ">
<polygon fill="#bfbfbf" stroke="black" points="0,-47 0,-66 73,-66 73,-47 0,-47"/>
<text text-anchor="middle" x="36.5" y="-54" font-family="Helvetica,sans-Serif" font-size="10.00">CounterBase</text>
</a>
</g>
</g>
<!-- Node2 -->
<g id="node2" class="node">
<title>Node2</title>
<g id="a_node2"><a xlink:href="structyaclib_1_1detail_1_1AtomicCounter.html" target="_top" xlink:title=" ">
<polygon fill="none" stroke="black" points="110,-78.5 110,-108.5 248,-108.5 248,-78.5 110,-78.5"/>
<text text-anchor="start" x="118" y="-96.5" font-family="Helvetica,sans-Serif" font-size="10.00">yaclib::detail::AtomicCounter</text>
<text text-anchor="middle" x="179" y="-85.5" font-family="Helvetica,sans-Serif" font-size="10.00">&lt; CounterBase, Deleter &gt;</text>
</a>
</g>
</g>
<!-- Node1&#45;&gt;Node2 -->
<g id="edge1" class="edge">
<title>Node1&#45;&gt;Node2</title>
<path fill="none" stroke="midnightblue" d="M83.15,-68.52C95.21,-71.7 108.37,-75.16 120.95,-78.48"/>
<polygon fill="midnightblue" stroke="midnightblue" points="83.88,-65.09 73.32,-65.93 82.1,-71.86 83.88,-65.09"/>
</g>
<!-- Node11 -->
<g id="node11" class="node">
<title>Node11</title>
<g id="a_node11"><a xlink:href="structyaclib_1_1detail_1_1NopeCounter.html" target="_top" xlink:title=" ">
<polygon fill="none" stroke="black" points="113.5,-29.5 113.5,-59.5 244.5,-59.5 244.5,-29.5 113.5,-29.5"/>
<text text-anchor="start" x="121.5" y="-47.5" font-family="Helvetica,sans-Serif" font-size="10.00">yaclib::detail::NopeCounter</text>
<text text-anchor="middle" x="179" y="-36.5" font-family="Helvetica,sans-Serif" font-size="10.00">&lt; CounterBase &gt;</text>
</a>
</g>
</g>
<!-- Node1&#45;&gt;Node11 -->
<g id="edge11" class="edge">
<title>Node1&#45;&gt;Node11</title>
<path fill="none" stroke="midnightblue" d="M83.39,-52.58C92.95,-51.76 103.2,-50.89 113.3,-50.03"/>
<polygon fill="midnightblue" stroke="midnightblue" points="82.98,-49.1 73.32,-53.44 83.58,-56.08 82.98,-49.1"/>
</g>
<!-- Node3 -->
<g id="node3" class="node">
<title>Node3</title>
<g id="a_node3"><a xlink:href="structyaclib_1_1detail_1_1AtomicCounter.html" target="_top" xlink:title=" ">
<polygon fill="none" stroke="black" points="402,-147 402,-188 572,-188 572,-147 402,-147"/>
<text text-anchor="start" x="410" y="-176" font-family="Helvetica,sans-Serif" font-size="10.00">yaclib::detail::AtomicCounter</text>
<text text-anchor="start" x="410" y="-165" font-family="Helvetica,sans-Serif" font-size="10.00">&lt; ResultCore&lt; V, E &gt;, PromiseType</text>
<text text-anchor="middle" x="487" y="-154" font-family="Helvetica,sans-Serif" font-size="10.00">Deleter &gt;</text>
</a>
</g>
</g>
<!-- Node2&#45;&gt;Node3 -->
<g id="edge2" class="edge">
<title>Node2&#45;&gt;Node3</title>
<path fill="none" stroke="orange" stroke-dasharray="5,2" d="M208.78,-114.33C224.83,-124.87 245.65,-136.81 266,-143.5 309.53,-157.81 360.24,-164 402,-166.52"/>
<polygon fill="orange" stroke="orange" points="210.63,-111.35 200.38,-108.66 206.71,-117.16 210.63,-111.35"/>
<text text-anchor="start" x="270" y="-178.5" font-family="Helvetica,sans-Serif" font-size="10.00"> &lt; ResultCore&lt; V, E</text>
<text text-anchor="middle" x="325" y="-167.5" font-family="Helvetica,sans-Serif" font-size="10.00"> &gt;, PromiseTypeDeleter &gt;</text>
</g>
<!-- Node8 -->
<g id="node8" class="node">
<title>Node8</title>
<g id="a_node8"><a xlink:href="structyaclib_1_1detail_1_1AtomicCounter.html" target="_top" xlink:title=" ">
<polygon fill="none" stroke="black" points="590,-98 590,-139 728,-139 728,-98 590,-98"/>
<text text-anchor="start" x="598" y="-127" font-family="Helvetica,sans-Serif" font-size="10.00">yaclib::detail::AtomicCounter</text>
<text text-anchor="start" x="598" y="-116" font-family="Helvetica,sans-Serif" font-size="10.00">&lt; ResultCore&lt; void, E &gt;,</text>
<text text-anchor="middle" x="659" y="-105" font-family="Helvetica,sans-Serif" font-size="10.00"> PromiseTypeDeleter &gt;</text>
</a>
</g>
</g>
<!-- Node2&#45;&gt;Node8 -->
<g id="edge7" class="edge">
<title>Node2&#45;&gt;Node8</title>
<path fill="none" stroke="orange" stroke-dasharray="5,2" d="M258.35,-97.6C350.63,-102.42 502.4,-110.36 589.95,-114.94"/>
<polygon fill="orange" stroke="orange" points="258.4,-94.1 248.23,-97.07 258.04,-101.09 258.4,-94.1"/>
<text text-anchor="start" x="266" y="-117.5" font-family="Helvetica,sans-Serif" font-size="10.00"> &lt; ResultCore&lt; void,</text>
<text text-anchor="middle" x="325" y="-106.5" font-family="Helvetica,sans-Serif" font-size="10.00"> E &gt;, PromiseTypeDeleter &gt;</text>
</g>
<!-- Node9 -->
<g id="node9" class="node">
<title>Node9</title>
<g id="a_node9"><a xlink:href="structyaclib_1_1detail_1_1AtomicCounter.html" target="_top" xlink:title=" ">
<polygon fill="none" stroke="black" points="418,-49 418,-90 556,-90 556,-49 418,-49"/>
<text text-anchor="start" x="426" y="-78" font-family="Helvetica,sans-Serif" font-size="10.00">yaclib::detail::AtomicCounter</text>
<text text-anchor="start" x="426" y="-67" font-family="Helvetica,sans-Serif" font-size="10.00">&lt; detail::DefaultEvent, detail</text>
<text text-anchor="middle" x="487" y="-56" font-family="Helvetica,sans-Serif" font-size="10.00">::SetAllDeleter &gt;</text>
</a>
</g>
</g>
<!-- Node2&#45;&gt;Node9 -->
<g id="edge9" class="edge">
<title>Node2&#45;&gt;Node9</title>
<path fill="none" stroke="orange" stroke-dasharray="5,2" d="M251.4,-76.62C256.32,-75.8 261.22,-75.08 266,-74.5 316.64,-68.39 374.29,-67.29 417.87,-67.64"/>
<polygon fill="orange" stroke="orange" points="250.51,-73.22 241.29,-78.44 251.75,-80.11 250.51,-73.22"/>
<text text-anchor="start" x="276.5" y="-88.5" font-family="Helvetica,sans-Serif" font-size="10.00"> &lt; detail::DefaultEvent,</text>
<text text-anchor="middle" x="325" y="-77.5" font-family="Helvetica,sans-Serif" font-size="10.00"> detail::SetAllDeleter &gt;</text>
</g>
<!-- Node10 -->
<g id="node10" class="node">
<title>Node10</title>
<g id="a_node10"><a xlink:href="structyaclib_1_1detail_1_1AtomicCounter.html" target="_top" xlink:title=" ">
<polygon fill="none" stroke="black" points="418,-0.5 418,-30.5 556,-30.5 556,-0.5 418,-0.5"/>
<text text-anchor="start" x="426" y="-18.5" font-family="Helvetica,sans-Serif" font-size="10.00">yaclib::detail::AtomicCounter</text>
<text text-anchor="middle" x="487" y="-7.5" font-family="Helvetica,sans-Serif" font-size="10.00">&lt; Handle, HandleDeleter &gt;</text>
</a>
</g>
</g>
<!-- Node2&#45;&gt;Node10 -->
<g id="edge10" class="edge">
<title>Node2&#45;&gt;Node10</title>
<path fill="none" stroke="orange" stroke-dasharray="5,2" d="M237.24,-74.28C240.96,-72.47 244.58,-70.55 248,-68.5 257.18,-63 256.35,-57.12 266,-52.5 313.51,-29.75 372.63,-20.73 417.61,-17.27"/>
<polygon fill="orange" stroke="orange" points="235.56,-71.2 227.88,-78.49 238.43,-77.58 235.56,-71.2"/>
<text text-anchor="middle" x="325" y="-55.5" font-family="Helvetica,sans-Serif" font-size="10.00"> &lt; Handle, HandleDeleter &gt;</text>
</g>
<!-- Node4 -->
<g id="node4" class="node">
<title>Node4</title>
<g id="a_node4"><a xlink:href="classyaclib_1_1detail_1_1BasePromiseType.html" target="_top" xlink:title=" ">
<polygon fill="none" stroke="black" points="746,-152.5 746,-182.5 878,-182.5 878,-152.5 746,-152.5"/>
<text text-anchor="start" x="754" y="-170.5" font-family="Helvetica,sans-Serif" font-size="10.00">yaclib::detail::BasePromise</text>
<text text-anchor="middle" x="812" y="-159.5" font-family="Helvetica,sans-Serif" font-size="10.00">Type&lt; V, E &gt;</text>
</a>
</g>
</g>
<!-- Node3&#45;&gt;Node4 -->
<g id="edge3" class="edge">
<title>Node3&#45;&gt;Node4</title>
<path fill="none" stroke="midnightblue" d="M582.03,-167.5C634.57,-167.5 698.73,-167.5 745.75,-167.5"/>
<polygon fill="midnightblue" stroke="midnightblue" points="582.02,-164 572.02,-167.5 582.02,-171 582.02,-164"/>
</g>
<!-- Node5 -->
<g id="node5" class="node">
<title>Node5</title>
<g id="a_node5"><a xlink:href="classyaclib_1_1detail_1_1PromiseType.html" target="_top" xlink:title=" ">
<polygon fill="none" stroke="black" points="963.5,-162.5 963.5,-192.5 1094.5,-192.5 1094.5,-162.5 963.5,-162.5"/>
<text text-anchor="start" x="971.5" y="-180.5" font-family="Helvetica,sans-Serif" font-size="10.00">yaclib::detail::PromiseType</text>
<text text-anchor="middle" x="1029" y="-169.5" font-family="Helvetica,sans-Serif" font-size="10.00">&lt; V, E &gt;</text>
</a>
</g>
</g>
<!-- Node4&#45;&gt;Node5 -->
<g id="edge4" class="edge">
<title>Node4&#45;&gt;Node5</title>
<path fill="none" stroke="midnightblue" d="M888.38,-171.01C912.76,-172.14 939.58,-173.39 963.13,-174.48"/>
<polygon fill="midnightblue" stroke="midnightblue" points="888.24,-167.5 878.09,-170.53 887.92,-174.49 888.24,-167.5"/>
</g>
<!-- Node6 -->
<g id="node6" class="node">
<title>Node6</title>
<g id="a_node6"><a xlink:href="classyaclib_1_1detail_1_1BasePromiseType.html" target="_top" xlink:title=" ">
<polygon fill="none" stroke="black" points="963,-108.5 963,-138.5 1095,-138.5 1095,-108.5 963,-108.5"/>
<text text-anchor="start" x="971" y="-126.5" font-family="Helvetica,sans-Serif" font-size="10.00">yaclib::detail::BasePromise</text>
<text text-anchor="middle" x="1029" y="-115.5" font-family="Helvetica,sans-Serif" font-size="10.00">Type&lt; void, E &gt;</text>
</a>
</g>
</g>
<!-- Node4&#45;&gt;Node6 -->
<g id="edge5" class="edge">
<title>Node4&#45;&gt;Node6</title>
<path fill="none" stroke="orange" stroke-dasharray="5,2" d="M888,-152.15C912.36,-147.17 939.17,-141.68 962.76,-136.85"/>
<polygon fill="orange" stroke="orange" points="887.19,-148.75 878.09,-154.18 888.59,-155.6 887.19,-148.75"/>
<text text-anchor="middle" x="920.5" y="-151.5" font-family="Helvetica,sans-Serif" font-size="10.00"> &lt; void, E &gt;</text>
</g>
<!-- Node7 -->
<g id="node7" class="node">
<title>Node7</title>
<g id="a_node7"><a xlink:href="classyaclib_1_1detail_1_1PromiseType_3_01void_00_01E_01_4.html" target="_top" xlink:title=" ">
<polygon fill="none" stroke="black" points="1132,-108.5 1132,-138.5 1263,-138.5 1263,-108.5 1132,-108.5"/>
<text text-anchor="start" x="1140" y="-126.5" font-family="Helvetica,sans-Serif" font-size="10.00">yaclib::detail::PromiseType</text>
<text text-anchor="middle" x="1197.5" y="-115.5" font-family="Helvetica,sans-Serif" font-size="10.00">&lt; void, E &gt;</text>
</a>
</g>
</g>
<!-- Node6&#45;&gt;Node7 -->
<g id="edge6" class="edge">
<title>Node6&#45;&gt;Node7</title>
<path fill="none" stroke="midnightblue" d="M1105.57,-123.5C1114.37,-123.5 1123.28,-123.5 1131.91,-123.5"/>
<polygon fill="midnightblue" stroke="midnightblue" points="1105.33,-120 1095.33,-123.5 1105.33,-127 1105.33,-120"/>
</g>
<!-- Node8&#45;&gt;Node6 -->
<g id="edge8" class="edge">
<title>Node8&#45;&gt;Node6</title>
<path fill="none" stroke="midnightblue" d="M738.41,-119.57C805.21,-120.47 900.08,-121.76 962.79,-122.61"/>
<polygon fill="midnightblue" stroke="midnightblue" points="738.4,-116.07 728.36,-119.43 738.31,-123.06 738.4,-116.07"/>
</g>
</g>
</svg>
        <g id="navigator" transform="translate(0 0)" fill="#404254">
                <rect fill="#f2f5e9" fill-opacity="0.5" stroke="#606060" stroke-width=".5" x="0" y="0" width="60" height="60"/>
                <use id="zoomplus" xlink:href="#zoomPlus" x="17" y="9" onmousedown="handleZoom(evt,'in')"/>
                <use id="zoomminus" xlink:href="#zoomMin" x="42" y="9" onmousedown="handleZoom(evt,'out')"/>
                <use id="reset" xlink:href="#resetDef" x="30" y="36" onmousedown="handleReset()"/>
                <g id="arrowUp" xlink:href="#dirArrow" transform="translate(30 24)" onmousedown="handlePan(0,-1)">
                  <use xlink:href="#rim" fill="#404040">
                        <set attributeName="fill" to="#808080" begin="arrowUp.mouseover" end="arrowUp.mouseout"/>
                  </use>
                  <path fill="none" stroke="white" stroke-width="1.5" d="M0,-3.0v7 M-2.5,-0.5L0,-3.0L2.5,-0.5"/>
                </g>
                <g id="arrowRight" xlink:href="#dirArrow" transform="rotate(90) translate(36 -43)" onmousedown="handlePan(1,0)">
                  <use xlink:href="#rim" fill="#404040">
                        <set attributeName="fill" to="#808080" begin="arrowRight.mouseover" end="arrowRight.mouseout"/>
                  </use>
                  <path fill="none" stroke="white" stroke-width="1.5" d="M0,-3.0v7 M-2.5,-0.5L0,-3.0L2.5,-0.5"/>
                </g>
                <g id="arrowDown" xlink:href="#dirArrow" transform="rotate(180) translate(-30 -48)" onmousedown="handlePan(0,1)">
                  <use xlink:href="#rim" fill="#404040">
                        <set attributeName="fill" to="#808080" begin="arrowDown.mouseover" end="arrowDown.mouseout"/>
                  </use>
                  <path fill="none" stroke="white" stroke-width="1.5" d="M0,-3.0v7 M-2.5,-0.5L0,-3.0L2.5,-0.5"/>
                </g>
                <g id="arrowLeft" xlink:href="#dirArrow" transform="rotate(270) translate(-36 17)" onmousedown="handlePan(-1,0)">
                  <use xlink:href="#rim" fill="#404040">
                        <set attributeName="fill" to="#808080" begin="arrowLeft.mouseover" end="arrowLeft.mouseout"/>
                  </use>
                  <path fill="none" stroke="white" stroke-width="1.5" d="M0,-3.0v7 M-2.5,-0.5L0,-3.0L2.5,-0.5"/>
                </g>
        </g>
        <svg viewBox="0 0 15 15" width="100%" height="30px" preserveAspectRatio="xMaxYMin meet">
         <g id="arrow_out" transform="scale(0.3 0.3)">
          <a xlink:href="classCounterBase__inherit__graph_org.svg" target="_base">
           <rect id="button" ry="5" rx="5" y="6" x="6" height="38" width="38"
                fill="#f2f5e9" fill-opacity="0.5" stroke="#606060" stroke-width="1.0"/>
           <path id="arrow"
             d="M 11.500037,31.436501 C 11.940474,20.09759 22.043105,11.32322 32.158766,21.979434 L 37.068811,17.246167 C 37.068811,17.246167 37.088388,32 37.088388,32 L 22.160133,31.978069 C 22.160133,31.978069 26.997745,27.140456 26.997745,27.140456 C 18.528582,18.264221 13.291696,25.230495 11.500037,31.436501 z"
             style="fill:#404040;"/>
          </a>
         </g>
        </svg>
</svg>
