<?xml version="1.0" encoding="UTF-8" standalone="no"?>
<!DOCTYPE svg PUBLIC "-//W3C//DTD SVG 1.1//EN"
 "http://www.w3.org/Graphics/SVG/1.1/DTD/svg11.dtd">
<!-- Generated by graphviz version 3.0.0 (20220413.0106)
 -->
<!-- Title: yaclib::IntrusivePtr&lt; T &gt; Pages: 1 -->
<svg width="431pt" height="282pt"
 viewBox="0.00 0.00 431.00 282.00" xmlns="http://www.w3.org/2000/svg" xmlns:xlink="http://www.w3.org/1999/xlink">
<g id="graph0" class="graph" transform="scale(1 1) rotate(0) translate(4 278)">
<title>yaclib::IntrusivePtr&lt; T &gt;</title>
<!-- Node1 -->
<g id="node1" class="node">
<title>Node1</title>
<g id="a_node1"><a xlink:title="A intrusive pointer to objects with an embedded reference count.">
<polygon fill="#bfbfbf" stroke="black" points="0,-122 0,-141 119,-141 119,-122 0,-122"/>
<text text-anchor="middle" x="59.5" y="-129" font-family="Helvetica,sans-Serif" font-size="10.00">yaclib::IntrusivePtr&lt; T &gt;</text>
</a>
</g>
</g>
<!-- Node2 -->
<g id="node2" class="node">
<title>Node2</title>
<g id="a_node2"><a xlink:href="classyaclib_1_1IntrusivePtr.html" target="_top" xlink:title=" ">
<polygon fill="none" stroke="black" points="304,-243.5 304,-273.5 400,-273.5 400,-243.5 304,-243.5"/>
<text text-anchor="start" x="312" y="-261.5" font-family="Helvetica,sans-Serif" font-size="10.00">yaclib::IntrusivePtr</text>
<text text-anchor="middle" x="352" y="-250.5" font-family="Helvetica,sans-Serif" font-size="10.00">&lt; V, StopError &gt;</text>
</a>
</g>
</g>
<!-- Node1&#45;&gt;Node2 -->
<g id="edge1" class="edge">
<title>Node1&#45;&gt;Node2</title>
<path fill="none" stroke="orange" stroke-dasharray="5,2" d="M70.1,-150.19C82.42,-172.11 105.97,-207.72 137,-225.5 188.53,-255.03 257.97,-260.68 303.58,-260.68"/>
<polygon fill="orange" stroke="orange" points="73.07,-148.33 65.24,-141.19 66.91,-151.65 73.07,-148.33"/>
<text text-anchor="middle" x="200" y="-261.5" font-family="Helvetica,sans-Serif" font-size="10.00"> &lt; V, StopError &gt;</text>
</g>
<!-- Node3 -->
<g id="node3" class="node">
<title>Node3</title>
<g id="a_node3"><a xlink:href="classyaclib_1_1IntrusivePtr.html" target="_top" xlink:title=" ">
<polygon fill="none" stroke="black" points="304,-194.5 304,-224.5 400,-224.5 400,-194.5 304,-194.5"/>
<text text-anchor="start" x="312" y="-212.5" font-family="Helvetica,sans-Serif" font-size="10.00">yaclib::IntrusivePtr</text>
<text text-anchor="middle" x="352" y="-201.5" font-family="Helvetica,sans-Serif" font-size="10.00">&lt; V, E &gt;</text>
</a>
</g>
</g>
<!-- Node1&#45;&gt;Node3 -->
<g id="edge2" class="edge">
<title>Node1&#45;&gt;Node3</title>
<path fill="none" stroke="orange" stroke-dasharray="5,2" d="M77.98,-148.55C92.51,-161.61 114.4,-178.81 137,-187.5 191.55,-208.48 259.38,-212.03 303.87,-211.62"/>
<polygon fill="orange" stroke="orange" points="80.03,-145.68 70.32,-141.44 75.27,-150.81 80.03,-145.68"/>
<text text-anchor="middle" x="200" y="-213.5" font-family="Helvetica,sans-Serif" font-size="10.00"> &lt; V, E &gt;</text>
</g>
<!-- Node4 -->
<g id="node4" class="node">
<title>Node4</title>
<g id="a_node4"><a xlink:href="classyaclib_1_1IntrusivePtr.html" target="_top" xlink:title=" ">
<polygon fill="none" stroke="black" points="281,-98.5 281,-172.5 423,-172.5 423,-98.5 281,-98.5"/>
<text text-anchor="start" x="289" y="-160.5" font-family="Helvetica,sans-Serif" font-size="10.00">yaclib::IntrusivePtr</text>
<text text-anchor="start" x="289" y="-149.5" font-family="Helvetica,sans-Serif" font-size="10.00">&lt; std::conditional_t</text>
<text text-anchor="start" x="289" y="-138.5" font-family="Helvetica,sans-Serif" font-size="10.00">&lt; std::is_void_v&lt; V &gt;,</text>
<text text-anchor="start" x="289" y="-127.5" font-family="Helvetica,sans-Serif" font-size="10.00"> void, std::conditional</text>
<text text-anchor="start" x="289" y="-116.5" font-family="Helvetica,sans-Serif" font-size="10.00">_t&lt; 0 !=0, std::array&lt; V,</text>
<text text-anchor="middle" x="352" y="-105.5" font-family="Helvetica,sans-Serif" font-size="10.00"> 0 &gt;, std::vector&lt; V &gt; &gt; &gt;, E &gt;</text>
</a>
</g>
</g>
<!-- Node1&#45;&gt;Node4 -->
<g id="edge3" class="edge">
<title>Node1&#45;&gt;Node4</title>
<path fill="none" stroke="orange" stroke-dasharray="5,2" d="M129.65,-131.34C168.79,-131.38 218.63,-131.63 263,-132.5 268.81,-132.61 274.83,-132.76 280.88,-132.93"/>
<polygon fill="orange" stroke="orange" points="129.43,-127.84 119.43,-131.34 129.43,-134.84 129.43,-127.84"/>
<text text-anchor="start" x="137" y="-179.5" font-family="Helvetica,sans-Serif" font-size="10.00"> &lt; std::conditional</text>
<text text-anchor="start" x="137" y="-168.5" font-family="Helvetica,sans-Serif" font-size="10.00">_t&lt; std::is_void_v&lt;</text>
<text text-anchor="start" x="137" y="-157.5" font-family="Helvetica,sans-Serif" font-size="10.00"> V &gt;, void, std::conditional</text>
<text text-anchor="start" x="137" y="-146.5" font-family="Helvetica,sans-Serif" font-size="10.00">_t&lt; 0 !=0, std::array&lt; V,</text>
<text text-anchor="middle" x="200" y="-135.5" font-family="Helvetica,sans-Serif" font-size="10.00"> 0 &gt;, std::vector&lt; V &gt; &gt; &gt;, E &gt;</text>
</g>
<!-- Node5 -->
<g id="node5" class="node">
<title>Node5</title>
<g id="a_node5"><a xlink:href="classyaclib_1_1IntrusivePtr.html" target="_top" xlink:title=" ">
<polygon fill="none" stroke="black" points="304,-49.5 304,-79.5 400,-79.5 400,-49.5 304,-49.5"/>
<text text-anchor="start" x="312" y="-67.5" font-family="Helvetica,sans-Serif" font-size="10.00">yaclib::IntrusivePtr</text>
<text text-anchor="middle" x="352" y="-56.5" font-family="Helvetica,sans-Serif" font-size="10.00">&lt; IExecutor &gt;</text>
</a>
</g>
</g>
<!-- Node1&#45;&gt;Node5 -->
<g id="edge4" class="edge">
<title>Node1&#45;&gt;Node5</title>
<path fill="none" stroke="orange" stroke-dasharray="5,2" d="M111.56,-119.72C165.78,-107.22 250.77,-87.62 303.56,-75.44"/>
<polygon fill="orange" stroke="orange" points="110.77,-116.31 101.81,-121.97 112.34,-123.13 110.77,-116.31"/>
<text text-anchor="middle" x="200" y="-116.5" font-family="Helvetica,sans-Serif" font-size="10.00"> &lt; IExecutor &gt;</text>
</g>
<!-- Node6 -->
<g id="node6" class="node">
<title>Node6</title>
<g id="a_node6"><a xlink:href="classyaclib_1_1IntrusivePtr.html" target="_top" xlink:title=" ">
<polygon fill="none" stroke="black" points="304,-0.5 304,-30.5 400,-30.5 400,-0.5 304,-0.5"/>
<text text-anchor="start" x="312" y="-18.5" font-family="Helvetica,sans-Serif" font-size="10.00">yaclib::IntrusivePtr</text>
<text text-anchor="middle" x="352" y="-7.5" font-family="Helvetica,sans-Serif" font-size="10.00">&lt; yaclib::IRef &gt;</text>
</a>
</g>
</g>
<!-- Node1&#45;&gt;Node6 -->
<g id="edge5" class="edge">
<title>Node1&#45;&gt;Node6</title>
<path fill="none" stroke="orange" stroke-dasharray="5,2" d="M77.2,-114.68C91.79,-100.9 114.17,-81.88 137,-70.5 190.9,-43.64 259.18,-29.04 303.92,-21.76"/>
<polygon fill="orange" stroke="orange" points="74.69,-112.25 69.94,-121.72 79.56,-117.27 74.69,-112.25"/>
<text text-anchor="middle" x="200" y="-73.5" font-family="Helvetica,sans-Serif" font-size="10.00"> &lt; yaclib::IRef &gt;</text>
</g>
</g>
</svg>
