<?xml version="1.0" encoding="UTF-8" standalone="no"?>
<!DOCTYPE svg PUBLIC "-//W3C//DTD SVG 1.1//EN"
 "http://www.w3.org/Graphics/SVG/1.1/DTD/svg11.dtd">
<!-- Generated by graphviz version 3.0.0 (20220413.0106)
 -->
<!-- Title: yaclib::Job Pages: 1 -->
<svg width="1613pt" height="181pt"
 viewBox="0.00 0.00 1613.00 181.00" xmlns="http://www.w3.org/2000/svg" xmlns:xlink="http://www.w3.org/1999/xlink">
<g id="graph0" class="graph" transform="scale(1 1) rotate(0) translate(4 177)">
<title>yaclib::Job</title>
<!-- Node1 -->
<g id="node1" class="node">
<title>Node1</title>
<g id="a_node1"><a xlink:title="Callable that can be executed in an IExecutor.">
<polygon fill="#bfbfbf" stroke="black" points="235,-67 235,-86 297,-86 297,-67 235,-67"/>
<text text-anchor="middle" x="266" y="-74" font-family="Helvetica,sans-Serif" font-size="10.00">yaclib::Job</text>
</a>
</g>
</g>
<!-- Node5 -->
<g id="node5" class="node">
<title>Node5</title>
<g id="a_node5"><a xlink:href="classyaclib_1_1detail_1_1InlineCore.html" target="_top" xlink:title=" ">
<polygon fill="none" stroke="black" points="335.5,-99 335.5,-118 452.5,-118 452.5,-99 335.5,-99"/>
<text text-anchor="middle" x="394" y="-106" font-family="Helvetica,sans-Serif" font-size="10.00">yaclib::detail::InlineCore</text>
</a>
</g>
</g>
<!-- Node1&#45;&gt;Node5 -->
<g id="edge4" class="edge">
<title>Node1&#45;&gt;Node5</title>
<path fill="none" stroke="midnightblue" d="M307,-86.66C322.5,-90.59 340.14,-95.08 355.4,-98.95"/>
<polygon fill="midnightblue" stroke="midnightblue" points="307.73,-83.23 297.18,-84.16 306.01,-90.02 307.73,-83.23"/>
</g>
<!-- Node18 -->
<g id="node18" class="node">
<title>Node18</title>
<g id="a_node18"><a xlink:href="classyaclib_1_1detail_1_1UniqueJob.html" target="_top" xlink:title=" ">
<polygon fill="none" stroke="black" points="334,-49.5 334,-79.5 454,-79.5 454,-49.5 334,-49.5"/>
<text text-anchor="start" x="342" y="-67.5" font-family="Helvetica,sans-Serif" font-size="10.00">yaclib::detail::UniqueJob</text>
<text text-anchor="middle" x="394" y="-56.5" font-family="Helvetica,sans-Serif" font-size="10.00">&lt; Func &gt;</text>
</a>
</g>
</g>
<!-- Node1&#45;&gt;Node18 -->
<g id="edge19" class="edge">
<title>Node1&#45;&gt;Node18</title>
<path fill="none" stroke="midnightblue" d="M307.2,-72.67C315.71,-71.86 324.87,-70.99 333.91,-70.13"/>
<polygon fill="midnightblue" stroke="midnightblue" points="306.8,-69.19 297.18,-73.63 307.47,-76.16 306.8,-69.19"/>
</g>
<!-- Node2 -->
<g id="node2" class="node">
<title>Node2</title>
<g id="a_node2"><a xlink:href="structyaclib_1_1detail_1_1Node.html" target="_top" xlink:title="Node class, used in intrusive data structure.">
<polygon fill="none" stroke="black" points="101,-86 101,-105 198,-105 198,-86 101,-86"/>
<text text-anchor="middle" x="149.5" y="-93" font-family="Helvetica,sans-Serif" font-size="10.00">yaclib::detail::Node</text>
</a>
</g>
</g>
<!-- Node2&#45;&gt;Node1 -->
<g id="edge1" class="edge">
<title>Node2&#45;&gt;Node1</title>
<path fill="none" stroke="midnightblue" d="M208.04,-85.95C217.27,-84.42 226.5,-82.89 234.75,-81.52"/>
<polygon fill="midnightblue" stroke="midnightblue" points="207.36,-82.52 198.06,-87.61 208.5,-89.42 207.36,-82.52"/>
</g>
<!-- Node3 -->
<g id="node3" class="node">
<title>Node3</title>
<g id="a_node3"><a xlink:href="classyaclib_1_1IFunc.html" target="_top" xlink:title="Callable interface.">
<polygon fill="none" stroke="black" points="114,-48 114,-67 185,-67 185,-48 114,-48"/>
<text text-anchor="middle" x="149.5" y="-55" font-family="Helvetica,sans-Serif" font-size="10.00">yaclib::IFunc</text>
</a>
</g>
</g>
<!-- Node3&#45;&gt;Node1 -->
<g id="edge2" class="edge">
<title>Node3&#45;&gt;Node1</title>
<path fill="none" stroke="midnightblue" d="M195.08,-64.9C208.35,-67.1 222.58,-69.46 234.72,-71.48"/>
<polygon fill="midnightblue" stroke="midnightblue" points="195.6,-61.44 185.16,-63.25 194.46,-68.34 195.6,-61.44"/>
</g>
<!-- Node4 -->
<g id="node4" class="node">
<title>Node4</title>
<g id="a_node4"><a xlink:href="classyaclib_1_1IRef.html" target="_top" xlink:title="Reference counting interface.">
<polygon fill="none" stroke="black" points="0,-48 0,-67 64,-67 64,-48 0,-48"/>
<text text-anchor="middle" x="32" y="-55" font-family="Helvetica,sans-Serif" font-size="10.00">yaclib::IRef</text>
</a>
</g>
</g>
<!-- Node4&#45;&gt;Node3 -->
<g id="edge3" class="edge">
<title>Node4&#45;&gt;Node3</title>
<path fill="none" stroke="midnightblue" d="M74.35,-57.5C87.33,-57.5 101.51,-57.5 113.97,-57.5"/>
<polygon fill="midnightblue" stroke="midnightblue" points="74.26,-54 64.26,-57.5 74.26,-61 74.26,-54"/>
</g>
<!-- Node6 -->
<g id="node6" class="node">
<title>Node6</title>
<g id="a_node6"><a xlink:href="classyaclib_1_1detail_1_1AllCombinator.html" target="_top" xlink:title=" ">
<polygon fill="none" stroke="black" points="494,-142.5 494,-172.5 628,-172.5 628,-142.5 494,-142.5"/>
<text text-anchor="start" x="502" y="-160.5" font-family="Helvetica,sans-Serif" font-size="10.00">yaclib::detail::AllCombinator</text>
<text text-anchor="middle" x="561" y="-149.5" font-family="Helvetica,sans-Serif" font-size="10.00">&lt; V, E, N, FutureValue &gt;</text>
</a>
</g>
</g>
<!-- Node5&#45;&gt;Node6 -->
<g id="edge5" class="edge">
<title>Node5&#45;&gt;Node6</title>
<path fill="none" stroke="midnightblue" d="M436.94,-120.95C458.98,-127.5 486.16,-135.57 509.37,-142.46"/>
<polygon fill="midnightblue" stroke="midnightblue" points="437.79,-117.56 427.21,-118.06 435.8,-124.27 437.79,-117.56"/>
</g>
<!-- Node7 -->
<g id="node7" class="node">
<title>Node7</title>
<g id="a_node7"><a xlink:href="classyaclib_1_1detail_1_1AnyCombinator.html" target="_top" xlink:title=" ">
<polygon fill="none" stroke="black" points="491,-93.5 491,-123.5 631,-123.5 631,-93.5 491,-93.5"/>
<text text-anchor="start" x="499" y="-111.5" font-family="Helvetica,sans-Serif" font-size="10.00">yaclib::detail::AnyCombinator</text>
<text text-anchor="middle" x="561" y="-100.5" font-family="Helvetica,sans-Serif" font-size="10.00">&lt; V, E, P &gt;</text>
</a>
</g>
</g>
<!-- Node5&#45;&gt;Node7 -->
<g id="edge6" class="edge">
<title>Node5&#45;&gt;Node7</title>
<path fill="none" stroke="midnightblue" d="M463.01,-108.5C472.24,-108.5 481.73,-108.5 490.98,-108.5"/>
<polygon fill="midnightblue" stroke="midnightblue" points="462.71,-105 452.71,-108.5 462.71,-112 462.71,-105"/>
</g>
<!-- Node8 -->
<g id="node8" class="node">
<title>Node8</title>
<g id="a_node8"><a xlink:href="classyaclib_1_1detail_1_1BaseCore.html" target="_top" xlink:title=" ">
<polygon fill="none" stroke="black" points="503,-55 503,-74 619,-74 619,-55 503,-55"/>
<text text-anchor="middle" x="561" y="-62" font-family="Helvetica,sans-Serif" font-size="10.00">yaclib::detail::BaseCore</text>
</a>
</g>
</g>
<!-- Node5&#45;&gt;Node8 -->
<g id="edge7" class="edge">
<title>Node5&#45;&gt;Node8</title>
<path fill="none" stroke="midnightblue" d="M440.58,-96.35C466.98,-89.3 499.74,-80.57 524.27,-74.03"/>
<polygon fill="midnightblue" stroke="midnightblue" points="439.56,-92.99 430.8,-98.95 441.37,-99.76 439.56,-92.99"/>
</g>
<!-- Node9 -->
<g id="node9" class="node">
<title>Node9</title>
<g id="a_node9"><a xlink:href="classyaclib_1_1detail_1_1ResultCore.html" target="_top" xlink:title=" ">
<polygon fill="none" stroke="black" points="899,-90.5 899,-120.5 1021,-120.5 1021,-90.5 899,-90.5"/>
<text text-anchor="start" x="907" y="-108.5" font-family="Helvetica,sans-Serif" font-size="10.00">yaclib::detail::ResultCore</text>
<text text-anchor="middle" x="960" y="-97.5" font-family="Helvetica,sans-Serif" font-size="10.00">&lt; void, E &gt;</text>
</a>
</g>
</g>
<!-- Node8&#45;&gt;Node9 -->
<g id="edge8" class="edge">
<title>Node8&#45;&gt;Node9</title>
<path fill="none" stroke="midnightblue" d="M607.27,-76.47C625.95,-80.96 647.89,-85.66 668,-88.5 747.3,-99.72 839.76,-103.56 898.8,-104.86"/>
<polygon fill="midnightblue" stroke="midnightblue" points="608.09,-73.07 597.55,-74.08 606.42,-79.87 608.09,-73.07"/>
</g>
<!-- Node13 -->
<g id="node13" class="node">
<title>Node13</title>
<g id="a_node13"><a xlink:href="classyaclib_1_1detail_1_1ResultCore.html" target="_top" xlink:title=" ">
<polygon fill="none" stroke="black" points="668,-49.5 668,-79.5 790,-79.5 790,-49.5 668,-49.5"/>
<text text-anchor="start" x="676" y="-67.5" font-family="Helvetica,sans-Serif" font-size="10.00">yaclib::detail::ResultCore</text>
<text text-anchor="middle" x="729" y="-56.5" font-family="Helvetica,sans-Serif" font-size="10.00">&lt; V, E &gt;</text>
</a>
</g>
</g>
<!-- Node8&#45;&gt;Node13 -->
<g id="edge12" class="edge">
<title>Node8&#45;&gt;Node13</title>
<path fill="none" stroke="midnightblue" d="M629.26,-64.5C642.06,-64.5 655.38,-64.5 667.94,-64.5"/>
<polygon fill="midnightblue" stroke="midnightblue" points="629.13,-61 619.13,-64.5 629.13,-68 629.13,-61"/>
</g>
<!-- Node17 -->
<g id="node17" class="node">
<title>Node17</title>
<g id="a_node17"><a xlink:href="classyaclib_1_1detail_1_1ResultCore_3_01void_00_01void_01_4.html" target="_top" xlink:title=" ">
<polygon fill="none" stroke="black" points="668,-0.5 668,-30.5 790,-30.5 790,-0.5 668,-0.5"/>
<text text-anchor="start" x="676" y="-18.5" font-family="Helvetica,sans-Serif" font-size="10.00">yaclib::detail::ResultCore</text>
<text text-anchor="middle" x="729" y="-7.5" font-family="Helvetica,sans-Serif" font-size="10.00">&lt; void, void &gt;</text>
</a>
</g>
</g>
<!-- Node8&#45;&gt;Node17 -->
<g id="edge18" class="edge">
<title>Node8&#45;&gt;Node17</title>
<path fill="none" stroke="midnightblue" d="M604.19,-52.05C626.36,-45.5 653.71,-37.43 677.06,-30.54"/>
<polygon fill="midnightblue" stroke="midnightblue" points="603,-48.75 594.4,-54.94 604.98,-55.46 603,-48.75"/>
</g>
<!-- Node10 -->
<g id="node10" class="node">
<title>Node10</title>
<g id="a_node10"><a xlink:href="structyaclib_1_1detail_1_1AtomicCounter.html" target="_top" xlink:title=" ">
<polygon fill="none" stroke="black" points="1082,-85 1082,-126 1220,-126 1220,-85 1082,-85"/>
<text text-anchor="start" x="1090" y="-114" font-family="Helvetica,sans-Serif" font-size="10.00">yaclib::detail::AtomicCounter</text>
<text text-anchor="start" x="1090" y="-103" font-family="Helvetica,sans-Serif" font-size="10.00">&lt; ResultCore&lt; void, E &gt;,</text>
<text text-anchor="middle" x="1151" y="-92" font-family="Helvetica,sans-Serif" font-size="10.00"> PromiseTypeDeleter &gt;</text>
</a>
</g>
</g>
<!-- Node9&#45;&gt;Node10 -->
<g id="edge9" class="edge">
<title>Node9&#45;&gt;Node10</title>
<path fill="none" stroke="midnightblue" d="M1031.21,-105.5C1047.78,-105.5 1065.41,-105.5 1081.87,-105.5"/>
<polygon fill="midnightblue" stroke="midnightblue" points="1031.06,-102 1021.06,-105.5 1031.06,-109 1031.06,-102"/>
</g>
<!-- Node11 -->
<g id="node11" class="node">
<title>Node11</title>
<g id="a_node11"><a xlink:href="classyaclib_1_1detail_1_1BasePromiseType.html" target="_top" xlink:title=" ">
<polygon fill="none" stroke="black" points="1305,-85.5 1305,-115.5 1437,-115.5 1437,-85.5 1305,-85.5"/>
<text text-anchor="start" x="1313" y="-103.5" font-family="Helvetica,sans-Serif" font-size="10.00">yaclib::detail::BasePromise</text>
<text text-anchor="middle" x="1371" y="-92.5" font-family="Helvetica,sans-Serif" font-size="10.00">Type&lt; void, E &gt;</text>
</a>
</g>
</g>
<!-- Node10&#45;&gt;Node11 -->
<g id="edge10" class="edge">
<title>Node10&#45;&gt;Node11</title>
<path fill="none" stroke="midnightblue" d="M1230.37,-103.7C1254.72,-103.14 1281.3,-102.53 1304.67,-102"/>
<polygon fill="midnightblue" stroke="midnightblue" points="1230,-100.21 1220.08,-103.94 1230.16,-107.21 1230,-100.21"/>
</g>
<!-- Node12 -->
<g id="node12" class="node">
<title>Node12</title>
<g id="a_node12"><a xlink:href="classyaclib_1_1detail_1_1PromiseType_3_01void_00_01E_01_4.html" target="_top" xlink:title=" ">
<polygon fill="none" stroke="black" points="1474,-85.5 1474,-115.5 1605,-115.5 1605,-85.5 1474,-85.5"/>
<text text-anchor="start" x="1482" y="-103.5" font-family="Helvetica,sans-Serif" font-size="10.00">yaclib::detail::PromiseType</text>
<text text-anchor="middle" x="1539.5" y="-92.5" font-family="Helvetica,sans-Serif" font-size="10.00">&lt; void, E &gt;</text>
</a>
</g>
</g>
<!-- Node11&#45;&gt;Node12 -->
<g id="edge11" class="edge">
<title>Node11&#45;&gt;Node12</title>
<path fill="none" stroke="midnightblue" d="M1447.57,-100.5C1456.37,-100.5 1465.28,-100.5 1473.91,-100.5"/>
<polygon fill="midnightblue" stroke="midnightblue" points="1447.33,-97 1437.33,-100.5 1447.33,-104 1447.33,-97"/>
</g>
<!-- Node13&#45;&gt;Node9 -->
<g id="edge17" class="edge">
<title>Node13&#45;&gt;Node9</title>
<path fill="none" stroke="orange" stroke-dasharray="5,2" d="M800.31,-74.2C818.79,-76.97 838.68,-80.16 857,-83.5 870.63,-85.99 885.23,-88.95 898.99,-91.89"/>
<polygon fill="orange" stroke="orange" points="800.62,-70.71 790.21,-72.7 799.59,-77.63 800.62,-70.71"/>
<text text-anchor="middle" x="832.5" y="-86.5" font-family="Helvetica,sans-Serif" font-size="10.00"> &lt; void, E &gt;</text>
</g>
<!-- Node14 -->
<g id="node14" class="node">
<title>Node14</title>
<g id="a_node14"><a xlink:href="structyaclib_1_1detail_1_1AtomicCounter.html" target="_top" xlink:title=" ">
<polygon fill="none" stroke="black" points="875,-29 875,-70 1045,-70 1045,-29 875,-29"/>
<text text-anchor="start" x="883" y="-58" font-family="Helvetica,sans-Serif" font-size="10.00">yaclib::detail::AtomicCounter</text>
<text text-anchor="start" x="883" y="-47" font-family="Helvetica,sans-Serif" font-size="10.00">&lt; ResultCore&lt; V, E &gt;, PromiseType</text>
<text text-anchor="middle" x="960" y="-36" font-family="Helvetica,sans-Serif" font-size="10.00">Deleter &gt;</text>
</a>
</g>
</g>
<!-- Node13&#45;&gt;Node14 -->
<g id="edge13" class="edge">
<title>Node13&#45;&gt;Node14</title>
<path fill="none" stroke="midnightblue" d="M800.38,-59.89C823.87,-58.35 850.27,-56.62 874.7,-55.02"/>
<polygon fill="midnightblue" stroke="midnightblue" points="799.92,-56.41 790.17,-60.56 800.37,-63.4 799.92,-56.41"/>
</g>
<!-- Node15 -->
<g id="node15" class="node">
<title>Node15</title>
<g id="a_node15"><a xlink:href="classyaclib_1_1detail_1_1BasePromiseType.html" target="_top" xlink:title=" ">
<polygon fill="none" stroke="black" points="1085,-34.5 1085,-64.5 1217,-64.5 1217,-34.5 1085,-34.5"/>
<text text-anchor="start" x="1093" y="-52.5" font-family="Helvetica,sans-Serif" font-size="10.00">yaclib::detail::BasePromise</text>
<text text-anchor="middle" x="1151" y="-41.5" font-family="Helvetica,sans-Serif" font-size="10.00">Type&lt; V, E &gt;</text>
</a>
</g>
</g>
<!-- Node14&#45;&gt;Node15 -->
<g id="edge14" class="edge">
<title>Node14&#45;&gt;Node15</title>
<path fill="none" stroke="midnightblue" d="M1055.28,-49.5C1065.29,-49.5 1075.32,-49.5 1084.89,-49.5"/>
<polygon fill="midnightblue" stroke="midnightblue" points="1055.27,-46 1045.27,-49.5 1055.27,-53 1055.27,-46"/>
</g>
<!-- Node15&#45;&gt;Node11 -->
<g id="edge16" class="edge">
<title>Node15&#45;&gt;Node11</title>
<path fill="none" stroke="orange" stroke-dasharray="5,2" d="M1226,-66.81C1251.93,-72.88 1280.81,-79.63 1305.85,-85.49"/>
<polygon fill="orange" stroke="orange" points="1226.76,-63.4 1216.23,-64.53 1225.17,-70.21 1226.76,-63.4"/>
<text text-anchor="middle" x="1262.5" y="-84.5" font-family="Helvetica,sans-Serif" font-size="10.00"> &lt; void, E &gt;</text>
</g>
<!-- Node16 -->
<g id="node16" class="node">
<title>Node16</title>
<g id="a_node16"><a xlink:href="classyaclib_1_1detail_1_1PromiseType.html" target="_top" xlink:title=" ">
<polygon fill="none" stroke="black" points="1305.5,-31.5 1305.5,-61.5 1436.5,-61.5 1436.5,-31.5 1305.5,-31.5"/>
<text text-anchor="start" x="1313.5" y="-49.5" font-family="Helvetica,sans-Serif" font-size="10.00">yaclib::detail::PromiseType</text>
<text text-anchor="middle" x="1371" y="-38.5" font-family="Helvetica,sans-Serif" font-size="10.00">&lt; V, E &gt;</text>
</a>
</g>
</g>
<!-- Node15&#45;&gt;Node16 -->
<g id="edge15" class="edge">
<title>Node15&#45;&gt;Node16</title>
<path fill="none" stroke="midnightblue" d="M1227.42,-48.46C1252.75,-48.11 1280.78,-47.73 1305.22,-47.39"/>
<polygon fill="midnightblue" stroke="midnightblue" points="1227.06,-44.97 1217.11,-48.6 1227.16,-51.97 1227.06,-44.97"/>
</g>
</g>
</svg>
