<?xml version="1.0" encoding="UTF-8" standalone="no"?>
<!DOCTYPE svg PUBLIC "-//W3C//DTD SVG 1.1//EN"
 "http://www.w3.org/Graphics/SVG/1.1/DTD/svg11.dtd">
<!-- Generated by graphviz version 3.0.0 (20220413.0106)
 -->
<!-- Title: yaclib::IRef Pages: 1 -->
<svg width="1721pt" height="235pt"
 viewBox="0.00 0.00 1721.00 234.50" xmlns="http://www.w3.org/2000/svg" xmlns:xlink="http://www.w3.org/1999/xlink">
<g id="graph0" class="graph" transform="scale(1 1) rotate(0) translate(4 230.5)">
<title>yaclib::IRef</title>
<!-- Node1 -->
<g id="node1" class="node">
<title>Node1</title>
<g id="a_node1"><a xlink:title="Reference counting interface.">
<polygon fill="#bfbfbf" stroke="black" points="0,-87.5 0,-106.5 64,-106.5 64,-87.5 0,-87.5"/>
<text text-anchor="middle" x="32" y="-94.5" font-family="Helvetica,sans-Serif" font-size="10.00">yaclib::IRef</text>
</a>
</g>
</g>
<!-- Node2 -->
<g id="node2" class="node">
<title>Node2</title>
<g id="a_node2"><a xlink:href="classyaclib_1_1IExecutor.html" target="_top" xlink:title=" ">
<polygon fill="none" stroke="black" points="122.5,-163.5 122.5,-182.5 208.5,-182.5 208.5,-163.5 122.5,-163.5"/>
<text text-anchor="middle" x="165.5" y="-170.5" font-family="Helvetica,sans-Serif" font-size="10.00">yaclib::IExecutor</text>
</a>
</g>
</g>
<!-- Node1&#45;&gt;Node2 -->
<g id="edge1" class="edge">
<title>Node1&#45;&gt;Node2</title>
<path fill="none" stroke="midnightblue" d="M49.42,-114.12C62.37,-126.74 81.46,-143.47 101,-154 107.99,-157.77 115.83,-160.88 123.54,-163.43"/>
<polygon fill="midnightblue" stroke="midnightblue" points="51.74,-111.49 42.2,-106.88 46.79,-116.43 51.74,-111.49"/>
</g>
<!-- Node5 -->
<g id="node5" class="node">
<title>Node5</title>
<g id="a_node5"><a xlink:href="classyaclib_1_1IFunc.html" target="_top" xlink:title="Callable interface.">
<polygon fill="none" stroke="black" points="130,-125.5 130,-144.5 201,-144.5 201,-125.5 130,-125.5"/>
<text text-anchor="middle" x="165.5" y="-132.5" font-family="Helvetica,sans-Serif" font-size="10.00">yaclib::IFunc</text>
</a>
</g>
</g>
<!-- Node1&#45;&gt;Node5 -->
<g id="edge4" class="edge">
<title>Node1&#45;&gt;Node5</title>
<path fill="none" stroke="midnightblue" d="M73.78,-108.78C92.25,-114.12 113.8,-120.35 131.26,-125.39"/>
<polygon fill="midnightblue" stroke="midnightblue" points="74.74,-105.42 64.16,-106.01 72.8,-112.14 74.74,-105.42"/>
</g>
<!-- Node22 -->
<g id="node22" class="node">
<title>Node22</title>
<g id="a_node22"><a xlink:href="classyaclib_1_1IThreadFactory.html" target="_top" xlink:title=" ">
<polygon fill="none" stroke="black" points="110,-87.5 110,-106.5 221,-106.5 221,-87.5 110,-87.5"/>
<text text-anchor="middle" x="165.5" y="-94.5" font-family="Helvetica,sans-Serif" font-size="10.00">yaclib::IThreadFactory</text>
</a>
</g>
</g>
<!-- Node1&#45;&gt;Node22 -->
<g id="edge23" class="edge">
<title>Node1&#45;&gt;Node22</title>
<path fill="none" stroke="midnightblue" d="M74.19,-97C85.5,-97 97.95,-97 109.89,-97"/>
<polygon fill="midnightblue" stroke="midnightblue" points="74.16,-93.5 64.16,-97 74.16,-100.5 74.16,-93.5"/>
</g>
<!-- Node23 -->
<g id="node23" class="node">
<title>Node23</title>
<g id="a_node23"><a xlink:href="classyaclib_1_1detail_1_1AtomicEvent.html" target="_top" xlink:title=" ">
<polygon fill="none" stroke="black" points="101,-49.5 101,-68.5 230,-68.5 230,-49.5 101,-49.5"/>
<text text-anchor="middle" x="165.5" y="-56.5" font-family="Helvetica,sans-Serif" font-size="10.00">yaclib::detail::AtomicEvent</text>
</a>
</g>
</g>
<!-- Node1&#45;&gt;Node23 -->
<g id="edge24" class="edge">
<title>Node1&#45;&gt;Node23</title>
<path fill="none" stroke="midnightblue" d="M73.78,-85.22C92.25,-79.88 113.8,-73.65 131.26,-68.61"/>
<polygon fill="midnightblue" stroke="midnightblue" points="72.8,-81.86 64.16,-87.99 74.74,-88.58 72.8,-81.86"/>
</g>
<!-- Node24 -->
<g id="node24" class="node">
<title>Node24</title>
<g id="a_node24"><a xlink:href="classyaclib_1_1detail_1_1MutexEvent.html" target="_top" xlink:title=" ">
<polygon fill="none" stroke="black" points="103,-11.5 103,-30.5 228,-30.5 228,-11.5 103,-11.5"/>
<text text-anchor="middle" x="165.5" y="-18.5" font-family="Helvetica,sans-Serif" font-size="10.00">yaclib::detail::MutexEvent</text>
</a>
</g>
</g>
<!-- Node1&#45;&gt;Node24 -->
<g id="edge25" class="edge">
<title>Node1&#45;&gt;Node24</title>
<path fill="none" stroke="midnightblue" d="M49.42,-79.88C62.37,-67.26 81.46,-50.53 101,-40 107.99,-36.23 115.83,-33.12 123.54,-30.57"/>
<polygon fill="midnightblue" stroke="midnightblue" points="46.79,-77.57 42.2,-87.12 51.74,-82.51 46.79,-77.57"/>
</g>
<!-- Node3 -->
<g id="node3" class="node">
<title>Node3</title>
<g id="a_node3"><a xlink:href="classyaclib_1_1IThreadPool.html" target="_top" xlink:title="Interface for thread&#45;pool&#45;like executors.">
<polygon fill="none" stroke="black" points="287,-201.5 287,-220.5 385,-220.5 385,-201.5 287,-201.5"/>
<text text-anchor="middle" x="336" y="-208.5" font-family="Helvetica,sans-Serif" font-size="10.00">yaclib::IThreadPool</text>
</a>
</g>
</g>
<!-- Node2&#45;&gt;Node3 -->
<g id="edge2" class="edge">
<title>Node2&#45;&gt;Node3</title>
<path fill="none" stroke="midnightblue" d="M218.54,-184.74C242.41,-190.12 270.34,-196.42 292.87,-201.5"/>
<polygon fill="midnightblue" stroke="midnightblue" points="219.11,-181.28 208.59,-182.49 217.57,-188.11 219.11,-181.28"/>
</g>
<!-- Node4 -->
<g id="node4" class="node">
<title>Node4</title>
<g id="a_node4"><a xlink:href="classyaclib_1_1detail_1_1Inline.html" target="_top" xlink:title=" ">
<polygon fill="none" stroke="black" points="287.5,-163.5 287.5,-182.5 384.5,-182.5 384.5,-163.5 287.5,-163.5"/>
<text text-anchor="middle" x="336" y="-170.5" font-family="Helvetica,sans-Serif" font-size="10.00">yaclib::detail::Inline</text>
</a>
</g>
</g>
<!-- Node2&#45;&gt;Node4 -->
<g id="edge3" class="edge">
<title>Node2&#45;&gt;Node4</title>
<path fill="none" stroke="midnightblue" d="M218.69,-173C240.57,-173 265.83,-173 287.2,-173"/>
<polygon fill="midnightblue" stroke="midnightblue" points="218.59,-169.5 208.59,-173 218.58,-176.5 218.59,-169.5"/>
</g>
<!-- Node6 -->
<g id="node6" class="node">
<title>Node6</title>
<g id="a_node6"><a xlink:href="classyaclib_1_1Job.html" target="_top" xlink:title="Callable that can be executed in an IExecutor.">
<polygon fill="none" stroke="black" points="305,-125.5 305,-144.5 367,-144.5 367,-125.5 305,-125.5"/>
<text text-anchor="middle" x="336" y="-132.5" font-family="Helvetica,sans-Serif" font-size="10.00">yaclib::Job</text>
</a>
</g>
</g>
<!-- Node5&#45;&gt;Node6 -->
<g id="edge5" class="edge">
<title>Node5&#45;&gt;Node6</title>
<path fill="none" stroke="midnightblue" d="M211.08,-135C240.66,-135 278.69,-135 304.78,-135"/>
<polygon fill="midnightblue" stroke="midnightblue" points="211.01,-131.5 201.01,-135 211.01,-138.5 211.01,-131.5"/>
</g>
<!-- Node21 -->
<g id="node21" class="node">
<title>Node21</title>
<g id="a_node21"><a xlink:href="classyaclib_1_1detail_1_1SharedFunc.html" target="_top" xlink:title=" ">
<polygon fill="none" stroke="black" points="273,-76 273,-106 399,-106 399,-76 273,-76"/>
<text text-anchor="start" x="281" y="-94" font-family="Helvetica,sans-Serif" font-size="10.00">yaclib::detail::SharedFunc</text>
<text text-anchor="middle" x="336" y="-83" font-family="Helvetica,sans-Serif" font-size="10.00">&lt; Func &gt;</text>
</a>
</g>
</g>
<!-- Node5&#45;&gt;Node21 -->
<g id="edge22" class="edge">
<title>Node5&#45;&gt;Node21</title>
<path fill="none" stroke="midnightblue" d="M210.93,-123.4C231.26,-118.09 255.6,-111.73 277.32,-106.06"/>
<polygon fill="midnightblue" stroke="midnightblue" points="209.8,-120.08 201.01,-125.99 211.56,-126.85 209.8,-120.08"/>
</g>
<!-- Node7 -->
<g id="node7" class="node">
<title>Node7</title>
<g id="a_node7"><a xlink:href="classyaclib_1_1detail_1_1InlineCore.html" target="_top" xlink:title=" ">
<polygon fill="none" stroke="black" points="443.5,-152.5 443.5,-171.5 560.5,-171.5 560.5,-152.5 443.5,-152.5"/>
<text text-anchor="middle" x="502" y="-159.5" font-family="Helvetica,sans-Serif" font-size="10.00">yaclib::detail::InlineCore</text>
</a>
</g>
</g>
<!-- Node6&#45;&gt;Node7 -->
<g id="edge6" class="edge">
<title>Node6&#45;&gt;Node7</title>
<path fill="none" stroke="midnightblue" d="M377.04,-141.59C396.94,-144.87 421.35,-148.89 443.23,-152.49"/>
<polygon fill="midnightblue" stroke="midnightblue" points="377.52,-138.12 367.08,-139.95 376.38,-145.03 377.52,-138.12"/>
</g>
<!-- Node20 -->
<g id="node20" class="node">
<title>Node20</title>
<g id="a_node20"><a xlink:href="classyaclib_1_1detail_1_1UniqueJob.html" target="_top" xlink:title=" ">
<polygon fill="none" stroke="black" points="442,-103 442,-133 562,-133 562,-103 442,-103"/>
<text text-anchor="start" x="450" y="-121" font-family="Helvetica,sans-Serif" font-size="10.00">yaclib::detail::UniqueJob</text>
<text text-anchor="middle" x="502" y="-110" font-family="Helvetica,sans-Serif" font-size="10.00">&lt; Func &gt;</text>
</a>
</g>
</g>
<!-- Node6&#45;&gt;Node20 -->
<g id="edge21" class="edge">
<title>Node6&#45;&gt;Node20</title>
<path fill="none" stroke="midnightblue" d="M377.13,-130.84C396.6,-128.82 420.38,-126.36 441.89,-124.13"/>
<polygon fill="midnightblue" stroke="midnightblue" points="376.67,-127.37 367.08,-131.88 377.39,-134.33 376.67,-127.37"/>
</g>
<!-- Node8 -->
<g id="node8" class="node">
<title>Node8</title>
<g id="a_node8"><a xlink:href="classyaclib_1_1detail_1_1AllCombinator.html" target="_top" xlink:title=" ">
<polygon fill="none" stroke="black" points="602,-196 602,-226 736,-226 736,-196 602,-196"/>
<text text-anchor="start" x="610" y="-214" font-family="Helvetica,sans-Serif" font-size="10.00">yaclib::detail::AllCombinator</text>
<text text-anchor="middle" x="669" y="-203" font-family="Helvetica,sans-Serif" font-size="10.00">&lt; V, E, N, FutureValue &gt;</text>
</a>
</g>
</g>
<!-- Node7&#45;&gt;Node8 -->
<g id="edge7" class="edge">
<title>Node7&#45;&gt;Node8</title>
<path fill="none" stroke="midnightblue" d="M544.94,-174.45C566.98,-181 594.16,-189.07 617.37,-195.96"/>
<polygon fill="midnightblue" stroke="midnightblue" points="545.79,-171.06 535.21,-171.56 543.8,-177.77 545.79,-171.06"/>
</g>
<!-- Node9 -->
<g id="node9" class="node">
<title>Node9</title>
<g id="a_node9"><a xlink:href="classyaclib_1_1detail_1_1AnyCombinator.html" target="_top" xlink:title=" ">
<polygon fill="none" stroke="black" points="599,-147 599,-177 739,-177 739,-147 599,-147"/>
<text text-anchor="start" x="607" y="-165" font-family="Helvetica,sans-Serif" font-size="10.00">yaclib::detail::AnyCombinator</text>
<text text-anchor="middle" x="669" y="-154" font-family="Helvetica,sans-Serif" font-size="10.00">&lt; V, E, P &gt;</text>
</a>
</g>
</g>
<!-- Node7&#45;&gt;Node9 -->
<g id="edge8" class="edge">
<title>Node7&#45;&gt;Node9</title>
<path fill="none" stroke="midnightblue" d="M571.01,-162C580.24,-162 589.73,-162 598.98,-162"/>
<polygon fill="midnightblue" stroke="midnightblue" points="570.71,-158.5 560.71,-162 570.71,-165.5 570.71,-158.5"/>
</g>
<!-- Node10 -->
<g id="node10" class="node">
<title>Node10</title>
<g id="a_node10"><a xlink:href="classyaclib_1_1detail_1_1BaseCore.html" target="_top" xlink:title=" ">
<polygon fill="none" stroke="black" points="611,-108.5 611,-127.5 727,-127.5 727,-108.5 611,-108.5"/>
<text text-anchor="middle" x="669" y="-115.5" font-family="Helvetica,sans-Serif" font-size="10.00">yaclib::detail::BaseCore</text>
</a>
</g>
</g>
<!-- Node7&#45;&gt;Node10 -->
<g id="edge9" class="edge">
<title>Node7&#45;&gt;Node10</title>
<path fill="none" stroke="midnightblue" d="M548.58,-149.85C574.98,-142.8 607.74,-134.07 632.27,-127.53"/>
<polygon fill="midnightblue" stroke="midnightblue" points="547.56,-146.49 538.8,-152.45 549.37,-153.26 547.56,-146.49"/>
</g>
<!-- Node11 -->
<g id="node11" class="node">
<title>Node11</title>
<g id="a_node11"><a xlink:href="classyaclib_1_1detail_1_1ResultCore.html" target="_top" xlink:title=" ">
<polygon fill="none" stroke="black" points="1007,-144 1007,-174 1129,-174 1129,-144 1007,-144"/>
<text text-anchor="start" x="1015" y="-162" font-family="Helvetica,sans-Serif" font-size="10.00">yaclib::detail::ResultCore</text>
<text text-anchor="middle" x="1068" y="-151" font-family="Helvetica,sans-Serif" font-size="10.00">&lt; void, E &gt;</text>
</a>
</g>
</g>
<!-- Node10&#45;&gt;Node11 -->
<g id="edge10" class="edge">
<title>Node10&#45;&gt;Node11</title>
<path fill="none" stroke="midnightblue" d="M713.48,-130.09C732.52,-134.9 755.22,-140 776,-143 855.25,-154.43 947.72,-157.84 1006.78,-158.78"/>
<polygon fill="midnightblue" stroke="midnightblue" points="714.16,-126.65 703.6,-127.53 712.41,-133.42 714.16,-126.65"/>
</g>
<!-- Node15 -->
<g id="node15" class="node">
<title>Node15</title>
<g id="a_node15"><a xlink:href="classyaclib_1_1detail_1_1ResultCore.html" target="_top" xlink:title=" ">
<polygon fill="none" stroke="black" points="776,-103 776,-133 898,-133 898,-103 776,-103"/>
<text text-anchor="start" x="784" y="-121" font-family="Helvetica,sans-Serif" font-size="10.00">yaclib::detail::ResultCore</text>
<text text-anchor="middle" x="837" y="-110" font-family="Helvetica,sans-Serif" font-size="10.00">&lt; V, E &gt;</text>
</a>
</g>
</g>
<!-- Node10&#45;&gt;Node15 -->
<g id="edge14" class="edge">
<title>Node10&#45;&gt;Node15</title>
<path fill="none" stroke="midnightblue" d="M737.26,-118C750.06,-118 763.38,-118 775.94,-118"/>
<polygon fill="midnightblue" stroke="midnightblue" points="737.13,-114.5 727.13,-118 737.13,-121.5 737.13,-114.5"/>
</g>
<!-- Node19 -->
<g id="node19" class="node">
<title>Node19</title>
<g id="a_node19"><a xlink:href="classyaclib_1_1detail_1_1ResultCore_3_01void_00_01void_01_4.html" target="_top" xlink:title=" ">
<polygon fill="none" stroke="black" points="776,-54 776,-84 898,-84 898,-54 776,-54"/>
<text text-anchor="start" x="784" y="-72" font-family="Helvetica,sans-Serif" font-size="10.00">yaclib::detail::ResultCore</text>
<text text-anchor="middle" x="837" y="-61" font-family="Helvetica,sans-Serif" font-size="10.00">&lt; void, void &gt;</text>
</a>
</g>
</g>
<!-- Node10&#45;&gt;Node19 -->
<g id="edge20" class="edge">
<title>Node10&#45;&gt;Node19</title>
<path fill="none" stroke="midnightblue" d="M712.19,-105.55C734.36,-99 761.71,-90.93 785.06,-84.04"/>
<polygon fill="midnightblue" stroke="midnightblue" points="711,-102.25 702.4,-108.44 712.98,-108.96 711,-102.25"/>
</g>
<!-- Node12 -->
<g id="node12" class="node">
<title>Node12</title>
<g id="a_node12"><a xlink:href="structyaclib_1_1detail_1_1AtomicCounter.html" target="_top" xlink:title=" ">
<polygon fill="none" stroke="black" points="1190,-138.5 1190,-179.5 1328,-179.5 1328,-138.5 1190,-138.5"/>
<text text-anchor="start" x="1198" y="-167.5" font-family="Helvetica,sans-Serif" font-size="10.00">yaclib::detail::AtomicCounter</text>
<text text-anchor="start" x="1198" y="-156.5" font-family="Helvetica,sans-Serif" font-size="10.00">&lt; ResultCore&lt; void, E &gt;,</text>
<text text-anchor="middle" x="1259" y="-145.5" font-family="Helvetica,sans-Serif" font-size="10.00"> PromiseTypeDeleter &gt;</text>
</a>
</g>
</g>
<!-- Node11&#45;&gt;Node12 -->
<g id="edge11" class="edge">
<title>Node11&#45;&gt;Node12</title>
<path fill="none" stroke="midnightblue" d="M1139.21,-159C1155.78,-159 1173.41,-159 1189.87,-159"/>
<polygon fill="midnightblue" stroke="midnightblue" points="1139.06,-155.5 1129.06,-159 1139.06,-162.5 1139.06,-155.5"/>
</g>
<!-- Node13 -->
<g id="node13" class="node">
<title>Node13</title>
<g id="a_node13"><a xlink:href="classyaclib_1_1detail_1_1BasePromiseType.html" target="_top" xlink:title=" ">
<polygon fill="none" stroke="black" points="1413,-139 1413,-169 1545,-169 1545,-139 1413,-139"/>
<text text-anchor="start" x="1421" y="-157" font-family="Helvetica,sans-Serif" font-size="10.00">yaclib::detail::BasePromise</text>
<text text-anchor="middle" x="1479" y="-146" font-family="Helvetica,sans-Serif" font-size="10.00">Type&lt; void, E &gt;</text>
</a>
</g>
</g>
<!-- Node12&#45;&gt;Node13 -->
<g id="edge12" class="edge">
<title>Node12&#45;&gt;Node13</title>
<path fill="none" stroke="midnightblue" d="M1338.37,-157.2C1362.72,-156.64 1389.3,-156.03 1412.67,-155.5"/>
<polygon fill="midnightblue" stroke="midnightblue" points="1338,-153.71 1328.08,-157.44 1338.16,-160.71 1338,-153.71"/>
</g>
<!-- Node14 -->
<g id="node14" class="node">
<title>Node14</title>
<g id="a_node14"><a xlink:href="classyaclib_1_1detail_1_1PromiseType_3_01void_00_01E_01_4.html" target="_top" xlink:title=" ">
<polygon fill="none" stroke="black" points="1582,-139 1582,-169 1713,-169 1713,-139 1582,-139"/>
<text text-anchor="start" x="1590" y="-157" font-family="Helvetica,sans-Serif" font-size="10.00">yaclib::detail::PromiseType</text>
<text text-anchor="middle" x="1647.5" y="-146" font-family="Helvetica,sans-Serif" font-size="10.00">&lt; void, E &gt;</text>
</a>
</g>
</g>
<!-- Node13&#45;&gt;Node14 -->
<g id="edge13" class="edge">
<title>Node13&#45;&gt;Node14</title>
<path fill="none" stroke="midnightblue" d="M1555.57,-154C1564.37,-154 1573.28,-154 1581.91,-154"/>
<polygon fill="midnightblue" stroke="midnightblue" points="1555.33,-150.5 1545.33,-154 1555.33,-157.5 1555.33,-150.5"/>
</g>
<!-- Node15&#45;&gt;Node11 -->
<g id="edge19" class="edge">
<title>Node15&#45;&gt;Node11</title>
<path fill="none" stroke="orange" stroke-dasharray="5,2" d="M908.31,-127.7C926.79,-130.47 946.68,-133.66 965,-137 978.63,-139.49 993.23,-142.45 1006.99,-145.39"/>
<polygon fill="orange" stroke="orange" points="908.62,-124.21 898.21,-126.2 907.59,-131.13 908.62,-124.21"/>
<text text-anchor="middle" x="940.5" y="-140" font-family="Helvetica,sans-Serif" font-size="10.00"> &lt; void, E &gt;</text>
</g>
<!-- Node16 -->
<g id="node16" class="node">
<title>Node16</title>
<g id="a_node16"><a xlink:href="structyaclib_1_1detail_1_1AtomicCounter.html" target="_top" xlink:title=" ">
<polygon fill="none" stroke="black" points="983,-82.5 983,-123.5 1153,-123.5 1153,-82.5 983,-82.5"/>
<text text-anchor="start" x="991" y="-111.5" font-family="Helvetica,sans-Serif" font-size="10.00">yaclib::detail::AtomicCounter</text>
<text text-anchor="start" x="991" y="-100.5" font-family="Helvetica,sans-Serif" font-size="10.00">&lt; ResultCore&lt; V, E &gt;, PromiseType</text>
<text text-anchor="middle" x="1068" y="-89.5" font-family="Helvetica,sans-Serif" font-size="10.00">Deleter &gt;</text>
</a>
</g>
</g>
<!-- Node15&#45;&gt;Node16 -->
<g id="edge15" class="edge">
<title>Node15&#45;&gt;Node16</title>
<path fill="none" stroke="midnightblue" d="M908.38,-113.39C931.87,-111.85 958.27,-110.12 982.7,-108.52"/>
<polygon fill="midnightblue" stroke="midnightblue" points="907.92,-109.91 898.17,-114.06 908.37,-116.9 907.92,-109.91"/>
</g>
<!-- Node17 -->
<g id="node17" class="node">
<title>Node17</title>
<g id="a_node17"><a xlink:href="classyaclib_1_1detail_1_1BasePromiseType.html" target="_top" xlink:title=" ">
<polygon fill="none" stroke="black" points="1193,-88 1193,-118 1325,-118 1325,-88 1193,-88"/>
<text text-anchor="start" x="1201" y="-106" font-family="Helvetica,sans-Serif" font-size="10.00">yaclib::detail::BasePromise</text>
<text text-anchor="middle" x="1259" y="-95" font-family="Helvetica,sans-Serif" font-size="10.00">Type&lt; V, E &gt;</text>
</a>
</g>
</g>
<!-- Node16&#45;&gt;Node17 -->
<g id="edge16" class="edge">
<title>Node16&#45;&gt;Node17</title>
<path fill="none" stroke="midnightblue" d="M1163.28,-103C1173.29,-103 1183.32,-103 1192.89,-103"/>
<polygon fill="midnightblue" stroke="midnightblue" points="1163.27,-99.5 1153.27,-103 1163.27,-106.5 1163.27,-99.5"/>
</g>
<!-- Node17&#45;&gt;Node13 -->
<g id="edge18" class="edge">
<title>Node17&#45;&gt;Node13</title>
<path fill="none" stroke="orange" stroke-dasharray="5,2" d="M1334,-120.31C1359.93,-126.38 1388.81,-133.13 1413.85,-138.99"/>
<polygon fill="orange" stroke="orange" points="1334.76,-116.9 1324.23,-118.03 1333.17,-123.71 1334.76,-116.9"/>
<text text-anchor="middle" x="1370.5" y="-137" font-family="Helvetica,sans-Serif" font-size="10.00"> &lt; void, E &gt;</text>
</g>
<!-- Node18 -->
<g id="node18" class="node">
<title>Node18</title>
<g id="a_node18"><a xlink:href="classyaclib_1_1detail_1_1PromiseType.html" target="_top" xlink:title=" ">
<polygon fill="none" stroke="black" points="1413.5,-85 1413.5,-115 1544.5,-115 1544.5,-85 1413.5,-85"/>
<text text-anchor="start" x="1421.5" y="-103" font-family="Helvetica,sans-Serif" font-size="10.00">yaclib::detail::PromiseType</text>
<text text-anchor="middle" x="1479" y="-92" font-family="Helvetica,sans-Serif" font-size="10.00">&lt; V, E &gt;</text>
</a>
</g>
</g>
<!-- Node17&#45;&gt;Node18 -->
<g id="edge17" class="edge">
<title>Node17&#45;&gt;Node18</title>
<path fill="none" stroke="midnightblue" d="M1335.42,-101.96C1360.75,-101.61 1388.78,-101.23 1413.22,-100.89"/>
<polygon fill="midnightblue" stroke="midnightblue" points="1335.06,-98.47 1325.11,-102.1 1335.16,-105.47 1335.06,-98.47"/>
</g>
<!-- Node25 -->
<g id="node25" class="node">
<title>Node25</title>
<g id="a_node25"><a xlink:href="structyaclib_1_1detail_1_1AtomicCounter.html" target="_top" xlink:title=" ">
<polygon fill="none" stroke="black" points="267,-0.5 267,-41.5 405,-41.5 405,-0.5 267,-0.5"/>
<text text-anchor="start" x="275" y="-29.5" font-family="Helvetica,sans-Serif" font-size="10.00">yaclib::detail::AtomicCounter</text>
<text text-anchor="start" x="275" y="-18.5" font-family="Helvetica,sans-Serif" font-size="10.00">&lt; detail::DefaultEvent, detail</text>
<text text-anchor="middle" x="336" y="-7.5" font-family="Helvetica,sans-Serif" font-size="10.00">::SetAllDeleter &gt;</text>
</a>
</g>
</g>
<!-- Node24&#45;&gt;Node25 -->
<g id="edge26" class="edge">
<title>Node24&#45;&gt;Node25</title>
<path fill="none" stroke="midnightblue" d="M238.45,-21C247.91,-21 257.58,-21 266.97,-21"/>
<polygon fill="midnightblue" stroke="midnightblue" points="238.29,-17.5 228.29,-21 238.29,-24.5 238.29,-17.5"/>
</g>
</g>
</svg>
