<?xml version="1.0" encoding="UTF-8" standalone="no"?>
<!DOCTYPE svg PUBLIC "-//W3C//DTD SVG 1.1//EN"
 "http://www.w3.org/Graphics/SVG/1.1/DTD/svg11.dtd">
<!-- Generated by graphviz version 3.0.0 (20220413.0106)
 -->
<!-- Title: yaclib::detail::PromiseType&lt; void, E &gt; Pages: 1 -->
<!--zoomable 320 -->
<svg id="main" version="1.1" xmlns="http://www.w3.org/2000/svg" xmlns:xlink="http://www.w3.org/1999/xlink" xml:space="preserve" onload="init(evt)">
<style type="text/css"><![CDATA[
.edge:hover path { stroke: red; }
.edge:hover polygon { stroke: red; fill: red; }
]]></style>
<script type="text/javascript"><![CDATA[
var edges = document.getElementsByTagName('g');
if (edges && edges.length) {
  for (var i=0;i<edges.length;i++) {
    if (edges[i].id.substr(0,4)=='edge') {
      edges[i].setAttribute('class','edge');
    }
  }
}
]]></script>
        <defs>
                <circle id="rim" cx="0" cy="0" r="7"/>
                <circle id="rim2" cx="0" cy="0" r="3.5"/>
                <g id="zoomPlus">
                        <use xlink:href="#rim" fill="#404040">
                                <set attributeName="fill" to="#808080" begin="zoomplus.mouseover" end="zoomplus.mouseout"/>
                        </use>
                        <path d="M-4,0h8M0,-4v8" fill="none" stroke="white" stroke-width="1.5" pointer-events="none"/>
                </g>
                <g id="zoomMin">
                        <use xlink:href="#rim" fill="#404040">
                                <set attributeName="fill" to="#808080" begin="zoomminus.mouseover" end="zoomminus.mouseout"/>
                        </use>
                        <path d="M-4,0h8" fill="none" stroke="white" stroke-width="1.5" pointer-events="none"/>
                </g>
                <g id="dirArrow">
                        <path fill="none" stroke="white" stroke-width="1.5" d="M0,-3.0v7 M-2.5,-0.5L0,-3.0L2.5,-0.5"/>
                </g>
               <g id="resetDef">
                       <use xlink:href="#rim2" fill="#404040">
                               <set attributeName="fill" to="#808080" begin="reset.mouseover" end="reset.mouseout"/>
                       </use>
               </g>
        </defs>

<script type="text/javascript">
var viewWidth = 1881;
var viewHeight = 320;
var sectionId = 'dynsection-1';
</script>
<script xlink:href="svgpan.js"/>
<svg id="graph" class="graph">
<g id="viewport">
<title>yaclib::detail::PromiseType&lt; void, E &gt;</title>
<!-- Node1 -->
<g id="node1" class="node">
<title>Node1</title>
<g id="a_node1"><a xlink:title=" ">
<polygon fill="#bfbfbf" stroke="black" points="1742,-176.5 1742,-206.5 1873,-206.5 1873,-176.5 1742,-176.5"/>
<text text-anchor="start" x="1750" y="-194.5" font-family="Helvetica,sans-Serif" font-size="10.00">yaclib::detail::PromiseType</text>
<text text-anchor="middle" x="1807.5" y="-183.5" font-family="Helvetica,sans-Serif" font-size="10.00">&lt; void, E &gt;</text>
</a>
</g>
</g>
<!-- Node2 -->
<g id="node2" class="node">
<title>Node2</title>
<g id="a_node2"><a xlink:href="classyaclib_1_1detail_1_1BasePromiseType.html" target="_top" xlink:title=" ">
<polygon fill="none" stroke="black" points="1573,-176.5 1573,-206.5 1705,-206.5 1705,-176.5 1573,-176.5"/>
<text text-anchor="start" x="1581" y="-194.5" font-family="Helvetica,sans-Serif" font-size="10.00">yaclib::detail::BasePromise</text>
<text text-anchor="middle" x="1639" y="-183.5" font-family="Helvetica,sans-Serif" font-size="10.00">Type&lt; void, E &gt;</text>
</a>
</g>
</g>
<!-- Node2&#45;&gt;Node1 -->
<g id="edge1" class="edge">
<title>Node2&#45;&gt;Node1</title>
<path fill="none" stroke="midnightblue" d="M1715.57,-191.5C1724.37,-191.5 1733.28,-191.5 1741.91,-191.5"/>
<polygon fill="midnightblue" stroke="midnightblue" points="1715.33,-188 1705.33,-191.5 1715.33,-195 1715.33,-188"/>
</g>
<!-- Node3 -->
<g id="node3" class="node">
<title>Node3</title>
<g id="a_node3"><a xlink:href="structyaclib_1_1detail_1_1AtomicCounter.html" target="_top" xlink:title=" ">
<polygon fill="none" stroke="black" points="1350,-145 1350,-186 1488,-186 1488,-145 1350,-145"/>
<text text-anchor="start" x="1358" y="-174" font-family="Helvetica,sans-Serif" font-size="10.00">yaclib::detail::AtomicCounter</text>
<text text-anchor="start" x="1358" y="-163" font-family="Helvetica,sans-Serif" font-size="10.00">&lt; ResultCore&lt; void, E &gt;,</text>
<text text-anchor="middle" x="1419" y="-152" font-family="Helvetica,sans-Serif" font-size="10.00"> PromiseTypeDeleter &gt;</text>
</a>
</g>
</g>
<!-- Node3&#45;&gt;Node2 -->
<g id="edge2" class="edge">
<title>Node3&#45;&gt;Node2</title>
<path fill="none" stroke="midnightblue" d="M1498.04,-174.81C1522.49,-177.72 1549.2,-180.91 1572.67,-183.71"/>
<polygon fill="midnightblue" stroke="midnightblue" points="1498.42,-171.33 1488.08,-173.62 1497.59,-178.28 1498.42,-171.33"/>
</g>
<!-- Node4 -->
<g id="node4" class="node">
<title>Node4</title>
<g id="a_node4"><a xlink:href="classyaclib_1_1detail_1_1ResultCore.html" target="_top" xlink:title=" ">
<polygon fill="none" stroke="black" points="1167,-63.5 1167,-93.5 1289,-93.5 1289,-63.5 1167,-63.5"/>
<text text-anchor="start" x="1175" y="-81.5" font-family="Helvetica,sans-Serif" font-size="10.00">yaclib::detail::ResultCore</text>
<text text-anchor="middle" x="1228" y="-70.5" font-family="Helvetica,sans-Serif" font-size="10.00">&lt; void, E &gt;</text>
</a>
</g>
</g>
<!-- Node4&#45;&gt;Node3 -->
<g id="edge3" class="edge">
<title>Node4&#45;&gt;Node3</title>
<path fill="none" stroke="midnightblue" d="M1271.39,-98.01C1301.75,-111.99 1342.57,-130.78 1373.42,-144.98"/>
<polygon fill="midnightblue" stroke="midnightblue" points="1272.47,-94.66 1261.92,-93.65 1269.54,-101.02 1272.47,-94.66"/>
</g>
<!-- Node5 -->
<g id="node5" class="node">
<title>Node5</title>
<g id="a_node5"><a xlink:href="classyaclib_1_1detail_1_1BaseCore.html" target="_top" xlink:title=" ">
<polygon fill="none" stroke="black" points="680,-69 680,-88 796,-88 796,-69 680,-69"/>
<text text-anchor="middle" x="738" y="-76" font-family="Helvetica,sans-Serif" font-size="10.00">yaclib::detail::BaseCore</text>
</a>
</g>
</g>
<!-- Node5&#45;&gt;Node4 -->
<g id="edge4" class="edge">
<title>Node5&#45;&gt;Node4</title>
<path fill="none" stroke="midnightblue" d="M806.54,-78.5C902.12,-78.5 1075.33,-78.5 1166.75,-78.5"/>
<polygon fill="midnightblue" stroke="midnightblue" points="806.41,-75 796.41,-78.5 806.41,-82 806.41,-75"/>
</g>
<!-- Node15 -->
<g id="node15" class="node">
<title>Node15</title>
<g id="a_node15"><a xlink:href="classyaclib_1_1detail_1_1ResultCore.html" target="_top" xlink:title=" ">
<polygon fill="none" stroke="black" points="867,-19.5 867,-49.5 989,-49.5 989,-19.5 867,-19.5"/>
<text text-anchor="start" x="875" y="-37.5" font-family="Helvetica,sans-Serif" font-size="10.00">yaclib::detail::ResultCore</text>
<text text-anchor="middle" x="928" y="-26.5" font-family="Helvetica,sans-Serif" font-size="10.00">&lt; V, E &gt;</text>
</a>
</g>
</g>
<!-- Node5&#45;&gt;Node15 -->
<g id="edge16" class="edge">
<title>Node5&#45;&gt;Node15</title>
<path fill="none" stroke="midnightblue" d="M789.65,-66.65C813.37,-61.09 841.81,-54.44 866.64,-48.63"/>
<polygon fill="midnightblue" stroke="midnightblue" points="788.73,-63.27 779.79,-68.95 790.33,-70.08 788.73,-63.27"/>
</g>
<!-- Node22 -->
<g id="node22" class="node">
<title>Node22</title>
<g id="a_node22"><a xlink:href="classyaclib_1_1detail_1_1ResultCore.html" target="_top" xlink:title=" ">
<polygon fill="none" stroke="black" points="867,-107.5 867,-137.5 989,-137.5 989,-107.5 867,-107.5"/>
<text text-anchor="start" x="875" y="-125.5" font-family="Helvetica,sans-Serif" font-size="10.00">yaclib::detail::ResultCore</text>
<text text-anchor="middle" x="928" y="-114.5" font-family="Helvetica,sans-Serif" font-size="10.00">&lt; V, E &gt;</text>
</a>
</g>
</g>
<!-- Node5&#45;&gt;Node22 -->
<g id="edge25" class="edge">
<title>Node5&#45;&gt;Node22</title>
<path fill="none" stroke="midnightblue" d="M789.65,-90.35C813.37,-95.91 841.81,-102.56 866.64,-108.37"/>
<polygon fill="midnightblue" stroke="midnightblue" points="790.33,-86.92 779.79,-88.05 788.73,-93.73 790.33,-86.92"/>
</g>
<!-- Node6 -->
<g id="node6" class="node">
<title>Node6</title>
<g id="a_node6"><a xlink:href="classyaclib_1_1detail_1_1InlineCore.html" target="_top" xlink:title=" ">
<polygon fill="none" stroke="black" points="460.5,-126 460.5,-145 577.5,-145 577.5,-126 460.5,-126"/>
<text text-anchor="middle" x="519" y="-133" font-family="Helvetica,sans-Serif" font-size="10.00">yaclib::detail::InlineCore</text>
</a>
</g>
</g>
<!-- Node6&#45;&gt;Node5 -->
<g id="edge5" class="edge">
<title>Node6&#45;&gt;Node5</title>
<path fill="none" stroke="midnightblue" d="M580.48,-123.95C605.84,-118.68 635.52,-111.95 662,-104.5 678.85,-99.76 697.44,-93.32 711.89,-88.04"/>
<polygon fill="midnightblue" stroke="midnightblue" points="579.73,-120.53 570.63,-125.97 581.13,-127.39 579.73,-120.53"/>
</g>
<!-- Node7 -->
<g id="node7" class="node">
<title>Node7</title>
<g id="a_node7"><a xlink:href="classyaclib_1_1Job.html" target="_top" xlink:title="Callable that can be executed in an IExecutor.">
<polygon fill="none" stroke="black" points="263.5,-126 263.5,-145 325.5,-145 325.5,-126 263.5,-126"/>
<text text-anchor="middle" x="294.5" y="-133" font-family="Helvetica,sans-Serif" font-size="10.00">yaclib::Job</text>
</a>
</g>
</g>
<!-- Node7&#45;&gt;Node6 -->
<g id="edge6" class="edge">
<title>Node7&#45;&gt;Node6</title>
<path fill="none" stroke="midnightblue" d="M335.75,-135.5C370.51,-135.5 421.14,-135.5 460.22,-135.5"/>
<polygon fill="midnightblue" stroke="midnightblue" points="335.51,-132 325.51,-135.5 335.51,-139 335.51,-132"/>
</g>
<!-- Node8 -->
<g id="node8" class="node">
<title>Node8</title>
<g id="a_node8"><a xlink:href="structyaclib_1_1detail_1_1Node.html" target="_top" xlink:title="Node class, used in intrusive data structure.">
<polygon fill="none" stroke="black" points="101,-144 101,-163 198,-163 198,-144 101,-144"/>
<text text-anchor="middle" x="149.5" y="-151" font-family="Helvetica,sans-Serif" font-size="10.00">yaclib::detail::Node</text>
</a>
</g>
</g>
<!-- Node8&#45;&gt;Node7 -->
<g id="edge7" class="edge">
<title>Node8&#45;&gt;Node7</title>
<path fill="none" stroke="midnightblue" d="M208.11,-146.25C226.95,-143.88 247.13,-141.34 263.14,-139.32"/>
<polygon fill="midnightblue" stroke="midnightblue" points="207.6,-142.78 198.12,-147.51 208.48,-149.73 207.6,-142.78"/>
</g>
<!-- Node8&#45;&gt;Node8 -->
<g id="edge8" class="edge">
<title>Node8&#45;&gt;Node8</title>
<path fill="none" stroke="#9a32cd" stroke-dasharray="5,2" d="M137.35,-173.27C138.3,-178 142.35,-181.5 149.5,-181.5 161.23,-181.5 164.62,-172.07 159.67,-163.26"/>
<polygon fill="#9a32cd" stroke="#9a32cd" points="140.82,-173.75 139.33,-163.26 133.95,-172.39 140.82,-173.75"/>
<text text-anchor="middle" x="149.5" y="-184.5" font-family="Helvetica,sans-Serif" font-size="10.00"> next</text>
</g>
<!-- Node9 -->
<g id="node9" class="node">
<title>Node9</title>
<g id="a_node9"><a xlink:href="classyaclib_1_1IFunc.html" target="_top" xlink:title="Callable interface.">
<polygon fill="none" stroke="black" points="114,-106 114,-125 185,-125 185,-106 114,-106"/>
<text text-anchor="middle" x="149.5" y="-113" font-family="Helvetica,sans-Serif" font-size="10.00">yaclib::IFunc</text>
</a>
</g>
</g>
<!-- Node9&#45;&gt;Node7 -->
<g id="edge9" class="edge">
<title>Node9&#45;&gt;Node7</title>
<path fill="none" stroke="midnightblue" d="M195.26,-121.76C217.33,-124.85 243.36,-128.49 263.09,-131.25"/>
<polygon fill="midnightblue" stroke="midnightblue" points="195.5,-118.26 185.12,-120.34 194.54,-125.19 195.5,-118.26"/>
</g>
<!-- Node10 -->
<g id="node10" class="node">
<title>Node10</title>
<g id="a_node10"><a xlink:href="classyaclib_1_1IRef.html" target="_top" xlink:title="Reference counting interface.">
<polygon fill="none" stroke="black" points="0,-106 0,-125 64,-125 64,-106 0,-106"/>
<text text-anchor="middle" x="32" y="-113" font-family="Helvetica,sans-Serif" font-size="10.00">yaclib::IRef</text>
</a>
</g>
</g>
<!-- Node10&#45;&gt;Node9 -->
<g id="edge10" class="edge">
<title>Node10&#45;&gt;Node9</title>
<path fill="none" stroke="midnightblue" d="M74.35,-115.5C87.33,-115.5 101.51,-115.5 113.97,-115.5"/>
<polygon fill="midnightblue" stroke="midnightblue" points="74.26,-112 64.26,-115.5 74.26,-119 74.26,-112"/>
</g>
<!-- Node11 -->
<g id="node11" class="node">
<title>Node11</title>
<g id="a_node11"><a xlink:title=" ">
<polygon fill="none" stroke="black" points="476,-88 476,-107 562,-107 562,-88 476,-88"/>
<text text-anchor="middle" x="519" y="-95" font-family="Helvetica,sans-Serif" font-size="10.00">atomic&lt; State &gt;</text>
</a>
</g>
</g>
<!-- Node11&#45;&gt;Node5 -->
<g id="edge11" class="edge">
<title>Node11&#45;&gt;Node5</title>
<path fill="none" stroke="#9a32cd" stroke-dasharray="5,2" d="M572.29,-92.92C604.75,-90.08 646.5,-86.42 679.84,-83.51"/>
<polygon fill="#9a32cd" stroke="#9a32cd" points="571.75,-89.46 562.1,-93.81 572.36,-96.43 571.75,-89.46"/>
<text text-anchor="middle" x="630.5" y="-92.5" font-family="Helvetica,sans-Serif" font-size="10.00"> _state</text>
</g>
<!-- Node12 -->
<g id="node12" class="node">
<title>Node12</title>
<g id="a_node12"><a xlink:title=" ">
<polygon fill="none" stroke="black" points="457,-50 457,-69 581,-69 581,-50 457,-50"/>
<text text-anchor="middle" x="519" y="-57" font-family="Helvetica,sans-Serif" font-size="10.00">IntrusivePtr&lt; IExecutor &gt;</text>
</a>
</g>
</g>
<!-- Node12&#45;&gt;Node5 -->
<g id="edge12" class="edge">
<title>Node12&#45;&gt;Node5</title>
<path fill="none" stroke="#9a32cd" stroke-dasharray="5,2" d="M591.41,-63.84C614,-65.4 639.06,-67.32 662,-69.5 667.74,-70.05 673.73,-70.67 679.7,-71.33"/>
<polygon fill="#9a32cd" stroke="#9a32cd" points="591.43,-60.33 581.21,-63.15 590.95,-67.32 591.43,-60.33"/>
<text text-anchor="middle" x="630.5" y="-72.5" font-family="Helvetica,sans-Serif" font-size="10.00"> _executor</text>
</g>
<!-- Node13 -->
<g id="node13" class="node">
<title>Node13</title>
<g id="a_node13"><a xlink:href="classyaclib_1_1IntrusivePtr.html" target="_top" xlink:title=" ">
<polygon fill="none" stroke="black" points="471,-0.5 471,-30.5 567,-30.5 567,-0.5 471,-0.5"/>
<text text-anchor="start" x="479" y="-18.5" font-family="Helvetica,sans-Serif" font-size="10.00">yaclib::IntrusivePtr</text>
<text text-anchor="middle" x="519" y="-7.5" font-family="Helvetica,sans-Serif" font-size="10.00">&lt; yaclib::IRef &gt;</text>
</a>
</g>
</g>
<!-- Node13&#45;&gt;Node5 -->
<g id="edge13" class="edge">
<title>Node13&#45;&gt;Node5</title>
<path fill="none" stroke="#9a32cd" stroke-dasharray="5,2" d="M577.21,-19.8C603.54,-22.93 634.89,-28.3 662,-37.5 684.63,-45.17 708.46,-59.41 723.03,-68.92"/>
<polygon fill="#9a32cd" stroke="#9a32cd" points="577.34,-16.3 567.02,-18.67 576.57,-23.25 577.34,-16.3"/>
<text text-anchor="middle" x="630.5" y="-51.5" font-family="Helvetica,sans-Serif" font-size="10.00"> _callback</text>
<text text-anchor="middle" x="630.5" y="-40.5" font-family="Helvetica,sans-Serif" font-size="10.00">_caller</text>
</g>
<!-- Node14 -->
<g id="node14" class="node">
<title>Node14</title>
<g id="a_node14"><a xlink:href="classyaclib_1_1IntrusivePtr.html" target="_top" xlink:title="A intrusive pointer to objects with an embedded reference count.">
<polygon fill="none" stroke="black" points="235,-6 235,-25 354,-25 354,-6 235,-6"/>
<text text-anchor="middle" x="294.5" y="-13" font-family="Helvetica,sans-Serif" font-size="10.00">yaclib::IntrusivePtr&lt; T &gt;</text>
</a>
</g>
</g>
<!-- Node14&#45;&gt;Node13 -->
<g id="edge14" class="edge">
<title>Node14&#45;&gt;Node13</title>
<path fill="none" stroke="orange" stroke-dasharray="5,2" d="M364.29,-15.5C398.89,-15.5 439.93,-15.5 470.9,-15.5"/>
<polygon fill="orange" stroke="orange" points="364.25,-12 354.25,-15.5 364.25,-19 364.25,-12"/>
<text text-anchor="middle" x="405.5" y="-18.5" font-family="Helvetica,sans-Serif" font-size="10.00"> &lt; yaclib::IRef &gt;</text>
</g>
<!-- Node15&#45;&gt;Node4 -->
<g id="edge15" class="edge">
<title>Node15&#45;&gt;Node4</title>
<path fill="none" stroke="orange" stroke-dasharray="5,2" d="M999.64,-38.88C1037.07,-41.83 1083.72,-46.48 1125,-53.5 1140.37,-56.11 1156.85,-59.77 1171.98,-63.48"/>
<polygon fill="orange" stroke="orange" points="999.58,-35.37 989.34,-38.1 999.05,-42.35 999.58,-35.37"/>
<text text-anchor="middle" x="1070" y="-56.5" font-family="Helvetica,sans-Serif" font-size="10.00"> &lt; void, E &gt;</text>
</g>
<!-- Node16 -->
<g id="node16" class="node">
<title>Node16</title>
<g id="a_node16"><a xlink:title=" ">
<polygon fill="none" stroke="black" points="685,-203 685,-222 791,-222 791,-203 685,-203"/>
<text text-anchor="middle" x="738" y="-210" font-family="Helvetica,sans-Serif" font-size="10.00">atomic&lt; std::size_t &gt;</text>
</a>
</g>
</g>
<!-- Node16&#45;&gt;Node3 -->
<g id="edge17" class="edge">
<title>Node16&#45;&gt;Node3</title>
<path fill="none" stroke="#9a32cd" stroke-dasharray="5,2" d="M801.51,-208.17C928.94,-199.35 1217.83,-179.36 1349.86,-170.22"/>
<polygon fill="#9a32cd" stroke="#9a32cd" points="800.89,-204.71 791.15,-208.89 801.37,-211.69 800.89,-204.71"/>
<text text-anchor="middle" x="1070" y="-195.5" font-family="Helvetica,sans-Serif" font-size="10.00"> count</text>
</g>
<!-- Node18 -->
<g id="node18" class="node">
<title>Node18</title>
<g id="a_node18"><a xlink:href="structyaclib_1_1detail_1_1AtomicCounter.html" target="_top" xlink:title=" ">
<polygon fill="none" stroke="black" points="859,-249.5 859,-279.5 997,-279.5 997,-249.5 859,-249.5"/>
<text text-anchor="start" x="867" y="-267.5" font-family="Helvetica,sans-Serif" font-size="10.00">yaclib::detail::AtomicCounter</text>
<text text-anchor="middle" x="928" y="-256.5" font-family="Helvetica,sans-Serif" font-size="10.00">&lt; CounterBase, Deleter &gt;</text>
</a>
</g>
</g>
<!-- Node16&#45;&gt;Node18 -->
<g id="edge21" class="edge">
<title>Node16&#45;&gt;Node18</title>
<path fill="none" stroke="#9a32cd" stroke-dasharray="5,2" d="M783.31,-224.76C809.97,-232.13 844.12,-241.58 872.44,-249.41"/>
<polygon fill="#9a32cd" stroke="#9a32cd" points="784.05,-221.33 773.48,-222.04 782.19,-228.08 784.05,-221.33"/>
<text text-anchor="middle" x="827.5" y="-242.5" font-family="Helvetica,sans-Serif" font-size="10.00"> count</text>
</g>
<!-- Node21 -->
<g id="node21" class="node">
<title>Node21</title>
<g id="a_node21"><a xlink:href="structyaclib_1_1detail_1_1AtomicCounter.html" target="_top" xlink:title=" ">
<polygon fill="none" stroke="black" points="1143,-196 1143,-237 1313,-237 1313,-196 1143,-196"/>
<text text-anchor="start" x="1151" y="-225" font-family="Helvetica,sans-Serif" font-size="10.00">yaclib::detail::AtomicCounter</text>
<text text-anchor="start" x="1151" y="-214" font-family="Helvetica,sans-Serif" font-size="10.00">&lt; ResultCore&lt; V, E &gt;, PromiseType</text>
<text text-anchor="middle" x="1228" y="-203" font-family="Helvetica,sans-Serif" font-size="10.00">Deleter &gt;</text>
</a>
</g>
</g>
<!-- Node16&#45;&gt;Node21 -->
<g id="edge26" class="edge">
<title>Node16&#45;&gt;Node21</title>
<path fill="none" stroke="#9a32cd" stroke-dasharray="5,2" d="M801.45,-213.01C888.2,-213.72 1045.45,-215.01 1142.59,-215.81"/>
<polygon fill="#9a32cd" stroke="#9a32cd" points="801.25,-209.51 791.22,-212.93 801.2,-216.51 801.25,-209.51"/>
<text text-anchor="middle" x="928" y="-217.5" font-family="Helvetica,sans-Serif" font-size="10.00"> count</text>
</g>
<!-- Node17 -->
<g id="node17" class="node">
<title>Node17</title>
<g id="a_node17"><a xlink:title=" ">
<polygon fill="none" stroke="black" points="496,-203 496,-222 542,-222 542,-203 496,-203"/>
<text text-anchor="middle" x="519" y="-210" font-family="Helvetica,sans-Serif" font-size="10.00">atomic</text>
</a>
</g>
</g>
<!-- Node17&#45;&gt;Node16 -->
<g id="edge18" class="edge">
<title>Node17&#45;&gt;Node16</title>
<path fill="none" stroke="orange" stroke-dasharray="5,2" d="M552.1,-212.5C586.99,-212.5 643.29,-212.5 684.6,-212.5"/>
<polygon fill="orange" stroke="orange" points="552,-209 542,-212.5 552,-216 552,-209"/>
<text text-anchor="middle" x="630.5" y="-215.5" font-family="Helvetica,sans-Serif" font-size="10.00"> &lt; std::size_t &gt;</text>
</g>
<!-- Node18&#45;&gt;Node3 -->
<g id="edge19" class="edge">
<title>Node18&#45;&gt;Node3</title>
<path fill="none" stroke="orange" stroke-dasharray="5,2" d="M1007.12,-280.88C1089.19,-293.75 1219.16,-301.46 1313,-246.5 1337.16,-232.35 1328.21,-213.09 1350,-195.5 1354.32,-192.01 1359.1,-188.85 1364.08,-186.01"/>
<polygon fill="orange" stroke="orange" points="1007.54,-277.4 997.1,-279.24 1006.41,-284.31 1007.54,-277.4"/>
<text text-anchor="start" x="1169" y="-303.5" font-family="Helvetica,sans-Serif" font-size="10.00"> &lt; ResultCore&lt; void,</text>
<text text-anchor="middle" x="1228" y="-292.5" font-family="Helvetica,sans-Serif" font-size="10.00"> E &gt;, PromiseTypeDeleter &gt;</text>
</g>
<!-- Node18&#45;&gt;Node21 -->
<g id="edge27" class="edge">
<title>Node18&#45;&gt;Node21</title>
<path fill="none" stroke="orange" stroke-dasharray="5,2" d="M1007.41,-247.87C1009.97,-247.39 1012.5,-246.94 1015,-246.5 1057.02,-239.14 1103.96,-232.35 1142.97,-227.1"/>
<polygon fill="orange" stroke="orange" points="1006.63,-244.45 997.46,-249.75 1007.93,-251.33 1006.63,-244.45"/>
<text text-anchor="start" x="1015" y="-260.5" font-family="Helvetica,sans-Serif" font-size="10.00"> &lt; ResultCore&lt; V, E</text>
<text text-anchor="middle" x="1070" y="-249.5" font-family="Helvetica,sans-Serif" font-size="10.00"> &gt;, PromiseTypeDeleter &gt;</text>
</g>
<!-- Node19 -->
<g id="node19" class="node">
<title>Node19</title>
<g id="a_node19"><a xlink:href="classCounterBase.html" target="_top" xlink:title=" ">
<polygon fill="none" stroke="black" points="701.5,-262 701.5,-281 774.5,-281 774.5,-262 701.5,-262"/>
<text text-anchor="middle" x="738" y="-269" font-family="Helvetica,sans-Serif" font-size="10.00">CounterBase</text>
</a>
</g>
</g>
<!-- Node19&#45;&gt;Node18 -->
<g id="edge20" class="edge">
<title>Node19&#45;&gt;Node18</title>
<path fill="none" stroke="midnightblue" d="M784.98,-269.79C807.23,-268.96 834.39,-267.95 858.98,-267.03"/>
<polygon fill="midnightblue" stroke="midnightblue" points="784.67,-266.3 774.8,-270.17 784.93,-273.29 784.67,-266.3"/>
</g>
<!-- Node20 -->
<g id="node20" class="node">
<title>Node20</title>
<g id="a_node20"><a xlink:href="classyaclib_1_1detail_1_1BasePromiseType.html" target="_top" xlink:title=" ">
<polygon fill="none" stroke="black" points="1353,-204.5 1353,-234.5 1485,-234.5 1485,-204.5 1353,-204.5"/>
<text text-anchor="start" x="1361" y="-222.5" font-family="Helvetica,sans-Serif" font-size="10.00">yaclib::detail::BasePromise</text>
<text text-anchor="middle" x="1419" y="-211.5" font-family="Helvetica,sans-Serif" font-size="10.00">Type&lt; V, E &gt;</text>
</a>
</g>
</g>
<!-- Node20&#45;&gt;Node2 -->
<g id="edge22" class="edge">
<title>Node20&#45;&gt;Node2</title>
<path fill="none" stroke="orange" stroke-dasharray="5,2" d="M1495.03,-209.86C1520.34,-206.61 1548.37,-203.01 1572.85,-199.87"/>
<polygon fill="orange" stroke="orange" points="1494.58,-206.39 1485.11,-211.14 1495.48,-213.33 1494.58,-206.39"/>
<text text-anchor="middle" x="1530.5" y="-210.5" font-family="Helvetica,sans-Serif" font-size="10.00"> &lt; void, E &gt;</text>
</g>
<!-- Node21&#45;&gt;Node20 -->
<g id="edge23" class="edge">
<title>Node21&#45;&gt;Node20</title>
<path fill="none" stroke="midnightblue" d="M1323.28,-218C1333.29,-218.16 1343.32,-218.31 1352.89,-218.47"/>
<polygon fill="midnightblue" stroke="midnightblue" points="1323.33,-214.5 1313.27,-217.84 1323.22,-221.5 1323.33,-214.5"/>
</g>
<!-- Node22&#45;&gt;Node21 -->
<g id="edge24" class="edge">
<title>Node22&#45;&gt;Node21</title>
<path fill="none" stroke="midnightblue" d="M999.16,-121.95C1037.44,-123.71 1085.04,-129.31 1125,-144.5 1155.59,-156.13 1185.58,-179.09 1205.04,-195.97"/>
<polygon fill="midnightblue" stroke="midnightblue" points="999.26,-118.45 989.13,-121.56 998.99,-125.44 999.26,-118.45"/>
</g>
</g>
</svg>
        <g id="navigator" transform="translate(0 0)" fill="#404254">
                <rect fill="#f2f5e9" fill-opacity="0.5" stroke="#606060" stroke-width=".5" x="0" y="0" width="60" height="60"/>
                <use id="zoomplus" xlink:href="#zoomPlus" x="17" y="9" onmousedown="handleZoom(evt,'in')"/>
                <use id="zoomminus" xlink:href="#zoomMin" x="42" y="9" onmousedown="handleZoom(evt,'out')"/>
                <use id="reset" xlink:href="#resetDef" x="30" y="36" onmousedown="handleReset()"/>
                <g id="arrowUp" xlink:href="#dirArrow" transform="translate(30 24)" onmousedown="handlePan(0,-1)">
                  <use xlink:href="#rim" fill="#404040">
                        <set attributeName="fill" to="#808080" begin="arrowUp.mouseover" end="arrowUp.mouseout"/>
                  </use>
                  <path fill="none" stroke="white" stroke-width="1.5" d="M0,-3.0v7 M-2.5,-0.5L0,-3.0L2.5,-0.5"/>
                </g>
                <g id="arrowRight" xlink:href="#dirArrow" transform="rotate(90) translate(36 -43)" onmousedown="handlePan(1,0)">
                  <use xlink:href="#rim" fill="#404040">
                        <set attributeName="fill" to="#808080" begin="arrowRight.mouseover" end="arrowRight.mouseout"/>
                  </use>
                  <path fill="none" stroke="white" stroke-width="1.5" d="M0,-3.0v7 M-2.5,-0.5L0,-3.0L2.5,-0.5"/>
                </g>
                <g id="arrowDown" xlink:href="#dirArrow" transform="rotate(180) translate(-30 -48)" onmousedown="handlePan(0,1)">
                  <use xlink:href="#rim" fill="#404040">
                        <set attributeName="fill" to="#808080" begin="arrowDown.mouseover" end="arrowDown.mouseout"/>
                  </use>
                  <path fill="none" stroke="white" stroke-width="1.5" d="M0,-3.0v7 M-2.5,-0.5L0,-3.0L2.5,-0.5"/>
                </g>
                <g id="arrowLeft" xlink:href="#dirArrow" transform="rotate(270) translate(-36 17)" onmousedown="handlePan(-1,0)">
                  <use xlink:href="#rim" fill="#404040">
                        <set attributeName="fill" to="#808080" begin="arrowLeft.mouseover" end="arrowLeft.mouseout"/>
                  </use>
                  <path fill="none" stroke="white" stroke-width="1.5" d="M0,-3.0v7 M-2.5,-0.5L0,-3.0L2.5,-0.5"/>
                </g>
        </g>
        <svg viewBox="0 0 15 15" width="100%" height="30px" preserveAspectRatio="xMaxYMin meet">
         <g id="arrow_out" transform="scale(0.3 0.3)">
          <a xlink:href="classyaclib_1_1detail_1_1PromiseType_3_01void_00_01E_01_4__coll__graph_org.svg" target="_base">
           <rect id="button" ry="5" rx="5" y="6" x="6" height="38" width="38"
                fill="#f2f5e9" fill-opacity="0.5" stroke="#606060" stroke-width="1.0"/>
           <path id="arrow"
             d="M 11.500037,31.436501 C 11.940474,20.09759 22.043105,11.32322 32.158766,21.979434 L 37.068811,17.246167 C 37.068811,17.246167 37.088388,32 37.088388,32 L 22.160133,31.978069 C 22.160133,31.978069 26.997745,27.140456 26.997745,27.140456 C 18.528582,18.264221 13.291696,25.230495 11.500037,31.436501 z"
             style="fill:#404040;"/>
          </a>
         </g>
        </svg>
</svg>
