<?xml version="1.0" encoding="UTF-8" standalone="no"?>
<!DOCTYPE svg PUBLIC "-//W3C//DTD SVG 1.1//EN"
 "http://www.w3.org/Graphics/SVG/1.1/DTD/svg11.dtd">
<!-- Generated by graphviz version 3.0.0 (20220413.0106)
 -->
<!-- Title: yaclib::detail::UniqueJob&lt; Func &gt; Pages: 1 -->
<svg width="286pt" height="221pt"
 viewBox="0.00 0.00 285.50 221.00" xmlns="http://www.w3.org/2000/svg" xmlns:xlink="http://www.w3.org/1999/xlink">
<g id="graph0" class="graph" transform="scale(1 1) rotate(0) translate(4 217)">
<title>yaclib::detail::UniqueJob&lt; Func &gt;</title>
<!-- Node1 -->
<g id="node1" class="node">
<title>Node1</title>
<g id="a_node1"><a xlink:title=" ">
<polygon fill="#bfbfbf" stroke="black" points="136.5,-0.5 136.5,-30.5 256.5,-30.5 256.5,-0.5 136.5,-0.5"/>
<text text-anchor="start" x="144.5" y="-18.5" font-family="Helvetica,sans-Serif" font-size="10.00">yaclib::detail::UniqueJob</text>
<text text-anchor="middle" x="196.5" y="-7.5" font-family="Helvetica,sans-Serif" font-size="10.00">&lt; Func &gt;</text>
</a>
</g>
</g>
<!-- Node2 -->
<g id="node2" class="node">
<title>Node2</title>
<g id="a_node2"><a xlink:href="classyaclib_1_1Job.html" target="_top" xlink:title="Callable that can be executed in an IExecutor.">
<polygon fill="none" stroke="black" points="87.5,-74 87.5,-93 149.5,-93 149.5,-74 87.5,-74"/>
<text text-anchor="middle" x="118.5" y="-81" font-family="Helvetica,sans-Serif" font-size="10.00">yaclib::Job</text>
</a>
</g>
</g>
<!-- Node2&#45;&gt;Node1 -->
<g id="edge1" class="edge">
<title>Node2&#45;&gt;Node1</title>
<path fill="none" stroke="midnightblue" d="M136.52,-67.25C149.54,-56.23 167.01,-41.45 179.74,-30.68"/>
<polygon fill="midnightblue" stroke="midnightblue" points="134.07,-64.74 128.7,-73.87 138.59,-70.08 134.07,-64.74"/>
</g>
<!-- Node3 -->
<g id="node3" class="node">
<title>Node3</title>
<g id="a_node3"><a xlink:href="structyaclib_1_1detail_1_1Node.html" target="_top" xlink:title="Node class, used in intrusive data structure.">
<polygon fill="none" stroke="black" points="0,-136.5 0,-155.5 97,-155.5 97,-136.5 0,-136.5"/>
<text text-anchor="middle" x="48.5" y="-143.5" font-family="Helvetica,sans-Serif" font-size="10.00">yaclib::detail::Node</text>
</a>
</g>
</g>
<!-- Node3&#45;&gt;Node2 -->
<g id="edge2" class="edge">
<title>Node3&#45;&gt;Node2</title>
<path fill="none" stroke="midnightblue" d="M66.18,-129.72C79.57,-118.15 97.48,-102.67 108.49,-93.15"/>
<polygon fill="midnightblue" stroke="midnightblue" points="63.81,-127.14 58.53,-136.33 68.38,-132.44 63.81,-127.14"/>
</g>
<!-- Node3&#45;&gt;Node3 -->
<g id="edge3" class="edge">
<title>Node3&#45;&gt;Node3</title>
<path fill="none" stroke="#9a32cd" stroke-dasharray="5,2" d="M107.38,-150C112.09,-149.13 115,-147.79 115,-146 115,-143.13 107.54,-141.44 97.21,-140.92"/>
<polygon fill="#9a32cd" stroke="#9a32cd" points="106.79,-146.55 97.21,-151.08 107.53,-153.51 106.79,-146.55"/>
<text text-anchor="middle" x="125.5" y="-143.5" font-family="Helvetica,sans-Serif" font-size="10.00"> next</text>
</g>
<!-- Node4 -->
<g id="node4" class="node">
<title>Node4</title>
<g id="a_node4"><a xlink:href="classyaclib_1_1IFunc.html" target="_top" xlink:title="Callable interface.">
<polygon fill="none" stroke="black" points="154,-136.5 154,-155.5 225,-155.5 225,-136.5 154,-136.5"/>
<text text-anchor="middle" x="189.5" y="-143.5" font-family="Helvetica,sans-Serif" font-size="10.00">yaclib::IFunc</text>
</a>
</g>
</g>
<!-- Node4&#45;&gt;Node2 -->
<g id="edge4" class="edge">
<title>Node4&#45;&gt;Node2</title>
<path fill="none" stroke="midnightblue" d="M171.57,-129.72C157.99,-118.15 139.82,-102.67 128.65,-93.15"/>
<polygon fill="midnightblue" stroke="midnightblue" points="169.45,-132.51 179.33,-136.33 173.99,-127.18 169.45,-132.51"/>
</g>
<!-- Node5 -->
<g id="node5" class="node">
<title>Node5</title>
<g id="a_node5"><a xlink:href="classyaclib_1_1IRef.html" target="_top" xlink:title="Reference counting interface.">
<polygon fill="none" stroke="black" points="157.5,-193.5 157.5,-212.5 221.5,-212.5 221.5,-193.5 157.5,-193.5"/>
<text text-anchor="middle" x="189.5" y="-200.5" font-family="Helvetica,sans-Serif" font-size="10.00">yaclib::IRef</text>
</a>
</g>
</g>
<!-- Node5&#45;&gt;Node4 -->
<g id="edge5" class="edge">
<title>Node5&#45;&gt;Node4</title>
<path fill="none" stroke="midnightblue" d="M189.5,-183.12C189.5,-173.82 189.5,-163.06 189.5,-155.71"/>
<polygon fill="midnightblue" stroke="midnightblue" points="186,-183.41 189.5,-193.41 193,-183.41 186,-183.41"/>
</g>
<!-- Node6 -->
<g id="node6" class="node">
<title>Node6</title>
<g id="a_node6"><a xlink:href="classyaclib_1_1detail_1_1SafeCall.html" target="_top" xlink:title=" ">
<polygon fill="none" stroke="black" points="167.5,-68.5 167.5,-98.5 277.5,-98.5 277.5,-68.5 167.5,-68.5"/>
<text text-anchor="start" x="175.5" y="-86.5" font-family="Helvetica,sans-Serif" font-size="10.00">yaclib::detail::SafeCall</text>
<text text-anchor="middle" x="222.5" y="-75.5" font-family="Helvetica,sans-Serif" font-size="10.00">&lt; Func &gt;</text>
</a>
</g>
</g>
<!-- Node6&#45;&gt;Node1 -->
<g id="edge6" class="edge">
<title>Node6&#45;&gt;Node1</title>
<path fill="none" stroke="midnightblue" d="M213.1,-58.63C209.42,-49.3 205.33,-38.92 202.13,-30.79"/>
<polygon fill="midnightblue" stroke="midnightblue" points="209.94,-60.16 216.86,-68.18 216.45,-57.59 209.94,-60.16"/>
</g>
</g>
</svg>
