<?xml version="1.0" encoding="UTF-8" standalone="no"?>
<!DOCTYPE svg PUBLIC "-//W3C//DTD SVG 1.1//EN"
 "http://www.w3.org/Graphics/SVG/1.1/DTD/svg11.dtd">
<!-- Generated by graphviz version 3.0.0 (20220413.0106)
 -->
<!-- Title: yaclib::detail::UniqueJob&lt; Func &gt; Pages: 1 -->
<svg width="267pt" height="218pt"
 viewBox="0.00 0.00 266.50 218.00" xmlns="http://www.w3.org/2000/svg" xmlns:xlink="http://www.w3.org/1999/xlink">
<g id="graph0" class="graph" transform="scale(1 1) rotate(0) translate(4 214)">
<title>yaclib::detail::UniqueJob&lt; Func &gt;</title>
<!-- Node1 -->
<g id="node1" class="node">
<title>Node1</title>
<g id="a_node1"><a xlink:title=" ">
<polygon fill="#bfbfbf" stroke="black" points="91.5,-0.5 91.5,-30.5 211.5,-30.5 211.5,-0.5 91.5,-0.5"/>
<text text-anchor="start" x="99.5" y="-18.5" font-family="Helvetica,sans-Serif" font-size="10.00">yaclib::detail::UniqueJob</text>
<text text-anchor="middle" x="151.5" y="-7.5" font-family="Helvetica,sans-Serif" font-size="10.00">&lt; Func &gt;</text>
</a>
</g>
</g>
<!-- Node2 -->
<g id="node2" class="node">
<title>Node2</title>
<g id="a_node2"><a xlink:href="classyaclib_1_1Job.html" target="_top" xlink:title="Callable that can be executed in an IExecutor.">
<polygon fill="none" stroke="black" points="68.5,-73 68.5,-92 130.5,-92 130.5,-73 68.5,-73"/>
<text text-anchor="middle" x="99.5" y="-80" font-family="Helvetica,sans-Serif" font-size="10.00">yaclib::Job</text>
</a>
</g>
</g>
<!-- Node2&#45;&gt;Node1 -->
<g id="edge1" class="edge">
<title>Node2&#45;&gt;Node1</title>
<path fill="none" stroke="midnightblue" d="M112.96,-64.67C121.42,-54.09 132.22,-40.6 140.23,-30.59"/>
<polygon fill="midnightblue" stroke="midnightblue" points="110.03,-62.74 106.51,-72.73 115.49,-67.11 110.03,-62.74"/>
</g>
<!-- Node3 -->
<g id="node3" class="node">
<title>Node3</title>
<g id="a_node3"><a xlink:href="structyaclib_1_1detail_1_1Node.html" target="_top" xlink:title="Node class, used in intrusive data structure.">
<polygon fill="none" stroke="black" points="0,-134.5 0,-153.5 97,-153.5 97,-134.5 0,-134.5"/>
<text text-anchor="middle" x="48.5" y="-141.5" font-family="Helvetica,sans-Serif" font-size="10.00">yaclib::detail::Node</text>
</a>
</g>
</g>
<!-- Node3&#45;&gt;Node2 -->
<g id="edge2" class="edge">
<title>Node3&#45;&gt;Node2</title>
<path fill="none" stroke="midnightblue" d="M62.5,-126.67C72.11,-115.45 84.49,-101.02 92.21,-92.01"/>
<polygon fill="midnightblue" stroke="midnightblue" points="59.66,-124.6 55.81,-134.48 64.97,-129.16 59.66,-124.6"/>
</g>
<!-- Node4 -->
<g id="node4" class="node">
<title>Node4</title>
<g id="a_node4"><a xlink:href="classyaclib_1_1IFunc.html" target="_top" xlink:title="Callable interface.">
<polygon fill="none" stroke="black" points="115,-134.5 115,-153.5 186,-153.5 186,-134.5 115,-134.5"/>
<text text-anchor="middle" x="150.5" y="-141.5" font-family="Helvetica,sans-Serif" font-size="10.00">yaclib::IFunc</text>
</a>
</g>
</g>
<!-- Node4&#45;&gt;Node2 -->
<g id="edge3" class="edge">
<title>Node4&#45;&gt;Node2</title>
<path fill="none" stroke="midnightblue" d="M136.5,-126.67C126.89,-115.45 114.51,-101.02 106.79,-92.01"/>
<polygon fill="midnightblue" stroke="midnightblue" points="134.03,-129.16 143.19,-134.48 139.34,-124.6 134.03,-129.16"/>
</g>
<!-- Node5 -->
<g id="node5" class="node">
<title>Node5</title>
<g id="a_node5"><a xlink:href="classyaclib_1_1IRef.html" target="_top" xlink:title="Reference counting interface.">
<polygon fill="none" stroke="black" points="118.5,-190.5 118.5,-209.5 182.5,-209.5 182.5,-190.5 118.5,-190.5"/>
<text text-anchor="middle" x="150.5" y="-197.5" font-family="Helvetica,sans-Serif" font-size="10.00">yaclib::IRef</text>
</a>
</g>
</g>
<!-- Node5&#45;&gt;Node4 -->
<g id="edge4" class="edge">
<title>Node5&#45;&gt;Node4</title>
<path fill="none" stroke="midnightblue" d="M150.5,-179.8C150.5,-170.91 150.5,-160.78 150.5,-153.75"/>
<polygon fill="midnightblue" stroke="midnightblue" points="147,-180.08 150.5,-190.08 154,-180.08 147,-180.08"/>
</g>
<!-- Node6 -->
<g id="node6" class="node">
<title>Node6</title>
<g id="a_node6"><a xlink:href="classyaclib_1_1detail_1_1SafeCall.html" target="_top" xlink:title=" ">
<polygon fill="none" stroke="black" points="148.5,-67.5 148.5,-97.5 258.5,-97.5 258.5,-67.5 148.5,-67.5"/>
<text text-anchor="start" x="156.5" y="-85.5" font-family="Helvetica,sans-Serif" font-size="10.00">yaclib::detail::SafeCall</text>
<text text-anchor="middle" x="203.5" y="-74.5" font-family="Helvetica,sans-Serif" font-size="10.00">&lt; Func &gt;</text>
</a>
</g>
</g>
<!-- Node6&#45;&gt;Node1 -->
<g id="edge5" class="edge">
<title>Node6&#45;&gt;Node1</title>
<path fill="none" stroke="midnightblue" d="M185.86,-59.45C178.22,-49.9 169.5,-39 162.76,-30.58"/>
<polygon fill="midnightblue" stroke="midnightblue" points="183.24,-61.77 192.22,-67.4 188.7,-57.4 183.24,-61.77"/>
</g>
</g>
</svg>
