<?xml version="1.0" encoding="UTF-8" standalone="no"?>
<!DOCTYPE svg PUBLIC "-//W3C//DTD SVG 1.1//EN"
 "http://www.w3.org/Graphics/SVG/1.1/DTD/svg11.dtd">
<!-- Generated by graphviz version 3.0.0 (20220413.0106)
 -->
<!-- Title: yaclib::detail::AllCombinator&lt; V, E, N, FutureValue &gt; Pages: 1 -->
<svg width="640pt" height="171pt"
 viewBox="0.00 0.00 640.00 170.50" xmlns="http://www.w3.org/2000/svg" xmlns:xlink="http://www.w3.org/1999/xlink">
<g id="graph0" class="graph" transform="scale(1 1) rotate(0) translate(4 166.5)">
<title>yaclib::detail::AllCombinator&lt; V, E, N, FutureValue &gt;</title>
<!-- Node1 -->
<g id="node1" class="node">
<title>Node1</title>
<g id="a_node1"><a xlink:title=" ">
<polygon fill="#bfbfbf" stroke="black" points="498,-34.5 498,-64.5 632,-64.5 632,-34.5 498,-34.5"/>
<text text-anchor="start" x="506" y="-52.5" font-family="Helvetica,sans-Serif" font-size="10.00">yaclib::detail::AllCombinator</text>
<text text-anchor="middle" x="565" y="-41.5" font-family="Helvetica,sans-Serif" font-size="10.00">&lt; V, E, N, FutureValue &gt;</text>
</a>
</g>
</g>
<!-- Node2 -->
<g id="node2" class="node">
<title>Node2</title>
<g id="a_node2"><a xlink:href="classyaclib_1_1detail_1_1InlineCore.html" target="_top" xlink:title=" ">
<polygon fill="none" stroke="black" points="339,-94 339,-113 456,-113 456,-94 339,-94"/>
<text text-anchor="middle" x="397.5" y="-101" font-family="Helvetica,sans-Serif" font-size="10.00">yaclib::detail::InlineCore</text>
</a>
</g>
</g>
<!-- Node2&#45;&gt;Node1 -->
<g id="edge1" class="edge">
<title>Node2&#45;&gt;Node1</title>
<path fill="none" stroke="midnightblue" d="M438.15,-90.87C445.74,-88.44 453.62,-85.9 461,-83.5 479.89,-77.36 500.71,-70.5 518.65,-64.57"/>
<polygon fill="midnightblue" stroke="midnightblue" points="436.86,-87.61 428.4,-93.99 438.99,-94.28 436.86,-87.61"/>
</g>
<!-- Node3 -->
<g id="node3" class="node">
<title>Node3</title>
<g id="a_node3"><a xlink:href="classyaclib_1_1Job.html" target="_top" xlink:title="Callable that can be executed in an IExecutor.">
<polygon fill="none" stroke="black" points="235,-94 235,-113 297,-113 297,-94 235,-94"/>
<text text-anchor="middle" x="266" y="-101" font-family="Helvetica,sans-Serif" font-size="10.00">yaclib::Job</text>
</a>
</g>
</g>
<!-- Node3&#45;&gt;Node2 -->
<g id="edge2" class="edge">
<title>Node3&#45;&gt;Node2</title>
<path fill="none" stroke="midnightblue" d="M307.12,-103.5C317.17,-103.5 328.16,-103.5 338.87,-103.5"/>
<polygon fill="midnightblue" stroke="midnightblue" points="307.04,-100 297.04,-103.5 307.04,-107 307.04,-100"/>
</g>
<!-- Node4 -->
<g id="node4" class="node">
<title>Node4</title>
<g id="a_node4"><a xlink:href="structyaclib_1_1detail_1_1Node.html" target="_top" xlink:title="Node class, used in intrusive data structure.">
<polygon fill="none" stroke="black" points="101,-114 101,-133 198,-133 198,-114 101,-114"/>
<text text-anchor="middle" x="149.5" y="-121" font-family="Helvetica,sans-Serif" font-size="10.00">yaclib::detail::Node</text>
</a>
</g>
</g>
<!-- Node4&#45;&gt;Node3 -->
<g id="edge3" class="edge">
<title>Node4&#45;&gt;Node3</title>
<path fill="none" stroke="midnightblue" d="M208.04,-113.45C217.27,-111.84 226.5,-110.23 234.75,-108.78"/>
<polygon fill="midnightblue" stroke="midnightblue" points="207.31,-110.02 198.06,-115.19 208.52,-116.92 207.31,-110.02"/>
</g>
<!-- Node4&#45;&gt;Node4 -->
<g id="edge4" class="edge">
<title>Node4&#45;&gt;Node4</title>
<path fill="none" stroke="#9a32cd" stroke-dasharray="5,2" d="M137.35,-143.27C138.3,-148 142.35,-151.5 149.5,-151.5 161.23,-151.5 164.62,-142.07 159.67,-133.26"/>
<polygon fill="#9a32cd" stroke="#9a32cd" points="140.82,-143.75 139.33,-133.26 133.95,-142.39 140.82,-143.75"/>
<text text-anchor="middle" x="149.5" y="-154.5" font-family="Helvetica,sans-Serif" font-size="10.00"> next</text>
</g>
<!-- Node5 -->
<g id="node5" class="node">
<title>Node5</title>
<g id="a_node5"><a xlink:href="classyaclib_1_1IFunc.html" target="_top" xlink:title="Callable interface.">
<polygon fill="none" stroke="black" points="114,-76 114,-95 185,-95 185,-76 114,-76"/>
<text text-anchor="middle" x="149.5" y="-83" font-family="Helvetica,sans-Serif" font-size="10.00">yaclib::IFunc</text>
</a>
</g>
</g>
<!-- Node5&#45;&gt;Node3 -->
<g id="edge5" class="edge">
<title>Node5&#45;&gt;Node3</title>
<path fill="none" stroke="midnightblue" d="M195.08,-92.51C208.35,-94.59 222.58,-96.83 234.72,-98.74"/>
<polygon fill="midnightblue" stroke="midnightblue" points="195.59,-89.04 185.16,-90.95 194.5,-95.96 195.59,-89.04"/>
</g>
<!-- Node6 -->
<g id="node6" class="node">
<title>Node6</title>
<g id="a_node6"><a xlink:href="classyaclib_1_1IRef.html" target="_top" xlink:title="Reference counting interface.">
<polygon fill="none" stroke="black" points="0,-76 0,-95 64,-95 64,-76 0,-76"/>
<text text-anchor="middle" x="32" y="-83" font-family="Helvetica,sans-Serif" font-size="10.00">yaclib::IRef</text>
</a>
</g>
</g>
<!-- Node6&#45;&gt;Node5 -->
<g id="edge6" class="edge">
<title>Node6&#45;&gt;Node5</title>
<path fill="none" stroke="midnightblue" d="M74.35,-85.5C87.33,-85.5 101.51,-85.5 113.97,-85.5"/>
<polygon fill="midnightblue" stroke="midnightblue" points="74.26,-82 64.26,-85.5 74.26,-89 74.26,-82"/>
</g>
<!-- Node7 -->
<g id="node7" class="node">
<title>Node7</title>
<g id="a_node7"><a xlink:title=" ">
<polygon fill="none" stroke="black" points="334,-0.5 334,-74.5 461,-74.5 461,-0.5 334,-0.5"/>
<text text-anchor="start" x="342" y="-62.5" font-family="Helvetica,sans-Serif" font-size="10.00">AllCombinatorBase&lt;</text>
<text text-anchor="start" x="342" y="-51.5" font-family="Helvetica,sans-Serif" font-size="10.00"> std::conditional_t</text>
<text text-anchor="start" x="342" y="-40.5" font-family="Helvetica,sans-Serif" font-size="10.00">&lt;std::is_void_v&lt;V&gt;, void,</text>
<text text-anchor="start" x="342" y="-29.5" font-family="Helvetica,sans-Serif" font-size="10.00"> std::conditional_t&lt;0 !</text>
<text text-anchor="start" x="342" y="-18.5" font-family="Helvetica,sans-Serif" font-size="10.00">= 0, std::array&lt;V, 0 &gt;, std</text>
<text text-anchor="middle" x="397.5" y="-7.5" font-family="Helvetica,sans-Serif" font-size="10.00">::vector&lt;V&gt;&gt;&gt; &gt;</text>
</a>
</g>
</g>
<!-- Node7&#45;&gt;Node1 -->
<g id="edge7" class="edge">
<title>Node7&#45;&gt;Node1</title>
<path fill="none" stroke="midnightblue" d="M471.3,-42.78C480.1,-43.42 489.06,-44.07 497.76,-44.7"/>
<polygon fill="midnightblue" stroke="midnightblue" points="471.3,-39.27 461.07,-42.04 470.79,-46.25 471.3,-39.27"/>
</g>
</g>
</svg>
