<?xml version="1.0" encoding="UTF-8" standalone="no"?>
<!DOCTYPE svg PUBLIC "-//W3C//DTD SVG 1.1//EN"
 "http://www.w3.org/Graphics/SVG/1.1/DTD/svg11.dtd">
<!-- Generated by graphviz version 3.0.0 (20220413.0106)
 -->
<!-- Title: yaclib::Job Pages: 1 -->
<svg width="233pt" height="142pt"
 viewBox="0.00 0.00 233.00 142.00" xmlns="http://www.w3.org/2000/svg" xmlns:xlink="http://www.w3.org/1999/xlink">
<g id="graph0" class="graph" transform="scale(1 1) rotate(0) translate(4 138)">
<title>yaclib::Job</title>
<!-- Node1 -->
<g id="node1" class="node">
<title>Node1</title>
<g id="a_node1"><a xlink:title="Callable that can be executed in an IExecutor.">
<polygon fill="#bfbfbf" stroke="black" points="87.5,-0.5 87.5,-19.5 149.5,-19.5 149.5,-0.5 87.5,-0.5"/>
<text text-anchor="middle" x="118.5" y="-7.5" font-family="Helvetica,sans-Serif" font-size="10.00">yaclib::Job</text>
</a>
</g>
</g>
<!-- Node2 -->
<g id="node2" class="node">
<title>Node2</title>
<g id="a_node2"><a xlink:href="structyaclib_1_1detail_1_1Node.html" target="_top" xlink:title="Node class, used in intrusive data structure.">
<polygon fill="none" stroke="black" points="0,-57.5 0,-76.5 97,-76.5 97,-57.5 0,-57.5"/>
<text text-anchor="middle" x="48.5" y="-64.5" font-family="Helvetica,sans-Serif" font-size="10.00">yaclib::detail::Node</text>
</a>
</g>
</g>
<!-- Node2&#45;&gt;Node1 -->
<g id="edge1" class="edge">
<title>Node2&#45;&gt;Node1</title>
<path fill="none" stroke="midnightblue" d="M67.59,-51C80.37,-40.96 96.73,-28.1 107.41,-19.71"/>
<polygon fill="midnightblue" stroke="midnightblue" points="65.14,-48.48 59.44,-57.41 69.46,-53.98 65.14,-48.48"/>
</g>
<!-- Node2&#45;&gt;Node2 -->
<g id="edge2" class="edge">
<title>Node2&#45;&gt;Node2</title>
<path fill="none" stroke="#9a32cd" stroke-dasharray="5,2" d="M107.38,-71C112.09,-70.13 115,-68.79 115,-67 115,-64.13 107.54,-62.44 97.21,-61.92"/>
<polygon fill="#9a32cd" stroke="#9a32cd" points="106.79,-67.55 97.21,-72.08 107.53,-74.51 106.79,-67.55"/>
<text text-anchor="middle" x="125.5" y="-64.5" font-family="Helvetica,sans-Serif" font-size="10.00"> next</text>
</g>
<!-- Node3 -->
<g id="node3" class="node">
<title>Node3</title>
<g id="a_node3"><a xlink:href="classyaclib_1_1IFunc.html" target="_top" xlink:title="Callable interface.">
<polygon fill="none" stroke="black" points="154,-57.5 154,-76.5 225,-76.5 225,-57.5 154,-57.5"/>
<text text-anchor="middle" x="189.5" y="-64.5" font-family="Helvetica,sans-Serif" font-size="10.00">yaclib::IFunc</text>
</a>
</g>
</g>
<!-- Node3&#45;&gt;Node1 -->
<g id="edge3" class="edge">
<title>Node3&#45;&gt;Node1</title>
<path fill="none" stroke="midnightblue" d="M170.13,-51C157.18,-40.96 140.58,-28.1 129.75,-19.71"/>
<polygon fill="midnightblue" stroke="midnightblue" points="168.36,-54.05 178.41,-57.41 172.64,-48.52 168.36,-54.05"/>
</g>
<!-- Node4 -->
<g id="node4" class="node">
<title>Node4</title>
<g id="a_node4"><a xlink:href="classyaclib_1_1IRef.html" target="_top" xlink:title="Reference counting interface.">
<polygon fill="none" stroke="black" points="157.5,-114.5 157.5,-133.5 221.5,-133.5 221.5,-114.5 157.5,-114.5"/>
<text text-anchor="middle" x="189.5" y="-121.5" font-family="Helvetica,sans-Serif" font-size="10.00">yaclib::IRef</text>
</a>
</g>
</g>
<!-- Node4&#45;&gt;Node3 -->
<g id="edge4" class="edge">
<title>Node4&#45;&gt;Node3</title>
<path fill="none" stroke="midnightblue" d="M189.5,-104.12C189.5,-94.82 189.5,-84.06 189.5,-76.71"/>
<polygon fill="midnightblue" stroke="midnightblue" points="186,-104.41 189.5,-114.41 193,-104.41 186,-104.41"/>
</g>
</g>
</svg>
