<?xml version="1.0" encoding="UTF-8" standalone="no"?>
<!DOCTYPE svg PUBLIC "-//W3C//DTD SVG 1.1//EN"
 "http://www.w3.org/Graphics/SVG/1.1/DTD/svg11.dtd">
<!-- Generated by graphviz version 3.0.0 (20220413.0106)
 -->
<!-- Title: yaclib::FutureOn&lt; V, E &gt; Pages: 1 -->
<svg width="198pt" height="339pt"
 viewBox="0.00 0.00 198.00 339.00" xmlns="http://www.w3.org/2000/svg" xmlns:xlink="http://www.w3.org/1999/xlink">
<g id="graph0" class="graph" transform="scale(1 1) rotate(0) translate(4 335)">
<title>yaclib::FutureOn&lt; V, E &gt;</title>
<!-- Node1 -->
<g id="node1" class="node">
<title>Node1</title>
<g id="a_node1"><a xlink:title="Provides a mechanism to access the result of async operations.">
<polygon fill="#bfbfbf" stroke="black" points="4.5,-0.5 4.5,-19.5 125.5,-19.5 125.5,-0.5 4.5,-0.5"/>
<text text-anchor="middle" x="65" y="-7.5" font-family="Helvetica,sans-Serif" font-size="10.00">yaclib::FutureOn&lt; V, E &gt;</text>
</a>
</g>
</g>
<!-- Node2 -->
<g id="node2" class="node">
<title>Node2</title>
<g id="a_node2"><a xlink:href="classyaclib_1_1FutureBase.html" target="_top" xlink:title=" ">
<polygon fill="none" stroke="black" points="17,-57.5 17,-87.5 113,-87.5 113,-57.5 17,-57.5"/>
<text text-anchor="start" x="25" y="-75.5" font-family="Helvetica,sans-Serif" font-size="10.00">yaclib::FutureBase</text>
<text text-anchor="middle" x="65" y="-64.5" font-family="Helvetica,sans-Serif" font-size="10.00">&lt; V, StopError &gt;</text>
</a>
</g>
</g>
<!-- Node2&#45;&gt;Node1 -->
<g id="edge1" class="edge">
<title>Node2&#45;&gt;Node1</title>
<path fill="none" stroke="midnightblue" d="M65,-47.35C65,-37.51 65,-26.78 65,-19.54"/>
<polygon fill="midnightblue" stroke="midnightblue" points="61.5,-47.47 65,-57.47 68.5,-47.47 61.5,-47.47"/>
</g>
<!-- Node3 -->
<g id="node3" class="node">
<title>Node3</title>
<g id="a_node3"><a xlink:href="classyaclib_1_1IntrusivePtr.html" target="_top" xlink:title=" ">
<polygon fill="none" stroke="black" points="0,-184.5 0,-214.5 96,-214.5 96,-184.5 0,-184.5"/>
<text text-anchor="start" x="8" y="-202.5" font-family="Helvetica,sans-Serif" font-size="10.00">yaclib::IntrusivePtr</text>
<text text-anchor="middle" x="48" y="-191.5" font-family="Helvetica,sans-Serif" font-size="10.00">&lt; V, StopError &gt;</text>
</a>
</g>
</g>
<!-- Node3&#45;&gt;Node2 -->
<g id="edge2" class="edge">
<title>Node3&#45;&gt;Node2</title>
<path fill="none" stroke="#9a32cd" stroke-dasharray="5,2" d="M51.32,-174.08C54.82,-148.34 60.22,-108.67 63.07,-87.67"/>
<polygon fill="#9a32cd" stroke="#9a32cd" points="47.83,-173.78 49.95,-184.16 54.77,-174.72 47.83,-173.78"/>
<text text-anchor="middle" x="70.5" y="-148" font-family="Helvetica,sans-Serif" font-size="10.00"> _core</text>
</g>
<!-- Node4 -->
<g id="node4" class="node">
<title>Node4</title>
<g id="a_node4"><a xlink:href="classyaclib_1_1IntrusivePtr.html" target="_top" xlink:title="A intrusive pointer to objects with an embedded reference count.">
<polygon fill="none" stroke="black" points="35.5,-311.5 35.5,-330.5 154.5,-330.5 154.5,-311.5 35.5,-311.5"/>
<text text-anchor="middle" x="95" y="-318.5" font-family="Helvetica,sans-Serif" font-size="10.00">yaclib::IntrusivePtr&lt; T &gt;</text>
</a>
</g>
</g>
<!-- Node4&#45;&gt;Node3 -->
<g id="edge3" class="edge">
<title>Node4&#45;&gt;Node3</title>
<path fill="none" stroke="orange" stroke-dasharray="5,2" d="M58.51,-306.53C53.12,-302.95 48.28,-298.5 45,-293 30.43,-268.58 37.44,-233.71 43.16,-214.51"/>
<polygon fill="orange" stroke="orange" points="56.86,-309.62 67.29,-311.45 60.28,-303.51 56.86,-309.62"/>
<text text-anchor="middle" x="81" y="-285" font-family="Helvetica,sans-Serif" font-size="10.00"> &lt; V, StopError &gt;</text>
</g>
<!-- Node6 -->
<g id="node6" class="node">
<title>Node6</title>
<g id="a_node6"><a xlink:href="classyaclib_1_1IntrusivePtr.html" target="_top" xlink:title=" ">
<polygon fill="none" stroke="black" points="94,-233.5 94,-263.5 190,-263.5 190,-233.5 94,-233.5"/>
<text text-anchor="start" x="102" y="-251.5" font-family="Helvetica,sans-Serif" font-size="10.00">yaclib::IntrusivePtr</text>
<text text-anchor="middle" x="142" y="-240.5" font-family="Helvetica,sans-Serif" font-size="10.00">&lt; V, E &gt;</text>
</a>
</g>
</g>
<!-- Node4&#45;&gt;Node6 -->
<g id="edge6" class="edge">
<title>Node4&#45;&gt;Node6</title>
<path fill="none" stroke="orange" stroke-dasharray="5,2" d="M111.72,-304.29C115.02,-300.75 118.29,-296.89 121,-293 127.32,-283.92 132.71,-272.63 136.44,-263.84"/>
<polygon fill="orange" stroke="orange" points="109.24,-301.82 104.68,-311.39 114.21,-306.75 109.24,-301.82"/>
<text text-anchor="middle" x="145.5" y="-285" font-family="Helvetica,sans-Serif" font-size="10.00"> &lt; V, E &gt;</text>
</g>
<!-- Node5 -->
<g id="node5" class="node">
<title>Node5</title>
<g id="a_node5"><a xlink:href="classyaclib_1_1FutureBase.html" target="_top" xlink:title="Provides a mechanism to access the result of async operations.">
<polygon fill="none" stroke="black" points="94,-135.5 94,-165.5 190,-165.5 190,-135.5 94,-135.5"/>
<text text-anchor="start" x="102" y="-153.5" font-family="Helvetica,sans-Serif" font-size="10.00">yaclib::FutureBase</text>
<text text-anchor="middle" x="142" y="-142.5" font-family="Helvetica,sans-Serif" font-size="10.00">&lt; V, E &gt;</text>
</a>
</g>
</g>
<!-- Node5&#45;&gt;Node2 -->
<g id="edge4" class="edge">
<title>Node5&#45;&gt;Node2</title>
<path fill="none" stroke="orange" stroke-dasharray="5,2" d="M120.25,-128.03C107.18,-115.13 90.91,-99.07 79.42,-87.73"/>
<polygon fill="orange" stroke="orange" points="117.94,-130.67 127.52,-135.2 122.86,-125.69 117.94,-130.67"/>
<text text-anchor="middle" x="144" y="-109" font-family="Helvetica,sans-Serif" font-size="10.00"> &lt; V, StopError &gt;</text>
</g>
<!-- Node6&#45;&gt;Node5 -->
<g id="edge5" class="edge">
<title>Node6&#45;&gt;Node5</title>
<path fill="none" stroke="#9a32cd" stroke-dasharray="5,2" d="M142,-223.2C142,-205.05 142,-180.85 142,-165.72"/>
<polygon fill="#9a32cd" stroke="#9a32cd" points="138.5,-223.33 142,-233.33 145.5,-223.33 138.5,-223.33"/>
<text text-anchor="middle" x="155.5" y="-197" font-family="Helvetica,sans-Serif" font-size="10.00"> _core</text>
</g>
</g>
</svg>
