<?xml version="1.0" encoding="UTF-8" standalone="no"?>
<!DOCTYPE svg PUBLIC "-//W3C//DTD SVG 1.1//EN"
 "http://www.w3.org/Graphics/SVG/1.1/DTD/svg11.dtd">
<!-- Generated by graphviz version 3.0.0 (20220413.0106)
 -->
<!-- Title: include/yaclib/async/contract.hpp Pages: 1 -->
<svg width="1439pt" height="676pt"
 viewBox="0.00 0.00 1439.00 676.00" xmlns="http://www.w3.org/2000/svg" xmlns:xlink="http://www.w3.org/1999/xlink">
<g id="graph0" class="graph" transform="scale(1 1) rotate(0) translate(4 672)">
<title>include/yaclib/async/contract.hpp</title>
<!-- Node1 -->
<g id="node1" class="node">
<title>Node1</title>
<g id="a_node1"><a xlink:title=" ">
<polygon fill="#bfbfbf" stroke="black" points="347,-637.5 347,-667.5 451,-667.5 451,-637.5 347,-637.5"/>
<text text-anchor="start" x="355" y="-655.5" font-family="Helvetica,sans-Serif" font-size="10.00">include/yaclib/async</text>
<text text-anchor="middle" x="399" y="-644.5" font-family="Helvetica,sans-Serif" font-size="10.00">/contract.hpp</text>
</a>
</g>
</g>
<!-- Node2 -->
<g id="node2" class="node">
<title>Node2</title>
<g id="a_node2"><a xlink:href="future_8hpp.html" target="_top" xlink:title=" ">
<polygon fill="none" stroke="black" points="779,-581.5 779,-600.5 895,-600.5 895,-581.5 779,-581.5"/>
<text text-anchor="middle" x="837" y="-588.5" font-family="Helvetica,sans-Serif" font-size="10.00">yaclib/async/future.hpp</text>
</a>
</g>
</g>
<!-- Node1&#45;&gt;Node2 -->
<g id="edge1" class="edge">
<title>Node1&#45;&gt;Node2</title>
<path fill="none" stroke="midnightblue" d="M451.4,-644.38C530.68,-633.61 681.17,-613.17 768.87,-601.26"/>
<polygon fill="midnightblue" stroke="midnightblue" points="769.54,-604.7 778.98,-599.88 768.6,-597.76 769.54,-604.7"/>
</g>
<!-- Node39 -->
<g id="node39" class="node">
<title>Node39</title>
<g id="a_node39"><a xlink:href="promise_8hpp.html" target="_top" xlink:title=" ">
<polygon fill="none" stroke="black" points="78.5,-453 78.5,-472 203.5,-472 203.5,-453 78.5,-453"/>
<text text-anchor="middle" x="141" y="-460" font-family="Helvetica,sans-Serif" font-size="10.00">yaclib/async/promise.hpp</text>
</a>
</g>
</g>
<!-- Node1&#45;&gt;Node39 -->
<g id="edge70" class="edge">
<title>Node1&#45;&gt;Node39</title>
<path fill="none" stroke="midnightblue" d="M369.49,-637.41C332.27,-618.92 267.19,-584.19 218,-545 193.24,-525.27 168.86,-497.71 154.37,-480.24"/>
<polygon fill="midnightblue" stroke="midnightblue" points="156.78,-477.65 147.75,-472.11 151.35,-482.08 156.78,-477.65"/>
</g>
<!-- Node3 -->
<g id="node3" class="node">
<title>Node3</title>
<g id="a_node3"><a xlink:href="result__core_8hpp.html" target="_top" xlink:title=" ">
<polygon fill="none" stroke="black" points="1054,-380.5 1054,-410.5 1150,-410.5 1150,-380.5 1054,-380.5"/>
<text text-anchor="start" x="1062" y="-398.5" font-family="Helvetica,sans-Serif" font-size="10.00">yaclib/async/detail</text>
<text text-anchor="middle" x="1102" y="-387.5" font-family="Helvetica,sans-Serif" font-size="10.00">/result_core.hpp</text>
</a>
</g>
</g>
<!-- Node2&#45;&gt;Node3 -->
<g id="edge2" class="edge">
<title>Node2&#45;&gt;Node3</title>
<path fill="none" stroke="midnightblue" d="M854.58,-581.35C871.34,-572.84 897.06,-559.12 918,-545 979.14,-503.79 1045.05,-447.31 1078.95,-417.27"/>
<polygon fill="midnightblue" stroke="midnightblue" points="1081.33,-419.84 1086.47,-410.58 1076.67,-414.62 1081.33,-419.84"/>
</g>
<!-- Node12 -->
<g id="node12" class="node">
<title>Node12</title>
<g id="a_node12"><a xlink:href="executor_8hpp.html" target="_top" xlink:title=" ">
<polygon fill="none" stroke="black" points="1111.5,-252 1111.5,-271 1250.5,-271 1250.5,-252 1111.5,-252"/>
<text text-anchor="middle" x="1181" y="-259" font-family="Helvetica,sans-Serif" font-size="10.00">yaclib/executor/executor.hpp</text>
</a>
</g>
</g>
<!-- Node2&#45;&gt;Node12 -->
<g id="edge35" class="edge">
<title>Node2&#45;&gt;Node12</title>
<path fill="none" stroke="midnightblue" d="M895.24,-581.85C997.13,-565.94 1197,-526.68 1197,-463.5 1197,-463.5 1197,-463.5 1197,-394.5 1197,-353.86 1189.43,-306.7 1184.71,-281.2"/>
<polygon fill="midnightblue" stroke="midnightblue" points="1188.09,-280.27 1182.77,-271.1 1181.22,-281.59 1188.09,-280.27"/>
</g>
<!-- Node19 -->
<g id="node19" class="node">
<title>Node19</title>
<g id="a_node19"><a xlink:href="type__traits_8hpp.html" target="_top" xlink:title=" ">
<polygon fill="none" stroke="black" points="170.5,-252 170.5,-271 293.5,-271 293.5,-252 170.5,-252"/>
<text text-anchor="middle" x="232" y="-259" font-family="Helvetica,sans-Serif" font-size="10.00">yaclib/util/type_traits.hpp</text>
</a>
</g>
</g>
<!-- Node2&#45;&gt;Node19 -->
<g id="edge43" class="edge">
<title>Node2&#45;&gt;Node19</title>
<path fill="none" stroke="midnightblue" d="M778.99,-590.08C627.56,-588.72 232,-574.56 232,-463.5 232,-463.5 232,-463.5 232,-394.5 232,-354.16 232,-306.88 232,-281.28"/>
<polygon fill="midnightblue" stroke="midnightblue" points="235.5,-281.15 232,-271.15 228.5,-281.15 235.5,-281.15"/>
</g>
<!-- Node24 -->
<g id="node24" class="node">
<title>Node24</title>
<g id="a_node24"><a xlink:href="helper_8hpp.html" target="_top" xlink:title=" ">
<polygon fill="none" stroke="black" points="903,-386 903,-405 1007,-405 1007,-386 903,-386"/>
<text text-anchor="middle" x="955" y="-393" font-family="Helvetica,sans-Serif" font-size="10.00">yaclib/util/helper.hpp</text>
</a>
</g>
</g>
<!-- Node2&#45;&gt;Node24 -->
<g id="edge36" class="edge">
<title>Node2&#45;&gt;Node24</title>
<path fill="none" stroke="midnightblue" d="M850.91,-581.28C863.3,-573.03 881.36,-559.73 894,-545 927.64,-505.8 944.54,-445.53 951.31,-415.24"/>
<polygon fill="midnightblue" stroke="midnightblue" points="954.79,-415.71 953.42,-405.21 947.94,-414.27 954.79,-415.71"/>
</g>
<!-- Node28 -->
<g id="node28" class="node">
<title>Node28</title>
<g id="a_node28"><a xlink:href="future__impl_8hpp.html" target="_top" xlink:title=" ">
<polygon fill="none" stroke="black" points="789,-514.5 789,-544.5 885,-544.5 885,-514.5 789,-514.5"/>
<text text-anchor="start" x="797" y="-532.5" font-family="Helvetica,sans-Serif" font-size="10.00">yaclib/async/detail</text>
<text text-anchor="middle" x="837" y="-521.5" font-family="Helvetica,sans-Serif" font-size="10.00">/future_impl.hpp</text>
</a>
</g>
</g>
<!-- Node2&#45;&gt;Node28 -->
<g id="edge44" class="edge">
<title>Node2&#45;&gt;Node28</title>
<path fill="none" stroke="midnightblue" d="M837,-581.48C837,-574.47 837,-564.19 837,-554.7"/>
<polygon fill="midnightblue" stroke="midnightblue" points="840.5,-554.52 837,-544.52 833.5,-554.52 840.5,-554.52"/>
</g>
<!-- Node4 -->
<g id="node4" class="node">
<title>Node4</title>
<g id="a_node4"><a xlink:href="base__core_8hpp.html" target="_top" xlink:title=" ">
<polygon fill="none" stroke="black" points="1035,-313.5 1035,-343.5 1131,-343.5 1131,-313.5 1035,-313.5"/>
<text text-anchor="start" x="1043" y="-331.5" font-family="Helvetica,sans-Serif" font-size="10.00">yaclib/async/detail</text>
<text text-anchor="middle" x="1083" y="-320.5" font-family="Helvetica,sans-Serif" font-size="10.00">/base_core.hpp</text>
</a>
</g>
</g>
<!-- Node3&#45;&gt;Node4 -->
<g id="edge3" class="edge">
<title>Node3&#45;&gt;Node4</title>
<path fill="none" stroke="midnightblue" d="M1097.88,-380.4C1095.56,-372.47 1092.61,-362.38 1089.95,-353.27"/>
<polygon fill="midnightblue" stroke="midnightblue" points="1093.28,-352.19 1087.11,-343.58 1086.56,-354.16 1093.28,-352.19"/>
</g>
<!-- Node5 -->
<g id="node5" class="node">
<title>Node5</title>
<g id="a_node5"><a xlink:href="inline__core_8hpp.html" target="_top" xlink:title=" ">
<polygon fill="none" stroke="black" points="1269,-246.5 1269,-276.5 1365,-276.5 1365,-246.5 1269,-246.5"/>
<text text-anchor="start" x="1277" y="-264.5" font-family="Helvetica,sans-Serif" font-size="10.00">yaclib/async/detail</text>
<text text-anchor="middle" x="1317" y="-253.5" font-family="Helvetica,sans-Serif" font-size="10.00">/inline_core.hpp</text>
</a>
</g>
</g>
<!-- Node3&#45;&gt;Node5 -->
<g id="edge22" class="edge">
<title>Node3&#45;&gt;Node5</title>
<path fill="none" stroke="midnightblue" d="M1125.01,-380.37C1163.64,-356.65 1241.61,-308.79 1285.36,-281.92"/>
<polygon fill="midnightblue" stroke="midnightblue" points="1287.47,-284.74 1294.16,-276.52 1283.8,-278.77 1287.47,-284.74"/>
</g>
<!-- Node11 -->
<g id="node11" class="node">
<title>Node11</title>
<g id="a_node11"><a xlink:title=" ">
<polygon fill="none" stroke="#bfbfbf" points="1065.5,-56.5 1065.5,-75.5 1104.5,-75.5 1104.5,-56.5 1065.5,-56.5"/>
<text text-anchor="middle" x="1085" y="-63.5" font-family="Helvetica,sans-Serif" font-size="10.00">utility</text>
</a>
</g>
</g>
<!-- Node3&#45;&gt;Node11 -->
<g id="edge34" class="edge">
<title>Node3&#45;&gt;Node11</title>
<path fill="none" stroke="midnightblue" d="M1150.05,-393.72C1232.7,-389.56 1393,-367.9 1393,-262.5 1393,-262.5 1393,-262.5 1393,-193.5 1393,-149.8 1374.63,-135.82 1338,-112 1301.47,-88.24 1173.38,-74.54 1114.73,-69.38"/>
<polygon fill="midnightblue" stroke="midnightblue" points="1114.89,-65.88 1104.62,-68.52 1114.29,-72.86 1114.89,-65.88"/>
</g>
<!-- Node13 -->
<g id="node13" class="node">
<title>Node13</title>
<g id="a_node13"><a xlink:href="intrusive__ptr_8hpp.html" target="_top" xlink:title=" ">
<polygon fill="none" stroke="black" points="996.5,-179.5 996.5,-209.5 1093.5,-209.5 1093.5,-179.5 996.5,-179.5"/>
<text text-anchor="start" x="1004.5" y="-197.5" font-family="Helvetica,sans-Serif" font-size="10.00">yaclib/util/intrusive</text>
<text text-anchor="middle" x="1045" y="-186.5" font-family="Helvetica,sans-Serif" font-size="10.00">_ptr.hpp</text>
</a>
</g>
</g>
<!-- Node3&#45;&gt;Node13 -->
<g id="edge23" class="edge">
<title>Node3&#45;&gt;Node13</title>
<path fill="none" stroke="midnightblue" d="M1116.88,-380.1C1125.45,-370.73 1135.41,-357.74 1140,-344 1144.37,-330.93 1145.36,-325.69 1140,-313 1131.07,-291.86 1117.93,-294.42 1103,-277 1086.88,-258.2 1070.72,-235.06 1059.57,-218.24"/>
<polygon fill="midnightblue" stroke="midnightblue" points="1062.33,-216.07 1053.92,-209.62 1056.48,-219.9 1062.33,-216.07"/>
</g>
<!-- Node18 -->
<g id="node18" class="node">
<title>Node18</title>
<g id="a_node18"><a xlink:href="result_8hpp.html" target="_top" xlink:title=" ">
<polygon fill="none" stroke="black" points="298,-319 298,-338 400,-338 400,-319 298,-319"/>
<text text-anchor="middle" x="349" y="-326" font-family="Helvetica,sans-Serif" font-size="10.00">yaclib/util/result.hpp</text>
</a>
</g>
</g>
<!-- Node3&#45;&gt;Node18 -->
<g id="edge24" class="edge">
<title>Node3&#45;&gt;Node18</title>
<path fill="none" stroke="midnightblue" d="M1053.92,-385.45C1041.59,-383.39 1028.34,-381.4 1016,-380 747.48,-349.49 676.29,-383.9 409,-344 402.67,-343.06 396.03,-341.76 389.57,-340.33"/>
<polygon fill="midnightblue" stroke="midnightblue" points="390.16,-336.88 379.63,-338.01 388.57,-343.7 390.16,-336.88"/>
</g>
<!-- Node4&#45;&gt;Node5 -->
<g id="edge4" class="edge">
<title>Node4&#45;&gt;Node5</title>
<path fill="none" stroke="midnightblue" d="M1131.2,-314.11C1168.33,-303.8 1219.78,-289.5 1259.13,-278.57"/>
<polygon fill="midnightblue" stroke="midnightblue" points="1260.16,-281.92 1268.86,-275.87 1258.29,-275.18 1260.16,-281.92"/>
</g>
<!-- Node9 -->
<g id="node9" class="node">
<title>Node9</title>
<g id="a_node9"><a xlink:href="ref_8hpp.html" target="_top" xlink:title=" ">
<polygon fill="none" stroke="black" points="848.5,-56.5 848.5,-75.5 937.5,-75.5 937.5,-56.5 848.5,-56.5"/>
<text text-anchor="middle" x="893" y="-63.5" font-family="Helvetica,sans-Serif" font-size="10.00">yaclib/util/ref.hpp</text>
</a>
</g>
</g>
<!-- Node4&#45;&gt;Node9 -->
<g id="edge20" class="edge">
<title>Node4&#45;&gt;Node9</title>
<path fill="none" stroke="midnightblue" d="M1066.5,-313.43C1033.71,-284.63 959.91,-215.56 918,-143 907.6,-125 900.82,-102.07 896.97,-86.12"/>
<polygon fill="midnightblue" stroke="midnightblue" points="900.29,-84.91 894.69,-75.92 893.46,-86.44 900.29,-84.91"/>
</g>
<!-- Node4&#45;&gt;Node12 -->
<g id="edge11" class="edge">
<title>Node4&#45;&gt;Node12</title>
<path fill="none" stroke="midnightblue" d="M1104.26,-313.4C1120.7,-302.5 1143.34,-287.48 1159.77,-276.58"/>
<polygon fill="midnightblue" stroke="midnightblue" points="1161.78,-279.45 1168.17,-271.01 1157.91,-273.62 1161.78,-279.45"/>
</g>
<!-- Node4&#45;&gt;Node13 -->
<g id="edge19" class="edge">
<title>Node4&#45;&gt;Node13</title>
<path fill="none" stroke="midnightblue" d="M1078.93,-313.37C1072.48,-290.94 1059.8,-246.92 1051.9,-219.49"/>
<polygon fill="midnightblue" stroke="midnightblue" points="1055.17,-218.17 1049.04,-209.52 1048.44,-220.1 1055.17,-218.17"/>
</g>
<!-- Node17 -->
<g id="node17" class="node">
<title>Node17</title>
<g id="a_node17"><a xlink:title=" ">
<polygon fill="none" stroke="#bfbfbf" points="849,-252 849,-271 941,-271 941,-252 849,-252"/>
<text text-anchor="middle" x="895" y="-259" font-family="Helvetica,sans-Serif" font-size="10.00">yaclib_std/atomic</text>
</a>
</g>
</g>
<!-- Node4&#45;&gt;Node17 -->
<g id="edge21" class="edge">
<title>Node4&#45;&gt;Node17</title>
<path fill="none" stroke="midnightblue" d="M1042.21,-313.4C1008.49,-301.74 961.16,-285.37 929.35,-274.38"/>
<polygon fill="midnightblue" stroke="midnightblue" points="930.2,-270.97 919.6,-271.01 927.91,-277.58 930.2,-270.97"/>
</g>
<!-- Node6 -->
<g id="node6" class="node">
<title>Node6</title>
<g id="a_node6"><a xlink:href="job_8hpp.html" target="_top" xlink:title=" ">
<polygon fill="none" stroke="black" points="1158.5,-185 1158.5,-204 1273.5,-204 1273.5,-185 1158.5,-185"/>
<text text-anchor="middle" x="1216" y="-192" font-family="Helvetica,sans-Serif" font-size="10.00">yaclib/executor/job.hpp</text>
</a>
</g>
</g>
<!-- Node5&#45;&gt;Node6 -->
<g id="edge5" class="edge">
<title>Node5&#45;&gt;Node6</title>
<path fill="none" stroke="midnightblue" d="M1295.08,-246.4C1278.15,-235.5 1254.81,-220.48 1237.88,-209.58"/>
<polygon fill="midnightblue" stroke="midnightblue" points="1239.52,-206.48 1229.22,-204.01 1235.73,-212.36 1239.52,-206.48"/>
</g>
<!-- Node7 -->
<g id="node7" class="node">
<title>Node7</title>
<g id="a_node7"><a xlink:href="node_8hpp.html" target="_top" xlink:title=" ">
<polygon fill="none" stroke="black" points="1245.5,-112.5 1245.5,-142.5 1328.5,-142.5 1328.5,-112.5 1245.5,-112.5"/>
<text text-anchor="start" x="1253.5" y="-130.5" font-family="Helvetica,sans-Serif" font-size="10.00">yaclib/util/detail</text>
<text text-anchor="middle" x="1287" y="-119.5" font-family="Helvetica,sans-Serif" font-size="10.00">/node.hpp</text>
</a>
</g>
</g>
<!-- Node6&#45;&gt;Node7 -->
<g id="edge6" class="edge">
<title>Node6&#45;&gt;Node7</title>
<path fill="none" stroke="midnightblue" d="M1225.58,-184.73C1235.36,-175.78 1250.91,-161.54 1263.91,-149.63"/>
<polygon fill="midnightblue" stroke="midnightblue" points="1266.6,-151.92 1271.61,-142.59 1261.87,-146.76 1266.6,-151.92"/>
</g>
<!-- Node8 -->
<g id="node8" class="node">
<title>Node8</title>
<g id="a_node8"><a xlink:href="func_8hpp.html" target="_top" xlink:title=" ">
<polygon fill="none" stroke="black" points="959.5,-118 959.5,-137 1056.5,-137 1056.5,-118 959.5,-118"/>
<text text-anchor="middle" x="1008" y="-125" font-family="Helvetica,sans-Serif" font-size="10.00">yaclib/util/func.hpp</text>
</a>
</g>
</g>
<!-- Node6&#45;&gt;Node8 -->
<g id="edge7" class="edge">
<title>Node6&#45;&gt;Node8</title>
<path fill="none" stroke="midnightblue" d="M1188.38,-184.87C1151.52,-173.35 1086.15,-152.92 1045.05,-140.08"/>
<polygon fill="midnightblue" stroke="midnightblue" points="1045.99,-136.71 1035.4,-137.06 1043.9,-143.39 1045.99,-136.71"/>
</g>
<!-- Node8&#45;&gt;Node9 -->
<g id="edge8" class="edge">
<title>Node8&#45;&gt;Node9</title>
<path fill="none" stroke="midnightblue" d="M991.52,-117.98C972.39,-108.08 940.63,-91.64 918.35,-80.12"/>
<polygon fill="midnightblue" stroke="midnightblue" points="919.94,-77 909.45,-75.51 916.72,-83.21 919.94,-77"/>
</g>
<!-- Node10 -->
<g id="node10" class="node">
<title>Node10</title>
<g id="a_node10"><a xlink:title=" ">
<polygon fill="none" stroke="#bfbfbf" points="382,-56.5 382,-75.5 444,-75.5 444,-56.5 382,-56.5"/>
<text text-anchor="middle" x="413" y="-63.5" font-family="Helvetica,sans-Serif" font-size="10.00">type_traits</text>
</a>
</g>
</g>
<!-- Node8&#45;&gt;Node10 -->
<g id="edge9" class="edge">
<title>Node8&#45;&gt;Node10</title>
<path fill="none" stroke="midnightblue" d="M959.26,-118.98C942.7,-116.57 924.07,-114 907,-112 739.5,-92.36 539.19,-76.44 454.28,-70.03"/>
<polygon fill="midnightblue" stroke="midnightblue" points="454.5,-66.54 444.27,-69.28 453.98,-73.52 454.5,-66.54"/>
</g>
<!-- Node8&#45;&gt;Node11 -->
<g id="edge10" class="edge">
<title>Node8&#45;&gt;Node11</title>
<path fill="none" stroke="midnightblue" d="M1019.03,-117.98C1031.27,-108.52 1051.23,-93.1 1065.99,-81.69"/>
<polygon fill="midnightblue" stroke="midnightblue" points="1068.22,-84.39 1073.99,-75.51 1063.94,-78.85 1068.22,-84.39"/>
</g>
<!-- Node12&#45;&gt;Node6 -->
<g id="edge12" class="edge">
<title>Node12&#45;&gt;Node6</title>
<path fill="none" stroke="midnightblue" d="M1185.72,-251.73C1191.02,-241.89 1199.76,-225.66 1206.49,-213.16"/>
<polygon fill="midnightblue" stroke="midnightblue" points="1209.7,-214.59 1211.35,-204.13 1203.53,-211.27 1209.7,-214.59"/>
</g>
<!-- Node12&#45;&gt;Node13 -->
<g id="edge13" class="edge">
<title>Node12&#45;&gt;Node13</title>
<path fill="none" stroke="midnightblue" d="M1162.94,-251.87C1142.8,-242.24 1109.63,-226.39 1083.59,-213.94"/>
<polygon fill="midnightblue" stroke="midnightblue" points="1084.88,-210.68 1074.35,-209.53 1081.86,-217 1084.88,-210.68"/>
</g>
<!-- Node13&#45;&gt;Node9 -->
<g id="edge14" class="edge">
<title>Node13&#45;&gt;Node9</title>
<path fill="none" stroke="midnightblue" d="M1010.64,-179.37C991.81,-170.61 968.76,-158.14 951,-143 931.15,-126.08 913.81,-101.29 903.39,-84.67"/>
<polygon fill="midnightblue" stroke="midnightblue" points="906.27,-82.67 898.08,-75.95 900.29,-86.31 906.27,-82.67"/>
</g>
<!-- Node13&#45;&gt;Node10 -->
<g id="edge15" class="edge">
<title>Node13&#45;&gt;Node10</title>
<path fill="none" stroke="midnightblue" d="M996.26,-181.31C927.88,-164.44 799.45,-133.62 689,-112 606.14,-95.78 508.49,-80.83 454.38,-72.91"/>
<polygon fill="midnightblue" stroke="midnightblue" points="454.56,-69.4 444.16,-71.42 453.55,-76.33 454.56,-69.4"/>
</g>
<!-- Node14 -->
<g id="node14" class="node">
<title>Node14</title>
<g id="a_node14"><a xlink:href="intrusive__ptr__impl_8hpp.html" target="_top" xlink:title=" ">
<polygon fill="none" stroke="black" points="1113,-112.5 1113,-142.5 1227,-142.5 1227,-112.5 1113,-112.5"/>
<text text-anchor="start" x="1121" y="-130.5" font-family="Helvetica,sans-Serif" font-size="10.00">yaclib/util/detail</text>
<text text-anchor="middle" x="1170" y="-119.5" font-family="Helvetica,sans-Serif" font-size="10.00">/intrusive_ptr_impl.hpp</text>
</a>
</g>
</g>
<!-- Node13&#45;&gt;Node14 -->
<g id="edge16" class="edge">
<title>Node13&#45;&gt;Node14</title>
<path fill="none" stroke="midnightblue" d="M1072.12,-179.4C1090.22,-169.98 1114.23,-157.5 1133.93,-147.26"/>
<polygon fill="midnightblue" stroke="midnightblue" points="1135.67,-150.3 1142.93,-142.58 1132.44,-144.08 1135.67,-150.3"/>
</g>
<!-- Node15 -->
<g id="node15" class="node">
<title>Node15</title>
<g id="a_node15"><a xlink:href="log_8hpp.html" target="_top" xlink:title=" ">
<polygon fill="none" stroke="black" points="1280.5,-56.5 1280.5,-75.5 1355.5,-75.5 1355.5,-56.5 1280.5,-56.5"/>
<text text-anchor="middle" x="1318" y="-63.5" font-family="Helvetica,sans-Serif" font-size="10.00">yaclib/log.hpp</text>
</a>
</g>
</g>
<!-- Node14&#45;&gt;Node15 -->
<g id="edge17" class="edge">
<title>Node14&#45;&gt;Node15</title>
<path fill="none" stroke="midnightblue" d="M1205.07,-112.4C1230.02,-102.37 1263.21,-89.03 1287.14,-79.4"/>
<polygon fill="midnightblue" stroke="midnightblue" points="1288.49,-82.64 1296.46,-75.66 1285.88,-76.14 1288.49,-82.64"/>
</g>
<!-- Node16 -->
<g id="node16" class="node">
<title>Node16</title>
<g id="a_node16"><a xlink:title=" ">
<polygon fill="none" stroke="#bfbfbf" points="1285,-0.5 1285,-19.5 1351,-19.5 1351,-0.5 1285,-0.5"/>
<text text-anchor="middle" x="1318" y="-7.5" font-family="Helvetica,sans-Serif" font-size="10.00">string_view</text>
</a>
</g>
</g>
<!-- Node15&#45;&gt;Node16 -->
<g id="edge18" class="edge">
<title>Node15&#45;&gt;Node16</title>
<path fill="none" stroke="midnightblue" d="M1318,-56.08C1318,-49.01 1318,-38.86 1318,-29.99"/>
<polygon fill="midnightblue" stroke="midnightblue" points="1321.5,-29.75 1318,-19.75 1314.5,-29.75 1321.5,-29.75"/>
</g>
<!-- Node18&#45;&gt;Node19 -->
<g id="edge25" class="edge">
<title>Node18&#45;&gt;Node19</title>
<path fill="none" stroke="midnightblue" d="M333.22,-318.73C313.49,-307.77 279.49,-288.88 256.39,-276.05"/>
<polygon fill="midnightblue" stroke="midnightblue" points="257.97,-272.92 247.53,-271.13 254.57,-279.04 257.97,-272.92"/>
</g>
<!-- Node22 -->
<g id="node22" class="node">
<title>Node22</title>
<g id="a_node22"><a xlink:title=" ">
<polygon fill="none" stroke="#bfbfbf" points="260,-185 260,-204 318,-204 318,-185 260,-185"/>
<text text-anchor="middle" x="289" y="-192" font-family="Helvetica,sans-Serif" font-size="10.00">exception</text>
</a>
</g>
</g>
<!-- Node18&#45;&gt;Node22 -->
<g id="edge32" class="edge">
<title>Node18&#45;&gt;Node22</title>
<path fill="none" stroke="midnightblue" d="M345.06,-318.84C335.36,-297.49 310.13,-241.98 297.08,-213.27"/>
<polygon fill="midnightblue" stroke="midnightblue" points="300.2,-211.68 292.87,-204.02 293.83,-214.57 300.2,-211.68"/>
</g>
<!-- Node23 -->
<g id="node23" class="node">
<title>Node23</title>
<g id="a_node23"><a xlink:title=" ">
<polygon fill="none" stroke="#bfbfbf" points="350,-252 350,-271 396,-271 396,-252 350,-252"/>
<text text-anchor="middle" x="373" y="-259" font-family="Helvetica,sans-Serif" font-size="10.00">variant</text>
</a>
</g>
</g>
<!-- Node18&#45;&gt;Node23 -->
<g id="edge33" class="edge">
<title>Node18&#45;&gt;Node23</title>
<path fill="none" stroke="midnightblue" d="M352.24,-318.73C355.84,-308.99 361.75,-292.98 366.34,-280.53"/>
<polygon fill="midnightblue" stroke="midnightblue" points="369.63,-281.72 369.81,-271.13 363.07,-279.3 369.63,-281.72"/>
</g>
<!-- Node19&#45;&gt;Node10 -->
<g id="edge31" class="edge">
<title>Node19&#45;&gt;Node10</title>
<path fill="none" stroke="midnightblue" d="M170.36,-254.96C140.62,-248.82 107.47,-236.12 89,-210 81.04,-198.75 83.68,-191.71 89,-179 105.38,-139.86 119.29,-131.44 157,-112 226.42,-76.21 318.99,-68.25 371.67,-66.84"/>
<polygon fill="midnightblue" stroke="midnightblue" points="372.04,-70.33 381.97,-66.64 371.9,-63.34 372.04,-70.33"/>
</g>
<!-- Node20 -->
<g id="node20" class="node">
<title>Node20</title>
<g id="a_node20"><a xlink:href="fwd_8hpp.html" target="_top" xlink:title=" ">
<polygon fill="none" stroke="black" points="189,-118 189,-137 267,-137 267,-118 189,-118"/>
<text text-anchor="middle" x="228" y="-125" font-family="Helvetica,sans-Serif" font-size="10.00">yaclib/fwd.hpp</text>
</a>
</g>
</g>
<!-- Node19&#45;&gt;Node20 -->
<g id="edge26" class="edge">
<title>Node19&#45;&gt;Node20</title>
<path fill="none" stroke="midnightblue" d="M231.74,-251.84C231.1,-230.67 229.44,-175.95 228.56,-147.03"/>
<polygon fill="midnightblue" stroke="midnightblue" points="232.06,-146.91 228.26,-137.02 225.06,-147.12 232.06,-146.91"/>
</g>
<!-- Node21 -->
<g id="node21" class="node">
<title>Node21</title>
<g id="a_node21"><a xlink:href="type__traits__impl_8hpp.html" target="_top" xlink:title=" ">
<polygon fill="none" stroke="black" points="98,-179.5 98,-209.5 204,-209.5 204,-179.5 98,-179.5"/>
<text text-anchor="start" x="106" y="-197.5" font-family="Helvetica,sans-Serif" font-size="10.00">yaclib/util/detail</text>
<text text-anchor="middle" x="151" y="-186.5" font-family="Helvetica,sans-Serif" font-size="10.00">/type_traits_impl.hpp</text>
</a>
</g>
</g>
<!-- Node19&#45;&gt;Node21 -->
<g id="edge27" class="edge">
<title>Node19&#45;&gt;Node21</title>
<path fill="none" stroke="midnightblue" d="M221.08,-251.73C209.71,-242.61 191.5,-228 176.5,-215.96"/>
<polygon fill="midnightblue" stroke="midnightblue" points="178.55,-213.12 168.56,-209.59 174.17,-218.58 178.55,-213.12"/>
</g>
<!-- Node19&#45;&gt;Node22 -->
<g id="edge30" class="edge">
<title>Node19&#45;&gt;Node22</title>
<path fill="none" stroke="midnightblue" d="M239.69,-251.73C248.66,-241.5 263.69,-224.36 274.8,-211.69"/>
<polygon fill="midnightblue" stroke="midnightblue" points="277.47,-213.95 281.43,-204.13 272.21,-209.34 277.47,-213.95"/>
</g>
<!-- Node21&#45;&gt;Node10 -->
<g id="edge29" class="edge">
<title>Node21&#45;&gt;Node10</title>
<path fill="none" stroke="midnightblue" d="M151.89,-179.33C153.83,-160.92 160.07,-129.13 180,-112 208.22,-87.75 312.64,-75.31 371.66,-70.1"/>
<polygon fill="midnightblue" stroke="midnightblue" points="372.11,-73.57 381.78,-69.23 371.52,-66.6 372.11,-73.57"/>
</g>
<!-- Node21&#45;&gt;Node20 -->
<g id="edge28" class="edge">
<title>Node21&#45;&gt;Node20</title>
<path fill="none" stroke="midnightblue" d="M167.71,-179.4C180.19,-168.86 197.23,-154.48 210.01,-143.69"/>
<polygon fill="midnightblue" stroke="midnightblue" points="212.32,-146.32 217.7,-137.19 207.8,-140.97 212.32,-146.32"/>
</g>
<!-- Node24&#45;&gt;Node13 -->
<g id="edge42" class="edge">
<title>Node24&#45;&gt;Node13</title>
<path fill="none" stroke="midnightblue" d="M961.43,-385.9C968.56,-376.12 980.09,-359.48 988,-344 1009.59,-301.77 1027.87,-249.36 1037.56,-219.44"/>
<polygon fill="midnightblue" stroke="midnightblue" points="1040.91,-220.44 1040.62,-209.85 1034.25,-218.31 1040.91,-220.44"/>
</g>
<!-- Node25 -->
<g id="node25" class="node">
<title>Node25</title>
<g id="a_node25"><a xlink:href="atomic__counter_8hpp.html" target="_top" xlink:title=" ">
<polygon fill="none" stroke="black" points="875,-313.5 875,-343.5 979,-343.5 979,-313.5 875,-313.5"/>
<text text-anchor="start" x="883" y="-331.5" font-family="Helvetica,sans-Serif" font-size="10.00">yaclib/util/detail</text>
<text text-anchor="middle" x="927" y="-320.5" font-family="Helvetica,sans-Serif" font-size="10.00">/atomic_counter.hpp</text>
</a>
</g>
</g>
<!-- Node24&#45;&gt;Node25 -->
<g id="edge37" class="edge">
<title>Node24&#45;&gt;Node25</title>
<path fill="none" stroke="midnightblue" d="M951.22,-385.73C947.62,-377.37 942.03,-364.4 937.13,-353.02"/>
<polygon fill="midnightblue" stroke="midnightblue" points="940.24,-351.39 933.07,-343.59 933.81,-354.16 940.24,-351.39"/>
</g>
<!-- Node25&#45;&gt;Node11 -->
<g id="edge40" class="edge">
<title>Node25&#45;&gt;Node11</title>
<path fill="none" stroke="midnightblue" d="M884.19,-313.42C867.31,-305.52 849.67,-293.8 840,-277 833.13,-265.06 832.55,-257.59 840,-246 843.73,-240.2 1061.59,-148.3 1066,-143 1079.43,-126.86 1083.57,-102.55 1084.74,-85.79"/>
<polygon fill="midnightblue" stroke="midnightblue" points="1088.25,-85.72 1085.16,-75.59 1081.26,-85.44 1088.25,-85.72"/>
</g>
<!-- Node25&#45;&gt;Node17 -->
<g id="edge41" class="edge">
<title>Node25&#45;&gt;Node17</title>
<path fill="none" stroke="midnightblue" d="M920.06,-313.4C915.26,-303.66 908.86,-290.65 903.72,-280.21"/>
<polygon fill="midnightblue" stroke="midnightblue" points="906.84,-278.62 899.28,-271.19 900.56,-281.71 906.84,-278.62"/>
</g>
<!-- Node26 -->
<g id="node26" class="node">
<title>Node26</title>
<g id="a_node26"><a xlink:title=" ">
<polygon fill="none" stroke="#bfbfbf" points="530,-252 530,-271 618,-271 618,-252 530,-252"/>
<text text-anchor="middle" x="574" y="-259" font-family="Helvetica,sans-Serif" font-size="10.00">yaclib/config.hpp</text>
</a>
</g>
</g>
<!-- Node25&#45;&gt;Node26 -->
<g id="edge38" class="edge">
<title>Node25&#45;&gt;Node26</title>
<path fill="none" stroke="midnightblue" d="M874.91,-317.91C808.79,-305.73 695.25,-284.83 628.16,-272.47"/>
<polygon fill="midnightblue" stroke="midnightblue" points="628.67,-269.01 618.2,-270.64 627.4,-275.89 628.67,-269.01"/>
</g>
<!-- Node27 -->
<g id="node27" class="node">
<title>Node27</title>
<g id="a_node27"><a xlink:title=" ">
<polygon fill="none" stroke="#bfbfbf" points="743.5,-252 743.5,-271 792.5,-271 792.5,-252 743.5,-252"/>
<text text-anchor="middle" x="768" y="-259" font-family="Helvetica,sans-Serif" font-size="10.00">cstddef</text>
</a>
</g>
</g>
<!-- Node25&#45;&gt;Node27 -->
<g id="edge39" class="edge">
<title>Node25&#45;&gt;Node27</title>
<path fill="none" stroke="midnightblue" d="M892.5,-313.4C864.35,-301.89 824.99,-285.8 798.11,-274.81"/>
<polygon fill="midnightblue" stroke="midnightblue" points="799.39,-271.55 788.81,-271.01 796.74,-278.03 799.39,-271.55"/>
</g>
<!-- Node28&#45;&gt;Node15 -->
<g id="edge68" class="edge">
<title>Node28&#45;&gt;Node15</title>
<path fill="none" stroke="midnightblue" d="M885.11,-528.84C1026.52,-527.08 1431,-501.2 1431,-262.5 1431,-262.5 1431,-262.5 1431,-193.5 1431,-141.28 1376.78,-100.71 1343.46,-80.7"/>
<polygon fill="midnightblue" stroke="midnightblue" points="1345.08,-77.6 1334.67,-75.61 1341.57,-83.66 1345.08,-77.6"/>
</g>
<!-- Node28&#45;&gt;Node18 -->
<g id="edge69" class="edge">
<title>Node28&#45;&gt;Node18</title>
<path fill="none" stroke="midnightblue" d="M788.86,-525.33C733.9,-520.39 642.13,-508.06 569,-478 486.1,-443.92 402.16,-375.9 366.63,-345.19"/>
<polygon fill="midnightblue" stroke="midnightblue" points="368.5,-342.17 358.67,-338.23 363.89,-347.44 368.5,-342.17"/>
</g>
<!-- Node29 -->
<g id="node29" class="node">
<title>Node29</title>
<g id="a_node29"><a xlink:href="wait_8hpp.html" target="_top" xlink:title=" ">
<polygon fill="none" stroke="black" points="577.5,-453 577.5,-472 678.5,-472 678.5,-453 577.5,-453"/>
<text text-anchor="middle" x="628" y="-460" font-family="Helvetica,sans-Serif" font-size="10.00">yaclib/algo/wait.hpp</text>
</a>
</g>
</g>
<!-- Node28&#45;&gt;Node29 -->
<g id="edge45" class="edge">
<title>Node28&#45;&gt;Node29</title>
<path fill="none" stroke="midnightblue" d="M791.91,-514.48C754.12,-502.72 700.81,-486.14 665.36,-475.12"/>
<polygon fill="midnightblue" stroke="midnightblue" points="666.01,-471.66 655.42,-472.03 663.93,-478.34 666.01,-471.66"/>
</g>
<!-- Node38 -->
<g id="node38" class="node">
<title>Node38</title>
<g id="a_node38"><a xlink:href="core_8hpp.html" target="_top" xlink:title=" ">
<polygon fill="none" stroke="black" points="827,-447.5 827,-477.5 923,-477.5 923,-447.5 827,-447.5"/>
<text text-anchor="start" x="835" y="-465.5" font-family="Helvetica,sans-Serif" font-size="10.00">yaclib/async/detail</text>
<text text-anchor="middle" x="875" y="-454.5" font-family="Helvetica,sans-Serif" font-size="10.00">/core.hpp</text>
</a>
</g>
</g>
<!-- Node28&#45;&gt;Node38 -->
<g id="edge65" class="edge">
<title>Node28&#45;&gt;Node38</title>
<path fill="none" stroke="midnightblue" d="M845.25,-514.4C850.03,-506.22 856.16,-495.73 861.62,-486.39"/>
<polygon fill="midnightblue" stroke="midnightblue" points="864.75,-487.98 866.77,-477.58 858.7,-484.44 864.75,-487.98"/>
</g>
<!-- Node29&#45;&gt;Node2 -->
<g id="edge61" class="edge">
<title>Node29&#45;&gt;Node2</title>
<path fill="none" stroke="midnightblue" d="M642.19,-472.09C677.66,-493.56 770.44,-549.71 813.9,-576.02"/>
<polygon fill="midnightblue" stroke="midnightblue" points="812.27,-579.12 822.63,-581.31 815.89,-573.13 812.27,-579.12"/>
</g>
<!-- Node29&#45;&gt;Node26 -->
<g id="edge62" class="edge">
<title>Node29&#45;&gt;Node26</title>
<path fill="none" stroke="midnightblue" d="M610.39,-452.87C595.48,-444.48 575.12,-430.18 566,-411 545.56,-367.99 558.73,-309.87 567.68,-280.74"/>
<polygon fill="midnightblue" stroke="midnightblue" points="571.06,-281.68 570.83,-271.09 564.4,-279.51 571.06,-281.68"/>
</g>
<!-- Node29&#45;&gt;Node27 -->
<g id="edge64" class="edge">
<title>Node29&#45;&gt;Node27</title>
<path fill="none" stroke="midnightblue" d="M625.65,-452.72C619.59,-427.96 606.02,-356.52 638,-313 660.12,-282.89 702.81,-270.73 733.23,-265.82"/>
<polygon fill="midnightblue" stroke="midnightblue" points="734.02,-269.25 743.42,-264.37 733.03,-262.32 734.02,-269.25"/>
</g>
<!-- Node30 -->
<g id="node30" class="node">
<title>Node30</title>
<g id="a_node30"><a xlink:href="wait__impl_8hpp.html" target="_top" xlink:title=" ">
<polygon fill="none" stroke="black" points="655.5,-380.5 655.5,-410.5 744.5,-410.5 744.5,-380.5 655.5,-380.5"/>
<text text-anchor="start" x="663.5" y="-398.5" font-family="Helvetica,sans-Serif" font-size="10.00">yaclib/algo/detail</text>
<text text-anchor="middle" x="700" y="-387.5" font-family="Helvetica,sans-Serif" font-size="10.00">/wait_impl.hpp</text>
</a>
</g>
</g>
<!-- Node29&#45;&gt;Node30 -->
<g id="edge46" class="edge">
<title>Node29&#45;&gt;Node30</title>
<path fill="none" stroke="midnightblue" d="M637.71,-452.73C647.72,-443.7 663.7,-429.27 676.96,-417.3"/>
<polygon fill="midnightblue" stroke="midnightblue" points="679.32,-419.89 684.39,-410.59 674.63,-414.69 679.32,-419.89"/>
</g>
<!-- Node31 -->
<g id="node31" class="node">
<title>Node31</title>
<g id="a_node31"><a xlink:href="default__event_8hpp.html" target="_top" xlink:title=" ">
<polygon fill="none" stroke="black" points="418,-313.5 418,-343.5 514,-343.5 514,-313.5 418,-313.5"/>
<text text-anchor="start" x="426" y="-331.5" font-family="Helvetica,sans-Serif" font-size="10.00">yaclib/util/detail</text>
<text text-anchor="middle" x="466" y="-320.5" font-family="Helvetica,sans-Serif" font-size="10.00">/default_event.hpp</text>
</a>
</g>
</g>
<!-- Node29&#45;&gt;Node31 -->
<g id="edge63" class="edge">
<title>Node29&#45;&gt;Node31</title>
<path fill="none" stroke="midnightblue" d="M603.99,-452.96C582.53,-444.54 551.02,-430.16 528,-411 507.98,-394.34 490.58,-370.07 479.34,-352.34"/>
<polygon fill="midnightblue" stroke="midnightblue" points="482.28,-350.43 474.05,-343.75 476.32,-354.1 482.28,-350.43"/>
</g>
<!-- Node30&#45;&gt;Node4 -->
<g id="edge47" class="edge">
<title>Node30&#45;&gt;Node4</title>
<path fill="none" stroke="midnightblue" d="M744.68,-386.92C814.09,-375.14 947.78,-352.45 1024.69,-339.4"/>
<polygon fill="midnightblue" stroke="midnightblue" points="1025.42,-342.82 1034.7,-337.7 1024.25,-335.92 1025.42,-342.82"/>
</g>
<!-- Node30&#45;&gt;Node10 -->
<g id="edge60" class="edge">
<title>Node30&#45;&gt;Node10</title>
<path fill="none" stroke="midnightblue" d="M674.44,-380.33C661.29,-371.63 646.31,-359.23 638,-344 602.62,-279.16 659.84,-239.88 618,-179 578.97,-122.21 501.44,-91.47 453.71,-77.21"/>
<polygon fill="midnightblue" stroke="midnightblue" points="454.58,-73.82 444,-74.42 452.65,-80.55 454.58,-73.82"/>
</g>
<!-- Node30&#45;&gt;Node19 -->
<g id="edge57" class="edge">
<title>Node30&#45;&gt;Node19</title>
<path fill="none" stroke="midnightblue" d="M655.31,-393.54C561.96,-390.8 349.92,-380.63 289,-344 264.65,-329.36 248.06,-299.87 239.31,-280.67"/>
<polygon fill="midnightblue" stroke="midnightblue" points="242.41,-279.03 235.25,-271.22 235.98,-281.79 242.41,-279.03"/>
</g>
<!-- Node30&#45;&gt;Node25 -->
<g id="edge48" class="edge">
<title>Node30&#45;&gt;Node25</title>
<path fill="none" stroke="midnightblue" d="M744.58,-381.74C779.78,-371.66 829.22,-357.5 867.75,-346.47"/>
<polygon fill="midnightblue" stroke="midnightblue" points="869.15,-349.71 877.8,-343.59 867.22,-342.98 869.15,-349.71"/>
</g>
<!-- Node30&#45;&gt;Node27 -->
<g id="edge58" class="edge">
<title>Node30&#45;&gt;Node27</title>
<path fill="none" stroke="midnightblue" d="M744.69,-389.58C773.71,-383.8 809.45,-371.26 828,-344 835.75,-332.61 833.81,-325.49 828,-313 820.81,-297.55 806.32,-285.14 793.37,-276.49"/>
<polygon fill="midnightblue" stroke="midnightblue" points="795.11,-273.44 784.77,-271.11 791.39,-279.38 795.11,-273.44"/>
</g>
<!-- Node30&#45;&gt;Node31 -->
<g id="edge49" class="edge">
<title>Node30&#45;&gt;Node31</title>
<path fill="none" stroke="midnightblue" d="M655.44,-382.12C618.07,-371.74 564.46,-356.85 523.8,-345.56"/>
<polygon fill="midnightblue" stroke="midnightblue" points="524.6,-342.14 514.02,-342.84 522.72,-348.89 524.6,-342.14"/>
</g>
<!-- Node36 -->
<g id="node36" class="node">
<title>Node36</title>
<g id="a_node36"><a xlink:href="set__one__deleter_8hpp.html" target="_top" xlink:title=" ">
<polygon fill="none" stroke="black" points="646.5,-313.5 646.5,-343.5 753.5,-343.5 753.5,-313.5 646.5,-313.5"/>
<text text-anchor="start" x="654.5" y="-331.5" font-family="Helvetica,sans-Serif" font-size="10.00">yaclib/util/detail</text>
<text text-anchor="middle" x="700" y="-320.5" font-family="Helvetica,sans-Serif" font-size="10.00">/set_one_deleter.hpp</text>
</a>
</g>
</g>
<!-- Node30&#45;&gt;Node36 -->
<g id="edge56" class="edge">
<title>Node30&#45;&gt;Node36</title>
<path fill="none" stroke="midnightblue" d="M700,-380.4C700,-372.64 700,-362.81 700,-353.86"/>
<polygon fill="midnightblue" stroke="midnightblue" points="703.5,-353.58 700,-343.58 696.5,-353.58 703.5,-353.58"/>
</g>
<!-- Node37 -->
<g id="node37" class="node">
<title>Node37</title>
<g id="a_node37"><a xlink:title=" ">
<polygon fill="none" stroke="#bfbfbf" points="771.5,-319 771.5,-338 818.5,-338 818.5,-319 771.5,-319"/>
<text text-anchor="middle" x="795" y="-326" font-family="Helvetica,sans-Serif" font-size="10.00">iterator</text>
</a>
</g>
</g>
<!-- Node30&#45;&gt;Node37 -->
<g id="edge59" class="edge">
<title>Node30&#45;&gt;Node37</title>
<path fill="none" stroke="midnightblue" d="M720.61,-380.4C736.4,-369.6 758.09,-354.76 773.97,-343.89"/>
<polygon fill="midnightblue" stroke="midnightblue" points="776.29,-346.54 782.57,-338.01 772.34,-340.77 776.29,-346.54"/>
</g>
<!-- Node31&#45;&gt;Node26 -->
<g id="edge50" class="edge">
<title>Node31&#45;&gt;Node26</title>
<path fill="none" stroke="midnightblue" d="M489.43,-313.4C507.71,-302.39 532.96,-287.2 551.1,-276.28"/>
<polygon fill="midnightblue" stroke="midnightblue" points="553.1,-279.16 559.87,-271.01 549.49,-273.16 553.1,-279.16"/>
</g>
<!-- Node32 -->
<g id="node32" class="node">
<title>Node32</title>
<g id="a_node32"><a xlink:href="mutex__event_8hpp.html" target="_top" xlink:title=" ">
<polygon fill="none" stroke="black" points="419.5,-246.5 419.5,-276.5 512.5,-276.5 512.5,-246.5 419.5,-246.5"/>
<text text-anchor="start" x="427.5" y="-264.5" font-family="Helvetica,sans-Serif" font-size="10.00">yaclib/util/detail</text>
<text text-anchor="middle" x="466" y="-253.5" font-family="Helvetica,sans-Serif" font-size="10.00">/mutex_event.hpp</text>
</a>
</g>
</g>
<!-- Node31&#45;&gt;Node32 -->
<g id="edge51" class="edge">
<title>Node31&#45;&gt;Node32</title>
<path fill="none" stroke="midnightblue" d="M466,-313.4C466,-305.64 466,-295.81 466,-286.86"/>
<polygon fill="midnightblue" stroke="midnightblue" points="469.5,-286.58 466,-276.58 462.5,-286.58 469.5,-286.58"/>
</g>
<!-- Node32&#45;&gt;Node9 -->
<g id="edge52" class="edge">
<title>Node32&#45;&gt;Node9</title>
<path fill="none" stroke="midnightblue" d="M512.6,-247.12C543.05,-237.87 583.43,-224.62 618,-210 714.44,-169.21 823.16,-107.81 869.77,-80.7"/>
<polygon fill="midnightblue" stroke="midnightblue" points="871.63,-83.66 878.49,-75.6 868.09,-77.62 871.63,-83.66"/>
</g>
<!-- Node33 -->
<g id="node33" class="node">
<title>Node33</title>
<g id="a_node33"><a xlink:title=" ">
<polygon fill="none" stroke="#bfbfbf" points="443,-185 443,-204 489,-204 489,-185 443,-185"/>
<text text-anchor="middle" x="466" y="-192" font-family="Helvetica,sans-Serif" font-size="10.00">chrono</text>
</a>
</g>
</g>
<!-- Node32&#45;&gt;Node33 -->
<g id="edge53" class="edge">
<title>Node32&#45;&gt;Node33</title>
<path fill="none" stroke="midnightblue" d="M466,-246.4C466,-237.06 466,-224.71 466,-214.52"/>
<polygon fill="midnightblue" stroke="midnightblue" points="469.5,-214.19 466,-204.19 462.5,-214.19 469.5,-214.19"/>
</g>
<!-- Node34 -->
<g id="node34" class="node">
<title>Node34</title>
<g id="a_node34"><a xlink:title=" ">
<polygon fill="none" stroke="#bfbfbf" points="507,-179.5 507,-209.5 609,-209.5 609,-179.5 507,-179.5"/>
<text text-anchor="start" x="515" y="-197.5" font-family="Helvetica,sans-Serif" font-size="10.00">yaclib_std/condition</text>
<text text-anchor="middle" x="558" y="-186.5" font-family="Helvetica,sans-Serif" font-size="10.00">_variable</text>
</a>
</g>
</g>
<!-- Node32&#45;&gt;Node34 -->
<g id="edge54" class="edge">
<title>Node32&#45;&gt;Node34</title>
<path fill="none" stroke="midnightblue" d="M485.96,-246.4C498.74,-237.37 515.52,-225.51 529.67,-215.52"/>
<polygon fill="midnightblue" stroke="midnightblue" points="531.93,-218.21 538.08,-209.58 527.89,-212.49 531.93,-218.21"/>
</g>
<!-- Node35 -->
<g id="node35" class="node">
<title>Node35</title>
<g id="a_node35"><a xlink:title=" ">
<polygon fill="none" stroke="#bfbfbf" points="335.5,-185 335.5,-204 424.5,-204 424.5,-185 335.5,-185"/>
<text text-anchor="middle" x="380" y="-192" font-family="Helvetica,sans-Serif" font-size="10.00">yaclib_std/mutex</text>
</a>
</g>
</g>
<!-- Node32&#45;&gt;Node35 -->
<g id="edge55" class="edge">
<title>Node32&#45;&gt;Node35</title>
<path fill="none" stroke="midnightblue" d="M447.34,-246.4C433.27,-235.76 414.01,-221.2 399.69,-210.38"/>
<polygon fill="midnightblue" stroke="midnightblue" points="401.59,-207.43 391.5,-204.19 397.37,-213.02 401.59,-207.43"/>
</g>
<!-- Node38&#45;&gt;Node3 -->
<g id="edge66" class="edge">
<title>Node38&#45;&gt;Node3</title>
<path fill="none" stroke="midnightblue" d="M923.14,-447.72C958.5,-437.59 1006.71,-423.79 1044.16,-413.06"/>
<polygon fill="midnightblue" stroke="midnightblue" points="1045.28,-416.38 1053.93,-410.26 1043.35,-409.65 1045.28,-416.38"/>
</g>
<!-- Node38&#45;&gt;Node25 -->
<g id="edge67" class="edge">
<title>Node38&#45;&gt;Node25</title>
<path fill="none" stroke="midnightblue" d="M876.75,-447.48C879.16,-430.86 884.35,-402.58 894,-380 898.15,-370.28 904.16,-360.37 909.92,-351.94"/>
<polygon fill="midnightblue" stroke="midnightblue" points="912.8,-353.93 915.74,-343.75 907.09,-349.88 912.8,-353.93"/>
</g>
<!-- Node39&#45;&gt;Node3 -->
<g id="edge71" class="edge">
<title>Node39&#45;&gt;Node3</title>
<path fill="none" stroke="midnightblue" d="M203.53,-460.24C347.36,-456.82 712.65,-445.22 1016,-411 1025.06,-409.98 1034.62,-408.63 1043.93,-407.18"/>
<polygon fill="midnightblue" stroke="midnightblue" points="1044.61,-410.61 1053.92,-405.56 1043.49,-403.7 1044.61,-410.61"/>
</g>
<!-- Node39&#45;&gt;Node19 -->
<g id="edge72" class="edge">
<title>Node39&#45;&gt;Node19</title>
<path fill="none" stroke="midnightblue" d="M144.91,-452.95C158.65,-422.91 204.88,-321.8 223.81,-280.4"/>
<polygon fill="midnightblue" stroke="midnightblue" points="227.03,-281.79 228,-271.24 220.66,-278.88 227.03,-281.79"/>
</g>
<!-- Node40 -->
<g id="node40" class="node">
<title>Node40</title>
<g id="a_node40"><a xlink:href="promise__impl_8hpp.html" target="_top" xlink:title=" ">
<polygon fill="none" stroke="black" points="0,-380.5 0,-410.5 96,-410.5 96,-380.5 0,-380.5"/>
<text text-anchor="start" x="8" y="-398.5" font-family="Helvetica,sans-Serif" font-size="10.00">yaclib/async/detail</text>
<text text-anchor="middle" x="48" y="-387.5" font-family="Helvetica,sans-Serif" font-size="10.00">/promise_impl.hpp</text>
</a>
</g>
</g>
<!-- Node39&#45;&gt;Node40 -->
<g id="edge73" class="edge">
<title>Node39&#45;&gt;Node40</title>
<path fill="none" stroke="midnightblue" d="M128.46,-452.73C115.28,-443.53 94.12,-428.73 76.8,-416.63"/>
<polygon fill="midnightblue" stroke="midnightblue" points="78.36,-413.45 68.16,-410.59 74.35,-419.19 78.36,-413.45"/>
</g>
<!-- Node40&#45;&gt;Node10 -->
<g id="edge74" class="edge">
<title>Node40&#45;&gt;Node10</title>
<path fill="none" stroke="midnightblue" d="M45.14,-380.31C40.54,-356.2 32,-305.67 32,-262.5 32,-262.5 32,-262.5 32,-193.5 32,-144.27 63.48,-135.01 107,-112 152.13,-88.13 299.04,-74.89 371.63,-69.66"/>
<polygon fill="midnightblue" stroke="midnightblue" points="372.05,-73.14 381.78,-68.95 371.56,-66.16 372.05,-73.14"/>
</g>
</g>
</svg>
