<?xml version="1.0" encoding="UTF-8" standalone="no"?>
<!DOCTYPE svg PUBLIC "-//W3C//DTD SVG 1.1//EN"
 "http://www.w3.org/Graphics/SVG/1.1/DTD/svg11.dtd">
<!-- Generated by graphviz version 3.0.0 (20220413.0106)
 -->
<!-- Title: include/yaclib/async/detail/core.hpp Pages: 1 -->
<svg width="1394pt" height="374pt"
 viewBox="0.00 0.00 1394.00 374.00" xmlns="http://www.w3.org/2000/svg" xmlns:xlink="http://www.w3.org/1999/xlink">
<g id="graph0" class="graph" transform="scale(1 1) rotate(0) translate(4 370)">
<title>include/yaclib/async/detail/core.hpp</title>
<!-- Node1 -->
<g id="node1" class="node">
<title>Node1</title>
<g id="a_node1"><a xlink:title=" ">
<polygon fill="#bfbfbf" stroke="black" points="418,-335.5 418,-365.5 522,-365.5 522,-335.5 418,-335.5"/>
<text text-anchor="start" x="426" y="-353.5" font-family="Helvetica,sans-Serif" font-size="10.00">include/yaclib/async</text>
<text text-anchor="middle" x="470" y="-342.5" font-family="Helvetica,sans-Serif" font-size="10.00">/detail/core.hpp</text>
</a>
</g>
</g>
<!-- Node2 -->
<g id="node2" class="node">
<title>Node2</title>
<g id="a_node2"><a xlink:href="future__impl_8hpp.html" target="_top" xlink:title=" ">
<polygon fill="none" stroke="black" points="611,-268.5 611,-298.5 723,-298.5 723,-268.5 611,-268.5"/>
<text text-anchor="start" x="619" y="-286.5" font-family="Helvetica,sans-Serif" font-size="10.00">include/yaclib/async</text>
<text text-anchor="middle" x="667" y="-275.5" font-family="Helvetica,sans-Serif" font-size="10.00">/detail/future_impl.hpp</text>
</a>
</g>
</g>
<!-- Node1&#45;&gt;Node2 -->
<g id="edge1" class="edge">
<title>Node1&#45;&gt;Node2</title>
<path fill="none" stroke="midnightblue" d="M522.35,-332.23C554.22,-321.71 594.41,-308.45 624.34,-298.58"/>
<polygon fill="midnightblue" stroke="midnightblue" points="521.15,-328.94 512.75,-335.4 523.34,-335.59 521.15,-328.94"/>
</g>
<!-- Node16 -->
<g id="node16" class="node">
<title>Node16</title>
<g id="a_node16"><a xlink:href="run_8hpp.html" target="_top" xlink:title=" ">
<polygon fill="none" stroke="black" points="0,-134.5 0,-164.5 104,-164.5 104,-134.5 0,-134.5"/>
<text text-anchor="start" x="8" y="-152.5" font-family="Helvetica,sans-Serif" font-size="10.00">include/yaclib/async</text>
<text text-anchor="middle" x="52" y="-141.5" font-family="Helvetica,sans-Serif" font-size="10.00">/run.hpp</text>
</a>
</g>
</g>
<!-- Node1&#45;&gt;Node16 -->
<g id="edge29" class="edge">
<title>Node1&#45;&gt;Node16</title>
<path fill="none" stroke="midnightblue" d="M431.19,-331.02C348.3,-291.56 155.49,-199.77 81.57,-164.58"/>
<polygon fill="midnightblue" stroke="midnightblue" points="429.74,-334.21 440.27,-335.35 432.75,-327.89 429.74,-334.21"/>
</g>
<!-- Node3 -->
<g id="node3" class="node">
<title>Node3</title>
<g id="a_node3"><a xlink:href="future_8hpp.html" target="_top" xlink:title=" ">
<polygon fill="none" stroke="black" points="615,-201.5 615,-231.5 719,-231.5 719,-201.5 615,-201.5"/>
<text text-anchor="start" x="623" y="-219.5" font-family="Helvetica,sans-Serif" font-size="10.00">include/yaclib/async</text>
<text text-anchor="middle" x="667" y="-208.5" font-family="Helvetica,sans-Serif" font-size="10.00">/future.hpp</text>
</a>
</g>
</g>
<!-- Node2&#45;&gt;Node3 -->
<g id="edge2" class="edge">
<title>Node2&#45;&gt;Node3</title>
<path fill="none" stroke="midnightblue" d="M667,-258.11C667,-249.15 667,-239.32 667,-231.58"/>
<polygon fill="midnightblue" stroke="midnightblue" points="663.5,-258.4 667,-268.4 670.5,-258.4 663.5,-258.4"/>
</g>
<!-- Node4 -->
<g id="node4" class="node">
<title>Node4</title>
<g id="a_node4"><a xlink:href="when__impl_8hpp.html" target="_top" xlink:title=" ">
<polygon fill="none" stroke="black" points="320,-134.5 320,-164.5 430,-164.5 430,-134.5 320,-134.5"/>
<text text-anchor="start" x="328" y="-152.5" font-family="Helvetica,sans-Serif" font-size="10.00">include/yaclib/algo</text>
<text text-anchor="middle" x="375" y="-141.5" font-family="Helvetica,sans-Serif" font-size="10.00">/detail/when_impl.hpp</text>
</a>
</g>
</g>
<!-- Node3&#45;&gt;Node4 -->
<g id="edge3" class="edge">
<title>Node3&#45;&gt;Node4</title>
<path fill="none" stroke="midnightblue" d="M605.12,-201.88C559.25,-191.76 495.21,-177.59 439,-165 436.11,-164.35 433.15,-163.69 430.15,-163.01"/>
<polygon fill="midnightblue" stroke="midnightblue" points="604.4,-205.3 614.92,-204.04 605.9,-198.47 604.4,-205.3"/>
</g>
<!-- Node5 -->
<g id="node5" class="node">
<title>Node5</title>
<g id="a_node5"><a xlink:href="when__all_8hpp.html" target="_top" xlink:title=" ">
<polygon fill="none" stroke="black" points="244,-67.5 244,-97.5 340,-97.5 340,-67.5 244,-67.5"/>
<text text-anchor="start" x="252" y="-85.5" font-family="Helvetica,sans-Serif" font-size="10.00">include/yaclib/algo</text>
<text text-anchor="middle" x="292" y="-74.5" font-family="Helvetica,sans-Serif" font-size="10.00">/when_all.hpp</text>
</a>
</g>
</g>
<!-- Node3&#45;&gt;Node5 -->
<g id="edge14" class="edge">
<title>Node3&#45;&gt;Node5</title>
<path fill="none" stroke="midnightblue" d="M604.72,-214.88C514.27,-212.65 352.78,-203.26 311,-165 292.25,-147.83 290.25,-116.05 290.87,-97.66"/>
<polygon fill="midnightblue" stroke="midnightblue" points="604.78,-218.38 614.85,-215.11 604.93,-211.38 604.78,-218.38"/>
</g>
<!-- Node7 -->
<g id="node7" class="node">
<title>Node7</title>
<g id="a_node7"><a xlink:href="when__any_8hpp.html" target="_top" xlink:title=" ">
<polygon fill="none" stroke="black" points="634,-67.5 634,-97.5 730,-97.5 730,-67.5 634,-67.5"/>
<text text-anchor="start" x="642" y="-85.5" font-family="Helvetica,sans-Serif" font-size="10.00">include/yaclib/algo</text>
<text text-anchor="middle" x="682" y="-74.5" font-family="Helvetica,sans-Serif" font-size="10.00">/when_any.hpp</text>
</a>
</g>
</g>
<!-- Node3&#45;&gt;Node7 -->
<g id="edge15" class="edge">
<title>Node3&#45;&gt;Node7</title>
<path fill="none" stroke="midnightblue" d="M728.65,-202.53C748.81,-195.05 769.07,-183.33 781,-165 788.51,-153.45 788.2,-145.75 781,-134 769.71,-115.57 749.35,-103.6 730.02,-95.97"/>
<polygon fill="midnightblue" stroke="midnightblue" points="727.45,-199.24 719.11,-205.78 729.71,-205.87 727.45,-199.24"/>
</g>
<!-- Node9 -->
<g id="node9" class="node">
<title>Node9</title>
<g id="a_node9"><a xlink:href="wait_8hpp.html" target="_top" xlink:title=" ">
<polygon fill="none" stroke="black" points="1290,-134.5 1290,-164.5 1386,-164.5 1386,-134.5 1290,-134.5"/>
<text text-anchor="start" x="1298" y="-152.5" font-family="Helvetica,sans-Serif" font-size="10.00">include/yaclib/algo</text>
<text text-anchor="middle" x="1338" y="-141.5" font-family="Helvetica,sans-Serif" font-size="10.00">/wait.hpp</text>
</a>
</g>
</g>
<!-- Node3&#45;&gt;Node9 -->
<g id="edge8" class="edge">
<title>Node3&#45;&gt;Node9</title>
<path fill="none" stroke="midnightblue" d="M729.16,-213.82C840.49,-210.04 1081,-198.42 1281,-165 1283.92,-164.51 1286.91,-163.95 1289.92,-163.33"/>
<polygon fill="midnightblue" stroke="midnightblue" points="728.99,-210.32 719.11,-214.15 729.22,-217.31 728.99,-210.32"/>
</g>
<!-- Node10 -->
<g id="node10" class="node">
<title>Node10</title>
<g id="a_node10"><a xlink:href="wait__for_8hpp.html" target="_top" xlink:title=" ">
<polygon fill="none" stroke="black" points="448,-134.5 448,-164.5 544,-164.5 544,-134.5 448,-134.5"/>
<text text-anchor="start" x="456" y="-152.5" font-family="Helvetica,sans-Serif" font-size="10.00">include/yaclib/algo</text>
<text text-anchor="middle" x="496" y="-141.5" font-family="Helvetica,sans-Serif" font-size="10.00">/wait_for.hpp</text>
</a>
</g>
</g>
<!-- Node3&#45;&gt;Node10 -->
<g id="edge10" class="edge">
<title>Node3&#45;&gt;Node10</title>
<path fill="none" stroke="midnightblue" d="M620.48,-197.82C593,-187.37 558.67,-174.32 533.03,-164.58"/>
<polygon fill="midnightblue" stroke="midnightblue" points="619.3,-201.11 629.9,-201.4 621.79,-194.57 619.3,-201.11"/>
</g>
<!-- Node11 -->
<g id="node11" class="node">
<title>Node11</title>
<g id="a_node11"><a xlink:href="wait__group_8hpp.html" target="_top" xlink:title=" ">
<polygon fill="none" stroke="black" points="562,-134.5 562,-164.5 658,-164.5 658,-134.5 562,-134.5"/>
<text text-anchor="start" x="570" y="-152.5" font-family="Helvetica,sans-Serif" font-size="10.00">include/yaclib/algo</text>
<text text-anchor="middle" x="610" y="-141.5" font-family="Helvetica,sans-Serif" font-size="10.00">/wait_group.hpp</text>
</a>
</g>
</g>
<!-- Node3&#45;&gt;Node11 -->
<g id="edge11" class="edge">
<title>Node3&#45;&gt;Node11</title>
<path fill="none" stroke="midnightblue" d="M647.91,-193.74C639.48,-184.12 629.81,-173.09 622.34,-164.58"/>
<polygon fill="midnightblue" stroke="midnightblue" points="645.41,-196.18 654.63,-201.4 650.67,-191.57 645.41,-196.18"/>
</g>
<!-- Node13 -->
<g id="node13" class="node">
<title>Node13</title>
<g id="a_node13"><a xlink:href="wait__until_8hpp.html" target="_top" xlink:title=" ">
<polygon fill="none" stroke="black" points="676,-134.5 676,-164.5 772,-164.5 772,-134.5 676,-134.5"/>
<text text-anchor="start" x="684" y="-152.5" font-family="Helvetica,sans-Serif" font-size="10.00">include/yaclib/algo</text>
<text text-anchor="middle" x="724" y="-141.5" font-family="Helvetica,sans-Serif" font-size="10.00">/wait_until.hpp</text>
</a>
</g>
</g>
<!-- Node3&#45;&gt;Node13 -->
<g id="edge13" class="edge">
<title>Node3&#45;&gt;Node13</title>
<path fill="none" stroke="midnightblue" d="M686.09,-193.74C694.52,-184.12 704.19,-173.09 711.66,-164.58"/>
<polygon fill="midnightblue" stroke="midnightblue" points="683.33,-191.57 679.37,-201.4 688.59,-196.18 683.33,-191.57"/>
</g>
<!-- Node14 -->
<g id="node14" class="node">
<title>Node14</title>
<g id="a_node14"><a xlink:href="contract_8hpp.html" target="_top" xlink:title=" ">
<polygon fill="none" stroke="black" points="122,-134.5 122,-164.5 226,-164.5 226,-134.5 122,-134.5"/>
<text text-anchor="start" x="130" y="-152.5" font-family="Helvetica,sans-Serif" font-size="10.00">include/yaclib/async</text>
<text text-anchor="middle" x="174" y="-141.5" font-family="Helvetica,sans-Serif" font-size="10.00">/contract.hpp</text>
</a>
</g>
</g>
<!-- Node3&#45;&gt;Node14 -->
<g id="edge16" class="edge">
<title>Node3&#45;&gt;Node14</title>
<path fill="none" stroke="midnightblue" d="M604.77,-210.08C521.39,-202.37 368.96,-186.74 240,-165 235.49,-164.24 230.82,-163.37 226.15,-162.45"/>
<polygon fill="midnightblue" stroke="midnightblue" points="604.56,-213.57 614.84,-211 605.2,-206.6 604.56,-213.57"/>
</g>
<!-- Node15 -->
<g id="node15" class="node">
<title>Node15</title>
<g id="a_node15"><a xlink:href="simple_8cpp.html" target="_top" xlink:title=" ">
<polygon fill="none" stroke="black" points="123.5,-67.5 123.5,-97.5 224.5,-97.5 224.5,-67.5 123.5,-67.5"/>
<text text-anchor="start" x="131.5" y="-85.5" font-family="Helvetica,sans-Serif" font-size="10.00">test/example/async</text>
<text text-anchor="middle" x="174" y="-74.5" font-family="Helvetica,sans-Serif" font-size="10.00">/simple.cpp</text>
</a>
</g>
</g>
<!-- Node3&#45;&gt;Node15 -->
<g id="edge28" class="edge">
<title>Node3&#45;&gt;Node15</title>
<path fill="none" stroke="midnightblue" d="M604.51,-215.99C528.03,-214.62 395.79,-205.76 291,-165 269.89,-156.79 219.17,-118.67 191.97,-97.6"/>
<polygon fill="midnightblue" stroke="midnightblue" points="604.87,-219.5 614.92,-216.14 604.97,-212.5 604.87,-219.5"/>
</g>
<!-- Node3&#45;&gt;Node16 -->
<g id="edge18" class="edge">
<title>Node3&#45;&gt;Node16</title>
<path fill="none" stroke="midnightblue" d="M604.53,-212.71C501.55,-207.46 289.92,-193.94 113,-165 110.1,-164.53 107.13,-163.99 104.14,-163.41"/>
<polygon fill="midnightblue" stroke="midnightblue" points="604.59,-216.22 614.75,-213.22 604.94,-209.23 604.59,-216.22"/>
</g>
<!-- Node17 -->
<g id="node17" class="node">
<title>Node17</title>
<g id="a_node17"><a xlink:href="await_8hpp.html" target="_top" xlink:title=" ">
<polygon fill="none" stroke="black" points="832,-67.5 832,-97.5 950,-97.5 950,-67.5 832,-67.5"/>
<text text-anchor="start" x="840" y="-85.5" font-family="Helvetica,sans-Serif" font-size="10.00">include/yaclib/coroutine</text>
<text text-anchor="middle" x="891" y="-74.5" font-family="Helvetica,sans-Serif" font-size="10.00">/await.hpp</text>
</a>
</g>
</g>
<!-- Node3&#45;&gt;Node17 -->
<g id="edge22" class="edge">
<title>Node3&#45;&gt;Node17</title>
<path fill="none" stroke="midnightblue" d="M724.78,-198.16C748.37,-189.85 775.36,-178.69 798,-165 829.78,-145.79 861.08,-115.32 878.03,-97.59"/>
<polygon fill="midnightblue" stroke="midnightblue" points="723.57,-194.88 715.25,-201.44 725.84,-201.5 723.57,-194.88"/>
</g>
<!-- Node18 -->
<g id="node18" class="node">
<title>Node18</title>
<g id="a_node18"><a xlink:href="await__awaiter_8hpp.html" target="_top" xlink:title=" ">
<polygon fill="none" stroke="black" points="1148,-134.5 1148,-164.5 1272,-164.5 1272,-134.5 1148,-134.5"/>
<text text-anchor="start" x="1156" y="-152.5" font-family="Helvetica,sans-Serif" font-size="10.00">include/yaclib/coroutine</text>
<text text-anchor="middle" x="1210" y="-141.5" font-family="Helvetica,sans-Serif" font-size="10.00">/detail/await_awaiter.hpp</text>
</a>
</g>
</g>
<!-- Node3&#45;&gt;Node18 -->
<g id="edge23" class="edge">
<title>Node3&#45;&gt;Node18</title>
<path fill="none" stroke="midnightblue" d="M729.34,-210.73C819.89,-203.36 992.95,-187.67 1139,-165 1141.86,-164.56 1144.78,-164.07 1147.72,-163.57"/>
<polygon fill="midnightblue" stroke="midnightblue" points="728.93,-207.25 719.24,-211.54 729.49,-214.23 728.93,-207.25"/>
</g>
<!-- Node20 -->
<g id="node20" class="node">
<title>Node20</title>
<g id="a_node20"><a xlink:href="future__traits_8hpp.html" target="_top" xlink:title=" ">
<polygon fill="none" stroke="black" points="866,-134.5 866,-164.5 984,-164.5 984,-134.5 866,-134.5"/>
<text text-anchor="start" x="874" y="-152.5" font-family="Helvetica,sans-Serif" font-size="10.00">include/yaclib/coroutine</text>
<text text-anchor="middle" x="925" y="-141.5" font-family="Helvetica,sans-Serif" font-size="10.00">/future_traits.hpp</text>
</a>
</g>
</g>
<!-- Node3&#45;&gt;Node20 -->
<g id="edge26" class="edge">
<title>Node3&#45;&gt;Node20</title>
<path fill="none" stroke="midnightblue" d="M728.93,-199.9C771.66,-189.13 827.98,-174.94 869.3,-164.53"/>
<polygon fill="midnightblue" stroke="midnightblue" points="728.05,-196.51 719.21,-202.35 729.76,-203.3 728.05,-196.51"/>
</g>
<!-- Node21 -->
<g id="node21" class="node">
<title>Node21</title>
<g id="a_node21"><a xlink:href="future__impl_8cpp.html" target="_top" xlink:title=" ">
<polygon fill="none" stroke="black" points="1002,-140 1002,-159 1130,-159 1130,-140 1002,-140"/>
<text text-anchor="middle" x="1066" y="-147" font-family="Helvetica,sans-Serif" font-size="10.00">src/async/future_impl.cpp</text>
</a>
</g>
</g>
<!-- Node3&#45;&gt;Node21 -->
<g id="edge27" class="edge">
<title>Node3&#45;&gt;Node21</title>
<path fill="none" stroke="midnightblue" d="M729.24,-206.66C794.94,-197.14 901.46,-181.17 993,-165 1003.31,-163.18 1014.4,-161.06 1024.75,-159.01"/>
<polygon fill="midnightblue" stroke="midnightblue" points="728.45,-203.24 719.06,-208.13 729.45,-210.16 728.45,-203.24"/>
</g>
<!-- Node4&#45;&gt;Node5 -->
<g id="edge4" class="edge">
<title>Node4&#45;&gt;Node5</title>
<path fill="none" stroke="midnightblue" d="M349.04,-128.17C336.35,-118.23 321.39,-106.51 309.97,-97.58"/>
<polygon fill="midnightblue" stroke="midnightblue" points="346.96,-130.99 356.99,-134.4 351.28,-125.47 346.96,-130.99"/>
</g>
<!-- Node4&#45;&gt;Node7 -->
<g id="edge6" class="edge">
<title>Node4&#45;&gt;Node7</title>
<path fill="none" stroke="midnightblue" d="M439.97,-133.84C522.63,-116.68 545.26,-115.49 624,-98 627.24,-97.28 630.58,-96.51 633.94,-95.72"/>
<polygon fill="midnightblue" stroke="midnightblue" points="439.21,-130.42 430.13,-135.9 440.64,-137.27 439.21,-130.42"/>
</g>
<!-- Node6 -->
<g id="node6" class="node">
<title>Node6</title>
<g id="a_node6"><a xlink:href="when__all_8cpp.html" target="_top" xlink:title=" ">
<polygon fill="none" stroke="black" points="120.5,-0.5 120.5,-30.5 221.5,-30.5 221.5,-0.5 120.5,-0.5"/>
<text text-anchor="start" x="128.5" y="-18.5" font-family="Helvetica,sans-Serif" font-size="10.00">test/example/async</text>
<text text-anchor="middle" x="171" y="-7.5" font-family="Helvetica,sans-Serif" font-size="10.00">/when_all.cpp</text>
</a>
</g>
</g>
<!-- Node5&#45;&gt;Node6 -->
<g id="edge5" class="edge">
<title>Node5&#45;&gt;Node6</title>
<path fill="none" stroke="midnightblue" d="M256.77,-62.57C237.74,-52.35 214.63,-39.94 197.2,-30.58"/>
<polygon fill="midnightblue" stroke="midnightblue" points="255.28,-65.75 265.74,-67.4 258.59,-59.58 255.28,-65.75"/>
</g>
<!-- Node8 -->
<g id="node8" class="node">
<title>Node8</title>
<g id="a_node8"><a xlink:href="when__any_8cpp.html" target="_top" xlink:title=" ">
<polygon fill="none" stroke="black" points="449.5,-0.5 449.5,-30.5 550.5,-30.5 550.5,-0.5 449.5,-0.5"/>
<text text-anchor="start" x="457.5" y="-18.5" font-family="Helvetica,sans-Serif" font-size="10.00">test/example/async</text>
<text text-anchor="middle" x="500" y="-7.5" font-family="Helvetica,sans-Serif" font-size="10.00">/when_any.cpp</text>
</a>
</g>
</g>
<!-- Node7&#45;&gt;Node8 -->
<g id="edge7" class="edge">
<title>Node7&#45;&gt;Node8</title>
<path fill="none" stroke="midnightblue" d="M632.87,-63.96C603.56,-53.48 566.82,-40.37 539.41,-30.58"/>
<polygon fill="midnightblue" stroke="midnightblue" points="631.91,-67.33 642.51,-67.4 634.27,-60.74 631.91,-67.33"/>
</g>
<!-- Node9&#45;&gt;Node2 -->
<g id="edge9" class="edge">
<title>Node9&#45;&gt;Node2</title>
<path fill="none" stroke="midnightblue" d="M1279.83,-165.19C1068.91,-211.88 829.69,-254.48 723.11,-272.93"/>
<polygon fill="midnightblue" stroke="midnightblue" points="1280.84,-168.55 1289.85,-162.97 1279.33,-161.72 1280.84,-168.55"/>
</g>
<!-- Node12 -->
<g id="node12" class="node">
<title>Node12</title>
<g id="a_node12"><a xlink:href="wait__group_8cpp.html" target="_top" xlink:title=" ">
<polygon fill="none" stroke="black" points="496.5,-73 496.5,-92 615.5,-92 615.5,-73 496.5,-73"/>
<text text-anchor="middle" x="556" y="-80" font-family="Helvetica,sans-Serif" font-size="10.00">src/algo/wait_group.cpp</text>
</a>
</g>
</g>
<!-- Node11&#45;&gt;Node12 -->
<g id="edge12" class="edge">
<title>Node11&#45;&gt;Node12</title>
<path fill="none" stroke="midnightblue" d="M591.85,-126.66C582.06,-114.86 570.51,-100.97 563.22,-92.19"/>
<polygon fill="midnightblue" stroke="midnightblue" points="589.2,-128.94 598.28,-134.4 594.58,-124.47 589.2,-128.94"/>
</g>
<!-- Node14&#45;&gt;Node15 -->
<g id="edge17" class="edge">
<title>Node14&#45;&gt;Node15</title>
<path fill="none" stroke="midnightblue" d="M174,-124.11C174,-115.15 174,-105.32 174,-97.58"/>
<polygon fill="midnightblue" stroke="midnightblue" points="170.5,-124.4 174,-134.4 177.5,-124.4 170.5,-124.4"/>
</g>
<!-- Node16&#45;&gt;Node6 -->
<g id="edge20" class="edge">
<title>Node16&#45;&gt;Node6</title>
<path fill="none" stroke="midnightblue" d="M55.56,-124.26C59.19,-106.72 66.31,-83.33 80,-67 93.58,-50.8 113.75,-38.86 131.66,-30.67"/>
<polygon fill="midnightblue" stroke="midnightblue" points="52.08,-123.84 53.73,-134.3 58.97,-125.1 52.08,-123.84"/>
</g>
<!-- Node16&#45;&gt;Node8 -->
<g id="edge21" class="edge">
<title>Node16&#45;&gt;Node8</title>
<path fill="none" stroke="midnightblue" d="M63.1,-125.24C73.48,-106.25 90.84,-80.42 114,-67 169.99,-34.55 358.21,-22.39 449.5,-18.32"/>
<polygon fill="midnightblue" stroke="midnightblue" points="59.96,-123.71 58.45,-134.19 66.17,-126.94 59.96,-123.71"/>
</g>
<!-- Node16&#45;&gt;Node15 -->
<g id="edge19" class="edge">
<title>Node16&#45;&gt;Node15</title>
<path fill="none" stroke="midnightblue" d="M87.52,-129.57C106.71,-119.35 130,-106.94 147.58,-97.58"/>
<polygon fill="midnightblue" stroke="midnightblue" points="85.65,-126.6 78.47,-134.4 88.94,-132.78 85.65,-126.6"/>
</g>
<!-- Node18&#45;&gt;Node17 -->
<g id="edge24" class="edge">
<title>Node18&#45;&gt;Node17</title>
<path fill="none" stroke="midnightblue" d="M1137.79,-133.75C1067.82,-119.49 998.12,-105.3 950.13,-95.53"/>
<polygon fill="midnightblue" stroke="midnightblue" points="1137.16,-137.2 1147.66,-135.77 1138.56,-130.34 1137.16,-137.2"/>
</g>
<!-- Node19 -->
<g id="node19" class="node">
<title>Node19</title>
<g id="a_node19"><a xlink:href="await__awaiter_8cpp.html" target="_top" xlink:title=" ">
<polygon fill="none" stroke="black" points="1160.5,-67.5 1160.5,-97.5 1259.5,-97.5 1259.5,-67.5 1160.5,-67.5"/>
<text text-anchor="start" x="1168.5" y="-85.5" font-family="Helvetica,sans-Serif" font-size="10.00">src/coroutine/await</text>
<text text-anchor="middle" x="1210" y="-74.5" font-family="Helvetica,sans-Serif" font-size="10.00">_awaiter.cpp</text>
</a>
</g>
</g>
<!-- Node18&#45;&gt;Node19 -->
<g id="edge25" class="edge">
<title>Node18&#45;&gt;Node19</title>
<path fill="none" stroke="midnightblue" d="M1210,-124.11C1210,-115.15 1210,-105.32 1210,-97.58"/>
<polygon fill="midnightblue" stroke="midnightblue" points="1206.5,-124.4 1210,-134.4 1213.5,-124.4 1206.5,-124.4"/>
</g>
</g>
</svg>
