<?xml version="1.0" encoding="UTF-8" standalone="no"?>
<!DOCTYPE svg PUBLIC "-//W3C//DTD SVG 1.1//EN"
 "http://www.w3.org/Graphics/SVG/1.1/DTD/svg11.dtd">
<!-- Generated by graphviz version 3.0.0 (20220413.0106)
 -->
<!-- Title: include/yaclib/async/detail/core.hpp Pages: 1 -->
<!--zoomable 486 -->
<svg id="main" version="1.1" xmlns="http://www.w3.org/2000/svg" xmlns:xlink="http://www.w3.org/1999/xlink" xml:space="preserve" onload="init(evt)">
<style type="text/css"><![CDATA[
.edge:hover path { stroke: red; }
.edge:hover polygon { stroke: red; fill: red; }
]]></style>
<script type="text/javascript"><![CDATA[
var edges = document.getElementsByTagName('g');
if (edges && edges.length) {
  for (var i=0;i<edges.length;i++) {
    if (edges[i].id.substr(0,4)=='edge') {
      edges[i].setAttribute('class','edge');
    }
  }
}
]]></script>
        <defs>
                <circle id="rim" cx="0" cy="0" r="7"/>
                <circle id="rim2" cx="0" cy="0" r="3.5"/>
                <g id="zoomPlus">
                        <use xlink:href="#rim" fill="#404040">
                                <set attributeName="fill" to="#808080" begin="zoomplus.mouseover" end="zoomplus.mouseout"/>
                        </use>
                        <path d="M-4,0h8M0,-4v8" fill="none" stroke="white" stroke-width="1.5" pointer-events="none"/>
                </g>
                <g id="zoomMin">
                        <use xlink:href="#rim" fill="#404040">
                                <set attributeName="fill" to="#808080" begin="zoomminus.mouseover" end="zoomminus.mouseout"/>
                        </use>
                        <path d="M-4,0h8" fill="none" stroke="white" stroke-width="1.5" pointer-events="none"/>
                </g>
                <g id="dirArrow">
                        <path fill="none" stroke="white" stroke-width="1.5" d="M0,-3.0v7 M-2.5,-0.5L0,-3.0L2.5,-0.5"/>
                </g>
               <g id="resetDef">
                       <use xlink:href="#rim2" fill="#404040">
                               <set attributeName="fill" to="#808080" begin="reset.mouseover" end="reset.mouseout"/>
                       </use>
               </g>
        </defs>

<script type="text/javascript">
var viewWidth = 954;
var viewHeight = 486;
var sectionId = 'dynsection-0';
</script>
<script xlink:href="svgpan.js"/>
<svg id="graph" class="graph">
<g id="viewport">
<title>include/yaclib/async/detail/core.hpp</title>
<!-- Node1 -->
<g id="node1" class="node">
<title>Node1</title>
<g id="a_node1"><a xlink:title=" ">
<polygon fill="#bfbfbf" stroke="black" points="491.51,-447.5 491.51,-477.5 595.51,-477.5 595.51,-447.5 491.51,-447.5"/>
<text text-anchor="start" x="499.51" y="-465.5" font-family="Helvetica,sans-Serif" font-size="10.00">include/yaclib/async</text>
<text text-anchor="middle" x="543.51" y="-454.5" font-family="Helvetica,sans-Serif" font-size="10.00">/detail/core.hpp</text>
</a>
</g>
</g>
<!-- Node2 -->
<g id="node2" class="node">
<title>Node2</title>
<g id="a_node2"><a xlink:href="result__core_8hpp.html" target="_top" xlink:title=" ">
<polygon fill="none" stroke="black" points="457.51,-380.5 457.51,-410.5 553.51,-410.5 553.51,-380.5 457.51,-380.5"/>
<text text-anchor="start" x="465.51" y="-398.5" font-family="Helvetica,sans-Serif" font-size="10.00">yaclib/async/detail</text>
<text text-anchor="middle" x="505.51" y="-387.5" font-family="Helvetica,sans-Serif" font-size="10.00">/result_core.hpp</text>
</a>
</g>
</g>
<!-- Node1&#45;&gt;Node2 -->
<g id="edge1" class="edge">
<title>Node1&#45;&gt;Node2</title>
<path fill="none" stroke="midnightblue" d="M535.27,-447.4C530.49,-439.22 524.35,-428.73 518.89,-419.39"/>
<polygon fill="midnightblue" stroke="midnightblue" points="521.81,-417.44 513.74,-410.58 515.77,-420.98 521.81,-417.44"/>
</g>
<!-- Node23 -->
<g id="node23" class="node">
<title>Node23</title>
<g id="a_node23"><a xlink:href="atomic__counter_8hpp.html" target="_top" xlink:title=" ">
<polygon fill="none" stroke="black" points="753.51,-313.5 753.51,-343.5 857.51,-343.5 857.51,-313.5 753.51,-313.5"/>
<text text-anchor="start" x="761.51" y="-331.5" font-family="Helvetica,sans-Serif" font-size="10.00">yaclib/util/detail</text>
<text text-anchor="middle" x="805.51" y="-320.5" font-family="Helvetica,sans-Serif" font-size="10.00">/atomic_counter.hpp</text>
</a>
</g>
</g>
<!-- Node1&#45;&gt;Node23 -->
<g id="edge34" class="edge">
<title>Node1&#45;&gt;Node23</title>
<path fill="none" stroke="midnightblue" d="M571.55,-447.37C619.12,-423.41 715.63,-374.78 768.62,-348.09"/>
<polygon fill="midnightblue" stroke="midnightblue" points="770.32,-351.15 777.67,-343.52 767.17,-344.9 770.32,-351.15"/>
</g>
<!-- Node3 -->
<g id="node3" class="node">
<title>Node3</title>
<g id="a_node3"><a xlink:href="base__core_8hpp.html" target="_top" xlink:title=" ">
<polygon fill="none" stroke="black" points="278.51,-313.5 278.51,-343.5 374.51,-343.5 374.51,-313.5 278.51,-313.5"/>
<text text-anchor="start" x="286.51" y="-331.5" font-family="Helvetica,sans-Serif" font-size="10.00">yaclib/async/detail</text>
<text text-anchor="middle" x="326.51" y="-320.5" font-family="Helvetica,sans-Serif" font-size="10.00">/base_core.hpp</text>
</a>
</g>
</g>
<!-- Node2&#45;&gt;Node3 -->
<g id="edge2" class="edge">
<title>Node2&#45;&gt;Node3</title>
<path fill="none" stroke="midnightblue" d="M466.67,-380.4C439.7,-370.6 403.57,-357.48 374.75,-347.02"/>
<polygon fill="midnightblue" stroke="midnightblue" points="375.87,-343.7 365.28,-343.58 373.48,-350.28 375.87,-343.7"/>
</g>
<!-- Node4 -->
<g id="node4" class="node">
<title>Node4</title>
<g id="a_node4"><a xlink:href="inline__core_8hpp.html" target="_top" xlink:title=" ">
<polygon fill="none" stroke="black" points="369.51,-246.5 369.51,-276.5 465.51,-276.5 465.51,-246.5 369.51,-246.5"/>
<text text-anchor="start" x="377.51" y="-264.5" font-family="Helvetica,sans-Serif" font-size="10.00">yaclib/async/detail</text>
<text text-anchor="middle" x="417.51" y="-253.5" font-family="Helvetica,sans-Serif" font-size="10.00">/inline_core.hpp</text>
</a>
</g>
</g>
<!-- Node2&#45;&gt;Node4 -->
<g id="edge21" class="edge">
<title>Node2&#45;&gt;Node4</title>
<path fill="none" stroke="midnightblue" d="M496.09,-380.37C480.88,-357.55 450.75,-312.36 432.54,-285.04"/>
<polygon fill="midnightblue" stroke="midnightblue" points="435.32,-282.9 426.86,-276.52 429.5,-286.79 435.32,-282.9"/>
</g>
<!-- Node10 -->
<g id="node10" class="node">
<title>Node10</title>
<g id="a_node10"><a xlink:title=" ">
<polygon fill="none" stroke="#bfbfbf" points="706.01,-56.5 706.01,-75.5 745.01,-75.5 745.01,-56.5 706.01,-56.5"/>
<text text-anchor="middle" x="725.51" y="-63.5" font-family="Helvetica,sans-Serif" font-size="10.00">utility</text>
</a>
</g>
</g>
<!-- Node2&#45;&gt;Node10 -->
<g id="edge33" class="edge">
<title>Node2&#45;&gt;Node10</title>
<path fill="none" stroke="midnightblue" d="M553.52,-387.44C618.25,-374.91 725.51,-342.12 725.51,-262.5 725.51,-262.5 725.51,-262.5 725.51,-193.5 725.51,-155.2 725.51,-110.38 725.51,-85.7"/>
<polygon fill="midnightblue" stroke="midnightblue" points="729.01,-85.59 725.51,-75.59 722.01,-85.59 729.01,-85.59"/>
</g>
<!-- Node12 -->
<g id="node12" class="node">
<title>Node12</title>
<g id="a_node12"><a xlink:href="intrusive__ptr_8hpp.html" target="_top" xlink:title=" ">
<polygon fill="none" stroke="black" points="108.01,-179.5 108.01,-209.5 205.01,-209.5 205.01,-179.5 108.01,-179.5"/>
<text text-anchor="start" x="116.01" y="-197.5" font-family="Helvetica,sans-Serif" font-size="10.00">yaclib/util/intrusive</text>
<text text-anchor="middle" x="156.51" y="-186.5" font-family="Helvetica,sans-Serif" font-size="10.00">_ptr.hpp</text>
</a>
</g>
</g>
<!-- Node2&#45;&gt;Node12 -->
<g id="edge22" class="edge">
<title>Node2&#45;&gt;Node12</title>
<path fill="none" stroke="midnightblue" d="M457.18,-389.98C408.19,-384.08 331.05,-371.12 269.51,-344 222.56,-323.31 204.07,-319.62 175.51,-277 164.17,-260.07 159.55,-237.22 157.69,-220.03"/>
<polygon fill="midnightblue" stroke="midnightblue" points="161.15,-219.34 156.83,-209.66 154.17,-219.92 161.15,-219.34"/>
</g>
<!-- Node17 -->
<g id="node17" class="node">
<title>Node17</title>
<g id="a_node17"><a xlink:href="result_8hpp.html" target="_top" xlink:title=" ">
<polygon fill="none" stroke="black" points="484.51,-252 484.51,-271 586.51,-271 586.51,-252 484.51,-252"/>
<text text-anchor="middle" x="535.51" y="-259" font-family="Helvetica,sans-Serif" font-size="10.00">yaclib/util/result.hpp</text>
</a>
</g>
</g>
<!-- Node2&#45;&gt;Node17 -->
<g id="edge23" class="edge">
<title>Node2&#45;&gt;Node17</title>
<path fill="none" stroke="midnightblue" d="M508.72,-380.37C514.17,-356.4 525.23,-307.75 531.29,-281.06"/>
<polygon fill="midnightblue" stroke="midnightblue" points="534.75,-281.62 533.56,-271.1 527.93,-280.07 534.75,-281.62"/>
</g>
<!-- Node3&#45;&gt;Node4 -->
<g id="edge3" class="edge">
<title>Node3&#45;&gt;Node4</title>
<path fill="none" stroke="midnightblue" d="M346.26,-313.4C358.9,-304.37 375.49,-292.51 389.49,-282.52"/>
<polygon fill="midnightblue" stroke="midnightblue" points="391.7,-285.24 397.8,-276.58 387.63,-279.54 391.7,-285.24"/>
</g>
<!-- Node8 -->
<g id="node8" class="node">
<title>Node8</title>
<g id="a_node8"><a xlink:href="ref_8hpp.html" target="_top" xlink:title=" ">
<polygon fill="none" stroke="black" points="119.01,-56.5 119.01,-75.5 208.01,-75.5 208.01,-56.5 119.01,-56.5"/>
<text text-anchor="middle" x="163.51" y="-63.5" font-family="Helvetica,sans-Serif" font-size="10.00">yaclib/util/ref.hpp</text>
</a>
</g>
</g>
<!-- Node3&#45;&gt;Node8 -->
<g id="edge19" class="edge">
<title>Node3&#45;&gt;Node8</title>
<path fill="none" stroke="midnightblue" d="M278.42,-317.56C202.33,-298.83 57.48,-250.14 5.51,-143 -0.5,-130.6 -2.79,-123 5.51,-112 12.29,-103.02 70.68,-88.03 114.52,-77.84"/>
<polygon fill="midnightblue" stroke="midnightblue" points="115.51,-81.2 124.47,-75.55 113.94,-74.38 115.51,-81.2"/>
</g>
<!-- Node11 -->
<g id="node11" class="node">
<title>Node11</title>
<g id="a_node11"><a xlink:href="executor_8hpp.html" target="_top" xlink:title=" ">
<polygon fill="none" stroke="black" points="212.01,-252 212.01,-271 351.01,-271 351.01,-252 212.01,-252"/>
<text text-anchor="middle" x="281.51" y="-259" font-family="Helvetica,sans-Serif" font-size="10.00">yaclib/executor/executor.hpp</text>
</a>
</g>
</g>
<!-- Node3&#45;&gt;Node11 -->
<g id="edge10" class="edge">
<title>Node3&#45;&gt;Node11</title>
<path fill="none" stroke="midnightblue" d="M316.75,-313.4C309.87,-303.46 300.62,-290.11 293.33,-279.57"/>
<polygon fill="midnightblue" stroke="midnightblue" points="296.1,-277.42 287.53,-271.19 290.34,-281.41 296.1,-277.42"/>
</g>
<!-- Node3&#45;&gt;Node12 -->
<g id="edge18" class="edge">
<title>Node3&#45;&gt;Node12</title>
<path fill="none" stroke="midnightblue" d="M278.26,-316.07C253.43,-308.29 223.97,-295.89 202.51,-277 184.79,-261.4 172.37,-237.26 164.94,-219.29"/>
<polygon fill="midnightblue" stroke="midnightblue" points="168.13,-217.83 161.23,-209.79 161.6,-220.38 168.13,-217.83"/>
</g>
<!-- Node16 -->
<g id="node16" class="node">
<title>Node16</title>
<g id="a_node16"><a xlink:title=" ">
<polygon fill="none" stroke="#bfbfbf" points="605.51,-252 605.51,-271 697.51,-271 697.51,-252 605.51,-252"/>
<text text-anchor="middle" x="651.51" y="-259" font-family="Helvetica,sans-Serif" font-size="10.00">yaclib_std/atomic</text>
</a>
</g>
</g>
<!-- Node3&#45;&gt;Node16 -->
<g id="edge20" class="edge">
<title>Node3&#45;&gt;Node16</title>
<path fill="none" stroke="midnightblue" d="M374.82,-319.45C428.82,-310.21 518.76,-294.12 595.51,-277 600.28,-275.94 605.27,-274.75 610.21,-273.53"/>
<polygon fill="midnightblue" stroke="midnightblue" points="611.37,-276.85 620.21,-271.01 609.65,-270.06 611.37,-276.85"/>
</g>
<!-- Node5 -->
<g id="node5" class="node">
<title>Node5</title>
<g id="a_node5"><a xlink:href="job_8hpp.html" target="_top" xlink:title=" ">
<polygon fill="none" stroke="black" points="269.01,-185 269.01,-204 384.01,-204 384.01,-185 269.01,-185"/>
<text text-anchor="middle" x="326.51" y="-192" font-family="Helvetica,sans-Serif" font-size="10.00">yaclib/executor/job.hpp</text>
</a>
</g>
</g>
<!-- Node4&#45;&gt;Node5 -->
<g id="edge4" class="edge">
<title>Node4&#45;&gt;Node5</title>
<path fill="none" stroke="midnightblue" d="M397.77,-246.4C382.65,-235.6 361.87,-220.76 346.65,-209.89"/>
<polygon fill="midnightblue" stroke="midnightblue" points="348.59,-206.97 338.42,-204.01 344.52,-212.67 348.59,-206.97"/>
</g>
<!-- Node6 -->
<g id="node6" class="node">
<title>Node6</title>
<g id="a_node6"><a xlink:href="node_8hpp.html" target="_top" xlink:title=" ">
<polygon fill="none" stroke="black" points="223.01,-112.5 223.01,-142.5 306.01,-142.5 306.01,-112.5 223.01,-112.5"/>
<text text-anchor="start" x="231.01" y="-130.5" font-family="Helvetica,sans-Serif" font-size="10.00">yaclib/util/detail</text>
<text text-anchor="middle" x="264.51" y="-119.5" font-family="Helvetica,sans-Serif" font-size="10.00">/node.hpp</text>
</a>
</g>
</g>
<!-- Node5&#45;&gt;Node6 -->
<g id="edge5" class="edge">
<title>Node5&#45;&gt;Node6</title>
<path fill="none" stroke="midnightblue" d="M318.15,-184.73C309.69,-175.86 296.28,-161.81 284.99,-149.97"/>
<polygon fill="midnightblue" stroke="midnightblue" points="287.38,-147.41 277.95,-142.59 282.32,-152.24 287.38,-147.41"/>
</g>
<!-- Node7 -->
<g id="node7" class="node">
<title>Node7</title>
<g id="a_node7"><a xlink:href="func_8hpp.html" target="_top" xlink:title=" ">
<polygon fill="none" stroke="black" points="324.01,-118 324.01,-137 421.01,-137 421.01,-118 324.01,-118"/>
<text text-anchor="middle" x="372.51" y="-125" font-family="Helvetica,sans-Serif" font-size="10.00">yaclib/util/func.hpp</text>
</a>
</g>
</g>
<!-- Node5&#45;&gt;Node7 -->
<g id="edge6" class="edge">
<title>Node5&#45;&gt;Node7</title>
<path fill="none" stroke="midnightblue" d="M332.71,-184.73C339.82,-174.7 351.62,-158.01 360.54,-145.42"/>
<polygon fill="midnightblue" stroke="midnightblue" points="363.49,-147.31 366.41,-137.13 357.77,-143.27 363.49,-147.31"/>
</g>
<!-- Node7&#45;&gt;Node8 -->
<g id="edge7" class="edge">
<title>Node7&#45;&gt;Node8</title>
<path fill="none" stroke="midnightblue" d="M342.57,-117.98C305.94,-107.55 243.82,-89.86 203.23,-78.31"/>
<polygon fill="midnightblue" stroke="midnightblue" points="203.98,-74.88 193.4,-75.51 202.06,-81.61 203.98,-74.88"/>
</g>
<!-- Node9 -->
<g id="node9" class="node">
<title>Node9</title>
<g id="a_node9"><a xlink:title=" ">
<polygon fill="none" stroke="#bfbfbf" points="376.51,-56.5 376.51,-75.5 438.51,-75.5 438.51,-56.5 376.51,-56.5"/>
<text text-anchor="middle" x="407.51" y="-63.5" font-family="Helvetica,sans-Serif" font-size="10.00">type_traits</text>
</a>
</g>
</g>
<!-- Node7&#45;&gt;Node9 -->
<g id="edge8" class="edge">
<title>Node7&#45;&gt;Node9</title>
<path fill="none" stroke="midnightblue" d="M377.53,-117.98C382.67,-109.23 390.82,-95.37 397.33,-84.31"/>
<polygon fill="midnightblue" stroke="midnightblue" points="400.45,-85.9 402.51,-75.51 394.42,-82.35 400.45,-85.9"/>
</g>
<!-- Node7&#45;&gt;Node10 -->
<g id="edge9" class="edge">
<title>Node7&#45;&gt;Node10</title>
<path fill="none" stroke="midnightblue" d="M421.22,-118.29C495.45,-105.78 634.66,-82.31 695.62,-72.04"/>
<polygon fill="midnightblue" stroke="midnightblue" points="696.45,-75.45 705.73,-70.33 695.29,-68.55 696.45,-75.45"/>
</g>
<!-- Node11&#45;&gt;Node5 -->
<g id="edge11" class="edge">
<title>Node11&#45;&gt;Node5</title>
<path fill="none" stroke="midnightblue" d="M287.58,-251.73C294.53,-241.7 306.08,-225.01 314.8,-212.42"/>
<polygon fill="midnightblue" stroke="midnightblue" points="317.72,-214.34 320.54,-204.13 311.97,-210.36 317.72,-214.34"/>
</g>
<!-- Node11&#45;&gt;Node12 -->
<g id="edge12" class="edge">
<title>Node11&#45;&gt;Node12</title>
<path fill="none" stroke="midnightblue" d="M264.91,-251.87C246.62,-242.36 216.64,-226.77 192.84,-214.39"/>
<polygon fill="midnightblue" stroke="midnightblue" points="194.21,-211.16 183.73,-209.65 190.98,-217.37 194.21,-211.16"/>
</g>
<!-- Node12&#45;&gt;Node8 -->
<g id="edge13" class="edge">
<title>Node12&#45;&gt;Node8</title>
<path fill="none" stroke="midnightblue" d="M157.29,-179.48C158.55,-156.72 161.04,-111.7 162.46,-86.06"/>
<polygon fill="midnightblue" stroke="midnightblue" points="165.97,-85.97 163.02,-75.79 158.98,-85.58 165.97,-85.97"/>
</g>
<!-- Node12&#45;&gt;Node9 -->
<g id="edge14" class="edge">
<title>Node12&#45;&gt;Node9</title>
<path fill="none" stroke="midnightblue" d="M162.5,-179.27C171.03,-160.79 188.47,-128.92 213.51,-112 259.6,-80.86 324.37,-71.09 366.14,-68.12"/>
<polygon fill="midnightblue" stroke="midnightblue" points="366.48,-71.61 376.24,-67.51 366.05,-64.62 366.48,-71.61"/>
</g>
<!-- Node13 -->
<g id="node13" class="node">
<title>Node13</title>
<g id="a_node13"><a xlink:href="intrusive__ptr__impl_8hpp.html" target="_top" xlink:title=" ">
<polygon fill="none" stroke="black" points="14.51,-112.5 14.51,-142.5 128.51,-142.5 128.51,-112.5 14.51,-112.5"/>
<text text-anchor="start" x="22.51" y="-130.5" font-family="Helvetica,sans-Serif" font-size="10.00">yaclib/util/detail</text>
<text text-anchor="middle" x="71.51" y="-119.5" font-family="Helvetica,sans-Serif" font-size="10.00">/intrusive_ptr_impl.hpp</text>
</a>
</g>
</g>
<!-- Node12&#45;&gt;Node13 -->
<g id="edge15" class="edge">
<title>Node12&#45;&gt;Node13</title>
<path fill="none" stroke="midnightblue" d="M138.07,-179.4C126.37,-170.45 111.05,-158.74 98.06,-148.8"/>
<polygon fill="midnightblue" stroke="midnightblue" points="99.99,-145.87 89.92,-142.58 95.74,-151.43 99.99,-145.87"/>
</g>
<!-- Node14 -->
<g id="node14" class="node">
<title>Node14</title>
<g id="a_node14"><a xlink:href="log_8hpp.html" target="_top" xlink:title=" ">
<polygon fill="none" stroke="black" points="26.01,-56.5 26.01,-75.5 101.01,-75.5 101.01,-56.5 26.01,-56.5"/>
<text text-anchor="middle" x="63.51" y="-63.5" font-family="Helvetica,sans-Serif" font-size="10.00">yaclib/log.hpp</text>
</a>
</g>
</g>
<!-- Node13&#45;&gt;Node14 -->
<g id="edge16" class="edge">
<title>Node13&#45;&gt;Node14</title>
<path fill="none" stroke="midnightblue" d="M69.62,-112.4C68.54,-104.38 67.17,-94.23 66.01,-85.57"/>
<polygon fill="midnightblue" stroke="midnightblue" points="69.48,-85.1 64.68,-75.66 62.54,-86.04 69.48,-85.1"/>
</g>
<!-- Node15 -->
<g id="node15" class="node">
<title>Node15</title>
<g id="a_node15"><a xlink:title=" ">
<polygon fill="none" stroke="#bfbfbf" points="30.51,-0.5 30.51,-19.5 96.51,-19.5 96.51,-0.5 30.51,-0.5"/>
<text text-anchor="middle" x="63.51" y="-7.5" font-family="Helvetica,sans-Serif" font-size="10.00">string_view</text>
</a>
</g>
</g>
<!-- Node14&#45;&gt;Node15 -->
<g id="edge17" class="edge">
<title>Node14&#45;&gt;Node15</title>
<path fill="none" stroke="midnightblue" d="M63.51,-56.08C63.51,-49.01 63.51,-38.86 63.51,-29.99"/>
<polygon fill="midnightblue" stroke="midnightblue" points="67.01,-29.75 63.51,-19.75 60.01,-29.75 67.01,-29.75"/>
</g>
<!-- Node18 -->
<g id="node18" class="node">
<title>Node18</title>
<g id="a_node18"><a xlink:href="type__traits_8hpp.html" target="_top" xlink:title=" ">
<polygon fill="none" stroke="black" points="470.01,-185 470.01,-204 593.01,-204 593.01,-185 470.01,-185"/>
<text text-anchor="middle" x="531.51" y="-192" font-family="Helvetica,sans-Serif" font-size="10.00">yaclib/util/type_traits.hpp</text>
</a>
</g>
</g>
<!-- Node17&#45;&gt;Node18 -->
<g id="edge24" class="edge">
<title>Node17&#45;&gt;Node18</title>
<path fill="none" stroke="midnightblue" d="M534.97,-251.73C534.38,-242.18 533.43,-226.62 532.67,-214.28"/>
<polygon fill="midnightblue" stroke="midnightblue" points="536.15,-213.89 532.04,-204.13 529.16,-214.32 536.15,-213.89"/>
</g>
<!-- Node21 -->
<g id="node21" class="node">
<title>Node21</title>
<g id="a_node21"><a xlink:title=" ">
<polygon fill="none" stroke="#bfbfbf" points="639.51,-118 639.51,-137 697.51,-137 697.51,-118 639.51,-118"/>
<text text-anchor="middle" x="668.51" y="-125" font-family="Helvetica,sans-Serif" font-size="10.00">exception</text>
</a>
</g>
</g>
<!-- Node17&#45;&gt;Node21 -->
<g id="edge31" class="edge">
<title>Node17&#45;&gt;Node21</title>
<path fill="none" stroke="midnightblue" d="M548.85,-251.88C562.94,-242.46 585.43,-226.49 602.51,-210 623.51,-189.72 644.09,-162.88 656.54,-145.65"/>
<polygon fill="midnightblue" stroke="midnightblue" points="659.63,-147.34 662.57,-137.17 653.93,-143.29 659.63,-147.34"/>
</g>
<!-- Node22 -->
<g id="node22" class="node">
<title>Node22</title>
<g id="a_node22"><a xlink:title=" ">
<polygon fill="none" stroke="#bfbfbf" points="649.51,-185 649.51,-204 695.51,-204 695.51,-185 649.51,-185"/>
<text text-anchor="middle" x="672.51" y="-192" font-family="Helvetica,sans-Serif" font-size="10.00">variant</text>
</a>
</g>
</g>
<!-- Node17&#45;&gt;Node22 -->
<g id="edge32" class="edge">
<title>Node17&#45;&gt;Node22</title>
<path fill="none" stroke="midnightblue" d="M553.7,-251.87C577.04,-240.8 617.74,-221.49 644.9,-208.6"/>
<polygon fill="midnightblue" stroke="midnightblue" points="646.71,-211.62 654.24,-204.17 643.71,-205.29 646.71,-211.62"/>
</g>
<!-- Node18&#45;&gt;Node9 -->
<g id="edge30" class="edge">
<title>Node18&#45;&gt;Node9</title>
<path fill="none" stroke="midnightblue" d="M519.25,-184.92C506.05,-175.41 484.77,-159.25 468.51,-143 449.9,-124.4 431.4,-100.36 419.73,-84.35"/>
<polygon fill="midnightblue" stroke="midnightblue" points="422.38,-82.03 413.71,-75.95 416.69,-86.12 422.38,-82.03"/>
</g>
<!-- Node19 -->
<g id="node19" class="node">
<title>Node19</title>
<g id="a_node19"><a xlink:href="fwd_8hpp.html" target="_top" xlink:title=" ">
<polygon fill="none" stroke="black" points="531.51,-56.5 531.51,-75.5 609.51,-75.5 609.51,-56.5 531.51,-56.5"/>
<text text-anchor="middle" x="570.51" y="-63.5" font-family="Helvetica,sans-Serif" font-size="10.00">yaclib/fwd.hpp</text>
</a>
</g>
</g>
<!-- Node18&#45;&gt;Node19 -->
<g id="edge25" class="edge">
<title>Node18&#45;&gt;Node19</title>
<path fill="none" stroke="midnightblue" d="M548.55,-184.96C563.26,-176.54 583.5,-162.16 592.51,-143 601.52,-123.85 591.72,-100.23 582.49,-84.45"/>
<polygon fill="midnightblue" stroke="midnightblue" points="585.29,-82.33 576.99,-75.75 579.37,-86.08 585.29,-82.33"/>
</g>
<!-- Node20 -->
<g id="node20" class="node">
<title>Node20</title>
<g id="a_node20"><a xlink:href="type__traits__impl_8hpp.html" target="_top" xlink:title=" ">
<polygon fill="none" stroke="black" points="477.51,-112.5 477.51,-142.5 583.51,-142.5 583.51,-112.5 477.51,-112.5"/>
<text text-anchor="start" x="485.51" y="-130.5" font-family="Helvetica,sans-Serif" font-size="10.00">yaclib/util/detail</text>
<text text-anchor="middle" x="530.51" y="-119.5" font-family="Helvetica,sans-Serif" font-size="10.00">/type_traits_impl.hpp</text>
</a>
</g>
</g>
<!-- Node18&#45;&gt;Node20 -->
<g id="edge26" class="edge">
<title>Node18&#45;&gt;Node20</title>
<path fill="none" stroke="midnightblue" d="M531.38,-184.73C531.25,-176.54 531.06,-163.92 530.88,-152.71"/>
<polygon fill="midnightblue" stroke="midnightblue" points="534.38,-152.53 530.73,-142.59 527.38,-152.64 534.38,-152.53"/>
</g>
<!-- Node18&#45;&gt;Node21 -->
<g id="edge29" class="edge">
<title>Node18&#45;&gt;Node21</title>
<path fill="none" stroke="midnightblue" d="M549.7,-184.87C573.04,-173.8 613.74,-154.49 640.9,-141.6"/>
<polygon fill="midnightblue" stroke="midnightblue" points="642.71,-144.62 650.24,-137.17 639.71,-138.29 642.71,-144.62"/>
</g>
<!-- Node20&#45;&gt;Node9 -->
<g id="edge28" class="edge">
<title>Node20&#45;&gt;Node9</title>
<path fill="none" stroke="midnightblue" d="M501.36,-112.4C481.09,-102.59 454.27,-89.62 434.49,-80.05"/>
<polygon fill="midnightblue" stroke="midnightblue" points="435.93,-76.86 425.41,-75.66 432.89,-83.16 435.93,-76.86"/>
</g>
<!-- Node20&#45;&gt;Node19 -->
<g id="edge27" class="edge">
<title>Node20&#45;&gt;Node19</title>
<path fill="none" stroke="midnightblue" d="M539.99,-112.4C545.68,-103.93 552.97,-93.1 558.99,-84.14"/>
<polygon fill="midnightblue" stroke="midnightblue" points="562.02,-85.91 564.69,-75.66 556.21,-82 562.02,-85.91"/>
</g>
<!-- Node23&#45;&gt;Node10 -->
<g id="edge37" class="edge">
<title>Node23&#45;&gt;Node10</title>
<path fill="none" stroke="midnightblue" d="M798.19,-313.19C793.3,-303.22 786.96,-289.53 782.51,-277 757.16,-205.58 760.33,-184.87 739.51,-112 736.98,-103.14 733.97,-93.36 731.38,-85.19"/>
<polygon fill="midnightblue" stroke="midnightblue" points="734.69,-84.05 728.31,-75.59 728.02,-86.18 734.69,-84.05"/>
</g>
<!-- Node23&#45;&gt;Node16 -->
<g id="edge38" class="edge">
<title>Node23&#45;&gt;Node16</title>
<path fill="none" stroke="midnightblue" d="M772.1,-313.4C744.95,-301.94 707.04,-285.94 681.01,-274.95"/>
<polygon fill="midnightblue" stroke="midnightblue" points="682.24,-271.67 671.67,-271.01 679.52,-278.12 682.24,-271.67"/>
</g>
<!-- Node24 -->
<g id="node24" class="node">
<title>Node24</title>
<g id="a_node24"><a xlink:title=" ">
<polygon fill="none" stroke="#bfbfbf" points="791.51,-252 791.51,-271 879.51,-271 879.51,-252 791.51,-252"/>
<text text-anchor="middle" x="835.51" y="-259" font-family="Helvetica,sans-Serif" font-size="10.00">yaclib/config.hpp</text>
</a>
</g>
</g>
<!-- Node23&#45;&gt;Node24 -->
<g id="edge35" class="edge">
<title>Node23&#45;&gt;Node24</title>
<path fill="none" stroke="midnightblue" d="M812.02,-313.4C816.47,-303.76 822.4,-290.91 827.19,-280.54"/>
<polygon fill="midnightblue" stroke="midnightblue" points="830.49,-281.74 831.5,-271.19 824.13,-278.81 830.49,-281.74"/>
</g>
<!-- Node25 -->
<g id="node25" class="node">
<title>Node25</title>
<g id="a_node25"><a xlink:title=" ">
<polygon fill="none" stroke="#bfbfbf" points="897.01,-252 897.01,-271 946.01,-271 946.01,-252 897.01,-252"/>
<text text-anchor="middle" x="921.51" y="-259" font-family="Helvetica,sans-Serif" font-size="10.00">cstddef</text>
</a>
</g>
</g>
<!-- Node23&#45;&gt;Node25 -->
<g id="edge36" class="edge">
<title>Node23&#45;&gt;Node25</title>
<path fill="none" stroke="midnightblue" d="M830.68,-313.4C850.49,-302.29 877.93,-286.92 897.45,-275.98"/>
<polygon fill="midnightblue" stroke="midnightblue" points="899.32,-278.95 906.33,-271.01 895.89,-272.84 899.32,-278.95"/>
</g>
</g>
</svg>
        <g id="navigator" transform="translate(0 0)" fill="#404254">
                <rect fill="#f2f5e9" fill-opacity="0.5" stroke="#606060" stroke-width=".5" x="0" y="0" width="60" height="60"/>
                <use id="zoomplus" xlink:href="#zoomPlus" x="17" y="9" onmousedown="handleZoom(evt,'in')"/>
                <use id="zoomminus" xlink:href="#zoomMin" x="42" y="9" onmousedown="handleZoom(evt,'out')"/>
                <use id="reset" xlink:href="#resetDef" x="30" y="36" onmousedown="handleReset()"/>
                <g id="arrowUp" xlink:href="#dirArrow" transform="translate(30 24)" onmousedown="handlePan(0,-1)">
                  <use xlink:href="#rim" fill="#404040">
                        <set attributeName="fill" to="#808080" begin="arrowUp.mouseover" end="arrowUp.mouseout"/>
                  </use>
                  <path fill="none" stroke="white" stroke-width="1.5" d="M0,-3.0v7 M-2.5,-0.5L0,-3.0L2.5,-0.5"/>
                </g>
                <g id="arrowRight" xlink:href="#dirArrow" transform="rotate(90) translate(36 -43)" onmousedown="handlePan(1,0)">
                  <use xlink:href="#rim" fill="#404040">
                        <set attributeName="fill" to="#808080" begin="arrowRight.mouseover" end="arrowRight.mouseout"/>
                  </use>
                  <path fill="none" stroke="white" stroke-width="1.5" d="M0,-3.0v7 M-2.5,-0.5L0,-3.0L2.5,-0.5"/>
                </g>
                <g id="arrowDown" xlink:href="#dirArrow" transform="rotate(180) translate(-30 -48)" onmousedown="handlePan(0,1)">
                  <use xlink:href="#rim" fill="#404040">
                        <set attributeName="fill" to="#808080" begin="arrowDown.mouseover" end="arrowDown.mouseout"/>
                  </use>
                  <path fill="none" stroke="white" stroke-width="1.5" d="M0,-3.0v7 M-2.5,-0.5L0,-3.0L2.5,-0.5"/>
                </g>
                <g id="arrowLeft" xlink:href="#dirArrow" transform="rotate(270) translate(-36 17)" onmousedown="handlePan(-1,0)">
                  <use xlink:href="#rim" fill="#404040">
                        <set attributeName="fill" to="#808080" begin="arrowLeft.mouseover" end="arrowLeft.mouseout"/>
                  </use>
                  <path fill="none" stroke="white" stroke-width="1.5" d="M0,-3.0v7 M-2.5,-0.5L0,-3.0L2.5,-0.5"/>
                </g>
        </g>
        <svg viewBox="0 0 15 15" width="100%" height="30px" preserveAspectRatio="xMaxYMin meet">
         <g id="arrow_out" transform="scale(0.3 0.3)">
          <a xlink:href="core_8hpp__incl_org.svg" target="_base">
           <rect id="button" ry="5" rx="5" y="6" x="6" height="38" width="38"
                fill="#f2f5e9" fill-opacity="0.5" stroke="#606060" stroke-width="1.0"/>
           <path id="arrow"
             d="M 11.500037,31.436501 C 11.940474,20.09759 22.043105,11.32322 32.158766,21.979434 L 37.068811,17.246167 C 37.068811,17.246167 37.088388,32 37.088388,32 L 22.160133,31.978069 C 22.160133,31.978069 26.997745,27.140456 26.997745,27.140456 C 18.528582,18.264221 13.291696,25.230495 11.500037,31.436501 z"
             style="fill:#404040;"/>
          </a>
         </g>
        </svg>
</svg>
