<?xml version="1.0" encoding="UTF-8" standalone="no"?>
<!DOCTYPE svg PUBLIC "-//W3C//DTD SVG 1.1//EN"
 "http://www.w3.org/Graphics/SVG/1.1/DTD/svg11.dtd">
<!-- Generated by graphviz version 3.0.0 (20220413.0106)
 -->
<!-- Title: include/yaclib/util/detail/default_event.hpp Pages: 1 -->
<!--zoomable 508 -->
<svg id="main" version="1.1" xmlns="http://www.w3.org/2000/svg" xmlns:xlink="http://www.w3.org/1999/xlink" xml:space="preserve" onload="init(evt)">
<style type="text/css"><![CDATA[
.edge:hover path { stroke: red; }
.edge:hover polygon { stroke: red; fill: red; }
]]></style>
<script type="text/javascript"><![CDATA[
var edges = document.getElementsByTagName('g');
if (edges && edges.length) {
  for (var i=0;i<edges.length;i++) {
    if (edges[i].id.substr(0,4)=='edge') {
      edges[i].setAttribute('class','edge');
    }
  }
}
]]></script>
        <defs>
                <circle id="rim" cx="0" cy="0" r="7"/>
                <circle id="rim2" cx="0" cy="0" r="3.5"/>
                <g id="zoomPlus">
                        <use xlink:href="#rim" fill="#404040">
                                <set attributeName="fill" to="#808080" begin="zoomplus.mouseover" end="zoomplus.mouseout"/>
                        </use>
                        <path d="M-4,0h8M0,-4v8" fill="none" stroke="white" stroke-width="1.5" pointer-events="none"/>
                </g>
                <g id="zoomMin">
                        <use xlink:href="#rim" fill="#404040">
                                <set attributeName="fill" to="#808080" begin="zoomminus.mouseover" end="zoomminus.mouseout"/>
                        </use>
                        <path d="M-4,0h8" fill="none" stroke="white" stroke-width="1.5" pointer-events="none"/>
                </g>
                <g id="dirArrow">
                        <path fill="none" stroke="white" stroke-width="1.5" d="M0,-3.0v7 M-2.5,-0.5L0,-3.0L2.5,-0.5"/>
                </g>
               <g id="resetDef">
                       <use xlink:href="#rim2" fill="#404040">
                               <set attributeName="fill" to="#808080" begin="reset.mouseover" end="reset.mouseout"/>
                       </use>
               </g>
        </defs>

<script type="text/javascript">
var viewWidth = 1292;
var viewHeight = 508;
var sectionId = 'dynsection-1';
</script>
<script xlink:href="svgpan.js"/>
<svg id="graph" class="graph">
<g id="viewport">
<title>include/yaclib/util/detail/default_event.hpp</title>
<!-- Node1 -->
<g id="node1" class="node">
<title>Node1</title>
<g id="a_node1"><a xlink:title=" ">
<polygon fill="#bfbfbf" stroke="black" points="924,-469.5 924,-499.5 1046,-499.5 1046,-469.5 924,-469.5"/>
<text text-anchor="start" x="932" y="-487.5" font-family="Helvetica,sans-Serif" font-size="10.00">include/yaclib/util</text>
<text text-anchor="middle" x="985" y="-476.5" font-family="Helvetica,sans-Serif" font-size="10.00">/detail/default_event.hpp</text>
</a>
</g>
</g>
<!-- Node2 -->
<g id="node2" class="node">
<title>Node2</title>
<g id="a_node2"><a xlink:href="wait__impl_8hpp.html" target="_top" xlink:title=" ">
<polygon fill="none" stroke="black" points="932.5,-402.5 932.5,-432.5 1037.5,-432.5 1037.5,-402.5 932.5,-402.5"/>
<text text-anchor="start" x="940.5" y="-420.5" font-family="Helvetica,sans-Serif" font-size="10.00">include/yaclib/algo</text>
<text text-anchor="middle" x="985" y="-409.5" font-family="Helvetica,sans-Serif" font-size="10.00">/detail/wait_impl.hpp</text>
</a>
</g>
</g>
<!-- Node1&#45;&gt;Node2 -->
<g id="edge1" class="edge">
<title>Node1&#45;&gt;Node2</title>
<path fill="none" stroke="midnightblue" d="M985,-459.11C985,-450.15 985,-440.32 985,-432.58"/>
<polygon fill="midnightblue" stroke="midnightblue" points="981.5,-459.4 985,-469.4 988.5,-459.4 981.5,-459.4"/>
</g>
<!-- Node3 -->
<g id="node3" class="node">
<title>Node3</title>
<g id="a_node3"><a xlink:href="wait_8hpp.html" target="_top" xlink:title=" ">
<polygon fill="none" stroke="black" points="813,-335.5 813,-365.5 909,-365.5 909,-335.5 813,-335.5"/>
<text text-anchor="start" x="821" y="-353.5" font-family="Helvetica,sans-Serif" font-size="10.00">include/yaclib/algo</text>
<text text-anchor="middle" x="861" y="-342.5" font-family="Helvetica,sans-Serif" font-size="10.00">/wait.hpp</text>
</a>
</g>
</g>
<!-- Node1&#45;&gt;Node3 -->
<g id="edge33" class="edge">
<title>Node1&#45;&gt;Node3</title>
<path fill="none" stroke="midnightblue" d="M957.12,-463.08C945.99,-454.36 933.38,-443.73 923,-433 901.99,-411.28 881.54,-382.47 870.18,-365.56"/>
<polygon fill="midnightblue" stroke="midnightblue" points="955.21,-466.03 965.27,-469.35 959.47,-460.48 955.21,-466.03"/>
</g>
<!-- Node12 -->
<g id="node12" class="node">
<title>Node12</title>
<g id="a_node12"><a xlink:href="wait__group_8hpp.html" target="_top" xlink:title=" ">
<polygon fill="none" stroke="black" points="1176,-134.5 1176,-164.5 1272,-164.5 1272,-134.5 1176,-134.5"/>
<text text-anchor="start" x="1184" y="-152.5" font-family="Helvetica,sans-Serif" font-size="10.00">include/yaclib/algo</text>
<text text-anchor="middle" x="1224" y="-141.5" font-family="Helvetica,sans-Serif" font-size="10.00">/wait_group.hpp</text>
</a>
</g>
</g>
<!-- Node1&#45;&gt;Node12 -->
<g id="edge34" class="edge">
<title>Node1&#45;&gt;Node12</title>
<path fill="none" stroke="midnightblue" d="M1056,-467.74C1113.85,-450.22 1186,-415.53 1186,-351.5 1186,-351.5 1186,-351.5 1186,-282.5 1186,-238.14 1206.06,-188.56 1217.03,-164.76"/>
<polygon fill="midnightblue" stroke="midnightblue" points="1054.75,-464.46 1046.13,-470.61 1056.7,-471.18 1054.75,-464.46"/>
</g>
<!-- Node2&#45;&gt;Node3 -->
<g id="edge2" class="edge">
<title>Node2&#45;&gt;Node3</title>
<path fill="none" stroke="midnightblue" d="M949.16,-397.71C929.61,-387.46 905.8,-374.98 887.85,-365.58"/>
<polygon fill="midnightblue" stroke="midnightblue" points="947.61,-400.85 958.09,-402.4 950.86,-394.65 947.61,-400.85"/>
</g>
<!-- Node11 -->
<g id="node11" class="node">
<title>Node11</title>
<g id="a_node11"><a xlink:href="wait__for_8hpp.html" target="_top" xlink:title=" ">
<polygon fill="none" stroke="black" points="1062,-134.5 1062,-164.5 1158,-164.5 1158,-134.5 1062,-134.5"/>
<text text-anchor="start" x="1070" y="-152.5" font-family="Helvetica,sans-Serif" font-size="10.00">include/yaclib/algo</text>
<text text-anchor="middle" x="1110" y="-141.5" font-family="Helvetica,sans-Serif" font-size="10.00">/wait_for.hpp</text>
</a>
</g>
</g>
<!-- Node2&#45;&gt;Node11 -->
<g id="edge30" class="edge">
<title>Node2&#45;&gt;Node11</title>
<path fill="none" stroke="midnightblue" d="M1047.39,-399.05C1063.74,-391.49 1079.67,-380.86 1090,-366 1134.18,-302.45 1120.21,-201.63 1113.07,-164.68"/>
<polygon fill="midnightblue" stroke="midnightblue" points="1045.58,-396.02 1037.75,-403.15 1048.32,-402.46 1045.58,-396.02"/>
</g>
<!-- Node14 -->
<g id="node14" class="node">
<title>Node14</title>
<g id="a_node14"><a xlink:href="wait__until_8hpp.html" target="_top" xlink:title=" ">
<polygon fill="none" stroke="black" points="948,-134.5 948,-164.5 1044,-164.5 1044,-134.5 948,-134.5"/>
<text text-anchor="start" x="956" y="-152.5" font-family="Helvetica,sans-Serif" font-size="10.00">include/yaclib/algo</text>
<text text-anchor="middle" x="996" y="-141.5" font-family="Helvetica,sans-Serif" font-size="10.00">/wait_until.hpp</text>
</a>
</g>
</g>
<!-- Node2&#45;&gt;Node14 -->
<g id="edge31" class="edge">
<title>Node2&#45;&gt;Node14</title>
<path fill="none" stroke="midnightblue" d="M970.23,-393.47C965.69,-385.15 961.29,-375.47 959,-366 940.85,-291.11 974.75,-199.48 989.57,-164.76"/>
<polygon fill="midnightblue" stroke="midnightblue" points="967.25,-395.32 975.3,-402.21 973.3,-391.8 967.25,-395.32"/>
</g>
<!-- Node23 -->
<g id="node23" class="node">
<title>Node23</title>
<g id="a_node23"><a xlink:href="wait__impl_8cpp.html" target="_top" xlink:title=" ">
<polygon fill="none" stroke="black" points="968.5,-341 968.5,-360 1081.5,-360 1081.5,-341 968.5,-341"/>
<text text-anchor="middle" x="1025" y="-348" font-family="Helvetica,sans-Serif" font-size="10.00">src/algo/wait_impl.cpp</text>
</a>
</g>
</g>
<!-- Node2&#45;&gt;Node23 -->
<g id="edge32" class="edge">
<title>Node2&#45;&gt;Node23</title>
<path fill="none" stroke="midnightblue" d="M999.07,-393.63C1006.19,-382.07 1014.41,-368.71 1019.65,-360.19"/>
<polygon fill="midnightblue" stroke="midnightblue" points="995.94,-392.05 993.68,-402.4 1001.9,-395.71 995.94,-392.05"/>
</g>
<!-- Node4 -->
<g id="node4" class="node">
<title>Node4</title>
<g id="a_node4"><a xlink:href="future__impl_8hpp.html" target="_top" xlink:title=" ">
<polygon fill="none" stroke="black" points="702,-268.5 702,-298.5 814,-298.5 814,-268.5 702,-268.5"/>
<text text-anchor="start" x="710" y="-286.5" font-family="Helvetica,sans-Serif" font-size="10.00">include/yaclib/async</text>
<text text-anchor="middle" x="758" y="-275.5" font-family="Helvetica,sans-Serif" font-size="10.00">/detail/future_impl.hpp</text>
</a>
</g>
</g>
<!-- Node3&#45;&gt;Node4 -->
<g id="edge3" class="edge">
<title>Node3&#45;&gt;Node4</title>
<path fill="none" stroke="midnightblue" d="M830.12,-330.02C814.1,-319.9 794.87,-307.77 780.31,-298.58"/>
<polygon fill="midnightblue" stroke="midnightblue" points="828.33,-333.02 838.65,-335.4 832.06,-327.1 828.33,-333.02"/>
</g>
<!-- Node5 -->
<g id="node5" class="node">
<title>Node5</title>
<g id="a_node5"><a xlink:href="future_8hpp.html" target="_top" xlink:title=" ">
<polygon fill="none" stroke="black" points="702,-201.5 702,-231.5 806,-231.5 806,-201.5 702,-201.5"/>
<text text-anchor="start" x="710" y="-219.5" font-family="Helvetica,sans-Serif" font-size="10.00">include/yaclib/async</text>
<text text-anchor="middle" x="754" y="-208.5" font-family="Helvetica,sans-Serif" font-size="10.00">/future.hpp</text>
</a>
</g>
</g>
<!-- Node4&#45;&gt;Node5 -->
<g id="edge4" class="edge">
<title>Node4&#45;&gt;Node5</title>
<path fill="none" stroke="midnightblue" d="M756.52,-258.4C755.96,-249.37 755.35,-239.41 754.87,-231.58"/>
<polygon fill="midnightblue" stroke="midnightblue" points="753.02,-258.63 757.13,-268.4 760.01,-258.2 753.02,-258.63"/>
</g>
<!-- Node5&#45;&gt;Node3 -->
<g id="edge10" class="edge">
<title>Node5&#45;&gt;Node3</title>
<path fill="none" stroke="midnightblue" d="M787.79,-237.2C800.03,-245.54 813.22,-256.09 823,-268 839.94,-288.63 851.21,-318.06 856.82,-335.33"/>
<polygon fill="midnightblue" stroke="midnightblue" points="789.41,-234.07 779.12,-231.53 785.58,-239.93 789.41,-234.07"/>
</g>
<!-- Node6 -->
<g id="node6" class="node">
<title>Node6</title>
<g id="a_node6"><a xlink:href="when__impl_8hpp.html" target="_top" xlink:title=" ">
<polygon fill="none" stroke="black" points="782,-134.5 782,-164.5 892,-164.5 892,-134.5 782,-134.5"/>
<text text-anchor="start" x="790" y="-152.5" font-family="Helvetica,sans-Serif" font-size="10.00">include/yaclib/algo</text>
<text text-anchor="middle" x="837" y="-141.5" font-family="Helvetica,sans-Serif" font-size="10.00">/detail/when_impl.hpp</text>
</a>
</g>
</g>
<!-- Node5&#45;&gt;Node6 -->
<g id="edge5" class="edge">
<title>Node5&#45;&gt;Node6</title>
<path fill="none" stroke="midnightblue" d="M779.96,-195.17C792.65,-185.23 807.61,-173.51 819.03,-164.58"/>
<polygon fill="midnightblue" stroke="midnightblue" points="777.72,-192.47 772.01,-201.4 782.04,-197.99 777.72,-192.47"/>
</g>
<!-- Node7 -->
<g id="node7" class="node">
<title>Node7</title>
<g id="a_node7"><a xlink:href="when__all_8hpp.html" target="_top" xlink:title=" ">
<polygon fill="none" stroke="black" points="804,-67.5 804,-97.5 900,-97.5 900,-67.5 804,-67.5"/>
<text text-anchor="start" x="812" y="-85.5" font-family="Helvetica,sans-Serif" font-size="10.00">include/yaclib/algo</text>
<text text-anchor="middle" x="852" y="-74.5" font-family="Helvetica,sans-Serif" font-size="10.00">/when_all.hpp</text>
</a>
</g>
</g>
<!-- Node5&#45;&gt;Node7 -->
<g id="edge15" class="edge">
<title>Node5&#45;&gt;Node7</title>
<path fill="none" stroke="midnightblue" d="M816.06,-210.67C846.93,-204.76 881.69,-192.05 901,-165 917.11,-142.43 890.98,-114.38 871.1,-97.77"/>
<polygon fill="midnightblue" stroke="midnightblue" points="815.47,-207.22 806.2,-212.36 816.65,-214.12 815.47,-207.22"/>
</g>
<!-- Node9 -->
<g id="node9" class="node">
<title>Node9</title>
<g id="a_node9"><a xlink:href="when__any_8hpp.html" target="_top" xlink:title=" ">
<polygon fill="none" stroke="black" points="690,-67.5 690,-97.5 786,-97.5 786,-67.5 690,-67.5"/>
<text text-anchor="start" x="698" y="-85.5" font-family="Helvetica,sans-Serif" font-size="10.00">include/yaclib/algo</text>
<text text-anchor="middle" x="738" y="-74.5" font-family="Helvetica,sans-Serif" font-size="10.00">/when_any.hpp</text>
</a>
</g>
</g>
<!-- Node5&#45;&gt;Node9 -->
<g id="edge16" class="edge">
<title>Node5&#45;&gt;Node9</title>
<path fill="none" stroke="midnightblue" d="M751.08,-191.39C747.75,-163.9 742.41,-119.89 739.7,-97.52"/>
<polygon fill="midnightblue" stroke="midnightblue" points="747.61,-191.87 752.29,-201.37 754.56,-191.03 747.61,-191.87"/>
</g>
<!-- Node5&#45;&gt;Node11 -->
<g id="edge11" class="edge">
<title>Node5&#45;&gt;Node11</title>
<path fill="none" stroke="midnightblue" d="M816.28,-206.5C876.96,-197.37 971.69,-182.18 1053,-165 1055.9,-164.39 1058.87,-163.73 1061.86,-163.04"/>
<polygon fill="midnightblue" stroke="midnightblue" points="815.47,-203.08 806.1,-208.02 816.51,-210.01 815.47,-203.08"/>
</g>
<!-- Node5&#45;&gt;Node12 -->
<g id="edge12" class="edge">
<title>Node5&#45;&gt;Node12</title>
<path fill="none" stroke="midnightblue" d="M816.21,-210.38C897.37,-203.14 1043.59,-188.14 1167,-165 1169.91,-164.45 1172.89,-163.85 1175.89,-163.2"/>
<polygon fill="midnightblue" stroke="midnightblue" points="815.81,-206.9 806.16,-211.27 816.43,-213.88 815.81,-206.9"/>
</g>
<!-- Node5&#45;&gt;Node14 -->
<g id="edge14" class="edge">
<title>Node5&#45;&gt;Node14</title>
<path fill="none" stroke="midnightblue" d="M816.11,-198.82C857.16,-187.79 910.17,-173.55 947.99,-163.39"/>
<polygon fill="midnightblue" stroke="midnightblue" points="814.96,-195.5 806.21,-201.48 816.78,-202.26 814.96,-195.5"/>
</g>
<!-- Node15 -->
<g id="node15" class="node">
<title>Node15</title>
<g id="a_node15"><a xlink:href="contract_8hpp.html" target="_top" xlink:title=" ">
<polygon fill="none" stroke="black" points="0,-134.5 0,-164.5 104,-164.5 104,-134.5 0,-134.5"/>
<text text-anchor="start" x="8" y="-152.5" font-family="Helvetica,sans-Serif" font-size="10.00">include/yaclib/async</text>
<text text-anchor="middle" x="52" y="-141.5" font-family="Helvetica,sans-Serif" font-size="10.00">/contract.hpp</text>
</a>
</g>
</g>
<!-- Node5&#45;&gt;Node15 -->
<g id="edge17" class="edge">
<title>Node5&#45;&gt;Node15</title>
<path fill="none" stroke="midnightblue" d="M691.48,-213.38C577.12,-208.87 326.76,-196.07 118,-165 113.47,-164.33 108.8,-163.52 104.12,-162.64"/>
<polygon fill="midnightblue" stroke="midnightblue" points="691.66,-216.89 701.79,-213.78 691.93,-209.89 691.66,-216.89"/>
</g>
<!-- Node16 -->
<g id="node16" class="node">
<title>Node16</title>
<g id="a_node16"><a xlink:href="simple_8cpp.html" target="_top" xlink:title=" ">
<polygon fill="none" stroke="black" points="81.5,-67.5 81.5,-97.5 182.5,-97.5 182.5,-67.5 81.5,-67.5"/>
<text text-anchor="start" x="89.5" y="-85.5" font-family="Helvetica,sans-Serif" font-size="10.00">test/example/async</text>
<text text-anchor="middle" x="132" y="-74.5" font-family="Helvetica,sans-Serif" font-size="10.00">/simple.cpp</text>
</a>
</g>
</g>
<!-- Node5&#45;&gt;Node16 -->
<g id="edge29" class="edge">
<title>Node5&#45;&gt;Node16</title>
<path fill="none" stroke="midnightblue" d="M691.83,-214.37C546.02,-211.16 191.29,-199.82 151,-165 131.65,-148.28 129.93,-116.03 130.74,-97.5"/>
<polygon fill="midnightblue" stroke="midnightblue" points="691.89,-217.88 701.96,-214.59 692.04,-210.88 691.89,-217.88"/>
</g>
<!-- Node17 -->
<g id="node17" class="node">
<title>Node17</title>
<g id="a_node17"><a xlink:href="run_8hpp.html" target="_top" xlink:title=" ">
<polygon fill="none" stroke="black" points="160,-134.5 160,-164.5 264,-164.5 264,-134.5 160,-134.5"/>
<text text-anchor="start" x="168" y="-152.5" font-family="Helvetica,sans-Serif" font-size="10.00">include/yaclib/async</text>
<text text-anchor="middle" x="212" y="-141.5" font-family="Helvetica,sans-Serif" font-size="10.00">/run.hpp</text>
</a>
</g>
</g>
<!-- Node5&#45;&gt;Node17 -->
<g id="edge19" class="edge">
<title>Node5&#45;&gt;Node17</title>
<path fill="none" stroke="midnightblue" d="M691.82,-211.11C600.64,-204.17 425.5,-188.95 278,-165 273.48,-164.27 268.81,-163.42 264.14,-162.51"/>
<polygon fill="midnightblue" stroke="midnightblue" points="691.74,-214.61 701.98,-211.87 692.27,-207.63 691.74,-214.61"/>
</g>
<!-- Node18 -->
<g id="node18" class="node">
<title>Node18</title>
<g id="a_node18"><a xlink:href="await_8hpp.html" target="_top" xlink:title=" ">
<polygon fill="none" stroke="black" points="278,-67.5 278,-97.5 396,-97.5 396,-67.5 278,-67.5"/>
<text text-anchor="start" x="286" y="-85.5" font-family="Helvetica,sans-Serif" font-size="10.00">include/yaclib/coroutine</text>
<text text-anchor="middle" x="337" y="-74.5" font-family="Helvetica,sans-Serif" font-size="10.00">/await.hpp</text>
</a>
</g>
</g>
<!-- Node5&#45;&gt;Node18 -->
<g id="edge23" class="edge">
<title>Node5&#45;&gt;Node18</title>
<path fill="none" stroke="midnightblue" d="M691.54,-212.91C575.45,-207.44 335.89,-192.89 311,-165 293.89,-145.83 311.78,-115.35 325.18,-97.6"/>
<polygon fill="midnightblue" stroke="midnightblue" points="691.56,-216.41 701.71,-213.38 691.88,-209.42 691.56,-216.41"/>
</g>
<!-- Node19 -->
<g id="node19" class="node">
<title>Node19</title>
<g id="a_node19"><a xlink:href="await__awaiter_8hpp.html" target="_top" xlink:title=" ">
<polygon fill="none" stroke="black" points="320,-134.5 320,-164.5 444,-164.5 444,-134.5 320,-134.5"/>
<text text-anchor="start" x="328" y="-152.5" font-family="Helvetica,sans-Serif" font-size="10.00">include/yaclib/coroutine</text>
<text text-anchor="middle" x="382" y="-141.5" font-family="Helvetica,sans-Serif" font-size="10.00">/detail/await_awaiter.hpp</text>
</a>
</g>
</g>
<!-- Node5&#45;&gt;Node19 -->
<g id="edge24" class="edge">
<title>Node5&#45;&gt;Node19</title>
<path fill="none" stroke="midnightblue" d="M691.75,-205.71C630.8,-195.97 535.36,-180.31 453,-165 450.16,-164.47 447.25,-163.92 444.31,-163.36"/>
<polygon fill="midnightblue" stroke="midnightblue" points="691.54,-209.22 701.97,-207.34 692.64,-202.31 691.54,-209.22"/>
</g>
<!-- Node21 -->
<g id="node21" class="node">
<title>Node21</title>
<g id="a_node21"><a xlink:href="future__traits_8hpp.html" target="_top" xlink:title=" ">
<polygon fill="none" stroke="black" points="462,-134.5 462,-164.5 580,-164.5 580,-134.5 462,-134.5"/>
<text text-anchor="start" x="470" y="-152.5" font-family="Helvetica,sans-Serif" font-size="10.00">include/yaclib/coroutine</text>
<text text-anchor="middle" x="521" y="-141.5" font-family="Helvetica,sans-Serif" font-size="10.00">/future_traits.hpp</text>
</a>
</g>
</g>
<!-- Node5&#45;&gt;Node21 -->
<g id="edge27" class="edge">
<title>Node5&#45;&gt;Node21</title>
<path fill="none" stroke="midnightblue" d="M693.83,-198.71C655.92,-188.14 607.51,-174.63 571.58,-164.61"/>
<polygon fill="midnightblue" stroke="midnightblue" points="693.16,-202.16 703.73,-201.48 695.04,-195.42 693.16,-202.16"/>
</g>
<!-- Node22 -->
<g id="node22" class="node">
<title>Node22</title>
<g id="a_node22"><a xlink:href="future__impl_8cpp.html" target="_top" xlink:title=" ">
<polygon fill="none" stroke="black" points="598,-140 598,-159 726,-159 726,-140 598,-140"/>
<text text-anchor="middle" x="662" y="-147" font-family="Helvetica,sans-Serif" font-size="10.00">src/async/future_impl.cpp</text>
</a>
</g>
</g>
<!-- Node5&#45;&gt;Node22 -->
<g id="edge28" class="edge">
<title>Node5&#45;&gt;Node22</title>
<path fill="none" stroke="midnightblue" d="M725.42,-195.31C708.14,-183.1 687.02,-168.18 674.04,-159.01"/>
<polygon fill="midnightblue" stroke="midnightblue" points="723.85,-198.48 734.04,-201.4 727.89,-192.77 723.85,-198.48"/>
</g>
<!-- Node6&#45;&gt;Node7 -->
<g id="edge6" class="edge">
<title>Node6&#45;&gt;Node7</title>
<path fill="none" stroke="midnightblue" d="M842.56,-124.4C844.65,-115.37 846.94,-105.41 848.75,-97.58"/>
<polygon fill="midnightblue" stroke="midnightblue" points="839.09,-123.87 840.25,-134.4 845.91,-125.44 839.09,-123.87"/>
</g>
<!-- Node6&#45;&gt;Node9 -->
<g id="edge8" class="edge">
<title>Node6&#45;&gt;Node9</title>
<path fill="none" stroke="midnightblue" d="M806.89,-128.73C791.58,-118.68 773.31,-106.68 759.44,-97.58"/>
<polygon fill="midnightblue" stroke="midnightblue" points="805.24,-131.83 815.52,-134.4 809.08,-125.98 805.24,-131.83"/>
</g>
<!-- Node8 -->
<g id="node8" class="node">
<title>Node8</title>
<g id="a_node8"><a xlink:href="when__all_8cpp.html" target="_top" xlink:title=" ">
<polygon fill="none" stroke="black" points="659.5,-0.5 659.5,-30.5 760.5,-30.5 760.5,-0.5 659.5,-0.5"/>
<text text-anchor="start" x="667.5" y="-18.5" font-family="Helvetica,sans-Serif" font-size="10.00">test/example/async</text>
<text text-anchor="middle" x="710" y="-7.5" font-family="Helvetica,sans-Serif" font-size="10.00">/when_all.cpp</text>
</a>
</g>
</g>
<!-- Node7&#45;&gt;Node8 -->
<g id="edge7" class="edge">
<title>Node7&#45;&gt;Node8</title>
<path fill="none" stroke="midnightblue" d="M811.87,-63.13C789.31,-52.8 761.58,-40.11 740.75,-30.58"/>
<polygon fill="midnightblue" stroke="midnightblue" points="810.64,-66.42 821.19,-67.4 813.55,-60.05 810.64,-66.42"/>
</g>
<!-- Node10 -->
<g id="node10" class="node">
<title>Node10</title>
<g id="a_node10"><a xlink:href="when__any_8cpp.html" target="_top" xlink:title=" ">
<polygon fill="none" stroke="black" points="414.5,-0.5 414.5,-30.5 515.5,-30.5 515.5,-0.5 414.5,-0.5"/>
<text text-anchor="start" x="422.5" y="-18.5" font-family="Helvetica,sans-Serif" font-size="10.00">test/example/async</text>
<text text-anchor="middle" x="465" y="-7.5" font-family="Helvetica,sans-Serif" font-size="10.00">/when_any.cpp</text>
</a>
</g>
</g>
<!-- Node9&#45;&gt;Node10 -->
<g id="edge9" class="edge">
<title>Node9&#45;&gt;Node10</title>
<path fill="none" stroke="midnightblue" d="M680.06,-67.71C631.4,-56.12 562.53,-39.72 515.94,-28.63"/>
<polygon fill="midnightblue" stroke="midnightblue" points="679.28,-71.12 689.82,-70.03 680.9,-64.31 679.28,-71.12"/>
</g>
<!-- Node13 -->
<g id="node13" class="node">
<title>Node13</title>
<g id="a_node13"><a xlink:href="wait__group_8cpp.html" target="_top" xlink:title=" ">
<polygon fill="none" stroke="black" points="1164.5,-73 1164.5,-92 1283.5,-92 1283.5,-73 1164.5,-73"/>
<text text-anchor="middle" x="1224" y="-80" font-family="Helvetica,sans-Serif" font-size="10.00">src/algo/wait_group.cpp</text>
</a>
</g>
</g>
<!-- Node12&#45;&gt;Node13 -->
<g id="edge13" class="edge">
<title>Node12&#45;&gt;Node13</title>
<path fill="none" stroke="midnightblue" d="M1224,-124.25C1224,-113.02 1224,-100.38 1224,-92.19"/>
<polygon fill="midnightblue" stroke="midnightblue" points="1220.5,-124.4 1224,-134.4 1227.5,-124.4 1220.5,-124.4"/>
</g>
<!-- Node15&#45;&gt;Node16 -->
<g id="edge18" class="edge">
<title>Node15&#45;&gt;Node16</title>
<path fill="none" stroke="midnightblue" d="M77.37,-127.88C89.53,-118.01 103.78,-106.43 114.68,-97.58"/>
<polygon fill="midnightblue" stroke="midnightblue" points="74.91,-125.37 69.36,-134.4 79.33,-130.81 74.91,-125.37"/>
</g>
<!-- Node17&#45;&gt;Node8 -->
<g id="edge21" class="edge">
<title>Node17&#45;&gt;Node8</title>
<path fill="none" stroke="midnightblue" d="M221.65,-125.25C230.85,-106.21 246.64,-80.32 269,-67 285.59,-57.12 546.71,-31.74 659.14,-21.2"/>
<polygon fill="midnightblue" stroke="midnightblue" points="218.4,-123.92 217.43,-134.47 224.77,-126.83 218.4,-123.92"/>
</g>
<!-- Node17&#45;&gt;Node10 -->
<g id="edge22" class="edge">
<title>Node17&#45;&gt;Node10</title>
<path fill="none" stroke="midnightblue" d="M212.78,-124.28C214.69,-106 220.3,-81.65 236,-67 261.45,-43.25 355.08,-28.7 414.44,-21.65"/>
<polygon fill="midnightblue" stroke="midnightblue" points="209.27,-124.24 212.02,-134.47 216.25,-124.76 209.27,-124.24"/>
</g>
<!-- Node17&#45;&gt;Node16 -->
<g id="edge20" class="edge">
<title>Node17&#45;&gt;Node16</title>
<path fill="none" stroke="midnightblue" d="M186.63,-127.88C174.47,-118.01 160.22,-106.43 149.32,-97.58"/>
<polygon fill="midnightblue" stroke="midnightblue" points="184.67,-130.81 194.64,-134.4 189.09,-125.37 184.67,-130.81"/>
</g>
<!-- Node19&#45;&gt;Node18 -->
<g id="edge25" class="edge">
<title>Node19&#45;&gt;Node18</title>
<path fill="none" stroke="midnightblue" d="M366.53,-126.16C359.97,-116.68 352.52,-105.92 346.75,-97.58"/>
<polygon fill="midnightblue" stroke="midnightblue" points="363.67,-128.17 372.24,-134.4 369.42,-124.18 363.67,-128.17"/>
</g>
<!-- Node20 -->
<g id="node20" class="node">
<title>Node20</title>
<g id="a_node20"><a xlink:href="await__awaiter_8cpp.html" target="_top" xlink:title=" ">
<polygon fill="none" stroke="black" points="414.5,-67.5 414.5,-97.5 513.5,-97.5 513.5,-67.5 414.5,-67.5"/>
<text text-anchor="start" x="422.5" y="-85.5" font-family="Helvetica,sans-Serif" font-size="10.00">src/coroutine/await</text>
<text text-anchor="middle" x="464" y="-74.5" font-family="Helvetica,sans-Serif" font-size="10.00">_awaiter.cpp</text>
</a>
</g>
</g>
<!-- Node19&#45;&gt;Node20 -->
<g id="edge26" class="edge">
<title>Node19&#45;&gt;Node20</title>
<path fill="none" stroke="midnightblue" d="M407.65,-128.17C420.19,-118.23 434.97,-106.51 446.24,-97.58"/>
<polygon fill="midnightblue" stroke="midnightblue" points="405.46,-125.44 399.79,-134.4 409.8,-130.93 405.46,-125.44"/>
</g>
</g>
</svg>
        <g id="navigator" transform="translate(0 0)" fill="#404254">
                <rect fill="#f2f5e9" fill-opacity="0.5" stroke="#606060" stroke-width=".5" x="0" y="0" width="60" height="60"/>
                <use id="zoomplus" xlink:href="#zoomPlus" x="17" y="9" onmousedown="handleZoom(evt,'in')"/>
                <use id="zoomminus" xlink:href="#zoomMin" x="42" y="9" onmousedown="handleZoom(evt,'out')"/>
                <use id="reset" xlink:href="#resetDef" x="30" y="36" onmousedown="handleReset()"/>
                <g id="arrowUp" xlink:href="#dirArrow" transform="translate(30 24)" onmousedown="handlePan(0,-1)">
                  <use xlink:href="#rim" fill="#404040">
                        <set attributeName="fill" to="#808080" begin="arrowUp.mouseover" end="arrowUp.mouseout"/>
                  </use>
                  <path fill="none" stroke="white" stroke-width="1.5" d="M0,-3.0v7 M-2.5,-0.5L0,-3.0L2.5,-0.5"/>
                </g>
                <g id="arrowRight" xlink:href="#dirArrow" transform="rotate(90) translate(36 -43)" onmousedown="handlePan(1,0)">
                  <use xlink:href="#rim" fill="#404040">
                        <set attributeName="fill" to="#808080" begin="arrowRight.mouseover" end="arrowRight.mouseout"/>
                  </use>
                  <path fill="none" stroke="white" stroke-width="1.5" d="M0,-3.0v7 M-2.5,-0.5L0,-3.0L2.5,-0.5"/>
                </g>
                <g id="arrowDown" xlink:href="#dirArrow" transform="rotate(180) translate(-30 -48)" onmousedown="handlePan(0,1)">
                  <use xlink:href="#rim" fill="#404040">
                        <set attributeName="fill" to="#808080" begin="arrowDown.mouseover" end="arrowDown.mouseout"/>
                  </use>
                  <path fill="none" stroke="white" stroke-width="1.5" d="M0,-3.0v7 M-2.5,-0.5L0,-3.0L2.5,-0.5"/>
                </g>
                <g id="arrowLeft" xlink:href="#dirArrow" transform="rotate(270) translate(-36 17)" onmousedown="handlePan(-1,0)">
                  <use xlink:href="#rim" fill="#404040">
                        <set attributeName="fill" to="#808080" begin="arrowLeft.mouseover" end="arrowLeft.mouseout"/>
                  </use>
                  <path fill="none" stroke="white" stroke-width="1.5" d="M0,-3.0v7 M-2.5,-0.5L0,-3.0L2.5,-0.5"/>
                </g>
        </g>
        <svg viewBox="0 0 15 15" width="100%" height="30px" preserveAspectRatio="xMaxYMin meet">
         <g id="arrow_out" transform="scale(0.3 0.3)">
          <a xlink:href="default__event_8hpp__dep__incl_org.svg" target="_base">
           <rect id="button" ry="5" rx="5" y="6" x="6" height="38" width="38"
                fill="#f2f5e9" fill-opacity="0.5" stroke="#606060" stroke-width="1.0"/>
           <path id="arrow"
             d="M 11.500037,31.436501 C 11.940474,20.09759 22.043105,11.32322 32.158766,21.979434 L 37.068811,17.246167 C 37.068811,17.246167 37.088388,32 37.088388,32 L 22.160133,31.978069 C 22.160133,31.978069 26.997745,27.140456 26.997745,27.140456 C 18.528582,18.264221 13.291696,25.230495 11.500037,31.436501 z"
             style="fill:#404040;"/>
          </a>
         </g>
        </svg>
</svg>
