<?xml version="1.0" encoding="UTF-8" standalone="no"?>
<!DOCTYPE svg PUBLIC "-//W3C//DTD SVG 1.1//EN"
 "http://www.w3.org/Graphics/SVG/1.1/DTD/svg11.dtd">
<!-- Generated by graphviz version 3.0.0 (20220413.0106)
 -->
<!-- Title: include/yaclib Pages: 1 -->
<svg width="328pt" height="327pt"
 viewBox="0.00 0.00 328.00 327.00" xmlns="http://www.w3.org/2000/svg" xmlns:xlink="http://www.w3.org/1999/xlink">
<g id="graph0" class="graph" transform="scale(1 1) rotate(0) translate(4 323)">
<title>include/yaclib</title>
<g id="clust1" class="cluster">
<title>clusterdir_d44c64559bbebec7f509842c48db8b23</title>
<g id="a_clust1"><a xlink:href="dir_d44c64559bbebec7f509842c48db8b23.html" target="_top" xlink:title="include">
<polygon fill="#edf0f7" stroke="#404040" stroke-dasharray="5,2" points="8,-8 8,-311 312,-311 312,-8 8,-8"/>
<text text-anchor="middle" x="160" y="-299" font-family="Helvetica,sans-Serif" font-size="10.00">include</text>
</a>
</g>
</g>
<g id="clust2" class="cluster">
<title>clusterdir_5202e9473254619c80971b7f5a23629e</title>
<g id="a_clust2"><a xlink:href="dir_5202e9473254619c80971b7f5a23629e.html" target="_top">
<polygon fill="#edf0f7" stroke="#404040" stroke-width="2" points="16,-16 16,-284 304,-284 304,-16 16,-16"/>
</a>
</g>
</g>
<!-- dir_5202e9473254619c80971b7f5a23629e -->
<g id="node1" class="node">
<title>dir_5202e9473254619c80971b7f5a23629e</title>
<text text-anchor="middle" x="269" y="-255.5" font-family="Helvetica,sans-Serif" font-size="10.00">yaclib</text>
</g>
<!-- dir_b9c60d6ac2345286a03f7e9bdef04560 -->
<g id="node2" class="node">
<title>dir_b9c60d6ac2345286a03f7e9bdef04560</title>
<g id="a_node2"><a xlink:href="dir_b9c60d6ac2345286a03f7e9bdef04560.html" target="_top" xlink:title="algo">
<polygon fill="#a2b4d6" stroke="#404040" points="224,-276 170,-276 170,-240 224,-240 224,-276"/>
<text text-anchor="middle" x="197" y="-255.5" font-family="Helvetica,sans-Serif" font-size="10.00">algo</text>
</a>
</g>
</g>
<!-- dir_4063a9e34a1302ac947dfe60cb383789 -->
<g id="node3" class="node">
<title>dir_4063a9e34a1302ac947dfe60cb383789</title>
<g id="a_node3"><a xlink:href="dir_4063a9e34a1302ac947dfe60cb383789.html" target="_top" xlink:title="async">
<polygon fill="#a2b4d6" stroke="#404040" points="207,-204 153,-204 153,-168 207,-168 207,-204"/>
<text text-anchor="middle" x="180" y="-183.5" font-family="Helvetica,sans-Serif" font-size="10.00">async</text>
</a>
</g>
</g>
<!-- dir_b9c60d6ac2345286a03f7e9bdef04560&#45;&gt;dir_4063a9e34a1302ac947dfe60cb383789 -->
<g id="edge1" class="edge">
<title>dir_b9c60d6ac2345286a03f7e9bdef04560&#45;&gt;dir_4063a9e34a1302ac947dfe60cb383789</title>
<path fill="none" stroke="black" d="M186.88,-239.7C184.21,-231.98 181.74,-222.71 179.99,-214.11"/>
<polygon fill="black" stroke="black" points="183.41,-213.36 178.26,-204.1 176.51,-214.55 183.41,-213.36"/>
<g id="a_edge1&#45;headlabel"><a xlink:href="dir_000000_000002.html" target="_top" xlink:title="13">
<text text-anchor="middle" x="186.82" y="-213.92" font-family="Helvetica,sans-Serif" font-size="10.00">13</text>
</a>
</g>
</g>
<!-- dir_9463e03d191b6d61661112ff0fb64dc7 -->
<g id="node7" class="node">
<title>dir_9463e03d191b6d61661112ff0fb64dc7</title>
<g id="a_node7"><a xlink:href="dir_9463e03d191b6d61661112ff0fb64dc7.html" target="_top" xlink:title="util">
<polygon fill="#a2b4d6" stroke="#404040" points="210,-60 156,-60 156,-24 210,-24 210,-60"/>
<text text-anchor="middle" x="183" y="-39.5" font-family="Helvetica,sans-Serif" font-size="10.00">util</text>
</a>
</g>
</g>
<!-- dir_b9c60d6ac2345286a03f7e9bdef04560&#45;&gt;dir_9463e03d191b6d61661112ff0fb64dc7 -->
<g id="edge2" class="edge">
<title>dir_b9c60d6ac2345286a03f7e9bdef04560&#45;&gt;dir_9463e03d191b6d61661112ff0fb64dc7</title>
<path fill="none" stroke="black" d="M204.89,-239.75C209.11,-229.58 213.86,-216.33 216,-204 224.25,-156.57 207.28,-101.72 194.76,-69.83"/>
<polygon fill="black" stroke="black" points="197.9,-68.27 190.89,-60.33 191.42,-70.91 197.9,-68.27"/>
<g id="a_edge2&#45;headlabel"><a xlink:href="dir_000000_000026.html" target="_top" xlink:title="18">
<text text-anchor="middle" x="201.89" y="-68.03" font-family="Helvetica,sans-Serif" font-size="10.00">18</text>
</a>
</g>
</g>
<!-- dir_4063a9e34a1302ac947dfe60cb383789&#45;&gt;dir_b9c60d6ac2345286a03f7e9bdef04560 -->
<g id="edge5" class="edge">
<title>dir_4063a9e34a1302ac947dfe60cb383789&#45;&gt;dir_b9c60d6ac2345286a03f7e9bdef04560</title>
<path fill="none" stroke="black" d="M190.05,-204.1C192.72,-211.79 195.21,-221.05 196.97,-229.67"/>
<polygon fill="black" stroke="black" points="193.55,-230.45 198.71,-239.7 200.44,-229.24 193.55,-230.45"/>
<g id="a_edge5&#45;headlabel"><a xlink:href="dir_000002_000000.html" target="_top" xlink:title="1">
<text text-anchor="middle" x="190.13" y="-224.89" font-family="Helvetica,sans-Serif" font-size="10.00">1</text>
</a>
</g>
</g>
<!-- dir_f6a9384b5ccd990c15687caf98c8deaa -->
<g id="node5" class="node">
<title>dir_f6a9384b5ccd990c15687caf98c8deaa</title>
<g id="a_node5"><a xlink:href="dir_f6a9384b5ccd990c15687caf98c8deaa.html" target="_top" xlink:title="executor">
<polygon fill="#a2b4d6" stroke="#404040" points="187,-132 133,-132 133,-96 187,-96 187,-132"/>
<text text-anchor="middle" x="160" y="-111.5" font-family="Helvetica,sans-Serif" font-size="10.00">executor</text>
</a>
</g>
</g>
<!-- dir_4063a9e34a1302ac947dfe60cb383789&#45;&gt;dir_f6a9384b5ccd990c15687caf98c8deaa -->
<g id="edge4" class="edge">
<title>dir_4063a9e34a1302ac947dfe60cb383789&#45;&gt;dir_f6a9384b5ccd990c15687caf98c8deaa</title>
<path fill="none" stroke="black" d="M175.06,-167.7C172.83,-159.9 170.15,-150.51 167.67,-141.83"/>
<polygon fill="black" stroke="black" points="171,-140.76 164.89,-132.1 164.27,-142.68 171,-140.76"/>
<g id="a_edge4&#45;headlabel"><a xlink:href="dir_000002_000016.html" target="_top" xlink:title="4">
<text text-anchor="middle" x="174.72" y="-140.93" font-family="Helvetica,sans-Serif" font-size="10.00">4</text>
</a>
</g>
</g>
<!-- dir_4063a9e34a1302ac947dfe60cb383789&#45;&gt;dir_9463e03d191b6d61661112ff0fb64dc7 -->
<g id="edge3" class="edge">
<title>dir_4063a9e34a1302ac947dfe60cb383789&#45;&gt;dir_9463e03d191b6d61661112ff0fb64dc7</title>
<path fill="none" stroke="black" d="M186.65,-167.63C190.2,-157.42 194.2,-144.17 196,-132 198.34,-116.17 197.92,-111.88 196,-96 194.98,-87.53 193.07,-78.47 191.02,-70.28"/>
<polygon fill="black" stroke="black" points="194.36,-69.23 188.41,-60.47 187.6,-71.03 194.36,-69.23"/>
<g id="a_edge3&#45;headlabel"><a xlink:href="dir_000002_000026.html" target="_top" xlink:title="10">
<text text-anchor="middle" x="198.03" y="-69.48" font-family="Helvetica,sans-Serif" font-size="10.00">10</text>
</a>
</g>
</g>
<!-- dir_5492c40dfbc6782579416f5b6b340e12 -->
<g id="node4" class="node">
<title>dir_5492c40dfbc6782579416f5b6b340e12</title>
<g id="a_node4"><a xlink:href="dir_5492c40dfbc6782579416f5b6b340e12.html" target="_top" xlink:title="coroutine">
<polygon fill="#a2b4d6" stroke="#404040" points="152,-276 96,-276 96,-240 152,-240 152,-276"/>
<text text-anchor="middle" x="124" y="-255.5" font-family="Helvetica,sans-Serif" font-size="10.00">coroutine</text>
</a>
</g>
</g>
<!-- dir_5492c40dfbc6782579416f5b6b340e12&#45;&gt;dir_4063a9e34a1302ac947dfe60cb383789 -->
<g id="edge6" class="edge">
<title>dir_5492c40dfbc6782579416f5b6b340e12&#45;&gt;dir_4063a9e34a1302ac947dfe60cb383789</title>
<path fill="none" stroke="black" d="M137.84,-239.7C144.49,-231.39 152.58,-221.28 159.89,-212.14"/>
<polygon fill="black" stroke="black" points="162.8,-214.1 166.32,-204.1 157.34,-209.73 162.8,-214.1"/>
<g id="a_edge6&#45;headlabel"><a xlink:href="dir_000005_000002.html" target="_top" xlink:title="4">
<text text-anchor="middle" x="162.77" y="-216.18" font-family="Helvetica,sans-Serif" font-size="10.00">4</text>
</a>
</g>
</g>
<!-- dir_5492c40dfbc6782579416f5b6b340e12&#45;&gt;dir_f6a9384b5ccd990c15687caf98c8deaa -->
<g id="edge8" class="edge">
<title>dir_5492c40dfbc6782579416f5b6b340e12&#45;&gt;dir_f6a9384b5ccd990c15687caf98c8deaa</title>
<path fill="none" stroke="black" d="M127.47,-239.85C131.2,-221.86 137.48,-192.81 144,-168 146.26,-159.41 148.97,-150.11 151.52,-141.74"/>
<polygon fill="black" stroke="black" points="154.89,-142.68 154.5,-132.1 148.2,-140.62 154.89,-142.68"/>
<g id="a_edge8&#45;headlabel"><a xlink:href="dir_000005_000016.html" target="_top" xlink:title="3">
<text text-anchor="middle" x="156.54" y="-144.46" font-family="Helvetica,sans-Serif" font-size="10.00">3</text>
</a>
</g>
</g>
<!-- dir_5492c40dfbc6782579416f5b6b340e12&#45;&gt;dir_9463e03d191b6d61661112ff0fb64dc7 -->
<g id="edge7" class="edge">
<title>dir_5492c40dfbc6782579416f5b6b340e12&#45;&gt;dir_9463e03d191b6d61661112ff0fb64dc7</title>
<path fill="none" stroke="black" d="M119.58,-239.6C112.74,-209.01 102.48,-144.25 124,-96 129.17,-84.41 138.27,-74.29 147.79,-66.09"/>
<polygon fill="black" stroke="black" points="150.2,-68.65 155.82,-59.66 145.83,-63.18 150.2,-68.65"/>
<g id="a_edge7&#45;headlabel"><a xlink:href="dir_000005_000026.html" target="_top" xlink:title="6">
<text text-anchor="middle" x="149.17" y="-70.61" font-family="Helvetica,sans-Serif" font-size="10.00">6</text>
</a>
</g>
</g>
<!-- dir_f6a9384b5ccd990c15687caf98c8deaa&#45;&gt;dir_9463e03d191b6d61661112ff0fb64dc7 -->
<g id="edge9" class="edge">
<title>dir_f6a9384b5ccd990c15687caf98c8deaa&#45;&gt;dir_9463e03d191b6d61661112ff0fb64dc7</title>
<path fill="none" stroke="black" d="M165.69,-95.7C168.25,-87.9 171.33,-78.51 174.18,-69.83"/>
<polygon fill="black" stroke="black" points="177.58,-70.7 177.38,-60.1 170.93,-68.51 177.58,-70.7"/>
<g id="a_edge9&#45;headlabel"><a xlink:href="dir_000016_000026.html" target="_top" xlink:title="6">
<text text-anchor="middle" x="179.16" y="-72.5" font-family="Helvetica,sans-Serif" font-size="10.00">6</text>
</a>
</g>
</g>
<!-- dir_fcdee66dcbfecc4f407f3eae0a061ebf -->
<g id="node6" class="node">
<title>dir_fcdee66dcbfecc4f407f3eae0a061ebf</title>
<g id="a_node6"><a xlink:href="dir_fcdee66dcbfecc4f407f3eae0a061ebf.html" target="_top" xlink:title="fault">
<polygon fill="#a2b4d6" stroke="#404040" points="78,-276 24,-276 24,-240 78,-240 78,-276"/>
<text text-anchor="middle" x="51" y="-255.5" font-family="Helvetica,sans-Serif" font-size="10.00">fault</text>
</a>
</g>
</g>
</g>
</svg>
