<?xml version="1.0" encoding="UTF-8" standalone="no"?>
<!DOCTYPE svg PUBLIC "-//W3C//DTD SVG 1.1//EN"
 "http://www.w3.org/Graphics/SVG/1.1/DTD/svg11.dtd">
<!-- Generated by graphviz version 3.0.0 (20220413.0106)
 -->
<!-- Title: include/yaclib/fault/detail/recursive_timed_mutex.hpp Pages: 1 -->
<svg width="246pt" height="240pt"
 viewBox="0.00 0.00 245.50 240.00" xmlns="http://www.w3.org/2000/svg" xmlns:xlink="http://www.w3.org/1999/xlink">
<g id="graph0" class="graph" transform="scale(1 1) rotate(0) translate(4 236)">
<title>include/yaclib/fault/detail/recursive_timed_mutex.hpp</title>
<!-- Node1 -->
<g id="node1" class="node">
<title>Node1</title>
<g id="a_node1"><a xlink:title=" ">
<polygon fill="#bfbfbf" stroke="black" points="60,-190.5 60,-231.5 175,-231.5 175,-190.5 60,-190.5"/>
<text text-anchor="start" x="68" y="-219.5" font-family="Helvetica,sans-Serif" font-size="10.00">include/yaclib/fault</text>
<text text-anchor="start" x="68" y="-208.5" font-family="Helvetica,sans-Serif" font-size="10.00">/detail/recursive_timed</text>
<text text-anchor="middle" x="117.5" y="-197.5" font-family="Helvetica,sans-Serif" font-size="10.00">_mutex.hpp</text>
</a>
</g>
</g>
<!-- Node2 -->
<g id="node2" class="node">
<title>Node2</title>
<g id="a_node2"><a xlink:href="fault_2detail_2timed__mutex_8hpp.html" target="_top" xlink:title=" ">
<polygon fill="none" stroke="black" points="71,-123.5 71,-153.5 164,-153.5 164,-123.5 71,-123.5"/>
<text text-anchor="start" x="79" y="-141.5" font-family="Helvetica,sans-Serif" font-size="10.00">yaclib/fault/detail</text>
<text text-anchor="middle" x="117.5" y="-130.5" font-family="Helvetica,sans-Serif" font-size="10.00">/timed_mutex.hpp</text>
</a>
</g>
</g>
<!-- Node1&#45;&gt;Node2 -->
<g id="edge1" class="edge">
<title>Node1&#45;&gt;Node2</title>
<path fill="none" stroke="midnightblue" d="M117.5,-190.36C117.5,-182.23 117.5,-172.7 117.5,-164.11"/>
<polygon fill="midnightblue" stroke="midnightblue" points="121,-163.89 117.5,-153.89 114,-163.89 121,-163.89"/>
</g>
<!-- Node3 -->
<g id="node3" class="node">
<title>Node3</title>
<g id="a_node3"><a xlink:href="fault_2detail_2mutex_8hpp.html" target="_top" xlink:title=" ">
<polygon fill="none" stroke="black" points="0,-56.5 0,-86.5 89,-86.5 89,-56.5 0,-56.5"/>
<text text-anchor="start" x="8" y="-74.5" font-family="Helvetica,sans-Serif" font-size="10.00">yaclib/fault/detail</text>
<text text-anchor="middle" x="44.5" y="-63.5" font-family="Helvetica,sans-Serif" font-size="10.00">/mutex.hpp</text>
</a>
</g>
</g>
<!-- Node2&#45;&gt;Node3 -->
<g id="edge2" class="edge">
<title>Node2&#45;&gt;Node3</title>
<path fill="none" stroke="midnightblue" d="M101.66,-123.4C91.81,-114.62 78.96,-103.18 67.94,-93.37"/>
<polygon fill="midnightblue" stroke="midnightblue" points="70.1,-90.61 60.31,-86.58 65.45,-95.84 70.1,-90.61"/>
</g>
<!-- Node4 -->
<g id="node4" class="node">
<title>Node4</title>
<g id="a_node4"><a xlink:href="inject_8hpp.html" target="_top" xlink:title=" ">
<polygon fill="none" stroke="black" points="27,-0.5 27,-19.5 134,-19.5 134,-0.5 27,-0.5"/>
<text text-anchor="middle" x="80.5" y="-7.5" font-family="Helvetica,sans-Serif" font-size="10.00">yaclib/fault/inject.hpp</text>
</a>
</g>
</g>
<!-- Node2&#45;&gt;Node4 -->
<g id="edge4" class="edge">
<title>Node2&#45;&gt;Node4</title>
<path fill="none" stroke="midnightblue" d="M114.54,-123.22C111.03,-106.84 104.71,-79.24 97.5,-56 94.68,-46.91 91,-37.01 87.79,-28.8"/>
<polygon fill="midnightblue" stroke="midnightblue" points="91.04,-27.5 84.07,-19.52 84.54,-30.1 91.04,-27.5"/>
</g>
<!-- Node5 -->
<g id="node5" class="node">
<title>Node5</title>
<g id="a_node5"><a xlink:title=" ">
<polygon fill="none" stroke="#bfbfbf" points="145.5,-62 145.5,-81 237.5,-81 237.5,-62 145.5,-62"/>
<text text-anchor="middle" x="191.5" y="-69" font-family="Helvetica,sans-Serif" font-size="10.00">yaclib_std/chrono</text>
</a>
</g>
</g>
<!-- Node2&#45;&gt;Node5 -->
<g id="edge5" class="edge">
<title>Node2&#45;&gt;Node5</title>
<path fill="none" stroke="midnightblue" d="M133.56,-123.4C145.44,-112.96 161.61,-98.75 173.86,-88"/>
<polygon fill="midnightblue" stroke="midnightblue" points="176.4,-90.42 181.6,-81.19 171.78,-85.16 176.4,-90.42"/>
</g>
<!-- Node3&#45;&gt;Node4 -->
<g id="edge3" class="edge">
<title>Node3&#45;&gt;Node4</title>
<path fill="none" stroke="midnightblue" d="M53.03,-56.4C58.1,-48.02 64.57,-37.33 69.96,-28.42"/>
<polygon fill="midnightblue" stroke="midnightblue" points="73.08,-30.03 75.26,-19.66 67.09,-26.4 73.08,-30.03"/>
</g>
</g>
</svg>
