<?xml version="1.0" encoding="UTF-8" standalone="no"?>
<!DOCTYPE svg PUBLIC "-//W3C//DTD SVG 1.1//EN"
 "http://www.w3.org/Graphics/SVG/1.1/DTD/svg11.dtd">
<!-- Generated by graphviz version 3.0.0 (20220413.0106)
 -->
<!-- Title: include/yaclib/fault/detail/shared_timed_mutex.hpp Pages: 1 -->
<svg width="284pt" height="240pt"
 viewBox="0.00 0.00 283.50 240.00" xmlns="http://www.w3.org/2000/svg" xmlns:xlink="http://www.w3.org/1999/xlink">
<g id="graph0" class="graph" transform="scale(1 1) rotate(0) translate(4 236)">
<title>include/yaclib/fault/detail/shared_timed_mutex.hpp</title>
<!-- Node1 -->
<g id="node1" class="node">
<title>Node1</title>
<g id="a_node1"><a xlink:title=" ">
<polygon fill="#bfbfbf" stroke="black" points="103.5,-190.5 103.5,-231.5 207.5,-231.5 207.5,-190.5 103.5,-190.5"/>
<text text-anchor="start" x="111.5" y="-219.5" font-family="Helvetica,sans-Serif" font-size="10.00">include/yaclib/fault</text>
<text text-anchor="start" x="111.5" y="-208.5" font-family="Helvetica,sans-Serif" font-size="10.00">/detail/shared_timed</text>
<text text-anchor="middle" x="155.5" y="-197.5" font-family="Helvetica,sans-Serif" font-size="10.00">_mutex.hpp</text>
</a>
</g>
</g>
<!-- Node2 -->
<g id="node2" class="node">
<title>Node2</title>
<g id="a_node2"><a xlink:href="fault_2detail_2shared__mutex_8hpp.html" target="_top" xlink:title=" ">
<polygon fill="none" stroke="black" points="29.5,-123.5 29.5,-153.5 127.5,-153.5 127.5,-123.5 29.5,-123.5"/>
<text text-anchor="start" x="37.5" y="-141.5" font-family="Helvetica,sans-Serif" font-size="10.00">yaclib/fault/detail</text>
<text text-anchor="middle" x="78.5" y="-130.5" font-family="Helvetica,sans-Serif" font-size="10.00">/shared_mutex.hpp</text>
</a>
</g>
</g>
<!-- Node1&#45;&gt;Node2 -->
<g id="edge1" class="edge">
<title>Node1&#45;&gt;Node2</title>
<path fill="none" stroke="midnightblue" d="M134.05,-190.36C123.98,-181.14 111.96,-170.13 101.68,-160.72"/>
<polygon fill="midnightblue" stroke="midnightblue" points="103.96,-158.06 94.22,-153.89 99.23,-163.23 103.96,-158.06"/>
</g>
<!-- Node4 -->
<g id="node4" class="node">
<title>Node4</title>
<g id="a_node4"><a xlink:href="inject_8hpp.html" target="_top" xlink:title=" ">
<polygon fill="none" stroke="black" points="64,-0.5 64,-19.5 171,-19.5 171,-0.5 64,-0.5"/>
<text text-anchor="middle" x="117.5" y="-7.5" font-family="Helvetica,sans-Serif" font-size="10.00">yaclib/fault/inject.hpp</text>
</a>
</g>
</g>
<!-- Node1&#45;&gt;Node4 -->
<g id="edge5" class="edge">
<title>Node1&#45;&gt;Node4</title>
<path fill="none" stroke="midnightblue" d="M151.72,-190.19C144.37,-151.7 128.25,-67.3 121.07,-29.71"/>
<polygon fill="midnightblue" stroke="midnightblue" points="124.46,-28.81 119.15,-19.65 117.59,-30.13 124.46,-28.81"/>
</g>
<!-- Node5 -->
<g id="node5" class="node">
<title>Node5</title>
<g id="a_node5"><a xlink:title=" ">
<polygon fill="none" stroke="#bfbfbf" points="183.5,-129 183.5,-148 275.5,-148 275.5,-129 183.5,-129"/>
<text text-anchor="middle" x="229.5" y="-136" font-family="Helvetica,sans-Serif" font-size="10.00">yaclib_std/chrono</text>
</a>
</g>
</g>
<!-- Node1&#45;&gt;Node5 -->
<g id="edge6" class="edge">
<title>Node1&#45;&gt;Node5</title>
<path fill="none" stroke="midnightblue" d="M176.11,-190.36C187.7,-179.32 201.97,-165.72 212.85,-155.37"/>
<polygon fill="midnightblue" stroke="midnightblue" points="215.57,-157.61 220.4,-148.17 210.74,-152.54 215.57,-157.61"/>
</g>
<!-- Node3 -->
<g id="node3" class="node">
<title>Node3</title>
<g id="a_node3"><a xlink:href="fault_2detail_2mutex_8hpp.html" target="_top" xlink:title=" ">
<polygon fill="none" stroke="black" points="0,-56.5 0,-86.5 89,-86.5 89,-56.5 0,-56.5"/>
<text text-anchor="start" x="8" y="-74.5" font-family="Helvetica,sans-Serif" font-size="10.00">yaclib/fault/detail</text>
<text text-anchor="middle" x="44.5" y="-63.5" font-family="Helvetica,sans-Serif" font-size="10.00">/mutex.hpp</text>
</a>
</g>
</g>
<!-- Node2&#45;&gt;Node3 -->
<g id="edge2" class="edge">
<title>Node2&#45;&gt;Node3</title>
<path fill="none" stroke="midnightblue" d="M71.12,-123.4C66.89,-115.3 61.47,-104.94 56.63,-95.69"/>
<polygon fill="midnightblue" stroke="midnightblue" points="59.6,-93.82 51.86,-86.58 53.4,-97.06 59.6,-93.82"/>
</g>
<!-- Node2&#45;&gt;Node4 -->
<g id="edge4" class="edge">
<title>Node2&#45;&gt;Node4</title>
<path fill="none" stroke="midnightblue" d="M84.21,-123.49C88.21,-113.43 93.52,-99.49 97.5,-87 103.7,-67.54 109.49,-44.86 113.23,-29.37"/>
<polygon fill="midnightblue" stroke="midnightblue" points="116.66,-30.05 115.56,-19.52 109.85,-28.44 116.66,-30.05"/>
</g>
<!-- Node3&#45;&gt;Node4 -->
<g id="edge3" class="edge">
<title>Node3&#45;&gt;Node4</title>
<path fill="none" stroke="midnightblue" d="M61.8,-56.4C72.95,-47.31 87.45,-35.49 98.86,-26.19"/>
<polygon fill="midnightblue" stroke="midnightblue" points="101.34,-28.69 106.88,-19.66 96.92,-23.26 101.34,-28.69"/>
</g>
</g>
</svg>
