<?xml version="1.0" encoding="UTF-8" standalone="no"?>
<!DOCTYPE svg PUBLIC "-//W3C//DTD SVG 1.1//EN"
 "http://www.w3.org/Graphics/SVG/1.1/DTD/svg11.dtd">
<!-- Generated by graphviz version 3.0.0 (20220413.0106)
 -->
<!-- Title: include/yaclib/fault/detail/recursive_mutex.hpp Pages: 1 -->
<svg width="143pt" height="162pt"
 viewBox="0.00 0.00 143.00 162.00" xmlns="http://www.w3.org/2000/svg" xmlns:xlink="http://www.w3.org/1999/xlink">
<g id="graph0" class="graph" transform="scale(1 1) rotate(0) translate(4 158)">
<title>include/yaclib/fault/detail/recursive_mutex.hpp</title>
<!-- Node1 -->
<g id="node1" class="node">
<title>Node1</title>
<g id="a_node1"><a xlink:title=" ">
<polygon fill="#bfbfbf" stroke="black" points="0,-123.5 0,-153.5 135,-153.5 135,-123.5 0,-123.5"/>
<text text-anchor="start" x="8" y="-141.5" font-family="Helvetica,sans-Serif" font-size="10.00">include/yaclib/fault</text>
<text text-anchor="middle" x="67.5" y="-130.5" font-family="Helvetica,sans-Serif" font-size="10.00">/detail/recursive_mutex.hpp</text>
</a>
</g>
</g>
<!-- Node2 -->
<g id="node2" class="node">
<title>Node2</title>
<g id="a_node2"><a xlink:href="fault_2detail_2mutex_8hpp.html" target="_top" xlink:title=" ">
<polygon fill="none" stroke="black" points="23,-56.5 23,-86.5 112,-86.5 112,-56.5 23,-56.5"/>
<text text-anchor="start" x="31" y="-74.5" font-family="Helvetica,sans-Serif" font-size="10.00">yaclib/fault/detail</text>
<text text-anchor="middle" x="67.5" y="-63.5" font-family="Helvetica,sans-Serif" font-size="10.00">/mutex.hpp</text>
</a>
</g>
</g>
<!-- Node1&#45;&gt;Node2 -->
<g id="edge1" class="edge">
<title>Node1&#45;&gt;Node2</title>
<path fill="none" stroke="midnightblue" d="M67.5,-123.4C67.5,-115.64 67.5,-105.81 67.5,-96.86"/>
<polygon fill="midnightblue" stroke="midnightblue" points="71,-96.58 67.5,-86.58 64,-96.58 71,-96.58"/>
</g>
<!-- Node3 -->
<g id="node3" class="node">
<title>Node3</title>
<g id="a_node3"><a xlink:href="inject_8hpp.html" target="_top" xlink:title=" ">
<polygon fill="none" stroke="black" points="14,-0.5 14,-19.5 121,-19.5 121,-0.5 14,-0.5"/>
<text text-anchor="middle" x="67.5" y="-7.5" font-family="Helvetica,sans-Serif" font-size="10.00">yaclib/fault/inject.hpp</text>
</a>
</g>
</g>
<!-- Node2&#45;&gt;Node3 -->
<g id="edge2" class="edge">
<title>Node2&#45;&gt;Node3</title>
<path fill="none" stroke="midnightblue" d="M67.5,-56.4C67.5,-48.47 67.5,-38.46 67.5,-29.86"/>
<polygon fill="midnightblue" stroke="midnightblue" points="71,-29.66 67.5,-19.66 64,-29.66 71,-29.66"/>
</g>
</g>
</svg>
