<?xml version="1.0" encoding="UTF-8" standalone="no"?>
<!DOCTYPE svg PUBLIC "-//W3C//DTD SVG 1.1//EN"
 "http://www.w3.org/Graphics/SVG/1.1/DTD/svg11.dtd">
<!-- Generated by graphviz version 3.0.0 (20220413.0106)
 -->
<!-- Title: include/yaclib/fault/detail/atomic_flag.hpp Pages: 1 -->
<svg width="236pt" height="162pt"
 viewBox="0.00 0.00 235.50 162.00" xmlns="http://www.w3.org/2000/svg" xmlns:xlink="http://www.w3.org/1999/xlink">
<g id="graph0" class="graph" transform="scale(1 1) rotate(0) translate(4 158)">
<title>include/yaclib/fault/detail/atomic_flag.hpp</title>
<!-- Node1 -->
<g id="node1" class="node">
<title>Node1</title>
<g id="a_node1"><a xlink:title=" ">
<polygon fill="#bfbfbf" stroke="black" points="52.5,-123.5 52.5,-153.5 165.5,-153.5 165.5,-123.5 52.5,-123.5"/>
<text text-anchor="start" x="60.5" y="-141.5" font-family="Helvetica,sans-Serif" font-size="10.00">include/yaclib/fault</text>
<text text-anchor="middle" x="109" y="-130.5" font-family="Helvetica,sans-Serif" font-size="10.00">/detail/atomic_flag.hpp</text>
</a>
</g>
</g>
<!-- Node2 -->
<g id="node2" class="node">
<title>Node2</title>
<g id="a_node2"><a xlink:title=" ">
<polygon fill="none" stroke="#bfbfbf" points="0,-0.5 0,-19.5 88,-19.5 88,-0.5 0,-0.5"/>
<text text-anchor="middle" x="44" y="-7.5" font-family="Helvetica,sans-Serif" font-size="10.00">yaclib/config.hpp</text>
</a>
</g>
</g>
<!-- Node1&#45;&gt;Node2 -->
<g id="edge1" class="edge">
<title>Node1&#45;&gt;Node2</title>
<path fill="none" stroke="midnightblue" d="M87.98,-123.38C76.32,-114.39 62.67,-101.68 55,-87 45.66,-69.12 43.52,-45.83 43.33,-29.77"/>
<polygon fill="midnightblue" stroke="midnightblue" points="46.83,-29.58 43.46,-19.54 39.83,-29.49 46.83,-29.58"/>
</g>
<!-- Node3 -->
<g id="node3" class="node">
<title>Node3</title>
<g id="a_node3"><a xlink:href="atomic__wait_8hpp.html" target="_top" xlink:title=" ">
<polygon fill="none" stroke="black" points="64,-56.5 64,-86.5 154,-86.5 154,-56.5 64,-56.5"/>
<text text-anchor="start" x="72" y="-74.5" font-family="Helvetica,sans-Serif" font-size="10.00">yaclib/fault/detail</text>
<text text-anchor="middle" x="109" y="-63.5" font-family="Helvetica,sans-Serif" font-size="10.00">/atomic_wait.hpp</text>
</a>
</g>
</g>
<!-- Node1&#45;&gt;Node3 -->
<g id="edge2" class="edge">
<title>Node1&#45;&gt;Node3</title>
<path fill="none" stroke="midnightblue" d="M109,-123.4C109,-115.64 109,-105.81 109,-96.86"/>
<polygon fill="midnightblue" stroke="midnightblue" points="112.5,-96.58 109,-86.58 105.5,-96.58 112.5,-96.58"/>
</g>
<!-- Node4 -->
<g id="node4" class="node">
<title>Node4</title>
<g id="a_node4"><a xlink:href="inject_8hpp.html" target="_top" xlink:title=" ">
<polygon fill="none" stroke="black" points="120.5,-0.5 120.5,-19.5 227.5,-19.5 227.5,-0.5 120.5,-0.5"/>
<text text-anchor="middle" x="174" y="-7.5" font-family="Helvetica,sans-Serif" font-size="10.00">yaclib/fault/inject.hpp</text>
</a>
</g>
</g>
<!-- Node1&#45;&gt;Node4 -->
<g id="edge5" class="edge">
<title>Node1&#45;&gt;Node4</title>
<path fill="none" stroke="midnightblue" d="M130.02,-123.38C141.68,-114.39 155.33,-101.68 163,-87 172.34,-69.12 174.48,-45.83 174.67,-29.77"/>
<polygon fill="midnightblue" stroke="midnightblue" points="178.17,-29.49 174.54,-19.54 171.17,-29.58 178.17,-29.49"/>
</g>
<!-- Node3&#45;&gt;Node2 -->
<g id="edge3" class="edge">
<title>Node3&#45;&gt;Node2</title>
<path fill="none" stroke="midnightblue" d="M93.6,-56.4C83.76,-47.4 71.01,-35.72 60.89,-26.47"/>
<polygon fill="midnightblue" stroke="midnightblue" points="63.2,-23.83 53.46,-19.66 58.47,-28.99 63.2,-23.83"/>
</g>
<!-- Node3&#45;&gt;Node4 -->
<g id="edge4" class="edge">
<title>Node3&#45;&gt;Node4</title>
<path fill="none" stroke="midnightblue" d="M124.4,-56.4C134.24,-47.4 146.99,-35.72 157.11,-26.47"/>
<polygon fill="midnightblue" stroke="midnightblue" points="159.53,-28.99 164.54,-19.66 154.8,-23.83 159.53,-28.99"/>
</g>
</g>
</svg>
