<?xml version="1.0" encoding="UTF-8" standalone="no"?>
<!DOCTYPE svg PUBLIC "-//W3C//DTD SVG 1.1//EN"
 "http://www.w3.org/Graphics/SVG/1.1/DTD/svg11.dtd">
<!-- Generated by graphviz version 3.0.0 (20220413.0106)
 -->
<!-- Title: include/yaclib/async/detail/future_impl.hpp Pages: 1 -->
<svg width="1287pt" height="609pt"
 viewBox="0.00 0.00 1286.66 609.00" xmlns="http://www.w3.org/2000/svg" xmlns:xlink="http://www.w3.org/1999/xlink">
<g id="graph0" class="graph" transform="scale(1 1) rotate(0) translate(4 605)">
<title>include/yaclib/async/detail/future_impl.hpp</title>
<!-- Node1 -->
<g id="node1" class="node">
<title>Node1</title>
<g id="a_node1"><a xlink:title=" ">
<polygon fill="#bfbfbf" stroke="black" points="853,-570.5 853,-600.5 965,-600.5 965,-570.5 853,-570.5"/>
<text text-anchor="start" x="861" y="-588.5" font-family="Helvetica,sans-Serif" font-size="10.00">include/yaclib/async</text>
<text text-anchor="middle" x="909" y="-577.5" font-family="Helvetica,sans-Serif" font-size="10.00">/detail/future_impl.hpp</text>
</a>
</g>
</g>
<!-- Node2 -->
<g id="node2" class="node">
<title>Node2</title>
<g id="a_node2"><a xlink:href="wait_8hpp.html" target="_top" xlink:title=" ">
<polygon fill="none" stroke="black" points="185.5,-514.5 185.5,-533.5 286.5,-533.5 286.5,-514.5 185.5,-514.5"/>
<text text-anchor="middle" x="236" y="-521.5" font-family="Helvetica,sans-Serif" font-size="10.00">yaclib/algo/wait.hpp</text>
</a>
</g>
</g>
<!-- Node1&#45;&gt;Node2 -->
<g id="edge1" class="edge">
<title>Node1&#45;&gt;Node2</title>
<path fill="none" stroke="midnightblue" d="M852.78,-579.53C727.44,-568.45 425.98,-541.8 296.63,-530.36"/>
<polygon fill="midnightblue" stroke="midnightblue" points="296.77,-526.86 286.5,-529.47 296.16,-533.83 296.77,-526.86"/>
</g>
<!-- Node15 -->
<g id="node15" class="node">
<title>Node15</title>
<g id="a_node15"><a xlink:href="log_8hpp.html" target="_top" xlink:title=" ">
<polygon fill="none" stroke="black" points="1149.5,-56.5 1149.5,-75.5 1224.5,-75.5 1224.5,-56.5 1149.5,-56.5"/>
<text text-anchor="middle" x="1187" y="-63.5" font-family="Helvetica,sans-Serif" font-size="10.00">yaclib/log.hpp</text>
</a>
</g>
</g>
<!-- Node1&#45;&gt;Node15 -->
<g id="edge67" class="edge">
<title>Node1&#45;&gt;Node15</title>
<path fill="none" stroke="midnightblue" d="M965.04,-577.94C1068.27,-564.29 1278,-528.56 1278,-463.5 1278,-463.5 1278,-463.5 1278,-193.5 1278,-156.31 1280.63,-142.26 1259,-112 1248.94,-97.93 1232.99,-87.31 1218.65,-79.93"/>
<polygon fill="midnightblue" stroke="midnightblue" points="1220.06,-76.72 1209.54,-75.54 1217.03,-83.03 1220.06,-76.72"/>
</g>
<!-- Node34 -->
<g id="node34" class="node">
<title>Node34</title>
<g id="a_node34"><a xlink:href="result_8hpp.html" target="_top" xlink:title=" ">
<polygon fill="none" stroke="black" points="1061,-319 1061,-338 1163,-338 1163,-319 1061,-319"/>
<text text-anchor="middle" x="1112" y="-326" font-family="Helvetica,sans-Serif" font-size="10.00">yaclib/util/result.hpp</text>
</a>
</g>
</g>
<!-- Node1&#45;&gt;Node34 -->
<g id="edge68" class="edge">
<title>Node1&#45;&gt;Node34</title>
<path fill="none" stroke="midnightblue" d="M920.2,-570.43C955.03,-526.68 1061.3,-393.18 1098.76,-346.13"/>
<polygon fill="midnightblue" stroke="midnightblue" points="1101.62,-348.16 1105.11,-338.16 1096.14,-343.8 1101.62,-348.16"/>
</g>
<!-- Node37 -->
<g id="node37" class="node">
<title>Node37</title>
<g id="a_node37"><a xlink:href="core_8hpp.html" target="_top" xlink:title=" ">
<polygon fill="none" stroke="black" points="737,-447.5 737,-477.5 833,-477.5 833,-447.5 737,-447.5"/>
<text text-anchor="start" x="745" y="-465.5" font-family="Helvetica,sans-Serif" font-size="10.00">yaclib/async/detail</text>
<text text-anchor="middle" x="785" y="-454.5" font-family="Helvetica,sans-Serif" font-size="10.00">/core.hpp</text>
</a>
</g>
</g>
<!-- Node1&#45;&gt;Node37 -->
<g id="edge64" class="edge">
<title>Node1&#45;&gt;Node37</title>
<path fill="none" stroke="midnightblue" d="M894.29,-570.14C872.66,-549.04 832.13,-509.49 806.97,-484.94"/>
<polygon fill="midnightblue" stroke="midnightblue" points="809.29,-482.32 799.69,-477.84 804.4,-487.33 809.29,-482.32"/>
</g>
<!-- Node3 -->
<g id="node3" class="node">
<title>Node3</title>
<g id="a_node3"><a xlink:href="wait__impl_8hpp.html" target="_top" xlink:title=" ">
<polygon fill="none" stroke="black" points="352.5,-380.5 352.5,-410.5 441.5,-410.5 441.5,-380.5 352.5,-380.5"/>
<text text-anchor="start" x="360.5" y="-398.5" font-family="Helvetica,sans-Serif" font-size="10.00">yaclib/algo/detail</text>
<text text-anchor="middle" x="397" y="-387.5" font-family="Helvetica,sans-Serif" font-size="10.00">/wait_impl.hpp</text>
</a>
</g>
</g>
<!-- Node2&#45;&gt;Node3 -->
<g id="edge2" class="edge">
<title>Node2&#45;&gt;Node3</title>
<path fill="none" stroke="midnightblue" d="M247.07,-514.31C272.39,-494.41 335.12,-445.12 370.9,-417.01"/>
<polygon fill="midnightblue" stroke="midnightblue" points="373.25,-419.61 378.95,-410.68 368.92,-414.11 373.25,-419.61"/>
</g>
<!-- Node19 -->
<g id="node19" class="node">
<title>Node19</title>
<g id="a_node19"><a xlink:title=" ">
<polygon fill="none" stroke="#bfbfbf" points="12,-252 12,-271 100,-271 100,-252 12,-252"/>
<text text-anchor="middle" x="56" y="-259" font-family="Helvetica,sans-Serif" font-size="10.00">yaclib/config.hpp</text>
</a>
</g>
</g>
<!-- Node2&#45;&gt;Node19 -->
<g id="edge61" class="edge">
<title>Node2&#45;&gt;Node19</title>
<path fill="none" stroke="midnightblue" d="M210.9,-514.44C191.45,-506.95 164.61,-494.66 145,-478 89.16,-430.57 71.41,-413.75 49,-344 42.3,-323.15 46.21,-297.84 50.38,-281.02"/>
<polygon fill="midnightblue" stroke="midnightblue" points="53.77,-281.89 53.05,-271.32 47.03,-280.03 53.77,-281.89"/>
</g>
<!-- Node20 -->
<g id="node20" class="node">
<title>Node20</title>
<g id="a_node20"><a xlink:title=" ">
<polygon fill="none" stroke="#bfbfbf" points="228.5,-252 228.5,-271 277.5,-271 277.5,-252 228.5,-252"/>
<text text-anchor="middle" x="253" y="-259" font-family="Helvetica,sans-Serif" font-size="10.00">cstddef</text>
</a>
</g>
</g>
<!-- Node2&#45;&gt;Node20 -->
<g id="edge63" class="edge">
<title>Node2&#45;&gt;Node20</title>
<path fill="none" stroke="midnightblue" d="M234.19,-514.45C228.41,-485.63 211.74,-389.51 229,-313 231.63,-301.33 237.29,-289.2 242.45,-279.75"/>
<polygon fill="midnightblue" stroke="midnightblue" points="245.53,-281.42 247.5,-271.01 239.47,-277.92 245.53,-281.42"/>
</g>
<!-- Node21 -->
<g id="node21" class="node">
<title>Node21</title>
<g id="a_node21"><a xlink:href="default__event_8hpp.html" target="_top" xlink:title=" ">
<polygon fill="none" stroke="black" points="58,-313.5 58,-343.5 154,-343.5 154,-313.5 58,-313.5"/>
<text text-anchor="start" x="66" y="-331.5" font-family="Helvetica,sans-Serif" font-size="10.00">yaclib/util/detail</text>
<text text-anchor="middle" x="106" y="-320.5" font-family="Helvetica,sans-Serif" font-size="10.00">/default_event.hpp</text>
</a>
</g>
</g>
<!-- Node2&#45;&gt;Node21 -->
<g id="edge62" class="edge">
<title>Node2&#45;&gt;Node21</title>
<path fill="none" stroke="midnightblue" d="M217.03,-514.35C201.99,-506.66 181.35,-494.15 168,-478 136.95,-440.44 119.43,-385.12 111.41,-353.68"/>
<polygon fill="midnightblue" stroke="midnightblue" points="114.73,-352.52 108.97,-343.62 107.93,-354.17 114.73,-352.52"/>
</g>
<!-- Node32 -->
<g id="node32" class="node">
<title>Node32</title>
<g id="a_node32"><a xlink:href="future_8hpp.html" target="_top" xlink:title=" ">
<polygon fill="none" stroke="black" points="851,-453 851,-472 967,-472 967,-453 851,-453"/>
<text text-anchor="middle" x="909" y="-460" font-family="Helvetica,sans-Serif" font-size="10.00">yaclib/async/future.hpp</text>
</a>
</g>
</g>
<!-- Node2&#45;&gt;Node32 -->
<g id="edge45" class="edge">
<title>Node2&#45;&gt;Node32</title>
<path fill="none" stroke="midnightblue" d="M286.54,-521.62C390.85,-518.25 637.35,-507.6 842,-478 849.21,-476.96 856.8,-475.59 864.17,-474.1"/>
<polygon fill="midnightblue" stroke="midnightblue" points="864.98,-477.51 874.05,-472.03 863.54,-470.66 864.98,-477.51"/>
</g>
<!-- Node4 -->
<g id="node4" class="node">
<title>Node4</title>
<g id="a_node4"><a xlink:href="base__core_8hpp.html" target="_top" xlink:title=" ">
<polygon fill="none" stroke="black" points="637,-313.5 637,-343.5 733,-343.5 733,-313.5 637,-313.5"/>
<text text-anchor="start" x="645" y="-331.5" font-family="Helvetica,sans-Serif" font-size="10.00">yaclib/async/detail</text>
<text text-anchor="middle" x="685" y="-320.5" font-family="Helvetica,sans-Serif" font-size="10.00">/base_core.hpp</text>
</a>
</g>
</g>
<!-- Node3&#45;&gt;Node4 -->
<g id="edge3" class="edge">
<title>Node3&#45;&gt;Node4</title>
<path fill="none" stroke="midnightblue" d="M441.68,-384.42C491.51,-373.17 572.27,-354.94 626.95,-342.6"/>
<polygon fill="midnightblue" stroke="midnightblue" points="627.86,-345.98 636.85,-340.37 626.32,-339.16 627.86,-345.98"/>
</g>
<!-- Node10 -->
<g id="node10" class="node">
<title>Node10</title>
<g id="a_node10"><a xlink:title=" ">
<polygon fill="none" stroke="#bfbfbf" points="897,-56.5 897,-75.5 959,-75.5 959,-56.5 897,-56.5"/>
<text text-anchor="middle" x="928" y="-63.5" font-family="Helvetica,sans-Serif" font-size="10.00">type_traits</text>
</a>
</g>
</g>
<!-- Node3&#45;&gt;Node10 -->
<g id="edge44" class="edge">
<title>Node3&#45;&gt;Node10</title>
<path fill="none" stroke="midnightblue" d="M441.59,-387.28C474.41,-380.31 518.9,-367.29 552,-344 597.08,-312.29 590.96,-286.81 628,-246 642.58,-229.94 751.14,-122.72 770,-112 806.58,-91.2 853.47,-79.43 886.64,-73.19"/>
<polygon fill="midnightblue" stroke="midnightblue" points="887.67,-76.56 896.9,-71.35 886.44,-69.67 887.67,-76.56"/>
</g>
<!-- Node18 -->
<g id="node18" class="node">
<title>Node18</title>
<g id="a_node18"><a xlink:href="atomic__counter_8hpp.html" target="_top" xlink:title=" ">
<polygon fill="none" stroke="black" points="439,-313.5 439,-343.5 543,-343.5 543,-313.5 439,-313.5"/>
<text text-anchor="start" x="447" y="-331.5" font-family="Helvetica,sans-Serif" font-size="10.00">yaclib/util/detail</text>
<text text-anchor="middle" x="491" y="-320.5" font-family="Helvetica,sans-Serif" font-size="10.00">/atomic_counter.hpp</text>
</a>
</g>
</g>
<!-- Node3&#45;&gt;Node18 -->
<g id="edge22" class="edge">
<title>Node3&#45;&gt;Node18</title>
<path fill="none" stroke="midnightblue" d="M417.4,-380.4C430.45,-371.37 447.6,-359.51 462.05,-349.52"/>
<polygon fill="midnightblue" stroke="midnightblue" points="464.41,-352.14 470.64,-343.58 460.43,-346.39 464.41,-352.14"/>
</g>
<!-- Node3&#45;&gt;Node20 -->
<g id="edge42" class="edge">
<title>Node3&#45;&gt;Node20</title>
<path fill="none" stroke="midnightblue" d="M352.37,-393.74C315.34,-390.45 264.73,-379.23 239,-344 225.35,-325.3 234.45,-297.83 243.06,-280.05"/>
<polygon fill="midnightblue" stroke="midnightblue" points="246.22,-281.54 247.76,-271.06 240.02,-278.29 246.22,-281.54"/>
</g>
<!-- Node3&#45;&gt;Node21 -->
<g id="edge27" class="edge">
<title>Node3&#45;&gt;Node21</title>
<path fill="none" stroke="midnightblue" d="M352.49,-384.56C302.13,-373.31 219.91,-354.94 164.43,-342.55"/>
<polygon fill="midnightblue" stroke="midnightblue" points="164.91,-339.07 154.39,-340.31 163.39,-345.9 164.91,-339.07"/>
</g>
<!-- Node26 -->
<g id="node26" class="node">
<title>Node26</title>
<g id="a_node26"><a xlink:href="set__one__deleter_8hpp.html" target="_top" xlink:title=" ">
<polygon fill="none" stroke="black" points="248.5,-313.5 248.5,-343.5 355.5,-343.5 355.5,-313.5 248.5,-313.5"/>
<text text-anchor="start" x="256.5" y="-331.5" font-family="Helvetica,sans-Serif" font-size="10.00">yaclib/util/detail</text>
<text text-anchor="middle" x="302" y="-320.5" font-family="Helvetica,sans-Serif" font-size="10.00">/set_one_deleter.hpp</text>
</a>
</g>
</g>
<!-- Node3&#45;&gt;Node26 -->
<g id="edge34" class="edge">
<title>Node3&#45;&gt;Node26</title>
<path fill="none" stroke="midnightblue" d="M376.39,-380.4C363.07,-371.28 345.54,-359.29 330.84,-349.24"/>
<polygon fill="midnightblue" stroke="midnightblue" points="332.8,-346.33 322.57,-343.58 328.85,-352.11 332.8,-346.33"/>
</g>
<!-- Node27 -->
<g id="node27" class="node">
<title>Node27</title>
<g id="a_node27"><a xlink:href="type__traits_8hpp.html" target="_top" xlink:title=" ">
<polygon fill="none" stroke="black" points="1023.5,-252 1023.5,-271 1146.5,-271 1146.5,-252 1023.5,-252"/>
<text text-anchor="middle" x="1085" y="-259" font-family="Helvetica,sans-Serif" font-size="10.00">yaclib/util/type_traits.hpp</text>
</a>
</g>
</g>
<!-- Node3&#45;&gt;Node27 -->
<g id="edge35" class="edge">
<title>Node3&#45;&gt;Node27</title>
<path fill="none" stroke="midnightblue" d="M441.6,-389.25C507.54,-381.19 634.84,-364.53 742,-344 851.56,-323.01 978.96,-290.6 1043.28,-273.67"/>
<polygon fill="midnightblue" stroke="midnightblue" points="1044.27,-277.03 1053.05,-271.09 1042.48,-270.26 1044.27,-277.03"/>
</g>
<!-- Node31 -->
<g id="node31" class="node">
<title>Node31</title>
<g id="a_node31"><a xlink:title=" ">
<polygon fill="none" stroke="#bfbfbf" points="373.5,-319 373.5,-338 420.5,-338 420.5,-319 373.5,-319"/>
<text text-anchor="middle" x="397" y="-326" font-family="Helvetica,sans-Serif" font-size="10.00">iterator</text>
</a>
</g>
</g>
<!-- Node3&#45;&gt;Node31 -->
<g id="edge43" class="edge">
<title>Node3&#45;&gt;Node31</title>
<path fill="none" stroke="midnightblue" d="M397,-380.4C397,-371.06 397,-358.71 397,-348.52"/>
<polygon fill="midnightblue" stroke="midnightblue" points="400.5,-348.19 397,-338.19 393.5,-348.19 400.5,-348.19"/>
</g>
<!-- Node5 -->
<g id="node5" class="node">
<title>Node5</title>
<g id="a_node5"><a xlink:href="inline__core_8hpp.html" target="_top" xlink:title=" ">
<polygon fill="none" stroke="black" points="637,-246.5 637,-276.5 733,-276.5 733,-246.5 637,-246.5"/>
<text text-anchor="start" x="645" y="-264.5" font-family="Helvetica,sans-Serif" font-size="10.00">yaclib/async/detail</text>
<text text-anchor="middle" x="685" y="-253.5" font-family="Helvetica,sans-Serif" font-size="10.00">/inline_core.hpp</text>
</a>
</g>
</g>
<!-- Node4&#45;&gt;Node5 -->
<g id="edge4" class="edge">
<title>Node4&#45;&gt;Node5</title>
<path fill="none" stroke="midnightblue" d="M685,-313.4C685,-305.64 685,-295.81 685,-286.86"/>
<polygon fill="midnightblue" stroke="midnightblue" points="688.5,-286.58 685,-276.58 681.5,-286.58 688.5,-286.58"/>
</g>
<!-- Node9 -->
<g id="node9" class="node">
<title>Node9</title>
<g id="a_node9"><a xlink:href="ref_8hpp.html" target="_top" xlink:title=" ">
<polygon fill="none" stroke="black" points="589.5,-56.5 589.5,-75.5 678.5,-75.5 678.5,-56.5 589.5,-56.5"/>
<text text-anchor="middle" x="634" y="-63.5" font-family="Helvetica,sans-Serif" font-size="10.00">yaclib/util/ref.hpp</text>
</a>
</g>
</g>
<!-- Node4&#45;&gt;Node9 -->
<g id="edge20" class="edge">
<title>Node4&#45;&gt;Node9</title>
<path fill="none" stroke="midnightblue" d="M661.93,-313.37C649.65,-304.53 635.57,-291.99 628,-277 594.86,-211.36 602.1,-184.2 616,-112 617.79,-102.7 621.48,-92.89 625.06,-84.8"/>
<polygon fill="midnightblue" stroke="midnightblue" points="628.27,-86.2 629.38,-75.66 621.94,-83.21 628.27,-86.2"/>
</g>
<!-- Node12 -->
<g id="node12" class="node">
<title>Node12</title>
<g id="a_node12"><a xlink:href="executor_8hpp.html" target="_top" xlink:title=" ">
<polygon fill="none" stroke="black" points="751.5,-252 751.5,-271 890.5,-271 890.5,-252 751.5,-252"/>
<text text-anchor="middle" x="821" y="-259" font-family="Helvetica,sans-Serif" font-size="10.00">yaclib/executor/executor.hpp</text>
</a>
</g>
</g>
<!-- Node4&#45;&gt;Node12 -->
<g id="edge11" class="edge">
<title>Node4&#45;&gt;Node12</title>
<path fill="none" stroke="midnightblue" d="M714.51,-313.4C738.16,-302.09 771.08,-286.36 794.03,-275.39"/>
<polygon fill="midnightblue" stroke="midnightblue" points="795.69,-278.48 803.2,-271.01 792.67,-272.16 795.69,-278.48"/>
</g>
<!-- Node13 -->
<g id="node13" class="node">
<title>Node13</title>
<g id="a_node13"><a xlink:href="intrusive__ptr_8hpp.html" target="_top" xlink:title=" ">
<polygon fill="none" stroke="black" points="859.5,-179.5 859.5,-209.5 956.5,-209.5 956.5,-179.5 859.5,-179.5"/>
<text text-anchor="start" x="867.5" y="-197.5" font-family="Helvetica,sans-Serif" font-size="10.00">yaclib/util/intrusive</text>
<text text-anchor="middle" x="908" y="-186.5" font-family="Helvetica,sans-Serif" font-size="10.00">_ptr.hpp</text>
</a>
</g>
</g>
<!-- Node4&#45;&gt;Node13 -->
<g id="edge19" class="edge">
<title>Node4&#45;&gt;Node13</title>
<path fill="none" stroke="midnightblue" d="M733.23,-322.65C789.73,-315.91 878.41,-301.67 900,-277 913.48,-261.6 914.33,-237.75 912.49,-219.82"/>
<polygon fill="midnightblue" stroke="midnightblue" points="915.94,-219.25 911.13,-209.81 909.01,-220.19 915.94,-219.25"/>
</g>
<!-- Node17 -->
<g id="node17" class="node">
<title>Node17</title>
<g id="a_node17"><a xlink:title=" ">
<polygon fill="none" stroke="#bfbfbf" points="451,-252 451,-271 543,-271 543,-252 451,-252"/>
<text text-anchor="middle" x="497" y="-259" font-family="Helvetica,sans-Serif" font-size="10.00">yaclib_std/atomic</text>
</a>
</g>
</g>
<!-- Node4&#45;&gt;Node17 -->
<g id="edge21" class="edge">
<title>Node4&#45;&gt;Node17</title>
<path fill="none" stroke="midnightblue" d="M644.21,-313.4C610.49,-301.74 563.16,-285.37 531.35,-274.38"/>
<polygon fill="midnightblue" stroke="midnightblue" points="532.2,-270.97 521.6,-271.01 529.91,-277.58 532.2,-270.97"/>
</g>
<!-- Node6 -->
<g id="node6" class="node">
<title>Node6</title>
<g id="a_node6"><a xlink:href="job_8hpp.html" target="_top" xlink:title=" ">
<polygon fill="none" stroke="black" points="709.5,-185 709.5,-204 824.5,-204 824.5,-185 709.5,-185"/>
<text text-anchor="middle" x="767" y="-192" font-family="Helvetica,sans-Serif" font-size="10.00">yaclib/executor/job.hpp</text>
</a>
</g>
</g>
<!-- Node5&#45;&gt;Node6 -->
<g id="edge5" class="edge">
<title>Node5&#45;&gt;Node6</title>
<path fill="none" stroke="midnightblue" d="M702.79,-246.4C716.08,-235.86 734.23,-221.48 747.84,-210.69"/>
<polygon fill="midnightblue" stroke="midnightblue" points="750.37,-213.15 756.03,-204.19 746.02,-207.66 750.37,-213.15"/>
</g>
<!-- Node7 -->
<g id="node7" class="node">
<title>Node7</title>
<g id="a_node7"><a xlink:href="node_8hpp.html" target="_top" xlink:title=" ">
<polygon fill="none" stroke="black" points="778.5,-112.5 778.5,-142.5 861.5,-142.5 861.5,-112.5 778.5,-112.5"/>
<text text-anchor="start" x="786.5" y="-130.5" font-family="Helvetica,sans-Serif" font-size="10.00">yaclib/util/detail</text>
<text text-anchor="middle" x="820" y="-119.5" font-family="Helvetica,sans-Serif" font-size="10.00">/node.hpp</text>
</a>
</g>
</g>
<!-- Node6&#45;&gt;Node7 -->
<g id="edge6" class="edge">
<title>Node6&#45;&gt;Node7</title>
<path fill="none" stroke="midnightblue" d="M774.15,-184.73C781.24,-176.03 792.4,-162.34 801.94,-150.65"/>
<polygon fill="midnightblue" stroke="midnightblue" points="804.91,-152.55 808.51,-142.59 799.48,-148.13 804.91,-152.55"/>
</g>
<!-- Node8 -->
<g id="node8" class="node">
<title>Node8</title>
<g id="a_node8"><a xlink:href="func_8hpp.html" target="_top" xlink:title=" ">
<polygon fill="none" stroke="black" points="624.5,-118 624.5,-137 721.5,-137 721.5,-118 624.5,-118"/>
<text text-anchor="middle" x="673" y="-125" font-family="Helvetica,sans-Serif" font-size="10.00">yaclib/util/func.hpp</text>
</a>
</g>
</g>
<!-- Node6&#45;&gt;Node8 -->
<g id="edge7" class="edge">
<title>Node6&#45;&gt;Node8</title>
<path fill="none" stroke="midnightblue" d="M754.32,-184.73C738.82,-174.01 712.36,-155.72 693.84,-142.91"/>
<polygon fill="midnightblue" stroke="midnightblue" points="695.69,-139.94 685.48,-137.13 691.71,-145.69 695.69,-139.94"/>
</g>
<!-- Node8&#45;&gt;Node9 -->
<g id="edge8" class="edge">
<title>Node8&#45;&gt;Node9</title>
<path fill="none" stroke="midnightblue" d="M667.41,-117.98C661.62,-109.14 652.41,-95.09 645.13,-83.98"/>
<polygon fill="midnightblue" stroke="midnightblue" points="647.99,-81.95 639.58,-75.51 642.13,-85.79 647.99,-81.95"/>
</g>
<!-- Node8&#45;&gt;Node10 -->
<g id="edge9" class="edge">
<title>Node8&#45;&gt;Node10</title>
<path fill="none" stroke="midnightblue" d="M709.54,-117.98C756.46,-107.03 837.7,-88.07 886.78,-76.62"/>
<polygon fill="midnightblue" stroke="midnightblue" points="887.8,-79.97 896.75,-74.29 886.21,-73.16 887.8,-79.97"/>
</g>
<!-- Node11 -->
<g id="node11" class="node">
<title>Node11</title>
<g id="a_node11"><a xlink:title=" ">
<polygon fill="none" stroke="#bfbfbf" points="403.5,-56.5 403.5,-75.5 442.5,-75.5 442.5,-56.5 403.5,-56.5"/>
<text text-anchor="middle" x="423" y="-63.5" font-family="Helvetica,sans-Serif" font-size="10.00">utility</text>
</a>
</g>
</g>
<!-- Node8&#45;&gt;Node11 -->
<g id="edge10" class="edge">
<title>Node8&#45;&gt;Node11</title>
<path fill="none" stroke="midnightblue" d="M637.18,-117.98C587.58,-106.17 498.88,-85.06 452.74,-74.08"/>
<polygon fill="midnightblue" stroke="midnightblue" points="453.31,-70.62 442.77,-71.7 451.69,-77.42 453.31,-70.62"/>
</g>
<!-- Node12&#45;&gt;Node6 -->
<g id="edge12" class="edge">
<title>Node12&#45;&gt;Node6</title>
<path fill="none" stroke="midnightblue" d="M813.72,-251.73C805.3,-241.6 791.25,-224.69 780.75,-212.06"/>
<polygon fill="midnightblue" stroke="midnightblue" points="783.25,-209.58 774.17,-204.13 777.87,-214.06 783.25,-209.58"/>
</g>
<!-- Node12&#45;&gt;Node13 -->
<g id="edge13" class="edge">
<title>Node12&#45;&gt;Node13</title>
<path fill="none" stroke="midnightblue" d="M832.73,-251.73C845.06,-242.53 864.86,-227.73 881.06,-215.63"/>
<polygon fill="midnightblue" stroke="midnightblue" points="883.23,-218.38 889.14,-209.59 879.04,-212.77 883.23,-218.38"/>
</g>
<!-- Node13&#45;&gt;Node9 -->
<g id="edge14" class="edge">
<title>Node13&#45;&gt;Node9</title>
<path fill="none" stroke="midnightblue" d="M905.65,-179.23C901.82,-160.72 892.38,-128.8 871,-112 843.34,-90.26 749.88,-77.67 688.92,-71.59"/>
<polygon fill="midnightblue" stroke="midnightblue" points="688.98,-68.08 678.69,-70.6 688.31,-75.04 688.98,-68.08"/>
</g>
<!-- Node13&#45;&gt;Node10 -->
<g id="edge15" class="edge">
<title>Node13&#45;&gt;Node10</title>
<path fill="none" stroke="midnightblue" d="M910.22,-179.48C913.83,-156.62 921,-111.3 925.04,-85.71"/>
<polygon fill="midnightblue" stroke="midnightblue" points="928.51,-86.21 926.61,-75.79 921.59,-85.12 928.51,-86.21"/>
</g>
<!-- Node14 -->
<g id="node14" class="node">
<title>Node14</title>
<g id="a_node14"><a xlink:href="intrusive__ptr__impl_8hpp.html" target="_top" xlink:title=" ">
<polygon fill="none" stroke="black" points="1040,-112.5 1040,-142.5 1154,-142.5 1154,-112.5 1040,-112.5"/>
<text text-anchor="start" x="1048" y="-130.5" font-family="Helvetica,sans-Serif" font-size="10.00">yaclib/util/detail</text>
<text text-anchor="middle" x="1097" y="-119.5" font-family="Helvetica,sans-Serif" font-size="10.00">/intrusive_ptr_impl.hpp</text>
</a>
</g>
</g>
<!-- Node13&#45;&gt;Node14 -->
<g id="edge16" class="edge">
<title>Node13&#45;&gt;Node14</title>
<path fill="none" stroke="midnightblue" d="M949.01,-179.4C977.62,-169.56 1015.97,-156.37 1046.47,-145.88"/>
<polygon fill="midnightblue" stroke="midnightblue" points="1047.75,-149.14 1056.07,-142.58 1045.48,-142.52 1047.75,-149.14"/>
</g>
<!-- Node14&#45;&gt;Node15 -->
<g id="edge17" class="edge">
<title>Node14&#45;&gt;Node15</title>
<path fill="none" stroke="midnightblue" d="M1118.33,-112.4C1132.49,-103.04 1151.01,-90.79 1165.25,-81.38"/>
<polygon fill="midnightblue" stroke="midnightblue" points="1167.49,-84.09 1173.9,-75.66 1163.63,-78.25 1167.49,-84.09"/>
</g>
<!-- Node16 -->
<g id="node16" class="node">
<title>Node16</title>
<g id="a_node16"><a xlink:title=" ">
<polygon fill="none" stroke="#bfbfbf" points="1154,-0.5 1154,-19.5 1220,-19.5 1220,-0.5 1154,-0.5"/>
<text text-anchor="middle" x="1187" y="-7.5" font-family="Helvetica,sans-Serif" font-size="10.00">string_view</text>
</a>
</g>
</g>
<!-- Node15&#45;&gt;Node16 -->
<g id="edge18" class="edge">
<title>Node15&#45;&gt;Node16</title>
<path fill="none" stroke="midnightblue" d="M1187,-56.08C1187,-49.01 1187,-38.86 1187,-29.99"/>
<polygon fill="midnightblue" stroke="midnightblue" points="1190.5,-29.75 1187,-19.75 1183.5,-29.75 1190.5,-29.75"/>
</g>
<!-- Node18&#45;&gt;Node11 -->
<g id="edge25" class="edge">
<title>Node18&#45;&gt;Node11</title>
<path fill="none" stroke="midnightblue" d="M451.88,-313.48C435.57,-305.47 418.29,-293.64 409,-277 373.82,-214.02 401.23,-123.27 415.61,-85.05"/>
<polygon fill="midnightblue" stroke="midnightblue" points="418.88,-86.32 419.26,-75.73 412.36,-83.77 418.88,-86.32"/>
</g>
<!-- Node18&#45;&gt;Node17 -->
<g id="edge26" class="edge">
<title>Node18&#45;&gt;Node17</title>
<path fill="none" stroke="midnightblue" d="M492.3,-313.4C493.17,-303.96 494.33,-291.45 495.27,-281.19"/>
<polygon fill="midnightblue" stroke="midnightblue" points="498.76,-281.47 496.2,-271.19 491.79,-280.83 498.76,-281.47"/>
</g>
<!-- Node18&#45;&gt;Node19 -->
<g id="edge23" class="edge">
<title>Node18&#45;&gt;Node19</title>
<path fill="none" stroke="midnightblue" d="M439,-314.87C435.62,-314.19 432.27,-313.56 429,-313 287.53,-288.61 248.93,-304.37 108,-277 103.19,-276.07 98.18,-274.91 93.25,-273.66"/>
<polygon fill="midnightblue" stroke="midnightblue" points="93.9,-270.21 83.33,-271.01 92.09,-276.97 93.9,-270.21"/>
</g>
<!-- Node18&#45;&gt;Node20 -->
<g id="edge24" class="edge">
<title>Node18&#45;&gt;Node20</title>
<path fill="none" stroke="midnightblue" d="M439.65,-313.48C393.64,-300.91 327.43,-282.83 287.48,-271.92"/>
<polygon fill="midnightblue" stroke="midnightblue" points="288.24,-268.5 277.68,-269.24 286.4,-275.25 288.24,-268.5"/>
</g>
<!-- Node21&#45;&gt;Node19 -->
<g id="edge28" class="edge">
<title>Node21&#45;&gt;Node19</title>
<path fill="none" stroke="midnightblue" d="M95.15,-313.4C87.43,-303.36 77.03,-289.84 68.89,-279.25"/>
<polygon fill="midnightblue" stroke="midnightblue" points="71.56,-276.99 62.69,-271.19 66.01,-281.25 71.56,-276.99"/>
</g>
<!-- Node22 -->
<g id="node22" class="node">
<title>Node22</title>
<g id="a_node22"><a xlink:href="mutex__event_8hpp.html" target="_top" xlink:title=" ">
<polygon fill="none" stroke="black" points="117.5,-246.5 117.5,-276.5 210.5,-276.5 210.5,-246.5 117.5,-246.5"/>
<text text-anchor="start" x="125.5" y="-264.5" font-family="Helvetica,sans-Serif" font-size="10.00">yaclib/util/detail</text>
<text text-anchor="middle" x="164" y="-253.5" font-family="Helvetica,sans-Serif" font-size="10.00">/mutex_event.hpp</text>
</a>
</g>
</g>
<!-- Node21&#45;&gt;Node22 -->
<g id="edge29" class="edge">
<title>Node21&#45;&gt;Node22</title>
<path fill="none" stroke="midnightblue" d="M118.59,-313.4C126.19,-304.88 136.03,-293.85 144.61,-284.23"/>
<polygon fill="midnightblue" stroke="midnightblue" points="147.39,-286.37 151.44,-276.58 142.17,-281.71 147.39,-286.37"/>
</g>
<!-- Node22&#45;&gt;Node9 -->
<g id="edge30" class="edge">
<title>Node22&#45;&gt;Node9</title>
<path fill="none" stroke="midnightblue" d="M198.18,-246.43C286.28,-210.16 520.02,-113.93 603.68,-79.48"/>
<polygon fill="midnightblue" stroke="midnightblue" points="605.21,-82.64 613.12,-75.6 602.54,-76.17 605.21,-82.64"/>
</g>
<!-- Node23 -->
<g id="node23" class="node">
<title>Node23</title>
<g id="a_node23"><a xlink:title=" ">
<polygon fill="none" stroke="#bfbfbf" points="227,-185 227,-204 273,-204 273,-185 227,-185"/>
<text text-anchor="middle" x="250" y="-192" font-family="Helvetica,sans-Serif" font-size="10.00">chrono</text>
</a>
</g>
</g>
<!-- Node22&#45;&gt;Node23 -->
<g id="edge31" class="edge">
<title>Node22&#45;&gt;Node23</title>
<path fill="none" stroke="midnightblue" d="M182.66,-246.4C196.73,-235.76 215.99,-221.2 230.31,-210.38"/>
<polygon fill="midnightblue" stroke="midnightblue" points="232.63,-213.02 238.5,-204.19 228.41,-207.43 232.63,-213.02"/>
</g>
<!-- Node24 -->
<g id="node24" class="node">
<title>Node24</title>
<g id="a_node24"><a xlink:title=" ">
<polygon fill="none" stroke="#bfbfbf" points="0,-179.5 0,-209.5 102,-209.5 102,-179.5 0,-179.5"/>
<text text-anchor="start" x="8" y="-197.5" font-family="Helvetica,sans-Serif" font-size="10.00">yaclib_std/condition</text>
<text text-anchor="middle" x="51" y="-186.5" font-family="Helvetica,sans-Serif" font-size="10.00">_variable</text>
</a>
</g>
</g>
<!-- Node22&#45;&gt;Node24 -->
<g id="edge32" class="edge">
<title>Node22&#45;&gt;Node24</title>
<path fill="none" stroke="midnightblue" d="M139.48,-246.4C123.34,-237.11 102.01,-224.84 84.33,-214.67"/>
<polygon fill="midnightblue" stroke="midnightblue" points="85.88,-211.53 75.47,-209.58 82.39,-217.6 85.88,-211.53"/>
</g>
<!-- Node25 -->
<g id="node25" class="node">
<title>Node25</title>
<g id="a_node25"><a xlink:title=" ">
<polygon fill="none" stroke="#bfbfbf" points="119.5,-185 119.5,-204 208.5,-204 208.5,-185 119.5,-185"/>
<text text-anchor="middle" x="164" y="-192" font-family="Helvetica,sans-Serif" font-size="10.00">yaclib_std/mutex</text>
</a>
</g>
</g>
<!-- Node22&#45;&gt;Node25 -->
<g id="edge33" class="edge">
<title>Node22&#45;&gt;Node25</title>
<path fill="none" stroke="midnightblue" d="M164,-246.4C164,-237.06 164,-224.71 164,-214.52"/>
<polygon fill="midnightblue" stroke="midnightblue" points="167.5,-214.19 164,-204.19 160.5,-214.19 167.5,-214.19"/>
</g>
<!-- Node27&#45;&gt;Node10 -->
<g id="edge41" class="edge">
<title>Node27&#45;&gt;Node10</title>
<path fill="none" stroke="midnightblue" d="M1071.7,-251.92C1057.98,-242.66 1036.46,-226.94 1021,-210 984.2,-169.67 952.17,-113.26 937.13,-84.85"/>
<polygon fill="midnightblue" stroke="midnightblue" points="940.1,-82.99 932.38,-75.73 933.89,-86.22 940.1,-82.99"/>
</g>
<!-- Node28 -->
<g id="node28" class="node">
<title>Node28</title>
<g id="a_node28"><a xlink:href="fwd_8hpp.html" target="_top" xlink:title=" ">
<polygon fill="none" stroke="black" points="1172,-118 1172,-137 1250,-137 1250,-118 1172,-118"/>
<text text-anchor="middle" x="1211" y="-125" font-family="Helvetica,sans-Serif" font-size="10.00">yaclib/fwd.hpp</text>
</a>
</g>
</g>
<!-- Node27&#45;&gt;Node28 -->
<g id="edge36" class="edge">
<title>Node27&#45;&gt;Node28</title>
<path fill="none" stroke="midnightblue" d="M1096.62,-251.8C1109.14,-242.18 1129.36,-225.94 1145,-210 1165.44,-189.17 1186.16,-162.47 1198.8,-145.42"/>
<polygon fill="midnightblue" stroke="midnightblue" points="1201.85,-147.17 1204.93,-137.03 1196.2,-143.04 1201.85,-147.17"/>
</g>
<!-- Node29 -->
<g id="node29" class="node">
<title>Node29</title>
<g id="a_node29"><a xlink:href="type__traits__impl_8hpp.html" target="_top" xlink:title=" ">
<polygon fill="none" stroke="black" points="1030,-179.5 1030,-209.5 1136,-209.5 1136,-179.5 1030,-179.5"/>
<text text-anchor="start" x="1038" y="-197.5" font-family="Helvetica,sans-Serif" font-size="10.00">yaclib/util/detail</text>
<text text-anchor="middle" x="1083" y="-186.5" font-family="Helvetica,sans-Serif" font-size="10.00">/type_traits_impl.hpp</text>
</a>
</g>
</g>
<!-- Node27&#45;&gt;Node29 -->
<g id="edge37" class="edge">
<title>Node27&#45;&gt;Node29</title>
<path fill="none" stroke="midnightblue" d="M1084.73,-251.73C1084.48,-243.54 1084.09,-230.92 1083.75,-219.71"/>
<polygon fill="midnightblue" stroke="midnightblue" points="1087.24,-219.48 1083.43,-209.59 1080.24,-219.69 1087.24,-219.48"/>
</g>
<!-- Node30 -->
<g id="node30" class="node">
<title>Node30</title>
<g id="a_node30"><a xlink:title=" ">
<polygon fill="none" stroke="#bfbfbf" points="1192,-185 1192,-204 1250,-204 1250,-185 1192,-185"/>
<text text-anchor="middle" x="1221" y="-192" font-family="Helvetica,sans-Serif" font-size="10.00">exception</text>
</a>
</g>
</g>
<!-- Node27&#45;&gt;Node30 -->
<g id="edge40" class="edge">
<title>Node27&#45;&gt;Node30</title>
<path fill="none" stroke="midnightblue" d="M1103.06,-251.87C1126.23,-240.8 1166.63,-221.49 1193.6,-208.6"/>
<polygon fill="midnightblue" stroke="midnightblue" points="1195.35,-211.64 1202.87,-204.17 1192.33,-205.32 1195.35,-211.64"/>
</g>
<!-- Node29&#45;&gt;Node10 -->
<g id="edge39" class="edge">
<title>Node29&#45;&gt;Node10</title>
<path fill="none" stroke="midnightblue" d="M1067.13,-179.33C1048.49,-162.81 1016.47,-134.85 988,-112 975.05,-101.61 960.12,-90.41 948.39,-81.78"/>
<polygon fill="midnightblue" stroke="midnightblue" points="950.27,-78.82 940.13,-75.74 946.14,-84.47 950.27,-78.82"/>
</g>
<!-- Node29&#45;&gt;Node28 -->
<g id="edge38" class="edge">
<title>Node29&#45;&gt;Node28</title>
<path fill="none" stroke="midnightblue" d="M1110.77,-179.4C1132.94,-168.14 1163.74,-152.5 1185.33,-141.54"/>
<polygon fill="midnightblue" stroke="midnightblue" points="1186.92,-144.66 1194.25,-137.01 1183.75,-138.41 1186.92,-144.66"/>
</g>
<!-- Node32&#45;&gt;Node1 -->
<g id="edge60" class="edge">
<title>Node32&#45;&gt;Node1</title>
<path fill="none" stroke="midnightblue" d="M909,-472.05C909,-490.08 909,-532.56 909,-559.84"/>
<polygon fill="midnightblue" stroke="midnightblue" points="905.5,-560.14 909,-570.14 912.5,-560.14 905.5,-560.14"/>
</g>
<!-- Node32&#45;&gt;Node12 -->
<g id="edge55" class="edge">
<title>Node32&#45;&gt;Node12</title>
<path fill="none" stroke="midnightblue" d="M912.67,-452.64C918.46,-437.34 928.13,-405.2 919,-380 903.29,-336.63 863.79,-298.02 840.01,-277.68"/>
<polygon fill="midnightblue" stroke="midnightblue" points="841.96,-274.75 832.04,-271.04 837.48,-280.13 841.96,-274.75"/>
</g>
<!-- Node32&#45;&gt;Node27 -->
<g id="edge59" class="edge">
<title>Node32&#45;&gt;Node27</title>
<path fill="none" stroke="midnightblue" d="M916.56,-452.95C943.47,-422.53 1034.84,-319.22 1070.54,-278.85"/>
<polygon fill="midnightblue" stroke="midnightblue" points="1073.26,-281.05 1077.27,-271.24 1068.02,-276.42 1073.26,-281.05"/>
</g>
<!-- Node33 -->
<g id="node33" class="node">
<title>Node33</title>
<g id="a_node33"><a xlink:href="result__core_8hpp.html" target="_top" xlink:title=" ">
<polygon fill="none" stroke="black" points="814,-380.5 814,-410.5 910,-410.5 910,-380.5 814,-380.5"/>
<text text-anchor="start" x="822" y="-398.5" font-family="Helvetica,sans-Serif" font-size="10.00">yaclib/async/detail</text>
<text text-anchor="middle" x="862" y="-387.5" font-family="Helvetica,sans-Serif" font-size="10.00">/result_core.hpp</text>
</a>
</g>
</g>
<!-- Node32&#45;&gt;Node33 -->
<g id="edge46" class="edge">
<title>Node32&#45;&gt;Node33</title>
<path fill="none" stroke="midnightblue" d="M902.66,-452.73C896.43,-444.12 886.66,-430.61 878.26,-418.99"/>
<polygon fill="midnightblue" stroke="midnightblue" points="880.88,-416.64 872.19,-410.59 875.21,-420.74 880.88,-416.64"/>
</g>
<!-- Node36 -->
<g id="node36" class="node">
<title>Node36</title>
<g id="a_node36"><a xlink:href="helper_8hpp.html" target="_top" xlink:title=" ">
<polygon fill="none" stroke="black" points="692,-386 692,-405 796,-405 796,-386 692,-386"/>
<text text-anchor="middle" x="744" y="-393" font-family="Helvetica,sans-Serif" font-size="10.00">yaclib/util/helper.hpp</text>
</a>
</g>
</g>
<!-- Node32&#45;&gt;Node36 -->
<g id="edge56" class="edge">
<title>Node32&#45;&gt;Node36</title>
<path fill="none" stroke="midnightblue" d="M887.09,-452.87C858.41,-441.57 807.96,-421.7 775.27,-408.82"/>
<polygon fill="midnightblue" stroke="midnightblue" points="776.33,-405.47 765.74,-405.06 773.76,-411.99 776.33,-405.47"/>
</g>
<!-- Node33&#45;&gt;Node4 -->
<g id="edge47" class="edge">
<title>Node33&#45;&gt;Node4</title>
<path fill="none" stroke="midnightblue" d="M823.59,-380.4C797.04,-370.64 761.5,-357.59 733.07,-347.15"/>
<polygon fill="midnightblue" stroke="midnightblue" points="733.93,-343.74 723.33,-343.58 731.51,-350.31 733.93,-343.74"/>
</g>
<!-- Node33&#45;&gt;Node5 -->
<g id="edge48" class="edge">
<title>Node33&#45;&gt;Node5</title>
<path fill="none" stroke="midnightblue" d="M843.06,-380.37C811.52,-356.85 748.14,-309.59 711.95,-282.6"/>
<polygon fill="midnightblue" stroke="midnightblue" points="713.91,-279.7 703.81,-276.52 709.73,-285.31 713.91,-279.7"/>
</g>
<!-- Node33&#45;&gt;Node11 -->
<g id="edge54" class="edge">
<title>Node33&#45;&gt;Node11</title>
<path fill="none" stroke="midnightblue" d="M813.84,-382.07C810.85,-381.36 807.89,-380.66 805,-380 726.74,-362.1 704.83,-367.26 628,-344 593.09,-333.43 586.25,-325.57 552,-313 503.71,-295.27 474.04,-317.24 442,-277 396.87,-220.31 410.17,-125.75 418.52,-85.77"/>
<polygon fill="midnightblue" stroke="midnightblue" points="421.98,-86.33 420.74,-75.81 415.15,-84.81 421.98,-86.33"/>
</g>
<!-- Node33&#45;&gt;Node13 -->
<g id="edge49" class="edge">
<title>Node33&#45;&gt;Node13</title>
<path fill="none" stroke="midnightblue" d="M887.09,-380.45C901.72,-371.39 919.82,-358.6 933,-344 955.94,-318.59 962.27,-310.1 971,-277 974.51,-263.68 976.96,-258.42 971,-246 965.05,-233.61 954.43,-223.31 943.57,-215.31"/>
<polygon fill="midnightblue" stroke="midnightblue" points="945.53,-212.41 935.3,-209.64 941.57,-218.18 945.53,-212.41"/>
</g>
<!-- Node33&#45;&gt;Node34 -->
<g id="edge50" class="edge">
<title>Node33&#45;&gt;Node34</title>
<path fill="none" stroke="midnightblue" d="M910.2,-381.97C956.27,-369.99 1025.07,-352.1 1069.24,-340.62"/>
<polygon fill="midnightblue" stroke="midnightblue" points="1070.29,-343.96 1079.09,-338.06 1068.53,-337.19 1070.29,-343.96"/>
</g>
<!-- Node34&#45;&gt;Node27 -->
<g id="edge51" class="edge">
<title>Node34&#45;&gt;Node27</title>
<path fill="none" stroke="midnightblue" d="M1108.36,-318.73C1104.31,-308.99 1097.66,-292.98 1092.49,-280.53"/>
<polygon fill="midnightblue" stroke="midnightblue" points="1095.65,-279.02 1088.58,-271.13 1089.19,-281.7 1095.65,-279.02"/>
</g>
<!-- Node34&#45;&gt;Node30 -->
<g id="edge52" class="edge">
<title>Node34&#45;&gt;Node30</title>
<path fill="none" stroke="midnightblue" d="M1155.23,-318.95C1178.64,-311.89 1205.64,-299.26 1220,-277 1232.07,-258.28 1229.68,-231.76 1226.04,-214.12"/>
<polygon fill="midnightblue" stroke="midnightblue" points="1229.4,-213.12 1223.67,-204.2 1222.59,-214.74 1229.4,-213.12"/>
</g>
<!-- Node35 -->
<g id="node35" class="node">
<title>Node35</title>
<g id="a_node35"><a xlink:title=" ">
<polygon fill="none" stroke="#bfbfbf" points="1165,-252 1165,-271 1211,-271 1211,-252 1165,-252"/>
<text text-anchor="middle" x="1188" y="-259" font-family="Helvetica,sans-Serif" font-size="10.00">variant</text>
</a>
</g>
</g>
<!-- Node34&#45;&gt;Node35 -->
<g id="edge53" class="edge">
<title>Node34&#45;&gt;Node35</title>
<path fill="none" stroke="midnightblue" d="M1122.25,-318.73C1134.44,-308.31 1155.02,-290.71 1169.91,-277.97"/>
<polygon fill="midnightblue" stroke="midnightblue" points="1172.59,-280.29 1177.91,-271.13 1168.04,-274.97 1172.59,-280.29"/>
</g>
<!-- Node36&#45;&gt;Node13 -->
<g id="edge58" class="edge">
<title>Node36&#45;&gt;Node13</title>
<path fill="none" stroke="midnightblue" d="M770.37,-385.99C811.15,-371.23 888.12,-336.61 920,-277 929.49,-259.24 924.92,-236.37 918.87,-219.38"/>
<polygon fill="midnightblue" stroke="midnightblue" points="921.96,-217.67 915.03,-209.65 915.45,-220.24 921.96,-217.67"/>
</g>
<!-- Node36&#45;&gt;Node18 -->
<g id="edge57" class="edge">
<title>Node36&#45;&gt;Node18</title>
<path fill="none" stroke="midnightblue" d="M710.66,-385.94C670.66,-375.66 602.77,-358.22 553.03,-345.44"/>
<polygon fill="midnightblue" stroke="midnightblue" points="553.89,-342.04 543.33,-342.95 552.15,-348.82 553.89,-342.04"/>
</g>
<!-- Node37&#45;&gt;Node18 -->
<g id="edge66" class="edge">
<title>Node37&#45;&gt;Node18</title>
<path fill="none" stroke="midnightblue" d="M753.82,-447.5C700.34,-423.49 591.18,-374.48 531.75,-347.8"/>
<polygon fill="midnightblue" stroke="midnightblue" points="532.86,-344.46 522.31,-343.56 530,-350.85 532.86,-344.46"/>
</g>
<!-- Node37&#45;&gt;Node33 -->
<g id="edge65" class="edge">
<title>Node37&#45;&gt;Node33</title>
<path fill="none" stroke="midnightblue" d="M801.71,-447.4C812.2,-438.54 825.92,-426.96 837.61,-417.09"/>
<polygon fill="midnightblue" stroke="midnightblue" points="839.94,-419.7 845.32,-410.58 835.43,-414.35 839.94,-419.7"/>
</g>
</g>
</svg>
