<?xml version="1.0" encoding="UTF-8" standalone="no"?>
<!DOCTYPE svg PUBLIC "-//W3C//DTD SVG 1.1//EN"
 "http://www.w3.org/Graphics/SVG/1.1/DTD/svg11.dtd">
<!-- Generated by graphviz version 3.0.0 (20220413.0106)
 -->
<!-- Title: include/yaclib/async/future.hpp Pages: 1 -->
<!--zoomable 620 -->
<svg id="main" version="1.1" xmlns="http://www.w3.org/2000/svg" xmlns:xlink="http://www.w3.org/1999/xlink" xml:space="preserve" onload="init(evt)">
<style type="text/css"><![CDATA[
.edge:hover path { stroke: red; }
.edge:hover polygon { stroke: red; fill: red; }
]]></style>
<script type="text/javascript"><![CDATA[
var edges = document.getElementsByTagName('g');
if (edges && edges.length) {
  for (var i=0;i<edges.length;i++) {
    if (edges[i].id.substr(0,4)=='edge') {
      edges[i].setAttribute('class','edge');
    }
  }
}
]]></script>
        <defs>
                <circle id="rim" cx="0" cy="0" r="7"/>
                <circle id="rim2" cx="0" cy="0" r="3.5"/>
                <g id="zoomPlus">
                        <use xlink:href="#rim" fill="#404040">
                                <set attributeName="fill" to="#808080" begin="zoomplus.mouseover" end="zoomplus.mouseout"/>
                        </use>
                        <path d="M-4,0h8M0,-4v8" fill="none" stroke="white" stroke-width="1.5" pointer-events="none"/>
                </g>
                <g id="zoomMin">
                        <use xlink:href="#rim" fill="#404040">
                                <set attributeName="fill" to="#808080" begin="zoomminus.mouseover" end="zoomminus.mouseout"/>
                        </use>
                        <path d="M-4,0h8" fill="none" stroke="white" stroke-width="1.5" pointer-events="none"/>
                </g>
                <g id="dirArrow">
                        <path fill="none" stroke="white" stroke-width="1.5" d="M0,-3.0v7 M-2.5,-0.5L0,-3.0L2.5,-0.5"/>
                </g>
               <g id="resetDef">
                       <use xlink:href="#rim2" fill="#404040">
                               <set attributeName="fill" to="#808080" begin="reset.mouseover" end="reset.mouseout"/>
                       </use>
               </g>
        </defs>

<script type="text/javascript">
var viewWidth = 1391;
var viewHeight = 620;
var sectionId = 'dynsection-0';
</script>
<script xlink:href="svgpan.js"/>
<svg id="graph" class="graph">
<g id="viewport">
<title>include/yaclib/async/future.hpp</title>
<!-- Node1 -->
<g id="node1" class="node">
<title>Node1</title>
<g id="a_node1"><a xlink:title=" ">
<polygon fill="#bfbfbf" stroke="black" points="935,-581.5 935,-611.5 1039,-611.5 1039,-581.5 935,-581.5"/>
<text text-anchor="start" x="943" y="-599.5" font-family="Helvetica,sans-Serif" font-size="10.00">include/yaclib/async</text>
<text text-anchor="middle" x="987" y="-588.5" font-family="Helvetica,sans-Serif" font-size="10.00">/future.hpp</text>
</a>
</g>
</g>
<!-- Node2 -->
<g id="node2" class="node">
<title>Node2</title>
<g id="a_node2"><a xlink:href="result__core_8hpp.html" target="_top" xlink:title=" ">
<polygon fill="none" stroke="black" points="958,-380.5 958,-410.5 1054,-410.5 1054,-380.5 958,-380.5"/>
<text text-anchor="start" x="966" y="-398.5" font-family="Helvetica,sans-Serif" font-size="10.00">yaclib/async/detail</text>
<text text-anchor="middle" x="1006" y="-387.5" font-family="Helvetica,sans-Serif" font-size="10.00">/result_core.hpp</text>
</a>
</g>
</g>
<!-- Node1&#45;&gt;Node2 -->
<g id="edge1" class="edge">
<title>Node1&#45;&gt;Node2</title>
<path fill="none" stroke="midnightblue" d="M980.09,-581.31C975.65,-571.4 970.31,-557.72 968,-545 960.21,-502.15 954.19,-488.31 968,-447 971.44,-436.7 977.91,-426.81 984.54,-418.56"/>
<polygon fill="midnightblue" stroke="midnightblue" points="987.26,-420.76 991.12,-410.9 981.95,-416.2 987.26,-420.76"/>
</g>
<!-- Node11 -->
<g id="node11" class="node">
<title>Node11</title>
<g id="a_node11"><a xlink:href="executor_8hpp.html" target="_top" xlink:title=" ">
<polygon fill="none" stroke="black" points="857.5,-252 857.5,-271 996.5,-271 996.5,-252 857.5,-252"/>
<text text-anchor="middle" x="927" y="-259" font-family="Helvetica,sans-Serif" font-size="10.00">yaclib/executor/executor.hpp</text>
</a>
</g>
</g>
<!-- Node1&#45;&gt;Node11 -->
<g id="edge34" class="edge">
<title>Node1&#45;&gt;Node11</title>
<path fill="none" stroke="midnightblue" d="M1036.12,-581.28C1053.76,-573.55 1071.8,-561.97 1082,-545 1104.43,-507.67 1088,-490.14 1082,-447 1077.74,-416.34 1079.63,-406.1 1063,-380 1033.67,-333.97 980.94,-295.99 950.47,-276.55"/>
<polygon fill="midnightblue" stroke="midnightblue" points="952.11,-273.45 941.78,-271.12 948.4,-279.38 952.11,-273.45"/>
</g>
<!-- Node18 -->
<g id="node18" class="node">
<title>Node18</title>
<g id="a_node18"><a xlink:href="type__traits_8hpp.html" target="_top" xlink:title=" ">
<polygon fill="none" stroke="black" points="1129.5,-252 1129.5,-271 1252.5,-271 1252.5,-252 1129.5,-252"/>
<text text-anchor="middle" x="1191" y="-259" font-family="Helvetica,sans-Serif" font-size="10.00">yaclib/util/type_traits.hpp</text>
</a>
</g>
</g>
<!-- Node1&#45;&gt;Node18 -->
<g id="edge42" class="edge">
<title>Node1&#45;&gt;Node18</title>
<path fill="none" stroke="midnightblue" d="M1039.1,-586.92C1136.18,-569.44 1335,-526.02 1335,-463.5 1335,-463.5 1335,-463.5 1335,-394.5 1335,-334.25 1265.65,-294.05 1223.2,-275.09"/>
<polygon fill="midnightblue" stroke="midnightblue" points="1224.39,-271.79 1213.82,-271.05 1221.62,-278.22 1224.39,-271.79"/>
</g>
<!-- Node23 -->
<g id="node23" class="node">
<title>Node23</title>
<g id="a_node23"><a xlink:href="helper_8hpp.html" target="_top" xlink:title=" ">
<polygon fill="none" stroke="black" points="798,-386 798,-405 902,-405 902,-386 798,-386"/>
<text text-anchor="middle" x="850" y="-393" font-family="Helvetica,sans-Serif" font-size="10.00">yaclib/util/helper.hpp</text>
</a>
</g>
</g>
<!-- Node1&#45;&gt;Node23 -->
<g id="edge35" class="edge">
<title>Node1&#45;&gt;Node23</title>
<path fill="none" stroke="midnightblue" d="M977.15,-581.19C952.6,-545.53 888.78,-452.82 862.05,-414"/>
<polygon fill="midnightblue" stroke="midnightblue" points="864.65,-411.61 856.1,-405.36 858.89,-415.58 864.65,-411.61"/>
</g>
<!-- Node27 -->
<g id="node27" class="node">
<title>Node27</title>
<g id="a_node27"><a xlink:href="future__impl_8hpp.html" target="_top" xlink:title=" ">
<polygon fill="none" stroke="black" points="977,-514.5 977,-544.5 1073,-544.5 1073,-514.5 977,-514.5"/>
<text text-anchor="start" x="985" y="-532.5" font-family="Helvetica,sans-Serif" font-size="10.00">yaclib/async/detail</text>
<text text-anchor="middle" x="1025" y="-521.5" font-family="Helvetica,sans-Serif" font-size="10.00">/future_impl.hpp</text>
</a>
</g>
</g>
<!-- Node1&#45;&gt;Node27 -->
<g id="edge43" class="edge">
<title>Node1&#45;&gt;Node27</title>
<path fill="none" stroke="midnightblue" d="M995.25,-581.4C1000.03,-573.22 1006.16,-562.73 1011.62,-553.39"/>
<polygon fill="midnightblue" stroke="midnightblue" points="1014.75,-554.98 1016.77,-544.58 1008.7,-551.44 1014.75,-554.98"/>
</g>
<!-- Node3 -->
<g id="node3" class="node">
<title>Node3</title>
<g id="a_node3"><a xlink:href="base__core_8hpp.html" target="_top" xlink:title=" ">
<polygon fill="none" stroke="black" points="711,-313.5 711,-343.5 807,-343.5 807,-313.5 711,-313.5"/>
<text text-anchor="start" x="719" y="-331.5" font-family="Helvetica,sans-Serif" font-size="10.00">yaclib/async/detail</text>
<text text-anchor="middle" x="759" y="-320.5" font-family="Helvetica,sans-Serif" font-size="10.00">/base_core.hpp</text>
</a>
</g>
</g>
<!-- Node2&#45;&gt;Node3 -->
<g id="edge2" class="edge">
<title>Node2&#45;&gt;Node3</title>
<path fill="none" stroke="midnightblue" d="M957.79,-381.81C917.41,-371.19 859.67,-355.99 816.82,-344.72"/>
<polygon fill="midnightblue" stroke="midnightblue" points="817.65,-341.32 807.09,-342.15 815.87,-348.08 817.65,-341.32"/>
</g>
<!-- Node4 -->
<g id="node4" class="node">
<title>Node4</title>
<g id="a_node4"><a xlink:href="inline__core_8hpp.html" target="_top" xlink:title=" ">
<polygon fill="none" stroke="black" points="743,-246.5 743,-276.5 839,-276.5 839,-246.5 743,-246.5"/>
<text text-anchor="start" x="751" y="-264.5" font-family="Helvetica,sans-Serif" font-size="10.00">yaclib/async/detail</text>
<text text-anchor="middle" x="791" y="-253.5" font-family="Helvetica,sans-Serif" font-size="10.00">/inline_core.hpp</text>
</a>
</g>
</g>
<!-- Node2&#45;&gt;Node4 -->
<g id="edge21" class="edge">
<title>Node2&#45;&gt;Node4</title>
<path fill="none" stroke="midnightblue" d="M982.99,-380.37C944.36,-356.65 866.39,-308.79 822.64,-281.92"/>
<polygon fill="midnightblue" stroke="midnightblue" points="824.2,-278.77 813.84,-276.52 820.53,-284.74 824.2,-278.77"/>
</g>
<!-- Node10 -->
<g id="node10" class="node">
<title>Node10</title>
<g id="a_node10"><a xlink:title=" ">
<polygon fill="none" stroke="#bfbfbf" points="701.5,-56.5 701.5,-75.5 740.5,-75.5 740.5,-56.5 701.5,-56.5"/>
<text text-anchor="middle" x="721" y="-63.5" font-family="Helvetica,sans-Serif" font-size="10.00">utility</text>
</a>
</g>
</g>
<!-- Node2&#45;&gt;Node10 -->
<g id="edge33" class="edge">
<title>Node2&#45;&gt;Node10</title>
<path fill="none" stroke="midnightblue" d="M965.95,-380.43C939.76,-370.89 904.97,-357.59 875,-344 848.02,-331.76 842.69,-325.85 816,-313 780.14,-295.73 758.06,-308.71 734,-277 690.3,-219.4 706.4,-125.34 715.96,-85.62"/>
<polygon fill="midnightblue" stroke="midnightblue" points="719.4,-86.29 718.48,-75.74 712.62,-84.56 719.4,-86.29"/>
</g>
<!-- Node12 -->
<g id="node12" class="node">
<title>Node12</title>
<g id="a_node12"><a xlink:href="intrusive__ptr_8hpp.html" target="_top" xlink:title=" ">
<polygon fill="none" stroke="black" points="964.5,-179.5 964.5,-209.5 1061.5,-209.5 1061.5,-179.5 964.5,-179.5"/>
<text text-anchor="start" x="972.5" y="-197.5" font-family="Helvetica,sans-Serif" font-size="10.00">yaclib/util/intrusive</text>
<text text-anchor="middle" x="1013" y="-186.5" font-family="Helvetica,sans-Serif" font-size="10.00">_ptr.hpp</text>
</a>
</g>
</g>
<!-- Node2&#45;&gt;Node12 -->
<g id="edge22" class="edge">
<title>Node2&#45;&gt;Node12</title>
<path fill="none" stroke="midnightblue" d="M1018.3,-380.16C1035.4,-359.17 1065.55,-318.1 1077,-277 1080.7,-263.73 1083.01,-258.4 1077,-246 1070.95,-233.52 1060.15,-223.19 1049.12,-215.2"/>
<polygon fill="midnightblue" stroke="midnightblue" points="1050.98,-212.22 1040.72,-209.54 1047.07,-218.03 1050.98,-212.22"/>
</g>
<!-- Node17 -->
<g id="node17" class="node">
<title>Node17</title>
<g id="a_node17"><a xlink:href="result_8hpp.html" target="_top" xlink:title=" ">
<polygon fill="none" stroke="black" points="1167,-319 1167,-338 1269,-338 1269,-319 1167,-319"/>
<text text-anchor="middle" x="1218" y="-326" font-family="Helvetica,sans-Serif" font-size="10.00">yaclib/util/result.hpp</text>
</a>
</g>
</g>
<!-- Node2&#45;&gt;Node17 -->
<g id="edge23" class="edge">
<title>Node2&#45;&gt;Node17</title>
<path fill="none" stroke="midnightblue" d="M1051.74,-380.48C1090.24,-368.67 1144.61,-352 1180.56,-340.98"/>
<polygon fill="midnightblue" stroke="midnightblue" points="1181.65,-344.31 1190.18,-338.03 1179.6,-337.61 1181.65,-344.31"/>
</g>
<!-- Node3&#45;&gt;Node4 -->
<g id="edge3" class="edge">
<title>Node3&#45;&gt;Node4</title>
<path fill="none" stroke="midnightblue" d="M765.94,-313.4C769.93,-305.3 775.03,-294.94 779.59,-285.69"/>
<polygon fill="midnightblue" stroke="midnightblue" points="782.79,-287.09 784.07,-276.58 776.51,-284 782.79,-287.09"/>
</g>
<!-- Node8 -->
<g id="node8" class="node">
<title>Node8</title>
<g id="a_node8"><a xlink:href="ref_8hpp.html" target="_top" xlink:title=" ">
<polygon fill="none" stroke="black" points="594.5,-56.5 594.5,-75.5 683.5,-75.5 683.5,-56.5 594.5,-56.5"/>
<text text-anchor="middle" x="639" y="-63.5" font-family="Helvetica,sans-Serif" font-size="10.00">yaclib/util/ref.hpp</text>
</a>
</g>
</g>
<!-- Node3&#45;&gt;Node8 -->
<g id="edge19" class="edge">
<title>Node3&#45;&gt;Node8</title>
<path fill="none" stroke="midnightblue" d="M737.49,-313.46C725.19,-304.4 710.38,-291.61 701,-277 660.8,-214.38 645.83,-124.74 641.01,-86.02"/>
<polygon fill="midnightblue" stroke="midnightblue" points="644.44,-85.25 639.82,-75.72 637.49,-86.05 644.44,-85.25"/>
</g>
<!-- Node3&#45;&gt;Node11 -->
<g id="edge10" class="edge">
<title>Node3&#45;&gt;Node11</title>
<path fill="none" stroke="midnightblue" d="M795.45,-313.4C825.32,-301.84 867.15,-285.66 895.56,-274.66"/>
<polygon fill="midnightblue" stroke="midnightblue" points="896.95,-277.88 905.01,-271.01 894.42,-271.35 896.95,-277.88"/>
</g>
<!-- Node3&#45;&gt;Node12 -->
<g id="edge18" class="edge">
<title>Node3&#45;&gt;Node12</title>
<path fill="none" stroke="midnightblue" d="M807.15,-324.35C871.41,-319.07 980.17,-306.01 1006,-277 1019.67,-261.64 1020.12,-237.59 1017.93,-219.59"/>
<polygon fill="midnightblue" stroke="midnightblue" points="1021.36,-218.89 1016.36,-209.55 1014.44,-219.97 1021.36,-218.89"/>
</g>
<!-- Node16 -->
<g id="node16" class="node">
<title>Node16</title>
<g id="a_node16"><a xlink:title=" ">
<polygon fill="none" stroke="#bfbfbf" points="557,-252 557,-271 649,-271 649,-252 557,-252"/>
<text text-anchor="middle" x="603" y="-259" font-family="Helvetica,sans-Serif" font-size="10.00">yaclib_std/atomic</text>
</a>
</g>
</g>
<!-- Node3&#45;&gt;Node16 -->
<g id="edge20" class="edge">
<title>Node3&#45;&gt;Node16</title>
<path fill="none" stroke="midnightblue" d="M725.15,-313.4C697.66,-301.94 659.25,-285.94 632.89,-274.95"/>
<polygon fill="midnightblue" stroke="midnightblue" points="633.99,-271.62 623.42,-271.01 631.3,-278.08 633.99,-271.62"/>
</g>
<!-- Node5 -->
<g id="node5" class="node">
<title>Node5</title>
<g id="a_node5"><a xlink:href="job_8hpp.html" target="_top" xlink:title=" ">
<polygon fill="none" stroke="black" points="781.5,-185 781.5,-204 896.5,-204 896.5,-185 781.5,-185"/>
<text text-anchor="middle" x="839" y="-192" font-family="Helvetica,sans-Serif" font-size="10.00">yaclib/executor/job.hpp</text>
</a>
</g>
</g>
<!-- Node4&#45;&gt;Node5 -->
<g id="edge4" class="edge">
<title>Node4&#45;&gt;Node5</title>
<path fill="none" stroke="midnightblue" d="M801.42,-246.4C808.83,-236.36 818.81,-222.84 826.63,-212.25"/>
<polygon fill="midnightblue" stroke="midnightblue" points="829.45,-214.32 832.58,-204.19 823.82,-210.16 829.45,-214.32"/>
</g>
<!-- Node6 -->
<g id="node6" class="node">
<title>Node6</title>
<g id="a_node6"><a xlink:href="node_8hpp.html" target="_top" xlink:title=" ">
<polygon fill="none" stroke="black" points="723.5,-112.5 723.5,-142.5 806.5,-142.5 806.5,-112.5 723.5,-112.5"/>
<text text-anchor="start" x="731.5" y="-130.5" font-family="Helvetica,sans-Serif" font-size="10.00">yaclib/util/detail</text>
<text text-anchor="middle" x="765" y="-119.5" font-family="Helvetica,sans-Serif" font-size="10.00">/node.hpp</text>
</a>
</g>
</g>
<!-- Node5&#45;&gt;Node6 -->
<g id="edge5" class="edge">
<title>Node5&#45;&gt;Node6</title>
<path fill="none" stroke="midnightblue" d="M829.02,-184.73C818.73,-175.7 802.31,-161.27 788.68,-149.3"/>
<polygon fill="midnightblue" stroke="midnightblue" points="790.86,-146.56 781.04,-142.59 786.24,-151.82 790.86,-146.56"/>
</g>
<!-- Node7 -->
<g id="node7" class="node">
<title>Node7</title>
<g id="a_node7"><a xlink:href="func_8hpp.html" target="_top" xlink:title=" ">
<polygon fill="none" stroke="black" points="863.5,-118 863.5,-137 960.5,-137 960.5,-118 863.5,-118"/>
<text text-anchor="middle" x="912" y="-125" font-family="Helvetica,sans-Serif" font-size="10.00">yaclib/util/func.hpp</text>
</a>
</g>
</g>
<!-- Node5&#45;&gt;Node7 -->
<g id="edge6" class="edge">
<title>Node5&#45;&gt;Node7</title>
<path fill="none" stroke="midnightblue" d="M848.85,-184.73C860.56,-174.31 880.32,-156.71 894.62,-143.97"/>
<polygon fill="midnightblue" stroke="midnightblue" points="897.17,-146.39 902.31,-137.13 892.51,-141.16 897.17,-146.39"/>
</g>
<!-- Node7&#45;&gt;Node8 -->
<g id="edge7" class="edge">
<title>Node7&#45;&gt;Node8</title>
<path fill="none" stroke="midnightblue" d="M875.38,-117.97C866.73,-115.99 857.55,-113.9 849,-112 794.58,-99.91 732.1,-86.59 689.53,-77.6"/>
<polygon fill="midnightblue" stroke="midnightblue" points="690.2,-74.17 679.69,-75.53 688.75,-81.02 690.2,-74.17"/>
</g>
<!-- Node9 -->
<g id="node9" class="node">
<title>Node9</title>
<g id="a_node9"><a xlink:title=" ">
<polygon fill="none" stroke="#bfbfbf" points="996,-56.5 996,-75.5 1058,-75.5 1058,-56.5 996,-56.5"/>
<text text-anchor="middle" x="1027" y="-63.5" font-family="Helvetica,sans-Serif" font-size="10.00">type_traits</text>
</a>
</g>
</g>
<!-- Node7&#45;&gt;Node9 -->
<g id="edge8" class="edge">
<title>Node7&#45;&gt;Node9</title>
<path fill="none" stroke="midnightblue" d="M928.48,-117.98C947.61,-108.08 979.37,-91.64 1001.65,-80.12"/>
<polygon fill="midnightblue" stroke="midnightblue" points="1003.28,-83.21 1010.55,-75.51 1000.06,-77 1003.28,-83.21"/>
</g>
<!-- Node7&#45;&gt;Node10 -->
<g id="edge9" class="edge">
<title>Node7&#45;&gt;Node10</title>
<path fill="none" stroke="midnightblue" d="M884.63,-117.98C848.99,-106.87 786.94,-87.54 750.35,-76.14"/>
<polygon fill="midnightblue" stroke="midnightblue" points="751.33,-72.78 740.75,-73.15 749.25,-79.47 751.33,-72.78"/>
</g>
<!-- Node11&#45;&gt;Node5 -->
<g id="edge11" class="edge">
<title>Node11&#45;&gt;Node5</title>
<path fill="none" stroke="midnightblue" d="M915.13,-251.73C900.75,-241.11 876.3,-223.05 858.99,-210.26"/>
<polygon fill="midnightblue" stroke="midnightblue" points="860.8,-207.25 850.68,-204.13 856.64,-212.88 860.8,-207.25"/>
</g>
<!-- Node11&#45;&gt;Node12 -->
<g id="edge12" class="edge">
<title>Node11&#45;&gt;Node12</title>
<path fill="none" stroke="midnightblue" d="M938.6,-251.73C950.78,-242.53 970.35,-227.73 986.37,-215.63"/>
<polygon fill="midnightblue" stroke="midnightblue" points="988.49,-218.41 994.36,-209.59 984.27,-212.83 988.49,-218.41"/>
</g>
<!-- Node12&#45;&gt;Node8 -->
<g id="edge13" class="edge">
<title>Node12&#45;&gt;Node8</title>
<path fill="none" stroke="midnightblue" d="M964.17,-182.78C931.98,-174.55 889.55,-161.45 855,-143 835.47,-132.57 835.84,-121.84 816,-112 794.19,-101.19 734.87,-87.16 690.88,-77.66"/>
<polygon fill="midnightblue" stroke="midnightblue" points="691.42,-74.19 680.91,-75.53 689.95,-81.04 691.42,-74.19"/>
</g>
<!-- Node12&#45;&gt;Node9 -->
<g id="edge14" class="edge">
<title>Node12&#45;&gt;Node9</title>
<path fill="none" stroke="midnightblue" d="M1014.55,-179.48C1017.07,-156.72 1022.05,-111.7 1024.89,-86.06"/>
<polygon fill="midnightblue" stroke="midnightblue" points="1028.41,-86.11 1026.03,-75.79 1021.45,-85.34 1028.41,-86.11"/>
</g>
<!-- Node13 -->
<g id="node13" class="node">
<title>Node13</title>
<g id="a_node13"><a xlink:href="intrusive__ptr__impl_8hpp.html" target="_top" xlink:title=" ">
<polygon fill="none" stroke="black" points="1145,-112.5 1145,-142.5 1259,-142.5 1259,-112.5 1145,-112.5"/>
<text text-anchor="start" x="1153" y="-130.5" font-family="Helvetica,sans-Serif" font-size="10.00">yaclib/util/detail</text>
<text text-anchor="middle" x="1202" y="-119.5" font-family="Helvetica,sans-Serif" font-size="10.00">/intrusive_ptr_impl.hpp</text>
</a>
</g>
</g>
<!-- Node12&#45;&gt;Node13 -->
<g id="edge15" class="edge">
<title>Node12&#45;&gt;Node13</title>
<path fill="none" stroke="midnightblue" d="M1054.01,-179.4C1082.62,-169.56 1120.97,-156.37 1151.47,-145.88"/>
<polygon fill="midnightblue" stroke="midnightblue" points="1152.75,-149.14 1161.07,-142.58 1150.48,-142.52 1152.75,-149.14"/>
</g>
<!-- Node14 -->
<g id="node14" class="node">
<title>Node14</title>
<g id="a_node14"><a xlink:href="log_8hpp.html" target="_top" xlink:title=" ">
<polygon fill="none" stroke="black" points="1254.5,-56.5 1254.5,-75.5 1329.5,-75.5 1329.5,-56.5 1254.5,-56.5"/>
<text text-anchor="middle" x="1292" y="-63.5" font-family="Helvetica,sans-Serif" font-size="10.00">yaclib/log.hpp</text>
</a>
</g>
</g>
<!-- Node13&#45;&gt;Node14 -->
<g id="edge16" class="edge">
<title>Node13&#45;&gt;Node14</title>
<path fill="none" stroke="midnightblue" d="M1223.33,-112.4C1237.49,-103.04 1256.01,-90.79 1270.25,-81.38"/>
<polygon fill="midnightblue" stroke="midnightblue" points="1272.49,-84.09 1278.9,-75.66 1268.63,-78.25 1272.49,-84.09"/>
</g>
<!-- Node15 -->
<g id="node15" class="node">
<title>Node15</title>
<g id="a_node15"><a xlink:title=" ">
<polygon fill="none" stroke="#bfbfbf" points="1259,-0.5 1259,-19.5 1325,-19.5 1325,-0.5 1259,-0.5"/>
<text text-anchor="middle" x="1292" y="-7.5" font-family="Helvetica,sans-Serif" font-size="10.00">string_view</text>
</a>
</g>
</g>
<!-- Node14&#45;&gt;Node15 -->
<g id="edge17" class="edge">
<title>Node14&#45;&gt;Node15</title>
<path fill="none" stroke="midnightblue" d="M1292,-56.08C1292,-49.01 1292,-38.86 1292,-29.99"/>
<polygon fill="midnightblue" stroke="midnightblue" points="1295.5,-29.75 1292,-19.75 1288.5,-29.75 1295.5,-29.75"/>
</g>
<!-- Node17&#45;&gt;Node18 -->
<g id="edge24" class="edge">
<title>Node17&#45;&gt;Node18</title>
<path fill="none" stroke="midnightblue" d="M1214.36,-318.73C1210.31,-308.99 1203.66,-292.98 1198.49,-280.53"/>
<polygon fill="midnightblue" stroke="midnightblue" points="1201.65,-279.02 1194.58,-271.13 1195.19,-281.7 1201.65,-279.02"/>
</g>
<!-- Node21 -->
<g id="node21" class="node">
<title>Node21</title>
<g id="a_node21"><a xlink:title=" ">
<polygon fill="none" stroke="#bfbfbf" points="1297,-185 1297,-204 1355,-204 1355,-185 1297,-185"/>
<text text-anchor="middle" x="1326" y="-192" font-family="Helvetica,sans-Serif" font-size="10.00">exception</text>
</a>
</g>
</g>
<!-- Node17&#45;&gt;Node21 -->
<g id="edge31" class="edge">
<title>Node17&#45;&gt;Node21</title>
<path fill="none" stroke="midnightblue" d="M1261.61,-318.93C1284.99,-311.88 1311.83,-299.27 1326,-277 1337.96,-258.21 1335.21,-231.71 1331.32,-214.09"/>
<polygon fill="midnightblue" stroke="midnightblue" points="1334.66,-213.02 1328.81,-204.18 1327.87,-214.74 1334.66,-213.02"/>
</g>
<!-- Node22 -->
<g id="node22" class="node">
<title>Node22</title>
<g id="a_node22"><a xlink:title=" ">
<polygon fill="none" stroke="#bfbfbf" points="1271,-252 1271,-271 1317,-271 1317,-252 1271,-252"/>
<text text-anchor="middle" x="1294" y="-259" font-family="Helvetica,sans-Serif" font-size="10.00">variant</text>
</a>
</g>
</g>
<!-- Node17&#45;&gt;Node22 -->
<g id="edge32" class="edge">
<title>Node17&#45;&gt;Node22</title>
<path fill="none" stroke="midnightblue" d="M1228.25,-318.73C1240.44,-308.31 1261.02,-290.71 1275.91,-277.97"/>
<polygon fill="midnightblue" stroke="midnightblue" points="1278.59,-280.29 1283.91,-271.13 1274.04,-274.97 1278.59,-280.29"/>
</g>
<!-- Node18&#45;&gt;Node9 -->
<g id="edge30" class="edge">
<title>Node18&#45;&gt;Node9</title>
<path fill="none" stroke="midnightblue" d="M1177.58,-251.87C1163.72,-242.57 1141.91,-226.81 1126,-210 1087.57,-169.39 1052.94,-112.71 1036.72,-84.46"/>
<polygon fill="midnightblue" stroke="midnightblue" points="1039.74,-82.7 1031.77,-75.72 1033.65,-86.15 1039.74,-82.7"/>
</g>
<!-- Node19 -->
<g id="node19" class="node">
<title>Node19</title>
<g id="a_node19"><a xlink:href="fwd_8hpp.html" target="_top" xlink:title=" ">
<polygon fill="none" stroke="black" points="1277,-118 1277,-137 1355,-137 1355,-118 1277,-118"/>
<text text-anchor="middle" x="1316" y="-125" font-family="Helvetica,sans-Serif" font-size="10.00">yaclib/fwd.hpp</text>
</a>
</g>
</g>
<!-- Node18&#45;&gt;Node19 -->
<g id="edge25" class="edge">
<title>Node18&#45;&gt;Node19</title>
<path fill="none" stroke="midnightblue" d="M1202.41,-251.76C1214.7,-242.12 1234.58,-225.85 1250,-210 1270.36,-189.08 1291.1,-162.4 1303.76,-145.38"/>
<polygon fill="midnightblue" stroke="midnightblue" points="1306.81,-147.14 1309.91,-137.01 1301.17,-143 1306.81,-147.14"/>
</g>
<!-- Node20 -->
<g id="node20" class="node">
<title>Node20</title>
<g id="a_node20"><a xlink:href="type__traits__impl_8hpp.html" target="_top" xlink:title=" ">
<polygon fill="none" stroke="black" points="1135,-179.5 1135,-209.5 1241,-209.5 1241,-179.5 1135,-179.5"/>
<text text-anchor="start" x="1143" y="-197.5" font-family="Helvetica,sans-Serif" font-size="10.00">yaclib/util/detail</text>
<text text-anchor="middle" x="1188" y="-186.5" font-family="Helvetica,sans-Serif" font-size="10.00">/type_traits_impl.hpp</text>
</a>
</g>
</g>
<!-- Node18&#45;&gt;Node20 -->
<g id="edge26" class="edge">
<title>Node18&#45;&gt;Node20</title>
<path fill="none" stroke="midnightblue" d="M1190.6,-251.73C1190.22,-243.54 1189.63,-230.92 1189.12,-219.71"/>
<polygon fill="midnightblue" stroke="midnightblue" points="1192.61,-219.42 1188.65,-209.59 1185.62,-219.74 1192.61,-219.42"/>
</g>
<!-- Node18&#45;&gt;Node21 -->
<g id="edge29" class="edge">
<title>Node18&#45;&gt;Node21</title>
<path fill="none" stroke="midnightblue" d="M1208.93,-251.87C1231.92,-240.8 1272.03,-221.49 1298.8,-208.6"/>
<polygon fill="midnightblue" stroke="midnightblue" points="1300.51,-211.66 1308,-204.17 1297.47,-205.35 1300.51,-211.66"/>
</g>
<!-- Node20&#45;&gt;Node9 -->
<g id="edge28" class="edge">
<title>Node20&#45;&gt;Node9</title>
<path fill="none" stroke="midnightblue" d="M1172.64,-179.4C1154.22,-162.7 1122.15,-134.33 1093,-112 1078.83,-101.14 1062.22,-89.82 1049.2,-81.25"/>
<polygon fill="midnightblue" stroke="midnightblue" points="1050.74,-78.08 1040.45,-75.55 1046.92,-83.94 1050.74,-78.08"/>
</g>
<!-- Node20&#45;&gt;Node19 -->
<g id="edge27" class="edge">
<title>Node20&#45;&gt;Node19</title>
<path fill="none" stroke="midnightblue" d="M1215.77,-179.4C1237.94,-168.14 1268.74,-152.5 1290.33,-141.54"/>
<polygon fill="midnightblue" stroke="midnightblue" points="1291.92,-144.66 1299.25,-137.01 1288.75,-138.41 1291.92,-144.66"/>
</g>
<!-- Node23&#45;&gt;Node12 -->
<g id="edge41" class="edge">
<title>Node23&#45;&gt;Node12</title>
<path fill="none" stroke="midnightblue" d="M876.37,-385.99C917.15,-371.23 994.12,-336.61 1026,-277 1035.51,-259.21 1030.63,-236.34 1024.31,-219.36"/>
<polygon fill="midnightblue" stroke="midnightblue" points="1027.35,-217.55 1020.3,-209.64 1020.88,-220.22 1027.35,-217.55"/>
</g>
<!-- Node24 -->
<g id="node24" class="node">
<title>Node24</title>
<g id="a_node24"><a xlink:href="atomic__counter_8hpp.html" target="_top" xlink:title=" ">
<polygon fill="none" stroke="black" points="551,-313.5 551,-343.5 655,-343.5 655,-313.5 551,-313.5"/>
<text text-anchor="start" x="559" y="-331.5" font-family="Helvetica,sans-Serif" font-size="10.00">yaclib/util/detail</text>
<text text-anchor="middle" x="603" y="-320.5" font-family="Helvetica,sans-Serif" font-size="10.00">/atomic_counter.hpp</text>
</a>
</g>
</g>
<!-- Node23&#45;&gt;Node24 -->
<g id="edge36" class="edge">
<title>Node23&#45;&gt;Node24</title>
<path fill="none" stroke="midnightblue" d="M817.46,-385.94C778.73,-375.74 713.22,-358.51 664.78,-345.76"/>
<polygon fill="midnightblue" stroke="midnightblue" points="665.58,-342.35 655.02,-343.19 663.8,-349.12 665.58,-342.35"/>
</g>
<!-- Node24&#45;&gt;Node10 -->
<g id="edge39" class="edge">
<title>Node24&#45;&gt;Node10</title>
<path fill="none" stroke="midnightblue" d="M559.25,-313.32C542.32,-305.45 524.71,-293.77 515,-277 508.1,-265.08 509.29,-258.54 515,-246 552.32,-164.12 647.64,-105.22 694.37,-80.26"/>
<polygon fill="midnightblue" stroke="midnightblue" points="696.06,-83.32 703.3,-75.59 692.81,-77.12 696.06,-83.32"/>
</g>
<!-- Node24&#45;&gt;Node16 -->
<g id="edge40" class="edge">
<title>Node24&#45;&gt;Node16</title>
<path fill="none" stroke="midnightblue" d="M603,-313.4C603,-304.06 603,-291.71 603,-281.52"/>
<polygon fill="midnightblue" stroke="midnightblue" points="606.5,-281.19 603,-271.19 599.5,-281.19 606.5,-281.19"/>
</g>
<!-- Node25 -->
<g id="node25" class="node">
<title>Node25</title>
<g id="a_node25"><a xlink:title=" ">
<polygon fill="none" stroke="#bfbfbf" points="228,-252 228,-271 316,-271 316,-252 228,-252"/>
<text text-anchor="middle" x="272" y="-259" font-family="Helvetica,sans-Serif" font-size="10.00">yaclib/config.hpp</text>
</a>
</g>
</g>
<!-- Node24&#45;&gt;Node25 -->
<g id="edge37" class="edge">
<title>Node24&#45;&gt;Node25</title>
<path fill="none" stroke="midnightblue" d="M550.81,-314.84C547.83,-314.2 544.88,-313.58 542,-313 445.73,-293.63 419.88,-298.22 324,-277 319.56,-276.02 314.93,-274.88 310.34,-273.7"/>
<polygon fill="midnightblue" stroke="midnightblue" points="311.03,-270.26 300.47,-271.04 309.22,-277.02 311.03,-270.26"/>
</g>
<!-- Node26 -->
<g id="node26" class="node">
<title>Node26</title>
<g id="a_node26"><a xlink:title=" ">
<polygon fill="none" stroke="#bfbfbf" points="333.5,-252 333.5,-271 382.5,-271 382.5,-252 333.5,-252"/>
<text text-anchor="middle" x="358" y="-259" font-family="Helvetica,sans-Serif" font-size="10.00">cstddef</text>
</a>
</g>
</g>
<!-- Node24&#45;&gt;Node26 -->
<g id="edge38" class="edge">
<title>Node24&#45;&gt;Node26</title>
<path fill="none" stroke="midnightblue" d="M550.74,-313.64C502.94,-300.95 433.57,-282.55 392.4,-271.63"/>
<polygon fill="midnightblue" stroke="midnightblue" points="393.13,-268.2 382.57,-269.02 391.34,-274.97 393.13,-268.2"/>
</g>
<!-- Node27&#45;&gt;Node14 -->
<g id="edge67" class="edge">
<title>Node27&#45;&gt;Node14</title>
<path fill="none" stroke="midnightblue" d="M1055.27,-514.37C1120.2,-482.34 1272.75,-397.5 1344,-277 1381.6,-213.41 1399.81,-176.61 1364,-112 1355.91,-97.41 1340.9,-86.92 1326.66,-79.76"/>
<polygon fill="midnightblue" stroke="midnightblue" points="1328.05,-76.55 1317.5,-75.53 1325.11,-82.9 1328.05,-76.55"/>
</g>
<!-- Node27&#45;&gt;Node17 -->
<g id="edge68" class="edge">
<title>Node27&#45;&gt;Node17</title>
<path fill="none" stroke="midnightblue" d="M1041.88,-514.36C1053.45,-504.47 1068.99,-490.79 1082,-478 1128.75,-432.01 1180.02,-373.68 1204.07,-345.79"/>
<polygon fill="midnightblue" stroke="midnightblue" points="1206.77,-348.03 1210.63,-338.16 1201.46,-343.46 1206.77,-348.03"/>
</g>
<!-- Node28 -->
<g id="node28" class="node">
<title>Node28</title>
<g id="a_node28"><a xlink:href="wait_8hpp.html" target="_top" xlink:title=" ">
<polygon fill="none" stroke="black" points="336.5,-453 336.5,-472 437.5,-472 437.5,-453 336.5,-453"/>
<text text-anchor="middle" x="387" y="-460" font-family="Helvetica,sans-Serif" font-size="10.00">yaclib/algo/wait.hpp</text>
</a>
</g>
</g>
<!-- Node27&#45;&gt;Node28 -->
<g id="edge44" class="edge">
<title>Node27&#45;&gt;Node28</title>
<path fill="none" stroke="midnightblue" d="M976.78,-523.59C862.29,-511.92 574.2,-482.57 447.92,-469.71"/>
<polygon fill="midnightblue" stroke="midnightblue" points="447.96,-466.19 437.66,-468.66 447.25,-473.16 447.96,-466.19"/>
</g>
<!-- Node37 -->
<g id="node37" class="node">
<title>Node37</title>
<g id="a_node37"><a xlink:href="core_8hpp.html" target="_top" xlink:title=" ">
<polygon fill="none" stroke="black" points="977,-447.5 977,-477.5 1073,-477.5 1073,-447.5 977,-447.5"/>
<text text-anchor="start" x="985" y="-465.5" font-family="Helvetica,sans-Serif" font-size="10.00">yaclib/async/detail</text>
<text text-anchor="middle" x="1025" y="-454.5" font-family="Helvetica,sans-Serif" font-size="10.00">/core.hpp</text>
</a>
</g>
</g>
<!-- Node27&#45;&gt;Node37 -->
<g id="edge64" class="edge">
<title>Node27&#45;&gt;Node37</title>
<path fill="none" stroke="midnightblue" d="M1025,-514.4C1025,-506.64 1025,-496.81 1025,-487.86"/>
<polygon fill="midnightblue" stroke="midnightblue" points="1028.5,-487.58 1025,-477.58 1021.5,-487.58 1028.5,-487.58"/>
</g>
<!-- Node28&#45;&gt;Node1 -->
<g id="edge60" class="edge">
<title>Node28&#45;&gt;Node1</title>
<path fill="none" stroke="midnightblue" d="M425.8,-472.04C527.22,-494.35 800.96,-554.57 924.73,-581.8"/>
<polygon fill="midnightblue" stroke="midnightblue" points="924.29,-585.29 934.8,-584.02 925.79,-578.45 924.29,-585.29"/>
</g>
<!-- Node28&#45;&gt;Node25 -->
<g id="edge61" class="edge">
<title>Node28&#45;&gt;Node25</title>
<path fill="none" stroke="midnightblue" d="M379.35,-452.96C370.85,-443.23 357,-426.64 347,-411 318.45,-366.33 292.28,-309.38 279.76,-280.72"/>
<polygon fill="midnightblue" stroke="midnightblue" points="282.83,-279 275.65,-271.2 276.4,-281.77 282.83,-279"/>
</g>
<!-- Node28&#45;&gt;Node26 -->
<g id="edge63" class="edge">
<title>Node28&#45;&gt;Node26</title>
<path fill="none" stroke="midnightblue" d="M382.12,-452.72C371.84,-433.65 348.23,-386.72 340,-344 337.39,-330.47 337.65,-326.58 340,-313 341.91,-301.94 346.02,-290.09 349.83,-280.65"/>
<polygon fill="midnightblue" stroke="midnightblue" points="353.16,-281.76 353.87,-271.19 346.72,-279.01 353.16,-281.76"/>
</g>
<!-- Node29 -->
<g id="node29" class="node">
<title>Node29</title>
<g id="a_node29"><a xlink:href="wait__impl_8hpp.html" target="_top" xlink:title=" ">
<polygon fill="none" stroke="black" points="434.5,-380.5 434.5,-410.5 523.5,-410.5 523.5,-380.5 434.5,-380.5"/>
<text text-anchor="start" x="442.5" y="-398.5" font-family="Helvetica,sans-Serif" font-size="10.00">yaclib/algo/detail</text>
<text text-anchor="middle" x="479" y="-387.5" font-family="Helvetica,sans-Serif" font-size="10.00">/wait_impl.hpp</text>
</a>
</g>
</g>
<!-- Node28&#45;&gt;Node29 -->
<g id="edge45" class="edge">
<title>Node28&#45;&gt;Node29</title>
<path fill="none" stroke="midnightblue" d="M399.41,-452.73C412.44,-443.53 433.38,-428.73 450.51,-416.63"/>
<polygon fill="midnightblue" stroke="midnightblue" points="452.91,-419.22 459.06,-410.59 448.87,-413.5 452.91,-419.22"/>
</g>
<!-- Node30 -->
<g id="node30" class="node">
<title>Node30</title>
<g id="a_node30"><a xlink:href="default__event_8hpp.html" target="_top" xlink:title=" ">
<polygon fill="none" stroke="black" points="132,-313.5 132,-343.5 228,-343.5 228,-313.5 132,-313.5"/>
<text text-anchor="start" x="140" y="-331.5" font-family="Helvetica,sans-Serif" font-size="10.00">yaclib/util/detail</text>
<text text-anchor="middle" x="180" y="-320.5" font-family="Helvetica,sans-Serif" font-size="10.00">/default_event.hpp</text>
</a>
</g>
</g>
<!-- Node28&#45;&gt;Node30 -->
<g id="edge62" class="edge">
<title>Node28&#45;&gt;Node30</title>
<path fill="none" stroke="midnightblue" d="M341.96,-452.97C311.58,-445.59 271.77,-432.61 242,-411 220.68,-395.53 203.27,-370.66 192.39,-352.46"/>
<polygon fill="midnightblue" stroke="midnightblue" points="195.33,-350.55 187.3,-343.64 189.26,-354.05 195.33,-350.55"/>
</g>
<!-- Node29&#45;&gt;Node3 -->
<g id="edge46" class="edge">
<title>Node29&#45;&gt;Node3</title>
<path fill="none" stroke="midnightblue" d="M523.68,-384.18C567.75,-373.99 637.03,-357.96 697,-344 698.27,-343.7 699.56,-343.4 700.86,-343.1"/>
<polygon fill="midnightblue" stroke="midnightblue" points="701.99,-346.43 710.94,-340.75 700.4,-339.61 701.99,-346.43"/>
</g>
<!-- Node29&#45;&gt;Node9 -->
<g id="edge59" class="edge">
<title>Node29&#45;&gt;Node9</title>
<path fill="none" stroke="midnightblue" d="M523.54,-388.58C572.66,-381.03 647.03,-366.23 664,-344 672.36,-333.05 672.17,-324.09 664,-313 631.98,-269.54 580.02,-320.46 548,-277 539.83,-265.91 539.76,-257.05 548,-246 610.37,-162.35 671.53,-203.3 773,-179 859.56,-158.27 894.31,-189.83 970,-143 992.51,-129.07 1009.2,-102.74 1018.52,-85.02"/>
<polygon fill="midnightblue" stroke="midnightblue" points="1021.81,-86.26 1023.14,-75.75 1015.55,-83.14 1021.81,-86.26"/>
</g>
<!-- Node29&#45;&gt;Node18 -->
<g id="edge56" class="edge">
<title>Node29&#45;&gt;Node18</title>
<path fill="none" stroke="midnightblue" d="M523.58,-388.76C588.24,-380.23 711.69,-363.13 816,-344 935.61,-322.06 1075.29,-289.98 1145.62,-273.37"/>
<polygon fill="midnightblue" stroke="midnightblue" points="1146.55,-276.74 1155.48,-271.03 1144.94,-269.93 1146.55,-276.74"/>
</g>
<!-- Node29&#45;&gt;Node24 -->
<g id="edge47" class="edge">
<title>Node29&#45;&gt;Node24</title>
<path fill="none" stroke="midnightblue" d="M505.91,-380.4C523.86,-370.98 547.67,-358.5 567.22,-348.26"/>
<polygon fill="midnightblue" stroke="midnightblue" points="568.91,-351.32 576.15,-343.58 565.66,-345.12 568.91,-351.32"/>
</g>
<!-- Node29&#45;&gt;Node26 -->
<g id="edge57" class="edge">
<title>Node29&#45;&gt;Node26</title>
<path fill="none" stroke="midnightblue" d="M434.31,-389.58C405.29,-383.8 369.55,-371.26 351,-344 338.3,-325.33 344.07,-298.41 350.28,-280.7"/>
<polygon fill="midnightblue" stroke="midnightblue" points="353.68,-281.6 354.03,-271.01 347.15,-279.07 353.68,-281.6"/>
</g>
<!-- Node29&#45;&gt;Node30 -->
<g id="edge48" class="edge">
<title>Node29&#45;&gt;Node30</title>
<path fill="none" stroke="midnightblue" d="M434.24,-384.77C381.98,-373.41 295.43,-354.59 238.05,-342.12"/>
<polygon fill="midnightblue" stroke="midnightblue" points="238.56,-338.65 228.04,-339.94 237.07,-345.49 238.56,-338.65"/>
</g>
<!-- Node35 -->
<g id="node35" class="node">
<title>Node35</title>
<g id="a_node35"><a xlink:href="set__one__deleter_8hpp.html" target="_top" xlink:title=" ">
<polygon fill="none" stroke="black" points="425.5,-313.5 425.5,-343.5 532.5,-343.5 532.5,-313.5 425.5,-313.5"/>
<text text-anchor="start" x="433.5" y="-331.5" font-family="Helvetica,sans-Serif" font-size="10.00">yaclib/util/detail</text>
<text text-anchor="middle" x="479" y="-320.5" font-family="Helvetica,sans-Serif" font-size="10.00">/set_one_deleter.hpp</text>
</a>
</g>
</g>
<!-- Node29&#45;&gt;Node35 -->
<g id="edge55" class="edge">
<title>Node29&#45;&gt;Node35</title>
<path fill="none" stroke="midnightblue" d="M479,-380.4C479,-372.64 479,-362.81 479,-353.86"/>
<polygon fill="midnightblue" stroke="midnightblue" points="482.5,-353.58 479,-343.58 475.5,-353.58 482.5,-353.58"/>
</g>
<!-- Node36 -->
<g id="node36" class="node">
<title>Node36</title>
<g id="a_node36"><a xlink:title=" ">
<polygon fill="none" stroke="#bfbfbf" points="360.5,-319 360.5,-338 407.5,-338 407.5,-319 360.5,-319"/>
<text text-anchor="middle" x="384" y="-326" font-family="Helvetica,sans-Serif" font-size="10.00">iterator</text>
</a>
</g>
</g>
<!-- Node29&#45;&gt;Node36 -->
<g id="edge58" class="edge">
<title>Node29&#45;&gt;Node36</title>
<path fill="none" stroke="midnightblue" d="M458.39,-380.4C442.6,-369.6 420.91,-354.76 405.03,-343.89"/>
<polygon fill="midnightblue" stroke="midnightblue" points="406.66,-340.77 396.43,-338.01 402.71,-346.54 406.66,-340.77"/>
</g>
<!-- Node30&#45;&gt;Node25 -->
<g id="edge49" class="edge">
<title>Node30&#45;&gt;Node25</title>
<path fill="none" stroke="midnightblue" d="M199.96,-313.4C215.25,-302.6 236.25,-287.76 251.64,-276.89"/>
<polygon fill="midnightblue" stroke="midnightblue" points="253.81,-279.64 259.96,-271.01 249.77,-273.92 253.81,-279.64"/>
</g>
<!-- Node31 -->
<g id="node31" class="node">
<title>Node31</title>
<g id="a_node31"><a xlink:href="mutex__event_8hpp.html" target="_top" xlink:title=" ">
<polygon fill="none" stroke="black" points="117.5,-246.5 117.5,-276.5 210.5,-276.5 210.5,-246.5 117.5,-246.5"/>
<text text-anchor="start" x="125.5" y="-264.5" font-family="Helvetica,sans-Serif" font-size="10.00">yaclib/util/detail</text>
<text text-anchor="middle" x="164" y="-253.5" font-family="Helvetica,sans-Serif" font-size="10.00">/mutex_event.hpp</text>
</a>
</g>
</g>
<!-- Node30&#45;&gt;Node31 -->
<g id="edge50" class="edge">
<title>Node30&#45;&gt;Node31</title>
<path fill="none" stroke="midnightblue" d="M176.53,-313.4C174.6,-305.56 172.15,-295.6 169.92,-286.57"/>
<polygon fill="midnightblue" stroke="midnightblue" points="173.25,-285.45 167.46,-276.58 166.46,-287.12 173.25,-285.45"/>
</g>
<!-- Node31&#45;&gt;Node8 -->
<g id="edge51" class="edge">
<title>Node31&#45;&gt;Node8</title>
<path fill="none" stroke="midnightblue" d="M178.37,-246.38C199.7,-225.67 239.05,-188.47 256,-179 363.79,-118.75 507.16,-88.11 584.3,-75.05"/>
<polygon fill="midnightblue" stroke="midnightblue" points="584.99,-78.48 594.28,-73.39 583.84,-71.57 584.99,-78.48"/>
</g>
<!-- Node32 -->
<g id="node32" class="node">
<title>Node32</title>
<g id="a_node32"><a xlink:title=" ">
<polygon fill="none" stroke="#bfbfbf" points="265,-185 265,-204 311,-204 311,-185 265,-185"/>
<text text-anchor="middle" x="288" y="-192" font-family="Helvetica,sans-Serif" font-size="10.00">chrono</text>
</a>
</g>
</g>
<!-- Node31&#45;&gt;Node32 -->
<g id="edge52" class="edge">
<title>Node31&#45;&gt;Node32</title>
<path fill="none" stroke="midnightblue" d="M190.91,-246.4C212.28,-235.19 241.95,-219.64 262.85,-208.69"/>
<polygon fill="midnightblue" stroke="midnightblue" points="264.54,-211.75 271.77,-204.01 261.29,-205.55 264.54,-211.75"/>
</g>
<!-- Node33 -->
<g id="node33" class="node">
<title>Node33</title>
<g id="a_node33"><a xlink:title=" ">
<polygon fill="none" stroke="#bfbfbf" points="0,-179.5 0,-209.5 102,-209.5 102,-179.5 0,-179.5"/>
<text text-anchor="start" x="8" y="-197.5" font-family="Helvetica,sans-Serif" font-size="10.00">yaclib_std/condition</text>
<text text-anchor="middle" x="51" y="-186.5" font-family="Helvetica,sans-Serif" font-size="10.00">_variable</text>
</a>
</g>
</g>
<!-- Node31&#45;&gt;Node33 -->
<g id="edge53" class="edge">
<title>Node31&#45;&gt;Node33</title>
<path fill="none" stroke="midnightblue" d="M139.48,-246.4C123.34,-237.11 102.01,-224.84 84.33,-214.67"/>
<polygon fill="midnightblue" stroke="midnightblue" points="85.88,-211.53 75.47,-209.58 82.39,-217.6 85.88,-211.53"/>
</g>
<!-- Node34 -->
<g id="node34" class="node">
<title>Node34</title>
<g id="a_node34"><a xlink:title=" ">
<polygon fill="none" stroke="#bfbfbf" points="119.5,-185 119.5,-204 208.5,-204 208.5,-185 119.5,-185"/>
<text text-anchor="middle" x="164" y="-192" font-family="Helvetica,sans-Serif" font-size="10.00">yaclib_std/mutex</text>
</a>
</g>
</g>
<!-- Node31&#45;&gt;Node34 -->
<g id="edge54" class="edge">
<title>Node31&#45;&gt;Node34</title>
<path fill="none" stroke="midnightblue" d="M164,-246.4C164,-237.06 164,-224.71 164,-214.52"/>
<polygon fill="midnightblue" stroke="midnightblue" points="167.5,-214.19 164,-204.19 160.5,-214.19 167.5,-214.19"/>
</g>
<!-- Node37&#45;&gt;Node2 -->
<g id="edge65" class="edge">
<title>Node37&#45;&gt;Node2</title>
<path fill="none" stroke="midnightblue" d="M1020.88,-447.4C1018.56,-439.47 1015.61,-429.38 1012.95,-420.27"/>
<polygon fill="midnightblue" stroke="midnightblue" points="1016.28,-419.19 1010.11,-410.58 1009.56,-421.16 1016.28,-419.19"/>
</g>
<!-- Node37&#45;&gt;Node24 -->
<g id="edge66" class="edge">
<title>Node37&#45;&gt;Node24</title>
<path fill="none" stroke="midnightblue" d="M1002.66,-447.47C987.31,-437.64 966.6,-423.97 949,-411 931.46,-398.06 930.87,-388.96 911,-380 899.88,-374.99 751.94,-352.03 665.21,-338.86"/>
<polygon fill="midnightblue" stroke="midnightblue" points="665.62,-335.38 655.21,-337.34 664.57,-342.3 665.62,-335.38"/>
</g>
</g>
</svg>
        <g id="navigator" transform="translate(0 0)" fill="#404254">
                <rect fill="#f2f5e9" fill-opacity="0.5" stroke="#606060" stroke-width=".5" x="0" y="0" width="60" height="60"/>
                <use id="zoomplus" xlink:href="#zoomPlus" x="17" y="9" onmousedown="handleZoom(evt,'in')"/>
                <use id="zoomminus" xlink:href="#zoomMin" x="42" y="9" onmousedown="handleZoom(evt,'out')"/>
                <use id="reset" xlink:href="#resetDef" x="30" y="36" onmousedown="handleReset()"/>
                <g id="arrowUp" xlink:href="#dirArrow" transform="translate(30 24)" onmousedown="handlePan(0,-1)">
                  <use xlink:href="#rim" fill="#404040">
                        <set attributeName="fill" to="#808080" begin="arrowUp.mouseover" end="arrowUp.mouseout"/>
                  </use>
                  <path fill="none" stroke="white" stroke-width="1.5" d="M0,-3.0v7 M-2.5,-0.5L0,-3.0L2.5,-0.5"/>
                </g>
                <g id="arrowRight" xlink:href="#dirArrow" transform="rotate(90) translate(36 -43)" onmousedown="handlePan(1,0)">
                  <use xlink:href="#rim" fill="#404040">
                        <set attributeName="fill" to="#808080" begin="arrowRight.mouseover" end="arrowRight.mouseout"/>
                  </use>
                  <path fill="none" stroke="white" stroke-width="1.5" d="M0,-3.0v7 M-2.5,-0.5L0,-3.0L2.5,-0.5"/>
                </g>
                <g id="arrowDown" xlink:href="#dirArrow" transform="rotate(180) translate(-30 -48)" onmousedown="handlePan(0,1)">
                  <use xlink:href="#rim" fill="#404040">
                        <set attributeName="fill" to="#808080" begin="arrowDown.mouseover" end="arrowDown.mouseout"/>
                  </use>
                  <path fill="none" stroke="white" stroke-width="1.5" d="M0,-3.0v7 M-2.5,-0.5L0,-3.0L2.5,-0.5"/>
                </g>
                <g id="arrowLeft" xlink:href="#dirArrow" transform="rotate(270) translate(-36 17)" onmousedown="handlePan(-1,0)">
                  <use xlink:href="#rim" fill="#404040">
                        <set attributeName="fill" to="#808080" begin="arrowLeft.mouseover" end="arrowLeft.mouseout"/>
                  </use>
                  <path fill="none" stroke="white" stroke-width="1.5" d="M0,-3.0v7 M-2.5,-0.5L0,-3.0L2.5,-0.5"/>
                </g>
        </g>
        <svg viewBox="0 0 15 15" width="100%" height="30px" preserveAspectRatio="xMaxYMin meet">
         <g id="arrow_out" transform="scale(0.3 0.3)">
          <a xlink:href="future_8hpp__incl_org.svg" target="_base">
           <rect id="button" ry="5" rx="5" y="6" x="6" height="38" width="38"
                fill="#f2f5e9" fill-opacity="0.5" stroke="#606060" stroke-width="1.0"/>
           <path id="arrow"
             d="M 11.500037,31.436501 C 11.940474,20.09759 22.043105,11.32322 32.158766,21.979434 L 37.068811,17.246167 C 37.068811,17.246167 37.088388,32 37.088388,32 L 22.160133,31.978069 C 22.160133,31.978069 26.997745,27.140456 26.997745,27.140456 C 18.528582,18.264221 13.291696,25.230495 11.500037,31.436501 z"
             style="fill:#404040;"/>
          </a>
         </g>
        </svg>
</svg>
