<?xml version="1.0" encoding="UTF-8" standalone="no"?>
<!DOCTYPE svg PUBLIC "-//W3C//DTD SVG 1.1//EN"
 "http://www.w3.org/Graphics/SVG/1.1/DTD/svg11.dtd">
<!-- Generated by graphviz version 3.0.0 (20220413.0106)
 -->
<!-- Title: include/yaclib/async/detail/future_impl.hpp Pages: 1 -->
<svg width="1419pt" height="307pt"
 viewBox="0.00 0.00 1418.50 307.00" xmlns="http://www.w3.org/2000/svg" xmlns:xlink="http://www.w3.org/1999/xlink">
<g id="graph0" class="graph" transform="scale(1 1) rotate(0) translate(4 303)">
<title>include/yaclib/async/detail/future_impl.hpp</title>
<!-- Node1 -->
<g id="node1" class="node">
<title>Node1</title>
<g id="a_node1"><a xlink:title=" ">
<polygon fill="#bfbfbf" stroke="black" points="270,-268.5 270,-298.5 382,-298.5 382,-268.5 270,-268.5"/>
<text text-anchor="start" x="278" y="-286.5" font-family="Helvetica,sans-Serif" font-size="10.00">include/yaclib/async</text>
<text text-anchor="middle" x="326" y="-275.5" font-family="Helvetica,sans-Serif" font-size="10.00">/detail/future_impl.hpp</text>
</a>
</g>
</g>
<!-- Node2 -->
<g id="node2" class="node">
<title>Node2</title>
<g id="a_node2"><a xlink:href="future_8hpp.html" target="_top" xlink:title=" ">
<polygon fill="none" stroke="black" points="551,-201.5 551,-231.5 655,-231.5 655,-201.5 551,-201.5"/>
<text text-anchor="start" x="559" y="-219.5" font-family="Helvetica,sans-Serif" font-size="10.00">include/yaclib/async</text>
<text text-anchor="middle" x="603" y="-208.5" font-family="Helvetica,sans-Serif" font-size="10.00">/future.hpp</text>
</a>
</g>
</g>
<!-- Node1&#45;&gt;Node2 -->
<g id="edge1" class="edge">
<title>Node1&#45;&gt;Node2</title>
<path fill="none" stroke="midnightblue" d="M391.85,-267.05C440.47,-255.64 505.74,-240.32 550.78,-229.75"/>
<polygon fill="midnightblue" stroke="midnightblue" points="390.99,-263.65 382.06,-269.35 392.59,-270.47 390.99,-263.65"/>
</g>
<!-- Node3 -->
<g id="node3" class="node">
<title>Node3</title>
<g id="a_node3"><a xlink:href="when__impl_8hpp.html" target="_top" xlink:title=" ">
<polygon fill="none" stroke="black" points="548,-134.5 548,-164.5 658,-164.5 658,-134.5 548,-134.5"/>
<text text-anchor="start" x="556" y="-152.5" font-family="Helvetica,sans-Serif" font-size="10.00">include/yaclib/algo</text>
<text text-anchor="middle" x="603" y="-141.5" font-family="Helvetica,sans-Serif" font-size="10.00">/detail/when_impl.hpp</text>
</a>
</g>
</g>
<!-- Node2&#45;&gt;Node3 -->
<g id="edge2" class="edge">
<title>Node2&#45;&gt;Node3</title>
<path fill="none" stroke="midnightblue" d="M603,-191.11C603,-182.15 603,-172.32 603,-164.58"/>
<polygon fill="midnightblue" stroke="midnightblue" points="599.5,-191.4 603,-201.4 606.5,-191.4 599.5,-191.4"/>
</g>
<!-- Node4 -->
<g id="node4" class="node">
<title>Node4</title>
<g id="a_node4"><a xlink:href="when__all_8hpp.html" target="_top" xlink:title=" ">
<polygon fill="none" stroke="black" points="392,-67.5 392,-97.5 488,-97.5 488,-67.5 392,-67.5"/>
<text text-anchor="start" x="400" y="-85.5" font-family="Helvetica,sans-Serif" font-size="10.00">include/yaclib/algo</text>
<text text-anchor="middle" x="440" y="-74.5" font-family="Helvetica,sans-Serif" font-size="10.00">/when_all.hpp</text>
</a>
</g>
</g>
<!-- Node2&#45;&gt;Node4 -->
<g id="edge13" class="edge">
<title>Node2&#45;&gt;Node4</title>
<path fill="none" stroke="midnightblue" d="M540.88,-205.98C495.37,-197.58 439.18,-183.76 425,-165 410.08,-145.26 421.98,-115.25 431.4,-97.69"/>
<polygon fill="midnightblue" stroke="midnightblue" points="540.54,-209.47 551,-207.79 541.77,-202.58 540.54,-209.47"/>
</g>
<!-- Node6 -->
<g id="node6" class="node">
<title>Node6</title>
<g id="a_node6"><a xlink:href="when__any_8hpp.html" target="_top" xlink:title=" ">
<polygon fill="none" stroke="black" points="555,-67.5 555,-97.5 651,-97.5 651,-67.5 555,-67.5"/>
<text text-anchor="start" x="563" y="-85.5" font-family="Helvetica,sans-Serif" font-size="10.00">include/yaclib/algo</text>
<text text-anchor="middle" x="603" y="-74.5" font-family="Helvetica,sans-Serif" font-size="10.00">/when_any.hpp</text>
</a>
</g>
</g>
<!-- Node2&#45;&gt;Node6 -->
<g id="edge14" class="edge">
<title>Node2&#45;&gt;Node6</title>
<path fill="none" stroke="midnightblue" d="M665.12,-205.98C710.63,-197.58 766.82,-183.76 781,-165 817.78,-116.33 715.47,-95.84 651.04,-87.94"/>
<polygon fill="midnightblue" stroke="midnightblue" points="664.23,-202.58 655,-207.79 665.46,-209.47 664.23,-202.58"/>
</g>
<!-- Node8 -->
<g id="node8" class="node">
<title>Node8</title>
<g id="a_node8"><a xlink:href="wait_8hpp.html" target="_top" xlink:title=" ">
<polygon fill="none" stroke="black" points="0,-134.5 0,-164.5 96,-164.5 96,-134.5 0,-134.5"/>
<text text-anchor="start" x="8" y="-152.5" font-family="Helvetica,sans-Serif" font-size="10.00">include/yaclib/algo</text>
<text text-anchor="middle" x="48" y="-141.5" font-family="Helvetica,sans-Serif" font-size="10.00">/wait.hpp</text>
</a>
</g>
</g>
<!-- Node2&#45;&gt;Node8 -->
<g id="edge7" class="edge">
<title>Node2&#45;&gt;Node8</title>
<path fill="none" stroke="midnightblue" d="M540.69,-212.15C445.99,-206.4 260.43,-192.49 105,-165 102.08,-164.48 99.1,-163.9 96.09,-163.27"/>
<polygon fill="midnightblue" stroke="midnightblue" points="540.48,-215.65 550.67,-212.75 540.9,-208.66 540.48,-215.65"/>
</g>
<!-- Node9 -->
<g id="node9" class="node">
<title>Node9</title>
<g id="a_node9"><a xlink:href="wait__for_8hpp.html" target="_top" xlink:title=" ">
<polygon fill="none" stroke="black" points="434,-134.5 434,-164.5 530,-164.5 530,-134.5 434,-134.5"/>
<text text-anchor="start" x="442" y="-152.5" font-family="Helvetica,sans-Serif" font-size="10.00">include/yaclib/algo</text>
<text text-anchor="middle" x="482" y="-141.5" font-family="Helvetica,sans-Serif" font-size="10.00">/wait_for.hpp</text>
</a>
</g>
</g>
<!-- Node2&#45;&gt;Node9 -->
<g id="edge9" class="edge">
<title>Node2&#45;&gt;Node9</title>
<path fill="none" stroke="midnightblue" d="M567.77,-196.57C548.74,-186.35 525.63,-173.94 508.2,-164.58"/>
<polygon fill="midnightblue" stroke="midnightblue" points="566.28,-199.75 576.74,-201.4 569.59,-193.58 566.28,-199.75"/>
</g>
<!-- Node10 -->
<g id="node10" class="node">
<title>Node10</title>
<g id="a_node10"><a xlink:href="wait__group_8hpp.html" target="_top" xlink:title=" ">
<polygon fill="none" stroke="black" points="828,-134.5 828,-164.5 924,-164.5 924,-134.5 828,-134.5"/>
<text text-anchor="start" x="836" y="-152.5" font-family="Helvetica,sans-Serif" font-size="10.00">include/yaclib/algo</text>
<text text-anchor="middle" x="876" y="-141.5" font-family="Helvetica,sans-Serif" font-size="10.00">/wait_group.hpp</text>
</a>
</g>
</g>
<!-- Node2&#45;&gt;Node10 -->
<g id="edge10" class="edge">
<title>Node2&#45;&gt;Node10</title>
<path fill="none" stroke="midnightblue" d="M665.25,-200.68C714.65,-188.92 782.72,-172.71 827.98,-161.93"/>
<polygon fill="midnightblue" stroke="midnightblue" points="664.23,-197.32 655.31,-203.04 665.85,-204.13 664.23,-197.32"/>
</g>
<!-- Node12 -->
<g id="node12" class="node">
<title>Node12</title>
<g id="a_node12"><a xlink:href="wait__until_8hpp.html" target="_top" xlink:title=" ">
<polygon fill="none" stroke="black" points="676,-134.5 676,-164.5 772,-164.5 772,-134.5 676,-134.5"/>
<text text-anchor="start" x="684" y="-152.5" font-family="Helvetica,sans-Serif" font-size="10.00">include/yaclib/algo</text>
<text text-anchor="middle" x="724" y="-141.5" font-family="Helvetica,sans-Serif" font-size="10.00">/wait_until.hpp</text>
</a>
</g>
</g>
<!-- Node2&#45;&gt;Node12 -->
<g id="edge12" class="edge">
<title>Node2&#45;&gt;Node12</title>
<path fill="none" stroke="midnightblue" d="M638.23,-196.57C657.26,-186.35 680.37,-173.94 697.8,-164.58"/>
<polygon fill="midnightblue" stroke="midnightblue" points="636.41,-193.58 629.26,-201.4 639.72,-199.75 636.41,-193.58"/>
</g>
<!-- Node13 -->
<g id="node13" class="node">
<title>Node13</title>
<g id="a_node13"><a xlink:href="contract_8hpp.html" target="_top" xlink:title=" ">
<polygon fill="none" stroke="black" points="114,-134.5 114,-164.5 218,-164.5 218,-134.5 114,-134.5"/>
<text text-anchor="start" x="122" y="-152.5" font-family="Helvetica,sans-Serif" font-size="10.00">include/yaclib/async</text>
<text text-anchor="middle" x="166" y="-141.5" font-family="Helvetica,sans-Serif" font-size="10.00">/contract.hpp</text>
</a>
</g>
</g>
<!-- Node2&#45;&gt;Node13 -->
<g id="edge15" class="edge">
<title>Node2&#45;&gt;Node13</title>
<path fill="none" stroke="midnightblue" d="M540.81,-208.59C466.92,-200.03 340.04,-184.19 232,-165 227.5,-164.2 222.83,-163.31 218.16,-162.37"/>
<polygon fill="midnightblue" stroke="midnightblue" points="540.54,-212.09 550.87,-209.75 541.34,-205.13 540.54,-212.09"/>
</g>
<!-- Node14 -->
<g id="node14" class="node">
<title>Node14</title>
<g id="a_node14"><a xlink:href="simple_8cpp.html" target="_top" xlink:title=" ">
<polygon fill="none" stroke="black" points="195.5,-67.5 195.5,-97.5 296.5,-97.5 296.5,-67.5 195.5,-67.5"/>
<text text-anchor="start" x="203.5" y="-85.5" font-family="Helvetica,sans-Serif" font-size="10.00">test/example/async</text>
<text text-anchor="middle" x="246" y="-74.5" font-family="Helvetica,sans-Serif" font-size="10.00">/simple.cpp</text>
</a>
</g>
</g>
<!-- Node2&#45;&gt;Node14 -->
<g id="edge27" class="edge">
<title>Node2&#45;&gt;Node14</title>
<path fill="none" stroke="midnightblue" d="M540.56,-214.32C454.09,-211.37 304.08,-201.05 265,-165 246.31,-147.76 244.29,-116.01 244.89,-97.64"/>
<polygon fill="midnightblue" stroke="midnightblue" points="540.68,-217.83 550.78,-214.65 540.9,-210.83 540.68,-217.83"/>
</g>
<!-- Node15 -->
<g id="node15" class="node">
<title>Node15</title>
<g id="a_node15"><a xlink:href="run_8hpp.html" target="_top" xlink:title=" ">
<polygon fill="none" stroke="black" points="274,-134.5 274,-164.5 378,-164.5 378,-134.5 274,-134.5"/>
<text text-anchor="start" x="282" y="-152.5" font-family="Helvetica,sans-Serif" font-size="10.00">include/yaclib/async</text>
<text text-anchor="middle" x="326" y="-141.5" font-family="Helvetica,sans-Serif" font-size="10.00">/run.hpp</text>
</a>
</g>
</g>
<!-- Node2&#45;&gt;Node15 -->
<g id="edge17" class="edge">
<title>Node2&#45;&gt;Node15</title>
<path fill="none" stroke="midnightblue" d="M541.06,-200.97C492.13,-189.48 424.6,-173.64 378.34,-162.78"/>
<polygon fill="midnightblue" stroke="midnightblue" points="540.36,-204.4 550.9,-203.27 541.96,-197.58 540.36,-204.4"/>
</g>
<!-- Node16 -->
<g id="node16" class="node">
<title>Node16</title>
<g id="a_node16"><a xlink:href="await_8hpp.html" target="_top" xlink:title=" ">
<polygon fill="none" stroke="black" points="1175,-67.5 1175,-97.5 1293,-97.5 1293,-67.5 1175,-67.5"/>
<text text-anchor="start" x="1183" y="-85.5" font-family="Helvetica,sans-Serif" font-size="10.00">include/yaclib/coroutine</text>
<text text-anchor="middle" x="1234" y="-74.5" font-family="Helvetica,sans-Serif" font-size="10.00">/await.hpp</text>
</a>
</g>
</g>
<!-- Node2&#45;&gt;Node16 -->
<g id="edge21" class="edge">
<title>Node2&#45;&gt;Node16</title>
<path fill="none" stroke="midnightblue" d="M665.29,-214.45C812.77,-211.41 1174.02,-200.37 1215,-165 1234.36,-148.29 1236.08,-116.04 1235.26,-97.51"/>
<polygon fill="midnightblue" stroke="midnightblue" points="664.98,-210.96 655.05,-214.66 665.12,-217.96 664.98,-210.96"/>
</g>
<!-- Node17 -->
<g id="node17" class="node">
<title>Node17</title>
<g id="a_node17"><a xlink:href="await__awaiter_8hpp.html" target="_top" xlink:title=" ">
<polygon fill="none" stroke="black" points="1262,-134.5 1262,-164.5 1386,-164.5 1386,-134.5 1262,-134.5"/>
<text text-anchor="start" x="1270" y="-152.5" font-family="Helvetica,sans-Serif" font-size="10.00">include/yaclib/coroutine</text>
<text text-anchor="middle" x="1324" y="-141.5" font-family="Helvetica,sans-Serif" font-size="10.00">/detail/await_awaiter.hpp</text>
</a>
</g>
</g>
<!-- Node2&#45;&gt;Node17 -->
<g id="edge22" class="edge">
<title>Node2&#45;&gt;Node17</title>
<path fill="none" stroke="midnightblue" d="M665.09,-212.92C780.37,-207.63 1035.11,-193.55 1248,-165 1252.53,-164.39 1257.19,-163.69 1261.88,-162.93"/>
<polygon fill="midnightblue" stroke="midnightblue" points="664.87,-209.43 655.04,-213.38 665.19,-216.42 664.87,-209.43"/>
</g>
<!-- Node19 -->
<g id="node19" class="node">
<title>Node19</title>
<g id="a_node19"><a xlink:href="future__traits_8hpp.html" target="_top" xlink:title=" ">
<polygon fill="none" stroke="black" points="942,-134.5 942,-164.5 1060,-164.5 1060,-134.5 942,-134.5"/>
<text text-anchor="start" x="950" y="-152.5" font-family="Helvetica,sans-Serif" font-size="10.00">include/yaclib/coroutine</text>
<text text-anchor="middle" x="1001" y="-141.5" font-family="Helvetica,sans-Serif" font-size="10.00">/future_traits.hpp</text>
</a>
</g>
</g>
<!-- Node2&#45;&gt;Node19 -->
<g id="edge25" class="edge">
<title>Node2&#45;&gt;Node19</title>
<path fill="none" stroke="midnightblue" d="M665.47,-207.04C731.97,-197.79 840.19,-181.98 933,-165 935.85,-164.48 938.76,-163.93 941.7,-163.36"/>
<polygon fill="midnightblue" stroke="midnightblue" points="664.59,-203.63 655.17,-208.47 665.55,-210.57 664.59,-203.63"/>
</g>
<!-- Node20 -->
<g id="node20" class="node">
<title>Node20</title>
<g id="a_node20"><a xlink:href="future__impl_8cpp.html" target="_top" xlink:title=" ">
<polygon fill="none" stroke="black" points="1078,-140 1078,-159 1206,-159 1206,-140 1078,-140"/>
<text text-anchor="middle" x="1142" y="-147" font-family="Helvetica,sans-Serif" font-size="10.00">src/async/future_impl.cpp</text>
</a>
</g>
</g>
<!-- Node2&#45;&gt;Node20 -->
<g id="edge26" class="edge">
<title>Node2&#45;&gt;Node20</title>
<path fill="none" stroke="midnightblue" d="M665.25,-210.51C754.83,-202.93 925.13,-187.04 1069,-165 1079.86,-163.34 1091.55,-161.18 1102.33,-159.04"/>
<polygon fill="midnightblue" stroke="midnightblue" points="664.93,-207.03 655.26,-211.35 665.52,-214 664.93,-207.03"/>
</g>
<!-- Node3&#45;&gt;Node4 -->
<g id="edge3" class="edge">
<title>Node3&#45;&gt;Node4</title>
<path fill="none" stroke="midnightblue" d="M558.32,-130.68C532.17,-120.26 499.63,-107.28 475.3,-97.58"/>
<polygon fill="midnightblue" stroke="midnightblue" points="557.05,-133.94 567.63,-134.4 559.64,-127.44 557.05,-133.94"/>
</g>
<!-- Node3&#45;&gt;Node6 -->
<g id="edge5" class="edge">
<title>Node3&#45;&gt;Node6</title>
<path fill="none" stroke="midnightblue" d="M603,-124.11C603,-115.15 603,-105.32 603,-97.58"/>
<polygon fill="midnightblue" stroke="midnightblue" points="599.5,-124.4 603,-134.4 606.5,-124.4 599.5,-124.4"/>
</g>
<!-- Node5 -->
<g id="node5" class="node">
<title>Node5</title>
<g id="a_node5"><a xlink:href="when__all_8cpp.html" target="_top" xlink:title=" ">
<polygon fill="none" stroke="black" points="332.5,-0.5 332.5,-30.5 433.5,-30.5 433.5,-0.5 332.5,-0.5"/>
<text text-anchor="start" x="340.5" y="-18.5" font-family="Helvetica,sans-Serif" font-size="10.00">test/example/async</text>
<text text-anchor="middle" x="383" y="-7.5" font-family="Helvetica,sans-Serif" font-size="10.00">/when_all.cpp</text>
</a>
</g>
</g>
<!-- Node4&#45;&gt;Node5 -->
<g id="edge4" class="edge">
<title>Node4&#45;&gt;Node5</title>
<path fill="none" stroke="midnightblue" d="M420.91,-59.74C412.48,-50.12 402.81,-39.09 395.34,-30.58"/>
<polygon fill="midnightblue" stroke="midnightblue" points="418.41,-62.18 427.63,-67.4 423.67,-57.57 418.41,-62.18"/>
</g>
<!-- Node7 -->
<g id="node7" class="node">
<title>Node7</title>
<g id="a_node7"><a xlink:href="when__any_8cpp.html" target="_top" xlink:title=" ">
<polygon fill="none" stroke="black" points="501.5,-0.5 501.5,-30.5 602.5,-30.5 602.5,-0.5 501.5,-0.5"/>
<text text-anchor="start" x="509.5" y="-18.5" font-family="Helvetica,sans-Serif" font-size="10.00">test/example/async</text>
<text text-anchor="middle" x="552" y="-7.5" font-family="Helvetica,sans-Serif" font-size="10.00">/when_any.cpp</text>
</a>
</g>
</g>
<!-- Node6&#45;&gt;Node7 -->
<g id="edge6" class="edge">
<title>Node6&#45;&gt;Node7</title>
<path fill="none" stroke="midnightblue" d="M585.7,-59.45C578.21,-49.9 569.66,-39 563.04,-30.58"/>
<polygon fill="midnightblue" stroke="midnightblue" points="583.01,-61.69 591.93,-67.4 588.51,-57.37 583.01,-61.69"/>
</g>
<!-- Node8&#45;&gt;Node1 -->
<g id="edge8" class="edge">
<title>Node8&#45;&gt;Node1</title>
<path fill="none" stroke="midnightblue" d="M86.88,-168.96C143.15,-195.68 246.05,-244.54 296.51,-268.5"/>
<polygon fill="midnightblue" stroke="midnightblue" points="88.14,-165.68 77.6,-164.56 85.14,-172.01 88.14,-165.68"/>
</g>
<!-- Node11 -->
<g id="node11" class="node">
<title>Node11</title>
<g id="a_node11"><a xlink:href="wait__group_8cpp.html" target="_top" xlink:title=" ">
<polygon fill="none" stroke="black" points="816.5,-73 816.5,-92 935.5,-92 935.5,-73 816.5,-73"/>
<text text-anchor="middle" x="876" y="-80" font-family="Helvetica,sans-Serif" font-size="10.00">src/algo/wait_group.cpp</text>
</a>
</g>
</g>
<!-- Node10&#45;&gt;Node11 -->
<g id="edge11" class="edge">
<title>Node10&#45;&gt;Node11</title>
<path fill="none" stroke="midnightblue" d="M876,-124.25C876,-113.02 876,-100.38 876,-92.19"/>
<polygon fill="midnightblue" stroke="midnightblue" points="872.5,-124.4 876,-134.4 879.5,-124.4 872.5,-124.4"/>
</g>
<!-- Node13&#45;&gt;Node14 -->
<g id="edge16" class="edge">
<title>Node13&#45;&gt;Node14</title>
<path fill="none" stroke="midnightblue" d="M191.37,-127.88C203.53,-118.01 217.78,-106.43 228.68,-97.58"/>
<polygon fill="midnightblue" stroke="midnightblue" points="188.91,-125.37 183.36,-134.4 193.33,-130.81 188.91,-125.37"/>
</g>
<!-- Node15&#45;&gt;Node5 -->
<g id="edge19" class="edge">
<title>Node15&#45;&gt;Node5</title>
<path fill="none" stroke="midnightblue" d="M331.17,-124.23C335.18,-107.66 341.48,-85.45 350,-67 355.97,-54.07 364.91,-40.62 371.98,-30.86"/>
<polygon fill="midnightblue" stroke="midnightblue" points="327.71,-123.67 328.88,-134.2 334.53,-125.25 327.71,-123.67"/>
</g>
<!-- Node15&#45;&gt;Node7 -->
<g id="edge20" class="edge">
<title>Node15&#45;&gt;Node7</title>
<path fill="none" stroke="midnightblue" d="M336.75,-125.34C346.4,-106.98 362.24,-81.99 383,-67 417.88,-41.81 465.38,-29.06 501.14,-22.68"/>
<polygon fill="midnightblue" stroke="midnightblue" points="333.51,-123.99 332.15,-134.5 339.76,-127.13 333.51,-123.99"/>
</g>
<!-- Node15&#45;&gt;Node14 -->
<g id="edge18" class="edge">
<title>Node15&#45;&gt;Node14</title>
<path fill="none" stroke="midnightblue" d="M300.63,-127.88C288.47,-118.01 274.22,-106.43 263.32,-97.58"/>
<polygon fill="midnightblue" stroke="midnightblue" points="298.67,-130.81 308.64,-134.4 303.09,-125.37 298.67,-130.81"/>
</g>
<!-- Node17&#45;&gt;Node16 -->
<g id="edge23" class="edge">
<title>Node17&#45;&gt;Node16</title>
<path fill="none" stroke="midnightblue" d="M1296.24,-128.45C1282.39,-118.45 1265.98,-106.6 1253.49,-97.58"/>
<polygon fill="midnightblue" stroke="midnightblue" points="1294.32,-131.38 1304.47,-134.4 1298.41,-125.7 1294.32,-131.38"/>
</g>
<!-- Node18 -->
<g id="node18" class="node">
<title>Node18</title>
<g id="a_node18"><a xlink:href="await__awaiter_8cpp.html" target="_top" xlink:title=" ">
<polygon fill="none" stroke="black" points="1311.5,-67.5 1311.5,-97.5 1410.5,-97.5 1410.5,-67.5 1311.5,-67.5"/>
<text text-anchor="start" x="1319.5" y="-85.5" font-family="Helvetica,sans-Serif" font-size="10.00">src/coroutine/await</text>
<text text-anchor="middle" x="1361" y="-74.5" font-family="Helvetica,sans-Serif" font-size="10.00">_awaiter.cpp</text>
</a>
</g>
</g>
<!-- Node17&#45;&gt;Node18 -->
<g id="edge24" class="edge">
<title>Node17&#45;&gt;Node18</title>
<path fill="none" stroke="midnightblue" d="M1337.05,-125.58C1342.36,-116.24 1348.34,-105.75 1352.99,-97.58"/>
<polygon fill="midnightblue" stroke="midnightblue" points="1333.93,-123.97 1332.03,-134.4 1340.02,-127.44 1333.93,-123.97"/>
</g>
</g>
</svg>
