<?xml version="1.0" encoding="UTF-8" standalone="no"?>
<!DOCTYPE svg PUBLIC "-//W3C//DTD SVG 1.1//EN"
 "http://www.w3.org/Graphics/SVG/1.1/DTD/svg11.dtd">
<!-- Generated by graphviz version 3.0.0 (20220413.0106)
 -->
<!-- Title: include/yaclib/util/helper.hpp Pages: 1 -->
<svg width="649pt" height="285pt"
 viewBox="0.00 0.00 649.00 285.00" xmlns="http://www.w3.org/2000/svg" xmlns:xlink="http://www.w3.org/1999/xlink">
<g id="graph0" class="graph" transform="scale(1 1) rotate(0) translate(4 281)">
<title>include/yaclib/util/helper.hpp</title>
<!-- Node1 -->
<g id="node1" class="node">
<title>Node1</title>
<g id="a_node1"><a xlink:title=" ">
<polygon fill="#bfbfbf" stroke="black" points="242.5,-246.5 242.5,-276.5 333.5,-276.5 333.5,-246.5 242.5,-246.5"/>
<text text-anchor="start" x="250.5" y="-264.5" font-family="Helvetica,sans-Serif" font-size="10.00">include/yaclib/util</text>
<text text-anchor="middle" x="288" y="-253.5" font-family="Helvetica,sans-Serif" font-size="10.00">/helper.hpp</text>
</a>
</g>
</g>
<!-- Node2 -->
<g id="node2" class="node">
<title>Node2</title>
<g id="a_node2"><a xlink:href="atomic__counter_8hpp.html" target="_top" xlink:title=" ">
<polygon fill="none" stroke="black" points="140,-179.5 140,-209.5 244,-209.5 244,-179.5 140,-179.5"/>
<text text-anchor="start" x="148" y="-197.5" font-family="Helvetica,sans-Serif" font-size="10.00">yaclib/util/detail</text>
<text text-anchor="middle" x="192" y="-186.5" font-family="Helvetica,sans-Serif" font-size="10.00">/atomic_counter.hpp</text>
</a>
</g>
</g>
<!-- Node1&#45;&gt;Node2 -->
<g id="edge1" class="edge">
<title>Node1&#45;&gt;Node2</title>
<path fill="none" stroke="midnightblue" d="M267.17,-246.4C253.71,-237.28 236,-225.29 221.15,-215.24"/>
<polygon fill="midnightblue" stroke="midnightblue" points="223.03,-212.28 212.79,-209.58 219.11,-218.08 223.03,-212.28"/>
</g>
<!-- Node7 -->
<g id="node7" class="node">
<title>Node7</title>
<g id="a_node7"><a xlink:href="intrusive__ptr_8hpp.html" target="_top" xlink:title=" ">
<polygon fill="none" stroke="black" points="382.5,-179.5 382.5,-209.5 479.5,-209.5 479.5,-179.5 382.5,-179.5"/>
<text text-anchor="start" x="390.5" y="-197.5" font-family="Helvetica,sans-Serif" font-size="10.00">yaclib/util/intrusive</text>
<text text-anchor="middle" x="431" y="-186.5" font-family="Helvetica,sans-Serif" font-size="10.00">_ptr.hpp</text>
</a>
</g>
</g>
<!-- Node1&#45;&gt;Node7 -->
<g id="edge6" class="edge">
<title>Node1&#45;&gt;Node7</title>
<path fill="none" stroke="midnightblue" d="M319.03,-246.4C340.02,-236.86 367.94,-224.16 390.65,-213.84"/>
<polygon fill="midnightblue" stroke="midnightblue" points="392.38,-216.9 400.03,-209.58 389.48,-210.53 392.38,-216.9"/>
</g>
<!-- Node3 -->
<g id="node3" class="node">
<title>Node3</title>
<g id="a_node3"><a xlink:title=" ">
<polygon fill="none" stroke="#bfbfbf" points="0,-118 0,-137 88,-137 88,-118 0,-118"/>
<text text-anchor="middle" x="44" y="-125" font-family="Helvetica,sans-Serif" font-size="10.00">yaclib/config.hpp</text>
</a>
</g>
</g>
<!-- Node2&#45;&gt;Node3 -->
<g id="edge2" class="edge">
<title>Node2&#45;&gt;Node3</title>
<path fill="none" stroke="midnightblue" d="M159.89,-179.4C133.92,-167.99 97.69,-152.08 72.68,-141.1"/>
<polygon fill="midnightblue" stroke="midnightblue" points="73.93,-137.82 63.37,-137.01 71.12,-144.23 73.93,-137.82"/>
</g>
<!-- Node4 -->
<g id="node4" class="node">
<title>Node4</title>
<g id="a_node4"><a xlink:title=" ">
<polygon fill="none" stroke="#bfbfbf" points="105.5,-118 105.5,-137 154.5,-137 154.5,-118 105.5,-118"/>
<text text-anchor="middle" x="130" y="-125" font-family="Helvetica,sans-Serif" font-size="10.00">cstddef</text>
</a>
</g>
</g>
<!-- Node2&#45;&gt;Node4 -->
<g id="edge3" class="edge">
<title>Node2&#45;&gt;Node4</title>
<path fill="none" stroke="midnightblue" d="M178.55,-179.4C168.78,-169.16 155.56,-155.3 145.38,-144.62"/>
<polygon fill="midnightblue" stroke="midnightblue" points="147.73,-142.01 138.29,-137.19 142.66,-146.85 147.73,-142.01"/>
</g>
<!-- Node5 -->
<g id="node5" class="node">
<title>Node5</title>
<g id="a_node5"><a xlink:title=" ">
<polygon fill="none" stroke="#bfbfbf" points="172.5,-118 172.5,-137 211.5,-137 211.5,-118 172.5,-118"/>
<text text-anchor="middle" x="192" y="-125" font-family="Helvetica,sans-Serif" font-size="10.00">utility</text>
</a>
</g>
</g>
<!-- Node2&#45;&gt;Node5 -->
<g id="edge4" class="edge">
<title>Node2&#45;&gt;Node5</title>
<path fill="none" stroke="midnightblue" d="M192,-179.4C192,-170.06 192,-157.71 192,-147.52"/>
<polygon fill="midnightblue" stroke="midnightblue" points="195.5,-147.19 192,-137.19 188.5,-147.19 195.5,-147.19"/>
</g>
<!-- Node6 -->
<g id="node6" class="node">
<title>Node6</title>
<g id="a_node6"><a xlink:title=" ">
<polygon fill="none" stroke="#bfbfbf" points="230,-118 230,-137 322,-137 322,-118 230,-118"/>
<text text-anchor="middle" x="276" y="-125" font-family="Helvetica,sans-Serif" font-size="10.00">yaclib_std/atomic</text>
</a>
</g>
</g>
<!-- Node2&#45;&gt;Node6 -->
<g id="edge5" class="edge">
<title>Node2&#45;&gt;Node6</title>
<path fill="none" stroke="midnightblue" d="M210.23,-179.4C223.97,-168.76 242.78,-154.2 256.77,-143.38"/>
<polygon fill="midnightblue" stroke="midnightblue" points="259,-146.08 264.76,-137.19 254.71,-140.55 259,-146.08"/>
</g>
<!-- Node8 -->
<g id="node8" class="node">
<title>Node8</title>
<g id="a_node8"><a xlink:href="ref_8hpp.html" target="_top" xlink:title=" ">
<polygon fill="none" stroke="black" points="340.5,-118 340.5,-137 429.5,-137 429.5,-118 340.5,-118"/>
<text text-anchor="middle" x="385" y="-125" font-family="Helvetica,sans-Serif" font-size="10.00">yaclib/util/ref.hpp</text>
</a>
</g>
</g>
<!-- Node7&#45;&gt;Node8 -->
<g id="edge7" class="edge">
<title>Node7&#45;&gt;Node8</title>
<path fill="none" stroke="midnightblue" d="M421.02,-179.4C413.99,-169.46 404.54,-156.11 397.08,-145.57"/>
<polygon fill="midnightblue" stroke="midnightblue" points="399.79,-143.34 391.15,-137.19 394.07,-147.38 399.79,-143.34"/>
</g>
<!-- Node9 -->
<g id="node9" class="node">
<title>Node9</title>
<g id="a_node9"><a xlink:title=" ">
<polygon fill="none" stroke="#bfbfbf" points="447,-118 447,-137 509,-137 509,-118 447,-118"/>
<text text-anchor="middle" x="478" y="-125" font-family="Helvetica,sans-Serif" font-size="10.00">type_traits</text>
</a>
</g>
</g>
<!-- Node7&#45;&gt;Node9 -->
<g id="edge8" class="edge">
<title>Node7&#45;&gt;Node9</title>
<path fill="none" stroke="midnightblue" d="M441.2,-179.4C448.38,-169.46 458.04,-156.11 465.66,-145.57"/>
<polygon fill="midnightblue" stroke="midnightblue" points="468.69,-147.35 471.71,-137.19 463.02,-143.25 468.69,-147.35"/>
</g>
<!-- Node10 -->
<g id="node10" class="node">
<title>Node10</title>
<g id="a_node10"><a xlink:href="intrusive__ptr__impl_8hpp.html" target="_top" xlink:title=" ">
<polygon fill="none" stroke="black" points="527,-112.5 527,-142.5 641,-142.5 641,-112.5 527,-112.5"/>
<text text-anchor="start" x="535" y="-130.5" font-family="Helvetica,sans-Serif" font-size="10.00">yaclib/util/detail</text>
<text text-anchor="middle" x="584" y="-119.5" font-family="Helvetica,sans-Serif" font-size="10.00">/intrusive_ptr_impl.hpp</text>
</a>
</g>
</g>
<!-- Node7&#45;&gt;Node10 -->
<g id="edge9" class="edge">
<title>Node7&#45;&gt;Node10</title>
<path fill="none" stroke="midnightblue" d="M464.2,-179.4C486.85,-169.77 517.07,-156.94 541.48,-146.56"/>
<polygon fill="midnightblue" stroke="midnightblue" points="543.03,-149.71 550.87,-142.58 540.29,-143.27 543.03,-149.71"/>
</g>
<!-- Node11 -->
<g id="node11" class="node">
<title>Node11</title>
<g id="a_node11"><a xlink:href="log_8hpp.html" target="_top" xlink:title=" ">
<polygon fill="none" stroke="black" points="546.5,-56.5 546.5,-75.5 621.5,-75.5 621.5,-56.5 546.5,-56.5"/>
<text text-anchor="middle" x="584" y="-63.5" font-family="Helvetica,sans-Serif" font-size="10.00">yaclib/log.hpp</text>
</a>
</g>
</g>
<!-- Node10&#45;&gt;Node11 -->
<g id="edge10" class="edge">
<title>Node10&#45;&gt;Node11</title>
<path fill="none" stroke="midnightblue" d="M584,-112.4C584,-104.47 584,-94.46 584,-85.86"/>
<polygon fill="midnightblue" stroke="midnightblue" points="587.5,-85.66 584,-75.66 580.5,-85.66 587.5,-85.66"/>
</g>
<!-- Node12 -->
<g id="node12" class="node">
<title>Node12</title>
<g id="a_node12"><a xlink:title=" ">
<polygon fill="none" stroke="#bfbfbf" points="551,-0.5 551,-19.5 617,-19.5 617,-0.5 551,-0.5"/>
<text text-anchor="middle" x="584" y="-7.5" font-family="Helvetica,sans-Serif" font-size="10.00">string_view</text>
</a>
</g>
</g>
<!-- Node11&#45;&gt;Node12 -->
<g id="edge11" class="edge">
<title>Node11&#45;&gt;Node12</title>
<path fill="none" stroke="midnightblue" d="M584,-56.08C584,-49.01 584,-38.86 584,-29.99"/>
<polygon fill="midnightblue" stroke="midnightblue" points="587.5,-29.75 584,-19.75 580.5,-29.75 587.5,-29.75"/>
</g>
</g>
</svg>
