<?xml version="1.0" encoding="UTF-8" standalone="no"?>
<!DOCTYPE svg PUBLIC "-//W3C//DTD SVG 1.1//EN"
 "http://www.w3.org/Graphics/SVG/1.1/DTD/svg11.dtd">
<!-- Generated by graphviz version 3.0.0 (20220413.0106)
 -->
<!-- Title: include/yaclib/util/helper.hpp Pages: 1 -->
<!--zoomable 307 -->
<svg id="main" version="1.1" xmlns="http://www.w3.org/2000/svg" xmlns:xlink="http://www.w3.org/1999/xlink" xml:space="preserve" onload="init(evt)">
<style type="text/css"><![CDATA[
.edge:hover path { stroke: red; }
.edge:hover polygon { stroke: red; fill: red; }
]]></style>
<script type="text/javascript"><![CDATA[
var edges = document.getElementsByTagName('g');
if (edges && edges.length) {
  for (var i=0;i<edges.length;i++) {
    if (edges[i].id.substr(0,4)=='edge') {
      edges[i].setAttribute('class','edge');
    }
  }
}
]]></script>
        <defs>
                <circle id="rim" cx="0" cy="0" r="7"/>
                <circle id="rim2" cx="0" cy="0" r="3.5"/>
                <g id="zoomPlus">
                        <use xlink:href="#rim" fill="#404040">
                                <set attributeName="fill" to="#808080" begin="zoomplus.mouseover" end="zoomplus.mouseout"/>
                        </use>
                        <path d="M-4,0h8M0,-4v8" fill="none" stroke="white" stroke-width="1.5" pointer-events="none"/>
                </g>
                <g id="zoomMin">
                        <use xlink:href="#rim" fill="#404040">
                                <set attributeName="fill" to="#808080" begin="zoomminus.mouseover" end="zoomminus.mouseout"/>
                        </use>
                        <path d="M-4,0h8" fill="none" stroke="white" stroke-width="1.5" pointer-events="none"/>
                </g>
                <g id="dirArrow">
                        <path fill="none" stroke="white" stroke-width="1.5" d="M0,-3.0v7 M-2.5,-0.5L0,-3.0L2.5,-0.5"/>
                </g>
               <g id="resetDef">
                       <use xlink:href="#rim2" fill="#404040">
                               <set attributeName="fill" to="#808080" begin="reset.mouseover" end="reset.mouseout"/>
                       </use>
               </g>
        </defs>

<script type="text/javascript">
var viewWidth = 1698;
var viewHeight = 307;
var sectionId = 'dynsection-1';
</script>
<script xlink:href="svgpan.js"/>
<svg id="graph" class="graph">
<g id="viewport">
<title>include/yaclib/util/helper.hpp</title>
<!-- Node1 -->
<g id="node1" class="node">
<title>Node1</title>
<g id="a_node1"><a xlink:title=" ">
<polygon fill="#bfbfbf" stroke="black" points="1411.5,-268.5 1411.5,-298.5 1502.5,-298.5 1502.5,-268.5 1411.5,-268.5"/>
<text text-anchor="start" x="1419.5" y="-286.5" font-family="Helvetica,sans-Serif" font-size="10.00">include/yaclib/util</text>
<text text-anchor="middle" x="1457" y="-275.5" font-family="Helvetica,sans-Serif" font-size="10.00">/helper.hpp</text>
</a>
</g>
</g>
<!-- Node2 -->
<g id="node2" class="node">
<title>Node2</title>
<g id="a_node2"><a xlink:href="future_8hpp.html" target="_top" xlink:title=" ">
<polygon fill="none" stroke="black" points="678,-201.5 678,-231.5 782,-231.5 782,-201.5 678,-201.5"/>
<text text-anchor="start" x="686" y="-219.5" font-family="Helvetica,sans-Serif" font-size="10.00">include/yaclib/async</text>
<text text-anchor="middle" x="730" y="-208.5" font-family="Helvetica,sans-Serif" font-size="10.00">/future.hpp</text>
</a>
</g>
</g>
<!-- Node1&#45;&gt;Node2 -->
<g id="edge1" class="edge">
<title>Node1&#45;&gt;Node2</title>
<path fill="none" stroke="midnightblue" d="M1401,-277.49C1264.24,-265.27 914.78,-234.02 782.13,-222.16"/>
<polygon fill="midnightblue" stroke="midnightblue" points="1400.98,-281 1411.25,-278.41 1401.6,-274.03 1400.98,-281"/>
</g>
<!-- Node22 -->
<g id="node22" class="node">
<title>Node22</title>
<g id="a_node22"><a xlink:href="shared__func_8hpp.html" target="_top" xlink:title=" ">
<polygon fill="none" stroke="black" points="1398.5,-201.5 1398.5,-231.5 1515.5,-231.5 1515.5,-201.5 1398.5,-201.5"/>
<text text-anchor="start" x="1406.5" y="-219.5" font-family="Helvetica,sans-Serif" font-size="10.00">include/yaclib/util</text>
<text text-anchor="middle" x="1457" y="-208.5" font-family="Helvetica,sans-Serif" font-size="10.00">/detail/shared_func.hpp</text>
</a>
</g>
</g>
<!-- Node1&#45;&gt;Node22 -->
<g id="edge29" class="edge">
<title>Node1&#45;&gt;Node22</title>
<path fill="none" stroke="midnightblue" d="M1457,-258.11C1457,-249.15 1457,-239.32 1457,-231.58"/>
<polygon fill="midnightblue" stroke="midnightblue" points="1453.5,-258.4 1457,-268.4 1460.5,-258.4 1453.5,-258.4"/>
</g>
<!-- Node25 -->
<g id="node25" class="node">
<title>Node25</title>
<g id="a_node25"><a xlink:href="src_2executor_2thread__pool_8cpp.html" target="_top" xlink:title=" ">
<polygon fill="none" stroke="black" points="1358,-0.5 1358,-30.5 1458,-30.5 1458,-0.5 1358,-0.5"/>
<text text-anchor="start" x="1366" y="-18.5" font-family="Helvetica,sans-Serif" font-size="10.00">src/executor/thread</text>
<text text-anchor="middle" x="1408" y="-7.5" font-family="Helvetica,sans-Serif" font-size="10.00">_pool.cpp</text>
</a>
</g>
</g>
<!-- Node1&#45;&gt;Node25 -->
<g id="edge42" class="edge">
<title>Node1&#45;&gt;Node25</title>
<path fill="none" stroke="midnightblue" d="M1418.66,-262.75C1407.32,-254.83 1396.27,-244.57 1390,-232 1355.66,-163.12 1387.86,-66.37 1402.05,-30.55"/>
<polygon fill="midnightblue" stroke="midnightblue" points="1417.02,-265.85 1427.31,-268.34 1420.81,-259.97 1417.02,-265.85"/>
</g>
<!-- Node28 -->
<g id="node28" class="node">
<title>Node28</title>
<g id="a_node28"><a xlink:href="thread__factory_8cpp.html" target="_top" xlink:title=" ">
<polygon fill="none" stroke="black" points="1479,-67.5 1479,-97.5 1579,-97.5 1579,-67.5 1479,-67.5"/>
<text text-anchor="start" x="1487" y="-85.5" font-family="Helvetica,sans-Serif" font-size="10.00">src/executor/thread</text>
<text text-anchor="middle" x="1529" y="-74.5" font-family="Helvetica,sans-Serif" font-size="10.00">_factory.cpp</text>
</a>
</g>
</g>
<!-- Node1&#45;&gt;Node28 -->
<g id="edge41" class="edge">
<title>Node1&#45;&gt;Node28</title>
<path fill="none" stroke="midnightblue" d="M1495.7,-262.76C1507.2,-254.85 1518.46,-244.58 1525,-232 1548.08,-187.61 1538.48,-125.22 1532.47,-97.6"/>
<polygon fill="midnightblue" stroke="midnightblue" points="1493.49,-260.02 1486.94,-268.35 1497.25,-265.92 1493.49,-260.02"/>
</g>
<!-- Node29 -->
<g id="node29" class="node">
<title>Node29</title>
<g id="a_node29"><a xlink:href="src_2executor_2strand_8cpp.html" target="_top" xlink:title=" ">
<polygon fill="none" stroke="black" points="1572,-207 1572,-226 1690,-226 1690,-207 1572,-207"/>
<text text-anchor="middle" x="1631" y="-214" font-family="Helvetica,sans-Serif" font-size="10.00">src/executor/strand.cpp</text>
</a>
</g>
</g>
<!-- Node1&#45;&gt;Node29 -->
<g id="edge40" class="edge">
<title>Node1&#45;&gt;Node29</title>
<path fill="none" stroke="midnightblue" d="M1504.42,-264.78C1538.16,-252.18 1581.99,-235.81 1608.23,-226.01"/>
<polygon fill="midnightblue" stroke="midnightblue" points="1502.9,-261.62 1494.76,-268.4 1505.35,-268.18 1502.9,-261.62"/>
</g>
<!-- Node3 -->
<g id="node3" class="node">
<title>Node3</title>
<g id="a_node3"><a xlink:href="when__impl_8hpp.html" target="_top" xlink:title=" ">
<polygon fill="none" stroke="black" points="929,-134.5 929,-164.5 1039,-164.5 1039,-134.5 929,-134.5"/>
<text text-anchor="start" x="937" y="-152.5" font-family="Helvetica,sans-Serif" font-size="10.00">include/yaclib/algo</text>
<text text-anchor="middle" x="984" y="-141.5" font-family="Helvetica,sans-Serif" font-size="10.00">/detail/when_impl.hpp</text>
</a>
</g>
</g>
<!-- Node2&#45;&gt;Node3 -->
<g id="edge2" class="edge">
<title>Node2&#45;&gt;Node3</title>
<path fill="none" stroke="midnightblue" d="M791.83,-199.68C833.72,-188.96 888.6,-174.91 928.98,-164.58"/>
<polygon fill="midnightblue" stroke="midnightblue" points="790.83,-196.32 782.01,-202.19 792.57,-203.1 790.83,-196.32"/>
</g>
<!-- Node4 -->
<g id="node4" class="node">
<title>Node4</title>
<g id="a_node4"><a xlink:href="when__all_8hpp.html" target="_top" xlink:title=" ">
<polygon fill="none" stroke="black" points="861,-67.5 861,-97.5 957,-97.5 957,-67.5 861,-67.5"/>
<text text-anchor="start" x="869" y="-85.5" font-family="Helvetica,sans-Serif" font-size="10.00">include/yaclib/algo</text>
<text text-anchor="middle" x="909" y="-74.5" font-family="Helvetica,sans-Serif" font-size="10.00">/when_all.hpp</text>
</a>
</g>
</g>
<!-- Node2&#45;&gt;Node4 -->
<g id="edge14" class="edge">
<title>Node2&#45;&gt;Node4</title>
<path fill="none" stroke="midnightblue" d="M748.87,-193.52C767.06,-172.67 793.58,-143.21 806,-134 826.32,-118.93 851.82,-106.39 872.37,-97.57"/>
<polygon fill="midnightblue" stroke="midnightblue" points="746.04,-191.45 742.13,-201.3 751.32,-196.04 746.04,-191.45"/>
</g>
<!-- Node6 -->
<g id="node6" class="node">
<title>Node6</title>
<g id="a_node6"><a xlink:href="when__any_8hpp.html" target="_top" xlink:title=" ">
<polygon fill="none" stroke="black" points="975,-67.5 975,-97.5 1071,-97.5 1071,-67.5 975,-67.5"/>
<text text-anchor="start" x="983" y="-85.5" font-family="Helvetica,sans-Serif" font-size="10.00">include/yaclib/algo</text>
<text text-anchor="middle" x="1023" y="-74.5" font-family="Helvetica,sans-Serif" font-size="10.00">/when_any.hpp</text>
</a>
</g>
</g>
<!-- Node2&#45;&gt;Node6 -->
<g id="edge15" class="edge">
<title>Node2&#45;&gt;Node6</title>
<path fill="none" stroke="midnightblue" d="M792.54,-212.71C906.35,-206.98 1137.87,-192.11 1162,-165 1171.16,-154.71 1169.91,-145.28 1162,-134 1156.36,-125.96 1107.82,-109.49 1069.66,-97.54"/>
<polygon fill="midnightblue" stroke="midnightblue" points="792.05,-209.23 782.24,-213.22 792.4,-216.22 792.05,-209.23"/>
</g>
<!-- Node8 -->
<g id="node8" class="node">
<title>Node8</title>
<g id="a_node8"><a xlink:href="wait_8hpp.html" target="_top" xlink:title=" ">
<polygon fill="none" stroke="black" points="587,-134.5 587,-164.5 683,-164.5 683,-134.5 587,-134.5"/>
<text text-anchor="start" x="595" y="-152.5" font-family="Helvetica,sans-Serif" font-size="10.00">include/yaclib/algo</text>
<text text-anchor="middle" x="635" y="-141.5" font-family="Helvetica,sans-Serif" font-size="10.00">/wait.hpp</text>
</a>
</g>
</g>
<!-- Node2&#45;&gt;Node8 -->
<g id="edge7" class="edge">
<title>Node2&#45;&gt;Node8</title>
<path fill="none" stroke="midnightblue" d="M701.11,-195.73C686.41,-185.68 668.89,-173.68 655.57,-164.58"/>
<polygon fill="midnightblue" stroke="midnightblue" points="699.16,-198.64 709.39,-201.4 703.11,-192.86 699.16,-198.64"/>
</g>
<!-- Node10 -->
<g id="node10" class="node">
<title>Node10</title>
<g id="a_node10"><a xlink:href="wait__for_8hpp.html" target="_top" xlink:title=" ">
<polygon fill="none" stroke="black" points="815,-134.5 815,-164.5 911,-164.5 911,-134.5 815,-134.5"/>
<text text-anchor="start" x="823" y="-152.5" font-family="Helvetica,sans-Serif" font-size="10.00">include/yaclib/algo</text>
<text text-anchor="middle" x="863" y="-141.5" font-family="Helvetica,sans-Serif" font-size="10.00">/wait_for.hpp</text>
</a>
</g>
</g>
<!-- Node2&#45;&gt;Node10 -->
<g id="edge10" class="edge">
<title>Node2&#45;&gt;Node10</title>
<path fill="none" stroke="midnightblue" d="M767.87,-196.99C788.95,-186.69 814.78,-174.07 834.2,-164.58"/>
<polygon fill="midnightblue" stroke="midnightblue" points="766.31,-193.86 758.86,-201.4 769.38,-200.15 766.31,-193.86"/>
</g>
<!-- Node11 -->
<g id="node11" class="node">
<title>Node11</title>
<g id="a_node11"><a xlink:href="wait__group_8hpp.html" target="_top" xlink:title=" ">
<polygon fill="none" stroke="black" points="1209,-134.5 1209,-164.5 1305,-164.5 1305,-134.5 1209,-134.5"/>
<text text-anchor="start" x="1217" y="-152.5" font-family="Helvetica,sans-Serif" font-size="10.00">include/yaclib/algo</text>
<text text-anchor="middle" x="1257" y="-141.5" font-family="Helvetica,sans-Serif" font-size="10.00">/wait_group.hpp</text>
</a>
</g>
</g>
<!-- Node2&#45;&gt;Node11 -->
<g id="edge11" class="edge">
<title>Node2&#45;&gt;Node11</title>
<path fill="none" stroke="midnightblue" d="M792.22,-211.16C881.74,-204.37 1051.83,-189.42 1195,-165 1199.47,-164.24 1204.09,-163.35 1208.72,-162.39"/>
<polygon fill="midnightblue" stroke="midnightblue" points="791.95,-207.67 782.24,-211.91 792.47,-214.65 791.95,-207.67"/>
</g>
<!-- Node13 -->
<g id="node13" class="node">
<title>Node13</title>
<g id="a_node13"><a xlink:href="wait__until_8hpp.html" target="_top" xlink:title=" ">
<polygon fill="none" stroke="black" points="1057,-134.5 1057,-164.5 1153,-164.5 1153,-134.5 1057,-134.5"/>
<text text-anchor="start" x="1065" y="-152.5" font-family="Helvetica,sans-Serif" font-size="10.00">include/yaclib/algo</text>
<text text-anchor="middle" x="1105" y="-141.5" font-family="Helvetica,sans-Serif" font-size="10.00">/wait_until.hpp</text>
</a>
</g>
</g>
<!-- Node2&#45;&gt;Node13 -->
<g id="edge13" class="edge">
<title>Node2&#45;&gt;Node13</title>
<path fill="none" stroke="midnightblue" d="M792.02,-207.37C856.33,-198.53 959.65,-183.21 1048,-165 1050.9,-164.4 1053.87,-163.75 1056.87,-163.07"/>
<polygon fill="midnightblue" stroke="midnightblue" points="791.47,-203.91 782.04,-208.73 792.42,-210.84 791.47,-203.91"/>
</g>
<!-- Node14 -->
<g id="node14" class="node">
<title>Node14</title>
<g id="a_node14"><a xlink:href="contract_8hpp.html" target="_top" xlink:title=" ">
<polygon fill="none" stroke="black" points="318,-67.5 318,-97.5 422,-97.5 422,-67.5 318,-67.5"/>
<text text-anchor="start" x="326" y="-85.5" font-family="Helvetica,sans-Serif" font-size="10.00">include/yaclib/async</text>
<text text-anchor="middle" x="370" y="-74.5" font-family="Helvetica,sans-Serif" font-size="10.00">/contract.hpp</text>
</a>
</g>
</g>
<!-- Node2&#45;&gt;Node14 -->
<g id="edge16" class="edge">
<title>Node2&#45;&gt;Node14</title>
<path fill="none" stroke="midnightblue" d="M667.53,-213.38C545.48,-208.58 284.9,-194.93 258,-165 232.52,-136.65 281.53,-112.16 322.55,-97.62"/>
<polygon fill="midnightblue" stroke="midnightblue" points="667.71,-216.89 677.84,-213.77 667.98,-209.89 667.71,-216.89"/>
</g>
<!-- Node15 -->
<g id="node15" class="node">
<title>Node15</title>
<g id="a_node15"><a xlink:href="simple_8cpp.html" target="_top" xlink:title=" ">
<polygon fill="none" stroke="black" points="699.5,-0.5 699.5,-30.5 800.5,-30.5 800.5,-0.5 699.5,-0.5"/>
<text text-anchor="start" x="707.5" y="-18.5" font-family="Helvetica,sans-Serif" font-size="10.00">test/example/async</text>
<text text-anchor="middle" x="750" y="-7.5" font-family="Helvetica,sans-Serif" font-size="10.00">/simple.cpp</text>
</a>
</g>
</g>
<!-- Node2&#45;&gt;Node15 -->
<g id="edge28" class="edge">
<title>Node2&#45;&gt;Node15</title>
<path fill="none" stroke="midnightblue" d="M727.23,-191.19C724.49,-161.56 721.77,-110.11 730,-67 732.44,-54.22 738.06,-40.54 742.72,-30.65"/>
<polygon fill="midnightblue" stroke="midnightblue" points="723.78,-191.81 728.26,-201.41 730.74,-191.11 723.78,-191.81"/>
</g>
<!-- Node16 -->
<g id="node16" class="node">
<title>Node16</title>
<g id="a_node16"><a xlink:href="run_8hpp.html" target="_top" xlink:title=" ">
<polygon fill="none" stroke="black" points="739,-67.5 739,-97.5 843,-97.5 843,-67.5 739,-67.5"/>
<text text-anchor="start" x="747" y="-85.5" font-family="Helvetica,sans-Serif" font-size="10.00">include/yaclib/async</text>
<text text-anchor="middle" x="791" y="-74.5" font-family="Helvetica,sans-Serif" font-size="10.00">/run.hpp</text>
</a>
</g>
</g>
<!-- Node2&#45;&gt;Node16 -->
<g id="edge18" class="edge">
<title>Node2&#45;&gt;Node16</title>
<path fill="none" stroke="midnightblue" d="M740.81,-192.12C753.48,-164.68 774.09,-120.09 784.52,-97.52"/>
<polygon fill="midnightblue" stroke="midnightblue" points="737.55,-190.83 736.53,-201.37 743.9,-193.76 737.55,-190.83"/>
</g>
<!-- Node17 -->
<g id="node17" class="node">
<title>Node17</title>
<g id="a_node17"><a xlink:href="await_8hpp.html" target="_top" xlink:title=" ">
<polygon fill="none" stroke="black" points="0,-67.5 0,-97.5 118,-97.5 118,-67.5 0,-67.5"/>
<text text-anchor="start" x="8" y="-85.5" font-family="Helvetica,sans-Serif" font-size="10.00">include/yaclib/coroutine</text>
<text text-anchor="middle" x="59" y="-74.5" font-family="Helvetica,sans-Serif" font-size="10.00">/await.hpp</text>
</a>
</g>
</g>
<!-- Node2&#45;&gt;Node17 -->
<g id="edge22" class="edge">
<title>Node2&#45;&gt;Node17</title>
<path fill="none" stroke="midnightblue" d="M667.47,-214.79C512.9,-212.47 122.1,-202.87 78,-165 58.6,-148.34 56.89,-116.07 57.72,-97.52"/>
<polygon fill="midnightblue" stroke="midnightblue" points="667.7,-218.3 677.75,-214.94 667.8,-211.3 667.7,-218.3"/>
</g>
<!-- Node18 -->
<g id="node18" class="node">
<title>Node18</title>
<g id="a_node18"><a xlink:href="await__awaiter_8hpp.html" target="_top" xlink:title=" ">
<polygon fill="none" stroke="black" points="87,-134.5 87,-164.5 211,-164.5 211,-134.5 87,-134.5"/>
<text text-anchor="start" x="95" y="-152.5" font-family="Helvetica,sans-Serif" font-size="10.00">include/yaclib/coroutine</text>
<text text-anchor="middle" x="149" y="-141.5" font-family="Helvetica,sans-Serif" font-size="10.00">/detail/await_awaiter.hpp</text>
</a>
</g>
</g>
<!-- Node2&#45;&gt;Node18 -->
<g id="edge23" class="edge">
<title>Node2&#45;&gt;Node18</title>
<path fill="none" stroke="midnightblue" d="M667.77,-211.07C572.23,-203.86 383.8,-188.04 225,-165 220.48,-164.34 215.82,-163.61 211.14,-162.82"/>
<polygon fill="midnightblue" stroke="midnightblue" points="667.6,-214.56 677.83,-211.82 668.12,-207.58 667.6,-214.56"/>
</g>
<!-- Node20 -->
<g id="node20" class="node">
<title>Node20</title>
<g id="a_node20"><a xlink:href="future__traits_8hpp.html" target="_top" xlink:title=" ">
<polygon fill="none" stroke="black" points="267,-134.5 267,-164.5 385,-164.5 385,-134.5 267,-134.5"/>
<text text-anchor="start" x="275" y="-152.5" font-family="Helvetica,sans-Serif" font-size="10.00">include/yaclib/coroutine</text>
<text text-anchor="middle" x="326" y="-141.5" font-family="Helvetica,sans-Serif" font-size="10.00">/future_traits.hpp</text>
</a>
</g>
</g>
<!-- Node2&#45;&gt;Node20 -->
<g id="edge26" class="edge">
<title>Node2&#45;&gt;Node20</title>
<path fill="none" stroke="midnightblue" d="M667.69,-207.29C600.09,-198.12 489.09,-182.27 394,-165 391.15,-164.48 388.24,-163.93 385.3,-163.37"/>
<polygon fill="midnightblue" stroke="midnightblue" points="667.37,-210.78 677.75,-208.65 668.3,-203.84 667.37,-210.78"/>
</g>
<!-- Node21 -->
<g id="node21" class="node">
<title>Node21</title>
<g id="a_node21"><a xlink:href="future__impl_8cpp.html" target="_top" xlink:title=" ">
<polygon fill="none" stroke="black" points="403,-140 403,-159 531,-159 531,-140 403,-140"/>
<text text-anchor="middle" x="467" y="-147" font-family="Helvetica,sans-Serif" font-size="10.00">src/async/future_impl.cpp</text>
</a>
</g>
</g>
<!-- Node2&#45;&gt;Node21 -->
<g id="edge27" class="edge">
<title>Node2&#45;&gt;Node21</title>
<path fill="none" stroke="midnightblue" d="M667.95,-200.16C616.01,-187.33 543.81,-169.48 501.58,-159.05"/>
<polygon fill="midnightblue" stroke="midnightblue" points="667.18,-203.58 677.73,-202.58 668.86,-196.78 667.18,-203.58"/>
</g>
<!-- Node3&#45;&gt;Node4 -->
<g id="edge3" class="edge">
<title>Node3&#45;&gt;Node4</title>
<path fill="none" stroke="midnightblue" d="M959.88,-127.6C948.56,-117.78 935.36,-106.34 925.24,-97.58"/>
<polygon fill="midnightblue" stroke="midnightblue" points="957.88,-130.49 967.73,-134.4 962.46,-125.2 957.88,-130.49"/>
</g>
<!-- Node3&#45;&gt;Node6 -->
<g id="edge5" class="edge">
<title>Node3&#45;&gt;Node6</title>
<path fill="none" stroke="midnightblue" d="M997.75,-125.58C1003.36,-116.24 1009.65,-105.75 1014.55,-97.58"/>
<polygon fill="midnightblue" stroke="midnightblue" points="994.61,-124.02 992.46,-134.4 1000.61,-127.62 994.61,-124.02"/>
</g>
<!-- Node5 -->
<g id="node5" class="node">
<title>Node5</title>
<g id="a_node5"><a xlink:href="when__all_8cpp.html" target="_top" xlink:title=" ">
<polygon fill="none" stroke="black" points="855.5,-0.5 855.5,-30.5 956.5,-30.5 956.5,-0.5 855.5,-0.5"/>
<text text-anchor="start" x="863.5" y="-18.5" font-family="Helvetica,sans-Serif" font-size="10.00">test/example/async</text>
<text text-anchor="middle" x="906" y="-7.5" font-family="Helvetica,sans-Serif" font-size="10.00">/when_all.cpp</text>
</a>
</g>
</g>
<!-- Node4&#45;&gt;Node5 -->
<g id="edge4" class="edge">
<title>Node4&#45;&gt;Node5</title>
<path fill="none" stroke="midnightblue" d="M907.89,-57.4C907.47,-48.37 907.01,-38.41 906.65,-30.58"/>
<polygon fill="midnightblue" stroke="midnightblue" points="904.39,-57.57 908.35,-67.4 911.38,-57.25 904.39,-57.57"/>
</g>
<!-- Node7 -->
<g id="node7" class="node">
<title>Node7</title>
<g id="a_node7"><a xlink:href="when__any_8cpp.html" target="_top" xlink:title=" ">
<polygon fill="none" stroke="black" points="974.5,-0.5 974.5,-30.5 1075.5,-30.5 1075.5,-0.5 974.5,-0.5"/>
<text text-anchor="start" x="982.5" y="-18.5" font-family="Helvetica,sans-Serif" font-size="10.00">test/example/async</text>
<text text-anchor="middle" x="1025" y="-7.5" font-family="Helvetica,sans-Serif" font-size="10.00">/when_any.cpp</text>
</a>
</g>
</g>
<!-- Node6&#45;&gt;Node7 -->
<g id="edge6" class="edge">
<title>Node6&#45;&gt;Node7</title>
<path fill="none" stroke="midnightblue" d="M1023.75,-57.11C1024.03,-48.15 1024.33,-38.32 1024.57,-30.58"/>
<polygon fill="midnightblue" stroke="midnightblue" points="1020.24,-57.29 1023.43,-67.4 1027.24,-57.51 1020.24,-57.29"/>
</g>
<!-- Node9 -->
<g id="node9" class="node">
<title>Node9</title>
<g id="a_node9"><a xlink:href="future__impl_8hpp.html" target="_top" xlink:title=" ">
<polygon fill="none" stroke="black" points="537,-67.5 537,-97.5 649,-97.5 649,-67.5 537,-67.5"/>
<text text-anchor="start" x="545" y="-85.5" font-family="Helvetica,sans-Serif" font-size="10.00">include/yaclib/async</text>
<text text-anchor="middle" x="593" y="-74.5" font-family="Helvetica,sans-Serif" font-size="10.00">/detail/future_impl.hpp</text>
</a>
</g>
</g>
<!-- Node8&#45;&gt;Node9 -->
<g id="edge8" class="edge">
<title>Node8&#45;&gt;Node9</title>
<path fill="none" stroke="midnightblue" d="M620.38,-125.87C614.3,-116.46 607.43,-105.83 602.1,-97.58"/>
<polygon fill="midnightblue" stroke="midnightblue" points="617.52,-127.9 625.89,-134.4 623.4,-124.1 617.52,-127.9"/>
</g>
<!-- Node9&#45;&gt;Node2 -->
<g id="edge9" class="edge">
<title>Node9&#45;&gt;Node2</title>
<path fill="none" stroke="midnightblue" d="M580.12,-106.59C572.24,-124.14 565.78,-148.07 578,-165 600.62,-196.34 643.48,-208.54 677.94,-213.14"/>
<polygon fill="midnightblue" stroke="midnightblue" points="583.28,-108.1 584.54,-97.58 576.99,-105.02 583.28,-108.1"/>
</g>
<!-- Node12 -->
<g id="node12" class="node">
<title>Node12</title>
<g id="a_node12"><a xlink:href="wait__group_8cpp.html" target="_top" xlink:title=" ">
<polygon fill="none" stroke="black" points="1089.5,-73 1089.5,-92 1208.5,-92 1208.5,-73 1089.5,-73"/>
<text text-anchor="middle" x="1149" y="-80" font-family="Helvetica,sans-Serif" font-size="10.00">src/algo/wait_group.cpp</text>
</a>
</g>
</g>
<!-- Node11&#45;&gt;Node12 -->
<g id="edge12" class="edge">
<title>Node11&#45;&gt;Node12</title>
<path fill="none" stroke="midnightblue" d="M1224.83,-129.14C1204.31,-116.79 1178.72,-101.39 1163.13,-92.01"/>
<polygon fill="midnightblue" stroke="midnightblue" points="1223.19,-132.24 1233.57,-134.4 1226.8,-126.24 1223.19,-132.24"/>
</g>
<!-- Node14&#45;&gt;Node15 -->
<g id="edge17" class="edge">
<title>Node14&#45;&gt;Node15</title>
<path fill="none" stroke="midnightblue" d="M432.24,-70.85C506.87,-58.09 630.5,-36.94 699.5,-25.14"/>
<polygon fill="midnightblue" stroke="midnightblue" points="431.31,-67.46 422.04,-72.6 432.49,-74.36 431.31,-67.46"/>
</g>
<!-- Node16&#45;&gt;Node5 -->
<g id="edge20" class="edge">
<title>Node16&#45;&gt;Node5</title>
<path fill="none" stroke="midnightblue" d="M824.98,-62.3C842.97,-52.12 864.68,-39.85 881.1,-30.58"/>
<polygon fill="midnightblue" stroke="midnightblue" points="822.94,-59.43 815.95,-67.4 826.38,-65.52 822.94,-59.43"/>
</g>
<!-- Node16&#45;&gt;Node7 -->
<g id="edge21" class="edge">
<title>Node16&#45;&gt;Node7</title>
<path fill="none" stroke="midnightblue" d="M851.43,-64.71C889.51,-54.14 938.11,-40.63 974.2,-30.61"/>
<polygon fill="midnightblue" stroke="midnightblue" points="850.18,-61.43 841.49,-67.48 852.06,-68.17 850.18,-61.43"/>
</g>
<!-- Node16&#45;&gt;Node15 -->
<g id="edge19" class="edge">
<title>Node16&#45;&gt;Node15</title>
<path fill="none" stroke="midnightblue" d="M776.72,-58.87C770.79,-49.46 764.09,-38.83 758.88,-30.58"/>
<polygon fill="midnightblue" stroke="midnightblue" points="773.81,-60.81 782.1,-67.4 779.73,-57.07 773.81,-60.81"/>
</g>
<!-- Node18&#45;&gt;Node17 -->
<g id="edge24" class="edge">
<title>Node18&#45;&gt;Node17</title>
<path fill="none" stroke="midnightblue" d="M121.24,-128.45C107.39,-118.45 90.98,-106.6 78.49,-97.58"/>
<polygon fill="midnightblue" stroke="midnightblue" points="119.32,-131.38 129.47,-134.4 123.41,-125.7 119.32,-131.38"/>
</g>
<!-- Node19 -->
<g id="node19" class="node">
<title>Node19</title>
<g id="a_node19"><a xlink:href="await__awaiter_8cpp.html" target="_top" xlink:title=" ">
<polygon fill="none" stroke="black" points="136.5,-67.5 136.5,-97.5 235.5,-97.5 235.5,-67.5 136.5,-67.5"/>
<text text-anchor="start" x="144.5" y="-85.5" font-family="Helvetica,sans-Serif" font-size="10.00">src/coroutine/await</text>
<text text-anchor="middle" x="186" y="-74.5" font-family="Helvetica,sans-Serif" font-size="10.00">_awaiter.cpp</text>
</a>
</g>
</g>
<!-- Node18&#45;&gt;Node19 -->
<g id="edge25" class="edge">
<title>Node18&#45;&gt;Node19</title>
<path fill="none" stroke="midnightblue" d="M162.05,-125.58C167.36,-116.24 173.34,-105.75 177.99,-97.58"/>
<polygon fill="midnightblue" stroke="midnightblue" points="158.93,-123.97 157.03,-134.4 165.02,-127.44 158.93,-123.97"/>
</g>
<!-- Node23 -->
<g id="node23" class="node">
<title>Node23</title>
<g id="a_node23"><a xlink:href="thread__factory_8hpp.html" target="_top" xlink:title=" ">
<polygon fill="none" stroke="black" points="1399.5,-134.5 1399.5,-164.5 1514.5,-164.5 1514.5,-134.5 1399.5,-134.5"/>
<text text-anchor="start" x="1407.5" y="-152.5" font-family="Helvetica,sans-Serif" font-size="10.00">include/yaclib/executor</text>
<text text-anchor="middle" x="1457" y="-141.5" font-family="Helvetica,sans-Serif" font-size="10.00">/thread_factory.hpp</text>
</a>
</g>
</g>
<!-- Node22&#45;&gt;Node23 -->
<g id="edge30" class="edge">
<title>Node22&#45;&gt;Node23</title>
<path fill="none" stroke="midnightblue" d="M1457,-191.11C1457,-182.15 1457,-172.32 1457,-164.58"/>
<polygon fill="midnightblue" stroke="midnightblue" points="1453.5,-191.4 1457,-201.4 1460.5,-191.4 1453.5,-191.4"/>
</g>
<!-- Node24 -->
<g id="node24" class="node">
<title>Node24</title>
<g id="a_node24"><a xlink:href="thread__pool_8hpp.html" target="_top" xlink:title=" ">
<polygon fill="none" stroke="black" points="1226.5,-67.5 1226.5,-97.5 1341.5,-97.5 1341.5,-67.5 1226.5,-67.5"/>
<text text-anchor="start" x="1234.5" y="-85.5" font-family="Helvetica,sans-Serif" font-size="10.00">include/yaclib/executor</text>
<text text-anchor="middle" x="1284" y="-74.5" font-family="Helvetica,sans-Serif" font-size="10.00">/thread_pool.hpp</text>
</a>
</g>
</g>
<!-- Node23&#45;&gt;Node24 -->
<g id="edge31" class="edge">
<title>Node23&#45;&gt;Node24</title>
<path fill="none" stroke="midnightblue" d="M1409.94,-130.82C1382.13,-120.37 1347.41,-107.32 1321.47,-97.58"/>
<polygon fill="midnightblue" stroke="midnightblue" points="1408.87,-134.16 1419.46,-134.4 1411.33,-127.6 1408.87,-134.16"/>
</g>
<!-- Node23&#45;&gt;Node25 -->
<g id="edge39" class="edge">
<title>Node23&#45;&gt;Node25</title>
<path fill="none" stroke="midnightblue" d="M1448.19,-124.75C1437.99,-97.29 1421.54,-52.99 1413.21,-30.52"/>
<polygon fill="midnightblue" stroke="midnightblue" points="1444.99,-126.22 1451.76,-134.37 1451.56,-123.78 1444.99,-126.22"/>
</g>
<!-- Node23&#45;&gt;Node28 -->
<g id="edge38" class="edge">
<title>Node23&#45;&gt;Node28</title>
<path fill="none" stroke="midnightblue" d="M1480.15,-127.6C1491.02,-117.78 1503.7,-106.34 1513.41,-97.58"/>
<polygon fill="midnightblue" stroke="midnightblue" points="1477.7,-125.1 1472.62,-134.4 1482.39,-130.29 1477.7,-125.1"/>
</g>
<!-- Node24&#45;&gt;Node5 -->
<g id="edge34" class="edge">
<title>Node24&#45;&gt;Node5</title>
<path fill="none" stroke="midnightblue" d="M1216.49,-66.81C1104.93,-47.14 1073.96,-51.71 966,-31 962.95,-30.41 959.82,-29.78 956.67,-29.1"/>
<polygon fill="midnightblue" stroke="midnightblue" points="1216,-70.28 1226.46,-68.59 1217.23,-63.39 1216,-70.28"/>
</g>
<!-- Node24&#45;&gt;Node7 -->
<g id="edge35" class="edge">
<title>Node24&#45;&gt;Node7</title>
<path fill="none" stroke="midnightblue" d="M1218.3,-65.01C1173.94,-53.88 1116.28,-39.41 1075.52,-29.18"/>
<polygon fill="midnightblue" stroke="midnightblue" points="1217.57,-68.44 1228.12,-67.48 1219.27,-61.65 1217.57,-68.44"/>
</g>
<!-- Node24&#45;&gt;Node15 -->
<g id="edge33" class="edge">
<title>Node24&#45;&gt;Node15</title>
<path fill="none" stroke="midnightblue" d="M1216.54,-66.88C1052.64,-41.56 1008.21,-50.86 847,-31 831.87,-29.14 815.47,-26.8 800.53,-24.56"/>
<polygon fill="midnightblue" stroke="midnightblue" points="1216.06,-70.35 1226.48,-68.44 1217.15,-63.44 1216.06,-70.35"/>
</g>
<!-- Node24&#45;&gt;Node25 -->
<g id="edge32" class="edge">
<title>Node24&#45;&gt;Node25</title>
<path fill="none" stroke="midnightblue" d="M1319.84,-62.71C1339.39,-52.46 1363.2,-39.98 1381.15,-30.58"/>
<polygon fill="midnightblue" stroke="midnightblue" points="1318.14,-59.65 1310.91,-67.4 1321.39,-65.85 1318.14,-59.65"/>
</g>
<!-- Node26 -->
<g id="node26" class="node">
<title>Node26</title>
<g id="a_node26"><a xlink:href="test_2example_2executor_2strand_8cpp.html" target="_top" xlink:title=" ">
<polygon fill="none" stroke="black" points="1098,-0.5 1098,-30.5 1210,-30.5 1210,-0.5 1098,-0.5"/>
<text text-anchor="start" x="1106" y="-18.5" font-family="Helvetica,sans-Serif" font-size="10.00">test/example/executor</text>
<text text-anchor="middle" x="1154" y="-7.5" font-family="Helvetica,sans-Serif" font-size="10.00">/strand.cpp</text>
</a>
</g>
</g>
<!-- Node24&#45;&gt;Node26 -->
<g id="edge36" class="edge">
<title>Node24&#45;&gt;Node26</title>
<path fill="none" stroke="midnightblue" d="M1246.71,-62.85C1226.15,-52.58 1201.05,-40.03 1182.15,-30.58"/>
<polygon fill="midnightblue" stroke="midnightblue" points="1245.28,-66.05 1255.79,-67.4 1248.41,-59.79 1245.28,-66.05"/>
</g>
<!-- Node27 -->
<g id="node27" class="node">
<title>Node27</title>
<g id="a_node27"><a xlink:href="test_2example_2executor_2thread__pool_8cpp.html" target="_top" xlink:title=" ">
<polygon fill="none" stroke="black" points="1228,-0.5 1228,-30.5 1340,-30.5 1340,-0.5 1228,-0.5"/>
<text text-anchor="start" x="1236" y="-18.5" font-family="Helvetica,sans-Serif" font-size="10.00">test/example/executor</text>
<text text-anchor="middle" x="1284" y="-7.5" font-family="Helvetica,sans-Serif" font-size="10.00">/thread_pool.cpp</text>
</a>
</g>
</g>
<!-- Node24&#45;&gt;Node27 -->
<g id="edge37" class="edge">
<title>Node24&#45;&gt;Node27</title>
<path fill="none" stroke="midnightblue" d="M1284,-57.11C1284,-48.15 1284,-38.32 1284,-30.58"/>
<polygon fill="midnightblue" stroke="midnightblue" points="1280.5,-57.4 1284,-67.4 1287.5,-57.4 1280.5,-57.4"/>
</g>
</g>
</svg>
        <g id="navigator" transform="translate(0 0)" fill="#404254">
                <rect fill="#f2f5e9" fill-opacity="0.5" stroke="#606060" stroke-width=".5" x="0" y="0" width="60" height="60"/>
                <use id="zoomplus" xlink:href="#zoomPlus" x="17" y="9" onmousedown="handleZoom(evt,'in')"/>
                <use id="zoomminus" xlink:href="#zoomMin" x="42" y="9" onmousedown="handleZoom(evt,'out')"/>
                <use id="reset" xlink:href="#resetDef" x="30" y="36" onmousedown="handleReset()"/>
                <g id="arrowUp" xlink:href="#dirArrow" transform="translate(30 24)" onmousedown="handlePan(0,-1)">
                  <use xlink:href="#rim" fill="#404040">
                        <set attributeName="fill" to="#808080" begin="arrowUp.mouseover" end="arrowUp.mouseout"/>
                  </use>
                  <path fill="none" stroke="white" stroke-width="1.5" d="M0,-3.0v7 M-2.5,-0.5L0,-3.0L2.5,-0.5"/>
                </g>
                <g id="arrowRight" xlink:href="#dirArrow" transform="rotate(90) translate(36 -43)" onmousedown="handlePan(1,0)">
                  <use xlink:href="#rim" fill="#404040">
                        <set attributeName="fill" to="#808080" begin="arrowRight.mouseover" end="arrowRight.mouseout"/>
                  </use>
                  <path fill="none" stroke="white" stroke-width="1.5" d="M0,-3.0v7 M-2.5,-0.5L0,-3.0L2.5,-0.5"/>
                </g>
                <g id="arrowDown" xlink:href="#dirArrow" transform="rotate(180) translate(-30 -48)" onmousedown="handlePan(0,1)">
                  <use xlink:href="#rim" fill="#404040">
                        <set attributeName="fill" to="#808080" begin="arrowDown.mouseover" end="arrowDown.mouseout"/>
                  </use>
                  <path fill="none" stroke="white" stroke-width="1.5" d="M0,-3.0v7 M-2.5,-0.5L0,-3.0L2.5,-0.5"/>
                </g>
                <g id="arrowLeft" xlink:href="#dirArrow" transform="rotate(270) translate(-36 17)" onmousedown="handlePan(-1,0)">
                  <use xlink:href="#rim" fill="#404040">
                        <set attributeName="fill" to="#808080" begin="arrowLeft.mouseover" end="arrowLeft.mouseout"/>
                  </use>
                  <path fill="none" stroke="white" stroke-width="1.5" d="M0,-3.0v7 M-2.5,-0.5L0,-3.0L2.5,-0.5"/>
                </g>
        </g>
        <svg viewBox="0 0 15 15" width="100%" height="30px" preserveAspectRatio="xMaxYMin meet">
         <g id="arrow_out" transform="scale(0.3 0.3)">
          <a xlink:href="helper_8hpp__dep__incl_org.svg" target="_base">
           <rect id="button" ry="5" rx="5" y="6" x="6" height="38" width="38"
                fill="#f2f5e9" fill-opacity="0.5" stroke="#606060" stroke-width="1.0"/>
           <path id="arrow"
             d="M 11.500037,31.436501 C 11.940474,20.09759 22.043105,11.32322 32.158766,21.979434 L 37.068811,17.246167 C 37.068811,17.246167 37.088388,32 37.088388,32 L 22.160133,31.978069 C 22.160133,31.978069 26.997745,27.140456 26.997745,27.140456 C 18.528582,18.264221 13.291696,25.230495 11.500037,31.436501 z"
             style="fill:#404040;"/>
          </a>
         </g>
        </svg>
</svg>
