<?xml version="1.0" encoding="UTF-8" standalone="no"?>
<!DOCTYPE svg PUBLIC "-//W3C//DTD SVG 1.1//EN"
 "http://www.w3.org/Graphics/SVG/1.1/DTD/svg11.dtd">
<!-- Generated by graphviz version 3.0.0 (20220413.0106)
 -->
<!-- Title: Graphical Class Hierarchy Pages: 1 -->
<svg width="1462pt" height="381pt"
 viewBox="0.00 0.00 1462.00 380.50" xmlns="http://www.w3.org/2000/svg" xmlns:xlink="http://www.w3.org/1999/xlink">
<g id="graph0" class="graph" transform="scale(1 1) rotate(0) translate(4 376.5)">
<title>Graphical Class Hierarchy</title>
<!-- Node0 -->
<g id="node1" class="node">
<title>Node0</title>
<g id="a_node1"><a xlink:title=" ">
<polygon fill="none" stroke="#bfbfbf" points="443.5,-298 443.5,-372 574.5,-372 574.5,-298 443.5,-298"/>
<text text-anchor="start" x="451.5" y="-360" font-family="Helvetica,sans-Serif" font-size="10.00">AllCombinatorBase&lt;</text>
<text text-anchor="start" x="451.5" y="-349" font-family="Helvetica,sans-Serif" font-size="10.00"> std::conditional_t</text>
<text text-anchor="start" x="451.5" y="-338" font-family="Helvetica,sans-Serif" font-size="10.00">&lt; std::is_void_v&lt; V &gt;</text>
<text text-anchor="start" x="451.5" y="-327" font-family="Helvetica,sans-Serif" font-size="10.00">, void, std::conditional</text>
<text text-anchor="start" x="451.5" y="-316" font-family="Helvetica,sans-Serif" font-size="10.00">_t&lt; 0 !=0, std::array&lt; V,</text>
<text text-anchor="middle" x="509" y="-305" font-family="Helvetica,sans-Serif" font-size="10.00"> 0 &gt;, std::vector&lt; V &gt; &gt; &gt; &gt;</text>
</a>
</g>
</g>
<!-- Node1 -->
<g id="node2" class="node">
<title>Node1</title>
<g id="a_node2"><a xlink:href="classyaclib_1_1detail_1_1AllCombinator.html" target="_top" xlink:title=" ">
<polygon fill="none" stroke="black" points="618,-309 618,-339 752,-339 752,-309 618,-309"/>
<text text-anchor="start" x="626" y="-327" font-family="Helvetica,sans-Serif" font-size="10.00">yaclib::detail::AllCombinator</text>
<text text-anchor="middle" x="685" y="-316" font-family="Helvetica,sans-Serif" font-size="10.00">&lt; V, E, N, FutureValue &gt;</text>
</a>
</g>
</g>
<!-- Node0&#45;&gt;Node1 -->
<g id="edge1" class="edge">
<title>Node0&#45;&gt;Node1</title>
<path fill="none" stroke="midnightblue" d="M584.83,-330.27C595.86,-329.57 607.16,-328.86 617.99,-328.17"/>
<polygon fill="midnightblue" stroke="midnightblue" points="584.55,-326.78 574.79,-330.9 584.99,-333.77 584.55,-326.78"/>
</g>
<!-- Node4 -->
<g id="node3" class="node">
<title>Node4</title>
<g id="a_node3"><a xlink:href="classyaclib_1_1detail_1_1AnyCombinatorBase.html" target="_top" xlink:title=" ">
<polygon fill="none" stroke="black" points="439,-161 439,-191 579,-191 579,-161 439,-161"/>
<text text-anchor="start" x="447" y="-179" font-family="Helvetica,sans-Serif" font-size="10.00">yaclib::detail::AnyCombinator</text>
<text text-anchor="middle" x="509" y="-168" font-family="Helvetica,sans-Serif" font-size="10.00">Base&lt; V, E, P &gt;</text>
</a>
</g>
</g>
<!-- Node3 -->
<g id="node4" class="node">
<title>Node3</title>
<g id="a_node4"><a xlink:href="classyaclib_1_1detail_1_1AnyCombinator.html" target="_top" xlink:title=" ">
<polygon fill="none" stroke="black" points="615,-186 615,-216 755,-216 755,-186 615,-186"/>
<text text-anchor="start" x="623" y="-204" font-family="Helvetica,sans-Serif" font-size="10.00">yaclib::detail::AnyCombinator</text>
<text text-anchor="middle" x="685" y="-193" font-family="Helvetica,sans-Serif" font-size="10.00">&lt; V, E, P &gt;</text>
</a>
</g>
</g>
<!-- Node4&#45;&gt;Node3 -->
<g id="edge2" class="edge">
<title>Node4&#45;&gt;Node3</title>
<path fill="none" stroke="midnightblue" d="M589.03,-187.36C597.62,-188.59 606.32,-189.84 614.78,-191.05"/>
<polygon fill="midnightblue" stroke="midnightblue" points="589.42,-183.87 579.02,-185.92 588.42,-190.8 589.42,-183.87"/>
</g>
<!-- Node20 -->
<g id="node5" class="node">
<title>Node20</title>
<g id="a_node5"><a xlink:href="classyaclib_1_1IRef.html" target="_top" xlink:title="Reference counting interface.">
<polygon fill="none" stroke="black" points="0,-76.5 0,-95.5 64,-95.5 64,-76.5 0,-76.5"/>
<text text-anchor="middle" x="32" y="-83.5" font-family="Helvetica,sans-Serif" font-size="10.00">yaclib::IRef</text>
</a>
</g>
</g>
<!-- Node21 -->
<g id="node6" class="node">
<title>Node21</title>
<g id="a_node6"><a xlink:href="classyaclib_1_1IExecutor.html" target="_top" xlink:title=" ">
<polygon fill="none" stroke="black" points="121.5,-76.5 121.5,-95.5 207.5,-95.5 207.5,-76.5 121.5,-76.5"/>
<text text-anchor="middle" x="164.5" y="-83.5" font-family="Helvetica,sans-Serif" font-size="10.00">yaclib::IExecutor</text>
</a>
</g>
</g>
<!-- Node20&#45;&gt;Node21 -->
<g id="edge3" class="edge">
<title>Node20&#45;&gt;Node21</title>
<path fill="none" stroke="midnightblue" d="M74.68,-86C89.53,-86 106.25,-86 121.15,-86"/>
<polygon fill="midnightblue" stroke="midnightblue" points="74.26,-82.5 64.26,-86 74.26,-89.5 74.26,-82.5"/>
</g>
<!-- Node19 -->
<g id="node9" class="node">
<title>Node19</title>
<g id="a_node9"><a xlink:href="classyaclib_1_1IFunc.html" target="_top" xlink:title="Callable interface.">
<polygon fill="none" stroke="black" points="129,-215.5 129,-234.5 200,-234.5 200,-215.5 129,-215.5"/>
<text text-anchor="middle" x="164.5" y="-222.5" font-family="Helvetica,sans-Serif" font-size="10.00">yaclib::IFunc</text>
</a>
</g>
</g>
<!-- Node20&#45;&gt;Node19 -->
<g id="edge6" class="edge">
<title>Node20&#45;&gt;Node19</title>
<path fill="none" stroke="midnightblue" d="M38.81,-105.21C47.74,-131.51 67.31,-178.48 100,-205 108.26,-211.7 118.78,-216.17 128.88,-219.14"/>
<polygon fill="midnightblue" stroke="midnightblue" points="42.12,-104.07 35.72,-95.62 35.46,-106.21 42.12,-104.07"/>
</g>
<!-- Node24 -->
<g id="node24" class="node">
<title>Node24</title>
<g id="a_node24"><a xlink:href="classyaclib_1_1IThreadFactory.html" target="_top" xlink:title=" ">
<polygon fill="none" stroke="black" points="109,-38.5 109,-57.5 220,-57.5 220,-38.5 109,-38.5"/>
<text text-anchor="middle" x="164.5" y="-45.5" font-family="Helvetica,sans-Serif" font-size="10.00">yaclib::IThreadFactory</text>
</a>
</g>
</g>
<!-- Node20&#45;&gt;Node24 -->
<g id="edge23" class="edge">
<title>Node20&#45;&gt;Node24</title>
<path fill="none" stroke="midnightblue" d="M74.05,-74.05C92.3,-68.73 113.5,-62.56 130.68,-57.56"/>
<polygon fill="midnightblue" stroke="midnightblue" points="72.88,-70.74 64.26,-76.9 74.84,-77.46 72.88,-70.74"/>
</g>
<!-- Node25 -->
<g id="node25" class="node">
<title>Node25</title>
<g id="a_node25"><a xlink:href="classyaclib_1_1detail_1_1AtomicEvent.html" target="_top" xlink:title=" ">
<polygon fill="none" stroke="black" points="100,-0.5 100,-19.5 229,-19.5 229,-0.5 100,-0.5"/>
<text text-anchor="middle" x="164.5" y="-7.5" font-family="Helvetica,sans-Serif" font-size="10.00">yaclib::detail::AtomicEvent</text>
</a>
</g>
</g>
<!-- Node20&#45;&gt;Node25 -->
<g id="edge24" class="edge">
<title>Node20&#45;&gt;Node25</title>
<path fill="none" stroke="midnightblue" d="M49.13,-68.87C61.87,-56.25 80.67,-39.51 100,-29 106.98,-25.21 114.8,-22.08 122.52,-19.53"/>
<polygon fill="midnightblue" stroke="midnightblue" points="46.54,-66.52 42.03,-76.11 51.53,-71.42 46.54,-66.52"/>
</g>
<!-- Node26 -->
<g id="node26" class="node">
<title>Node26</title>
<g id="a_node26"><a xlink:href="classyaclib_1_1detail_1_1MutexEvent.html" target="_top" xlink:title=" ">
<polygon fill="none" stroke="black" points="102,-119.5 102,-138.5 227,-138.5 227,-119.5 102,-119.5"/>
<text text-anchor="middle" x="164.5" y="-126.5" font-family="Helvetica,sans-Serif" font-size="10.00">yaclib::detail::MutexEvent</text>
</a>
</g>
</g>
<!-- Node20&#45;&gt;Node26 -->
<g id="edge25" class="edge">
<title>Node20&#45;&gt;Node26</title>
<path fill="none" stroke="midnightblue" d="M71.5,-98.69C91.71,-105.34 116.05,-113.37 134.62,-119.48"/>
<polygon fill="midnightblue" stroke="midnightblue" points="72.56,-95.35 61.96,-95.54 70.36,-102 72.56,-95.35"/>
</g>
<!-- Node22 -->
<g id="node7" class="node">
<title>Node22</title>
<g id="a_node7"><a xlink:href="classyaclib_1_1IThreadPool.html" target="_top" xlink:title="Interface for thread&#45;pool&#45;like executors.">
<polygon fill="none" stroke="black" points="285,-35.5 285,-54.5 383,-54.5 383,-35.5 285,-35.5"/>
<text text-anchor="middle" x="334" y="-42.5" font-family="Helvetica,sans-Serif" font-size="10.00">yaclib::IThreadPool</text>
</a>
</g>
</g>
<!-- Node21&#45;&gt;Node22 -->
<g id="edge4" class="edge">
<title>Node21&#45;&gt;Node22</title>
<path fill="none" stroke="midnightblue" d="M214.16,-74.09C239.58,-67.87 270.25,-60.36 294.07,-54.53"/>
<polygon fill="midnightblue" stroke="midnightblue" points="213.23,-70.71 204.35,-76.49 214.89,-77.51 213.23,-70.71"/>
</g>
<!-- Node23 -->
<g id="node8" class="node">
<title>Node23</title>
<g id="a_node8"><a xlink:href="classyaclib_1_1detail_1_1Inline.html" target="_top" xlink:title=" ">
<polygon fill="none" stroke="black" points="285.5,-73.5 285.5,-92.5 382.5,-92.5 382.5,-73.5 285.5,-73.5"/>
<text text-anchor="middle" x="334" y="-80.5" font-family="Helvetica,sans-Serif" font-size="10.00">yaclib::detail::Inline</text>
</a>
</g>
</g>
<!-- Node21&#45;&gt;Node23 -->
<g id="edge5" class="edge">
<title>Node21&#45;&gt;Node23</title>
<path fill="none" stroke="midnightblue" d="M217.77,-85.06C239.4,-84.68 264.31,-84.23 285.42,-83.85"/>
<polygon fill="midnightblue" stroke="midnightblue" points="217.7,-81.56 207.77,-85.24 217.83,-88.56 217.7,-81.56"/>
</g>
<!-- Node15 -->
<g id="node10" class="node">
<title>Node15</title>
<g id="a_node10"><a xlink:href="classyaclib_1_1Job.html" target="_top" xlink:title="Callable that can be executed in an IExecutor.">
<polygon fill="none" stroke="black" points="303,-259.5 303,-278.5 365,-278.5 365,-259.5 303,-259.5"/>
<text text-anchor="middle" x="334" y="-266.5" font-family="Helvetica,sans-Serif" font-size="10.00">yaclib::Job</text>
</a>
</g>
</g>
<!-- Node19&#45;&gt;Node15 -->
<g id="edge7" class="edge">
<title>Node19&#45;&gt;Node15</title>
<path fill="none" stroke="midnightblue" d="M210.2,-236.74C239.5,-244.44 277.02,-254.29 302.83,-261.07"/>
<polygon fill="midnightblue" stroke="midnightblue" points="210.77,-233.27 200.21,-234.12 208.99,-240.04 210.77,-233.27"/>
</g>
<!-- Node18 -->
<g id="node23" class="node">
<title>Node18</title>
<g id="a_node23"><a xlink:href="classyaclib_1_1detail_1_1SharedFunc.html" target="_top" xlink:title=" ">
<polygon fill="none" stroke="black" points="271,-210 271,-240 397,-240 397,-210 271,-210"/>
<text text-anchor="start" x="279" y="-228" font-family="Helvetica,sans-Serif" font-size="10.00">yaclib::detail::SharedFunc</text>
<text text-anchor="middle" x="334" y="-217" font-family="Helvetica,sans-Serif" font-size="10.00">&lt; Func &gt;</text>
</a>
</g>
</g>
<!-- Node19&#45;&gt;Node18 -->
<g id="edge22" class="edge">
<title>Node19&#45;&gt;Node18</title>
<path fill="none" stroke="midnightblue" d="M210.44,-225C229.01,-225 250.85,-225 270.91,-225"/>
<polygon fill="midnightblue" stroke="midnightblue" points="210.21,-221.5 200.21,-225 210.21,-228.5 210.21,-221.5"/>
</g>
<!-- Node2 -->
<g id="node11" class="node">
<title>Node2</title>
<g id="a_node11"><a xlink:href="classyaclib_1_1detail_1_1InlineCore.html" target="_top" xlink:title=" ">
<polygon fill="none" stroke="black" points="450.5,-259.5 450.5,-278.5 567.5,-278.5 567.5,-259.5 450.5,-259.5"/>
<text text-anchor="middle" x="509" y="-266.5" font-family="Helvetica,sans-Serif" font-size="10.00">yaclib::detail::InlineCore</text>
</a>
</g>
</g>
<!-- Node15&#45;&gt;Node2 -->
<g id="edge8" class="edge">
<title>Node15&#45;&gt;Node2</title>
<path fill="none" stroke="midnightblue" d="M375.25,-269C397.55,-269 425.66,-269 450.26,-269"/>
<polygon fill="midnightblue" stroke="midnightblue" points="375.13,-265.5 365.13,-269 375.13,-272.5 375.13,-265.5"/>
</g>
<!-- Node16 -->
<g id="node22" class="node">
<title>Node16</title>
<g id="a_node22"><a xlink:href="classyaclib_1_1detail_1_1UniqueJob.html" target="_top" xlink:title=" ">
<polygon fill="none" stroke="black" points="449,-210 449,-240 569,-240 569,-210 449,-210"/>
<text text-anchor="start" x="457" y="-228" font-family="Helvetica,sans-Serif" font-size="10.00">yaclib::detail::UniqueJob</text>
<text text-anchor="middle" x="509" y="-217" font-family="Helvetica,sans-Serif" font-size="10.00">&lt; Func &gt;</text>
</a>
</g>
</g>
<!-- Node15&#45;&gt;Node16 -->
<g id="edge21" class="edge">
<title>Node15&#45;&gt;Node16</title>
<path fill="none" stroke="midnightblue" d="M375.08,-258.81C396.98,-253.24 424.52,-246.23 448.84,-240.05"/>
<polygon fill="midnightblue" stroke="midnightblue" points="373.96,-255.48 365.13,-261.34 375.69,-262.26 373.96,-255.48"/>
</g>
<!-- Node2&#45;&gt;Node1 -->
<g id="edge9" class="edge">
<title>Node2&#45;&gt;Node1</title>
<path fill="none" stroke="midnightblue" d="M553.78,-281.41C562.17,-283.86 570.87,-286.47 579,-289 599.18,-295.29 621.4,-302.63 640.19,-308.97"/>
<polygon fill="midnightblue" stroke="midnightblue" points="554.7,-278.03 544.12,-278.6 552.75,-284.75 554.7,-278.03"/>
</g>
<!-- Node2&#45;&gt;Node3 -->
<g id="edge10" class="edge">
<title>Node2&#45;&gt;Node3</title>
<path fill="none" stroke="midnightblue" d="M556.63,-256.5C564.17,-254.18 571.85,-251.66 579,-249 604.93,-239.37 633.42,-226.18 654.17,-216.06"/>
<polygon fill="midnightblue" stroke="midnightblue" points="555.44,-253.2 546.85,-259.4 557.43,-259.91 555.44,-253.2"/>
</g>
<!-- Node5 -->
<g id="node12" class="node">
<title>Node5</title>
<g id="a_node12"><a xlink:href="classyaclib_1_1detail_1_1BaseCore.html" target="_top" xlink:title=" ">
<polygon fill="none" stroke="black" points="627,-259.5 627,-278.5 743,-278.5 743,-259.5 627,-259.5"/>
<text text-anchor="middle" x="685" y="-266.5" font-family="Helvetica,sans-Serif" font-size="10.00">yaclib::detail::BaseCore</text>
</a>
</g>
</g>
<!-- Node2&#45;&gt;Node5 -->
<g id="edge11" class="edge">
<title>Node2&#45;&gt;Node5</title>
<path fill="none" stroke="midnightblue" d="M578.35,-269C594.42,-269 611.39,-269 626.91,-269"/>
<polygon fill="midnightblue" stroke="midnightblue" points="577.94,-265.5 567.94,-269 577.94,-272.5 577.94,-265.5"/>
</g>
<!-- Node6 -->
<g id="node13" class="node">
<title>Node6</title>
<g id="a_node13"><a xlink:href="classyaclib_1_1detail_1_1ResultCore.html" target="_top" xlink:title=" ">
<polygon fill="none" stroke="black" points="791,-308 791,-338 913,-338 913,-308 791,-308"/>
<text text-anchor="start" x="799" y="-326" font-family="Helvetica,sans-Serif" font-size="10.00">yaclib::detail::ResultCore</text>
<text text-anchor="middle" x="852" y="-315" font-family="Helvetica,sans-Serif" font-size="10.00">&lt; void, E &gt;</text>
</a>
</g>
</g>
<!-- Node5&#45;&gt;Node6 -->
<g id="edge12" class="edge">
<title>Node5&#45;&gt;Node6</title>
<path fill="none" stroke="midnightblue" d="M724.63,-281.64C748.67,-289.51 779.74,-299.68 805.05,-307.96"/>
<polygon fill="midnightblue" stroke="midnightblue" points="725.71,-278.31 715.12,-278.53 723.53,-284.97 725.71,-278.31"/>
</g>
<!-- Node10 -->
<g id="node17" class="node">
<title>Node10</title>
<g id="a_node17"><a xlink:href="classyaclib_1_1detail_1_1ResultCore.html" target="_top" xlink:title=" ">
<polygon fill="none" stroke="black" points="791,-254 791,-284 913,-284 913,-254 791,-254"/>
<text text-anchor="start" x="799" y="-272" font-family="Helvetica,sans-Serif" font-size="10.00">yaclib::detail::ResultCore</text>
<text text-anchor="middle" x="852" y="-261" font-family="Helvetica,sans-Serif" font-size="10.00">&lt; V, E &gt;</text>
</a>
</g>
</g>
<!-- Node5&#45;&gt;Node10 -->
<g id="edge16" class="edge">
<title>Node5&#45;&gt;Node10</title>
<path fill="none" stroke="midnightblue" d="M753.48,-269C765.83,-269 778.65,-269 790.77,-269"/>
<polygon fill="midnightblue" stroke="midnightblue" points="753.25,-265.5 743.25,-269 753.25,-272.5 753.25,-265.5"/>
</g>
<!-- Node14 -->
<g id="node21" class="node">
<title>Node14</title>
<g id="a_node21"><a xlink:href="classyaclib_1_1detail_1_1ResultCore_3_01void_00_01void_01_4.html" target="_top" xlink:title=" ">
<polygon fill="none" stroke="black" points="791,-205 791,-235 913,-235 913,-205 791,-205"/>
<text text-anchor="start" x="799" y="-223" font-family="Helvetica,sans-Serif" font-size="10.00">yaclib::detail::ResultCore</text>
<text text-anchor="middle" x="852" y="-212" font-family="Helvetica,sans-Serif" font-size="10.00">&lt; void, void &gt;</text>
</a>
</g>
</g>
<!-- Node5&#45;&gt;Node14 -->
<g id="edge20" class="edge">
<title>Node5&#45;&gt;Node14</title>
<path fill="none" stroke="midnightblue" d="M727.94,-256.55C749.98,-250 777.16,-241.93 800.37,-235.04"/>
<polygon fill="midnightblue" stroke="midnightblue" points="726.8,-253.23 718.21,-259.44 728.79,-259.94 726.8,-253.23"/>
</g>
<!-- Node7 -->
<g id="node14" class="node">
<title>Node7</title>
<g id="a_node14"><a xlink:href="structyaclib_1_1detail_1_1AtomicCounter.html" target="_top" xlink:title=" ">
<polygon fill="none" stroke="black" points="965,-305.5 965,-346.5 1103,-346.5 1103,-305.5 965,-305.5"/>
<text text-anchor="start" x="973" y="-334.5" font-family="Helvetica,sans-Serif" font-size="10.00">yaclib::detail::AtomicCounter</text>
<text text-anchor="start" x="973" y="-323.5" font-family="Helvetica,sans-Serif" font-size="10.00">&lt; ResultCore&lt; void, E &gt;,</text>
<text text-anchor="middle" x="1034" y="-312.5" font-family="Helvetica,sans-Serif" font-size="10.00"> PromiseTypeDeleter &gt;</text>
</a>
</g>
</g>
<!-- Node6&#45;&gt;Node7 -->
<g id="edge13" class="edge">
<title>Node6&#45;&gt;Node7</title>
<path fill="none" stroke="midnightblue" d="M923.44,-324.17C937.04,-324.4 951.27,-324.64 964.79,-324.86"/>
<polygon fill="midnightblue" stroke="midnightblue" points="923.24,-320.67 913.19,-324 923.13,-327.67 923.24,-320.67"/>
</g>
<!-- Node8 -->
<g id="node15" class="node">
<title>Node8</title>
<g id="a_node15"><a xlink:href="classyaclib_1_1detail_1_1BasePromiseType.html" target="_top" xlink:title=" ">
<polygon fill="none" stroke="black" points="1155,-311 1155,-341 1287,-341 1287,-311 1155,-311"/>
<text text-anchor="start" x="1163" y="-329" font-family="Helvetica,sans-Serif" font-size="10.00">yaclib::detail::BasePromise</text>
<text text-anchor="middle" x="1221" y="-318" font-family="Helvetica,sans-Serif" font-size="10.00">Type&lt; void, E &gt;</text>
</a>
</g>
</g>
<!-- Node7&#45;&gt;Node8 -->
<g id="edge14" class="edge">
<title>Node7&#45;&gt;Node8</title>
<path fill="none" stroke="midnightblue" d="M1113.11,-326C1127,-326 1141.33,-326 1154.81,-326"/>
<polygon fill="midnightblue" stroke="midnightblue" points="1113.1,-322.5 1103.1,-326 1113.1,-329.5 1113.1,-322.5"/>
</g>
<!-- Node9 -->
<g id="node16" class="node">
<title>Node9</title>
<g id="a_node16"><a xlink:href="classyaclib_1_1detail_1_1PromiseType_3_01void_00_01E_01_4.html" target="_top" xlink:title=" ">
<polygon fill="none" stroke="black" points="1323,-311 1323,-341 1454,-341 1454,-311 1323,-311"/>
<text text-anchor="start" x="1331" y="-329" font-family="Helvetica,sans-Serif" font-size="10.00">yaclib::detail::PromiseType</text>
<text text-anchor="middle" x="1388.5" y="-318" font-family="Helvetica,sans-Serif" font-size="10.00">&lt; void, E &gt;</text>
</a>
</g>
</g>
<!-- Node8&#45;&gt;Node9 -->
<g id="edge15" class="edge">
<title>Node8&#45;&gt;Node9</title>
<path fill="none" stroke="midnightblue" d="M1297.61,-326C1306.04,-326 1314.56,-326 1322.84,-326"/>
<polygon fill="midnightblue" stroke="midnightblue" points="1297.41,-322.5 1287.41,-326 1297.41,-329.5 1297.41,-322.5"/>
</g>
<!-- Node11 -->
<g id="node18" class="node">
<title>Node11</title>
<g id="a_node18"><a xlink:href="structyaclib_1_1detail_1_1AtomicCounter.html" target="_top" xlink:title=" ">
<polygon fill="none" stroke="black" points="949,-245.5 949,-286.5 1119,-286.5 1119,-245.5 949,-245.5"/>
<text text-anchor="start" x="957" y="-274.5" font-family="Helvetica,sans-Serif" font-size="10.00">yaclib::detail::AtomicCounter</text>
<text text-anchor="start" x="957" y="-263.5" font-family="Helvetica,sans-Serif" font-size="10.00">&lt; ResultCore&lt; V, E &gt;, PromiseType</text>
<text text-anchor="middle" x="1034" y="-252.5" font-family="Helvetica,sans-Serif" font-size="10.00">Deleter &gt;</text>
</a>
</g>
</g>
<!-- Node10&#45;&gt;Node11 -->
<g id="edge17" class="edge">
<title>Node10&#45;&gt;Node11</title>
<path fill="none" stroke="midnightblue" d="M923.27,-267.83C931.66,-267.69 940.28,-267.55 948.84,-267.4"/>
<polygon fill="midnightblue" stroke="midnightblue" points="923.13,-264.33 913.19,-268 923.24,-271.33 923.13,-264.33"/>
</g>
<!-- Node12 -->
<g id="node19" class="node">
<title>Node12</title>
<g id="a_node19"><a xlink:href="classyaclib_1_1detail_1_1BasePromiseType.html" target="_top" xlink:title=" ">
<polygon fill="none" stroke="black" points="1155,-251 1155,-281 1287,-281 1287,-251 1155,-251"/>
<text text-anchor="start" x="1163" y="-269" font-family="Helvetica,sans-Serif" font-size="10.00">yaclib::detail::BasePromise</text>
<text text-anchor="middle" x="1221" y="-258" font-family="Helvetica,sans-Serif" font-size="10.00">Type&lt; V, E &gt;</text>
</a>
</g>
</g>
<!-- Node11&#45;&gt;Node12 -->
<g id="edge18" class="edge">
<title>Node11&#45;&gt;Node12</title>
<path fill="none" stroke="midnightblue" d="M1129.28,-266C1137.96,-266 1146.61,-266 1154.94,-266"/>
<polygon fill="midnightblue" stroke="midnightblue" points="1129.11,-262.5 1119.11,-266 1129.11,-269.5 1129.11,-262.5"/>
</g>
<!-- Node13 -->
<g id="node20" class="node">
<title>Node13</title>
<g id="a_node20"><a xlink:href="classyaclib_1_1detail_1_1PromiseType.html" target="_top" xlink:title=" ">
<polygon fill="none" stroke="black" points="1323,-251 1323,-281 1454,-281 1454,-251 1323,-251"/>
<text text-anchor="start" x="1331" y="-269" font-family="Helvetica,sans-Serif" font-size="10.00">yaclib::detail::PromiseType</text>
<text text-anchor="middle" x="1388.5" y="-258" font-family="Helvetica,sans-Serif" font-size="10.00">&lt; V, E &gt;</text>
</a>
</g>
</g>
<!-- Node12&#45;&gt;Node13 -->
<g id="edge19" class="edge">
<title>Node12&#45;&gt;Node13</title>
<path fill="none" stroke="midnightblue" d="M1297.61,-266C1306.04,-266 1314.56,-266 1322.84,-266"/>
<polygon fill="midnightblue" stroke="midnightblue" points="1297.41,-262.5 1287.41,-266 1297.41,-269.5 1297.41,-262.5"/>
</g>
<!-- Node27 -->
<g id="node27" class="node">
<title>Node27</title>
<g id="a_node27"><a xlink:href="structyaclib_1_1detail_1_1AtomicCounter.html" target="_top" xlink:title=" ">
<polygon fill="none" stroke="black" points="265,-111.5 265,-152.5 403,-152.5 403,-111.5 265,-111.5"/>
<text text-anchor="start" x="273" y="-140.5" font-family="Helvetica,sans-Serif" font-size="10.00">yaclib::detail::AtomicCounter</text>
<text text-anchor="start" x="273" y="-129.5" font-family="Helvetica,sans-Serif" font-size="10.00">&lt; detail::DefaultEvent, detail</text>
<text text-anchor="middle" x="334" y="-118.5" font-family="Helvetica,sans-Serif" font-size="10.00">::SetAllDeleter &gt;</text>
</a>
</g>
</g>
<!-- Node26&#45;&gt;Node27 -->
<g id="edge26" class="edge">
<title>Node26&#45;&gt;Node27</title>
<path fill="none" stroke="midnightblue" d="M237.54,-130.29C246.61,-130.45 255.87,-130.62 264.88,-130.78"/>
<polygon fill="midnightblue" stroke="midnightblue" points="237.46,-126.79 227.39,-130.11 237.33,-133.79 237.46,-126.79"/>
</g>
<!-- Node28 -->
<g id="node28" class="node">
<title>Node28</title>
<g id="a_node28"><a xlink:href="structyaclib_1_1detail_1_1Node.html" target="_top" xlink:title="Node class, used in intrusive data structure.">
<polygon fill="none" stroke="black" points="116,-278.5 116,-297.5 213,-297.5 213,-278.5 116,-278.5"/>
<text text-anchor="middle" x="164.5" y="-285.5" font-family="Helvetica,sans-Serif" font-size="10.00">yaclib::detail::Node</text>
</a>
</g>
</g>
<!-- Node28&#45;&gt;Node15 -->
<g id="edge28" class="edge">
<title>Node28&#45;&gt;Node15</title>
<path fill="none" stroke="midnightblue" d="M223.09,-281.47C249.87,-278.43 280.61,-274.94 302.76,-272.43"/>
<polygon fill="midnightblue" stroke="midnightblue" points="222.59,-278 213.05,-282.61 223.38,-284.96 222.59,-278"/>
</g>
<!-- Node29 -->
<g id="node29" class="node">
<title>Node29</title>
<g id="a_node29"><a xlink:href="classyaclib_1_1IThread.html" target="_top" xlink:title=" ">
<polygon fill="none" stroke="black" points="294.5,-297.5 294.5,-316.5 373.5,-316.5 373.5,-297.5 294.5,-297.5"/>
<text text-anchor="middle" x="334" y="-304.5" font-family="Helvetica,sans-Serif" font-size="10.00">yaclib::IThread</text>
</a>
</g>
</g>
<!-- Node28&#45;&gt;Node29 -->
<g id="edge27" class="edge">
<title>Node28&#45;&gt;Node29</title>
<path fill="none" stroke="midnightblue" d="M223.25,-294.55C246.75,-297.22 273.27,-300.22 294.36,-302.62"/>
<polygon fill="midnightblue" stroke="midnightblue" points="223.38,-291.04 213.05,-293.39 222.59,-298 223.38,-291.04"/>
</g>
<!-- Node17 -->
<g id="node30" class="node">
<title>Node17</title>
<g id="a_node30"><a xlink:href="classyaclib_1_1detail_1_1SafeCall.html" target="_top" xlink:title=" ">
<polygon fill="none" stroke="black" points="109.5,-166 109.5,-196 219.5,-196 219.5,-166 109.5,-166"/>
<text text-anchor="start" x="117.5" y="-184" font-family="Helvetica,sans-Serif" font-size="10.00">yaclib::detail::SafeCall</text>
<text text-anchor="middle" x="164.5" y="-173" font-family="Helvetica,sans-Serif" font-size="10.00">&lt; Func &gt;</text>
</a>
</g>
</g>
<!-- Node17&#45;&gt;Node16 -->
<g id="edge30" class="edge">
<title>Node17&#45;&gt;Node16</title>
<path fill="none" stroke="midnightblue" d="M229.78,-183.46C277.75,-185.95 344.76,-190.79 403,-200 419.01,-202.53 436.19,-206.21 451.92,-209.96"/>
<polygon fill="midnightblue" stroke="midnightblue" points="229.71,-179.95 219.54,-182.95 229.36,-186.95 229.71,-179.95"/>
</g>
<!-- Node17&#45;&gt;Node18 -->
<g id="edge29" class="edge">
<title>Node17&#45;&gt;Node18</title>
<path fill="none" stroke="midnightblue" d="M229.69,-197.86C244.84,-201.84 260.9,-206.06 275.72,-209.95"/>
<polygon fill="midnightblue" stroke="midnightblue" points="230.44,-194.44 219.88,-195.29 228.67,-201.21 230.44,-194.44"/>
</g>
</g>
</svg>
