<?xml version="1.0" encoding="UTF-8" standalone="no"?>
<!DOCTYPE svg PUBLIC "-//W3C//DTD SVG 1.1//EN"
 "http://www.w3.org/Graphics/SVG/1.1/DTD/svg11.dtd">
<!-- Generated by graphviz version 3.0.0 (20220413.0106)
 -->
<!-- Title: include/yaclib/fault/inject.hpp Pages: 1 -->
<svg width="999pt" height="262pt"
 viewBox="0.00 0.00 999.00 262.00" xmlns="http://www.w3.org/2000/svg" xmlns:xlink="http://www.w3.org/1999/xlink">
<g id="graph0" class="graph" transform="scale(1 1) rotate(0) translate(4 258)">
<title>include/yaclib/fault/inject.hpp</title>
<!-- Node1 -->
<g id="node1" class="node">
<title>Node1</title>
<g id="a_node1"><a xlink:title=" ">
<polygon fill="#bfbfbf" stroke="black" points="454,-223.5 454,-253.5 551,-253.5 551,-223.5 454,-223.5"/>
<text text-anchor="start" x="462" y="-241.5" font-family="Helvetica,sans-Serif" font-size="10.00">include/yaclib/fault</text>
<text text-anchor="middle" x="502.5" y="-230.5" font-family="Helvetica,sans-Serif" font-size="10.00">/inject.hpp</text>
</a>
</g>
</g>
<!-- Node2 -->
<g id="node2" class="node">
<title>Node2</title>
<g id="a_node2"><a xlink:href="fault_2detail_2atomic_8hpp.html" target="_top" xlink:title=" ">
<polygon fill="none" stroke="black" points="0,-78.5 0,-108.5 97,-108.5 97,-78.5 0,-78.5"/>
<text text-anchor="start" x="8" y="-96.5" font-family="Helvetica,sans-Serif" font-size="10.00">include/yaclib/fault</text>
<text text-anchor="middle" x="48.5" y="-85.5" font-family="Helvetica,sans-Serif" font-size="10.00">/detail/atomic.hpp</text>
</a>
</g>
</g>
<!-- Node1&#45;&gt;Node2 -->
<g id="edge1" class="edge">
<title>Node1&#45;&gt;Node2</title>
<path fill="none" stroke="midnightblue" d="M443.86,-235.02C328.49,-229.55 80.91,-214.7 54.5,-187 34.51,-166.04 39.66,-128.82 44.49,-108.57"/>
<polygon fill="midnightblue" stroke="midnightblue" points="443.78,-238.52 453.93,-235.49 444.11,-231.53 443.78,-238.52"/>
</g>
<!-- Node3 -->
<g id="node3" class="node">
<title>Node3</title>
<g id="a_node3"><a xlink:href="fault_2detail_2atomic__flag_8hpp.html" target="_top" xlink:title=" ">
<polygon fill="none" stroke="black" points="139,-78.5 139,-108.5 252,-108.5 252,-78.5 139,-78.5"/>
<text text-anchor="start" x="147" y="-96.5" font-family="Helvetica,sans-Serif" font-size="10.00">include/yaclib/fault</text>
<text text-anchor="middle" x="195.5" y="-85.5" font-family="Helvetica,sans-Serif" font-size="10.00">/detail/atomic_flag.hpp</text>
</a>
</g>
</g>
<!-- Node1&#45;&gt;Node3 -->
<g id="edge2" class="edge">
<title>Node1&#45;&gt;Node3</title>
<path fill="none" stroke="midnightblue" d="M443.72,-233.67C372.55,-227.88 258.25,-214.52 226.5,-187 203.46,-167.03 197.5,-129.41 195.98,-108.84"/>
<polygon fill="midnightblue" stroke="midnightblue" points="443.65,-237.18 453.89,-234.47 444.2,-230.2 443.65,-237.18"/>
</g>
<!-- Node4 -->
<g id="node4" class="node">
<title>Node4</title>
<g id="a_node4"><a xlink:href="atomic__wait_8hpp.html" target="_top" xlink:title=" ">
<polygon fill="none" stroke="black" points="63.5,-151 63.5,-181 179.5,-181 179.5,-151 63.5,-151"/>
<text text-anchor="start" x="71.5" y="-169" font-family="Helvetica,sans-Serif" font-size="10.00">include/yaclib/fault</text>
<text text-anchor="middle" x="121.5" y="-158" font-family="Helvetica,sans-Serif" font-size="10.00">/detail/atomic_wait.hpp</text>
</a>
</g>
</g>
<!-- Node1&#45;&gt;Node4 -->
<g id="edge3" class="edge">
<title>Node1&#45;&gt;Node4</title>
<path fill="none" stroke="midnightblue" d="M443.7,-229.83C381.26,-221.24 279.87,-205.99 193.5,-187 185.64,-185.27 177.37,-183.21 169.34,-181.07"/>
<polygon fill="midnightblue" stroke="midnightblue" points="443.37,-233.32 453.75,-231.21 444.32,-226.39 443.37,-233.32"/>
</g>
<!-- Node5 -->
<g id="node5" class="node">
<title>Node5</title>
<g id="a_node5"><a xlink:href="fault_2detail_2condition__variable_8hpp.html" target="_top" xlink:title=" ">
<polygon fill="none" stroke="black" points="235.5,-151 235.5,-181 377.5,-181 377.5,-151 235.5,-151"/>
<text text-anchor="start" x="243.5" y="-169" font-family="Helvetica,sans-Serif" font-size="10.00">include/yaclib/fault</text>
<text text-anchor="middle" x="306.5" y="-158" font-family="Helvetica,sans-Serif" font-size="10.00">/detail/condition_variable.hpp</text>
</a>
</g>
</g>
<!-- Node1&#45;&gt;Node5 -->
<g id="edge6" class="edge">
<title>Node1&#45;&gt;Node5</title>
<path fill="none" stroke="midnightblue" d="M453.75,-219.96C420.38,-207.96 376.72,-192.26 345.62,-181.07"/>
<polygon fill="midnightblue" stroke="midnightblue" points="452.71,-223.31 463.31,-223.4 455.08,-216.72 452.71,-223.31"/>
</g>
<!-- Node6 -->
<g id="node6" class="node">
<title>Node6</title>
<g id="a_node6"><a xlink:href="fault_2detail_2condition__variable__any_8hpp.html" target="_top" xlink:title=" ">
<polygon fill="none" stroke="black" points="395.5,-145.5 395.5,-186.5 519.5,-186.5 519.5,-145.5 395.5,-145.5"/>
<text text-anchor="start" x="403.5" y="-174.5" font-family="Helvetica,sans-Serif" font-size="10.00">include/yaclib/fault</text>
<text text-anchor="start" x="403.5" y="-163.5" font-family="Helvetica,sans-Serif" font-size="10.00">/detail/condition_variable</text>
<text text-anchor="middle" x="457.5" y="-152.5" font-family="Helvetica,sans-Serif" font-size="10.00">_any.hpp</text>
</a>
</g>
</g>
<!-- Node1&#45;&gt;Node6 -->
<g id="edge7" class="edge">
<title>Node1&#45;&gt;Node6</title>
<path fill="none" stroke="midnightblue" d="M487.94,-214.7C482.16,-205.63 475.57,-195.31 470,-186.59"/>
<polygon fill="midnightblue" stroke="midnightblue" points="485.06,-216.69 493.39,-223.23 490.96,-212.92 485.06,-216.69"/>
</g>
<!-- Node7 -->
<g id="node7" class="node">
<title>Node7</title>
<g id="a_node7"><a xlink:href="fault_2detail_2mutex_8hpp.html" target="_top" xlink:title=" ">
<polygon fill="none" stroke="black" points="614,-151 614,-181 711,-181 711,-151 614,-151"/>
<text text-anchor="start" x="622" y="-169" font-family="Helvetica,sans-Serif" font-size="10.00">include/yaclib/fault</text>
<text text-anchor="middle" x="662.5" y="-158" font-family="Helvetica,sans-Serif" font-size="10.00">/detail/mutex.hpp</text>
</a>
</g>
</g>
<!-- Node1&#45;&gt;Node7 -->
<g id="edge8" class="edge">
<title>Node1&#45;&gt;Node7</title>
<path fill="none" stroke="midnightblue" d="M543.71,-219.34C570.76,-207.42 605.61,-192.07 630.56,-181.07"/>
<polygon fill="midnightblue" stroke="midnightblue" points="542.23,-216.17 534.49,-223.4 545.06,-222.57 542.23,-216.17"/>
</g>
<!-- Node9 -->
<g id="node9" class="node">
<title>Node9</title>
<g id="a_node9"><a xlink:href="fault_2detail_2shared__mutex_8hpp.html" target="_top" xlink:title=" ">
<polygon fill="none" stroke="black" points="576,-78.5 576,-108.5 701,-108.5 701,-78.5 576,-78.5"/>
<text text-anchor="start" x="584" y="-96.5" font-family="Helvetica,sans-Serif" font-size="10.00">include/yaclib/fault</text>
<text text-anchor="middle" x="638.5" y="-85.5" font-family="Helvetica,sans-Serif" font-size="10.00">/detail/shared_mutex.hpp</text>
</a>
</g>
</g>
<!-- Node1&#45;&gt;Node9 -->
<g id="edge14" class="edge">
<title>Node1&#45;&gt;Node9</title>
<path fill="none" stroke="midnightblue" d="M528.26,-217.06C538.91,-208.2 551.16,-197.48 561.5,-187 587.18,-160.97 613.73,-127.3 627.96,-108.6"/>
<polygon fill="midnightblue" stroke="midnightblue" points="526,-214.39 520.49,-223.43 530.44,-219.8 526,-214.39"/>
</g>
<!-- Node10 -->
<g id="node10" class="node">
<title>Node10</title>
<g id="a_node10"><a xlink:href="fault_2detail_2shared__timed__mutex_8hpp.html" target="_top" xlink:title=" ">
<polygon fill="none" stroke="black" points="541.5,-0.5 541.5,-41.5 645.5,-41.5 645.5,-0.5 541.5,-0.5"/>
<text text-anchor="start" x="549.5" y="-29.5" font-family="Helvetica,sans-Serif" font-size="10.00">include/yaclib/fault</text>
<text text-anchor="start" x="549.5" y="-18.5" font-family="Helvetica,sans-Serif" font-size="10.00">/detail/shared_timed</text>
<text text-anchor="middle" x="593.5" y="-7.5" font-family="Helvetica,sans-Serif" font-size="10.00">_mutex.hpp</text>
</a>
</g>
</g>
<!-- Node1&#45;&gt;Node10 -->
<g id="edge15" class="edge">
<title>Node1&#45;&gt;Node10</title>
<path fill="none" stroke="midnightblue" d="M515.29,-214.24C519.72,-205.78 524.56,-196.07 528.5,-187 548.99,-139.8 547.98,-125.61 567.5,-78 572.54,-65.7 578.8,-52.18 583.91,-41.5"/>
<polygon fill="midnightblue" stroke="midnightblue" points="512.15,-212.69 510.53,-223.16 518.32,-215.99 512.15,-212.69"/>
</g>
<!-- Node11 -->
<g id="node11" class="node">
<title>Node11</title>
<g id="a_node11"><a xlink:href="fault_2detail_2timed__mutex_8hpp.html" target="_top" xlink:title=" ">
<polygon fill="none" stroke="black" points="872,-78.5 872,-108.5 991,-108.5 991,-78.5 872,-78.5"/>
<text text-anchor="start" x="880" y="-96.5" font-family="Helvetica,sans-Serif" font-size="10.00">include/yaclib/fault</text>
<text text-anchor="middle" x="931.5" y="-85.5" font-family="Helvetica,sans-Serif" font-size="10.00">/detail/timed_mutex.hpp</text>
</a>
</g>
</g>
<!-- Node1&#45;&gt;Node11 -->
<g id="edge16" class="edge">
<title>Node1&#45;&gt;Node11</title>
<path fill="none" stroke="midnightblue" d="M561.17,-233.51C607.2,-228.2 671.46,-215.83 720.5,-187 742.2,-174.24 737.17,-158.36 758.5,-145 777.52,-133.08 829.58,-118.66 871.66,-108.28"/>
<polygon fill="midnightblue" stroke="midnightblue" points="560.63,-230.05 551.06,-234.6 561.38,-237.01 560.63,-230.05"/>
</g>
<!-- Node13 -->
<g id="node13" class="node">
<title>Node13</title>
<g id="a_node13"><a xlink:href="inject_8cpp.html" target="_top" xlink:title=" ">
<polygon fill="none" stroke="black" points="767.5,-156.5 767.5,-175.5 863.5,-175.5 863.5,-156.5 767.5,-156.5"/>
<text text-anchor="middle" x="815.5" y="-163.5" font-family="Helvetica,sans-Serif" font-size="10.00">src/fault/inject.cpp</text>
</a>
</g>
</g>
<!-- Node1&#45;&gt;Node13 -->
<g id="edge17" class="edge">
<title>Node1&#45;&gt;Node13</title>
<path fill="none" stroke="midnightblue" d="M561.35,-227.61C612.49,-218.55 688.38,-204 753.5,-187 766.09,-183.72 779.87,-179.35 791.25,-175.53"/>
<polygon fill="midnightblue" stroke="midnightblue" points="560.71,-224.17 551.46,-229.35 561.92,-231.06 560.71,-224.17"/>
</g>
<!-- Node4&#45;&gt;Node2 -->
<g id="edge4" class="edge">
<title>Node4&#45;&gt;Node2</title>
<path fill="none" stroke="midnightblue" d="M99.43,-143.69C87.72,-132.37 73.63,-118.77 63.25,-108.75"/>
<polygon fill="midnightblue" stroke="midnightblue" points="97.1,-146.3 106.73,-150.73 101.97,-141.27 97.1,-146.3"/>
</g>
<!-- Node4&#45;&gt;Node3 -->
<g id="edge5" class="edge">
<title>Node4&#45;&gt;Node3</title>
<path fill="none" stroke="midnightblue" d="M143.87,-143.69C155.75,-132.37 170.02,-118.77 180.55,-108.75"/>
<polygon fill="midnightblue" stroke="midnightblue" points="141.3,-141.3 136.48,-150.73 146.13,-146.37 141.3,-141.3"/>
</g>
<!-- Node8 -->
<g id="node8" class="node">
<title>Node8</title>
<g id="a_node8"><a xlink:href="fault_2detail_2recursive__mutex_8hpp.html" target="_top" xlink:title=" ">
<polygon fill="none" stroke="black" points="719,-78.5 719,-108.5 854,-108.5 854,-78.5 719,-78.5"/>
<text text-anchor="start" x="727" y="-96.5" font-family="Helvetica,sans-Serif" font-size="10.00">include/yaclib/fault</text>
<text text-anchor="middle" x="786.5" y="-85.5" font-family="Helvetica,sans-Serif" font-size="10.00">/detail/recursive_mutex.hpp</text>
</a>
</g>
</g>
<!-- Node7&#45;&gt;Node8 -->
<g id="edge9" class="edge">
<title>Node7&#45;&gt;Node8</title>
<path fill="none" stroke="midnightblue" d="M696.1,-145.9C716.81,-134.12 742.92,-119.28 761.75,-108.57"/>
<polygon fill="midnightblue" stroke="midnightblue" points="694.26,-142.92 687.3,-150.9 697.72,-149 694.26,-142.92"/>
</g>
<!-- Node7&#45;&gt;Node9 -->
<g id="edge10" class="edge">
<title>Node7&#45;&gt;Node9</title>
<path fill="none" stroke="midnightblue" d="M654.35,-141.06C650.69,-130.32 646.5,-118.01 643.35,-108.75"/>
<polygon fill="midnightblue" stroke="midnightblue" points="651.11,-142.39 657.64,-150.73 657.73,-140.14 651.11,-142.39"/>
</g>
<!-- Node7&#45;&gt;Node11 -->
<g id="edge12" class="edge">
<title>Node7&#45;&gt;Node11</title>
<path fill="none" stroke="midnightblue" d="M715.21,-147.98C718.69,-146.95 722.14,-145.94 725.5,-145 774.42,-131.25 830.46,-117.65 871.73,-108.04"/>
<polygon fill="midnightblue" stroke="midnightblue" points="713.98,-144.7 705.42,-150.95 716.01,-151.4 713.98,-144.7"/>
</g>
<!-- Node9&#45;&gt;Node10 -->
<g id="edge11" class="edge">
<title>Node9&#45;&gt;Node10</title>
<path fill="none" stroke="midnightblue" d="M623.94,-69.7C618.16,-60.63 611.57,-50.31 606,-41.59"/>
<polygon fill="midnightblue" stroke="midnightblue" points="621.06,-71.69 629.39,-78.23 626.96,-67.92 621.06,-71.69"/>
</g>
<!-- Node12 -->
<g id="node12" class="node">
<title>Node12</title>
<g id="a_node12"><a xlink:href="fault_2detail_2recursive__timed__mutex_8hpp.html" target="_top" xlink:title=" ">
<polygon fill="none" stroke="black" points="874,-0.5 874,-41.5 989,-41.5 989,-0.5 874,-0.5"/>
<text text-anchor="start" x="882" y="-29.5" font-family="Helvetica,sans-Serif" font-size="10.00">include/yaclib/fault</text>
<text text-anchor="start" x="882" y="-18.5" font-family="Helvetica,sans-Serif" font-size="10.00">/detail/recursive_timed</text>
<text text-anchor="middle" x="931.5" y="-7.5" font-family="Helvetica,sans-Serif" font-size="10.00">_mutex.hpp</text>
</a>
</g>
</g>
<!-- Node11&#45;&gt;Node12 -->
<g id="edge13" class="edge">
<title>Node11&#45;&gt;Node12</title>
<path fill="none" stroke="midnightblue" d="M931.5,-67.98C931.5,-59.35 931.5,-49.76 931.5,-41.59"/>
<polygon fill="midnightblue" stroke="midnightblue" points="928,-68.23 931.5,-78.23 935,-68.23 928,-68.23"/>
</g>
</g>
</svg>
