<?xml version="1.0" encoding="UTF-8" standalone="no"?>
<!DOCTYPE svg PUBLIC "-//W3C//DTD SVG 1.1//EN"
 "http://www.w3.org/Graphics/SVG/1.1/DTD/svg11.dtd">
<!-- Generated by graphviz version 3.0.0 (20220413.0106)
 -->
<!-- Title: include/yaclib/async/detail/inline_core.hpp Pages: 1 -->
<svg width="1678pt" height="575pt"
 viewBox="0.00 0.00 1678.29 575.00" xmlns="http://www.w3.org/2000/svg" xmlns:xlink="http://www.w3.org/1999/xlink">
<g id="graph0" class="graph" transform="scale(1 1) rotate(0) translate(4 571)">
<title>include/yaclib/async/detail/inline_core.hpp</title>
<!-- Node1 -->
<g id="node1" class="node">
<title>Node1</title>
<g id="a_node1"><a xlink:title=" ">
<polygon fill="#bfbfbf" stroke="black" points="1243.79,-536.5 1243.79,-566.5 1353.79,-566.5 1353.79,-536.5 1243.79,-536.5"/>
<text text-anchor="start" x="1251.79" y="-554.5" font-family="Helvetica,sans-Serif" font-size="10.00">include/yaclib/async</text>
<text text-anchor="middle" x="1298.79" y="-543.5" font-family="Helvetica,sans-Serif" font-size="10.00">/detail/inline_core.hpp</text>
</a>
</g>
</g>
<!-- Node2 -->
<g id="node2" class="node">
<title>Node2</title>
<g id="a_node2"><a xlink:href="when__all__impl_8hpp.html" target="_top" xlink:title=" ">
<polygon fill="none" stroke="black" points="1236.29,-335.5 1236.29,-365.5 1361.29,-365.5 1361.29,-335.5 1236.29,-335.5"/>
<text text-anchor="start" x="1244.29" y="-353.5" font-family="Helvetica,sans-Serif" font-size="10.00">include/yaclib/algo</text>
<text text-anchor="middle" x="1298.79" y="-342.5" font-family="Helvetica,sans-Serif" font-size="10.00">/detail/when_all_impl.hpp</text>
</a>
</g>
</g>
<!-- Node1&#45;&gt;Node2 -->
<g id="edge1" class="edge">
<title>Node1&#45;&gt;Node2</title>
<path fill="none" stroke="midnightblue" d="M1298.79,-526C1298.79,-483.93 1298.79,-399.26 1298.79,-365.68"/>
<polygon fill="midnightblue" stroke="midnightblue" points="1295.29,-526.19 1298.79,-536.19 1302.29,-526.19 1295.29,-526.19"/>
</g>
<!-- Node5 -->
<g id="node5" class="node">
<title>Node5</title>
<g id="a_node5"><a xlink:href="when__any__impl_8hpp.html" target="_top" xlink:title=" ">
<polygon fill="none" stroke="black" points="351.29,-335.5 351.29,-365.5 482.29,-365.5 482.29,-335.5 351.29,-335.5"/>
<text text-anchor="start" x="359.29" y="-353.5" font-family="Helvetica,sans-Serif" font-size="10.00">include/yaclib/algo</text>
<text text-anchor="middle" x="416.79" y="-342.5" font-family="Helvetica,sans-Serif" font-size="10.00">/detail/when_any_impl.hpp</text>
</a>
</g>
</g>
<!-- Node1&#45;&gt;Node5 -->
<g id="edge4" class="edge">
<title>Node1&#45;&gt;Node5</title>
<path fill="none" stroke="midnightblue" d="M1233.66,-535.8C1069.39,-498.74 639.88,-401.83 478.91,-365.52"/>
<polygon fill="midnightblue" stroke="midnightblue" points="1233.1,-539.26 1243.62,-538.05 1234.64,-532.44 1233.1,-539.26"/>
</g>
<!-- Node8 -->
<g id="node8" class="node">
<title>Node8</title>
<g id="a_node8"><a xlink:href="base__core_8hpp.html" target="_top" xlink:title=" ">
<polygon fill="none" stroke="black" points="1337.29,-469.5 1337.29,-499.5 1446.29,-499.5 1446.29,-469.5 1337.29,-469.5"/>
<text text-anchor="start" x="1345.29" y="-487.5" font-family="Helvetica,sans-Serif" font-size="10.00">include/yaclib/async</text>
<text text-anchor="middle" x="1391.79" y="-476.5" font-family="Helvetica,sans-Serif" font-size="10.00">/detail/base_core.hpp</text>
</a>
</g>
</g>
<!-- Node1&#45;&gt;Node8 -->
<g id="edge7" class="edge">
<title>Node1&#45;&gt;Node8</title>
<path fill="none" stroke="midnightblue" d="M1327.48,-530.45C1341.79,-520.45 1358.74,-508.6 1371.65,-499.58"/>
<polygon fill="midnightblue" stroke="midnightblue" points="1325.16,-527.8 1318.97,-536.4 1329.17,-533.54 1325.16,-527.8"/>
</g>
<!-- Node28 -->
<g id="node28" class="node">
<title>Node28</title>
<g id="a_node28"><a xlink:href="result__core_8hpp.html" target="_top" xlink:title=" ">
<polygon fill="none" stroke="black" points="885.79,-402.5 885.79,-432.5 997.79,-432.5 997.79,-402.5 885.79,-402.5"/>
<text text-anchor="start" x="893.79" y="-420.5" font-family="Helvetica,sans-Serif" font-size="10.00">include/yaclib/async</text>
<text text-anchor="middle" x="941.79" y="-409.5" font-family="Helvetica,sans-Serif" font-size="10.00">/detail/result_core.hpp</text>
</a>
</g>
</g>
<!-- Node1&#45;&gt;Node28 -->
<g id="edge59" class="edge">
<title>Node1&#45;&gt;Node28</title>
<path fill="none" stroke="midnightblue" d="M1251.25,-532.92C1179.6,-506.43 1045.38,-456.8 979.81,-432.56"/>
<polygon fill="midnightblue" stroke="midnightblue" points="1250.33,-536.31 1260.93,-536.5 1252.76,-529.75 1250.33,-536.31"/>
</g>
<!-- Node38 -->
<g id="node38" class="node">
<title>Node38</title>
<g id="a_node38"><a xlink:href="base__core_8cpp.html" target="_top" xlink:title=" ">
<polygon fill="none" stroke="black" points="1543.29,-408 1543.29,-427 1668.29,-427 1668.29,-408 1543.29,-408"/>
<text text-anchor="middle" x="1605.79" y="-415" font-family="Helvetica,sans-Serif" font-size="10.00">src/async/base_core.cpp</text>
</a>
</g>
</g>
<!-- Node1&#45;&gt;Node38 -->
<g id="edge60" class="edge">
<title>Node1&#45;&gt;Node38</title>
<path fill="none" stroke="midnightblue" d="M1360.3,-533.62C1389.68,-524.82 1425.05,-513.16 1455.79,-500 1508.11,-477.61 1566.32,-442.96 1592.16,-427.04"/>
<polygon fill="midnightblue" stroke="midnightblue" points="1359.18,-530.3 1350.59,-536.49 1361.17,-537.01 1359.18,-530.3"/>
</g>
<!-- Node3 -->
<g id="node3" class="node">
<title>Node3</title>
<g id="a_node3"><a xlink:href="when__all_8hpp.html" target="_top" xlink:title=" ">
<polygon fill="none" stroke="black" points="1129.79,-67.5 1129.79,-97.5 1225.79,-97.5 1225.79,-67.5 1129.79,-67.5"/>
<text text-anchor="start" x="1137.79" y="-85.5" font-family="Helvetica,sans-Serif" font-size="10.00">include/yaclib/algo</text>
<text text-anchor="middle" x="1177.79" y="-74.5" font-family="Helvetica,sans-Serif" font-size="10.00">/when_all.hpp</text>
</a>
</g>
</g>
<!-- Node2&#45;&gt;Node3 -->
<g id="edge2" class="edge">
<title>Node2&#45;&gt;Node3</title>
<path fill="none" stroke="midnightblue" d="M1304.8,-325.6C1314.03,-282.99 1326.75,-192.88 1286.79,-134 1272.86,-113.46 1248.32,-101.11 1226.06,-93.76"/>
<polygon fill="midnightblue" stroke="midnightblue" points="1301.38,-324.83 1302.56,-335.36 1308.21,-326.39 1301.38,-324.83"/>
</g>
<!-- Node4 -->
<g id="node4" class="node">
<title>Node4</title>
<g id="a_node4"><a xlink:href="when__all_8cpp.html" target="_top" xlink:title=" ">
<polygon fill="none" stroke="black" points="826.29,-0.5 826.29,-30.5 927.29,-30.5 927.29,-0.5 826.29,-0.5"/>
<text text-anchor="start" x="834.29" y="-18.5" font-family="Helvetica,sans-Serif" font-size="10.00">test/example/async</text>
<text text-anchor="middle" x="876.79" y="-7.5" font-family="Helvetica,sans-Serif" font-size="10.00">/when_all.cpp</text>
</a>
</g>
</g>
<!-- Node3&#45;&gt;Node4 -->
<g id="edge3" class="edge">
<title>Node3&#45;&gt;Node4</title>
<path fill="none" stroke="midnightblue" d="M1119.45,-66.75C1047.3,-50.25 974.64,-35.57 927.41,-26.28"/>
<polygon fill="midnightblue" stroke="midnightblue" points="1119.1,-70.26 1129.63,-69.09 1120.67,-63.43 1119.1,-70.26"/>
</g>
<!-- Node6 -->
<g id="node6" class="node">
<title>Node6</title>
<g id="a_node6"><a xlink:href="when__any_8hpp.html" target="_top" xlink:title=" ">
<polygon fill="none" stroke="black" points="723.79,-67.5 723.79,-97.5 819.79,-97.5 819.79,-67.5 723.79,-67.5"/>
<text text-anchor="start" x="731.79" y="-85.5" font-family="Helvetica,sans-Serif" font-size="10.00">include/yaclib/algo</text>
<text text-anchor="middle" x="771.79" y="-74.5" font-family="Helvetica,sans-Serif" font-size="10.00">/when_any.hpp</text>
</a>
</g>
</g>
<!-- Node5&#45;&gt;Node6 -->
<g id="edge5" class="edge">
<title>Node5&#45;&gt;Node6</title>
<path fill="none" stroke="midnightblue" d="M341.22,-337.28C200,-311.51 -80.68,-244.68 22.79,-134 28.81,-127.57 559.12,-95.97 723.66,-86.31"/>
<polygon fill="midnightblue" stroke="midnightblue" points="340.67,-340.74 351.13,-339.06 341.91,-333.85 340.67,-340.74"/>
</g>
<!-- Node7 -->
<g id="node7" class="node">
<title>Node7</title>
<g id="a_node7"><a xlink:href="when__any_8cpp.html" target="_top" xlink:title=" ">
<polygon fill="none" stroke="black" points="691.29,-0.5 691.29,-30.5 792.29,-30.5 792.29,-0.5 691.29,-0.5"/>
<text text-anchor="start" x="699.29" y="-18.5" font-family="Helvetica,sans-Serif" font-size="10.00">test/example/async</text>
<text text-anchor="middle" x="741.79" y="-7.5" font-family="Helvetica,sans-Serif" font-size="10.00">/when_any.cpp</text>
</a>
</g>
</g>
<!-- Node6&#45;&gt;Node7 -->
<g id="edge6" class="edge">
<title>Node6&#45;&gt;Node7</title>
<path fill="none" stroke="midnightblue" d="M761.08,-58.28C756.8,-49.02 752.02,-38.66 748.29,-30.58"/>
<polygon fill="midnightblue" stroke="midnightblue" points="757.92,-59.78 765.28,-67.4 764.27,-56.85 757.92,-59.78"/>
</g>
<!-- Node9 -->
<g id="node9" class="node">
<title>Node9</title>
<g id="a_node9"><a xlink:href="wait__group__impl_8hpp.html" target="_top" xlink:title=" ">
<polygon fill="none" stroke="black" points="1328.79,-268.5 1328.79,-298.5 1462.79,-298.5 1462.79,-268.5 1328.79,-268.5"/>
<text text-anchor="start" x="1336.79" y="-286.5" font-family="Helvetica,sans-Serif" font-size="10.00">include/yaclib/algo</text>
<text text-anchor="middle" x="1395.79" y="-275.5" font-family="Helvetica,sans-Serif" font-size="10.00">/detail/wait_group_impl.hpp</text>
</a>
</g>
</g>
<!-- Node8&#45;&gt;Node9 -->
<g id="edge8" class="edge">
<title>Node8&#45;&gt;Node9</title>
<path fill="none" stroke="midnightblue" d="M1392.29,-459C1393.13,-416.93 1394.83,-332.26 1395.51,-298.68"/>
<polygon fill="midnightblue" stroke="midnightblue" points="1388.78,-459.12 1392.08,-469.19 1395.78,-459.26 1388.78,-459.12"/>
</g>
<!-- Node12 -->
<g id="node12" class="node">
<title>Node12</title>
<g id="a_node12"><a xlink:href="wait__impl_8hpp.html" target="_top" xlink:title=" ">
<polygon fill="none" stroke="black" points="1420.29,-402.5 1420.29,-432.5 1525.29,-432.5 1525.29,-402.5 1420.29,-402.5"/>
<text text-anchor="start" x="1428.29" y="-420.5" font-family="Helvetica,sans-Serif" font-size="10.00">include/yaclib/algo</text>
<text text-anchor="middle" x="1472.79" y="-409.5" font-family="Helvetica,sans-Serif" font-size="10.00">/detail/wait_impl.hpp</text>
</a>
</g>
</g>
<!-- Node8&#45;&gt;Node12 -->
<g id="edge11" class="edge">
<title>Node8&#45;&gt;Node12</title>
<path fill="none" stroke="midnightblue" d="M1417.49,-462.88C1429.79,-453.01 1444.22,-441.43 1455.25,-432.58"/>
<polygon fill="midnightblue" stroke="midnightblue" points="1414.98,-460.41 1409.37,-469.4 1419.36,-465.87 1414.98,-460.41"/>
</g>
<!-- Node8&#45;&gt;Node28 -->
<g id="edge40" class="edge">
<title>Node8&#45;&gt;Node28</title>
<path fill="none" stroke="midnightblue" d="M1327.16,-474.16C1238.76,-461.4 1081.61,-438.7 997.91,-426.61"/>
<polygon fill="midnightblue" stroke="midnightblue" points="1326.67,-477.63 1337.06,-475.59 1327.67,-470.7 1326.67,-477.63"/>
</g>
<!-- Node8&#45;&gt;Node38 -->
<g id="edge58" class="edge">
<title>Node8&#45;&gt;Node38</title>
<path fill="none" stroke="midnightblue" d="M1447.73,-466.51C1489.49,-453.83 1544.81,-437.02 1577.71,-427.03"/>
<polygon fill="midnightblue" stroke="midnightblue" points="1446.52,-463.22 1437.96,-469.48 1448.55,-469.92 1446.52,-463.22"/>
</g>
<!-- Node10 -->
<g id="node10" class="node">
<title>Node10</title>
<g id="a_node10"><a xlink:href="wait__group_8hpp.html" target="_top" xlink:title=" ">
<polygon fill="none" stroke="black" points="1333.79,-134.5 1333.79,-164.5 1429.79,-164.5 1429.79,-134.5 1333.79,-134.5"/>
<text text-anchor="start" x="1341.79" y="-152.5" font-family="Helvetica,sans-Serif" font-size="10.00">include/yaclib/algo</text>
<text text-anchor="middle" x="1381.79" y="-141.5" font-family="Helvetica,sans-Serif" font-size="10.00">/wait_group.hpp</text>
</a>
</g>
</g>
<!-- Node9&#45;&gt;Node10 -->
<g id="edge9" class="edge">
<title>Node9&#45;&gt;Node10</title>
<path fill="none" stroke="midnightblue" d="M1393.24,-258.39C1390.32,-230.9 1385.65,-186.89 1383.28,-164.52"/>
<polygon fill="midnightblue" stroke="midnightblue" points="1389.76,-258.8 1394.3,-268.37 1396.72,-258.06 1389.76,-258.8"/>
</g>
<!-- Node11 -->
<g id="node11" class="node">
<title>Node11</title>
<g id="a_node11"><a xlink:href="wait__group_8cpp.html" target="_top" xlink:title=" ">
<polygon fill="none" stroke="black" points="1322.29,-73 1322.29,-92 1441.29,-92 1441.29,-73 1322.29,-73"/>
<text text-anchor="middle" x="1381.79" y="-80" font-family="Helvetica,sans-Serif" font-size="10.00">src/algo/wait_group.cpp</text>
</a>
</g>
</g>
<!-- Node10&#45;&gt;Node11 -->
<g id="edge10" class="edge">
<title>Node10&#45;&gt;Node11</title>
<path fill="none" stroke="midnightblue" d="M1381.79,-124.25C1381.79,-113.02 1381.79,-100.38 1381.79,-92.19"/>
<polygon fill="midnightblue" stroke="midnightblue" points="1378.29,-124.4 1381.79,-134.4 1385.29,-124.4 1378.29,-124.4"/>
</g>
<!-- Node13 -->
<g id="node13" class="node">
<title>Node13</title>
<g id="a_node13"><a xlink:href="wait_8hpp.html" target="_top" xlink:title=" ">
<polygon fill="none" stroke="black" points="1115.79,-335.5 1115.79,-365.5 1211.79,-365.5 1211.79,-335.5 1115.79,-335.5"/>
<text text-anchor="start" x="1123.79" y="-353.5" font-family="Helvetica,sans-Serif" font-size="10.00">include/yaclib/algo</text>
<text text-anchor="middle" x="1163.79" y="-342.5" font-family="Helvetica,sans-Serif" font-size="10.00">/wait.hpp</text>
</a>
</g>
</g>
<!-- Node12&#45;&gt;Node13 -->
<g id="edge12" class="edge">
<title>Node12&#45;&gt;Node13</title>
<path fill="none" stroke="midnightblue" d="M1410.23,-403.96C1360.69,-393.94 1289.74,-379.4 1227.79,-366 1222.67,-364.89 1217.32,-363.71 1212,-362.53"/>
<polygon fill="midnightblue" stroke="midnightblue" points="1409.66,-407.41 1420.16,-405.96 1411.05,-400.55 1409.66,-407.41"/>
</g>
<!-- Node17 -->
<g id="node17" class="node">
<title>Node17</title>
<g id="a_node17"><a xlink:href="wait__for_8hpp.html" target="_top" xlink:title=" ">
<polygon fill="none" stroke="black" points="1447.79,-134.5 1447.79,-164.5 1543.79,-164.5 1543.79,-134.5 1447.79,-134.5"/>
<text text-anchor="start" x="1455.79" y="-152.5" font-family="Helvetica,sans-Serif" font-size="10.00">include/yaclib/algo</text>
<text text-anchor="middle" x="1495.79" y="-141.5" font-family="Helvetica,sans-Serif" font-size="10.00">/wait_for.hpp</text>
</a>
</g>
</g>
<!-- Node12&#45;&gt;Node17 -->
<g id="edge37" class="edge">
<title>Node12&#45;&gt;Node17</title>
<path fill="none" stroke="midnightblue" d="M1474.91,-392.07C1479.62,-337.57 1490.86,-207.52 1494.58,-164.55"/>
<polygon fill="midnightblue" stroke="midnightblue" points="1471.4,-391.93 1474.03,-402.2 1478.38,-392.54 1471.4,-391.93"/>
</g>
<!-- Node18 -->
<g id="node18" class="node">
<title>Node18</title>
<g id="a_node18"><a xlink:href="wait__until_8hpp.html" target="_top" xlink:title=" ">
<polygon fill="none" stroke="black" points="1561.79,-134.5 1561.79,-164.5 1657.79,-164.5 1657.79,-134.5 1561.79,-134.5"/>
<text text-anchor="start" x="1569.79" y="-152.5" font-family="Helvetica,sans-Serif" font-size="10.00">include/yaclib/algo</text>
<text text-anchor="middle" x="1609.79" y="-141.5" font-family="Helvetica,sans-Serif" font-size="10.00">/wait_until.hpp</text>
</a>
</g>
</g>
<!-- Node12&#45;&gt;Node18 -->
<g id="edge38" class="edge">
<title>Node12&#45;&gt;Node18</title>
<path fill="none" stroke="midnightblue" d="M1484.86,-393.08C1512.6,-339.2 1580.29,-207.79 1602.56,-164.55"/>
<polygon fill="midnightblue" stroke="midnightblue" points="1481.63,-391.71 1480.16,-402.2 1487.85,-394.91 1481.63,-391.71"/>
</g>
<!-- Node27 -->
<g id="node27" class="node">
<title>Node27</title>
<g id="a_node27"><a xlink:href="wait__impl_8cpp.html" target="_top" xlink:title=" ">
<polygon fill="none" stroke="black" points="1557.29,-341 1557.29,-360 1670.29,-360 1670.29,-341 1557.29,-341"/>
<text text-anchor="middle" x="1613.79" y="-348" font-family="Helvetica,sans-Serif" font-size="10.00">src/algo/wait_impl.cpp</text>
</a>
</g>
</g>
<!-- Node12&#45;&gt;Node27 -->
<g id="edge39" class="edge">
<title>Node12&#45;&gt;Node27</title>
<path fill="none" stroke="midnightblue" d="M1512.64,-398.13C1539.78,-385.62 1574.44,-369.64 1595.34,-360.01"/>
<polygon fill="midnightblue" stroke="midnightblue" points="1511,-395.03 1503.39,-402.4 1513.94,-401.39 1511,-395.03"/>
</g>
<!-- Node14 -->
<g id="node14" class="node">
<title>Node14</title>
<g id="a_node14"><a xlink:href="future__impl_8hpp.html" target="_top" xlink:title=" ">
<polygon fill="none" stroke="black" points="801.79,-268.5 801.79,-298.5 913.79,-298.5 913.79,-268.5 801.79,-268.5"/>
<text text-anchor="start" x="809.79" y="-286.5" font-family="Helvetica,sans-Serif" font-size="10.00">include/yaclib/async</text>
<text text-anchor="middle" x="857.79" y="-275.5" font-family="Helvetica,sans-Serif" font-size="10.00">/detail/future_impl.hpp</text>
</a>
</g>
</g>
<!-- Node13&#45;&gt;Node14 -->
<g id="edge13" class="edge">
<title>Node13&#45;&gt;Node14</title>
<path fill="none" stroke="midnightblue" d="M1105.54,-334.77C1033.98,-318.57 962.14,-304.33 913.84,-295.05"/>
<polygon fill="midnightblue" stroke="midnightblue" points="1105.1,-338.26 1115.63,-337.07 1106.66,-331.44 1105.1,-338.26"/>
</g>
<!-- Node15 -->
<g id="node15" class="node">
<title>Node15</title>
<g id="a_node15"><a xlink:href="future_8hpp.html" target="_top" xlink:title=" ">
<polygon fill="none" stroke="black" points="889.79,-201.5 889.79,-231.5 993.79,-231.5 993.79,-201.5 889.79,-201.5"/>
<text text-anchor="start" x="897.79" y="-219.5" font-family="Helvetica,sans-Serif" font-size="10.00">include/yaclib/async</text>
<text text-anchor="middle" x="941.79" y="-208.5" font-family="Helvetica,sans-Serif" font-size="10.00">/future.hpp</text>
</a>
</g>
</g>
<!-- Node14&#45;&gt;Node15 -->
<g id="edge14" class="edge">
<title>Node14&#45;&gt;Node15</title>
<path fill="none" stroke="midnightblue" d="M884.07,-262.17C896.91,-252.23 912.05,-240.51 923.6,-231.58"/>
<polygon fill="midnightblue" stroke="midnightblue" points="881.79,-259.51 876.02,-268.4 886.07,-265.04 881.79,-259.51"/>
</g>
<!-- Node15&#45;&gt;Node3 -->
<g id="edge22" class="edge">
<title>Node15&#45;&gt;Node3</title>
<path fill="none" stroke="midnightblue" d="M1003.99,-204.01C1035.31,-196.29 1072.89,-183.98 1102.79,-165 1131.04,-147.07 1155.54,-115.87 1168.33,-97.71"/>
<polygon fill="midnightblue" stroke="midnightblue" points="1002.98,-200.65 994.06,-206.35 1004.59,-207.46 1002.98,-200.65"/>
</g>
<!-- Node15&#45;&gt;Node6 -->
<g id="edge23" class="edge">
<title>Node15&#45;&gt;Node6</title>
<path fill="none" stroke="midnightblue" d="M879.87,-207.72C850.45,-200.99 816.95,-188.43 794.79,-165 777.22,-146.41 772.91,-115.44 771.95,-97.51"/>
<polygon fill="midnightblue" stroke="midnightblue" points="879.17,-211.15 889.68,-209.79 880.61,-204.3 879.17,-211.15"/>
</g>
<!-- Node15&#45;&gt;Node10 -->
<g id="edge20" class="edge">
<title>Node15&#45;&gt;Node10</title>
<path fill="none" stroke="midnightblue" d="M1004.1,-206.5C1073.21,-196.48 1187.99,-179.77 1286.79,-165 1301.97,-162.73 1318.51,-160.22 1333.47,-157.93"/>
<polygon fill="midnightblue" stroke="midnightblue" points="1003.22,-203.09 993.83,-207.98 1004.23,-210.02 1003.22,-203.09"/>
</g>
<!-- Node15&#45;&gt;Node13 -->
<g id="edge18" class="edge">
<title>Node15&#45;&gt;Node13</title>
<path fill="none" stroke="midnightblue" d="M974.18,-236.75C1019.31,-263.59 1100.06,-311.6 1140.04,-335.37"/>
<polygon fill="midnightblue" stroke="midnightblue" points="975.76,-233.63 965.38,-231.52 972.19,-239.64 975.76,-233.63"/>
</g>
<!-- Node16 -->
<g id="node16" class="node">
<title>Node16</title>
<g id="a_node16"><a xlink:href="when__impl_8hpp.html" target="_top" xlink:title=" ">
<polygon fill="none" stroke="black" points="803.79,-134.5 803.79,-164.5 913.79,-164.5 913.79,-134.5 803.79,-134.5"/>
<text text-anchor="start" x="811.79" y="-152.5" font-family="Helvetica,sans-Serif" font-size="10.00">include/yaclib/algo</text>
<text text-anchor="middle" x="858.79" y="-141.5" font-family="Helvetica,sans-Serif" font-size="10.00">/detail/when_impl.hpp</text>
</a>
</g>
</g>
<!-- Node15&#45;&gt;Node16 -->
<g id="edge15" class="edge">
<title>Node15&#45;&gt;Node16</title>
<path fill="none" stroke="midnightblue" d="M915.83,-195.17C903.14,-185.23 888.18,-173.51 876.77,-164.58"/>
<polygon fill="midnightblue" stroke="midnightblue" points="913.75,-197.99 923.78,-201.4 918.07,-192.47 913.75,-197.99"/>
</g>
<!-- Node15&#45;&gt;Node17 -->
<g id="edge19" class="edge">
<title>Node15&#45;&gt;Node17</title>
<path fill="none" stroke="midnightblue" d="M1004.27,-212.12C1098.86,-206.34 1283.83,-192.43 1438.79,-165 1441.71,-164.48 1444.7,-163.9 1447.7,-163.27"/>
<polygon fill="midnightblue" stroke="midnightblue" points="1003.79,-208.65 994.02,-212.74 1004.21,-215.63 1003.79,-208.65"/>
</g>
<!-- Node15&#45;&gt;Node18 -->
<g id="edge21" class="edge">
<title>Node15&#45;&gt;Node18</title>
<path fill="none" stroke="midnightblue" d="M1004.07,-213.78C1115.05,-209.94 1354.03,-198.26 1552.79,-165 1555.71,-164.51 1558.7,-163.95 1561.71,-163.33"/>
<polygon fill="midnightblue" stroke="midnightblue" points="1003.94,-210.28 994.06,-214.11 1004.17,-217.27 1003.94,-210.28"/>
</g>
<!-- Node19 -->
<g id="node19" class="node">
<title>Node19</title>
<g id="a_node19"><a xlink:href="contract_8hpp.html" target="_top" xlink:title=" ">
<polygon fill="none" stroke="black" points="225.79,-134.5 225.79,-164.5 329.79,-164.5 329.79,-134.5 225.79,-134.5"/>
<text text-anchor="start" x="233.79" y="-152.5" font-family="Helvetica,sans-Serif" font-size="10.00">include/yaclib/async</text>
<text text-anchor="middle" x="277.79" y="-141.5" font-family="Helvetica,sans-Serif" font-size="10.00">/contract.hpp</text>
</a>
</g>
</g>
<!-- Node15&#45;&gt;Node19 -->
<g id="edge24" class="edge">
<title>Node15&#45;&gt;Node19</title>
<path fill="none" stroke="midnightblue" d="M879.45,-211.47C747.07,-202.72 441.67,-181.44 338.79,-165 335.89,-164.54 332.92,-164.01 329.93,-163.44"/>
<polygon fill="midnightblue" stroke="midnightblue" points="879.22,-214.96 889.43,-212.13 879.68,-207.98 879.22,-214.96"/>
</g>
<!-- Node20 -->
<g id="node20" class="node">
<title>Node20</title>
<g id="a_node20"><a xlink:href="simple_8cpp.html" target="_top" xlink:title=" ">
<polygon fill="none" stroke="black" points="396.29,-67.5 396.29,-97.5 497.29,-97.5 497.29,-67.5 396.29,-67.5"/>
<text text-anchor="start" x="404.29" y="-85.5" font-family="Helvetica,sans-Serif" font-size="10.00">test/example/async</text>
<text text-anchor="middle" x="446.79" y="-74.5" font-family="Helvetica,sans-Serif" font-size="10.00">/simple.cpp</text>
</a>
</g>
</g>
<!-- Node15&#45;&gt;Node20 -->
<g id="edge36" class="edge">
<title>Node15&#45;&gt;Node20</title>
<path fill="none" stroke="midnightblue" d="M879.42,-214.58C815.4,-211.54 714.2,-200.81 634.79,-165 614.92,-156.04 615.87,-144.54 596.79,-134 565.52,-116.73 527.33,-103.98 497.31,-95.61"/>
<polygon fill="midnightblue" stroke="midnightblue" points="879.61,-218.1 889.75,-215.02 879.91,-211.1 879.61,-218.1"/>
</g>
<!-- Node21 -->
<g id="node21" class="node">
<title>Node21</title>
<g id="a_node21"><a xlink:href="run_8hpp.html" target="_top" xlink:title=" ">
<polygon fill="none" stroke="black" points="643.79,-134.5 643.79,-164.5 747.79,-164.5 747.79,-134.5 643.79,-134.5"/>
<text text-anchor="start" x="651.79" y="-152.5" font-family="Helvetica,sans-Serif" font-size="10.00">include/yaclib/async</text>
<text text-anchor="middle" x="695.79" y="-141.5" font-family="Helvetica,sans-Serif" font-size="10.00">/run.hpp</text>
</a>
</g>
</g>
<!-- Node15&#45;&gt;Node21 -->
<g id="edge26" class="edge">
<title>Node15&#45;&gt;Node21</title>
<path fill="none" stroke="midnightblue" d="M879.81,-199.12C839.1,-188.36 786.44,-174.45 747.89,-164.26"/>
<polygon fill="midnightblue" stroke="midnightblue" points="879.06,-202.54 889.62,-201.72 880.85,-195.78 879.06,-202.54"/>
</g>
<!-- Node22 -->
<g id="node22" class="node">
<title>Node22</title>
<g id="a_node22"><a xlink:href="await_8hpp.html" target="_top" xlink:title=" ">
<polygon fill="none" stroke="black" points="875.79,-67.5 875.79,-97.5 993.79,-97.5 993.79,-67.5 875.79,-67.5"/>
<text text-anchor="start" x="883.79" y="-85.5" font-family="Helvetica,sans-Serif" font-size="10.00">include/yaclib/coroutine</text>
<text text-anchor="middle" x="934.79" y="-74.5" font-family="Helvetica,sans-Serif" font-size="10.00">/await.hpp</text>
</a>
</g>
</g>
<!-- Node15&#45;&gt;Node22 -->
<g id="edge30" class="edge">
<title>Node15&#45;&gt;Node22</title>
<path fill="none" stroke="midnightblue" d="M940.5,-191.02C939.04,-163.51 936.72,-119.79 935.54,-97.52"/>
<polygon fill="midnightblue" stroke="midnightblue" points="937.02,-191.57 941.04,-201.37 944.01,-191.2 937.02,-191.57"/>
</g>
<!-- Node23 -->
<g id="node23" class="node">
<title>Node23</title>
<g id="a_node23"><a xlink:href="await__awaiter_8hpp.html" target="_top" xlink:title=" ">
<polygon fill="none" stroke="black" points="969.79,-134.5 969.79,-164.5 1093.79,-164.5 1093.79,-134.5 969.79,-134.5"/>
<text text-anchor="start" x="977.79" y="-152.5" font-family="Helvetica,sans-Serif" font-size="10.00">include/yaclib/coroutine</text>
<text text-anchor="middle" x="1031.79" y="-141.5" font-family="Helvetica,sans-Serif" font-size="10.00">/detail/await_awaiter.hpp</text>
</a>
</g>
</g>
<!-- Node15&#45;&gt;Node23 -->
<g id="edge31" class="edge">
<title>Node15&#45;&gt;Node23</title>
<path fill="none" stroke="midnightblue" d="M969.55,-195.45C983.4,-185.45 999.81,-173.6 1012.3,-164.58"/>
<polygon fill="midnightblue" stroke="midnightblue" points="967.38,-192.7 961.32,-201.4 971.48,-198.38 967.38,-192.7"/>
</g>
<!-- Node25 -->
<g id="node25" class="node">
<title>Node25</title>
<g id="a_node25"><a xlink:href="future__traits_8hpp.html" target="_top" xlink:title=" ">
<polygon fill="none" stroke="black" points="469.79,-134.5 469.79,-164.5 587.79,-164.5 587.79,-134.5 469.79,-134.5"/>
<text text-anchor="start" x="477.79" y="-152.5" font-family="Helvetica,sans-Serif" font-size="10.00">include/yaclib/coroutine</text>
<text text-anchor="middle" x="528.79" y="-141.5" font-family="Helvetica,sans-Serif" font-size="10.00">/future_traits.hpp</text>
</a>
</g>
</g>
<!-- Node15&#45;&gt;Node25 -->
<g id="edge34" class="edge">
<title>Node15&#45;&gt;Node25</title>
<path fill="none" stroke="midnightblue" d="M879.38,-207.16C811.07,-197.81 698.41,-181.76 601.79,-165 597.34,-164.23 592.74,-163.39 588.11,-162.53"/>
<polygon fill="midnightblue" stroke="midnightblue" points="879.15,-210.66 889.54,-208.54 880.1,-203.72 879.15,-210.66"/>
</g>
<!-- Node26 -->
<g id="node26" class="node">
<title>Node26</title>
<g id="a_node26"><a xlink:href="future__impl_8cpp.html" target="_top" xlink:title=" ">
<polygon fill="none" stroke="black" points="1149.79,-140 1149.79,-159 1277.79,-159 1277.79,-140 1149.79,-140"/>
<text text-anchor="middle" x="1213.79" y="-147" font-family="Helvetica,sans-Serif" font-size="10.00">src/async/future_impl.cpp</text>
</a>
</g>
</g>
<!-- Node15&#45;&gt;Node26 -->
<g id="edge35" class="edge">
<title>Node15&#45;&gt;Node26</title>
<path fill="none" stroke="midnightblue" d="M1003.69,-200.71C1057.5,-187.85 1133.59,-169.67 1177.9,-159.08"/>
<polygon fill="midnightblue" stroke="midnightblue" points="1002.83,-197.32 993.92,-203.04 1004.46,-204.12 1002.83,-197.32"/>
</g>
<!-- Node16&#45;&gt;Node3 -->
<g id="edge16" class="edge">
<title>Node16&#45;&gt;Node3</title>
<path fill="none" stroke="midnightblue" d="M923.91,-137.05C977.05,-127.44 1054.01,-112.92 1120.79,-98 1123.68,-97.35 1126.65,-96.67 1129.64,-95.96"/>
<polygon fill="midnightblue" stroke="midnightblue" points="923.16,-133.63 913.94,-138.84 924.4,-140.51 923.16,-133.63"/>
</g>
<!-- Node16&#45;&gt;Node6 -->
<g id="edge17" class="edge">
<title>Node16&#45;&gt;Node6</title>
<path fill="none" stroke="midnightblue" d="M831.58,-128.17C818.28,-118.23 802.6,-106.51 790.63,-97.58"/>
<polygon fill="midnightblue" stroke="midnightblue" points="829.81,-131.21 839.92,-134.4 834,-125.61 829.81,-131.21"/>
</g>
<!-- Node19&#45;&gt;Node20 -->
<g id="edge25" class="edge">
<title>Node19&#45;&gt;Node20</title>
<path fill="none" stroke="midnightblue" d="M324.12,-130.68C351.23,-120.26 384.96,-107.28 410.19,-97.58"/>
<polygon fill="midnightblue" stroke="midnightblue" points="322.54,-127.54 314.46,-134.4 325.05,-134.07 322.54,-127.54"/>
</g>
<!-- Node21&#45;&gt;Node4 -->
<g id="edge28" class="edge">
<title>Node21&#45;&gt;Node4</title>
<path fill="none" stroke="midnightblue" d="M757.83,-134.46C781.93,-126.71 808.55,-115.08 828.79,-98 850.63,-79.58 864.96,-48.55 871.9,-30.56"/>
<polygon fill="midnightblue" stroke="midnightblue" points="756.58,-131.18 748.03,-137.45 758.62,-137.88 756.58,-131.18"/>
</g>
<!-- Node21&#45;&gt;Node7 -->
<g id="edge29" class="edge">
<title>Node21&#45;&gt;Node7</title>
<path fill="none" stroke="midnightblue" d="M699.69,-124.41C702.77,-107.92 707.74,-85.74 714.79,-67 719.63,-54.16 727.1,-40.49 732.95,-30.61"/>
<polygon fill="midnightblue" stroke="midnightblue" points="696.23,-123.87 697.94,-134.33 703.13,-125.09 696.23,-123.87"/>
</g>
<!-- Node21&#45;&gt;Node20 -->
<g id="edge27" class="edge">
<title>Node21&#45;&gt;Node20</title>
<path fill="none" stroke="midnightblue" d="M633.76,-132.31C591.79,-121.35 537.04,-107.06 497.65,-96.77"/>
<polygon fill="midnightblue" stroke="midnightblue" points="633.04,-135.73 643.6,-134.87 634.8,-128.96 633.04,-135.73"/>
</g>
<!-- Node23&#45;&gt;Node22 -->
<g id="edge32" class="edge">
<title>Node23&#45;&gt;Node22</title>
<path fill="none" stroke="midnightblue" d="M1002.3,-128.73C987.29,-118.68 969.39,-106.68 955.8,-97.58"/>
<polygon fill="midnightblue" stroke="midnightblue" points="1000.49,-131.74 1010.75,-134.4 1004.39,-125.92 1000.49,-131.74"/>
</g>
<!-- Node24 -->
<g id="node24" class="node">
<title>Node24</title>
<g id="a_node24"><a xlink:href="await__awaiter_8cpp.html" target="_top" xlink:title=" ">
<polygon fill="none" stroke="black" points="1012.29,-67.5 1012.29,-97.5 1111.29,-97.5 1111.29,-67.5 1012.29,-67.5"/>
<text text-anchor="start" x="1020.29" y="-85.5" font-family="Helvetica,sans-Serif" font-size="10.00">src/coroutine/await</text>
<text text-anchor="middle" x="1061.79" y="-74.5" font-family="Helvetica,sans-Serif" font-size="10.00">_awaiter.cpp</text>
</a>
</g>
</g>
<!-- Node23&#45;&gt;Node24 -->
<g id="edge33" class="edge">
<title>Node23&#45;&gt;Node24</title>
<path fill="none" stroke="midnightblue" d="M1042.51,-125.28C1046.78,-116.02 1051.56,-105.66 1055.3,-97.58"/>
<polygon fill="midnightblue" stroke="midnightblue" points="1039.32,-123.85 1038.3,-134.4 1045.67,-126.78 1039.32,-123.85"/>
</g>
<!-- Node28&#45;&gt;Node2 -->
<g id="edge41" class="edge">
<title>Node28&#45;&gt;Node2</title>
<path fill="none" stroke="midnightblue" d="M1007.8,-404.64C1064.35,-394.46 1147.94,-379.36 1220.79,-366 1225.81,-365.08 1231,-364.12 1236.22,-363.16"/>
<polygon fill="midnightblue" stroke="midnightblue" points="1007.14,-401.21 997.92,-406.42 1008.38,-408.1 1007.14,-401.21"/>
</g>
<!-- Node28&#45;&gt;Node5 -->
<g id="edge42" class="edge">
<title>Node28&#45;&gt;Node5</title>
<path fill="none" stroke="midnightblue" d="M875.79,-410.39C788.75,-402.02 630.91,-385.74 496.79,-366 492.19,-365.32 487.44,-364.58 482.66,-363.8"/>
<polygon fill="midnightblue" stroke="midnightblue" points="875.5,-413.88 885.79,-411.35 876.17,-406.91 875.5,-413.88"/>
</g>
<!-- Node28&#45;&gt;Node15 -->
<g id="edge46" class="edge">
<title>Node28&#45;&gt;Node15</title>
<path fill="none" stroke="midnightblue" d="M941.79,-392C941.79,-349.93 941.79,-265.26 941.79,-231.68"/>
<polygon fill="midnightblue" stroke="midnightblue" points="938.29,-392.19 941.79,-402.19 945.29,-392.19 938.29,-392.19"/>
</g>
<!-- Node29 -->
<g id="node29" class="node">
<title>Node29</title>
<g id="a_node29"><a xlink:href="core_8hpp.html" target="_top" xlink:title=" ">
<polygon fill="none" stroke="black" points="805.79,-335.5 805.79,-365.5 909.79,-365.5 909.79,-335.5 805.79,-335.5"/>
<text text-anchor="start" x="813.79" y="-353.5" font-family="Helvetica,sans-Serif" font-size="10.00">include/yaclib/async</text>
<text text-anchor="middle" x="857.79" y="-342.5" font-family="Helvetica,sans-Serif" font-size="10.00">/detail/core.hpp</text>
</a>
</g>
</g>
<!-- Node28&#45;&gt;Node29 -->
<g id="edge43" class="edge">
<title>Node28&#45;&gt;Node29</title>
<path fill="none" stroke="midnightblue" d="M915.52,-396.17C902.67,-386.23 887.54,-374.51 875.98,-365.58"/>
<polygon fill="midnightblue" stroke="midnightblue" points="913.52,-399.04 923.57,-402.4 917.8,-393.51 913.52,-399.04"/>
</g>
<!-- Node30 -->
<g id="node30" class="node">
<title>Node30</title>
<g id="a_node30"><a xlink:href="promise_8hpp.html" target="_top" xlink:title=" ">
<polygon fill="none" stroke="black" points="185.79,-201.5 185.79,-231.5 289.79,-231.5 289.79,-201.5 185.79,-201.5"/>
<text text-anchor="start" x="193.79" y="-219.5" font-family="Helvetica,sans-Serif" font-size="10.00">include/yaclib/async</text>
<text text-anchor="middle" x="237.79" y="-208.5" font-family="Helvetica,sans-Serif" font-size="10.00">/promise.hpp</text>
</a>
</g>
</g>
<!-- Node28&#45;&gt;Node30 -->
<g id="edge47" class="edge">
<title>Node28&#45;&gt;Node30</title>
<path fill="none" stroke="midnightblue" d="M875.47,-410.25C809.95,-403.11 707.28,-389.28 620.79,-366 485.13,-329.48 331.46,-261.23 267.83,-231.71"/>
<polygon fill="midnightblue" stroke="midnightblue" points="875.34,-413.76 885.65,-411.34 876.08,-406.8 875.34,-413.76"/>
</g>
<!-- Node32 -->
<g id="node32" class="node">
<title>Node32</title>
<g id="a_node32"><a xlink:href="promise__type_8hpp.html" target="_top" xlink:title=" ">
<polygon fill="none" stroke="black" points="629.79,-335.5 629.79,-365.5 751.79,-365.5 751.79,-335.5 629.79,-335.5"/>
<text text-anchor="start" x="637.79" y="-353.5" font-family="Helvetica,sans-Serif" font-size="10.00">include/yaclib/coroutine</text>
<text text-anchor="middle" x="690.79" y="-342.5" font-family="Helvetica,sans-Serif" font-size="10.00">/detail/promise_type.hpp</text>
</a>
</g>
</g>
<!-- Node28&#45;&gt;Node32 -->
<g id="edge51" class="edge">
<title>Node28&#45;&gt;Node32</title>
<path fill="none" stroke="midnightblue" d="M877.76,-399.92C836.8,-389.31 784.24,-375.7 745.28,-365.61"/>
<polygon fill="midnightblue" stroke="midnightblue" points="877.08,-403.36 887.64,-402.48 878.84,-396.58 877.08,-403.36"/>
</g>
<!-- Node37 -->
<g id="node37" class="node">
<title>Node37</title>
<g id="a_node37"><a xlink:href="result__core_8cpp.html" target="_top" xlink:title=" ">
<polygon fill="none" stroke="black" points="969.79,-341 969.79,-360 1097.79,-360 1097.79,-341 969.79,-341"/>
<text text-anchor="middle" x="1033.79" y="-348" font-family="Helvetica,sans-Serif" font-size="10.00">src/async/result_core.cpp</text>
</a>
</g>
</g>
<!-- Node28&#45;&gt;Node37 -->
<g id="edge57" class="edge">
<title>Node28&#45;&gt;Node37</title>
<path fill="none" stroke="midnightblue" d="M970.38,-396.31C987.65,-384.1 1008.77,-369.18 1021.75,-360.01"/>
<polygon fill="midnightblue" stroke="midnightblue" points="967.9,-393.77 961.76,-402.4 971.94,-399.48 967.9,-393.77"/>
</g>
<!-- Node29&#45;&gt;Node14 -->
<g id="edge44" class="edge">
<title>Node29&#45;&gt;Node14</title>
<path fill="none" stroke="midnightblue" d="M857.79,-325.11C857.79,-316.15 857.79,-306.32 857.79,-298.58"/>
<polygon fill="midnightblue" stroke="midnightblue" points="854.29,-325.4 857.79,-335.4 861.29,-325.4 854.29,-325.4"/>
</g>
<!-- Node29&#45;&gt;Node21 -->
<g id="edge45" class="edge">
<title>Node29&#45;&gt;Node21</title>
<path fill="none" stroke="midnightblue" d="M827.9,-329.53C816.21,-320.92 803.16,-310.25 792.79,-299 752.32,-255.06 717.48,-192.44 702.98,-164.68"/>
<polygon fill="midnightblue" stroke="midnightblue" points="825.95,-332.43 836.12,-335.41 830.03,-326.74 825.95,-332.43"/>
</g>
<!-- Node30&#45;&gt;Node19 -->
<g id="edge48" class="edge">
<title>Node30&#45;&gt;Node19</title>
<path fill="none" stroke="midnightblue" d="M251.72,-192.87C257.51,-183.46 264.05,-172.83 269.13,-164.58"/>
<polygon fill="midnightblue" stroke="midnightblue" points="248.73,-191.05 246.47,-201.4 254.69,-194.71 248.73,-191.05"/>
</g>
<!-- Node30&#45;&gt;Node20 -->
<g id="edge50" class="edge">
<title>Node30&#45;&gt;Node20</title>
<path fill="none" stroke="midnightblue" d="M222.18,-192.67C212.19,-174.95 203.38,-150.68 216.79,-134 238.86,-106.56 335.36,-93.19 396.14,-87.37"/>
<polygon fill="midnightblue" stroke="midnightblue" points="219.22,-194.53 227.41,-201.26 225.2,-190.9 219.22,-194.53"/>
</g>
<!-- Node31 -->
<g id="node31" class="node">
<title>Node31</title>
<g id="a_node31"><a xlink:href="promise__impl_8cpp.html" target="_top" xlink:title=" ">
<polygon fill="none" stroke="black" points="32.29,-140 32.29,-159 169.29,-159 169.29,-140 32.29,-140"/>
<text text-anchor="middle" x="100.79" y="-147" font-family="Helvetica,sans-Serif" font-size="10.00">src/async/promise_impl.cpp</text>
</a>
</g>
</g>
<!-- Node30&#45;&gt;Node31 -->
<g id="edge49" class="edge">
<title>Node30&#45;&gt;Node31</title>
<path fill="none" stroke="midnightblue" d="M198.73,-196.97C172.42,-184.48 138.94,-168.6 118.72,-159.01"/>
<polygon fill="midnightblue" stroke="midnightblue" points="197.53,-200.27 208.07,-201.4 200.53,-193.95 197.53,-200.27"/>
</g>
<!-- Node32&#45;&gt;Node25 -->
<g id="edge56" class="edge">
<title>Node32&#45;&gt;Node25</title>
<path fill="none" stroke="midnightblue" d="M694.65,-325.11C698.28,-292.98 699.53,-236.42 670.79,-201 659.71,-187.33 621.07,-174.09 586.9,-164.59"/>
<polygon fill="midnightblue" stroke="midnightblue" points="691.13,-325.01 693.31,-335.38 698.07,-325.91 691.13,-325.01"/>
</g>
<!-- Node33 -->
<g id="node33" class="node">
<title>Node33</title>
<g id="a_node33"><a xlink:href="on__awaiter_8hpp.html" target="_top" xlink:title=" ">
<polygon fill="none" stroke="black" points="538.79,-268.5 538.79,-298.5 656.79,-298.5 656.79,-268.5 538.79,-268.5"/>
<text text-anchor="start" x="546.79" y="-286.5" font-family="Helvetica,sans-Serif" font-size="10.00">include/yaclib/coroutine</text>
<text text-anchor="middle" x="597.79" y="-275.5" font-family="Helvetica,sans-Serif" font-size="10.00">/detail/on_awaiter.hpp</text>
</a>
</g>
</g>
<!-- Node32&#45;&gt;Node33 -->
<g id="edge52" class="edge">
<title>Node32&#45;&gt;Node33</title>
<path fill="none" stroke="midnightblue" d="M662.11,-329.45C647.8,-319.45 630.84,-307.6 617.93,-298.58"/>
<polygon fill="midnightblue" stroke="midnightblue" points="660.41,-332.54 670.61,-335.4 664.42,-326.8 660.41,-332.54"/>
</g>
<!-- Node34 -->
<g id="node34" class="node">
<title>Node34</title>
<g id="a_node34"><a xlink:href="on_8hpp.html" target="_top" xlink:title=" ">
<polygon fill="none" stroke="black" points="379.79,-201.5 379.79,-231.5 497.79,-231.5 497.79,-201.5 379.79,-201.5"/>
<text text-anchor="start" x="387.79" y="-219.5" font-family="Helvetica,sans-Serif" font-size="10.00">include/yaclib/coroutine</text>
<text text-anchor="middle" x="438.79" y="-208.5" font-family="Helvetica,sans-Serif" font-size="10.00">/on.hpp</text>
</a>
</g>
</g>
<!-- Node33&#45;&gt;Node34 -->
<g id="edge53" class="edge">
<title>Node33&#45;&gt;Node34</title>
<path fill="none" stroke="midnightblue" d="M553.87,-264.54C528.43,-254.14 496.86,-241.24 473.23,-231.58"/>
<polygon fill="midnightblue" stroke="midnightblue" points="552.71,-267.85 563.29,-268.4 555.36,-261.37 552.71,-267.85"/>
</g>
<!-- Node36 -->
<g id="node36" class="node">
<title>Node36</title>
<g id="a_node36"><a xlink:href="on__awaiter_8cpp.html" target="_top" xlink:title=" ">
<polygon fill="none" stroke="black" points="521.29,-207 521.29,-226 662.29,-226 662.29,-207 521.29,-207"/>
<text text-anchor="middle" x="591.79" y="-214" font-family="Helvetica,sans-Serif" font-size="10.00">src/coroutine/on_awaiter.cpp</text>
</a>
</g>
</g>
<!-- Node33&#45;&gt;Node36 -->
<g id="edge55" class="edge">
<title>Node33&#45;&gt;Node36</title>
<path fill="none" stroke="midnightblue" d="M595.56,-258.25C594.52,-247.02 593.35,-234.38 592.6,-226.19"/>
<polygon fill="midnightblue" stroke="midnightblue" points="592.09,-258.76 596.49,-268.4 599.06,-258.12 592.09,-258.76"/>
</g>
<!-- Node35 -->
<g id="node35" class="node">
<title>Node35</title>
<g id="a_node35"><a xlink:href="on_8cpp.html" target="_top" xlink:title=" ">
<polygon fill="none" stroke="black" points="347.79,-140 347.79,-159 451.79,-159 451.79,-140 347.79,-140"/>
<text text-anchor="middle" x="399.79" y="-147" font-family="Helvetica,sans-Serif" font-size="10.00">src/coroutine/on.cpp</text>
</a>
</g>
</g>
<!-- Node34&#45;&gt;Node35 -->
<g id="edge54" class="edge">
<title>Node34&#45;&gt;Node35</title>
<path fill="none" stroke="midnightblue" d="M425.07,-192.63C418.13,-181.07 410.12,-167.71 405.01,-159.19"/>
<polygon fill="midnightblue" stroke="midnightblue" points="422.18,-194.62 430.33,-201.4 428.19,-191.02 422.18,-194.62"/>
</g>
</g>
</svg>
