<?xml version="1.0" encoding="UTF-8" standalone="no"?>
<!DOCTYPE svg PUBLIC "-//W3C//DTD SVG 1.1//EN"
 "http://www.w3.org/Graphics/SVG/1.1/DTD/svg11.dtd">
<!-- Generated by graphviz version 3.0.0 (20220413.0106)
 -->
<!-- Title: include/yaclib/util/detail/mutex_event.hpp Pages: 1 -->
<!--zoomable 575 -->
<svg id="main" version="1.1" xmlns="http://www.w3.org/2000/svg" xmlns:xlink="http://www.w3.org/1999/xlink" xml:space="preserve" onload="init(evt)">
<style type="text/css"><![CDATA[
.edge:hover path { stroke: red; }
.edge:hover polygon { stroke: red; fill: red; }
]]></style>
<script type="text/javascript"><![CDATA[
var edges = document.getElementsByTagName('g');
if (edges && edges.length) {
  for (var i=0;i<edges.length;i++) {
    if (edges[i].id.substr(0,4)=='edge') {
      edges[i].setAttribute('class','edge');
    }
  }
}
]]></script>
        <defs>
                <circle id="rim" cx="0" cy="0" r="7"/>
                <circle id="rim2" cx="0" cy="0" r="3.5"/>
                <g id="zoomPlus">
                        <use xlink:href="#rim" fill="#404040">
                                <set attributeName="fill" to="#808080" begin="zoomplus.mouseover" end="zoomplus.mouseout"/>
                        </use>
                        <path d="M-4,0h8M0,-4v8" fill="none" stroke="white" stroke-width="1.5" pointer-events="none"/>
                </g>
                <g id="zoomMin">
                        <use xlink:href="#rim" fill="#404040">
                                <set attributeName="fill" to="#808080" begin="zoomminus.mouseover" end="zoomminus.mouseout"/>
                        </use>
                        <path d="M-4,0h8" fill="none" stroke="white" stroke-width="1.5" pointer-events="none"/>
                </g>
                <g id="dirArrow">
                        <path fill="none" stroke="white" stroke-width="1.5" d="M0,-3.0v7 M-2.5,-0.5L0,-3.0L2.5,-0.5"/>
                </g>
               <g id="resetDef">
                       <use xlink:href="#rim2" fill="#404040">
                               <set attributeName="fill" to="#808080" begin="reset.mouseover" end="reset.mouseout"/>
                       </use>
               </g>
        </defs>

<script type="text/javascript">
var viewWidth = 1356;
var viewHeight = 575;
var sectionId = 'dynsection-1';
</script>
<script xlink:href="svgpan.js"/>
<svg id="graph" class="graph">
<g id="viewport">
<title>include/yaclib/util/detail/mutex_event.hpp</title>
<!-- Node1 -->
<g id="node1" class="node">
<title>Node1</title>
<g id="a_node1"><a xlink:title=" ">
<polygon fill="#bfbfbf" stroke="black" points="1100,-536.5 1100,-566.5 1219,-566.5 1219,-536.5 1100,-536.5"/>
<text text-anchor="start" x="1108" y="-554.5" font-family="Helvetica,sans-Serif" font-size="10.00">include/yaclib/util</text>
<text text-anchor="middle" x="1159.5" y="-543.5" font-family="Helvetica,sans-Serif" font-size="10.00">/detail/mutex_event.hpp</text>
</a>
</g>
</g>
<!-- Node2 -->
<g id="node2" class="node">
<title>Node2</title>
<g id="a_node2"><a xlink:href="wait__for_8hpp.html" target="_top" xlink:title=" ">
<polygon fill="none" stroke="black" points="1073.5,-134.5 1073.5,-164.5 1169.5,-164.5 1169.5,-134.5 1073.5,-134.5"/>
<text text-anchor="start" x="1081.5" y="-152.5" font-family="Helvetica,sans-Serif" font-size="10.00">include/yaclib/algo</text>
<text text-anchor="middle" x="1121.5" y="-141.5" font-family="Helvetica,sans-Serif" font-size="10.00">/wait_for.hpp</text>
</a>
</g>
</g>
<!-- Node1&#45;&gt;Node2 -->
<g id="edge1" class="edge">
<title>Node1&#45;&gt;Node2</title>
<path fill="none" stroke="midnightblue" d="M1153.94,-526.49C1148.33,-500.15 1140.5,-456.55 1140.5,-418.5 1140.5,-418.5 1140.5,-418.5 1140.5,-349.5 1140.5,-280.09 1128.9,-197.67 1123.83,-164.94"/>
<polygon fill="midnightblue" stroke="midnightblue" points="1150.54,-527.32 1156.1,-536.34 1157.37,-525.82 1150.54,-527.32"/>
</g>
<!-- Node3 -->
<g id="node3" class="node">
<title>Node3</title>
<g id="a_node3"><a xlink:href="wait__until_8hpp.html" target="_top" xlink:title=" ">
<polygon fill="none" stroke="black" points="1187.5,-134.5 1187.5,-164.5 1283.5,-164.5 1283.5,-134.5 1187.5,-134.5"/>
<text text-anchor="start" x="1195.5" y="-152.5" font-family="Helvetica,sans-Serif" font-size="10.00">include/yaclib/algo</text>
<text text-anchor="middle" x="1235.5" y="-141.5" font-family="Helvetica,sans-Serif" font-size="10.00">/wait_until.hpp</text>
</a>
</g>
</g>
<!-- Node1&#45;&gt;Node3 -->
<g id="edge2" class="edge">
<title>Node1&#45;&gt;Node3</title>
<path fill="none" stroke="midnightblue" d="M1170.65,-526.86C1181.87,-500.89 1197.5,-457.66 1197.5,-418.5 1197.5,-418.5 1197.5,-418.5 1197.5,-282.5 1197.5,-238.14 1217.56,-188.56 1228.53,-164.76"/>
<polygon fill="midnightblue" stroke="midnightblue" points="1167.35,-525.68 1166.47,-536.24 1173.74,-528.53 1167.35,-525.68"/>
</g>
<!-- Node4 -->
<g id="node4" class="node">
<title>Node4</title>
<g id="a_node4"><a xlink:href="default__event_8hpp.html" target="_top" xlink:title=" ">
<polygon fill="none" stroke="black" points="791.5,-469.5 791.5,-499.5 913.5,-499.5 913.5,-469.5 791.5,-469.5"/>
<text text-anchor="start" x="799.5" y="-487.5" font-family="Helvetica,sans-Serif" font-size="10.00">include/yaclib/util</text>
<text text-anchor="middle" x="852.5" y="-476.5" font-family="Helvetica,sans-Serif" font-size="10.00">/detail/default_event.hpp</text>
</a>
</g>
</g>
<!-- Node1&#45;&gt;Node4 -->
<g id="edge3" class="edge">
<title>Node1&#45;&gt;Node4</title>
<path fill="none" stroke="midnightblue" d="M1089.94,-535.77C1036.91,-524.54 964.58,-509.23 913.73,-498.46"/>
<polygon fill="midnightblue" stroke="midnightblue" points="1089.44,-539.24 1099.94,-537.89 1090.89,-532.39 1089.44,-539.24"/>
</g>
<!-- Node25 -->
<g id="node25" class="node">
<title>Node25</title>
<g id="a_node25"><a xlink:href="mutex__event_8cpp.html" target="_top" xlink:title=" ">
<polygon fill="none" stroke="black" points="1225.5,-475 1225.5,-494 1347.5,-494 1347.5,-475 1225.5,-475"/>
<text text-anchor="middle" x="1286.5" y="-482" font-family="Helvetica,sans-Serif" font-size="10.00">src/util/mutex_event.cpp</text>
</a>
</g>
</g>
<!-- Node1&#45;&gt;Node25 -->
<g id="edge38" class="edge">
<title>Node1&#45;&gt;Node25</title>
<path fill="none" stroke="midnightblue" d="M1196.03,-531.8C1220.38,-519.34 1251.22,-503.56 1269.88,-494.01"/>
<polygon fill="midnightblue" stroke="midnightblue" points="1194.36,-528.72 1187.06,-536.4 1197.55,-534.96 1194.36,-528.72"/>
</g>
<!-- Node5 -->
<g id="node5" class="node">
<title>Node5</title>
<g id="a_node5"><a xlink:href="wait__impl_8hpp.html" target="_top" xlink:title=" ">
<polygon fill="none" stroke="black" points="848,-402.5 848,-432.5 953,-432.5 953,-402.5 848,-402.5"/>
<text text-anchor="start" x="856" y="-420.5" font-family="Helvetica,sans-Serif" font-size="10.00">include/yaclib/algo</text>
<text text-anchor="middle" x="900.5" y="-409.5" font-family="Helvetica,sans-Serif" font-size="10.00">/detail/wait_impl.hpp</text>
</a>
</g>
</g>
<!-- Node4&#45;&gt;Node5 -->
<g id="edge4" class="edge">
<title>Node4&#45;&gt;Node5</title>
<path fill="none" stroke="midnightblue" d="M869,-461.16C876,-451.68 883.94,-440.92 890.11,-432.58"/>
<polygon fill="midnightblue" stroke="midnightblue" points="866.04,-459.27 862.92,-469.4 871.67,-463.43 866.04,-459.27"/>
</g>
<!-- Node6 -->
<g id="node6" class="node">
<title>Node6</title>
<g id="a_node6"><a xlink:href="wait_8hpp.html" target="_top" xlink:title=" ">
<polygon fill="none" stroke="black" points="747.5,-335.5 747.5,-365.5 843.5,-365.5 843.5,-335.5 747.5,-335.5"/>
<text text-anchor="start" x="755.5" y="-353.5" font-family="Helvetica,sans-Serif" font-size="10.00">include/yaclib/algo</text>
<text text-anchor="middle" x="795.5" y="-342.5" font-family="Helvetica,sans-Serif" font-size="10.00">/wait.hpp</text>
</a>
</g>
</g>
<!-- Node4&#45;&gt;Node6 -->
<g id="edge36" class="edge">
<title>Node4&#45;&gt;Node6</title>
<path fill="none" stroke="midnightblue" d="M842.4,-460.12C830.56,-432.68 811.3,-388.09 801.56,-365.52"/>
<polygon fill="midnightblue" stroke="midnightblue" points="839.22,-461.58 846.4,-469.37 845.65,-458.81 839.22,-461.58"/>
</g>
<!-- Node14 -->
<g id="node14" class="node">
<title>Node14</title>
<g id="a_node14"><a xlink:href="wait__group_8hpp.html" target="_top" xlink:title=" ">
<polygon fill="none" stroke="black" points="11.5,-134.5 11.5,-164.5 107.5,-164.5 107.5,-134.5 11.5,-134.5"/>
<text text-anchor="start" x="19.5" y="-152.5" font-family="Helvetica,sans-Serif" font-size="10.00">include/yaclib/algo</text>
<text text-anchor="middle" x="59.5" y="-141.5" font-family="Helvetica,sans-Serif" font-size="10.00">/wait_group.hpp</text>
</a>
</g>
</g>
<!-- Node4&#45;&gt;Node14 -->
<g id="edge37" class="edge">
<title>Node4&#45;&gt;Node14</title>
<path fill="none" stroke="midnightblue" d="M780.88,-481.29C631.52,-474.73 300.5,-449.17 300.5,-351.5 300.5,-351.5 300.5,-351.5 300.5,-282.5 300.5,-238.01 172.59,-188.29 103.14,-164.57"/>
<polygon fill="midnightblue" stroke="midnightblue" points="781.18,-484.8 791.32,-481.73 781.47,-477.81 781.18,-484.8"/>
</g>
<!-- Node5&#45;&gt;Node2 -->
<g id="edge33" class="edge">
<title>Node5&#45;&gt;Node2</title>
<path fill="none" stroke="midnightblue" d="M902.73,-392.08C905.14,-375.1 910.15,-352.48 920.5,-335 966.82,-256.73 1056.72,-192.09 1098.78,-164.65"/>
<polygon fill="midnightblue" stroke="midnightblue" points="899.22,-391.95 901.48,-402.3 906.17,-392.8 899.22,-391.95"/>
</g>
<!-- Node5&#45;&gt;Node3 -->
<g id="edge34" class="edge">
<title>Node5&#45;&gt;Node3</title>
<path fill="none" stroke="midnightblue" d="M963.11,-404.14C991.83,-396.41 1025.24,-384.33 1051.5,-366 1128.51,-312.25 1120.36,-270.52 1183.5,-201 1195.18,-188.14 1209.37,-174.47 1219.98,-164.6"/>
<polygon fill="midnightblue" stroke="midnightblue" points="961.98,-400.82 953.17,-406.7 963.73,-407.6 961.98,-400.82"/>
</g>
<!-- Node5&#45;&gt;Node6 -->
<g id="edge5" class="edge">
<title>Node5&#45;&gt;Node6</title>
<path fill="none" stroke="midnightblue" d="M869.02,-397.02C852.68,-386.9 833.09,-374.77 818.24,-365.58"/>
<polygon fill="midnightblue" stroke="midnightblue" points="867.37,-400.11 877.72,-402.4 871.06,-394.16 867.37,-400.11"/>
</g>
<!-- Node24 -->
<g id="node24" class="node">
<title>Node24</title>
<g id="a_node24"><a xlink:href="wait__impl_8cpp.html" target="_top" xlink:title=" ">
<polygon fill="none" stroke="black" points="929,-341 929,-360 1042,-360 1042,-341 929,-341"/>
<text text-anchor="middle" x="985.5" y="-348" font-family="Helvetica,sans-Serif" font-size="10.00">src/algo/wait_impl.cpp</text>
</a>
</g>
</g>
<!-- Node5&#45;&gt;Node24 -->
<g id="edge35" class="edge">
<title>Node5&#45;&gt;Node24</title>
<path fill="none" stroke="midnightblue" d="M927.3,-396.01C943.08,-383.94 962.22,-369.3 974.13,-360.19"/>
<polygon fill="midnightblue" stroke="midnightblue" points="924.76,-393.54 918.94,-402.4 929.01,-399.1 924.76,-393.54"/>
</g>
<!-- Node7 -->
<g id="node7" class="node">
<title>Node7</title>
<g id="a_node7"><a xlink:href="future__impl_8hpp.html" target="_top" xlink:title=" ">
<polygon fill="none" stroke="black" points="569.5,-268.5 569.5,-298.5 681.5,-298.5 681.5,-268.5 569.5,-268.5"/>
<text text-anchor="start" x="577.5" y="-286.5" font-family="Helvetica,sans-Serif" font-size="10.00">include/yaclib/async</text>
<text text-anchor="middle" x="625.5" y="-275.5" font-family="Helvetica,sans-Serif" font-size="10.00">/detail/future_impl.hpp</text>
</a>
</g>
</g>
<!-- Node6&#45;&gt;Node7 -->
<g id="edge6" class="edge">
<title>Node6&#45;&gt;Node7</title>
<path fill="none" stroke="midnightblue" d="M749.26,-331.82C721.93,-321.37 687.81,-308.32 662.32,-298.58"/>
<polygon fill="midnightblue" stroke="midnightblue" points="748.02,-335.09 758.61,-335.4 750.52,-328.56 748.02,-335.09"/>
</g>
<!-- Node8 -->
<g id="node8" class="node">
<title>Node8</title>
<g id="a_node8"><a xlink:href="future_8hpp.html" target="_top" xlink:title=" ">
<polygon fill="none" stroke="black" points="569.5,-201.5 569.5,-231.5 673.5,-231.5 673.5,-201.5 569.5,-201.5"/>
<text text-anchor="start" x="577.5" y="-219.5" font-family="Helvetica,sans-Serif" font-size="10.00">include/yaclib/async</text>
<text text-anchor="middle" x="621.5" y="-208.5" font-family="Helvetica,sans-Serif" font-size="10.00">/future.hpp</text>
</a>
</g>
</g>
<!-- Node7&#45;&gt;Node8 -->
<g id="edge7" class="edge">
<title>Node7&#45;&gt;Node8</title>
<path fill="none" stroke="midnightblue" d="M624.02,-258.4C623.46,-249.37 622.85,-239.41 622.37,-231.58"/>
<polygon fill="midnightblue" stroke="midnightblue" points="620.52,-258.63 624.63,-268.4 627.51,-258.2 620.52,-258.63"/>
</g>
<!-- Node8&#45;&gt;Node2 -->
<g id="edge14" class="edge">
<title>Node8&#45;&gt;Node2</title>
<path fill="none" stroke="midnightblue" d="M683.8,-211.08C769.89,-204.36 929.88,-189.68 1064.5,-165 1067.41,-164.47 1070.4,-163.87 1073.4,-163.22"/>
<polygon fill="midnightblue" stroke="midnightblue" points="683.37,-207.6 673.67,-211.86 683.91,-214.58 683.37,-207.6"/>
</g>
<!-- Node8&#45;&gt;Node3 -->
<g id="edge17" class="edge">
<title>Node8&#45;&gt;Node3</title>
<path fill="none" stroke="midnightblue" d="M683.96,-213.07C787.42,-208.33 1000.62,-195.49 1178.5,-165 1181.42,-164.5 1184.41,-163.93 1187.41,-163.3"/>
<polygon fill="midnightblue" stroke="midnightblue" points="683.52,-209.59 673.69,-213.53 683.84,-216.58 683.52,-209.59"/>
</g>
<!-- Node8&#45;&gt;Node6 -->
<g id="edge13" class="edge">
<title>Node8&#45;&gt;Node6</title>
<path fill="none" stroke="midnightblue" d="M649.25,-237.53C661.89,-246.73 677.02,-257.84 690.5,-268 721.27,-291.2 756.58,-318.81 777.41,-335.21"/>
<polygon fill="midnightblue" stroke="midnightblue" points="651.09,-234.55 640.94,-231.5 646.98,-240.21 651.09,-234.55"/>
</g>
<!-- Node9 -->
<g id="node9" class="node">
<title>Node9</title>
<g id="a_node9"><a xlink:href="when__impl_8hpp.html" target="_top" xlink:title=" ">
<polygon fill="none" stroke="black" points="163.5,-134.5 163.5,-164.5 273.5,-164.5 273.5,-134.5 163.5,-134.5"/>
<text text-anchor="start" x="171.5" y="-152.5" font-family="Helvetica,sans-Serif" font-size="10.00">include/yaclib/algo</text>
<text text-anchor="middle" x="218.5" y="-141.5" font-family="Helvetica,sans-Serif" font-size="10.00">/detail/when_impl.hpp</text>
</a>
</g>
</g>
<!-- Node8&#45;&gt;Node9 -->
<g id="edge8" class="edge">
<title>Node8&#45;&gt;Node9</title>
<path fill="none" stroke="midnightblue" d="M559.28,-207.17C492.07,-197.93 381.92,-182.04 287.5,-165 283.04,-164.2 278.43,-163.32 273.81,-162.41"/>
<polygon fill="midnightblue" stroke="midnightblue" points="558.9,-210.65 569.28,-208.54 559.85,-203.72 558.9,-210.65"/>
</g>
<!-- Node10 -->
<g id="node10" class="node">
<title>Node10</title>
<g id="a_node10"><a xlink:href="when__all_8hpp.html" target="_top" xlink:title=" ">
<polygon fill="none" stroke="black" points="138.5,-67.5 138.5,-97.5 234.5,-97.5 234.5,-67.5 138.5,-67.5"/>
<text text-anchor="start" x="146.5" y="-85.5" font-family="Helvetica,sans-Serif" font-size="10.00">include/yaclib/algo</text>
<text text-anchor="middle" x="186.5" y="-74.5" font-family="Helvetica,sans-Serif" font-size="10.00">/when_all.hpp</text>
</a>
</g>
</g>
<!-- Node8&#45;&gt;Node10 -->
<g id="edge18" class="edge">
<title>Node8&#45;&gt;Node10</title>
<path fill="none" stroke="midnightblue" d="M559.23,-213.31C438.29,-208.41 181.07,-194.59 154.5,-165 137.03,-145.54 157.48,-115.44 172.78,-97.78"/>
<polygon fill="midnightblue" stroke="midnightblue" points="559.32,-216.81 569.45,-213.71 559.6,-209.82 559.32,-216.81"/>
</g>
<!-- Node12 -->
<g id="node12" class="node">
<title>Node12</title>
<g id="a_node12"><a xlink:href="when__any_8hpp.html" target="_top" xlink:title=" ">
<polygon fill="none" stroke="black" points="252.5,-67.5 252.5,-97.5 348.5,-97.5 348.5,-67.5 252.5,-67.5"/>
<text text-anchor="start" x="260.5" y="-85.5" font-family="Helvetica,sans-Serif" font-size="10.00">include/yaclib/algo</text>
<text text-anchor="middle" x="300.5" y="-74.5" font-family="Helvetica,sans-Serif" font-size="10.00">/when_any.hpp</text>
</a>
</g>
</g>
<!-- Node8&#45;&gt;Node12 -->
<g id="edge19" class="edge">
<title>Node8&#45;&gt;Node12</title>
<path fill="none" stroke="midnightblue" d="M559.28,-212.94C481.46,-208.45 354.32,-196.39 320.5,-165 301.81,-147.65 299.33,-115.94 299.63,-97.6"/>
<polygon fill="midnightblue" stroke="midnightblue" points="559.27,-216.45 569.45,-213.5 559.65,-209.46 559.27,-216.45"/>
</g>
<!-- Node8&#45;&gt;Node14 -->
<g id="edge15" class="edge">
<title>Node8&#45;&gt;Node14</title>
<path fill="none" stroke="midnightblue" d="M559.38,-211.81C464.51,-205.6 278.02,-191.09 121.5,-165 117.03,-164.25 112.4,-163.38 107.78,-162.43"/>
<polygon fill="midnightblue" stroke="midnightblue" points="559.18,-215.31 569.38,-212.46 559.63,-208.32 559.18,-215.31"/>
</g>
<!-- Node16 -->
<g id="node16" class="node">
<title>Node16</title>
<g id="a_node16"><a xlink:href="contract_8hpp.html" target="_top" xlink:title=" ">
<polygon fill="none" stroke="black" points="451.5,-134.5 451.5,-164.5 555.5,-164.5 555.5,-134.5 451.5,-134.5"/>
<text text-anchor="start" x="459.5" y="-152.5" font-family="Helvetica,sans-Serif" font-size="10.00">include/yaclib/async</text>
<text text-anchor="middle" x="503.5" y="-141.5" font-family="Helvetica,sans-Serif" font-size="10.00">/contract.hpp</text>
</a>
</g>
</g>
<!-- Node8&#45;&gt;Node16 -->
<g id="edge20" class="edge">
<title>Node8&#45;&gt;Node16</title>
<path fill="none" stroke="midnightblue" d="M586.89,-196.44C568.38,-186.24 545.98,-173.9 529.05,-164.58"/>
<polygon fill="midnightblue" stroke="midnightblue" points="585.45,-199.64 595.9,-201.4 588.83,-193.51 585.45,-199.64"/>
</g>
<!-- Node17 -->
<g id="node17" class="node">
<title>Node17</title>
<g id="a_node17"><a xlink:href="simple_8cpp.html" target="_top" xlink:title=" ">
<polygon fill="none" stroke="black" points="443,-67.5 443,-97.5 544,-97.5 544,-67.5 443,-67.5"/>
<text text-anchor="start" x="451" y="-85.5" font-family="Helvetica,sans-Serif" font-size="10.00">test/example/async</text>
<text text-anchor="middle" x="493.5" y="-74.5" font-family="Helvetica,sans-Serif" font-size="10.00">/simple.cpp</text>
</a>
</g>
</g>
<!-- Node8&#45;&gt;Node17 -->
<g id="edge32" class="edge">
<title>Node8&#45;&gt;Node17</title>
<path fill="none" stroke="midnightblue" d="M608.43,-192.59C597.92,-175.32 582.05,-151.69 564.5,-134 550.44,-119.83 532,-106.84 517.44,-97.59"/>
<polygon fill="midnightblue" stroke="midnightblue" points="605.58,-194.64 613.7,-201.44 611.6,-191.06 605.58,-194.64"/>
</g>
<!-- Node18 -->
<g id="node18" class="node">
<title>Node18</title>
<g id="a_node18"><a xlink:href="run_8hpp.html" target="_top" xlink:title=" ">
<polygon fill="none" stroke="black" points="329.5,-134.5 329.5,-164.5 433.5,-164.5 433.5,-134.5 329.5,-134.5"/>
<text text-anchor="start" x="337.5" y="-152.5" font-family="Helvetica,sans-Serif" font-size="10.00">include/yaclib/async</text>
<text text-anchor="middle" x="381.5" y="-141.5" font-family="Helvetica,sans-Serif" font-size="10.00">/run.hpp</text>
</a>
</g>
</g>
<!-- Node8&#45;&gt;Node18 -->
<g id="edge22" class="edge">
<title>Node8&#45;&gt;Node18</title>
<path fill="none" stroke="midnightblue" d="M560.02,-198.85C520.89,-188.25 470.77,-174.68 433.6,-164.61"/>
<polygon fill="midnightblue" stroke="midnightblue" points="559.15,-202.24 569.72,-201.48 560.98,-195.48 559.15,-202.24"/>
</g>
<!-- Node19 -->
<g id="node19" class="node">
<title>Node19</title>
<g id="a_node19"><a xlink:href="await_8hpp.html" target="_top" xlink:title=" ">
<polygon fill="none" stroke="black" points="562.5,-67.5 562.5,-97.5 680.5,-97.5 680.5,-67.5 562.5,-67.5"/>
<text text-anchor="start" x="570.5" y="-85.5" font-family="Helvetica,sans-Serif" font-size="10.00">include/yaclib/coroutine</text>
<text text-anchor="middle" x="621.5" y="-74.5" font-family="Helvetica,sans-Serif" font-size="10.00">/await.hpp</text>
</a>
</g>
</g>
<!-- Node8&#45;&gt;Node19 -->
<g id="edge26" class="edge">
<title>Node8&#45;&gt;Node19</title>
<path fill="none" stroke="midnightblue" d="M621.5,-191.02C621.5,-163.51 621.5,-119.79 621.5,-97.52"/>
<polygon fill="midnightblue" stroke="midnightblue" points="618,-191.37 621.5,-201.37 625,-191.37 618,-191.37"/>
</g>
<!-- Node20 -->
<g id="node20" class="node">
<title>Node20</title>
<g id="a_node20"><a xlink:href="await__awaiter_8hpp.html" target="_top" xlink:title=" ">
<polygon fill="none" stroke="black" points="649.5,-134.5 649.5,-164.5 773.5,-164.5 773.5,-134.5 649.5,-134.5"/>
<text text-anchor="start" x="657.5" y="-152.5" font-family="Helvetica,sans-Serif" font-size="10.00">include/yaclib/coroutine</text>
<text text-anchor="middle" x="711.5" y="-141.5" font-family="Helvetica,sans-Serif" font-size="10.00">/detail/await_awaiter.hpp</text>
</a>
</g>
</g>
<!-- Node8&#45;&gt;Node20 -->
<g id="edge27" class="edge">
<title>Node8&#45;&gt;Node20</title>
<path fill="none" stroke="midnightblue" d="M649.26,-195.45C663.11,-185.45 679.52,-173.6 692.01,-164.58"/>
<polygon fill="midnightblue" stroke="midnightblue" points="647.09,-192.7 641.03,-201.4 651.18,-198.38 647.09,-192.7"/>
</g>
<!-- Node22 -->
<g id="node22" class="node">
<title>Node22</title>
<g id="a_node22"><a xlink:href="future__traits_8hpp.html" target="_top" xlink:title=" ">
<polygon fill="none" stroke="black" points="791.5,-134.5 791.5,-164.5 909.5,-164.5 909.5,-134.5 791.5,-134.5"/>
<text text-anchor="start" x="799.5" y="-152.5" font-family="Helvetica,sans-Serif" font-size="10.00">include/yaclib/coroutine</text>
<text text-anchor="middle" x="850.5" y="-141.5" font-family="Helvetica,sans-Serif" font-size="10.00">/future_traits.hpp</text>
</a>
</g>
</g>
<!-- Node8&#45;&gt;Node22 -->
<g id="edge30" class="edge">
<title>Node8&#45;&gt;Node22</title>
<path fill="none" stroke="midnightblue" d="M680.64,-198.71C717.9,-188.14 765.47,-174.63 800.79,-164.61"/>
<polygon fill="midnightblue" stroke="midnightblue" points="679.57,-195.38 670.91,-201.48 681.48,-202.11 679.57,-195.38"/>
</g>
<!-- Node23 -->
<g id="node23" class="node">
<title>Node23</title>
<g id="a_node23"><a xlink:href="future__impl_8cpp.html" target="_top" xlink:title=" ">
<polygon fill="none" stroke="black" points="927.5,-140 927.5,-159 1055.5,-159 1055.5,-140 927.5,-140"/>
<text text-anchor="middle" x="991.5" y="-147" font-family="Helvetica,sans-Serif" font-size="10.00">src/async/future_impl.cpp</text>
</a>
</g>
</g>
<!-- Node8&#45;&gt;Node23 -->
<g id="edge31" class="edge">
<title>Node8&#45;&gt;Node23</title>
<path fill="none" stroke="midnightblue" d="M683.71,-205.44C743.87,-195.58 837.54,-179.92 918.5,-165 928.54,-163.15 939.33,-161.06 949.46,-159.06"/>
<polygon fill="midnightblue" stroke="midnightblue" points="682.92,-202.02 673.62,-207.09 684.05,-208.93 682.92,-202.02"/>
</g>
<!-- Node9&#45;&gt;Node10 -->
<g id="edge9" class="edge">
<title>Node9&#45;&gt;Node10</title>
<path fill="none" stroke="midnightblue" d="M207.07,-125.28C202.51,-116.02 197.41,-105.66 193.43,-97.58"/>
<polygon fill="midnightblue" stroke="midnightblue" points="204,-126.97 211.56,-134.4 210.28,-123.88 204,-126.97"/>
</g>
<!-- Node9&#45;&gt;Node12 -->
<g id="edge11" class="edge">
<title>Node9&#45;&gt;Node12</title>
<path fill="none" stroke="midnightblue" d="M244.15,-128.17C256.69,-118.23 271.47,-106.51 282.74,-97.58"/>
<polygon fill="midnightblue" stroke="midnightblue" points="241.96,-125.44 236.29,-134.4 246.3,-130.93 241.96,-125.44"/>
</g>
<!-- Node11 -->
<g id="node11" class="node">
<title>Node11</title>
<g id="a_node11"><a xlink:href="when__all_8cpp.html" target="_top" xlink:title=" ">
<polygon fill="none" stroke="black" points="190,-0.5 190,-30.5 291,-30.5 291,-0.5 190,-0.5"/>
<text text-anchor="start" x="198" y="-18.5" font-family="Helvetica,sans-Serif" font-size="10.00">test/example/async</text>
<text text-anchor="middle" x="240.5" y="-7.5" font-family="Helvetica,sans-Serif" font-size="10.00">/when_all.cpp</text>
</a>
</g>
</g>
<!-- Node10&#45;&gt;Node11 -->
<g id="edge10" class="edge">
<title>Node10&#45;&gt;Node11</title>
<path fill="none" stroke="midnightblue" d="M204.82,-59.45C212.75,-49.9 221.8,-39 228.81,-30.58"/>
<polygon fill="midnightblue" stroke="midnightblue" points="201.92,-57.47 198.22,-67.4 207.3,-61.94 201.92,-57.47"/>
</g>
<!-- Node13 -->
<g id="node13" class="node">
<title>Node13</title>
<g id="a_node13"><a xlink:href="when__any_8cpp.html" target="_top" xlink:title=" ">
<polygon fill="none" stroke="black" points="336,-0.5 336,-30.5 437,-30.5 437,-0.5 336,-0.5"/>
<text text-anchor="start" x="344" y="-18.5" font-family="Helvetica,sans-Serif" font-size="10.00">test/example/async</text>
<text text-anchor="middle" x="386.5" y="-7.5" font-family="Helvetica,sans-Serif" font-size="10.00">/when_any.cpp</text>
</a>
</g>
</g>
<!-- Node12&#45;&gt;Node13 -->
<g id="edge12" class="edge">
<title>Node12&#45;&gt;Node13</title>
<path fill="none" stroke="midnightblue" d="M327.4,-61.17C340.55,-51.23 356.05,-39.51 367.88,-30.58"/>
<polygon fill="midnightblue" stroke="midnightblue" points="325.03,-58.57 319.16,-67.4 329.25,-64.16 325.03,-58.57"/>
</g>
<!-- Node15 -->
<g id="node15" class="node">
<title>Node15</title>
<g id="a_node15"><a xlink:href="wait__group_8cpp.html" target="_top" xlink:title=" ">
<polygon fill="none" stroke="black" points="0,-73 0,-92 119,-92 119,-73 0,-73"/>
<text text-anchor="middle" x="59.5" y="-80" font-family="Helvetica,sans-Serif" font-size="10.00">src/algo/wait_group.cpp</text>
</a>
</g>
</g>
<!-- Node14&#45;&gt;Node15 -->
<g id="edge16" class="edge">
<title>Node14&#45;&gt;Node15</title>
<path fill="none" stroke="midnightblue" d="M59.5,-124.25C59.5,-113.02 59.5,-100.38 59.5,-92.19"/>
<polygon fill="midnightblue" stroke="midnightblue" points="56,-124.4 59.5,-134.4 63,-124.4 56,-124.4"/>
</g>
<!-- Node16&#45;&gt;Node17 -->
<g id="edge21" class="edge">
<title>Node16&#45;&gt;Node17</title>
<path fill="none" stroke="midnightblue" d="M499.79,-124.4C498.4,-115.37 496.87,-105.41 495.67,-97.58"/>
<polygon fill="midnightblue" stroke="midnightblue" points="496.35,-125.04 501.33,-134.4 503.27,-123.98 496.35,-125.04"/>
</g>
<!-- Node18&#45;&gt;Node11 -->
<g id="edge24" class="edge">
<title>Node18&#45;&gt;Node11</title>
<path fill="none" stroke="midnightblue" d="M379.79,-124.21C377.36,-106.46 371.51,-82.82 357.5,-67 340.26,-47.54 314.2,-35.3 291.05,-27.76"/>
<polygon fill="midnightblue" stroke="midnightblue" points="376.33,-124.82 380.9,-134.38 383.29,-124.06 376.33,-124.82"/>
</g>
<!-- Node18&#45;&gt;Node13 -->
<g id="edge25" class="edge">
<title>Node18&#45;&gt;Node13</title>
<path fill="none" stroke="midnightblue" d="M386.65,-124.58C388.22,-116.22 389.73,-106.73 390.5,-98 392.58,-74.43 390.25,-46.93 388.37,-30.66"/>
<polygon fill="midnightblue" stroke="midnightblue" points="383.21,-123.95 384.69,-134.44 390.08,-125.32 383.21,-123.95"/>
</g>
<!-- Node18&#45;&gt;Node17 -->
<g id="edge23" class="edge">
<title>Node18&#45;&gt;Node17</title>
<path fill="none" stroke="midnightblue" d="M414.59,-129.3C432.12,-119.12 453.26,-106.85 469.25,-97.58"/>
<polygon fill="midnightblue" stroke="midnightblue" points="412.69,-126.35 405.8,-134.4 416.21,-132.4 412.69,-126.35"/>
</g>
<!-- Node20&#45;&gt;Node19 -->
<g id="edge28" class="edge">
<title>Node20&#45;&gt;Node19</title>
<path fill="none" stroke="midnightblue" d="M683.74,-128.45C669.89,-118.45 653.48,-106.6 640.99,-97.58"/>
<polygon fill="midnightblue" stroke="midnightblue" points="681.82,-131.38 691.97,-134.4 685.91,-125.7 681.82,-131.38"/>
</g>
<!-- Node21 -->
<g id="node21" class="node">
<title>Node21</title>
<g id="a_node21"><a xlink:href="await__awaiter_8cpp.html" target="_top" xlink:title=" ">
<polygon fill="none" stroke="black" points="699,-67.5 699,-97.5 798,-97.5 798,-67.5 699,-67.5"/>
<text text-anchor="start" x="707" y="-85.5" font-family="Helvetica,sans-Serif" font-size="10.00">src/coroutine/await</text>
<text text-anchor="middle" x="748.5" y="-74.5" font-family="Helvetica,sans-Serif" font-size="10.00">_awaiter.cpp</text>
</a>
</g>
</g>
<!-- Node20&#45;&gt;Node21 -->
<g id="edge29" class="edge">
<title>Node20&#45;&gt;Node21</title>
<path fill="none" stroke="midnightblue" d="M724.55,-125.58C729.86,-116.24 735.84,-105.75 740.49,-97.58"/>
<polygon fill="midnightblue" stroke="midnightblue" points="721.43,-123.97 719.53,-134.4 727.52,-127.44 721.43,-123.97"/>
</g>
</g>
</svg>
        <g id="navigator" transform="translate(0 0)" fill="#404254">
                <rect fill="#f2f5e9" fill-opacity="0.5" stroke="#606060" stroke-width=".5" x="0" y="0" width="60" height="60"/>
                <use id="zoomplus" xlink:href="#zoomPlus" x="17" y="9" onmousedown="handleZoom(evt,'in')"/>
                <use id="zoomminus" xlink:href="#zoomMin" x="42" y="9" onmousedown="handleZoom(evt,'out')"/>
                <use id="reset" xlink:href="#resetDef" x="30" y="36" onmousedown="handleReset()"/>
                <g id="arrowUp" xlink:href="#dirArrow" transform="translate(30 24)" onmousedown="handlePan(0,-1)">
                  <use xlink:href="#rim" fill="#404040">
                        <set attributeName="fill" to="#808080" begin="arrowUp.mouseover" end="arrowUp.mouseout"/>
                  </use>
                  <path fill="none" stroke="white" stroke-width="1.5" d="M0,-3.0v7 M-2.5,-0.5L0,-3.0L2.5,-0.5"/>
                </g>
                <g id="arrowRight" xlink:href="#dirArrow" transform="rotate(90) translate(36 -43)" onmousedown="handlePan(1,0)">
                  <use xlink:href="#rim" fill="#404040">
                        <set attributeName="fill" to="#808080" begin="arrowRight.mouseover" end="arrowRight.mouseout"/>
                  </use>
                  <path fill="none" stroke="white" stroke-width="1.5" d="M0,-3.0v7 M-2.5,-0.5L0,-3.0L2.5,-0.5"/>
                </g>
                <g id="arrowDown" xlink:href="#dirArrow" transform="rotate(180) translate(-30 -48)" onmousedown="handlePan(0,1)">
                  <use xlink:href="#rim" fill="#404040">
                        <set attributeName="fill" to="#808080" begin="arrowDown.mouseover" end="arrowDown.mouseout"/>
                  </use>
                  <path fill="none" stroke="white" stroke-width="1.5" d="M0,-3.0v7 M-2.5,-0.5L0,-3.0L2.5,-0.5"/>
                </g>
                <g id="arrowLeft" xlink:href="#dirArrow" transform="rotate(270) translate(-36 17)" onmousedown="handlePan(-1,0)">
                  <use xlink:href="#rim" fill="#404040">
                        <set attributeName="fill" to="#808080" begin="arrowLeft.mouseover" end="arrowLeft.mouseout"/>
                  </use>
                  <path fill="none" stroke="white" stroke-width="1.5" d="M0,-3.0v7 M-2.5,-0.5L0,-3.0L2.5,-0.5"/>
                </g>
        </g>
        <svg viewBox="0 0 15 15" width="100%" height="30px" preserveAspectRatio="xMaxYMin meet">
         <g id="arrow_out" transform="scale(0.3 0.3)">
          <a xlink:href="mutex__event_8hpp__dep__incl_org.svg" target="_base">
           <rect id="button" ry="5" rx="5" y="6" x="6" height="38" width="38"
                fill="#f2f5e9" fill-opacity="0.5" stroke="#606060" stroke-width="1.0"/>
           <path id="arrow"
             d="M 11.500037,31.436501 C 11.940474,20.09759 22.043105,11.32322 32.158766,21.979434 L 37.068811,17.246167 C 37.068811,17.246167 37.088388,32 37.088388,32 L 22.160133,31.978069 C 22.160133,31.978069 26.997745,27.140456 26.997745,27.140456 C 18.528582,18.264221 13.291696,25.230495 11.500037,31.436501 z"
             style="fill:#404040;"/>
          </a>
         </g>
        </svg>
</svg>
