<?xml version="1.0" encoding="UTF-8" standalone="no"?>
<!DOCTYPE svg PUBLIC "-//W3C//DTD SVG 1.1//EN"
 "http://www.w3.org/Graphics/SVG/1.1/DTD/svg11.dtd">
<!-- Generated by graphviz version 3.0.0 (20220413.0106)
 -->
<!-- Title: src/coroutine/on.cpp Pages: 1 -->
<!--zoomable 665 -->
<svg id="main" version="1.1" xmlns="http://www.w3.org/2000/svg" xmlns:xlink="http://www.w3.org/1999/xlink" xml:space="preserve" onload="init(evt)">
<style type="text/css"><![CDATA[
.edge:hover path { stroke: red; }
.edge:hover polygon { stroke: red; fill: red; }
]]></style>
<script type="text/javascript"><![CDATA[
var edges = document.getElementsByTagName('g');
if (edges && edges.length) {
  for (var i=0;i<edges.length;i++) {
    if (edges[i].id.substr(0,4)=='edge') {
      edges[i].setAttribute('class','edge');
    }
  }
}
]]></script>
        <defs>
                <circle id="rim" cx="0" cy="0" r="7"/>
                <circle id="rim2" cx="0" cy="0" r="3.5"/>
                <g id="zoomPlus">
                        <use xlink:href="#rim" fill="#404040">
                                <set attributeName="fill" to="#808080" begin="zoomplus.mouseover" end="zoomplus.mouseout"/>
                        </use>
                        <path d="M-4,0h8M0,-4v8" fill="none" stroke="white" stroke-width="1.5" pointer-events="none"/>
                </g>
                <g id="zoomMin">
                        <use xlink:href="#rim" fill="#404040">
                                <set attributeName="fill" to="#808080" begin="zoomminus.mouseover" end="zoomminus.mouseout"/>
                        </use>
                        <path d="M-4,0h8" fill="none" stroke="white" stroke-width="1.5" pointer-events="none"/>
                </g>
                <g id="dirArrow">
                        <path fill="none" stroke="white" stroke-width="1.5" d="M0,-3.0v7 M-2.5,-0.5L0,-3.0L2.5,-0.5"/>
                </g>
               <g id="resetDef">
                       <use xlink:href="#rim2" fill="#404040">
                               <set attributeName="fill" to="#808080" begin="reset.mouseover" end="reset.mouseout"/>
                       </use>
               </g>
        </defs>

<script type="text/javascript">
var viewWidth = 1121;
var viewHeight = 665;
var sectionId = 'dynsection-0';
</script>
<script xlink:href="svgpan.js"/>
<svg id="graph" class="graph">
<g id="viewport">
<title>src/coroutine/on.cpp</title>
<!-- Node1 -->
<g id="node1" class="node">
<title>Node1</title>
<g id="a_node1"><a xlink:title=" ">
<polygon fill="#bfbfbf" stroke="black" points="919.5,-637.5 919.5,-656.5 1023.5,-656.5 1023.5,-637.5 919.5,-637.5"/>
<text text-anchor="middle" x="971.5" y="-644.5" font-family="Helvetica,sans-Serif" font-size="10.00">src/coroutine/on.cpp</text>
</a>
</g>
</g>
<!-- Node2 -->
<g id="node2" class="node">
<title>Node2</title>
<g id="a_node2"><a xlink:href="on_8hpp.html" target="_top" xlink:title=" ">
<polygon fill="none" stroke="black" points="913.5,-581.5 913.5,-600.5 1029.5,-600.5 1029.5,-581.5 913.5,-581.5"/>
<text text-anchor="middle" x="971.5" y="-588.5" font-family="Helvetica,sans-Serif" font-size="10.00">yaclib/coroutine/on.hpp</text>
</a>
</g>
</g>
<!-- Node1&#45;&gt;Node2 -->
<g id="edge1" class="edge">
<title>Node1&#45;&gt;Node2</title>
<path fill="none" stroke="midnightblue" d="M971.5,-637.08C971.5,-630.01 971.5,-619.86 971.5,-610.99"/>
<polygon fill="midnightblue" stroke="midnightblue" points="975,-610.75 971.5,-600.75 968,-610.75 975,-610.75"/>
</g>
<!-- Node3 -->
<g id="node3" class="node">
<title>Node3</title>
<g id="a_node3"><a xlink:href="on__awaiter_8hpp.html" target="_top" xlink:title=" ">
<polygon fill="none" stroke="black" points="875.5,-514.5 875.5,-544.5 985.5,-544.5 985.5,-514.5 875.5,-514.5"/>
<text text-anchor="start" x="883.5" y="-532.5" font-family="Helvetica,sans-Serif" font-size="10.00">yaclib/coroutine/detail</text>
<text text-anchor="middle" x="930.5" y="-521.5" font-family="Helvetica,sans-Serif" font-size="10.00">/on_awaiter.hpp</text>
</a>
</g>
</g>
<!-- Node2&#45;&gt;Node3 -->
<g id="edge2" class="edge">
<title>Node2&#45;&gt;Node3</title>
<path fill="none" stroke="midnightblue" d="M965.63,-581.48C960.49,-574.02 952.79,-562.85 945.91,-552.87"/>
<polygon fill="midnightblue" stroke="midnightblue" points="948.72,-550.77 940.16,-544.52 942.95,-554.74 948.72,-550.77"/>
</g>
<!-- Node16 -->
<g id="node16" class="node">
<title>Node16</title>
<g id="a_node16"><a xlink:href="executor_8hpp.html" target="_top" xlink:title=" ">
<polygon fill="none" stroke="black" points="944,-252 944,-271 1083,-271 1083,-252 944,-252"/>
<text text-anchor="middle" x="1013.5" y="-259" font-family="Helvetica,sans-Serif" font-size="10.00">yaclib/executor/executor.hpp</text>
</a>
</g>
</g>
<!-- Node2&#45;&gt;Node16 -->
<g id="edge49" class="edge">
<title>Node2&#45;&gt;Node16</title>
<path fill="none" stroke="midnightblue" d="M976.74,-581.32C981.9,-572.47 989.68,-558.18 994.5,-545 1007.28,-510.07 1013.5,-500.69 1013.5,-463.5 1013.5,-463.5 1013.5,-463.5 1013.5,-394.5 1013.5,-354.16 1013.5,-306.88 1013.5,-281.28"/>
<polygon fill="midnightblue" stroke="midnightblue" points="1017,-281.15 1013.5,-271.15 1010,-281.15 1017,-281.15"/>
</g>
<!-- Node4 -->
<g id="node4" class="node">
<title>Node4</title>
<g id="a_node4"><a xlink:href="coroutine_8hpp.html" target="_top" xlink:title=" ">
<polygon fill="none" stroke="black" points="0,-386 0,-405 145,-405 145,-386 0,-386"/>
<text text-anchor="middle" x="72.5" y="-393" font-family="Helvetica,sans-Serif" font-size="10.00">yaclib/coroutine/coroutine.hpp</text>
</a>
</g>
</g>
<!-- Node3&#45;&gt;Node4 -->
<g id="edge3" class="edge">
<title>Node3&#45;&gt;Node4</title>
<path fill="none" stroke="midnightblue" d="M875.18,-524.62C785.59,-517.91 603.37,-502.45 450.5,-478 328.24,-458.45 185.95,-424.77 115.95,-407.46"/>
<polygon fill="midnightblue" stroke="midnightblue" points="116.7,-404.04 106.15,-405.03 115.02,-410.84 116.7,-404.04"/>
</g>
<!-- Node6 -->
<g id="node6" class="node">
<title>Node6</title>
<g id="a_node6"><a xlink:href="promise__type_8hpp.html" target="_top" xlink:title=" ">
<polygon fill="none" stroke="black" points="459.5,-447.5 459.5,-477.5 569.5,-477.5 569.5,-447.5 459.5,-447.5"/>
<text text-anchor="start" x="467.5" y="-465.5" font-family="Helvetica,sans-Serif" font-size="10.00">yaclib/coroutine/detail</text>
<text text-anchor="middle" x="514.5" y="-454.5" font-family="Helvetica,sans-Serif" font-size="10.00">/promise_type.hpp</text>
</a>
</g>
</g>
<!-- Node3&#45;&gt;Node6 -->
<g id="edge5" class="edge">
<title>Node3&#45;&gt;Node6</title>
<path fill="none" stroke="midnightblue" d="M875.26,-519.87C798.85,-507.93 661.15,-486.41 579.76,-473.7"/>
<polygon fill="midnightblue" stroke="midnightblue" points="580.06,-470.2 569.64,-472.12 578.98,-477.12 580.06,-470.2"/>
</g>
<!-- Node10 -->
<g id="node10" class="node">
<title>Node10</title>
<g id="a_node10"><a xlink:href="job_8hpp.html" target="_top" xlink:title=" ">
<polygon fill="none" stroke="black" points="932,-185 932,-204 1047,-204 1047,-185 932,-185"/>
<text text-anchor="middle" x="989.5" y="-192" font-family="Helvetica,sans-Serif" font-size="10.00">yaclib/executor/job.hpp</text>
</a>
</g>
</g>
<!-- Node3&#45;&gt;Node10 -->
<g id="edge48" class="edge">
<title>Node3&#45;&gt;Node10</title>
<path fill="none" stroke="midnightblue" d="M983.34,-514.48C1036.76,-496.74 1111.5,-460.48 1111.5,-396.5 1111.5,-396.5 1111.5,-396.5 1111.5,-327.5 1111.5,-290.31 1115.65,-275.11 1092.5,-246 1077.73,-227.43 1054.4,-215.21 1033.68,-207.45"/>
<polygon fill="midnightblue" stroke="midnightblue" points="1034.67,-204.09 1024.07,-204.09 1032.36,-210.69 1034.67,-204.09"/>
</g>
<!-- Node3&#45;&gt;Node16 -->
<g id="edge47" class="edge">
<title>Node3&#45;&gt;Node16</title>
<path fill="none" stroke="midnightblue" d="M934.96,-514.2C948.99,-469.25 992.17,-330.87 1007.79,-280.81"/>
<polygon fill="midnightblue" stroke="midnightblue" points="1011.19,-281.64 1010.83,-271.05 1004.51,-279.55 1011.19,-281.64"/>
</g>
<!-- Node5 -->
<g id="node5" class="node">
<title>Node5</title>
<g id="a_node5"><a xlink:title=" ">
<polygon fill="none" stroke="#bfbfbf" points="32.5,-319 32.5,-338 120.5,-338 120.5,-319 32.5,-319"/>
<text text-anchor="middle" x="76.5" y="-326" font-family="Helvetica,sans-Serif" font-size="10.00">yaclib/config.hpp</text>
</a>
</g>
</g>
<!-- Node4&#45;&gt;Node5 -->
<g id="edge4" class="edge">
<title>Node4&#45;&gt;Node5</title>
<path fill="none" stroke="midnightblue" d="M73.04,-385.73C73.63,-376.18 74.59,-360.62 75.34,-348.28"/>
<polygon fill="midnightblue" stroke="midnightblue" points="78.85,-348.32 75.97,-338.13 71.86,-347.89 78.85,-348.32"/>
</g>
<!-- Node6&#45;&gt;Node4 -->
<g id="edge39" class="edge">
<title>Node6&#45;&gt;Node4</title>
<path fill="none" stroke="midnightblue" d="M459.21,-454.37C388.47,-445.1 262.18,-428.07 154.5,-411 146.29,-409.7 137.63,-408.25 129.14,-406.79"/>
<polygon fill="midnightblue" stroke="midnightblue" points="129.74,-403.34 119.28,-405.07 128.53,-410.23 129.74,-403.34"/>
</g>
<!-- Node7 -->
<g id="node7" class="node">
<title>Node7</title>
<g id="a_node7"><a xlink:href="result__core_8hpp.html" target="_top" xlink:title=" ">
<polygon fill="none" stroke="black" points="559.5,-380.5 559.5,-410.5 655.5,-410.5 655.5,-380.5 559.5,-380.5"/>
<text text-anchor="start" x="567.5" y="-398.5" font-family="Helvetica,sans-Serif" font-size="10.00">yaclib/async/detail</text>
<text text-anchor="middle" x="607.5" y="-387.5" font-family="Helvetica,sans-Serif" font-size="10.00">/result_core.hpp</text>
</a>
</g>
</g>
<!-- Node6&#45;&gt;Node7 -->
<g id="edge6" class="edge">
<title>Node6&#45;&gt;Node7</title>
<path fill="none" stroke="midnightblue" d="M534.68,-447.4C547.6,-438.37 564.56,-426.51 578.86,-416.52"/>
<polygon fill="midnightblue" stroke="midnightblue" points="581.17,-419.17 587.36,-410.58 577.16,-413.44 581.17,-419.17"/>
</g>
<!-- Node17 -->
<g id="node17" class="node">
<title>Node17</title>
<g id="a_node17"><a xlink:href="intrusive__ptr_8hpp.html" target="_top" xlink:title=" ">
<polygon fill="none" stroke="black" points="716,-179.5 716,-209.5 813,-209.5 813,-179.5 716,-179.5"/>
<text text-anchor="start" x="724" y="-197.5" font-family="Helvetica,sans-Serif" font-size="10.00">yaclib/util/intrusive</text>
<text text-anchor="middle" x="764.5" y="-186.5" font-family="Helvetica,sans-Serif" font-size="10.00">_ptr.hpp</text>
</a>
</g>
</g>
<!-- Node6&#45;&gt;Node17 -->
<g id="edge45" class="edge">
<title>Node6&#45;&gt;Node17</title>
<path fill="none" stroke="midnightblue" d="M569.61,-455.25C659.64,-441.59 834.45,-399.75 896.5,-277 902.72,-264.7 904.31,-257.35 896.5,-246 879.9,-221.88 850.09,-209.27 822.99,-202.69"/>
<polygon fill="midnightblue" stroke="midnightblue" points="823.68,-199.25 813.16,-200.52 822.18,-206.09 823.68,-199.25"/>
</g>
<!-- Node26 -->
<g id="node26" class="node">
<title>Node26</title>
<g id="a_node26"><a xlink:title=" ">
<polygon fill="none" stroke="#bfbfbf" points="285.5,-185 285.5,-204 343.5,-204 343.5,-185 285.5,-185"/>
<text text-anchor="middle" x="314.5" y="-192" font-family="Helvetica,sans-Serif" font-size="10.00">exception</text>
</a>
</g>
</g>
<!-- Node6&#45;&gt;Node26 -->
<g id="edge46" class="edge">
<title>Node6&#45;&gt;Node26</title>
<path fill="none" stroke="midnightblue" d="M493.3,-447.41C453.72,-419.85 368.91,-354.67 328.5,-277 318.27,-257.34 315.29,-231.75 314.53,-214.54"/>
<polygon fill="midnightblue" stroke="midnightblue" points="318.02,-214.05 314.3,-204.13 311.02,-214.21 318.02,-214.05"/>
</g>
<!-- Node28 -->
<g id="node28" class="node">
<title>Node28</title>
<g id="a_node28"><a xlink:href="atomic__counter_8hpp.html" target="_top" xlink:title=" ">
<polygon fill="none" stroke="black" points="163.5,-380.5 163.5,-410.5 267.5,-410.5 267.5,-380.5 163.5,-380.5"/>
<text text-anchor="start" x="171.5" y="-398.5" font-family="Helvetica,sans-Serif" font-size="10.00">yaclib/util/detail</text>
<text text-anchor="middle" x="215.5" y="-387.5" font-family="Helvetica,sans-Serif" font-size="10.00">/atomic_counter.hpp</text>
</a>
</g>
</g>
<!-- Node6&#45;&gt;Node28 -->
<g id="edge40" class="edge">
<title>Node6&#45;&gt;Node28</title>
<path fill="none" stroke="midnightblue" d="M459.41,-449.61C412.19,-439.4 342.36,-424.28 281.5,-411 280.24,-410.73 278.97,-410.45 277.69,-410.17"/>
<polygon fill="midnightblue" stroke="midnightblue" points="278.25,-406.71 267.74,-407.99 276.76,-413.55 278.25,-406.71"/>
</g>
<!-- Node8 -->
<g id="node8" class="node">
<title>Node8</title>
<g id="a_node8"><a xlink:href="base__core_8hpp.html" target="_top" xlink:title=" ">
<polygon fill="none" stroke="black" points="639.5,-313.5 639.5,-343.5 735.5,-343.5 735.5,-313.5 639.5,-313.5"/>
<text text-anchor="start" x="647.5" y="-331.5" font-family="Helvetica,sans-Serif" font-size="10.00">yaclib/async/detail</text>
<text text-anchor="middle" x="687.5" y="-320.5" font-family="Helvetica,sans-Serif" font-size="10.00">/base_core.hpp</text>
</a>
</g>
</g>
<!-- Node7&#45;&gt;Node8 -->
<g id="edge7" class="edge">
<title>Node7&#45;&gt;Node8</title>
<path fill="none" stroke="midnightblue" d="M624.86,-380.4C635.76,-371.54 650.01,-359.96 662.16,-350.09"/>
<polygon fill="midnightblue" stroke="midnightblue" points="664.62,-352.6 670.18,-343.58 660.21,-347.17 664.62,-352.6"/>
</g>
<!-- Node9 -->
<g id="node9" class="node">
<title>Node9</title>
<g id="a_node9"><a xlink:href="inline__core_8hpp.html" target="_top" xlink:title=" ">
<polygon fill="none" stroke="black" points="791.5,-246.5 791.5,-276.5 887.5,-276.5 887.5,-246.5 791.5,-246.5"/>
<text text-anchor="start" x="799.5" y="-264.5" font-family="Helvetica,sans-Serif" font-size="10.00">yaclib/async/detail</text>
<text text-anchor="middle" x="839.5" y="-253.5" font-family="Helvetica,sans-Serif" font-size="10.00">/inline_core.hpp</text>
</a>
</g>
</g>
<!-- Node7&#45;&gt;Node9 -->
<g id="edge26" class="edge">
<title>Node7&#45;&gt;Node9</title>
<path fill="none" stroke="midnightblue" d="M655.7,-388.43C691.79,-382.03 741.02,-369.2 777.5,-344 799.3,-328.94 816.73,-303.8 827.49,-285.41"/>
<polygon fill="midnightblue" stroke="midnightblue" points="830.65,-286.94 832.49,-276.5 824.54,-283.51 830.65,-286.94"/>
</g>
<!-- Node15 -->
<g id="node15" class="node">
<title>Node15</title>
<g id="a_node15"><a xlink:title=" ">
<polygon fill="none" stroke="#bfbfbf" points="238,-56.5 238,-75.5 277,-75.5 277,-56.5 238,-56.5"/>
<text text-anchor="middle" x="257.5" y="-63.5" font-family="Helvetica,sans-Serif" font-size="10.00">utility</text>
</a>
</g>
</g>
<!-- Node7&#45;&gt;Node15 -->
<g id="edge38" class="edge">
<title>Node7&#45;&gt;Node15</title>
<path fill="none" stroke="midnightblue" d="M559.47,-387.35C519.46,-380.13 461.75,-366.72 415.5,-344 371.7,-322.48 363.07,-311.44 328.5,-277 301.8,-250.4 291.04,-244.78 276.5,-210 259.01,-168.17 256.75,-113.98 256.93,-85.84"/>
<polygon fill="midnightblue" stroke="midnightblue" points="260.43,-85.85 257.11,-75.79 253.44,-85.72 260.43,-85.85"/>
</g>
<!-- Node7&#45;&gt;Node17 -->
<g id="edge27" class="edge">
<title>Node7&#45;&gt;Node17</title>
<path fill="none" stroke="midnightblue" d="M655.71,-389.28C685.89,-383.38 723.02,-370.8 744.5,-344 773.03,-308.41 771.86,-251.92 768.29,-219.84"/>
<polygon fill="midnightblue" stroke="midnightblue" points="771.72,-219.06 766.97,-209.59 764.78,-219.96 771.72,-219.06"/>
</g>
<!-- Node22 -->
<g id="node22" class="node">
<title>Node22</title>
<g id="a_node22"><a xlink:href="result_8hpp.html" target="_top" xlink:title=" ">
<polygon fill="none" stroke="black" points="424.5,-319 424.5,-338 526.5,-338 526.5,-319 424.5,-319"/>
<text text-anchor="middle" x="475.5" y="-326" font-family="Helvetica,sans-Serif" font-size="10.00">yaclib/util/result.hpp</text>
</a>
</g>
</g>
<!-- Node7&#45;&gt;Node22 -->
<g id="edge28" class="edge">
<title>Node7&#45;&gt;Node22</title>
<path fill="none" stroke="midnightblue" d="M578.86,-380.4C556,-369.14 524.24,-353.5 501.98,-342.54"/>
<polygon fill="midnightblue" stroke="midnightblue" points="503.29,-339.28 492.78,-338.01 500.2,-345.56 503.29,-339.28"/>
</g>
<!-- Node8&#45;&gt;Node9 -->
<g id="edge8" class="edge">
<title>Node8&#45;&gt;Node9</title>
<path fill="none" stroke="midnightblue" d="M720.48,-313.4C742.99,-303.77 773,-290.94 797.26,-280.56"/>
<polygon fill="midnightblue" stroke="midnightblue" points="798.76,-283.73 806.58,-276.58 796.01,-277.29 798.76,-283.73"/>
</g>
<!-- Node13 -->
<g id="node13" class="node">
<title>Node13</title>
<g id="a_node13"><a xlink:href="ref_8hpp.html" target="_top" xlink:title=" ">
<polygon fill="none" stroke="black" points="662,-56.5 662,-75.5 751,-75.5 751,-56.5 662,-56.5"/>
<text text-anchor="middle" x="706.5" y="-63.5" font-family="Helvetica,sans-Serif" font-size="10.00">yaclib/util/ref.hpp</text>
</a>
</g>
</g>
<!-- Node8&#45;&gt;Node13 -->
<g id="edge24" class="edge">
<title>Node8&#45;&gt;Node13</title>
<path fill="none" stroke="midnightblue" d="M688.52,-313.49C691.71,-269.76 701.49,-135.7 705.12,-85.89"/>
<polygon fill="midnightblue" stroke="midnightblue" points="708.63,-85.85 705.87,-75.63 701.65,-85.34 708.63,-85.85"/>
</g>
<!-- Node8&#45;&gt;Node16 -->
<g id="edge15" class="edge">
<title>Node8&#45;&gt;Node16</title>
<path fill="none" stroke="midnightblue" d="M735.6,-317.91C795.75,-305.92 898.36,-285.46 960.65,-273.04"/>
<polygon fill="midnightblue" stroke="midnightblue" points="961.54,-276.43 970.66,-271.04 960.17,-269.56 961.54,-276.43"/>
</g>
<!-- Node8&#45;&gt;Node17 -->
<g id="edge23" class="edge">
<title>Node8&#45;&gt;Node17</title>
<path fill="none" stroke="midnightblue" d="M695.74,-313.37C709,-290.65 735.19,-245.75 751.14,-218.4"/>
<polygon fill="midnightblue" stroke="midnightblue" points="754.3,-219.93 756.32,-209.52 748.26,-216.4 754.3,-219.93"/>
</g>
<!-- Node21 -->
<g id="node21" class="node">
<title>Node21</title>
<g id="a_node21"><a xlink:title=" ">
<polygon fill="none" stroke="#bfbfbf" points="567.5,-252 567.5,-271 659.5,-271 659.5,-252 567.5,-252"/>
<text text-anchor="middle" x="613.5" y="-259" font-family="Helvetica,sans-Serif" font-size="10.00">yaclib_std/atomic</text>
</a>
</g>
</g>
<!-- Node8&#45;&gt;Node21 -->
<g id="edge25" class="edge">
<title>Node8&#45;&gt;Node21</title>
<path fill="none" stroke="midnightblue" d="M671.44,-313.4C659.56,-302.96 643.39,-288.75 631.14,-278"/>
<polygon fill="midnightblue" stroke="midnightblue" points="633.22,-275.16 623.4,-271.19 628.6,-280.42 633.22,-275.16"/>
</g>
<!-- Node9&#45;&gt;Node10 -->
<g id="edge9" class="edge">
<title>Node9&#45;&gt;Node10</title>
<path fill="none" stroke="midnightblue" d="M872.05,-246.4C898.37,-234.99 935.09,-219.08 960.43,-208.1"/>
<polygon fill="midnightblue" stroke="midnightblue" points="962.08,-211.19 969.87,-204.01 959.3,-204.77 962.08,-211.19"/>
</g>
<!-- Node11 -->
<g id="node11" class="node">
<title>Node11</title>
<g id="a_node11"><a xlink:href="node_8hpp.html" target="_top" xlink:title=" ">
<polygon fill="none" stroke="black" points="948,-112.5 948,-142.5 1031,-142.5 1031,-112.5 948,-112.5"/>
<text text-anchor="start" x="956" y="-130.5" font-family="Helvetica,sans-Serif" font-size="10.00">yaclib/util/detail</text>
<text text-anchor="middle" x="989.5" y="-119.5" font-family="Helvetica,sans-Serif" font-size="10.00">/node.hpp</text>
</a>
</g>
</g>
<!-- Node10&#45;&gt;Node11 -->
<g id="edge10" class="edge">
<title>Node10&#45;&gt;Node11</title>
<path fill="none" stroke="midnightblue" d="M989.5,-184.73C989.5,-176.54 989.5,-163.92 989.5,-152.71"/>
<polygon fill="midnightblue" stroke="midnightblue" points="993,-152.59 989.5,-142.59 986,-152.59 993,-152.59"/>
</g>
<!-- Node12 -->
<g id="node12" class="node">
<title>Node12</title>
<g id="a_node12"><a xlink:href="func_8hpp.html" target="_top" xlink:title=" ">
<polygon fill="none" stroke="black" points="581,-118 581,-137 678,-137 678,-118 581,-118"/>
<text text-anchor="middle" x="629.5" y="-125" font-family="Helvetica,sans-Serif" font-size="10.00">yaclib/util/func.hpp</text>
</a>
</g>
</g>
<!-- Node10&#45;&gt;Node12 -->
<g id="edge11" class="edge">
<title>Node10&#45;&gt;Node12</title>
<path fill="none" stroke="midnightblue" d="M942.07,-184.94C876.28,-173.06 757.48,-151.61 686.82,-138.85"/>
<polygon fill="midnightblue" stroke="midnightblue" points="687.22,-135.36 676.75,-137.03 685.97,-142.25 687.22,-135.36"/>
</g>
<!-- Node12&#45;&gt;Node13 -->
<g id="edge12" class="edge">
<title>Node12&#45;&gt;Node13</title>
<path fill="none" stroke="midnightblue" d="M640.53,-117.98C652.77,-108.52 672.73,-93.1 687.49,-81.69"/>
<polygon fill="midnightblue" stroke="midnightblue" points="689.72,-84.39 695.49,-75.51 685.44,-78.85 689.72,-84.39"/>
</g>
<!-- Node14 -->
<g id="node14" class="node">
<title>Node14</title>
<g id="a_node14"><a xlink:title=" ">
<polygon fill="none" stroke="#bfbfbf" points="502.5,-56.5 502.5,-75.5 564.5,-75.5 564.5,-56.5 502.5,-56.5"/>
<text text-anchor="middle" x="533.5" y="-63.5" font-family="Helvetica,sans-Serif" font-size="10.00">type_traits</text>
</a>
</g>
</g>
<!-- Node12&#45;&gt;Node14 -->
<g id="edge13" class="edge">
<title>Node12&#45;&gt;Node14</title>
<path fill="none" stroke="midnightblue" d="M615.75,-117.98C600.13,-108.3 574.44,-92.37 555.92,-80.89"/>
<polygon fill="midnightblue" stroke="midnightblue" points="557.57,-77.8 547.23,-75.51 553.88,-83.75 557.57,-77.8"/>
</g>
<!-- Node12&#45;&gt;Node15 -->
<g id="edge14" class="edge">
<title>Node12&#45;&gt;Node15</title>
<path fill="none" stroke="midnightblue" d="M580.87,-118.72C502.67,-106.21 351.3,-82 287.26,-71.76"/>
<polygon fill="midnightblue" stroke="midnightblue" points="287.49,-68.25 277.06,-70.13 286.38,-75.16 287.49,-68.25"/>
</g>
<!-- Node16&#45;&gt;Node10 -->
<g id="edge16" class="edge">
<title>Node16&#45;&gt;Node10</title>
<path fill="none" stroke="midnightblue" d="M1010.26,-251.73C1006.66,-241.99 1000.75,-225.98 996.16,-213.53"/>
<polygon fill="midnightblue" stroke="midnightblue" points="999.43,-212.3 992.69,-204.13 992.87,-214.72 999.43,-212.3"/>
</g>
<!-- Node16&#45;&gt;Node17 -->
<g id="edge17" class="edge">
<title>Node16&#45;&gt;Node17</title>
<path fill="none" stroke="midnightblue" d="M980.69,-251.94C940.66,-241.49 872.26,-223.63 823.1,-210.8"/>
<polygon fill="midnightblue" stroke="midnightblue" points="823.79,-207.36 813.23,-208.22 822.02,-214.13 823.79,-207.36"/>
</g>
<!-- Node17&#45;&gt;Node13 -->
<g id="edge18" class="edge">
<title>Node17&#45;&gt;Node13</title>
<path fill="none" stroke="midnightblue" d="M758.07,-179.48C747.49,-156.41 726.44,-110.48 714.77,-85.03"/>
<polygon fill="midnightblue" stroke="midnightblue" points="717.88,-83.42 710.53,-75.79 711.52,-86.34 717.88,-83.42"/>
</g>
<!-- Node17&#45;&gt;Node14 -->
<g id="edge19" class="edge">
<title>Node17&#45;&gt;Node14</title>
<path fill="none" stroke="midnightblue" d="M715.9,-191.77C673.55,-187.9 612.65,-176.38 571.5,-143 553.46,-128.36 543.23,-102.97 538.03,-85.6"/>
<polygon fill="midnightblue" stroke="midnightblue" points="541.3,-84.27 535.31,-75.53 534.54,-86.1 541.3,-84.27"/>
</g>
<!-- Node18 -->
<g id="node18" class="node">
<title>Node18</title>
<g id="a_node18"><a xlink:href="intrusive__ptr__impl_8hpp.html" target="_top" xlink:title=" ">
<polygon fill="none" stroke="black" points="772.5,-112.5 772.5,-142.5 886.5,-142.5 886.5,-112.5 772.5,-112.5"/>
<text text-anchor="start" x="780.5" y="-130.5" font-family="Helvetica,sans-Serif" font-size="10.00">yaclib/util/detail</text>
<text text-anchor="middle" x="829.5" y="-119.5" font-family="Helvetica,sans-Serif" font-size="10.00">/intrusive_ptr_impl.hpp</text>
</a>
</g>
</g>
<!-- Node17&#45;&gt;Node18 -->
<g id="edge20" class="edge">
<title>Node17&#45;&gt;Node18</title>
<path fill="none" stroke="midnightblue" d="M778.6,-179.4C787.29,-170.71 798.6,-159.4 808.34,-149.66"/>
<polygon fill="midnightblue" stroke="midnightblue" points="810.83,-152.12 815.42,-142.58 805.88,-147.17 810.83,-152.12"/>
</g>
<!-- Node19 -->
<g id="node19" class="node">
<title>Node19</title>
<g id="a_node19"><a xlink:href="log_8hpp.html" target="_top" xlink:title=" ">
<polygon fill="none" stroke="black" points="792,-56.5 792,-75.5 867,-75.5 867,-56.5 792,-56.5"/>
<text text-anchor="middle" x="829.5" y="-63.5" font-family="Helvetica,sans-Serif" font-size="10.00">yaclib/log.hpp</text>
</a>
</g>
</g>
<!-- Node18&#45;&gt;Node19 -->
<g id="edge21" class="edge">
<title>Node18&#45;&gt;Node19</title>
<path fill="none" stroke="midnightblue" d="M829.5,-112.4C829.5,-104.47 829.5,-94.46 829.5,-85.86"/>
<polygon fill="midnightblue" stroke="midnightblue" points="833,-85.66 829.5,-75.66 826,-85.66 833,-85.66"/>
</g>
<!-- Node20 -->
<g id="node20" class="node">
<title>Node20</title>
<g id="a_node20"><a xlink:title=" ">
<polygon fill="none" stroke="#bfbfbf" points="796.5,-0.5 796.5,-19.5 862.5,-19.5 862.5,-0.5 796.5,-0.5"/>
<text text-anchor="middle" x="829.5" y="-7.5" font-family="Helvetica,sans-Serif" font-size="10.00">string_view</text>
</a>
</g>
</g>
<!-- Node19&#45;&gt;Node20 -->
<g id="edge22" class="edge">
<title>Node19&#45;&gt;Node20</title>
<path fill="none" stroke="midnightblue" d="M829.5,-56.08C829.5,-49.01 829.5,-38.86 829.5,-29.99"/>
<polygon fill="midnightblue" stroke="midnightblue" points="833,-29.75 829.5,-19.75 826,-29.75 833,-29.75"/>
</g>
<!-- Node23 -->
<g id="node23" class="node">
<title>Node23</title>
<g id="a_node23"><a xlink:href="type__traits_8hpp.html" target="_top" xlink:title=" ">
<polygon fill="none" stroke="black" points="362,-252 362,-271 485,-271 485,-252 362,-252"/>
<text text-anchor="middle" x="423.5" y="-259" font-family="Helvetica,sans-Serif" font-size="10.00">yaclib/util/type_traits.hpp</text>
</a>
</g>
</g>
<!-- Node22&#45;&gt;Node23 -->
<g id="edge29" class="edge">
<title>Node22&#45;&gt;Node23</title>
<path fill="none" stroke="midnightblue" d="M468.49,-318.73C460.38,-308.6 446.85,-291.69 436.74,-279.06"/>
<polygon fill="midnightblue" stroke="midnightblue" points="439.38,-276.75 430.4,-271.13 433.92,-281.12 439.38,-276.75"/>
</g>
<!-- Node22&#45;&gt;Node26 -->
<g id="edge36" class="edge">
<title>Node22&#45;&gt;Node26</title>
<path fill="none" stroke="midnightblue" d="M435.02,-318.98C408.75,-311.67 375.29,-298.75 352.5,-277 334.46,-259.78 324.14,-232.32 318.92,-214.1"/>
<polygon fill="midnightblue" stroke="midnightblue" points="322.29,-213.14 316.37,-204.35 315.52,-214.91 322.29,-213.14"/>
</g>
<!-- Node27 -->
<g id="node27" class="node">
<title>Node27</title>
<g id="a_node27"><a xlink:title=" ">
<polygon fill="none" stroke="#bfbfbf" points="503.5,-252 503.5,-271 549.5,-271 549.5,-252 503.5,-252"/>
<text text-anchor="middle" x="526.5" y="-259" font-family="Helvetica,sans-Serif" font-size="10.00">variant</text>
</a>
</g>
</g>
<!-- Node22&#45;&gt;Node27 -->
<g id="edge37" class="edge">
<title>Node22&#45;&gt;Node27</title>
<path fill="none" stroke="midnightblue" d="M482.38,-318.73C490.33,-308.6 503.6,-291.69 513.51,-279.06"/>
<polygon fill="midnightblue" stroke="midnightblue" points="516.31,-281.16 519.73,-271.13 510.8,-276.83 516.31,-281.16"/>
</g>
<!-- Node23&#45;&gt;Node14 -->
<g id="edge35" class="edge">
<title>Node23&#45;&gt;Node14</title>
<path fill="none" stroke="midnightblue" d="M452.97,-251.99C473.63,-244.42 500.05,-231.2 514.5,-210 540.4,-172 538.92,-114.94 536.01,-85.71"/>
<polygon fill="midnightblue" stroke="midnightblue" points="539.47,-85.18 534.84,-75.66 532.52,-85.99 539.47,-85.18"/>
</g>
<!-- Node24 -->
<g id="node24" class="node">
<title>Node24</title>
<g id="a_node24"><a xlink:href="fwd_8hpp.html" target="_top" xlink:title=" ">
<polygon fill="none" stroke="black" points="350.5,-118 350.5,-137 428.5,-137 428.5,-118 350.5,-118"/>
<text text-anchor="middle" x="389.5" y="-125" font-family="Helvetica,sans-Serif" font-size="10.00">yaclib/fwd.hpp</text>
</a>
</g>
</g>
<!-- Node23&#45;&gt;Node24 -->
<g id="edge30" class="edge">
<title>Node23&#45;&gt;Node24</title>
<path fill="none" stroke="midnightblue" d="M415.72,-251.99C407.64,-242.54 395.5,-226.43 390.5,-210 384.2,-189.32 385.07,-164.3 386.78,-147.49"/>
<polygon fill="midnightblue" stroke="midnightblue" points="390.29,-147.66 388.03,-137.31 383.34,-146.81 390.29,-147.66"/>
</g>
<!-- Node25 -->
<g id="node25" class="node">
<title>Node25</title>
<g id="a_node25"><a xlink:href="type__traits__impl_8hpp.html" target="_top" xlink:title=" ">
<polygon fill="none" stroke="black" points="399.5,-179.5 399.5,-209.5 505.5,-209.5 505.5,-179.5 399.5,-179.5"/>
<text text-anchor="start" x="407.5" y="-197.5" font-family="Helvetica,sans-Serif" font-size="10.00">yaclib/util/detail</text>
<text text-anchor="middle" x="452.5" y="-186.5" font-family="Helvetica,sans-Serif" font-size="10.00">/type_traits_impl.hpp</text>
</a>
</g>
</g>
<!-- Node23&#45;&gt;Node25 -->
<g id="edge31" class="edge">
<title>Node23&#45;&gt;Node25</title>
<path fill="none" stroke="midnightblue" d="M427.41,-251.73C431.14,-243.37 436.93,-230.4 442.01,-219.02"/>
<polygon fill="midnightblue" stroke="midnightblue" points="445.34,-220.15 446.21,-209.59 438.94,-217.3 445.34,-220.15"/>
</g>
<!-- Node23&#45;&gt;Node26 -->
<g id="edge34" class="edge">
<title>Node23&#45;&gt;Node26</title>
<path fill="none" stroke="midnightblue" d="M408.8,-251.73C390.58,-240.87 359.3,-222.22 337.8,-209.39"/>
<polygon fill="midnightblue" stroke="midnightblue" points="339.35,-206.24 328.97,-204.13 335.76,-212.26 339.35,-206.24"/>
</g>
<!-- Node25&#45;&gt;Node14 -->
<g id="edge33" class="edge">
<title>Node25&#45;&gt;Node14</title>
<path fill="none" stroke="midnightblue" d="M460.24,-179.4C469.39,-162.94 485.32,-135.04 500.5,-112 506.76,-102.49 514.23,-92.23 520.47,-83.92"/>
<polygon fill="midnightblue" stroke="midnightblue" points="523.39,-85.86 526.66,-75.78 517.82,-81.62 523.39,-85.86"/>
</g>
<!-- Node25&#45;&gt;Node24 -->
<g id="edge32" class="edge">
<title>Node25&#45;&gt;Node24</title>
<path fill="none" stroke="midnightblue" d="M438.83,-179.4C428.91,-169.16 415.47,-155.3 405.13,-144.62"/>
<polygon fill="midnightblue" stroke="midnightblue" points="407.4,-141.94 397.93,-137.19 402.37,-146.81 407.4,-141.94"/>
</g>
<!-- Node28&#45;&gt;Node5 -->
<g id="edge41" class="edge">
<title>Node28&#45;&gt;Node5</title>
<path fill="none" stroke="midnightblue" d="M185.34,-380.4C161.06,-369.04 127.22,-353.22 103.75,-342.24"/>
<polygon fill="midnightblue" stroke="midnightblue" points="105.23,-339.07 94.69,-338.01 102.27,-345.41 105.23,-339.07"/>
</g>
<!-- Node28&#45;&gt;Node15 -->
<g id="edge43" class="edge">
<title>Node28&#45;&gt;Node15</title>
<path fill="none" stroke="midnightblue" d="M199.08,-380.12C189.38,-370.76 177.64,-357.76 170.5,-344 153.38,-310.98 151.5,-299.69 151.5,-262.5 151.5,-262.5 151.5,-262.5 151.5,-193.5 151.5,-142.65 202.45,-101.5 233.7,-81.05"/>
<polygon fill="midnightblue" stroke="midnightblue" points="235.73,-83.91 242.31,-75.61 231.99,-77.99 235.73,-83.91"/>
</g>
<!-- Node28&#45;&gt;Node21 -->
<g id="edge44" class="edge">
<title>Node28&#45;&gt;Node21</title>
<path fill="none" stroke="midnightblue" d="M246.17,-380.42C285,-362.97 354.22,-333.09 415.5,-313 477.78,-292.58 495.03,-293.35 558.5,-277 562.64,-275.93 566.96,-274.81 571.27,-273.69"/>
<polygon fill="midnightblue" stroke="midnightblue" points="572.45,-276.99 581.23,-271.07 570.67,-270.22 572.45,-276.99"/>
</g>
<!-- Node29 -->
<g id="node29" class="node">
<title>Node29</title>
<g id="a_node29"><a xlink:title=" ">
<polygon fill="none" stroke="#bfbfbf" points="180,-319 180,-338 229,-338 229,-319 180,-319"/>
<text text-anchor="middle" x="204.5" y="-326" font-family="Helvetica,sans-Serif" font-size="10.00">cstddef</text>
</a>
</g>
</g>
<!-- Node28&#45;&gt;Node29 -->
<g id="edge42" class="edge">
<title>Node28&#45;&gt;Node29</title>
<path fill="none" stroke="midnightblue" d="M213.11,-380.4C211.52,-370.96 209.4,-358.45 207.66,-348.19"/>
<polygon fill="midnightblue" stroke="midnightblue" points="211.09,-347.47 205.97,-338.19 204.19,-348.64 211.09,-347.47"/>
</g>
</g>
</svg>
        <g id="navigator" transform="translate(0 0)" fill="#404254">
                <rect fill="#f2f5e9" fill-opacity="0.5" stroke="#606060" stroke-width=".5" x="0" y="0" width="60" height="60"/>
                <use id="zoomplus" xlink:href="#zoomPlus" x="17" y="9" onmousedown="handleZoom(evt,'in')"/>
                <use id="zoomminus" xlink:href="#zoomMin" x="42" y="9" onmousedown="handleZoom(evt,'out')"/>
                <use id="reset" xlink:href="#resetDef" x="30" y="36" onmousedown="handleReset()"/>
                <g id="arrowUp" xlink:href="#dirArrow" transform="translate(30 24)" onmousedown="handlePan(0,-1)">
                  <use xlink:href="#rim" fill="#404040">
                        <set attributeName="fill" to="#808080" begin="arrowUp.mouseover" end="arrowUp.mouseout"/>
                  </use>
                  <path fill="none" stroke="white" stroke-width="1.5" d="M0,-3.0v7 M-2.5,-0.5L0,-3.0L2.5,-0.5"/>
                </g>
                <g id="arrowRight" xlink:href="#dirArrow" transform="rotate(90) translate(36 -43)" onmousedown="handlePan(1,0)">
                  <use xlink:href="#rim" fill="#404040">
                        <set attributeName="fill" to="#808080" begin="arrowRight.mouseover" end="arrowRight.mouseout"/>
                  </use>
                  <path fill="none" stroke="white" stroke-width="1.5" d="M0,-3.0v7 M-2.5,-0.5L0,-3.0L2.5,-0.5"/>
                </g>
                <g id="arrowDown" xlink:href="#dirArrow" transform="rotate(180) translate(-30 -48)" onmousedown="handlePan(0,1)">
                  <use xlink:href="#rim" fill="#404040">
                        <set attributeName="fill" to="#808080" begin="arrowDown.mouseover" end="arrowDown.mouseout"/>
                  </use>
                  <path fill="none" stroke="white" stroke-width="1.5" d="M0,-3.0v7 M-2.5,-0.5L0,-3.0L2.5,-0.5"/>
                </g>
                <g id="arrowLeft" xlink:href="#dirArrow" transform="rotate(270) translate(-36 17)" onmousedown="handlePan(-1,0)">
                  <use xlink:href="#rim" fill="#404040">
                        <set attributeName="fill" to="#808080" begin="arrowLeft.mouseover" end="arrowLeft.mouseout"/>
                  </use>
                  <path fill="none" stroke="white" stroke-width="1.5" d="M0,-3.0v7 M-2.5,-0.5L0,-3.0L2.5,-0.5"/>
                </g>
        </g>
        <svg viewBox="0 0 15 15" width="100%" height="30px" preserveAspectRatio="xMaxYMin meet">
         <g id="arrow_out" transform="scale(0.3 0.3)">
          <a xlink:href="on_8cpp__incl_org.svg" target="_base">
           <rect id="button" ry="5" rx="5" y="6" x="6" height="38" width="38"
                fill="#f2f5e9" fill-opacity="0.5" stroke="#606060" stroke-width="1.0"/>
           <path id="arrow"
             d="M 11.500037,31.436501 C 11.940474,20.09759 22.043105,11.32322 32.158766,21.979434 L 37.068811,17.246167 C 37.068811,17.246167 37.088388,32 37.088388,32 L 22.160133,31.978069 C 22.160133,31.978069 26.997745,27.140456 26.997745,27.140456 C 18.528582,18.264221 13.291696,25.230495 11.500037,31.436501 z"
             style="fill:#404040;"/>
          </a>
         </g>
        </svg>
</svg>
