<?xml version="1.0" encoding="UTF-8" standalone="no"?>
<!DOCTYPE svg PUBLIC "-//W3C//DTD SVG 1.1//EN"
 "http://www.w3.org/Graphics/SVG/1.1/DTD/svg11.dtd">
<!-- Generated by graphviz version 3.0.0 (20220413.0106)
 -->
<!-- Title: src/coroutine/on_awaiter.cpp Pages: 1 -->
<svg width="1064pt" height="609pt"
 viewBox="0.00 0.00 1063.50 609.00" xmlns="http://www.w3.org/2000/svg" xmlns:xlink="http://www.w3.org/1999/xlink">
<g id="graph0" class="graph" transform="scale(1 1) rotate(0) translate(4 605)">
<title>src/coroutine/on_awaiter.cpp</title>
<!-- Node1 -->
<g id="node1" class="node">
<title>Node1</title>
<g id="a_node1"><a xlink:title=" ">
<polygon fill="#bfbfbf" stroke="black" points="332.5,-581.5 332.5,-600.5 473.5,-600.5 473.5,-581.5 332.5,-581.5"/>
<text text-anchor="middle" x="403" y="-588.5" font-family="Helvetica,sans-Serif" font-size="10.00">src/coroutine/on_awaiter.cpp</text>
</a>
</g>
</g>
<!-- Node2 -->
<g id="node2" class="node">
<title>Node2</title>
<g id="a_node2"><a xlink:href="on__awaiter_8hpp.html" target="_top" xlink:title=" ">
<polygon fill="none" stroke="black" points="431,-514.5 431,-544.5 541,-544.5 541,-514.5 431,-514.5"/>
<text text-anchor="start" x="439" y="-532.5" font-family="Helvetica,sans-Serif" font-size="10.00">yaclib/coroutine/detail</text>
<text text-anchor="middle" x="486" y="-521.5" font-family="Helvetica,sans-Serif" font-size="10.00">/on_awaiter.hpp</text>
</a>
</g>
</g>
<!-- Node1&#45;&gt;Node2 -->
<g id="edge1" class="edge">
<title>Node1&#45;&gt;Node2</title>
<path fill="none" stroke="midnightblue" d="M414.89,-581.48C426.13,-573.42 443.42,-561.02 458.14,-550.47"/>
<polygon fill="midnightblue" stroke="midnightblue" points="460.35,-553.19 466.44,-544.52 456.27,-547.5 460.35,-553.19"/>
</g>
<!-- Node9 -->
<g id="node9" class="node">
<title>Node9</title>
<g id="a_node9"><a xlink:href="job_8hpp.html" target="_top" xlink:title=" ">
<polygon fill="none" stroke="black" points="333.5,-185 333.5,-204 448.5,-204 448.5,-185 333.5,-185"/>
<text text-anchor="middle" x="391" y="-192" font-family="Helvetica,sans-Serif" font-size="10.00">yaclib/executor/job.hpp</text>
</a>
</g>
</g>
<!-- Node1&#45;&gt;Node9 -->
<g id="edge49" class="edge">
<title>Node1&#45;&gt;Node9</title>
<path fill="none" stroke="midnightblue" d="M359.43,-581.48C302.78,-567.58 211,-534.15 211,-463.5 211,-463.5 211,-463.5 211,-394.5 211,-324.12 216.97,-296.49 266,-246 284.85,-226.59 312.15,-214.42 336.44,-206.9"/>
<polygon fill="midnightblue" stroke="midnightblue" points="337.65,-210.19 346.28,-204.05 335.7,-203.47 337.65,-210.19"/>
</g>
<!-- Node15 -->
<g id="node15" class="node">
<title>Node15</title>
<g id="a_node15"><a xlink:href="executor_8hpp.html" target="_top" xlink:title=" ">
<polygon fill="none" stroke="black" points="347.5,-252 347.5,-271 486.5,-271 486.5,-252 347.5,-252"/>
<text text-anchor="middle" x="417" y="-259" font-family="Helvetica,sans-Serif" font-size="10.00">yaclib/executor/executor.hpp</text>
</a>
</g>
</g>
<!-- Node1&#45;&gt;Node15 -->
<g id="edge48" class="edge">
<title>Node1&#45;&gt;Node15</title>
<path fill="none" stroke="midnightblue" d="M404.14,-581.09C408.15,-549.09 421.66,-436.98 426,-344 426.64,-330.24 427.21,-326.72 426,-313 425.05,-302.29 423,-290.45 421.09,-280.92"/>
<polygon fill="midnightblue" stroke="midnightblue" points="424.49,-280.07 418.99,-271.02 417.64,-281.52 424.49,-280.07"/>
</g>
<!-- Node3 -->
<g id="node3" class="node">
<title>Node3</title>
<g id="a_node3"><a xlink:href="coroutine_8hpp.html" target="_top" xlink:title=" ">
<polygon fill="none" stroke="black" points="910.5,-386 910.5,-405 1055.5,-405 1055.5,-386 910.5,-386"/>
<text text-anchor="middle" x="983" y="-393" font-family="Helvetica,sans-Serif" font-size="10.00">yaclib/coroutine/coroutine.hpp</text>
</a>
</g>
</g>
<!-- Node2&#45;&gt;Node3 -->
<g id="edge2" class="edge">
<title>Node2&#45;&gt;Node3</title>
<path fill="none" stroke="midnightblue" d="M538.72,-514.5C637.94,-488.14 850.59,-431.67 940.97,-407.66"/>
<polygon fill="midnightblue" stroke="midnightblue" points="942.09,-410.99 950.86,-405.04 940.3,-404.22 942.09,-410.99"/>
</g>
<!-- Node5 -->
<g id="node5" class="node">
<title>Node5</title>
<g id="a_node5"><a xlink:href="promise__type_8hpp.html" target="_top" xlink:title=" ">
<polygon fill="none" stroke="black" points="526,-447.5 526,-477.5 636,-477.5 636,-447.5 526,-447.5"/>
<text text-anchor="start" x="534" y="-465.5" font-family="Helvetica,sans-Serif" font-size="10.00">yaclib/coroutine/detail</text>
<text text-anchor="middle" x="581" y="-454.5" font-family="Helvetica,sans-Serif" font-size="10.00">/promise_type.hpp</text>
</a>
</g>
</g>
<!-- Node2&#45;&gt;Node5 -->
<g id="edge4" class="edge">
<title>Node2&#45;&gt;Node5</title>
<path fill="none" stroke="midnightblue" d="M506.61,-514.4C519.93,-505.28 537.46,-493.29 552.16,-483.24"/>
<polygon fill="midnightblue" stroke="midnightblue" points="554.15,-486.11 560.43,-477.58 550.2,-480.33 554.15,-486.11"/>
</g>
<!-- Node2&#45;&gt;Node9 -->
<g id="edge47" class="edge">
<title>Node2&#45;&gt;Node9</title>
<path fill="none" stroke="midnightblue" d="M464.72,-514.42C416.17,-480.6 299.42,-389.23 274,-277 270.96,-263.56 266.43,-257.51 274,-246 286.81,-226.52 308.89,-214.52 330.45,-207.15"/>
<polygon fill="midnightblue" stroke="midnightblue" points="331.78,-210.4 340.28,-204.07 329.69,-203.72 331.78,-210.4"/>
</g>
<!-- Node2&#45;&gt;Node15 -->
<g id="edge46" class="edge">
<title>Node2&#45;&gt;Node15</title>
<path fill="none" stroke="midnightblue" d="M486.89,-514.43C488.57,-478.98 489.68,-383.74 459,-313 453.32,-299.89 443.13,-287.52 434.22,-278.3"/>
<polygon fill="midnightblue" stroke="midnightblue" points="436.44,-275.58 426.86,-271.07 431.54,-280.57 436.44,-275.58"/>
</g>
<!-- Node4 -->
<g id="node4" class="node">
<title>Node4</title>
<g id="a_node4"><a xlink:title=" ">
<polygon fill="none" stroke="#bfbfbf" points="957,-319 957,-338 1045,-338 1045,-319 957,-319"/>
<text text-anchor="middle" x="1001" y="-326" font-family="Helvetica,sans-Serif" font-size="10.00">yaclib/config.hpp</text>
</a>
</g>
</g>
<!-- Node3&#45;&gt;Node4 -->
<g id="edge3" class="edge">
<title>Node3&#45;&gt;Node4</title>
<path fill="none" stroke="midnightblue" d="M985.43,-385.73C988.1,-376.09 992.47,-360.3 995.9,-347.91"/>
<polygon fill="midnightblue" stroke="midnightblue" points="999.32,-348.7 998.61,-338.13 992.57,-346.83 999.32,-348.7"/>
</g>
<!-- Node5&#45;&gt;Node3 -->
<g id="edge38" class="edge">
<title>Node5&#45;&gt;Node3</title>
<path fill="none" stroke="midnightblue" d="M636.26,-453.1C700.09,-443.32 808.22,-426.52 901,-411 909.01,-409.66 917.45,-408.21 925.75,-406.76"/>
<polygon fill="midnightblue" stroke="midnightblue" points="926.52,-410.18 935.76,-405.01 925.31,-403.29 926.52,-410.18"/>
</g>
<!-- Node6 -->
<g id="node6" class="node">
<title>Node6</title>
<g id="a_node6"><a xlink:href="result__core_8hpp.html" target="_top" xlink:title=" ">
<polygon fill="none" stroke="black" points="562,-380.5 562,-410.5 658,-410.5 658,-380.5 562,-380.5"/>
<text text-anchor="start" x="570" y="-398.5" font-family="Helvetica,sans-Serif" font-size="10.00">yaclib/async/detail</text>
<text text-anchor="middle" x="610" y="-387.5" font-family="Helvetica,sans-Serif" font-size="10.00">/result_core.hpp</text>
</a>
</g>
</g>
<!-- Node5&#45;&gt;Node6 -->
<g id="edge5" class="edge">
<title>Node5&#45;&gt;Node6</title>
<path fill="none" stroke="midnightblue" d="M587.29,-447.4C590.86,-439.39 595.43,-429.16 599.53,-419.98"/>
<polygon fill="midnightblue" stroke="midnightblue" points="602.84,-421.13 603.72,-410.58 596.45,-418.28 602.84,-421.13"/>
</g>
<!-- Node16 -->
<g id="node16" class="node">
<title>Node16</title>
<g id="a_node16"><a xlink:href="intrusive__ptr_8hpp.html" target="_top" xlink:title=" ">
<polygon fill="none" stroke="black" points="524.5,-179.5 524.5,-209.5 621.5,-209.5 621.5,-179.5 524.5,-179.5"/>
<text text-anchor="start" x="532.5" y="-197.5" font-family="Helvetica,sans-Serif" font-size="10.00">yaclib/util/intrusive</text>
<text text-anchor="middle" x="573" y="-186.5" font-family="Helvetica,sans-Serif" font-size="10.00">_ptr.hpp</text>
</a>
</g>
</g>
<!-- Node5&#45;&gt;Node16 -->
<g id="edge44" class="edge">
<title>Node5&#45;&gt;Node16</title>
<path fill="none" stroke="midnightblue" d="M571.17,-447.13C564.97,-437.37 557.33,-423.93 553,-411 529.53,-341.01 510.16,-315.86 534,-246 537.54,-235.62 544.18,-225.72 550.98,-217.47"/>
<polygon fill="midnightblue" stroke="midnightblue" points="553.74,-219.64 557.74,-209.83 548.49,-215 553.74,-219.64"/>
</g>
<!-- Node25 -->
<g id="node25" class="node">
<title>Node25</title>
<g id="a_node25"><a xlink:title=" ">
<polygon fill="none" stroke="#bfbfbf" points="0,-185 0,-204 58,-204 58,-185 0,-185"/>
<text text-anchor="middle" x="29" y="-192" font-family="Helvetica,sans-Serif" font-size="10.00">exception</text>
</a>
</g>
</g>
<!-- Node5&#45;&gt;Node25 -->
<g id="edge45" class="edge">
<title>Node5&#45;&gt;Node25</title>
<path fill="none" stroke="midnightblue" d="M525.67,-461.74C411.84,-458.9 152.14,-434.53 33,-277 19.41,-259.04 21.16,-231.95 24.44,-214"/>
<polygon fill="midnightblue" stroke="midnightblue" points="27.87,-214.68 26.55,-204.17 21.03,-213.21 27.87,-214.68"/>
</g>
<!-- Node27 -->
<g id="node27" class="node">
<title>Node27</title>
<g id="a_node27"><a xlink:href="atomic__counter_8hpp.html" target="_top" xlink:title=" ">
<polygon fill="none" stroke="black" points="788,-380.5 788,-410.5 892,-410.5 892,-380.5 788,-380.5"/>
<text text-anchor="start" x="796" y="-398.5" font-family="Helvetica,sans-Serif" font-size="10.00">yaclib/util/detail</text>
<text text-anchor="middle" x="840" y="-387.5" font-family="Helvetica,sans-Serif" font-size="10.00">/atomic_counter.hpp</text>
</a>
</g>
</g>
<!-- Node5&#45;&gt;Node27 -->
<g id="edge39" class="edge">
<title>Node5&#45;&gt;Node27</title>
<path fill="none" stroke="midnightblue" d="M636.24,-447.64C677.87,-437.19 734.95,-422.86 778.11,-412.03"/>
<polygon fill="midnightblue" stroke="midnightblue" points="779.08,-415.4 787.93,-409.57 777.38,-408.61 779.08,-415.4"/>
</g>
<!-- Node7 -->
<g id="node7" class="node">
<title>Node7</title>
<g id="a_node7"><a xlink:href="base__core_8hpp.html" target="_top" xlink:title=" ">
<polygon fill="none" stroke="black" points="657,-313.5 657,-343.5 753,-343.5 753,-313.5 657,-313.5"/>
<text text-anchor="start" x="665" y="-331.5" font-family="Helvetica,sans-Serif" font-size="10.00">yaclib/async/detail</text>
<text text-anchor="middle" x="705" y="-320.5" font-family="Helvetica,sans-Serif" font-size="10.00">/base_core.hpp</text>
</a>
</g>
</g>
<!-- Node6&#45;&gt;Node7 -->
<g id="edge6" class="edge">
<title>Node6&#45;&gt;Node7</title>
<path fill="none" stroke="midnightblue" d="M630.61,-380.4C643.93,-371.28 661.46,-359.29 676.16,-349.24"/>
<polygon fill="midnightblue" stroke="midnightblue" points="678.15,-352.11 684.43,-343.58 674.2,-346.33 678.15,-352.11"/>
</g>
<!-- Node8 -->
<g id="node8" class="node">
<title>Node8</title>
<g id="a_node8"><a xlink:href="inline__core_8hpp.html" target="_top" xlink:title=" ">
<polygon fill="none" stroke="black" points="543,-246.5 543,-276.5 639,-276.5 639,-246.5 543,-246.5"/>
<text text-anchor="start" x="551" y="-264.5" font-family="Helvetica,sans-Serif" font-size="10.00">yaclib/async/detail</text>
<text text-anchor="middle" x="591" y="-253.5" font-family="Helvetica,sans-Serif" font-size="10.00">/inline_core.hpp</text>
</a>
</g>
</g>
<!-- Node6&#45;&gt;Node8 -->
<g id="edge25" class="edge">
<title>Node6&#45;&gt;Node8</title>
<path fill="none" stroke="midnightblue" d="M607.97,-380.37C604.74,-357.94 598.4,-313.92 594.45,-286.49"/>
<polygon fill="midnightblue" stroke="midnightblue" points="597.91,-285.92 593.02,-276.52 590.98,-286.92 597.91,-285.92"/>
</g>
<!-- Node14 -->
<g id="node14" class="node">
<title>Node14</title>
<g id="a_node14"><a xlink:title=" ">
<polygon fill="none" stroke="#bfbfbf" points="761.5,-56.5 761.5,-75.5 800.5,-75.5 800.5,-56.5 761.5,-56.5"/>
<text text-anchor="middle" x="781" y="-63.5" font-family="Helvetica,sans-Serif" font-size="10.00">utility</text>
</a>
</g>
</g>
<!-- Node6&#45;&gt;Node14 -->
<g id="edge37" class="edge">
<title>Node6&#45;&gt;Node14</title>
<path fill="none" stroke="midnightblue" d="M658.11,-390.68C691.84,-385.43 735.48,-373.07 762,-344 787.07,-316.52 781,-299.69 781,-262.5 781,-262.5 781,-262.5 781,-193.5 781,-155.2 781,-110.38 781,-85.7"/>
<polygon fill="midnightblue" stroke="midnightblue" points="784.5,-85.59 781,-75.59 777.5,-85.59 784.5,-85.59"/>
</g>
<!-- Node6&#45;&gt;Node16 -->
<g id="edge26" class="edge">
<title>Node6&#45;&gt;Node16</title>
<path fill="none" stroke="midnightblue" d="M616.25,-380.15C629.97,-347.69 660.57,-269.61 648,-246 641.06,-232.95 629.08,-222.67 616.7,-214.89"/>
<polygon fill="midnightblue" stroke="midnightblue" points="618.1,-211.65 607.69,-209.66 614.58,-217.7 618.1,-211.65"/>
</g>
<!-- Node21 -->
<g id="node21" class="node">
<title>Node21</title>
<g id="a_node21"><a xlink:href="result_8hpp.html" target="_top" xlink:title=" ">
<polygon fill="none" stroke="black" points="315,-319 315,-338 417,-338 417,-319 315,-319"/>
<text text-anchor="middle" x="366" y="-326" font-family="Helvetica,sans-Serif" font-size="10.00">yaclib/util/result.hpp</text>
</a>
</g>
</g>
<!-- Node6&#45;&gt;Node21 -->
<g id="edge27" class="edge">
<title>Node6&#45;&gt;Node21</title>
<path fill="none" stroke="midnightblue" d="M561.79,-381.66C516.92,-369.7 450.71,-352.07 407.96,-340.68"/>
<polygon fill="midnightblue" stroke="midnightblue" points="408.72,-337.26 398.16,-338.07 406.92,-344.02 408.72,-337.26"/>
</g>
<!-- Node7&#45;&gt;Node8 -->
<g id="edge7" class="edge">
<title>Node7&#45;&gt;Node8</title>
<path fill="none" stroke="midnightblue" d="M680.26,-313.4C663.98,-304.11 642.46,-291.84 624.63,-281.67"/>
<polygon fill="midnightblue" stroke="midnightblue" points="626.11,-278.49 615.69,-276.58 622.64,-284.57 626.11,-278.49"/>
</g>
<!-- Node12 -->
<g id="node12" class="node">
<title>Node12</title>
<g id="a_node12"><a xlink:href="ref_8hpp.html" target="_top" xlink:title=" ">
<polygon fill="none" stroke="black" points="528.5,-56.5 528.5,-75.5 617.5,-75.5 617.5,-56.5 528.5,-56.5"/>
<text text-anchor="middle" x="573" y="-63.5" font-family="Helvetica,sans-Serif" font-size="10.00">yaclib/util/ref.hpp</text>
</a>
</g>
</g>
<!-- Node7&#45;&gt;Node12 -->
<g id="edge23" class="edge">
<title>Node7&#45;&gt;Node12</title>
<path fill="none" stroke="midnightblue" d="M707.16,-313.21C709.1,-296.58 710.62,-268.52 703,-246 699.83,-236.64 617.67,-126.55 585.63,-83.81"/>
<polygon fill="midnightblue" stroke="midnightblue" points="588.24,-81.46 579.43,-75.56 582.64,-85.66 588.24,-81.46"/>
</g>
<!-- Node7&#45;&gt;Node15 -->
<g id="edge14" class="edge">
<title>Node7&#45;&gt;Node15</title>
<path fill="none" stroke="midnightblue" d="M656.8,-316.62C603.39,-304.57 517.82,-285.25 464.64,-273.25"/>
<polygon fill="midnightblue" stroke="midnightblue" points="465.3,-269.81 454.78,-271.03 463.76,-276.64 465.3,-269.81"/>
</g>
<!-- Node7&#45;&gt;Node16 -->
<g id="edge22" class="edge">
<title>Node7&#45;&gt;Node16</title>
<path fill="none" stroke="midnightblue" d="M704.31,-313.46C702.74,-295.77 697.63,-265.35 681,-246 667.9,-230.76 649.21,-219.82 631.05,-212.1"/>
<polygon fill="midnightblue" stroke="midnightblue" points="632.21,-208.8 621.63,-208.36 629.63,-215.31 632.21,-208.8"/>
</g>
<!-- Node20 -->
<g id="node20" class="node">
<title>Node20</title>
<g id="a_node20"><a xlink:title=" ">
<polygon fill="none" stroke="#bfbfbf" points="809,-252 809,-271 901,-271 901,-252 809,-252"/>
<text text-anchor="middle" x="855" y="-259" font-family="Helvetica,sans-Serif" font-size="10.00">yaclib_std/atomic</text>
</a>
</g>
</g>
<!-- Node7&#45;&gt;Node20 -->
<g id="edge24" class="edge">
<title>Node7&#45;&gt;Node20</title>
<path fill="none" stroke="midnightblue" d="M737.55,-313.4C763.87,-301.99 800.59,-286.08 825.93,-275.1"/>
<polygon fill="midnightblue" stroke="midnightblue" points="827.58,-278.19 835.37,-271.01 824.8,-271.77 827.58,-278.19"/>
</g>
<!-- Node8&#45;&gt;Node9 -->
<g id="edge8" class="edge">
<title>Node8&#45;&gt;Node9</title>
<path fill="none" stroke="midnightblue" d="M547.6,-246.4C511.58,-234.69 460.94,-218.23 427.1,-207.23"/>
<polygon fill="midnightblue" stroke="midnightblue" points="427.77,-203.77 417.18,-204.01 425.6,-210.43 427.77,-203.77"/>
</g>
<!-- Node10 -->
<g id="node10" class="node">
<title>Node10</title>
<g id="a_node10"><a xlink:href="node_8hpp.html" target="_top" xlink:title=" ">
<polygon fill="none" stroke="black" points="307.5,-112.5 307.5,-142.5 390.5,-142.5 390.5,-112.5 307.5,-112.5"/>
<text text-anchor="start" x="315.5" y="-130.5" font-family="Helvetica,sans-Serif" font-size="10.00">yaclib/util/detail</text>
<text text-anchor="middle" x="349" y="-119.5" font-family="Helvetica,sans-Serif" font-size="10.00">/node.hpp</text>
</a>
</g>
</g>
<!-- Node9&#45;&gt;Node10 -->
<g id="edge9" class="edge">
<title>Node9&#45;&gt;Node10</title>
<path fill="none" stroke="midnightblue" d="M385.34,-184.73C379.77,-176.12 371.04,-162.61 363.53,-150.99"/>
<polygon fill="midnightblue" stroke="midnightblue" points="366.47,-149.09 358.1,-142.59 360.59,-152.89 366.47,-149.09"/>
</g>
<!-- Node11 -->
<g id="node11" class="node">
<title>Node11</title>
<g id="a_node11"><a xlink:href="func_8hpp.html" target="_top" xlink:title=" ">
<polygon fill="none" stroke="black" points="447.5,-118 447.5,-137 544.5,-137 544.5,-118 447.5,-118"/>
<text text-anchor="middle" x="496" y="-125" font-family="Helvetica,sans-Serif" font-size="10.00">yaclib/util/func.hpp</text>
</a>
</g>
</g>
<!-- Node9&#45;&gt;Node11 -->
<g id="edge10" class="edge">
<title>Node9&#45;&gt;Node11</title>
<path fill="none" stroke="midnightblue" d="M405.16,-184.73C422.71,-173.87 452.84,-155.22 473.56,-142.39"/>
<polygon fill="midnightblue" stroke="midnightblue" points="475.4,-145.37 482.06,-137.13 471.72,-139.41 475.4,-145.37"/>
</g>
<!-- Node11&#45;&gt;Node12 -->
<g id="edge11" class="edge">
<title>Node11&#45;&gt;Node12</title>
<path fill="none" stroke="midnightblue" d="M507.03,-117.98C519.27,-108.52 539.23,-93.1 553.99,-81.69"/>
<polygon fill="midnightblue" stroke="midnightblue" points="556.22,-84.39 561.99,-75.51 551.94,-78.85 556.22,-84.39"/>
</g>
<!-- Node13 -->
<g id="node13" class="node">
<title>Node13</title>
<g id="a_node13"><a xlink:title=" ">
<polygon fill="none" stroke="#bfbfbf" points="317,-56.5 317,-75.5 379,-75.5 379,-56.5 317,-56.5"/>
<text text-anchor="middle" x="348" y="-63.5" font-family="Helvetica,sans-Serif" font-size="10.00">type_traits</text>
</a>
</g>
</g>
<!-- Node11&#45;&gt;Node13 -->
<g id="edge12" class="edge">
<title>Node11&#45;&gt;Node13</title>
<path fill="none" stroke="midnightblue" d="M474.8,-117.98C449.63,-107.86 407.46,-90.9 378.72,-79.35"/>
<polygon fill="midnightblue" stroke="midnightblue" points="379.75,-75.99 369.17,-75.51 377.14,-82.49 379.75,-75.99"/>
</g>
<!-- Node11&#45;&gt;Node14 -->
<g id="edge13" class="edge">
<title>Node11&#45;&gt;Node14</title>
<path fill="none" stroke="midnightblue" d="M539.81,-117.97C589.26,-108.24 672.05,-91.65 743,-76 745.7,-75.4 748.5,-74.77 751.31,-74.12"/>
<polygon fill="midnightblue" stroke="midnightblue" points="752.36,-77.47 761.3,-71.79 750.77,-70.66 752.36,-77.47"/>
</g>
<!-- Node15&#45;&gt;Node9 -->
<g id="edge15" class="edge">
<title>Node15&#45;&gt;Node9</title>
<path fill="none" stroke="midnightblue" d="M413.49,-251.73C409.6,-241.99 403.19,-225.98 398.21,-213.53"/>
<polygon fill="midnightblue" stroke="midnightblue" points="401.41,-212.11 394.45,-204.13 394.92,-214.71 401.41,-212.11"/>
</g>
<!-- Node15&#45;&gt;Node16 -->
<g id="edge16" class="edge">
<title>Node15&#45;&gt;Node16</title>
<path fill="none" stroke="midnightblue" d="M437.72,-251.87C461.12,-242.12 499.87,-225.97 529.92,-213.45"/>
<polygon fill="midnightblue" stroke="midnightblue" points="531.45,-216.61 539.33,-209.53 528.76,-210.14 531.45,-216.61"/>
</g>
<!-- Node16&#45;&gt;Node12 -->
<g id="edge17" class="edge">
<title>Node16&#45;&gt;Node12</title>
<path fill="none" stroke="midnightblue" d="M573,-179.48C573,-156.72 573,-111.7 573,-86.06"/>
<polygon fill="midnightblue" stroke="midnightblue" points="576.5,-85.79 573,-75.79 569.5,-85.79 576.5,-85.79"/>
</g>
<!-- Node16&#45;&gt;Node13 -->
<g id="edge18" class="edge">
<title>Node16&#45;&gt;Node13</title>
<path fill="none" stroke="midnightblue" d="M524.33,-179.78C497.81,-171.21 464.99,-158.8 438,-143 430.11,-138.38 389.29,-103.1 365.42,-82.27"/>
<polygon fill="midnightblue" stroke="midnightblue" points="367.6,-79.52 357.77,-75.58 362.99,-84.79 367.6,-79.52"/>
</g>
<!-- Node17 -->
<g id="node17" class="node">
<title>Node17</title>
<g id="a_node17"><a xlink:href="intrusive__ptr__impl_8hpp.html" target="_top" xlink:title=" ">
<polygon fill="none" stroke="black" points="639,-112.5 639,-142.5 753,-142.5 753,-112.5 639,-112.5"/>
<text text-anchor="start" x="647" y="-130.5" font-family="Helvetica,sans-Serif" font-size="10.00">yaclib/util/detail</text>
<text text-anchor="middle" x="696" y="-119.5" font-family="Helvetica,sans-Serif" font-size="10.00">/intrusive_ptr_impl.hpp</text>
</a>
</g>
</g>
<!-- Node16&#45;&gt;Node17 -->
<g id="edge19" class="edge">
<title>Node16&#45;&gt;Node17</title>
<path fill="none" stroke="midnightblue" d="M599.69,-179.4C617.5,-169.98 641.12,-157.5 660.51,-147.26"/>
<polygon fill="midnightblue" stroke="midnightblue" points="662.16,-150.34 669.36,-142.58 658.89,-144.15 662.16,-150.34"/>
</g>
<!-- Node18 -->
<g id="node18" class="node">
<title>Node18</title>
<g id="a_node18"><a xlink:href="log_8hpp.html" target="_top" xlink:title=" ">
<polygon fill="none" stroke="black" points="658.5,-56.5 658.5,-75.5 733.5,-75.5 733.5,-56.5 658.5,-56.5"/>
<text text-anchor="middle" x="696" y="-63.5" font-family="Helvetica,sans-Serif" font-size="10.00">yaclib/log.hpp</text>
</a>
</g>
</g>
<!-- Node17&#45;&gt;Node18 -->
<g id="edge20" class="edge">
<title>Node17&#45;&gt;Node18</title>
<path fill="none" stroke="midnightblue" d="M696,-112.4C696,-104.47 696,-94.46 696,-85.86"/>
<polygon fill="midnightblue" stroke="midnightblue" points="699.5,-85.66 696,-75.66 692.5,-85.66 699.5,-85.66"/>
</g>
<!-- Node19 -->
<g id="node19" class="node">
<title>Node19</title>
<g id="a_node19"><a xlink:title=" ">
<polygon fill="none" stroke="#bfbfbf" points="663,-0.5 663,-19.5 729,-19.5 729,-0.5 663,-0.5"/>
<text text-anchor="middle" x="696" y="-7.5" font-family="Helvetica,sans-Serif" font-size="10.00">string_view</text>
</a>
</g>
</g>
<!-- Node18&#45;&gt;Node19 -->
<g id="edge21" class="edge">
<title>Node18&#45;&gt;Node19</title>
<path fill="none" stroke="midnightblue" d="M696,-56.08C696,-49.01 696,-38.86 696,-29.99"/>
<polygon fill="midnightblue" stroke="midnightblue" points="699.5,-29.75 696,-19.75 692.5,-29.75 699.5,-29.75"/>
</g>
<!-- Node22 -->
<g id="node22" class="node">
<title>Node22</title>
<g id="a_node22"><a xlink:href="type__traits_8hpp.html" target="_top" xlink:title=" ">
<polygon fill="none" stroke="black" points="65.5,-252 65.5,-271 188.5,-271 188.5,-252 65.5,-252"/>
<text text-anchor="middle" x="127" y="-259" font-family="Helvetica,sans-Serif" font-size="10.00">yaclib/util/type_traits.hpp</text>
</a>
</g>
</g>
<!-- Node21&#45;&gt;Node22 -->
<g id="edge28" class="edge">
<title>Node21&#45;&gt;Node22</title>
<path fill="none" stroke="midnightblue" d="M334.26,-318.87C291.56,-307.25 215.52,-286.58 168.38,-273.75"/>
<polygon fill="midnightblue" stroke="midnightblue" points="169.06,-270.31 158.49,-271.06 167.22,-277.07 169.06,-270.31"/>
</g>
<!-- Node21&#45;&gt;Node25 -->
<g id="edge35" class="edge">
<title>Node21&#45;&gt;Node25</title>
<path fill="none" stroke="midnightblue" d="M330,-318.97C320.59,-316.88 310.44,-314.74 301,-313 246.89,-303 98.15,-312.38 56,-277 37.57,-261.53 31.65,-233.17 29.79,-214.32"/>
<polygon fill="midnightblue" stroke="midnightblue" points="33.27,-213.99 29.09,-204.25 26.29,-214.47 33.27,-213.99"/>
</g>
<!-- Node26 -->
<g id="node26" class="node">
<title>Node26</title>
<g id="a_node26"><a xlink:title=" ">
<polygon fill="none" stroke="#bfbfbf" points="283,-252 283,-271 329,-271 329,-252 283,-252"/>
<text text-anchor="middle" x="306" y="-259" font-family="Helvetica,sans-Serif" font-size="10.00">variant</text>
</a>
</g>
</g>
<!-- Node21&#45;&gt;Node26 -->
<g id="edge36" class="edge">
<title>Node21&#45;&gt;Node26</title>
<path fill="none" stroke="midnightblue" d="M357.91,-318.73C348.46,-308.5 332.64,-291.36 320.95,-278.69"/>
<polygon fill="midnightblue" stroke="midnightblue" points="323.32,-276.1 313.96,-271.13 318.17,-280.85 323.32,-276.1"/>
</g>
<!-- Node22&#45;&gt;Node13 -->
<g id="edge34" class="edge">
<title>Node22&#45;&gt;Node13</title>
<path fill="none" stroke="midnightblue" d="M144.74,-251.86C162.48,-242.77 190.06,-227.39 211,-210 255.81,-172.79 256.96,-153.32 298,-112 308.18,-101.75 320.21,-90.89 329.91,-82.41"/>
<polygon fill="midnightblue" stroke="midnightblue" points="332.46,-84.83 337.73,-75.65 327.88,-79.54 332.46,-84.83"/>
</g>
<!-- Node23 -->
<g id="node23" class="node">
<title>Node23</title>
<g id="a_node23"><a xlink:href="fwd_8hpp.html" target="_top" xlink:title=" ">
<polygon fill="none" stroke="black" points="168,-118 168,-137 246,-137 246,-118 168,-118"/>
<text text-anchor="middle" x="207" y="-125" font-family="Helvetica,sans-Serif" font-size="10.00">yaclib/fwd.hpp</text>
</a>
</g>
</g>
<!-- Node22&#45;&gt;Node23 -->
<g id="edge29" class="edge">
<title>Node22&#45;&gt;Node23</title>
<path fill="none" stroke="midnightblue" d="M143.69,-251.86C158.52,-243.29 179.56,-228.72 191,-210 202.78,-190.72 206.13,-164.51 206.96,-147.08"/>
<polygon fill="midnightblue" stroke="midnightblue" points="210.46,-147.13 207.21,-137.05 203.46,-146.96 210.46,-147.13"/>
</g>
<!-- Node24 -->
<g id="node24" class="node">
<title>Node24</title>
<g id="a_node24"><a xlink:href="type__traits__impl_8hpp.html" target="_top" xlink:title=" ">
<polygon fill="none" stroke="black" points="76,-179.5 76,-209.5 182,-209.5 182,-179.5 76,-179.5"/>
<text text-anchor="start" x="84" y="-197.5" font-family="Helvetica,sans-Serif" font-size="10.00">yaclib/util/detail</text>
<text text-anchor="middle" x="129" y="-186.5" font-family="Helvetica,sans-Serif" font-size="10.00">/type_traits_impl.hpp</text>
</a>
</g>
</g>
<!-- Node22&#45;&gt;Node24 -->
<g id="edge30" class="edge">
<title>Node22&#45;&gt;Node24</title>
<path fill="none" stroke="midnightblue" d="M127.27,-251.73C127.52,-243.54 127.91,-230.92 128.25,-219.71"/>
<polygon fill="midnightblue" stroke="midnightblue" points="131.76,-219.69 128.57,-209.59 124.76,-219.48 131.76,-219.69"/>
</g>
<!-- Node22&#45;&gt;Node25 -->
<g id="edge33" class="edge">
<title>Node22&#45;&gt;Node25</title>
<path fill="none" stroke="midnightblue" d="M113.78,-251.73C97.55,-240.96 69.78,-222.55 50.47,-209.74"/>
<polygon fill="midnightblue" stroke="midnightblue" points="52.28,-206.74 42.01,-204.13 48.41,-212.57 52.28,-206.74"/>
</g>
<!-- Node24&#45;&gt;Node13 -->
<g id="edge32" class="edge">
<title>Node24&#45;&gt;Node13</title>
<path fill="none" stroke="midnightblue" d="M130.18,-179.45C132.49,-161.17 139.27,-129.52 159,-112 180.61,-92.82 257.93,-79.16 306.73,-72.22"/>
<polygon fill="midnightblue" stroke="midnightblue" points="307.25,-75.68 316.68,-70.84 306.29,-68.75 307.25,-75.68"/>
</g>
<!-- Node24&#45;&gt;Node23 -->
<g id="edge31" class="edge">
<title>Node24&#45;&gt;Node23</title>
<path fill="none" stroke="midnightblue" d="M145.92,-179.4C158.57,-168.86 175.83,-154.48 188.77,-143.69"/>
<polygon fill="midnightblue" stroke="midnightblue" points="191.12,-146.29 196.57,-137.19 186.64,-140.91 191.12,-146.29"/>
</g>
<!-- Node27&#45;&gt;Node4 -->
<g id="edge40" class="edge">
<title>Node27&#45;&gt;Node4</title>
<path fill="none" stroke="midnightblue" d="M874.93,-380.4C903.43,-368.89 943.29,-352.8 970.52,-341.81"/>
<polygon fill="midnightblue" stroke="midnightblue" points="971.97,-345 979.93,-338.01 969.35,-338.51 971.97,-345"/>
</g>
<!-- Node27&#45;&gt;Node14 -->
<g id="edge42" class="edge">
<title>Node27&#45;&gt;Node14</title>
<path fill="none" stroke="midnightblue" d="M868.43,-380.4C882.96,-371.8 899.7,-359.47 910,-344 930.61,-313.04 929,-299.69 929,-262.5 929,-262.5 929,-262.5 929,-193.5 929,-131.57 853.18,-93.49 810.08,-76.84"/>
<polygon fill="midnightblue" stroke="midnightblue" points="811.25,-73.54 800.65,-73.34 808.81,-80.1 811.25,-73.54"/>
</g>
<!-- Node27&#45;&gt;Node20 -->
<g id="edge43" class="edge">
<title>Node27&#45;&gt;Node20</title>
<path fill="none" stroke="midnightblue" d="M839.68,-380.29C839.51,-363.97 839.82,-336.43 843,-313 844.45,-302.35 847.15,-290.65 849.63,-281.2"/>
<polygon fill="midnightblue" stroke="midnightblue" points="853.06,-281.91 852.34,-271.34 846.31,-280.05 853.06,-281.91"/>
</g>
<!-- Node28 -->
<g id="node28" class="node">
<title>Node28</title>
<g id="a_node28"><a xlink:title=" ">
<polygon fill="none" stroke="#bfbfbf" points="851.5,-319 851.5,-338 900.5,-338 900.5,-319 851.5,-319"/>
<text text-anchor="middle" x="876" y="-326" font-family="Helvetica,sans-Serif" font-size="10.00">cstddef</text>
</a>
</g>
</g>
<!-- Node27&#45;&gt;Node28 -->
<g id="edge41" class="edge">
<title>Node27&#45;&gt;Node28</title>
<path fill="none" stroke="midnightblue" d="M847.81,-380.4C853.2,-370.66 860.41,-357.65 866.19,-347.21"/>
<polygon fill="midnightblue" stroke="midnightblue" points="869.4,-348.64 871.18,-338.19 863.28,-345.25 869.4,-348.64"/>
</g>
</g>
</svg>
