<?xml version="1.0" encoding="UTF-8" standalone="no"?>
<!DOCTYPE svg PUBLIC "-//W3C//DTD SVG 1.1//EN"
 "http://www.w3.org/Graphics/SVG/1.1/DTD/svg11.dtd">
<!-- Generated by graphviz version 3.0.0 (20220413.0106)
 -->
<!-- Title: include/yaclib/coroutine/detail/on_awaiter.hpp Pages: 1 -->
<svg width="1129pt" height="553pt"
 viewBox="0.00 0.00 1129.00 553.00" xmlns="http://www.w3.org/2000/svg" xmlns:xlink="http://www.w3.org/1999/xlink">
<g id="graph0" class="graph" transform="scale(1 1) rotate(0) translate(4 549)">
<title>include/yaclib/coroutine/detail/on_awaiter.hpp</title>
<!-- Node1 -->
<g id="node1" class="node">
<title>Node1</title>
<g id="a_node1"><a xlink:title=" ">
<polygon fill="#bfbfbf" stroke="black" points="564.5,-514.5 564.5,-544.5 682.5,-544.5 682.5,-514.5 564.5,-514.5"/>
<text text-anchor="start" x="572.5" y="-532.5" font-family="Helvetica,sans-Serif" font-size="10.00">include/yaclib/coroutine</text>
<text text-anchor="middle" x="623.5" y="-521.5" font-family="Helvetica,sans-Serif" font-size="10.00">/detail/on_awaiter.hpp</text>
</a>
</g>
</g>
<!-- Node2 -->
<g id="node2" class="node">
<title>Node2</title>
<g id="a_node2"><a xlink:href="coroutine_8hpp.html" target="_top" xlink:title=" ">
<polygon fill="none" stroke="black" points="0,-386 0,-405 145,-405 145,-386 0,-386"/>
<text text-anchor="middle" x="72.5" y="-393" font-family="Helvetica,sans-Serif" font-size="10.00">yaclib/coroutine/coroutine.hpp</text>
</a>
</g>
</g>
<!-- Node1&#45;&gt;Node2 -->
<g id="edge1" class="edge">
<title>Node1&#45;&gt;Node2</title>
<path fill="none" stroke="midnightblue" d="M564.37,-522.57C499.27,-515.28 391.86,-500.95 301.5,-478 228.08,-459.35 145.02,-426.78 101.95,-408.98"/>
<polygon fill="midnightblue" stroke="midnightblue" points="103.21,-405.72 92.63,-405.11 100.52,-412.18 103.21,-405.72"/>
</g>
<!-- Node4 -->
<g id="node4" class="node">
<title>Node4</title>
<g id="a_node4"><a xlink:href="promise__type_8hpp.html" target="_top" xlink:title=" ">
<polygon fill="none" stroke="black" points="310.5,-447.5 310.5,-477.5 420.5,-477.5 420.5,-447.5 310.5,-447.5"/>
<text text-anchor="start" x="318.5" y="-465.5" font-family="Helvetica,sans-Serif" font-size="10.00">yaclib/coroutine/detail</text>
<text text-anchor="middle" x="365.5" y="-454.5" font-family="Helvetica,sans-Serif" font-size="10.00">/promise_type.hpp</text>
</a>
</g>
</g>
<!-- Node1&#45;&gt;Node4 -->
<g id="edge3" class="edge">
<title>Node1&#45;&gt;Node4</title>
<path fill="none" stroke="midnightblue" d="M567.84,-514.48C527.52,-504.32 472.88,-490.55 430.55,-479.89"/>
<polygon fill="midnightblue" stroke="midnightblue" points="431.17,-476.44 420.62,-477.39 429.46,-483.22 431.17,-476.44"/>
</g>
<!-- Node8 -->
<g id="node8" class="node">
<title>Node8</title>
<g id="a_node8"><a xlink:href="job_8hpp.html" target="_top" xlink:title=" ">
<polygon fill="none" stroke="black" points="674,-185 674,-204 789,-204 789,-185 674,-185"/>
<text text-anchor="middle" x="731.5" y="-192" font-family="Helvetica,sans-Serif" font-size="10.00">yaclib/executor/job.hpp</text>
</a>
</g>
</g>
<!-- Node1&#45;&gt;Node8 -->
<g id="edge46" class="edge">
<title>Node1&#45;&gt;Node8</title>
<path fill="none" stroke="midnightblue" d="M682.59,-518.52C781.41,-500.14 969.5,-457.18 969.5,-396.5 969.5,-396.5 969.5,-396.5 969.5,-327.5 969.5,-290.31 976.83,-272.27 950.5,-246 939.12,-234.64 851.61,-216.98 790.72,-205.83"/>
<polygon fill="midnightblue" stroke="midnightblue" points="791.28,-202.38 780.82,-204.03 790.03,-209.27 791.28,-202.38"/>
</g>
<!-- Node14 -->
<g id="node14" class="node">
<title>Node14</title>
<g id="a_node14"><a xlink:href="executor_8hpp.html" target="_top" xlink:title=" ">
<polygon fill="none" stroke="black" points="662,-252 662,-271 801,-271 801,-252 662,-252"/>
<text text-anchor="middle" x="731.5" y="-259" font-family="Helvetica,sans-Serif" font-size="10.00">yaclib/executor/executor.hpp</text>
</a>
</g>
</g>
<!-- Node1&#45;&gt;Node14 -->
<g id="edge45" class="edge">
<title>Node1&#45;&gt;Node14</title>
<path fill="none" stroke="midnightblue" d="M629.31,-514.2C647.59,-469.16 703.98,-330.29 724.19,-280.5"/>
<polygon fill="midnightblue" stroke="midnightblue" points="727.51,-281.63 728.03,-271.05 721.02,-279 727.51,-281.63"/>
</g>
<!-- Node3 -->
<g id="node3" class="node">
<title>Node3</title>
<g id="a_node3"><a xlink:title=" ">
<polygon fill="none" stroke="#bfbfbf" points="32.5,-319 32.5,-338 120.5,-338 120.5,-319 32.5,-319"/>
<text text-anchor="middle" x="76.5" y="-326" font-family="Helvetica,sans-Serif" font-size="10.00">yaclib/config.hpp</text>
</a>
</g>
</g>
<!-- Node2&#45;&gt;Node3 -->
<g id="edge2" class="edge">
<title>Node2&#45;&gt;Node3</title>
<path fill="none" stroke="midnightblue" d="M73.04,-385.73C73.63,-376.18 74.59,-360.62 75.34,-348.28"/>
<polygon fill="midnightblue" stroke="midnightblue" points="78.85,-348.32 75.97,-338.13 71.86,-347.89 78.85,-348.32"/>
</g>
<!-- Node4&#45;&gt;Node2 -->
<g id="edge37" class="edge">
<title>Node4&#45;&gt;Node2</title>
<path fill="none" stroke="midnightblue" d="M310.39,-449.27C255.84,-437.17 173.14,-418.83 121.02,-407.26"/>
<polygon fill="midnightblue" stroke="midnightblue" points="121.53,-403.79 111.01,-405.04 120.02,-410.63 121.53,-403.79"/>
</g>
<!-- Node5 -->
<g id="node5" class="node">
<title>Node5</title>
<g id="a_node5"><a xlink:href="result__core_8hpp.html" target="_top" xlink:title=" ">
<polygon fill="none" stroke="black" points="378.5,-380.5 378.5,-410.5 474.5,-410.5 474.5,-380.5 378.5,-380.5"/>
<text text-anchor="start" x="386.5" y="-398.5" font-family="Helvetica,sans-Serif" font-size="10.00">yaclib/async/detail</text>
<text text-anchor="middle" x="426.5" y="-387.5" font-family="Helvetica,sans-Serif" font-size="10.00">/result_core.hpp</text>
</a>
</g>
</g>
<!-- Node4&#45;&gt;Node5 -->
<g id="edge4" class="edge">
<title>Node4&#45;&gt;Node5</title>
<path fill="none" stroke="midnightblue" d="M378.74,-447.4C386.81,-438.79 397.29,-427.63 406.37,-417.94"/>
<polygon fill="midnightblue" stroke="midnightblue" points="409,-420.26 413.29,-410.58 403.89,-415.47 409,-420.26"/>
</g>
<!-- Node15 -->
<g id="node15" class="node">
<title>Node15</title>
<g id="a_node15"><a xlink:href="intrusive__ptr_8hpp.html" target="_top" xlink:title=" ">
<polygon fill="none" stroke="black" points="394,-179.5 394,-209.5 491,-209.5 491,-179.5 394,-179.5"/>
<text text-anchor="start" x="402" y="-197.5" font-family="Helvetica,sans-Serif" font-size="10.00">yaclib/util/intrusive</text>
<text text-anchor="middle" x="442.5" y="-186.5" font-family="Helvetica,sans-Serif" font-size="10.00">_ptr.hpp</text>
</a>
</g>
</g>
<!-- Node4&#45;&gt;Node15 -->
<g id="edge43" class="edge">
<title>Node4&#45;&gt;Node15</title>
<path fill="none" stroke="midnightblue" d="M358.32,-447.33C340.92,-410.83 300.83,-311.81 341.5,-246 351.28,-230.17 367.7,-219.14 384.48,-211.52"/>
<polygon fill="midnightblue" stroke="midnightblue" points="385.92,-214.71 393.8,-207.63 383.23,-208.25 385.92,-214.71"/>
</g>
<!-- Node24 -->
<g id="node24" class="node">
<title>Node24</title>
<g id="a_node24"><a xlink:title=" ">
<polygon fill="none" stroke="#bfbfbf" points="824.5,-185 824.5,-204 882.5,-204 882.5,-185 824.5,-185"/>
<text text-anchor="middle" x="853.5" y="-192" font-family="Helvetica,sans-Serif" font-size="10.00">exception</text>
</a>
</g>
</g>
<!-- Node4&#45;&gt;Node24 -->
<g id="edge44" class="edge">
<title>Node4&#45;&gt;Node24</title>
<path fill="none" stroke="midnightblue" d="M420.6,-451.32C511.73,-431.97 695.23,-382.08 810.5,-277 829.39,-259.78 841.45,-232.32 847.84,-214.1"/>
<polygon fill="midnightblue" stroke="midnightblue" points="851.25,-214.95 851.04,-204.35 844.6,-212.77 851.25,-214.95"/>
</g>
<!-- Node26 -->
<g id="node26" class="node">
<title>Node26</title>
<g id="a_node26"><a xlink:href="atomic__counter_8hpp.html" target="_top" xlink:title=" ">
<polygon fill="none" stroke="black" points="163.5,-380.5 163.5,-410.5 267.5,-410.5 267.5,-380.5 163.5,-380.5"/>
<text text-anchor="start" x="171.5" y="-398.5" font-family="Helvetica,sans-Serif" font-size="10.00">yaclib/util/detail</text>
<text text-anchor="middle" x="215.5" y="-387.5" font-family="Helvetica,sans-Serif" font-size="10.00">/atomic_counter.hpp</text>
</a>
</g>
</g>
<!-- Node4&#45;&gt;Node26 -->
<g id="edge38" class="edge">
<title>Node4&#45;&gt;Node26</title>
<path fill="none" stroke="midnightblue" d="M332.95,-447.4C310.74,-437.77 281.12,-424.94 257.19,-414.56"/>
<polygon fill="midnightblue" stroke="midnightblue" points="258.55,-411.34 247.98,-410.58 255.77,-417.76 258.55,-411.34"/>
</g>
<!-- Node6 -->
<g id="node6" class="node">
<title>Node6</title>
<g id="a_node6"><a xlink:href="base__core_8hpp.html" target="_top" xlink:title=" ">
<polygon fill="none" stroke="black" points="443.5,-313.5 443.5,-343.5 539.5,-343.5 539.5,-313.5 443.5,-313.5"/>
<text text-anchor="start" x="451.5" y="-331.5" font-family="Helvetica,sans-Serif" font-size="10.00">yaclib/async/detail</text>
<text text-anchor="middle" x="491.5" y="-320.5" font-family="Helvetica,sans-Serif" font-size="10.00">/base_core.hpp</text>
</a>
</g>
</g>
<!-- Node5&#45;&gt;Node6 -->
<g id="edge5" class="edge">
<title>Node5&#45;&gt;Node6</title>
<path fill="none" stroke="midnightblue" d="M440.6,-380.4C449.29,-371.71 460.6,-360.4 470.34,-350.66"/>
<polygon fill="midnightblue" stroke="midnightblue" points="472.83,-353.12 477.42,-343.58 467.88,-348.17 472.83,-353.12"/>
</g>
<!-- Node7 -->
<g id="node7" class="node">
<title>Node7</title>
<g id="a_node7"><a xlink:href="inline__core_8hpp.html" target="_top" xlink:title=" ">
<polygon fill="none" stroke="black" points="547.5,-246.5 547.5,-276.5 643.5,-276.5 643.5,-246.5 547.5,-246.5"/>
<text text-anchor="start" x="555.5" y="-264.5" font-family="Helvetica,sans-Serif" font-size="10.00">yaclib/async/detail</text>
<text text-anchor="middle" x="595.5" y="-253.5" font-family="Helvetica,sans-Serif" font-size="10.00">/inline_core.hpp</text>
</a>
</g>
</g>
<!-- Node5&#45;&gt;Node7 -->
<g id="edge24" class="edge">
<title>Node5&#45;&gt;Node7</title>
<path fill="none" stroke="midnightblue" d="M474.51,-382.63C498.78,-374.78 527.48,-362.44 548.5,-344 566.34,-328.35 579.07,-304.21 586.74,-286.26"/>
<polygon fill="midnightblue" stroke="midnightblue" points="590.08,-287.35 590.58,-276.77 583.59,-284.73 590.08,-287.35"/>
</g>
<!-- Node13 -->
<g id="node13" class="node">
<title>Node13</title>
<g id="a_node13"><a xlink:title=" ">
<polygon fill="none" stroke="#bfbfbf" points="238,-56.5 238,-75.5 277,-75.5 277,-56.5 238,-56.5"/>
<text text-anchor="middle" x="257.5" y="-63.5" font-family="Helvetica,sans-Serif" font-size="10.00">utility</text>
</a>
</g>
</g>
<!-- Node5&#45;&gt;Node13 -->
<g id="edge36" class="edge">
<title>Node5&#45;&gt;Node13</title>
<path fill="none" stroke="midnightblue" d="M379.87,-380.44C329.85,-362.13 257.5,-324.86 257.5,-262.5 257.5,-262.5 257.5,-262.5 257.5,-193.5 257.5,-155.2 257.5,-110.38 257.5,-85.7"/>
<polygon fill="midnightblue" stroke="midnightblue" points="261,-85.59 257.5,-75.59 254,-85.59 261,-85.59"/>
</g>
<!-- Node5&#45;&gt;Node15 -->
<g id="edge25" class="edge">
<title>Node5&#45;&gt;Node15</title>
<path fill="none" stroke="midnightblue" d="M409.7,-380.25C380.15,-353.39 324.55,-293.73 352.5,-246 360.59,-232.18 374.01,-221.85 388.05,-214.26"/>
<polygon fill="midnightblue" stroke="midnightblue" points="389.92,-217.24 397.32,-209.66 386.8,-210.97 389.92,-217.24"/>
</g>
<!-- Node20 -->
<g id="node20" class="node">
<title>Node20</title>
<g id="a_node20"><a xlink:href="result_8hpp.html" target="_top" xlink:title=" ">
<polygon fill="none" stroke="black" points="839.5,-319 839.5,-338 941.5,-338 941.5,-319 839.5,-319"/>
<text text-anchor="middle" x="890.5" y="-326" font-family="Helvetica,sans-Serif" font-size="10.00">yaclib/util/result.hpp</text>
</a>
</g>
</g>
<!-- Node5&#45;&gt;Node20 -->
<g id="edge26" class="edge">
<title>Node5&#45;&gt;Node20</title>
<path fill="none" stroke="midnightblue" d="M474.84,-387.73C559.86,-375.82 735.95,-351.15 829.31,-338.07"/>
<polygon fill="midnightblue" stroke="midnightblue" points="830.03,-341.5 839.45,-336.65 829.06,-334.57 830.03,-341.5"/>
</g>
<!-- Node6&#45;&gt;Node7 -->
<g id="edge6" class="edge">
<title>Node6&#45;&gt;Node7</title>
<path fill="none" stroke="midnightblue" d="M514.07,-313.4C528.79,-304.2 548.19,-292.07 564.37,-281.95"/>
<polygon fill="midnightblue" stroke="midnightblue" points="566.35,-284.84 572.98,-276.58 562.64,-278.91 566.35,-284.84"/>
</g>
<!-- Node11 -->
<g id="node11" class="node">
<title>Node11</title>
<g id="a_node11"><a xlink:href="ref_8hpp.html" target="_top" xlink:title=" ">
<polygon fill="none" stroke="black" points="475,-56.5 475,-75.5 564,-75.5 564,-56.5 475,-56.5"/>
<text text-anchor="middle" x="519.5" y="-63.5" font-family="Helvetica,sans-Serif" font-size="10.00">yaclib/util/ref.hpp</text>
</a>
</g>
</g>
<!-- Node6&#45;&gt;Node11 -->
<g id="edge22" class="edge">
<title>Node6&#45;&gt;Node11</title>
<path fill="none" stroke="midnightblue" d="M493.01,-313.49C497.72,-269.67 512.18,-135.13 517.5,-85.58"/>
<polygon fill="midnightblue" stroke="midnightblue" points="520.98,-85.94 518.57,-75.63 514.02,-85.19 520.98,-85.94"/>
</g>
<!-- Node6&#45;&gt;Node14 -->
<g id="edge13" class="edge">
<title>Node6&#45;&gt;Node14</title>
<path fill="none" stroke="midnightblue" d="M539.78,-314.42C583.91,-302.47 648.49,-284.98 690.26,-273.67"/>
<polygon fill="midnightblue" stroke="midnightblue" points="691.37,-277 700.1,-271 689.54,-270.24 691.37,-277"/>
</g>
<!-- Node6&#45;&gt;Node15 -->
<g id="edge21" class="edge">
<title>Node6&#45;&gt;Node15</title>
<path fill="none" stroke="midnightblue" d="M486.62,-313.31C480.98,-297.01 471.32,-269.48 462.5,-246 459.16,-237.12 455.36,-227.42 451.97,-218.91"/>
<polygon fill="midnightblue" stroke="midnightblue" points="455.21,-217.58 448.24,-209.6 448.71,-220.18 455.21,-217.58"/>
</g>
<!-- Node19 -->
<g id="node19" class="node">
<title>Node19</title>
<g id="a_node19"><a xlink:title=" ">
<polygon fill="none" stroke="#bfbfbf" points="361.5,-252 361.5,-271 453.5,-271 453.5,-252 361.5,-252"/>
<text text-anchor="middle" x="407.5" y="-259" font-family="Helvetica,sans-Serif" font-size="10.00">yaclib_std/atomic</text>
</a>
</g>
</g>
<!-- Node6&#45;&gt;Node19 -->
<g id="edge23" class="edge">
<title>Node6&#45;&gt;Node19</title>
<path fill="none" stroke="midnightblue" d="M473.27,-313.4C459.53,-302.76 440.72,-288.2 426.73,-277.38"/>
<polygon fill="midnightblue" stroke="midnightblue" points="428.79,-274.55 418.74,-271.19 424.5,-280.08 428.79,-274.55"/>
</g>
<!-- Node7&#45;&gt;Node8 -->
<g id="edge7" class="edge">
<title>Node7&#45;&gt;Node8</title>
<path fill="none" stroke="midnightblue" d="M625.01,-246.4C648.66,-235.09 681.58,-219.36 704.53,-208.39"/>
<polygon fill="midnightblue" stroke="midnightblue" points="706.19,-211.48 713.7,-204.01 703.17,-205.16 706.19,-211.48"/>
</g>
<!-- Node9 -->
<g id="node9" class="node">
<title>Node9</title>
<g id="a_node9"><a xlink:href="node_8hpp.html" target="_top" xlink:title=" ">
<polygon fill="none" stroke="black" points="702,-112.5 702,-142.5 785,-142.5 785,-112.5 702,-112.5"/>
<text text-anchor="start" x="710" y="-130.5" font-family="Helvetica,sans-Serif" font-size="10.00">yaclib/util/detail</text>
<text text-anchor="middle" x="743.5" y="-119.5" font-family="Helvetica,sans-Serif" font-size="10.00">/node.hpp</text>
</a>
</g>
</g>
<!-- Node8&#45;&gt;Node9 -->
<g id="edge8" class="edge">
<title>Node8&#45;&gt;Node9</title>
<path fill="none" stroke="midnightblue" d="M733.12,-184.73C734.63,-176.54 736.96,-163.92 739.03,-152.71"/>
<polygon fill="midnightblue" stroke="midnightblue" points="742.53,-153.06 740.9,-142.59 735.64,-151.79 742.53,-153.06"/>
</g>
<!-- Node10 -->
<g id="node10" class="node">
<title>Node10</title>
<g id="a_node10"><a xlink:href="func_8hpp.html" target="_top" xlink:title=" ">
<polygon fill="none" stroke="black" points="548,-118 548,-137 645,-137 645,-118 548,-118"/>
<text text-anchor="middle" x="596.5" y="-125" font-family="Helvetica,sans-Serif" font-size="10.00">yaclib/util/func.hpp</text>
</a>
</g>
</g>
<!-- Node8&#45;&gt;Node10 -->
<g id="edge9" class="edge">
<title>Node8&#45;&gt;Node10</title>
<path fill="none" stroke="midnightblue" d="M713.57,-184.87C690.58,-173.8 650.47,-154.49 623.7,-141.6"/>
<polygon fill="midnightblue" stroke="midnightblue" points="625.03,-138.35 614.5,-137.17 621.99,-144.66 625.03,-138.35"/>
</g>
<!-- Node10&#45;&gt;Node11 -->
<g id="edge10" class="edge">
<title>Node10&#45;&gt;Node11</title>
<path fill="none" stroke="midnightblue" d="M585.47,-117.98C573.23,-108.52 553.27,-93.1 538.51,-81.69"/>
<polygon fill="midnightblue" stroke="midnightblue" points="540.56,-78.85 530.51,-75.51 536.28,-84.39 540.56,-78.85"/>
</g>
<!-- Node12 -->
<g id="node12" class="node">
<title>Node12</title>
<g id="a_node12"><a xlink:title=" ">
<polygon fill="none" stroke="#bfbfbf" points="794.5,-56.5 794.5,-75.5 856.5,-75.5 856.5,-56.5 794.5,-56.5"/>
<text text-anchor="middle" x="825.5" y="-63.5" font-family="Helvetica,sans-Serif" font-size="10.00">type_traits</text>
</a>
</g>
</g>
<!-- Node10&#45;&gt;Node12 -->
<g id="edge11" class="edge">
<title>Node10&#45;&gt;Node12</title>
<path fill="none" stroke="midnightblue" d="M629.31,-117.98C670.16,-107.36 739.94,-89.23 784.33,-77.7"/>
<polygon fill="midnightblue" stroke="midnightblue" points="785.42,-81.03 794.22,-75.13 783.66,-74.25 785.42,-81.03"/>
</g>
<!-- Node10&#45;&gt;Node13 -->
<g id="edge12" class="edge">
<title>Node10&#45;&gt;Node13</title>
<path fill="none" stroke="midnightblue" d="M547.93,-117.98C476.58,-105.45 345.56,-82.46 287.07,-72.19"/>
<polygon fill="midnightblue" stroke="midnightblue" points="287.47,-68.71 277.02,-70.43 286.26,-75.6 287.47,-68.71"/>
</g>
<!-- Node14&#45;&gt;Node8 -->
<g id="edge14" class="edge">
<title>Node14&#45;&gt;Node8</title>
<path fill="none" stroke="midnightblue" d="M731.5,-251.73C731.5,-242.18 731.5,-226.62 731.5,-214.28"/>
<polygon fill="midnightblue" stroke="midnightblue" points="735,-214.13 731.5,-204.13 728,-214.13 735,-214.13"/>
</g>
<!-- Node14&#45;&gt;Node15 -->
<g id="edge15" class="edge">
<title>Node14&#45;&gt;Node15</title>
<path fill="none" stroke="midnightblue" d="M693.42,-251.94C644.33,-240.89 558.47,-221.58 501.06,-208.67"/>
<polygon fill="midnightblue" stroke="midnightblue" points="501.56,-205.2 491.03,-206.42 500.02,-212.03 501.56,-205.2"/>
</g>
<!-- Node15&#45;&gt;Node11 -->
<g id="edge16" class="edge">
<title>Node15&#45;&gt;Node11</title>
<path fill="none" stroke="midnightblue" d="M451.03,-179.48C465.2,-156.21 493.53,-109.66 508.94,-84.36"/>
<polygon fill="midnightblue" stroke="midnightblue" points="511.94,-86.15 514.15,-75.79 505.96,-82.51 511.94,-86.15"/>
</g>
<!-- Node15&#45;&gt;Node12 -->
<g id="edge17" class="edge">
<title>Node15&#45;&gt;Node12</title>
<path fill="none" stroke="midnightblue" d="M491.26,-188.04C535.6,-181.67 601.93,-168.57 654.5,-143 674.41,-133.31 674.07,-122.62 693.5,-112 722.33,-96.25 757.67,-84.56 784.53,-77.04"/>
<polygon fill="midnightblue" stroke="midnightblue" points="785.64,-80.36 794.38,-74.37 783.81,-73.61 785.64,-80.36"/>
</g>
<!-- Node16 -->
<g id="node16" class="node">
<title>Node16</title>
<g id="a_node16"><a xlink:href="intrusive__ptr__impl_8hpp.html" target="_top" xlink:title=" ">
<polygon fill="none" stroke="black" points="339.5,-112.5 339.5,-142.5 453.5,-142.5 453.5,-112.5 339.5,-112.5"/>
<text text-anchor="start" x="347.5" y="-130.5" font-family="Helvetica,sans-Serif" font-size="10.00">yaclib/util/detail</text>
<text text-anchor="middle" x="396.5" y="-119.5" font-family="Helvetica,sans-Serif" font-size="10.00">/intrusive_ptr_impl.hpp</text>
</a>
</g>
</g>
<!-- Node15&#45;&gt;Node16 -->
<g id="edge18" class="edge">
<title>Node15&#45;&gt;Node16</title>
<path fill="none" stroke="midnightblue" d="M432.52,-179.4C426.61,-171.05 419,-160.29 412.29,-150.81"/>
<polygon fill="midnightblue" stroke="midnightblue" points="415.1,-148.72 406.46,-142.58 409.38,-152.76 415.1,-148.72"/>
</g>
<!-- Node17 -->
<g id="node17" class="node">
<title>Node17</title>
<g id="a_node17"><a xlink:href="log_8hpp.html" target="_top" xlink:title=" ">
<polygon fill="none" stroke="black" points="359,-56.5 359,-75.5 434,-75.5 434,-56.5 359,-56.5"/>
<text text-anchor="middle" x="396.5" y="-63.5" font-family="Helvetica,sans-Serif" font-size="10.00">yaclib/log.hpp</text>
</a>
</g>
</g>
<!-- Node16&#45;&gt;Node17 -->
<g id="edge19" class="edge">
<title>Node16&#45;&gt;Node17</title>
<path fill="none" stroke="midnightblue" d="M396.5,-112.4C396.5,-104.47 396.5,-94.46 396.5,-85.86"/>
<polygon fill="midnightblue" stroke="midnightblue" points="400,-85.66 396.5,-75.66 393,-85.66 400,-85.66"/>
</g>
<!-- Node18 -->
<g id="node18" class="node">
<title>Node18</title>
<g id="a_node18"><a xlink:title=" ">
<polygon fill="none" stroke="#bfbfbf" points="363.5,-0.5 363.5,-19.5 429.5,-19.5 429.5,-0.5 363.5,-0.5"/>
<text text-anchor="middle" x="396.5" y="-7.5" font-family="Helvetica,sans-Serif" font-size="10.00">string_view</text>
</a>
</g>
</g>
<!-- Node17&#45;&gt;Node18 -->
<g id="edge20" class="edge">
<title>Node17&#45;&gt;Node18</title>
<path fill="none" stroke="midnightblue" d="M396.5,-56.08C396.5,-49.01 396.5,-38.86 396.5,-29.99"/>
<polygon fill="midnightblue" stroke="midnightblue" points="400,-29.75 396.5,-19.75 393,-29.75 400,-29.75"/>
</g>
<!-- Node21 -->
<g id="node21" class="node">
<title>Node21</title>
<g id="a_node21"><a xlink:href="type__traits_8hpp.html" target="_top" xlink:title=" ">
<polygon fill="none" stroke="black" points="998,-252 998,-271 1121,-271 1121,-252 998,-252"/>
<text text-anchor="middle" x="1059.5" y="-259" font-family="Helvetica,sans-Serif" font-size="10.00">yaclib/util/type_traits.hpp</text>
</a>
</g>
</g>
<!-- Node20&#45;&gt;Node21 -->
<g id="edge27" class="edge">
<title>Node20&#45;&gt;Node21</title>
<path fill="none" stroke="midnightblue" d="M912.94,-318.87C942.32,-307.57 993.99,-287.7 1027.47,-274.82"/>
<polygon fill="midnightblue" stroke="midnightblue" points="1029.16,-277.92 1037.23,-271.06 1026.64,-271.39 1029.16,-277.92"/>
</g>
<!-- Node20&#45;&gt;Node24 -->
<g id="edge34" class="edge">
<title>Node20&#45;&gt;Node24</title>
<path fill="none" stroke="midnightblue" d="M888.07,-318.84C882.11,-297.58 866.66,-242.46 858.59,-213.65"/>
<polygon fill="midnightblue" stroke="midnightblue" points="861.96,-212.71 855.89,-204.02 855.22,-214.59 861.96,-212.71"/>
</g>
<!-- Node25 -->
<g id="node25" class="node">
<title>Node25</title>
<g id="a_node25"><a xlink:title=" ">
<polygon fill="none" stroke="#bfbfbf" points="895.5,-252 895.5,-271 941.5,-271 941.5,-252 895.5,-252"/>
<text text-anchor="middle" x="918.5" y="-259" font-family="Helvetica,sans-Serif" font-size="10.00">variant</text>
</a>
</g>
</g>
<!-- Node20&#45;&gt;Node25 -->
<g id="edge35" class="edge">
<title>Node20&#45;&gt;Node25</title>
<path fill="none" stroke="midnightblue" d="M894.28,-318.73C898.47,-308.99 905.37,-292.98 910.73,-280.53"/>
<polygon fill="midnightblue" stroke="midnightblue" points="914.04,-281.7 914.78,-271.13 907.61,-278.93 914.04,-281.7"/>
</g>
<!-- Node21&#45;&gt;Node12 -->
<g id="edge33" class="edge">
<title>Node21&#45;&gt;Node12</title>
<path fill="none" stroke="midnightblue" d="M1060.77,-251.92C1062.64,-236.51 1064.81,-203.47 1053.5,-179 1035.69,-140.49 1022.19,-133.3 985.5,-112 948.41,-90.46 900.46,-78.77 866.76,-72.74"/>
<polygon fill="midnightblue" stroke="midnightblue" points="867.23,-69.27 856.78,-71.05 866.06,-76.17 867.23,-69.27"/>
</g>
<!-- Node22 -->
<g id="node22" class="node">
<title>Node22</title>
<g id="a_node22"><a xlink:href="fwd_8hpp.html" target="_top" xlink:title=" ">
<polygon fill="none" stroke="black" points="875.5,-118 875.5,-137 953.5,-137 953.5,-118 875.5,-118"/>
<text text-anchor="middle" x="914.5" y="-125" font-family="Helvetica,sans-Serif" font-size="10.00">yaclib/fwd.hpp</text>
</a>
</g>
</g>
<!-- Node21&#45;&gt;Node22 -->
<g id="edge28" class="edge">
<title>Node21&#45;&gt;Node22</title>
<path fill="none" stroke="midnightblue" d="M1004.42,-251.93C977.99,-244.99 948.1,-232.48 929.5,-210 914.99,-192.46 912.69,-165.46 913.04,-147.4"/>
<polygon fill="midnightblue" stroke="midnightblue" points="916.55,-147.4 913.54,-137.24 909.56,-147.06 916.55,-147.4"/>
</g>
<!-- Node23 -->
<g id="node23" class="node">
<title>Node23</title>
<g id="a_node23"><a xlink:href="type__traits__impl_8hpp.html" target="_top" xlink:title=" ">
<polygon fill="none" stroke="black" points="938.5,-179.5 938.5,-209.5 1044.5,-209.5 1044.5,-179.5 938.5,-179.5"/>
<text text-anchor="start" x="946.5" y="-197.5" font-family="Helvetica,sans-Serif" font-size="10.00">yaclib/util/detail</text>
<text text-anchor="middle" x="991.5" y="-186.5" font-family="Helvetica,sans-Serif" font-size="10.00">/type_traits_impl.hpp</text>
</a>
</g>
</g>
<!-- Node21&#45;&gt;Node23 -->
<g id="edge29" class="edge">
<title>Node21&#45;&gt;Node23</title>
<path fill="none" stroke="midnightblue" d="M1050.33,-251.73C1040.96,-242.78 1026.07,-228.54 1013.61,-216.63"/>
<polygon fill="midnightblue" stroke="midnightblue" points="1015.89,-213.97 1006.24,-209.59 1011.05,-219.03 1015.89,-213.97"/>
</g>
<!-- Node21&#45;&gt;Node24 -->
<g id="edge32" class="edge">
<title>Node21&#45;&gt;Node24</title>
<path fill="none" stroke="midnightblue" d="M1031.16,-251.95C998.6,-242.08 943.57,-225.23 896.5,-210 893.76,-209.11 890.92,-208.18 888.08,-207.24"/>
<polygon fill="midnightblue" stroke="midnightblue" points="889.07,-203.88 878.48,-204.04 886.85,-210.52 889.07,-203.88"/>
</g>
<!-- Node23&#45;&gt;Node12 -->
<g id="edge31" class="edge">
<title>Node23&#45;&gt;Node12</title>
<path fill="none" stroke="midnightblue" d="M990.24,-179.39C987.88,-161.34 981.2,-130.25 962.5,-112 936.86,-86.98 897.06,-75.87 866.96,-70.94"/>
<polygon fill="midnightblue" stroke="midnightblue" points="867.16,-67.43 856.75,-69.44 866.14,-74.35 867.16,-67.43"/>
</g>
<!-- Node23&#45;&gt;Node22 -->
<g id="edge30" class="edge">
<title>Node23&#45;&gt;Node22</title>
<path fill="none" stroke="midnightblue" d="M974.79,-179.4C962.31,-168.86 945.27,-154.48 932.49,-143.69"/>
<polygon fill="midnightblue" stroke="midnightblue" points="934.7,-140.97 924.8,-137.19 930.18,-146.32 934.7,-140.97"/>
</g>
<!-- Node26&#45;&gt;Node3 -->
<g id="edge39" class="edge">
<title>Node26&#45;&gt;Node3</title>
<path fill="none" stroke="midnightblue" d="M185.34,-380.4C161.06,-369.04 127.22,-353.22 103.75,-342.24"/>
<polygon fill="midnightblue" stroke="midnightblue" points="105.23,-339.07 94.69,-338.01 102.27,-345.41 105.23,-339.07"/>
</g>
<!-- Node26&#45;&gt;Node13 -->
<g id="edge41" class="edge">
<title>Node26&#45;&gt;Node13</title>
<path fill="none" stroke="midnightblue" d="M199.08,-380.12C189.38,-370.76 177.64,-357.76 170.5,-344 153.38,-310.98 151.5,-299.69 151.5,-262.5 151.5,-262.5 151.5,-262.5 151.5,-193.5 151.5,-142.65 202.45,-101.5 233.7,-81.05"/>
<polygon fill="midnightblue" stroke="midnightblue" points="235.73,-83.91 242.31,-75.61 231.99,-77.99 235.73,-83.91"/>
</g>
<!-- Node26&#45;&gt;Node19 -->
<g id="edge42" class="edge">
<title>Node26&#45;&gt;Node19</title>
<path fill="none" stroke="midnightblue" d="M236.05,-380.37C272.79,-355.11 349.37,-302.46 386.46,-276.96"/>
<polygon fill="midnightblue" stroke="midnightblue" points="388.74,-279.65 394.99,-271.1 384.77,-273.88 388.74,-279.65"/>
</g>
<!-- Node27 -->
<g id="node27" class="node">
<title>Node27</title>
<g id="a_node27"><a xlink:title=" ">
<polygon fill="none" stroke="#bfbfbf" points="180,-319 180,-338 229,-338 229,-319 180,-319"/>
<text text-anchor="middle" x="204.5" y="-326" font-family="Helvetica,sans-Serif" font-size="10.00">cstddef</text>
</a>
</g>
</g>
<!-- Node26&#45;&gt;Node27 -->
<g id="edge40" class="edge">
<title>Node26&#45;&gt;Node27</title>
<path fill="none" stroke="midnightblue" d="M213.11,-380.4C211.52,-370.96 209.4,-358.45 207.66,-348.19"/>
<polygon fill="midnightblue" stroke="midnightblue" points="211.09,-347.47 205.97,-338.19 204.19,-348.64 211.09,-347.47"/>
</g>
</g>
</svg>
