<?xml version="1.0" encoding="UTF-8" standalone="no"?>
<!DOCTYPE svg PUBLIC "-//W3C//DTD SVG 1.1//EN"
 "http://www.w3.org/Graphics/SVG/1.1/DTD/svg11.dtd">
<!-- Generated by graphviz version 3.0.0 (20220413.0106)
 -->
<!-- Title: src/async/promise_impl.cpp Pages: 1 -->
<svg width="841pt" height="531pt"
 viewBox="0.00 0.00 841.00 531.00" xmlns="http://www.w3.org/2000/svg" xmlns:xlink="http://www.w3.org/1999/xlink">
<g id="graph0" class="graph" transform="scale(1 1) rotate(0) translate(4 527)">
<title>src/async/promise_impl.cpp</title>
<!-- Node1 -->
<g id="node1" class="node">
<title>Node1</title>
<g id="a_node1"><a xlink:title=" ">
<polygon fill="#bfbfbf" stroke="black" points="619.5,-503.5 619.5,-522.5 756.5,-522.5 756.5,-503.5 619.5,-503.5"/>
<text text-anchor="middle" x="688" y="-510.5" font-family="Helvetica,sans-Serif" font-size="10.00">src/async/promise_impl.cpp</text>
</a>
</g>
</g>
<!-- Node2 -->
<g id="node2" class="node">
<title>Node2</title>
<g id="a_node2"><a xlink:href="promise_8hpp.html" target="_top" xlink:title=" ">
<polygon fill="none" stroke="black" points="625.5,-447.5 625.5,-466.5 750.5,-466.5 750.5,-447.5 625.5,-447.5"/>
<text text-anchor="middle" x="688" y="-454.5" font-family="Helvetica,sans-Serif" font-size="10.00">yaclib/async/promise.hpp</text>
</a>
</g>
</g>
<!-- Node1&#45;&gt;Node2 -->
<g id="edge1" class="edge">
<title>Node1&#45;&gt;Node2</title>
<path fill="none" stroke="midnightblue" d="M688,-503.08C688,-496.01 688,-485.86 688,-476.99"/>
<polygon fill="midnightblue" stroke="midnightblue" points="691.5,-476.75 688,-466.75 684.5,-476.75 691.5,-476.75"/>
</g>
<!-- Node3 -->
<g id="node3" class="node">
<title>Node3</title>
<g id="a_node3"><a xlink:href="result__core_8hpp.html" target="_top" xlink:title=" ">
<polygon fill="none" stroke="black" points="374,-380.5 374,-410.5 470,-410.5 470,-380.5 374,-380.5"/>
<text text-anchor="start" x="382" y="-398.5" font-family="Helvetica,sans-Serif" font-size="10.00">yaclib/async/detail</text>
<text text-anchor="middle" x="422" y="-387.5" font-family="Helvetica,sans-Serif" font-size="10.00">/result_core.hpp</text>
</a>
</g>
</g>
<!-- Node2&#45;&gt;Node3 -->
<g id="edge2" class="edge">
<title>Node2&#45;&gt;Node3</title>
<path fill="none" stroke="midnightblue" d="M649.89,-447.48C605.58,-437.56 531.95,-421.09 480.41,-409.57"/>
<polygon fill="midnightblue" stroke="midnightblue" points="480.94,-406.1 470.41,-407.33 479.41,-412.93 480.94,-406.1"/>
</g>
<!-- Node19 -->
<g id="node19" class="node">
<title>Node19</title>
<g id="a_node19"><a xlink:href="type__traits_8hpp.html" target="_top" xlink:title=" ">
<polygon fill="none" stroke="black" points="626.5,-252 626.5,-271 749.5,-271 749.5,-252 626.5,-252"/>
<text text-anchor="middle" x="688" y="-259" font-family="Helvetica,sans-Serif" font-size="10.00">yaclib/util/type_traits.hpp</text>
</a>
</g>
</g>
<!-- Node2&#45;&gt;Node19 -->
<g id="edge35" class="edge">
<title>Node2&#45;&gt;Node19</title>
<path fill="none" stroke="midnightblue" d="M688,-447.44C688,-418.29 688,-322.47 688,-281.43"/>
<polygon fill="midnightblue" stroke="midnightblue" points="691.5,-281.41 688,-271.41 684.5,-281.41 691.5,-281.41"/>
</g>
<!-- Node24 -->
<g id="node24" class="node">
<title>Node24</title>
<g id="a_node24"><a xlink:href="promise__impl_8hpp.html" target="_top" xlink:title=" ">
<polygon fill="none" stroke="black" points="737,-380.5 737,-410.5 833,-410.5 833,-380.5 737,-380.5"/>
<text text-anchor="start" x="745" y="-398.5" font-family="Helvetica,sans-Serif" font-size="10.00">yaclib/async/detail</text>
<text text-anchor="middle" x="785" y="-387.5" font-family="Helvetica,sans-Serif" font-size="10.00">/promise_impl.hpp</text>
</a>
</g>
</g>
<!-- Node2&#45;&gt;Node24 -->
<g id="edge36" class="edge">
<title>Node2&#45;&gt;Node24</title>
<path fill="none" stroke="midnightblue" d="M701.9,-447.48C715.28,-439.27 736,-426.56 753.4,-415.88"/>
<polygon fill="midnightblue" stroke="midnightblue" points="755.44,-418.74 762.14,-410.52 751.78,-412.77 755.44,-418.74"/>
</g>
<!-- Node4 -->
<g id="node4" class="node">
<title>Node4</title>
<g id="a_node4"><a xlink:href="base__core_8hpp.html" target="_top" xlink:title=" ">
<polygon fill="none" stroke="black" points="251,-313.5 251,-343.5 347,-343.5 347,-313.5 251,-313.5"/>
<text text-anchor="start" x="259" y="-331.5" font-family="Helvetica,sans-Serif" font-size="10.00">yaclib/async/detail</text>
<text text-anchor="middle" x="299" y="-320.5" font-family="Helvetica,sans-Serif" font-size="10.00">/base_core.hpp</text>
</a>
</g>
</g>
<!-- Node3&#45;&gt;Node4 -->
<g id="edge3" class="edge">
<title>Node3&#45;&gt;Node4</title>
<path fill="none" stroke="midnightblue" d="M395.31,-380.4C377.5,-370.98 353.88,-358.5 334.49,-348.26"/>
<polygon fill="midnightblue" stroke="midnightblue" points="336.11,-345.15 325.64,-343.58 332.84,-351.34 336.11,-345.15"/>
</g>
<!-- Node5 -->
<g id="node5" class="node">
<title>Node5</title>
<g id="a_node5"><a xlink:href="inline__core_8hpp.html" target="_top" xlink:title=" ">
<polygon fill="none" stroke="black" points="28,-246.5 28,-276.5 124,-276.5 124,-246.5 28,-246.5"/>
<text text-anchor="start" x="36" y="-264.5" font-family="Helvetica,sans-Serif" font-size="10.00">yaclib/async/detail</text>
<text text-anchor="middle" x="76" y="-253.5" font-family="Helvetica,sans-Serif" font-size="10.00">/inline_core.hpp</text>
</a>
</g>
</g>
<!-- Node3&#45;&gt;Node5 -->
<g id="edge22" class="edge">
<title>Node3&#45;&gt;Node5</title>
<path fill="none" stroke="midnightblue" d="M373.86,-383.54C337.15,-374.57 285.66,-360.68 242,-344 194.91,-326.01 143.15,-299.43 110.15,-281.57"/>
<polygon fill="midnightblue" stroke="midnightblue" points="111.4,-278.26 100.95,-276.55 108.05,-284.41 111.4,-278.26"/>
</g>
<!-- Node11 -->
<g id="node11" class="node">
<title>Node11</title>
<g id="a_node11"><a xlink:title=" ">
<polygon fill="none" stroke="#bfbfbf" points="104.5,-56.5 104.5,-75.5 143.5,-75.5 143.5,-56.5 104.5,-56.5"/>
<text text-anchor="middle" x="124" y="-63.5" font-family="Helvetica,sans-Serif" font-size="10.00">utility</text>
</a>
</g>
</g>
<!-- Node3&#45;&gt;Node11 -->
<g id="edge34" class="edge">
<title>Node3&#45;&gt;Node11</title>
<path fill="none" stroke="midnightblue" d="M373.59,-389.71C262.75,-377.39 0,-340.03 0,-262.5 0,-262.5 0,-262.5 0,-193.5 0,-139.16 59.08,-99.56 95.68,-80.25"/>
<polygon fill="midnightblue" stroke="midnightblue" points="97.57,-83.21 104.9,-75.56 94.4,-76.98 97.57,-83.21"/>
</g>
<!-- Node13 -->
<g id="node13" class="node">
<title>Node13</title>
<g id="a_node13"><a xlink:href="intrusive__ptr_8hpp.html" target="_top" xlink:title=" ">
<polygon fill="none" stroke="black" points="382.5,-179.5 382.5,-209.5 479.5,-209.5 479.5,-179.5 382.5,-179.5"/>
<text text-anchor="start" x="390.5" y="-197.5" font-family="Helvetica,sans-Serif" font-size="10.00">yaclib/util/intrusive</text>
<text text-anchor="middle" x="431" y="-186.5" font-family="Helvetica,sans-Serif" font-size="10.00">_ptr.hpp</text>
</a>
</g>
</g>
<!-- Node3&#45;&gt;Node13 -->
<g id="edge23" class="edge">
<title>Node3&#45;&gt;Node13</title>
<path fill="none" stroke="midnightblue" d="M431.12,-380.4C444.32,-359.05 468.15,-316.79 477,-277 479.99,-263.55 481.97,-258.85 477,-246 472.74,-234.99 464.84,-224.91 456.77,-216.7"/>
<polygon fill="midnightblue" stroke="midnightblue" points="459.08,-214.06 449.42,-209.71 454.25,-219.14 459.08,-214.06"/>
</g>
<!-- Node18 -->
<g id="node18" class="node">
<title>Node18</title>
<g id="a_node18"><a xlink:href="result_8hpp.html" target="_top" xlink:title=" ">
<polygon fill="none" stroke="black" points="536,-319 536,-338 638,-338 638,-319 536,-319"/>
<text text-anchor="middle" x="587" y="-326" font-family="Helvetica,sans-Serif" font-size="10.00">yaclib/util/result.hpp</text>
</a>
</g>
</g>
<!-- Node3&#45;&gt;Node18 -->
<g id="edge24" class="edge">
<title>Node3&#45;&gt;Node18</title>
<path fill="none" stroke="midnightblue" d="M457.8,-380.4C487.01,-368.89 527.86,-352.8 555.76,-341.81"/>
<polygon fill="midnightblue" stroke="midnightblue" points="557.38,-344.93 565.41,-338.01 554.82,-338.42 557.38,-344.93"/>
</g>
<!-- Node4&#45;&gt;Node5 -->
<g id="edge4" class="edge">
<title>Node4&#45;&gt;Node5</title>
<path fill="none" stroke="midnightblue" d="M250.89,-313.48C216.6,-303.48 170.33,-289.99 133.99,-279.4"/>
<polygon fill="midnightblue" stroke="midnightblue" points="134.61,-275.94 124.03,-276.5 132.65,-282.66 134.61,-275.94"/>
</g>
<!-- Node9 -->
<g id="node9" class="node">
<title>Node9</title>
<g id="a_node9"><a xlink:href="ref_8hpp.html" target="_top" xlink:title=" ">
<polygon fill="none" stroke="black" points="285.5,-56.5 285.5,-75.5 374.5,-75.5 374.5,-56.5 285.5,-56.5"/>
<text text-anchor="middle" x="330" y="-63.5" font-family="Helvetica,sans-Serif" font-size="10.00">yaclib/util/ref.hpp</text>
</a>
</g>
</g>
<!-- Node4&#45;&gt;Node9 -->
<g id="edge20" class="edge">
<title>Node4&#45;&gt;Node9</title>
<path fill="none" stroke="midnightblue" d="M250.85,-321.68C222.8,-315.53 189.59,-302.92 172,-277 130.83,-216.32 127.81,-170.53 172,-112 184.63,-95.26 234.88,-82.91 275.36,-75.42"/>
<polygon fill="midnightblue" stroke="midnightblue" points="276.19,-78.83 285.42,-73.62 274.96,-71.94 276.19,-78.83"/>
</g>
<!-- Node12 -->
<g id="node12" class="node">
<title>Node12</title>
<g id="a_node12"><a xlink:href="executor_8hpp.html" target="_top" xlink:title=" ">
<polygon fill="none" stroke="black" points="180.5,-252 180.5,-271 319.5,-271 319.5,-252 180.5,-252"/>
<text text-anchor="middle" x="250" y="-259" font-family="Helvetica,sans-Serif" font-size="10.00">yaclib/executor/executor.hpp</text>
</a>
</g>
</g>
<!-- Node4&#45;&gt;Node12 -->
<g id="edge11" class="edge">
<title>Node4&#45;&gt;Node12</title>
<path fill="none" stroke="midnightblue" d="M288.37,-313.4C280.8,-303.36 270.61,-289.84 262.63,-279.25"/>
<polygon fill="midnightblue" stroke="midnightblue" points="265.37,-277.07 256.55,-271.19 259.78,-281.29 265.37,-277.07"/>
</g>
<!-- Node4&#45;&gt;Node13 -->
<g id="edge19" class="edge">
<title>Node4&#45;&gt;Node13</title>
<path fill="none" stroke="midnightblue" d="M309.26,-313.48C321.93,-296.62 344.55,-267.85 367,-246 378.1,-235.2 391.41,-224.4 403,-215.58"/>
<polygon fill="midnightblue" stroke="midnightblue" points="405.18,-218.33 411.09,-209.54 400.98,-212.72 405.18,-218.33"/>
</g>
<!-- Node17 -->
<g id="node17" class="node">
<title>Node17</title>
<g id="a_node17"><a xlink:title=" ">
<polygon fill="none" stroke="#bfbfbf" points="376,-252 376,-271 468,-271 468,-252 376,-252"/>
<text text-anchor="middle" x="422" y="-259" font-family="Helvetica,sans-Serif" font-size="10.00">yaclib_std/atomic</text>
</a>
</g>
</g>
<!-- Node4&#45;&gt;Node17 -->
<g id="edge21" class="edge">
<title>Node4&#45;&gt;Node17</title>
<path fill="none" stroke="midnightblue" d="M325.69,-313.4C346.89,-302.19 376.32,-286.64 397.05,-275.69"/>
<polygon fill="midnightblue" stroke="midnightblue" points="398.7,-278.77 405.9,-271.01 395.43,-272.58 398.7,-278.77"/>
</g>
<!-- Node6 -->
<g id="node6" class="node">
<title>Node6</title>
<g id="a_node6"><a xlink:href="job_8hpp.html" target="_top" xlink:title=" ">
<polygon fill="none" stroke="black" points="186.5,-185 186.5,-204 301.5,-204 301.5,-185 186.5,-185"/>
<text text-anchor="middle" x="244" y="-192" font-family="Helvetica,sans-Serif" font-size="10.00">yaclib/executor/job.hpp</text>
</a>
</g>
</g>
<!-- Node5&#45;&gt;Node6 -->
<g id="edge5" class="edge">
<title>Node5&#45;&gt;Node6</title>
<path fill="none" stroke="midnightblue" d="M112.45,-246.4C142.32,-234.84 184.15,-218.66 212.56,-207.66"/>
<polygon fill="midnightblue" stroke="midnightblue" points="213.95,-210.88 222.01,-204.01 211.42,-204.35 213.95,-210.88"/>
</g>
<!-- Node7 -->
<g id="node7" class="node">
<title>Node7</title>
<g id="a_node7"><a xlink:href="node_8hpp.html" target="_top" xlink:title=" ">
<polygon fill="none" stroke="black" points="180.5,-112.5 180.5,-142.5 263.5,-142.5 263.5,-112.5 180.5,-112.5"/>
<text text-anchor="start" x="188.5" y="-130.5" font-family="Helvetica,sans-Serif" font-size="10.00">yaclib/util/detail</text>
<text text-anchor="middle" x="222" y="-119.5" font-family="Helvetica,sans-Serif" font-size="10.00">/node.hpp</text>
</a>
</g>
</g>
<!-- Node6&#45;&gt;Node7 -->
<g id="edge6" class="edge">
<title>Node6&#45;&gt;Node7</title>
<path fill="none" stroke="midnightblue" d="M241.03,-184.73C238.23,-176.46 233.9,-163.66 230.08,-152.37"/>
<polygon fill="midnightblue" stroke="midnightblue" points="233.29,-150.94 226.77,-142.59 226.66,-153.18 233.29,-150.94"/>
</g>
<!-- Node8 -->
<g id="node8" class="node">
<title>Node8</title>
<g id="a_node8"><a xlink:href="func_8hpp.html" target="_top" xlink:title=" ">
<polygon fill="none" stroke="black" points="281.5,-118 281.5,-137 378.5,-137 378.5,-118 281.5,-118"/>
<text text-anchor="middle" x="330" y="-125" font-family="Helvetica,sans-Serif" font-size="10.00">yaclib/util/func.hpp</text>
</a>
</g>
</g>
<!-- Node6&#45;&gt;Node8 -->
<g id="edge7" class="edge">
<title>Node6&#45;&gt;Node8</title>
<path fill="none" stroke="midnightblue" d="M255.6,-184.73C269.65,-174.11 293.55,-156.05 310.47,-143.26"/>
<polygon fill="midnightblue" stroke="midnightblue" points="312.72,-145.95 318.59,-137.13 308.5,-140.36 312.72,-145.95"/>
</g>
<!-- Node8&#45;&gt;Node9 -->
<g id="edge8" class="edge">
<title>Node8&#45;&gt;Node9</title>
<path fill="none" stroke="midnightblue" d="M330,-117.98C330,-109.58 330,-96.48 330,-85.66"/>
<polygon fill="midnightblue" stroke="midnightblue" points="333.5,-85.51 330,-75.51 326.5,-85.51 333.5,-85.51"/>
</g>
<!-- Node10 -->
<g id="node10" class="node">
<title>Node10</title>
<g id="a_node10"><a xlink:title=" ">
<polygon fill="none" stroke="#bfbfbf" points="680,-56.5 680,-75.5 742,-75.5 742,-56.5 680,-56.5"/>
<text text-anchor="middle" x="711" y="-63.5" font-family="Helvetica,sans-Serif" font-size="10.00">type_traits</text>
</a>
</g>
</g>
<!-- Node8&#45;&gt;Node10 -->
<g id="edge9" class="edge">
<title>Node8&#45;&gt;Node10</title>
<path fill="none" stroke="midnightblue" d="M378.64,-118.9C454.36,-107.08 599.06,-84.48 669.89,-73.42"/>
<polygon fill="midnightblue" stroke="midnightblue" points="670.44,-76.88 679.78,-71.88 669.36,-69.96 670.44,-76.88"/>
</g>
<!-- Node8&#45;&gt;Node11 -->
<g id="edge10" class="edge">
<title>Node8&#45;&gt;Node11</title>
<path fill="none" stroke="midnightblue" d="M300.49,-117.98C261.27,-106.65 192.4,-86.76 153.29,-75.46"/>
<polygon fill="midnightblue" stroke="midnightblue" points="154.14,-72.06 143.57,-72.65 152.2,-78.79 154.14,-72.06"/>
</g>
<!-- Node12&#45;&gt;Node6 -->
<g id="edge12" class="edge">
<title>Node12&#45;&gt;Node6</title>
<path fill="none" stroke="midnightblue" d="M249.19,-251.73C248.31,-242.18 246.87,-226.62 245.73,-214.28"/>
<polygon fill="midnightblue" stroke="midnightblue" points="249.2,-213.76 244.8,-204.13 242.23,-214.41 249.2,-213.76"/>
</g>
<!-- Node12&#45;&gt;Node13 -->
<g id="edge13" class="edge">
<title>Node12&#45;&gt;Node13</title>
<path fill="none" stroke="midnightblue" d="M274.04,-251.87C301.55,-241.99 347.32,-225.55 382.36,-212.97"/>
<polygon fill="midnightblue" stroke="midnightblue" points="383.71,-216.2 391.94,-209.53 381.34,-209.61 383.71,-216.2"/>
</g>
<!-- Node13&#45;&gt;Node9 -->
<g id="edge14" class="edge">
<title>Node13&#45;&gt;Node9</title>
<path fill="none" stroke="midnightblue" d="M425.74,-179.44C418.86,-162.28 405.59,-132.95 388,-112 377.95,-100.02 364.2,-89.18 352.62,-81.15"/>
<polygon fill="midnightblue" stroke="midnightblue" points="354.54,-78.22 344.28,-75.58 350.65,-84.04 354.54,-78.22"/>
</g>
<!-- Node13&#45;&gt;Node10 -->
<g id="edge15" class="edge">
<title>Node13&#45;&gt;Node10</title>
<path fill="none" stroke="midnightblue" d="M475.75,-179.48C500.81,-170.72 532.12,-158.21 558,-143 576.79,-131.96 577.18,-122.99 596,-112 620.03,-97.97 649.25,-86.59 672.23,-78.79"/>
<polygon fill="midnightblue" stroke="midnightblue" points="673.58,-82.03 681.98,-75.57 671.39,-75.39 673.58,-82.03"/>
</g>
<!-- Node14 -->
<g id="node14" class="node">
<title>Node14</title>
<g id="a_node14"><a xlink:href="intrusive__ptr__impl_8hpp.html" target="_top" xlink:title=" ">
<polygon fill="none" stroke="black" points="435,-112.5 435,-142.5 549,-142.5 549,-112.5 435,-112.5"/>
<text text-anchor="start" x="443" y="-130.5" font-family="Helvetica,sans-Serif" font-size="10.00">yaclib/util/detail</text>
<text text-anchor="middle" x="492" y="-119.5" font-family="Helvetica,sans-Serif" font-size="10.00">/intrusive_ptr_impl.hpp</text>
</a>
</g>
</g>
<!-- Node13&#45;&gt;Node14 -->
<g id="edge16" class="edge">
<title>Node13&#45;&gt;Node14</title>
<path fill="none" stroke="midnightblue" d="M444.24,-179.4C452.31,-170.79 462.79,-159.63 471.87,-149.94"/>
<polygon fill="midnightblue" stroke="midnightblue" points="474.5,-152.26 478.79,-142.58 469.39,-147.47 474.5,-152.26"/>
</g>
<!-- Node15 -->
<g id="node15" class="node">
<title>Node15</title>
<g id="a_node15"><a xlink:href="log_8hpp.html" target="_top" xlink:title=" ">
<polygon fill="none" stroke="black" points="454.5,-56.5 454.5,-75.5 529.5,-75.5 529.5,-56.5 454.5,-56.5"/>
<text text-anchor="middle" x="492" y="-63.5" font-family="Helvetica,sans-Serif" font-size="10.00">yaclib/log.hpp</text>
</a>
</g>
</g>
<!-- Node14&#45;&gt;Node15 -->
<g id="edge17" class="edge">
<title>Node14&#45;&gt;Node15</title>
<path fill="none" stroke="midnightblue" d="M492,-112.4C492,-104.47 492,-94.46 492,-85.86"/>
<polygon fill="midnightblue" stroke="midnightblue" points="495.5,-85.66 492,-75.66 488.5,-85.66 495.5,-85.66"/>
</g>
<!-- Node16 -->
<g id="node16" class="node">
<title>Node16</title>
<g id="a_node16"><a xlink:title=" ">
<polygon fill="none" stroke="#bfbfbf" points="459,-0.5 459,-19.5 525,-19.5 525,-0.5 459,-0.5"/>
<text text-anchor="middle" x="492" y="-7.5" font-family="Helvetica,sans-Serif" font-size="10.00">string_view</text>
</a>
</g>
</g>
<!-- Node15&#45;&gt;Node16 -->
<g id="edge18" class="edge">
<title>Node15&#45;&gt;Node16</title>
<path fill="none" stroke="midnightblue" d="M492,-56.08C492,-49.01 492,-38.86 492,-29.99"/>
<polygon fill="midnightblue" stroke="midnightblue" points="495.5,-29.75 492,-19.75 488.5,-29.75 495.5,-29.75"/>
</g>
<!-- Node18&#45;&gt;Node19 -->
<g id="edge25" class="edge">
<title>Node18&#45;&gt;Node19</title>
<path fill="none" stroke="midnightblue" d="M600.62,-318.73C617.43,-307.92 646.23,-289.38 666.14,-276.57"/>
<polygon fill="midnightblue" stroke="midnightblue" points="668.08,-279.48 674.59,-271.13 664.29,-273.6 668.08,-279.48"/>
</g>
<!-- Node22 -->
<g id="node22" class="node">
<title>Node22</title>
<g id="a_node22"><a xlink:title=" ">
<polygon fill="none" stroke="#bfbfbf" points="521,-185 521,-204 579,-204 579,-185 521,-185"/>
<text text-anchor="middle" x="550" y="-192" font-family="Helvetica,sans-Serif" font-size="10.00">exception</text>
</a>
</g>
</g>
<!-- Node18&#45;&gt;Node22 -->
<g id="edge32" class="edge">
<title>Node18&#45;&gt;Node22</title>
<path fill="none" stroke="midnightblue" d="M587.33,-318.69C587.64,-303.48 587.14,-271.46 579,-246 575.21,-234.16 568.37,-222.04 562.28,-212.64"/>
<polygon fill="midnightblue" stroke="midnightblue" points="565.1,-210.56 556.59,-204.26 559.31,-214.5 565.1,-210.56"/>
</g>
<!-- Node23 -->
<g id="node23" class="node">
<title>Node23</title>
<g id="a_node23"><a xlink:title=" ">
<polygon fill="none" stroke="#bfbfbf" points="524,-252 524,-271 570,-271 570,-252 524,-252"/>
<text text-anchor="middle" x="547" y="-259" font-family="Helvetica,sans-Serif" font-size="10.00">variant</text>
</a>
</g>
</g>
<!-- Node18&#45;&gt;Node23 -->
<g id="edge33" class="edge">
<title>Node18&#45;&gt;Node23</title>
<path fill="none" stroke="midnightblue" d="M581.61,-318.73C575.49,-308.79 565.36,-292.34 557.64,-279.79"/>
<polygon fill="midnightblue" stroke="midnightblue" points="560.53,-277.81 552.31,-271.13 554.57,-281.48 560.53,-277.81"/>
</g>
<!-- Node19&#45;&gt;Node10 -->
<g id="edge31" class="edge">
<title>Node19&#45;&gt;Node10</title>
<path fill="none" stroke="midnightblue" d="M705.61,-251.87C720.52,-243.48 740.88,-229.18 750,-210 770.35,-167.17 741.2,-111.91 723.26,-84.3"/>
<polygon fill="midnightblue" stroke="midnightblue" points="725.99,-82.08 717.49,-75.75 720.19,-86 725.99,-82.08"/>
</g>
<!-- Node20 -->
<g id="node20" class="node">
<title>Node20</title>
<g id="a_node20"><a xlink:href="fwd_8hpp.html" target="_top" xlink:title=" ">
<polygon fill="none" stroke="black" points="605,-118 605,-137 683,-137 683,-118 605,-118"/>
<text text-anchor="middle" x="644" y="-125" font-family="Helvetica,sans-Serif" font-size="10.00">yaclib/fwd.hpp</text>
</a>
</g>
</g>
<!-- Node19&#45;&gt;Node20 -->
<g id="edge26" class="edge">
<title>Node19&#45;&gt;Node20</title>
<path fill="none" stroke="midnightblue" d="M670.39,-251.87C655.48,-243.48 635.12,-229.18 626,-210 616.23,-189.43 625.24,-163.4 633.65,-146.37"/>
<polygon fill="midnightblue" stroke="midnightblue" points="636.77,-147.96 638.39,-137.49 630.59,-144.66 636.77,-147.96"/>
</g>
<!-- Node21 -->
<g id="node21" class="node">
<title>Node21</title>
<g id="a_node21"><a xlink:href="type__traits__impl_8hpp.html" target="_top" xlink:title=" ">
<polygon fill="none" stroke="black" points="635,-179.5 635,-209.5 741,-209.5 741,-179.5 635,-179.5"/>
<text text-anchor="start" x="643" y="-197.5" font-family="Helvetica,sans-Serif" font-size="10.00">yaclib/util/detail</text>
<text text-anchor="middle" x="688" y="-186.5" font-family="Helvetica,sans-Serif" font-size="10.00">/type_traits_impl.hpp</text>
</a>
</g>
</g>
<!-- Node19&#45;&gt;Node21 -->
<g id="edge27" class="edge">
<title>Node19&#45;&gt;Node21</title>
<path fill="none" stroke="midnightblue" d="M688,-251.73C688,-243.54 688,-230.92 688,-219.71"/>
<polygon fill="midnightblue" stroke="midnightblue" points="691.5,-219.59 688,-209.59 684.5,-219.59 691.5,-219.59"/>
</g>
<!-- Node19&#45;&gt;Node22 -->
<g id="edge30" class="edge">
<title>Node19&#45;&gt;Node22</title>
<path fill="none" stroke="midnightblue" d="M669.67,-251.87C646.06,-240.75 604.81,-221.32 577.45,-208.43"/>
<polygon fill="midnightblue" stroke="midnightblue" points="578.94,-205.26 568.4,-204.17 575.96,-211.59 578.94,-205.26"/>
</g>
<!-- Node21&#45;&gt;Node10 -->
<g id="edge29" class="edge">
<title>Node21&#45;&gt;Node10</title>
<path fill="none" stroke="midnightblue" d="M690.55,-179.48C694.71,-156.62 702.95,-111.3 707.6,-85.71"/>
<polygon fill="midnightblue" stroke="midnightblue" points="711.06,-86.25 709.4,-75.79 704.17,-85 711.06,-86.25"/>
</g>
<!-- Node21&#45;&gt;Node20 -->
<g id="edge28" class="edge">
<title>Node21&#45;&gt;Node20</title>
<path fill="none" stroke="midnightblue" d="M678.45,-179.4C671.73,-169.46 662.69,-156.11 655.56,-145.57"/>
<polygon fill="midnightblue" stroke="midnightblue" points="658.39,-143.51 649.89,-137.19 652.59,-147.44 658.39,-143.51"/>
</g>
<!-- Node24&#45;&gt;Node10 -->
<g id="edge37" class="edge">
<title>Node24&#45;&gt;Node10</title>
<path fill="none" stroke="midnightblue" d="M788.93,-380.37C795.26,-356.35 807,-305.95 807,-262.5 807,-262.5 807,-262.5 807,-193.5 807,-144.53 760.78,-102.61 732.48,-81.54"/>
<polygon fill="midnightblue" stroke="midnightblue" points="734.51,-78.69 724.35,-75.68 730.42,-84.37 734.51,-78.69"/>
</g>
</g>
</svg>
