<?xml version="1.0" encoding="UTF-8" standalone="no"?>
<!DOCTYPE svg PUBLIC "-//W3C//DTD SVG 1.1//EN"
 "http://www.w3.org/Graphics/SVG/1.1/DTD/svg11.dtd">
<!-- Generated by graphviz version 3.0.0 (20220413.0106)
 -->
<!-- Title: include/yaclib/coroutine/detail/promise_type.hpp Pages: 1 -->
<!--zoomable 486 -->
<svg id="main" version="1.1" xmlns="http://www.w3.org/2000/svg" xmlns:xlink="http://www.w3.org/1999/xlink" xml:space="preserve" onload="init(evt)">
<style type="text/css"><![CDATA[
.edge:hover path { stroke: red; }
.edge:hover polygon { stroke: red; fill: red; }
]]></style>
<script type="text/javascript"><![CDATA[
var edges = document.getElementsByTagName('g');
if (edges && edges.length) {
  for (var i=0;i<edges.length;i++) {
    if (edges[i].id.substr(0,4)=='edge') {
      edges[i].setAttribute('class','edge');
    }
  }
}
]]></script>
        <defs>
                <circle id="rim" cx="0" cy="0" r="7"/>
                <circle id="rim2" cx="0" cy="0" r="3.5"/>
                <g id="zoomPlus">
                        <use xlink:href="#rim" fill="#404040">
                                <set attributeName="fill" to="#808080" begin="zoomplus.mouseover" end="zoomplus.mouseout"/>
                        </use>
                        <path d="M-4,0h8M0,-4v8" fill="none" stroke="white" stroke-width="1.5" pointer-events="none"/>
                </g>
                <g id="zoomMin">
                        <use xlink:href="#rim" fill="#404040">
                                <set attributeName="fill" to="#808080" begin="zoomminus.mouseover" end="zoomminus.mouseout"/>
                        </use>
                        <path d="M-4,0h8" fill="none" stroke="white" stroke-width="1.5" pointer-events="none"/>
                </g>
                <g id="dirArrow">
                        <path fill="none" stroke="white" stroke-width="1.5" d="M0,-3.0v7 M-2.5,-0.5L0,-3.0L2.5,-0.5"/>
                </g>
               <g id="resetDef">
                       <use xlink:href="#rim2" fill="#404040">
                               <set attributeName="fill" to="#808080" begin="reset.mouseover" end="reset.mouseout"/>
                       </use>
               </g>
        </defs>

<script type="text/javascript">
var viewWidth = 1217;
var viewHeight = 486;
var sectionId = 'dynsection-0';
</script>
<script xlink:href="svgpan.js"/>
<svg id="graph" class="graph">
<g id="viewport">
<title>include/yaclib/coroutine/detail/promise_type.hpp</title>
<!-- Node1 -->
<g id="node1" class="node">
<title>Node1</title>
<g id="a_node1"><a xlink:title=" ">
<polygon fill="#bfbfbf" stroke="black" points="821,-447.5 821,-477.5 943,-477.5 943,-447.5 821,-447.5"/>
<text text-anchor="start" x="829" y="-465.5" font-family="Helvetica,sans-Serif" font-size="10.00">include/yaclib/coroutine</text>
<text text-anchor="middle" x="882" y="-454.5" font-family="Helvetica,sans-Serif" font-size="10.00">/detail/promise_type.hpp</text>
</a>
</g>
</g>
<!-- Node2 -->
<g id="node2" class="node">
<title>Node2</title>
<g id="a_node2"><a xlink:href="result__core_8hpp.html" target="_top" xlink:title=" ">
<polygon fill="none" stroke="black" points="480,-380.5 480,-410.5 576,-410.5 576,-380.5 480,-380.5"/>
<text text-anchor="start" x="488" y="-398.5" font-family="Helvetica,sans-Serif" font-size="10.00">yaclib/async/detail</text>
<text text-anchor="middle" x="528" y="-387.5" font-family="Helvetica,sans-Serif" font-size="10.00">/result_core.hpp</text>
</a>
</g>
</g>
<!-- Node1&#45;&gt;Node2 -->
<g id="edge1" class="edge">
<title>Node1&#45;&gt;Node2</title>
<path fill="none" stroke="midnightblue" d="M820.74,-450.25C754.81,-438.15 650.72,-419.03 586.06,-407.16"/>
<polygon fill="midnightblue" stroke="midnightblue" points="586.5,-403.68 576.03,-405.32 585.23,-410.57 586.5,-403.68"/>
</g>
<!-- Node12 -->
<g id="node12" class="node">
<title>Node12</title>
<g id="a_node12"><a xlink:href="intrusive__ptr_8hpp.html" target="_top" xlink:title=" ">
<polygon fill="none" stroke="black" points="92.5,-179.5 92.5,-209.5 189.5,-209.5 189.5,-179.5 92.5,-179.5"/>
<text text-anchor="start" x="100.5" y="-197.5" font-family="Helvetica,sans-Serif" font-size="10.00">yaclib/util/intrusive</text>
<text text-anchor="middle" x="141" y="-186.5" font-family="Helvetica,sans-Serif" font-size="10.00">_ptr.hpp</text>
</a>
</g>
</g>
<!-- Node1&#45;&gt;Node12 -->
<g id="edge41" class="edge">
<title>Node1&#45;&gt;Node12</title>
<path fill="none" stroke="midnightblue" d="M820.76,-456.45C675.2,-443.55 313,-405.99 210,-344 175.5,-323.23 165.35,-313.8 149,-277 141,-258.99 139.31,-236.58 139.46,-219.83"/>
<polygon fill="midnightblue" stroke="midnightblue" points="142.96,-219.83 139.76,-209.73 135.96,-219.62 142.96,-219.83"/>
</g>
<!-- Node21 -->
<g id="node21" class="node">
<title>Node21</title>
<g id="a_node21"><a xlink:title=" ">
<polygon fill="none" stroke="#bfbfbf" points="815,-185 815,-204 873,-204 873,-185 815,-185"/>
<text text-anchor="middle" x="844" y="-192" font-family="Helvetica,sans-Serif" font-size="10.00">exception</text>
</a>
</g>
</g>
<!-- Node1&#45;&gt;Node21 -->
<g id="edge42" class="edge">
<title>Node1&#45;&gt;Node21</title>
<path fill="none" stroke="midnightblue" d="M879.96,-447.2C873.55,-402.35 853.85,-264.45 846.66,-214.13"/>
<polygon fill="midnightblue" stroke="midnightblue" points="850.1,-213.45 845.22,-204.05 843.17,-214.44 850.1,-213.45"/>
</g>
<!-- Node23 -->
<g id="node23" class="node">
<title>Node23</title>
<g id="a_node23"><a xlink:href="coroutine_8hpp.html" target="_top" xlink:title=" ">
<polygon fill="none" stroke="black" points="1063.5,-386 1063.5,-405 1208.5,-405 1208.5,-386 1063.5,-386"/>
<text text-anchor="middle" x="1136" y="-393" font-family="Helvetica,sans-Serif" font-size="10.00">yaclib/coroutine/coroutine.hpp</text>
</a>
</g>
</g>
<!-- Node1&#45;&gt;Node23 -->
<g id="edge34" class="edge">
<title>Node1&#45;&gt;Node23</title>
<path fill="none" stroke="midnightblue" d="M936.8,-447.48C983.52,-435.52 1049.75,-418.57 1092.79,-407.56"/>
<polygon fill="midnightblue" stroke="midnightblue" points="1093.85,-410.9 1102.67,-405.03 1092.12,-404.12 1093.85,-410.9"/>
</g>
<!-- Node25 -->
<g id="node25" class="node">
<title>Node25</title>
<g id="a_node25"><a xlink:href="atomic__counter_8hpp.html" target="_top" xlink:title=" ">
<polygon fill="none" stroke="black" points="941,-380.5 941,-410.5 1045,-410.5 1045,-380.5 941,-380.5"/>
<text text-anchor="start" x="949" y="-398.5" font-family="Helvetica,sans-Serif" font-size="10.00">yaclib/util/detail</text>
<text text-anchor="middle" x="993" y="-387.5" font-family="Helvetica,sans-Serif" font-size="10.00">/atomic_counter.hpp</text>
</a>
</g>
</g>
<!-- Node1&#45;&gt;Node25 -->
<g id="edge36" class="edge">
<title>Node1&#45;&gt;Node25</title>
<path fill="none" stroke="midnightblue" d="M906.09,-447.4C921.94,-438.11 942.89,-425.84 960.26,-415.67"/>
<polygon fill="midnightblue" stroke="midnightblue" points="962.1,-418.65 968.96,-410.58 958.56,-412.61 962.1,-418.65"/>
</g>
<!-- Node3 -->
<g id="node3" class="node">
<title>Node3</title>
<g id="a_node3"><a xlink:href="base__core_8hpp.html" target="_top" xlink:title=" ">
<polygon fill="none" stroke="black" points="322,-313.5 322,-343.5 418,-343.5 418,-313.5 322,-313.5"/>
<text text-anchor="start" x="330" y="-331.5" font-family="Helvetica,sans-Serif" font-size="10.00">yaclib/async/detail</text>
<text text-anchor="middle" x="370" y="-320.5" font-family="Helvetica,sans-Serif" font-size="10.00">/base_core.hpp</text>
</a>
</g>
</g>
<!-- Node2&#45;&gt;Node3 -->
<g id="edge2" class="edge">
<title>Node2&#45;&gt;Node3</title>
<path fill="none" stroke="midnightblue" d="M493.72,-380.4C470.22,-370.73 438.85,-357.82 413.57,-347.43"/>
<polygon fill="midnightblue" stroke="midnightblue" points="414.8,-344.14 404.22,-343.58 412.13,-350.62 414.8,-344.14"/>
</g>
<!-- Node4 -->
<g id="node4" class="node">
<title>Node4</title>
<g id="a_node4"><a xlink:href="inline__core_8hpp.html" target="_top" xlink:title=" ">
<polygon fill="none" stroke="black" points="404,-246.5 404,-276.5 500,-276.5 500,-246.5 404,-246.5"/>
<text text-anchor="start" x="412" y="-264.5" font-family="Helvetica,sans-Serif" font-size="10.00">yaclib/async/detail</text>
<text text-anchor="middle" x="452" y="-253.5" font-family="Helvetica,sans-Serif" font-size="10.00">/inline_core.hpp</text>
</a>
</g>
</g>
<!-- Node2&#45;&gt;Node4 -->
<g id="edge21" class="edge">
<title>Node2&#45;&gt;Node4</title>
<path fill="none" stroke="midnightblue" d="M519.87,-380.37C506.78,-357.65 480.93,-312.75 465.19,-285.4"/>
<polygon fill="midnightblue" stroke="midnightblue" points="468.1,-283.44 460.07,-276.52 462.03,-286.94 468.1,-283.44"/>
</g>
<!-- Node10 -->
<g id="node10" class="node">
<title>Node10</title>
<g id="a_node10"><a xlink:title=" ">
<polygon fill="none" stroke="#bfbfbf" points="900.5,-56.5 900.5,-75.5 939.5,-75.5 939.5,-56.5 900.5,-56.5"/>
<text text-anchor="middle" x="920" y="-63.5" font-family="Helvetica,sans-Serif" font-size="10.00">utility</text>
</a>
</g>
</g>
<!-- Node2&#45;&gt;Node10 -->
<g id="edge33" class="edge">
<title>Node2&#45;&gt;Node10</title>
<path fill="none" stroke="midnightblue" d="M576.07,-388.62C680.74,-374.48 920,-334.31 920,-262.5 920,-262.5 920,-262.5 920,-193.5 920,-155.2 920,-110.38 920,-85.7"/>
<polygon fill="midnightblue" stroke="midnightblue" points="923.5,-85.59 920,-75.59 916.5,-85.59 923.5,-85.59"/>
</g>
<!-- Node2&#45;&gt;Node12 -->
<g id="edge22" class="edge">
<title>Node2&#45;&gt;Node12</title>
<path fill="none" stroke="midnightblue" d="M479.75,-393.09C402.49,-388.12 251.46,-366.71 170,-277 155.54,-261.07 148.18,-237.45 144.5,-219.73"/>
<polygon fill="midnightblue" stroke="midnightblue" points="147.89,-218.79 142.66,-209.58 141,-220.04 147.89,-218.79"/>
</g>
<!-- Node17 -->
<g id="node17" class="node">
<title>Node17</title>
<g id="a_node17"><a xlink:href="result_8hpp.html" target="_top" xlink:title=" ">
<polygon fill="none" stroke="black" points="635,-319 635,-338 737,-338 737,-319 635,-319"/>
<text text-anchor="middle" x="686" y="-326" font-family="Helvetica,sans-Serif" font-size="10.00">yaclib/util/result.hpp</text>
</a>
</g>
</g>
<!-- Node2&#45;&gt;Node17 -->
<g id="edge23" class="edge">
<title>Node2&#45;&gt;Node17</title>
<path fill="none" stroke="midnightblue" d="M562.28,-380.4C590.13,-368.94 629.03,-352.94 655.73,-341.95"/>
<polygon fill="midnightblue" stroke="midnightblue" points="657.41,-345.05 665.32,-338.01 654.74,-338.57 657.41,-345.05"/>
</g>
<!-- Node3&#45;&gt;Node4 -->
<g id="edge3" class="edge">
<title>Node3&#45;&gt;Node4</title>
<path fill="none" stroke="midnightblue" d="M387.79,-313.4C399.08,-304.45 413.85,-292.74 426.39,-282.8"/>
<polygon fill="midnightblue" stroke="midnightblue" points="428.58,-285.53 434.24,-276.58 424.23,-280.05 428.58,-285.53"/>
</g>
<!-- Node8 -->
<g id="node8" class="node">
<title>Node8</title>
<g id="a_node8"><a xlink:href="ref_8hpp.html" target="_top" xlink:title=" ">
<polygon fill="none" stroke="black" points="173.5,-56.5 173.5,-75.5 262.5,-75.5 262.5,-56.5 173.5,-56.5"/>
<text text-anchor="middle" x="218" y="-63.5" font-family="Helvetica,sans-Serif" font-size="10.00">yaclib/util/ref.hpp</text>
</a>
</g>
</g>
<!-- Node3&#45;&gt;Node8 -->
<g id="edge19" class="edge">
<title>Node3&#45;&gt;Node8</title>
<path fill="none" stroke="midnightblue" d="M321.8,-321.99C292.51,-315.97 257,-303.37 237,-277 193.2,-219.28 205.77,-125.28 213.73,-85.61"/>
<polygon fill="midnightblue" stroke="midnightblue" points="217.17,-86.24 215.85,-75.73 210.33,-84.77 217.17,-86.24"/>
</g>
<!-- Node11 -->
<g id="node11" class="node">
<title>Node11</title>
<g id="a_node11"><a xlink:href="executor_8hpp.html" target="_top" xlink:title=" ">
<polygon fill="none" stroke="black" points="246.5,-252 246.5,-271 385.5,-271 385.5,-252 246.5,-252"/>
<text text-anchor="middle" x="316" y="-259" font-family="Helvetica,sans-Serif" font-size="10.00">yaclib/executor/executor.hpp</text>
</a>
</g>
</g>
<!-- Node3&#45;&gt;Node11 -->
<g id="edge10" class="edge">
<title>Node3&#45;&gt;Node11</title>
<path fill="none" stroke="midnightblue" d="M358.28,-313.4C349.86,-303.26 338.49,-289.57 329.66,-278.94"/>
<polygon fill="midnightblue" stroke="midnightblue" points="332.31,-276.65 323.22,-271.19 326.92,-281.12 332.31,-276.65"/>
</g>
<!-- Node3&#45;&gt;Node12 -->
<g id="edge18" class="edge">
<title>Node3&#45;&gt;Node12</title>
<path fill="none" stroke="midnightblue" d="M321.88,-320.9C286.76,-314.27 239.33,-301.38 204,-277 182.19,-261.95 164.52,-237.02 153.51,-218.69"/>
<polygon fill="midnightblue" stroke="midnightblue" points="156.4,-216.7 148.37,-209.79 150.34,-220.2 156.4,-216.7"/>
</g>
<!-- Node16 -->
<g id="node16" class="node">
<title>Node16</title>
<g id="a_node16"><a xlink:title=" ">
<polygon fill="none" stroke="#bfbfbf" points="660,-252 660,-271 752,-271 752,-252 660,-252"/>
<text text-anchor="middle" x="706" y="-259" font-family="Helvetica,sans-Serif" font-size="10.00">yaclib_std/atomic</text>
</a>
</g>
</g>
<!-- Node3&#45;&gt;Node16 -->
<g id="edge20" class="edge">
<title>Node3&#45;&gt;Node16</title>
<path fill="none" stroke="midnightblue" d="M418.21,-320.04C474.37,-311.07 569.82,-294.97 651,-277 655.69,-275.96 660.59,-274.79 665.45,-273.58"/>
<polygon fill="midnightblue" stroke="midnightblue" points="666.45,-276.94 675.27,-271.07 664.72,-270.16 666.45,-276.94"/>
</g>
<!-- Node5 -->
<g id="node5" class="node">
<title>Node5</title>
<g id="a_node5"><a xlink:href="job_8hpp.html" target="_top" xlink:title=" ">
<polygon fill="none" stroke="black" points="320.5,-185 320.5,-204 435.5,-204 435.5,-185 320.5,-185"/>
<text text-anchor="middle" x="378" y="-192" font-family="Helvetica,sans-Serif" font-size="10.00">yaclib/executor/job.hpp</text>
</a>
</g>
</g>
<!-- Node4&#45;&gt;Node5 -->
<g id="edge4" class="edge">
<title>Node4&#45;&gt;Node5</title>
<path fill="none" stroke="midnightblue" d="M435.94,-246.4C424.06,-235.96 407.89,-221.75 395.64,-211"/>
<polygon fill="midnightblue" stroke="midnightblue" points="397.72,-208.16 387.9,-204.19 393.1,-213.42 397.72,-208.16"/>
</g>
<!-- Node6 -->
<g id="node6" class="node">
<title>Node6</title>
<g id="a_node6"><a xlink:href="node_8hpp.html" target="_top" xlink:title=" ">
<polygon fill="none" stroke="black" points="287.5,-112.5 287.5,-142.5 370.5,-142.5 370.5,-112.5 287.5,-112.5"/>
<text text-anchor="start" x="295.5" y="-130.5" font-family="Helvetica,sans-Serif" font-size="10.00">yaclib/util/detail</text>
<text text-anchor="middle" x="329" y="-119.5" font-family="Helvetica,sans-Serif" font-size="10.00">/node.hpp</text>
</a>
</g>
</g>
<!-- Node5&#45;&gt;Node6 -->
<g id="edge5" class="edge">
<title>Node5&#45;&gt;Node6</title>
<path fill="none" stroke="midnightblue" d="M371.39,-184.73C364.83,-176.03 354.51,-162.34 345.7,-150.65"/>
<polygon fill="midnightblue" stroke="midnightblue" points="348.44,-148.47 339.62,-142.59 342.85,-152.68 348.44,-148.47"/>
</g>
<!-- Node7 -->
<g id="node7" class="node">
<title>Node7</title>
<g id="a_node7"><a xlink:href="func_8hpp.html" target="_top" xlink:title=" ">
<polygon fill="none" stroke="black" points="388.5,-118 388.5,-137 485.5,-137 485.5,-118 388.5,-118"/>
<text text-anchor="middle" x="437" y="-125" font-family="Helvetica,sans-Serif" font-size="10.00">yaclib/util/func.hpp</text>
</a>
</g>
</g>
<!-- Node5&#45;&gt;Node7 -->
<g id="edge6" class="edge">
<title>Node5&#45;&gt;Node7</title>
<path fill="none" stroke="midnightblue" d="M385.96,-184.73C395.25,-174.5 410.8,-157.36 422.3,-144.69"/>
<polygon fill="midnightblue" stroke="midnightblue" points="425.04,-146.88 429.17,-137.13 419.86,-142.18 425.04,-146.88"/>
</g>
<!-- Node7&#45;&gt;Node8 -->
<g id="edge7" class="edge">
<title>Node7&#45;&gt;Node8</title>
<path fill="none" stroke="midnightblue" d="M405.62,-117.98C367.08,-107.5 301.59,-89.71 259.08,-78.16"/>
<polygon fill="midnightblue" stroke="midnightblue" points="259.89,-74.75 249.32,-75.51 258.05,-81.51 259.89,-74.75"/>
</g>
<!-- Node9 -->
<g id="node9" class="node">
<title>Node9</title>
<g id="a_node9"><a xlink:title=" ">
<polygon fill="none" stroke="#bfbfbf" points="444,-56.5 444,-75.5 506,-75.5 506,-56.5 444,-56.5"/>
<text text-anchor="middle" x="475" y="-63.5" font-family="Helvetica,sans-Serif" font-size="10.00">type_traits</text>
</a>
</g>
</g>
<!-- Node7&#45;&gt;Node9 -->
<g id="edge8" class="edge">
<title>Node7&#45;&gt;Node9</title>
<path fill="none" stroke="midnightblue" d="M442.44,-117.98C448.09,-109.14 457.06,-95.09 464.16,-83.98"/>
<polygon fill="midnightblue" stroke="midnightblue" points="467.13,-85.82 469.57,-75.51 461.23,-82.05 467.13,-85.82"/>
</g>
<!-- Node7&#45;&gt;Node10 -->
<g id="edge9" class="edge">
<title>Node7&#45;&gt;Node10</title>
<path fill="none" stroke="midnightblue" d="M485.79,-118.8C500.91,-116.5 517.63,-114.05 533,-112 665.78,-94.26 824.73,-77.04 889.89,-70.15"/>
<polygon fill="midnightblue" stroke="midnightblue" points="890.66,-73.59 900.24,-69.06 889.92,-66.62 890.66,-73.59"/>
</g>
<!-- Node11&#45;&gt;Node5 -->
<g id="edge11" class="edge">
<title>Node11&#45;&gt;Node5</title>
<path fill="none" stroke="midnightblue" d="M324.36,-251.73C334.12,-241.5 350.47,-224.36 362.55,-211.69"/>
<polygon fill="midnightblue" stroke="midnightblue" points="365.4,-213.78 369.77,-204.13 360.34,-208.95 365.4,-213.78"/>
</g>
<!-- Node11&#45;&gt;Node12 -->
<g id="edge12" class="edge">
<title>Node11&#45;&gt;Node12</title>
<path fill="none" stroke="midnightblue" d="M292.76,-251.87C266.27,-242.03 222.28,-225.69 188.46,-213.13"/>
<polygon fill="midnightblue" stroke="midnightblue" points="189.36,-209.73 178.77,-209.53 186.92,-216.29 189.36,-209.73"/>
</g>
<!-- Node12&#45;&gt;Node8 -->
<g id="edge13" class="edge">
<title>Node12&#45;&gt;Node8</title>
<path fill="none" stroke="midnightblue" d="M142.92,-179.22C145.75,-162.1 152.26,-133.08 166,-112 173.74,-100.12 185.49,-89.58 195.86,-81.69"/>
<polygon fill="midnightblue" stroke="midnightblue" points="198.07,-84.41 204.13,-75.72 193.98,-78.74 198.07,-84.41"/>
</g>
<!-- Node12&#45;&gt;Node9 -->
<g id="edge14" class="edge">
<title>Node12&#45;&gt;Node9</title>
<path fill="none" stroke="midnightblue" d="M160.4,-179.28C186.07,-161.11 233.29,-129.89 278,-112 329.69,-91.32 392.99,-78.99 433.65,-72.6"/>
<polygon fill="midnightblue" stroke="midnightblue" points="434.37,-76.03 443.73,-71.06 433.32,-69.11 434.37,-76.03"/>
</g>
<!-- Node13 -->
<g id="node13" class="node">
<title>Node13</title>
<g id="a_node13"><a xlink:href="intrusive__ptr__impl_8hpp.html" target="_top" xlink:title=" ">
<polygon fill="none" stroke="black" points="0,-112.5 0,-142.5 114,-142.5 114,-112.5 0,-112.5"/>
<text text-anchor="start" x="8" y="-130.5" font-family="Helvetica,sans-Serif" font-size="10.00">yaclib/util/detail</text>
<text text-anchor="middle" x="57" y="-119.5" font-family="Helvetica,sans-Serif" font-size="10.00">/intrusive_ptr_impl.hpp</text>
</a>
</g>
</g>
<!-- Node12&#45;&gt;Node13 -->
<g id="edge15" class="edge">
<title>Node12&#45;&gt;Node13</title>
<path fill="none" stroke="midnightblue" d="M122.77,-179.4C111.22,-170.45 96.08,-158.74 83.24,-148.8"/>
<polygon fill="midnightblue" stroke="midnightblue" points="85.24,-145.93 75.19,-142.58 80.96,-151.46 85.24,-145.93"/>
</g>
<!-- Node14 -->
<g id="node14" class="node">
<title>Node14</title>
<g id="a_node14"><a xlink:href="log_8hpp.html" target="_top" xlink:title=" ">
<polygon fill="none" stroke="black" points="19.5,-56.5 19.5,-75.5 94.5,-75.5 94.5,-56.5 19.5,-56.5"/>
<text text-anchor="middle" x="57" y="-63.5" font-family="Helvetica,sans-Serif" font-size="10.00">yaclib/log.hpp</text>
</a>
</g>
</g>
<!-- Node13&#45;&gt;Node14 -->
<g id="edge16" class="edge">
<title>Node13&#45;&gt;Node14</title>
<path fill="none" stroke="midnightblue" d="M57,-112.4C57,-104.47 57,-94.46 57,-85.86"/>
<polygon fill="midnightblue" stroke="midnightblue" points="60.5,-85.66 57,-75.66 53.5,-85.66 60.5,-85.66"/>
</g>
<!-- Node15 -->
<g id="node15" class="node">
<title>Node15</title>
<g id="a_node15"><a xlink:title=" ">
<polygon fill="none" stroke="#bfbfbf" points="24,-0.5 24,-19.5 90,-19.5 90,-0.5 24,-0.5"/>
<text text-anchor="middle" x="57" y="-7.5" font-family="Helvetica,sans-Serif" font-size="10.00">string_view</text>
</a>
</g>
</g>
<!-- Node14&#45;&gt;Node15 -->
<g id="edge17" class="edge">
<title>Node14&#45;&gt;Node15</title>
<path fill="none" stroke="midnightblue" d="M57,-56.08C57,-49.01 57,-38.86 57,-29.99"/>
<polygon fill="midnightblue" stroke="midnightblue" points="60.5,-29.75 57,-19.75 53.5,-29.75 60.5,-29.75"/>
</g>
<!-- Node18 -->
<g id="node18" class="node">
<title>Node18</title>
<g id="a_node18"><a xlink:href="type__traits_8hpp.html" target="_top" xlink:title=" ">
<polygon fill="none" stroke="black" points="518.5,-252 518.5,-271 641.5,-271 641.5,-252 518.5,-252"/>
<text text-anchor="middle" x="580" y="-259" font-family="Helvetica,sans-Serif" font-size="10.00">yaclib/util/type_traits.hpp</text>
</a>
</g>
</g>
<!-- Node17&#45;&gt;Node18 -->
<g id="edge24" class="edge">
<title>Node17&#45;&gt;Node18</title>
<path fill="none" stroke="midnightblue" d="M671.7,-318.73C653.98,-307.87 623.57,-289.22 602.66,-276.39"/>
<polygon fill="midnightblue" stroke="midnightblue" points="604.42,-273.37 594.07,-271.13 600.76,-279.34 604.42,-273.37"/>
</g>
<!-- Node17&#45;&gt;Node21 -->
<g id="edge31" class="edge">
<title>Node17&#45;&gt;Node21</title>
<path fill="none" stroke="midnightblue" d="M737.09,-321.13C766.8,-314.79 802.68,-302.16 825,-277 840.26,-259.8 843.91,-232.72 844.48,-214.55"/>
<polygon fill="midnightblue" stroke="midnightblue" points="847.98,-214.33 844.5,-204.32 840.98,-214.31 847.98,-214.33"/>
</g>
<!-- Node22 -->
<g id="node22" class="node">
<title>Node22</title>
<g id="a_node22"><a xlink:title=" ">
<polygon fill="none" stroke="#bfbfbf" points="770,-252 770,-271 816,-271 816,-252 770,-252"/>
<text text-anchor="middle" x="793" y="-259" font-family="Helvetica,sans-Serif" font-size="10.00">variant</text>
</a>
</g>
</g>
<!-- Node17&#45;&gt;Node22 -->
<g id="edge32" class="edge">
<title>Node17&#45;&gt;Node22</title>
<path fill="none" stroke="midnightblue" d="M700.43,-318.73C718.32,-307.87 749.02,-289.22 770.13,-276.39"/>
<polygon fill="midnightblue" stroke="midnightblue" points="772.07,-279.31 778.8,-271.13 768.43,-273.33 772.07,-279.31"/>
</g>
<!-- Node18&#45;&gt;Node9 -->
<g id="edge30" class="edge">
<title>Node18&#45;&gt;Node9</title>
<path fill="none" stroke="midnightblue" d="M575.35,-251.94C559.4,-222.54 506.65,-125.32 484.71,-84.89"/>
<polygon fill="midnightblue" stroke="midnightblue" points="487.68,-83.03 479.83,-75.91 481.53,-86.37 487.68,-83.03"/>
</g>
<!-- Node19 -->
<g id="node19" class="node">
<title>Node19</title>
<g id="a_node19"><a xlink:href="fwd_8hpp.html" target="_top" xlink:title=" ">
<polygon fill="none" stroke="black" points="542,-118 542,-137 620,-137 620,-118 542,-118"/>
<text text-anchor="middle" x="581" y="-125" font-family="Helvetica,sans-Serif" font-size="10.00">yaclib/fwd.hpp</text>
</a>
</g>
</g>
<!-- Node18&#45;&gt;Node19 -->
<g id="edge25" class="edge">
<title>Node18&#45;&gt;Node19</title>
<path fill="none" stroke="midnightblue" d="M580.07,-251.84C580.23,-230.67 580.64,-175.95 580.86,-147.03"/>
<polygon fill="midnightblue" stroke="midnightblue" points="584.36,-147.05 580.94,-137.02 577.36,-146.99 584.36,-147.05"/>
</g>
<!-- Node20 -->
<g id="node20" class="node">
<title>Node20</title>
<g id="a_node20"><a xlink:href="type__traits__impl_8hpp.html" target="_top" xlink:title=" ">
<polygon fill="none" stroke="black" points="595,-179.5 595,-209.5 701,-209.5 701,-179.5 595,-179.5"/>
<text text-anchor="start" x="603" y="-197.5" font-family="Helvetica,sans-Serif" font-size="10.00">yaclib/util/detail</text>
<text text-anchor="middle" x="648" y="-186.5" font-family="Helvetica,sans-Serif" font-size="10.00">/type_traits_impl.hpp</text>
</a>
</g>
</g>
<!-- Node18&#45;&gt;Node20 -->
<g id="edge26" class="edge">
<title>Node18&#45;&gt;Node20</title>
<path fill="none" stroke="midnightblue" d="M589.17,-251.73C598.54,-242.78 613.43,-228.54 625.89,-216.63"/>
<polygon fill="midnightblue" stroke="midnightblue" points="628.45,-219.03 633.26,-209.59 623.61,-213.97 628.45,-219.03"/>
</g>
<!-- Node18&#45;&gt;Node21 -->
<g id="edge29" class="edge">
<title>Node18&#45;&gt;Node21</title>
<path fill="none" stroke="midnightblue" d="M614.78,-251.94C664.01,-239.82 753.7,-217.73 805.08,-205.08"/>
<polygon fill="midnightblue" stroke="midnightblue" points="805.95,-208.47 814.83,-202.68 804.28,-201.68 805.95,-208.47"/>
</g>
<!-- Node20&#45;&gt;Node9 -->
<g id="edge28" class="edge">
<title>Node20&#45;&gt;Node9</title>
<path fill="none" stroke="midnightblue" d="M648.75,-179.42C648.91,-161.41 646.38,-130.36 629,-112 600.03,-81.38 551.49,-71.24 516.64,-68.06"/>
<polygon fill="midnightblue" stroke="midnightblue" points="516.54,-64.54 506.31,-67.28 516.01,-71.52 516.54,-64.54"/>
</g>
<!-- Node20&#45;&gt;Node19 -->
<g id="edge27" class="edge">
<title>Node20&#45;&gt;Node19</title>
<path fill="none" stroke="midnightblue" d="M633.46,-179.4C622.81,-169.06 608.34,-155.02 597.3,-144.31"/>
<polygon fill="midnightblue" stroke="midnightblue" points="599.58,-141.65 589.96,-137.19 594.7,-146.67 599.58,-141.65"/>
</g>
<!-- Node24 -->
<g id="node24" class="node">
<title>Node24</title>
<g id="a_node24"><a xlink:title=" ">
<polygon fill="none" stroke="#bfbfbf" points="1092,-319 1092,-338 1180,-338 1180,-319 1092,-319"/>
<text text-anchor="middle" x="1136" y="-326" font-family="Helvetica,sans-Serif" font-size="10.00">yaclib/config.hpp</text>
</a>
</g>
</g>
<!-- Node23&#45;&gt;Node24 -->
<g id="edge35" class="edge">
<title>Node23&#45;&gt;Node24</title>
<path fill="none" stroke="midnightblue" d="M1136,-385.73C1136,-376.18 1136,-360.62 1136,-348.28"/>
<polygon fill="midnightblue" stroke="midnightblue" points="1139.5,-348.13 1136,-338.13 1132.5,-348.13 1139.5,-348.13"/>
</g>
<!-- Node25&#45;&gt;Node10 -->
<g id="edge39" class="edge">
<title>Node25&#45;&gt;Node10</title>
<path fill="none" stroke="midnightblue" d="M1012.28,-380.4C1023.46,-371.24 1036.89,-358.35 1045,-344 1063.3,-311.62 1064,-299.69 1064,-262.5 1064,-262.5 1064,-262.5 1064,-193.5 1064,-132.96 991.28,-94.59 949.2,-77.44"/>
<polygon fill="midnightblue" stroke="midnightblue" points="950.31,-74.12 939.72,-73.73 947.75,-80.63 950.31,-74.12"/>
</g>
<!-- Node25&#45;&gt;Node16 -->
<g id="edge40" class="edge">
<title>Node25&#45;&gt;Node16</title>
<path fill="none" stroke="midnightblue" d="M962.56,-380.5C906.6,-354.76 788.2,-300.3 734.07,-275.41"/>
<polygon fill="midnightblue" stroke="midnightblue" points="735.28,-272.12 724.74,-271.12 732.36,-278.48 735.28,-272.12"/>
</g>
<!-- Node25&#45;&gt;Node24 -->
<g id="edge37" class="edge">
<title>Node25&#45;&gt;Node24</title>
<path fill="none" stroke="midnightblue" d="M1024.03,-380.4C1049.01,-369.04 1083.82,-353.22 1107.96,-342.24"/>
<polygon fill="midnightblue" stroke="midnightblue" points="1109.63,-345.33 1117.28,-338.01 1106.73,-338.96 1109.63,-345.33"/>
</g>
<!-- Node26 -->
<g id="node26" class="node">
<title>Node26</title>
<g id="a_node26"><a xlink:title=" ">
<polygon fill="none" stroke="#bfbfbf" points="986.5,-319 986.5,-338 1035.5,-338 1035.5,-319 986.5,-319"/>
<text text-anchor="middle" x="1011" y="-326" font-family="Helvetica,sans-Serif" font-size="10.00">cstddef</text>
</a>
</g>
</g>
<!-- Node25&#45;&gt;Node26 -->
<g id="edge38" class="edge">
<title>Node25&#45;&gt;Node26</title>
<path fill="none" stroke="midnightblue" d="M996.91,-380.4C999.55,-370.86 1003.06,-358.18 1005.92,-347.86"/>
<polygon fill="midnightblue" stroke="midnightblue" points="1009.3,-348.77 1008.59,-338.19 1002.55,-346.9 1009.3,-348.77"/>
</g>
</g>
</svg>
        <g id="navigator" transform="translate(0 0)" fill="#404254">
                <rect fill="#f2f5e9" fill-opacity="0.5" stroke="#606060" stroke-width=".5" x="0" y="0" width="60" height="60"/>
                <use id="zoomplus" xlink:href="#zoomPlus" x="17" y="9" onmousedown="handleZoom(evt,'in')"/>
                <use id="zoomminus" xlink:href="#zoomMin" x="42" y="9" onmousedown="handleZoom(evt,'out')"/>
                <use id="reset" xlink:href="#resetDef" x="30" y="36" onmousedown="handleReset()"/>
                <g id="arrowUp" xlink:href="#dirArrow" transform="translate(30 24)" onmousedown="handlePan(0,-1)">
                  <use xlink:href="#rim" fill="#404040">
                        <set attributeName="fill" to="#808080" begin="arrowUp.mouseover" end="arrowUp.mouseout"/>
                  </use>
                  <path fill="none" stroke="white" stroke-width="1.5" d="M0,-3.0v7 M-2.5,-0.5L0,-3.0L2.5,-0.5"/>
                </g>
                <g id="arrowRight" xlink:href="#dirArrow" transform="rotate(90) translate(36 -43)" onmousedown="handlePan(1,0)">
                  <use xlink:href="#rim" fill="#404040">
                        <set attributeName="fill" to="#808080" begin="arrowRight.mouseover" end="arrowRight.mouseout"/>
                  </use>
                  <path fill="none" stroke="white" stroke-width="1.5" d="M0,-3.0v7 M-2.5,-0.5L0,-3.0L2.5,-0.5"/>
                </g>
                <g id="arrowDown" xlink:href="#dirArrow" transform="rotate(180) translate(-30 -48)" onmousedown="handlePan(0,1)">
                  <use xlink:href="#rim" fill="#404040">
                        <set attributeName="fill" to="#808080" begin="arrowDown.mouseover" end="arrowDown.mouseout"/>
                  </use>
                  <path fill="none" stroke="white" stroke-width="1.5" d="M0,-3.0v7 M-2.5,-0.5L0,-3.0L2.5,-0.5"/>
                </g>
                <g id="arrowLeft" xlink:href="#dirArrow" transform="rotate(270) translate(-36 17)" onmousedown="handlePan(-1,0)">
                  <use xlink:href="#rim" fill="#404040">
                        <set attributeName="fill" to="#808080" begin="arrowLeft.mouseover" end="arrowLeft.mouseout"/>
                  </use>
                  <path fill="none" stroke="white" stroke-width="1.5" d="M0,-3.0v7 M-2.5,-0.5L0,-3.0L2.5,-0.5"/>
                </g>
        </g>
        <svg viewBox="0 0 15 15" width="100%" height="30px" preserveAspectRatio="xMaxYMin meet">
         <g id="arrow_out" transform="scale(0.3 0.3)">
          <a xlink:href="promise__type_8hpp__incl_org.svg" target="_base">
           <rect id="button" ry="5" rx="5" y="6" x="6" height="38" width="38"
                fill="#f2f5e9" fill-opacity="0.5" stroke="#606060" stroke-width="1.0"/>
           <path id="arrow"
             d="M 11.500037,31.436501 C 11.940474,20.09759 22.043105,11.32322 32.158766,21.979434 L 37.068811,17.246167 C 37.068811,17.246167 37.088388,32 37.088388,32 L 22.160133,31.978069 C 22.160133,31.978069 26.997745,27.140456 26.997745,27.140456 C 18.528582,18.264221 13.291696,25.230495 11.500037,31.436501 z"
             style="fill:#404040;"/>
          </a>
         </g>
        </svg>
</svg>
