<?xml version="1.0" encoding="UTF-8" standalone="no"?>
<!DOCTYPE svg PUBLIC "-//W3C//DTD SVG 1.1//EN"
 "http://www.w3.org/Graphics/SVG/1.1/DTD/svg11.dtd">
<!-- Generated by graphviz version 3.0.0 (20220413.0106)
 -->
<!-- Title: include/yaclib/util/result.hpp Pages: 1 -->
<!--zoomable 508 -->
<svg id="main" version="1.1" xmlns="http://www.w3.org/2000/svg" xmlns:xlink="http://www.w3.org/1999/xlink" xml:space="preserve" onload="init(evt)">
<style type="text/css"><![CDATA[
.edge:hover path { stroke: red; }
.edge:hover polygon { stroke: red; fill: red; }
]]></style>
<script type="text/javascript"><![CDATA[
var edges = document.getElementsByTagName('g');
if (edges && edges.length) {
  for (var i=0;i<edges.length;i++) {
    if (edges[i].id.substr(0,4)=='edge') {
      edges[i].setAttribute('class','edge');
    }
  }
}
]]></script>
        <defs>
                <circle id="rim" cx="0" cy="0" r="7"/>
                <circle id="rim2" cx="0" cy="0" r="3.5"/>
                <g id="zoomPlus">
                        <use xlink:href="#rim" fill="#404040">
                                <set attributeName="fill" to="#808080" begin="zoomplus.mouseover" end="zoomplus.mouseout"/>
                        </use>
                        <path d="M-4,0h8M0,-4v8" fill="none" stroke="white" stroke-width="1.5" pointer-events="none"/>
                </g>
                <g id="zoomMin">
                        <use xlink:href="#rim" fill="#404040">
                                <set attributeName="fill" to="#808080" begin="zoomminus.mouseover" end="zoomminus.mouseout"/>
                        </use>
                        <path d="M-4,0h8" fill="none" stroke="white" stroke-width="1.5" pointer-events="none"/>
                </g>
                <g id="dirArrow">
                        <path fill="none" stroke="white" stroke-width="1.5" d="M0,-3.0v7 M-2.5,-0.5L0,-3.0L2.5,-0.5"/>
                </g>
               <g id="resetDef">
                       <use xlink:href="#rim2" fill="#404040">
                               <set attributeName="fill" to="#808080" begin="reset.mouseover" end="reset.mouseout"/>
                       </use>
               </g>
        </defs>

<script type="text/javascript">
var viewWidth = 1880;
var viewHeight = 508;
var sectionId = 'dynsection-1';
</script>
<script xlink:href="svgpan.js"/>
<svg id="graph" class="graph">
<g id="viewport">
<title>include/yaclib/util/result.hpp</title>
<!-- Node1 -->
<g id="node1" class="node">
<title>Node1</title>
<g id="a_node1"><a xlink:title=" ">
<polygon fill="#bfbfbf" stroke="black" points="877.5,-469.5 877.5,-499.5 968.5,-499.5 968.5,-469.5 877.5,-469.5"/>
<text text-anchor="start" x="885.5" y="-487.5" font-family="Helvetica,sans-Serif" font-size="10.00">include/yaclib/util</text>
<text text-anchor="middle" x="923" y="-476.5" font-family="Helvetica,sans-Serif" font-size="10.00">/result.hpp</text>
</a>
</g>
</g>
<!-- Node2 -->
<g id="node2" class="node">
<title>Node2</title>
<g id="a_node2"><a xlink:href="when__any__impl_8hpp.html" target="_top" xlink:title=" ">
<polygon fill="none" stroke="black" points="384.5,-335.5 384.5,-365.5 515.5,-365.5 515.5,-335.5 384.5,-335.5"/>
<text text-anchor="start" x="392.5" y="-353.5" font-family="Helvetica,sans-Serif" font-size="10.00">include/yaclib/algo</text>
<text text-anchor="middle" x="450" y="-342.5" font-family="Helvetica,sans-Serif" font-size="10.00">/detail/when_any_impl.hpp</text>
</a>
</g>
</g>
<!-- Node1&#45;&gt;Node2 -->
<g id="edge1" class="edge">
<title>Node1&#45;&gt;Node2</title>
<path fill="none" stroke="midnightblue" d="M867.45,-468C774.69,-442.11 589.65,-390.47 500.42,-365.57"/>
<polygon fill="midnightblue" stroke="midnightblue" points="866.64,-471.41 877.22,-470.72 868.53,-464.66 866.64,-471.41"/>
</g>
<!-- Node4 -->
<g id="node4" class="node">
<title>Node4</title>
<g id="a_node4"><a xlink:href="when__any_8cpp.html" target="_top" xlink:title=" ">
<polygon fill="none" stroke="black" points="397.5,-0.5 397.5,-30.5 498.5,-30.5 498.5,-0.5 397.5,-0.5"/>
<text text-anchor="start" x="405.5" y="-18.5" font-family="Helvetica,sans-Serif" font-size="10.00">test/example/async</text>
<text text-anchor="middle" x="448" y="-7.5" font-family="Helvetica,sans-Serif" font-size="10.00">/when_any.cpp</text>
</a>
</g>
</g>
<!-- Node1&#45;&gt;Node4 -->
<g id="edge52" class="edge">
<title>Node1&#45;&gt;Node4</title>
<path fill="none" stroke="midnightblue" d="M866.95,-481.43C666.91,-473.29 0,-439.56 0,-351.5 0,-351.5 0,-351.5 0,-148.5 0,-66.4 280.32,-31.59 397.48,-20.63"/>
<polygon fill="midnightblue" stroke="midnightblue" points="867.1,-484.93 877.23,-481.84 867.38,-477.94 867.1,-484.93"/>
</g>
<!-- Node5 -->
<g id="node5" class="node">
<title>Node5</title>
<g id="a_node5"><a xlink:href="future__impl_8hpp.html" target="_top" xlink:title=" ">
<polygon fill="none" stroke="black" points="757,-268.5 757,-298.5 869,-298.5 869,-268.5 757,-268.5"/>
<text text-anchor="start" x="765" y="-286.5" font-family="Helvetica,sans-Serif" font-size="10.00">include/yaclib/async</text>
<text text-anchor="middle" x="813" y="-275.5" font-family="Helvetica,sans-Serif" font-size="10.00">/detail/future_impl.hpp</text>
</a>
</g>
</g>
<!-- Node1&#45;&gt;Node5 -->
<g id="edge4" class="edge">
<title>Node1&#45;&gt;Node5</title>
<path fill="none" stroke="midnightblue" d="M902.1,-461.7C894.56,-453.16 886.35,-443.03 880,-433 850.79,-386.88 827.54,-325.9 817.87,-298.68"/>
<polygon fill="midnightblue" stroke="midnightblue" points="899.72,-464.29 909.04,-469.34 904.9,-459.58 899.72,-464.29"/>
</g>
<!-- Node9 -->
<g id="node9" class="node">
<title>Node9</title>
<g id="a_node9"><a xlink:href="when__all_8cpp.html" target="_top" xlink:title=" ">
<polygon fill="none" stroke="black" points="1349.5,-0.5 1349.5,-30.5 1450.5,-30.5 1450.5,-0.5 1349.5,-0.5"/>
<text text-anchor="start" x="1357.5" y="-18.5" font-family="Helvetica,sans-Serif" font-size="10.00">test/example/async</text>
<text text-anchor="middle" x="1400" y="-7.5" font-family="Helvetica,sans-Serif" font-size="10.00">/when_all.cpp</text>
</a>
</g>
</g>
<!-- Node1&#45;&gt;Node9 -->
<g id="edge51" class="edge">
<title>Node1&#45;&gt;Node9</title>
<path fill="none" stroke="midnightblue" d="M979.14,-482.03C1130.57,-477.69 1544.95,-463.34 1678,-433 1769.18,-412.21 1872,-445.02 1872,-351.5 1872,-351.5 1872,-351.5 1872,-148.5 1872,-61.71 1572.28,-29.42 1450.51,-19.88"/>
<polygon fill="midnightblue" stroke="midnightblue" points="978.6,-478.54 968.7,-482.32 978.8,-485.54 978.6,-478.54"/>
</g>
<!-- Node16 -->
<g id="node16" class="node">
<title>Node16</title>
<g id="a_node16"><a xlink:href="simple_8cpp.html" target="_top" xlink:title=" ">
<polygon fill="none" stroke="black" points="1509.5,-67.5 1509.5,-97.5 1610.5,-97.5 1610.5,-67.5 1509.5,-67.5"/>
<text text-anchor="start" x="1517.5" y="-85.5" font-family="Helvetica,sans-Serif" font-size="10.00">test/example/async</text>
<text text-anchor="middle" x="1560" y="-74.5" font-family="Helvetica,sans-Serif" font-size="10.00">/simple.cpp</text>
</a>
</g>
</g>
<!-- Node1&#45;&gt;Node16 -->
<g id="edge50" class="edge">
<title>Node1&#45;&gt;Node16</title>
<path fill="none" stroke="midnightblue" d="M979,-481.32C1177.25,-472.88 1834,-438.34 1834,-351.5 1834,-351.5 1834,-351.5 1834,-215.5 1834,-178.31 1841.74,-159.86 1815,-134 1786.45,-106.39 1676.63,-92.88 1610.78,-87.12"/>
<polygon fill="midnightblue" stroke="midnightblue" points="978.65,-477.83 968.8,-481.75 978.94,-484.83 978.65,-477.83"/>
</g>
<!-- Node23 -->
<g id="node23" class="node">
<title>Node23</title>
<g id="a_node23"><a xlink:href="result__core_8hpp.html" target="_top" xlink:title=" ">
<polygon fill="none" stroke="black" points="889,-402.5 889,-432.5 1001,-432.5 1001,-402.5 889,-402.5"/>
<text text-anchor="start" x="897" y="-420.5" font-family="Helvetica,sans-Serif" font-size="10.00">include/yaclib/async</text>
<text text-anchor="middle" x="945" y="-409.5" font-family="Helvetica,sans-Serif" font-size="10.00">/detail/result_core.hpp</text>
</a>
</g>
</g>
<!-- Node1&#45;&gt;Node23 -->
<g id="edge31" class="edge">
<title>Node1&#45;&gt;Node23</title>
<path fill="none" stroke="midnightblue" d="M931.06,-459.7C934.14,-450.59 937.56,-440.49 940.24,-432.58"/>
<polygon fill="midnightblue" stroke="midnightblue" points="927.66,-458.8 927.77,-469.4 934.29,-461.05 927.66,-458.8"/>
</g>
<!-- Node3 -->
<g id="node3" class="node">
<title>Node3</title>
<g id="a_node3"><a xlink:href="when__any_8hpp.html" target="_top" xlink:title=" ">
<polygon fill="none" stroke="black" points="400,-67.5 400,-97.5 496,-97.5 496,-67.5 400,-67.5"/>
<text text-anchor="start" x="408" y="-85.5" font-family="Helvetica,sans-Serif" font-size="10.00">include/yaclib/algo</text>
<text text-anchor="middle" x="448" y="-74.5" font-family="Helvetica,sans-Serif" font-size="10.00">/when_any.hpp</text>
</a>
</g>
</g>
<!-- Node2&#45;&gt;Node3 -->
<g id="edge2" class="edge">
<title>Node2&#45;&gt;Node3</title>
<path fill="none" stroke="midnightblue" d="M373.99,-337.57C233.77,-312.52 -42.56,-247.24 57,-134 79.34,-108.59 300.48,-92.3 399.95,-86.21"/>
<polygon fill="midnightblue" stroke="midnightblue" points="373.79,-341.09 384.25,-339.37 375.01,-334.19 373.79,-341.09"/>
</g>
<!-- Node3&#45;&gt;Node4 -->
<g id="edge3" class="edge">
<title>Node3&#45;&gt;Node4</title>
<path fill="none" stroke="midnightblue" d="M448,-57.11C448,-48.15 448,-38.32 448,-30.58"/>
<polygon fill="midnightblue" stroke="midnightblue" points="444.5,-57.4 448,-67.4 451.5,-57.4 444.5,-57.4"/>
</g>
<!-- Node6 -->
<g id="node6" class="node">
<title>Node6</title>
<g id="a_node6"><a xlink:href="future_8hpp.html" target="_top" xlink:title=" ">
<polygon fill="none" stroke="black" points="835,-201.5 835,-231.5 939,-231.5 939,-201.5 835,-201.5"/>
<text text-anchor="start" x="843" y="-219.5" font-family="Helvetica,sans-Serif" font-size="10.00">include/yaclib/async</text>
<text text-anchor="middle" x="887" y="-208.5" font-family="Helvetica,sans-Serif" font-size="10.00">/future.hpp</text>
</a>
</g>
</g>
<!-- Node5&#45;&gt;Node6 -->
<g id="edge5" class="edge">
<title>Node5&#45;&gt;Node6</title>
<path fill="none" stroke="midnightblue" d="M836.8,-261.6C847.97,-251.78 860.99,-240.34 870.97,-231.58"/>
<polygon fill="midnightblue" stroke="midnightblue" points="834.26,-259.17 829.06,-268.4 838.88,-264.43 834.26,-259.17"/>
</g>
<!-- Node6&#45;&gt;Node3 -->
<g id="edge17" class="edge">
<title>Node6&#45;&gt;Node3</title>
<path fill="none" stroke="midnightblue" d="M824.62,-209.89C710.87,-199.39 480.16,-176.79 467,-165 448.07,-148.03 446.14,-116.18 446.82,-97.72"/>
<polygon fill="midnightblue" stroke="midnightblue" points="824.31,-213.37 834.59,-210.8 824.95,-206.4 824.31,-213.37"/>
</g>
<!-- Node7 -->
<g id="node7" class="node">
<title>Node7</title>
<g id="a_node7"><a xlink:href="when__impl_8hpp.html" target="_top" xlink:title=" ">
<polygon fill="none" stroke="black" points="476,-134.5 476,-164.5 586,-164.5 586,-134.5 476,-134.5"/>
<text text-anchor="start" x="484" y="-152.5" font-family="Helvetica,sans-Serif" font-size="10.00">include/yaclib/algo</text>
<text text-anchor="middle" x="531" y="-141.5" font-family="Helvetica,sans-Serif" font-size="10.00">/detail/when_impl.hpp</text>
</a>
</g>
</g>
<!-- Node6&#45;&gt;Node7 -->
<g id="edge6" class="edge">
<title>Node6&#45;&gt;Node7</title>
<path fill="none" stroke="midnightblue" d="M824.66,-205.14C766.45,-195.32 677.2,-179.9 600,-165 595.55,-164.14 590.95,-163.23 586.33,-162.29"/>
<polygon fill="midnightblue" stroke="midnightblue" points="824.35,-208.64 834.8,-206.85 825.52,-201.73 824.35,-208.64"/>
</g>
<!-- Node8 -->
<g id="node8" class="node">
<title>Node8</title>
<g id="a_node8"><a xlink:href="when__all_8hpp.html" target="_top" xlink:title=" ">
<polygon fill="none" stroke="black" points="1187,-67.5 1187,-97.5 1283,-97.5 1283,-67.5 1187,-67.5"/>
<text text-anchor="start" x="1195" y="-85.5" font-family="Helvetica,sans-Serif" font-size="10.00">include/yaclib/algo</text>
<text text-anchor="middle" x="1235" y="-74.5" font-family="Helvetica,sans-Serif" font-size="10.00">/when_all.hpp</text>
</a>
</g>
</g>
<!-- Node6&#45;&gt;Node8 -->
<g id="edge16" class="edge">
<title>Node6&#45;&gt;Node8</title>
<path fill="none" stroke="midnightblue" d="M949.01,-213.32C1004.21,-209.16 1085.77,-197.48 1149,-165 1165.74,-156.4 1202.49,-118.45 1222.09,-97.5"/>
<polygon fill="midnightblue" stroke="midnightblue" points="948.75,-209.82 939.02,-214.01 949.23,-216.81 948.75,-209.82"/>
</g>
<!-- Node10 -->
<g id="node10" class="node">
<title>Node10</title>
<g id="a_node10"><a xlink:href="wait_8hpp.html" target="_top" xlink:title=" ">
<polygon fill="none" stroke="black" points="324,-134.5 324,-164.5 420,-164.5 420,-134.5 324,-134.5"/>
<text text-anchor="start" x="332" y="-152.5" font-family="Helvetica,sans-Serif" font-size="10.00">include/yaclib/algo</text>
<text text-anchor="middle" x="372" y="-141.5" font-family="Helvetica,sans-Serif" font-size="10.00">/wait.hpp</text>
</a>
</g>
</g>
<!-- Node6&#45;&gt;Node10 -->
<g id="edge10" class="edge">
<title>Node6&#45;&gt;Node10</title>
<path fill="none" stroke="midnightblue" d="M824.7,-210.91C737.07,-203.92 572.59,-188.84 434,-165 429.53,-164.23 424.91,-163.34 420.29,-162.38"/>
<polygon fill="midnightblue" stroke="midnightblue" points="824.5,-214.41 834.74,-211.7 825.05,-207.43 824.5,-214.41"/>
</g>
<!-- Node11 -->
<g id="node11" class="node">
<title>Node11</title>
<g id="a_node11"><a xlink:href="wait__for_8hpp.html" target="_top" xlink:title=" ">
<polygon fill="none" stroke="black" points="930,-134.5 930,-164.5 1026,-164.5 1026,-134.5 930,-134.5"/>
<text text-anchor="start" x="938" y="-152.5" font-family="Helvetica,sans-Serif" font-size="10.00">include/yaclib/algo</text>
<text text-anchor="middle" x="978" y="-141.5" font-family="Helvetica,sans-Serif" font-size="10.00">/wait_for.hpp</text>
</a>
</g>
</g>
<!-- Node6&#45;&gt;Node11 -->
<g id="edge12" class="edge">
<title>Node6&#45;&gt;Node11</title>
<path fill="none" stroke="midnightblue" d="M915.07,-195.45C929.07,-185.45 945.66,-173.6 958.29,-164.58"/>
<polygon fill="midnightblue" stroke="midnightblue" points="912.85,-192.74 906.75,-201.4 916.92,-198.43 912.85,-192.74"/>
</g>
<!-- Node12 -->
<g id="node12" class="node">
<title>Node12</title>
<g id="a_node12"><a xlink:href="wait__group_8hpp.html" target="_top" xlink:title=" ">
<polygon fill="none" stroke="black" points="1044,-134.5 1044,-164.5 1140,-164.5 1140,-134.5 1044,-134.5"/>
<text text-anchor="start" x="1052" y="-152.5" font-family="Helvetica,sans-Serif" font-size="10.00">include/yaclib/algo</text>
<text text-anchor="middle" x="1092" y="-141.5" font-family="Helvetica,sans-Serif" font-size="10.00">/wait_group.hpp</text>
</a>
</g>
</g>
<!-- Node6&#45;&gt;Node12 -->
<g id="edge13" class="edge">
<title>Node6&#45;&gt;Node12</title>
<path fill="none" stroke="midnightblue" d="M940.79,-198.44C974.02,-187.91 1016.15,-174.55 1047.5,-164.61"/>
<polygon fill="midnightblue" stroke="midnightblue" points="939.7,-195.12 931.23,-201.48 941.82,-201.79 939.7,-195.12"/>
</g>
<!-- Node14 -->
<g id="node14" class="node">
<title>Node14</title>
<g id="a_node14"><a xlink:href="wait__until_8hpp.html" target="_top" xlink:title=" ">
<polygon fill="none" stroke="black" points="1196,-134.5 1196,-164.5 1292,-164.5 1292,-134.5 1196,-134.5"/>
<text text-anchor="start" x="1204" y="-152.5" font-family="Helvetica,sans-Serif" font-size="10.00">include/yaclib/algo</text>
<text text-anchor="middle" x="1244" y="-141.5" font-family="Helvetica,sans-Serif" font-size="10.00">/wait_until.hpp</text>
</a>
</g>
</g>
<!-- Node6&#45;&gt;Node14 -->
<g id="edge15" class="edge">
<title>Node6&#45;&gt;Node14</title>
<path fill="none" stroke="midnightblue" d="M949.18,-205.97C1009.02,-196.54 1101.96,-181.19 1182,-165 1186.55,-164.08 1191.28,-163.07 1196,-162.03"/>
<polygon fill="midnightblue" stroke="midnightblue" points="948.47,-202.54 939.13,-207.55 949.55,-209.45 948.47,-202.54"/>
</g>
<!-- Node15 -->
<g id="node15" class="node">
<title>Node15</title>
<g id="a_node15"><a xlink:href="contract_8hpp.html" target="_top" xlink:title=" ">
<polygon fill="none" stroke="black" points="1508,-134.5 1508,-164.5 1612,-164.5 1612,-134.5 1508,-134.5"/>
<text text-anchor="start" x="1516" y="-152.5" font-family="Helvetica,sans-Serif" font-size="10.00">include/yaclib/async</text>
<text text-anchor="middle" x="1560" y="-141.5" font-family="Helvetica,sans-Serif" font-size="10.00">/contract.hpp</text>
</a>
</g>
</g>
<!-- Node6&#45;&gt;Node15 -->
<g id="edge18" class="edge">
<title>Node6&#45;&gt;Node15</title>
<path fill="none" stroke="midnightblue" d="M949.52,-213.05C1059.94,-208.11 1296.47,-194.78 1494,-165 1498.52,-164.32 1503.2,-163.51 1507.88,-162.62"/>
<polygon fill="midnightblue" stroke="midnightblue" points="949.07,-209.56 939.24,-213.5 949.38,-216.56 949.07,-209.56"/>
</g>
<!-- Node6&#45;&gt;Node16 -->
<g id="edge30" class="edge">
<title>Node6&#45;&gt;Node16</title>
<path fill="none" stroke="midnightblue" d="M949.56,-214.64C1078.58,-212.12 1369.72,-202.33 1461,-165 1462.21,-164.5 1515.03,-120.78 1543.01,-97.59"/>
<polygon fill="midnightblue" stroke="midnightblue" points="949.38,-211.14 939.45,-214.83 949.51,-218.14 949.38,-211.14"/>
</g>
<!-- Node17 -->
<g id="node17" class="node">
<title>Node17</title>
<g id="a_node17"><a xlink:href="run_8hpp.html" target="_top" xlink:title=" ">
<polygon fill="none" stroke="black" points="1348,-134.5 1348,-164.5 1452,-164.5 1452,-134.5 1348,-134.5"/>
<text text-anchor="start" x="1356" y="-152.5" font-family="Helvetica,sans-Serif" font-size="10.00">include/yaclib/async</text>
<text text-anchor="middle" x="1400" y="-141.5" font-family="Helvetica,sans-Serif" font-size="10.00">/run.hpp</text>
</a>
</g>
</g>
<!-- Node6&#45;&gt;Node17 -->
<g id="edge20" class="edge">
<title>Node6&#45;&gt;Node17</title>
<path fill="none" stroke="midnightblue" d="M949.04,-208.4C1030.06,-199.03 1176.26,-181.74 1301,-165 1316.24,-162.96 1332.77,-160.59 1347.88,-158.37"/>
<polygon fill="midnightblue" stroke="midnightblue" points="948.54,-204.94 939.01,-209.56 949.34,-211.89 948.54,-204.94"/>
</g>
<!-- Node18 -->
<g id="node18" class="node">
<title>Node18</title>
<g id="a_node18"><a xlink:href="await_8hpp.html" target="_top" xlink:title=" ">
<polygon fill="none" stroke="black" points="555,-67.5 555,-97.5 673,-97.5 673,-67.5 555,-67.5"/>
<text text-anchor="start" x="563" y="-85.5" font-family="Helvetica,sans-Serif" font-size="10.00">include/yaclib/coroutine</text>
<text text-anchor="middle" x="614" y="-74.5" font-family="Helvetica,sans-Serif" font-size="10.00">/await.hpp</text>
</a>
</g>
</g>
<!-- Node6&#45;&gt;Node18 -->
<g id="edge24" class="edge">
<title>Node6&#45;&gt;Node18</title>
<path fill="none" stroke="midnightblue" d="M824.4,-210.74C758.22,-204.42 659.76,-190.89 633,-165 614.73,-147.32 612.56,-115.73 613.02,-97.5"/>
<polygon fill="midnightblue" stroke="midnightblue" points="824.45,-214.26 834.73,-211.7 825.1,-207.29 824.45,-214.26"/>
</g>
<!-- Node19 -->
<g id="node19" class="node">
<title>Node19</title>
<g id="a_node19"><a xlink:href="await__awaiter_8hpp.html" target="_top" xlink:title=" ">
<polygon fill="none" stroke="black" points="642,-134.5 642,-164.5 766,-164.5 766,-134.5 642,-134.5"/>
<text text-anchor="start" x="650" y="-152.5" font-family="Helvetica,sans-Serif" font-size="10.00">include/yaclib/coroutine</text>
<text text-anchor="middle" x="704" y="-141.5" font-family="Helvetica,sans-Serif" font-size="10.00">/detail/await_awaiter.hpp</text>
</a>
</g>
</g>
<!-- Node6&#45;&gt;Node19 -->
<g id="edge25" class="edge">
<title>Node6&#45;&gt;Node19</title>
<path fill="none" stroke="midnightblue" d="M837.6,-197.96C808.13,-187.48 771.19,-174.37 743.63,-164.58"/>
<polygon fill="midnightblue" stroke="midnightblue" points="836.7,-201.35 847.29,-201.4 839.04,-194.75 836.7,-201.35"/>
</g>
<!-- Node21 -->
<g id="node21" class="node">
<title>Node21</title>
<g id="a_node21"><a xlink:href="future__traits_8hpp.html" target="_top" xlink:title=" ">
<polygon fill="none" stroke="black" points="188,-134.5 188,-164.5 306,-164.5 306,-134.5 188,-134.5"/>
<text text-anchor="start" x="196" y="-152.5" font-family="Helvetica,sans-Serif" font-size="10.00">include/yaclib/coroutine</text>
<text text-anchor="middle" x="247" y="-141.5" font-family="Helvetica,sans-Serif" font-size="10.00">/future_traits.hpp</text>
</a>
</g>
</g>
<!-- Node6&#45;&gt;Node21 -->
<g id="edge28" class="edge">
<title>Node6&#45;&gt;Node21</title>
<path fill="none" stroke="midnightblue" d="M824.54,-212.49C719.07,-206.84 499.14,-192.66 315,-165 312.14,-164.57 309.21,-164.09 306.26,-163.58"/>
<polygon fill="midnightblue" stroke="midnightblue" points="824.52,-215.99 834.7,-213.02 824.89,-209 824.52,-215.99"/>
</g>
<!-- Node22 -->
<g id="node22" class="node">
<title>Node22</title>
<g id="a_node22"><a xlink:href="future__impl_8cpp.html" target="_top" xlink:title=" ">
<polygon fill="none" stroke="black" points="784,-140 784,-159 912,-159 912,-140 784,-140"/>
<text text-anchor="middle" x="848" y="-147" font-family="Helvetica,sans-Serif" font-size="10.00">src/async/future_impl.cpp</text>
</a>
</g>
</g>
<!-- Node6&#45;&gt;Node22 -->
<g id="edge29" class="edge">
<title>Node6&#45;&gt;Node22</title>
<path fill="none" stroke="midnightblue" d="M873.28,-192.63C866.34,-181.07 858.33,-167.71 853.22,-159.19"/>
<polygon fill="midnightblue" stroke="midnightblue" points="870.39,-194.62 878.54,-201.4 876.39,-191.02 870.39,-194.62"/>
</g>
<!-- Node7&#45;&gt;Node3 -->
<g id="edge9" class="edge">
<title>Node7&#45;&gt;Node3</title>
<path fill="none" stroke="midnightblue" d="M505.04,-128.17C492.35,-118.23 477.39,-106.51 465.97,-97.58"/>
<polygon fill="midnightblue" stroke="midnightblue" points="502.96,-130.99 512.99,-134.4 507.28,-125.47 502.96,-130.99"/>
</g>
<!-- Node7&#45;&gt;Node8 -->
<g id="edge7" class="edge">
<title>Node7&#45;&gt;Node8</title>
<path fill="none" stroke="midnightblue" d="M596.32,-138.49C608.49,-136.83 621.12,-135.25 633,-134 866.92,-109.43 927.8,-128.67 1161,-98 1169.44,-96.89 1178.36,-95.41 1186.98,-93.82"/>
<polygon fill="midnightblue" stroke="midnightblue" points="595.65,-135.05 586.23,-139.9 596.61,-141.98 595.65,-135.05"/>
</g>
<!-- Node8&#45;&gt;Node9 -->
<g id="edge8" class="edge">
<title>Node8&#45;&gt;Node9</title>
<path fill="none" stroke="midnightblue" d="M1280.23,-63.68C1306.69,-53.26 1339.63,-40.28 1364.27,-30.58"/>
<polygon fill="midnightblue" stroke="midnightblue" points="1278.82,-60.47 1270.8,-67.4 1281.39,-66.99 1278.82,-60.47"/>
</g>
<!-- Node10&#45;&gt;Node5 -->
<g id="edge11" class="edge">
<title>Node10&#45;&gt;Node5</title>
<path fill="none" stroke="midnightblue" d="M428.78,-167.49C516.84,-193.85 684.69,-244.09 766.22,-268.5"/>
<polygon fill="midnightblue" stroke="midnightblue" points="429.55,-164.07 418.96,-164.56 427.54,-170.78 429.55,-164.07"/>
</g>
<!-- Node13 -->
<g id="node13" class="node">
<title>Node13</title>
<g id="a_node13"><a xlink:href="wait__group_8cpp.html" target="_top" xlink:title=" ">
<polygon fill="none" stroke="black" points="1032.5,-73 1032.5,-92 1151.5,-92 1151.5,-73 1032.5,-73"/>
<text text-anchor="middle" x="1092" y="-80" font-family="Helvetica,sans-Serif" font-size="10.00">src/algo/wait_group.cpp</text>
</a>
</g>
</g>
<!-- Node12&#45;&gt;Node13 -->
<g id="edge14" class="edge">
<title>Node12&#45;&gt;Node13</title>
<path fill="none" stroke="midnightblue" d="M1092,-124.25C1092,-113.02 1092,-100.38 1092,-92.19"/>
<polygon fill="midnightblue" stroke="midnightblue" points="1088.5,-124.4 1092,-134.4 1095.5,-124.4 1088.5,-124.4"/>
</g>
<!-- Node15&#45;&gt;Node16 -->
<g id="edge19" class="edge">
<title>Node15&#45;&gt;Node16</title>
<path fill="none" stroke="midnightblue" d="M1560,-124.11C1560,-115.15 1560,-105.32 1560,-97.58"/>
<polygon fill="midnightblue" stroke="midnightblue" points="1556.5,-124.4 1560,-134.4 1563.5,-124.4 1556.5,-124.4"/>
</g>
<!-- Node17&#45;&gt;Node4 -->
<g id="edge23" class="edge">
<title>Node17&#45;&gt;Node4</title>
<path fill="none" stroke="midnightblue" d="M1379.62,-127.14C1359.44,-107.57 1326.63,-79.76 1292,-67 1217.71,-39.62 669.17,-22.52 498.52,-17.82"/>
<polygon fill="midnightblue" stroke="midnightblue" points="1377.4,-129.87 1386.96,-134.44 1382.34,-124.91 1377.4,-129.87"/>
</g>
<!-- Node17&#45;&gt;Node9 -->
<g id="edge22" class="edge">
<title>Node17&#45;&gt;Node9</title>
<path fill="none" stroke="midnightblue" d="M1400,-124.02C1400,-96.51 1400,-52.79 1400,-30.52"/>
<polygon fill="midnightblue" stroke="midnightblue" points="1396.5,-124.37 1400,-134.37 1403.5,-124.37 1396.5,-124.37"/>
</g>
<!-- Node17&#45;&gt;Node16 -->
<g id="edge21" class="edge">
<title>Node17&#45;&gt;Node16</title>
<path fill="none" stroke="midnightblue" d="M1444.2,-130.54C1469.8,-120.14 1501.57,-107.24 1525.35,-97.58"/>
<polygon fill="midnightblue" stroke="midnightblue" points="1442.66,-127.39 1434.72,-134.4 1445.3,-133.87 1442.66,-127.39"/>
</g>
<!-- Node19&#45;&gt;Node18 -->
<g id="edge26" class="edge">
<title>Node19&#45;&gt;Node18</title>
<path fill="none" stroke="midnightblue" d="M676.24,-128.45C662.39,-118.45 645.98,-106.6 633.49,-97.58"/>
<polygon fill="midnightblue" stroke="midnightblue" points="674.32,-131.38 684.47,-134.4 678.41,-125.7 674.32,-131.38"/>
</g>
<!-- Node20 -->
<g id="node20" class="node">
<title>Node20</title>
<g id="a_node20"><a xlink:href="await__awaiter_8cpp.html" target="_top" xlink:title=" ">
<polygon fill="none" stroke="black" points="691.5,-67.5 691.5,-97.5 790.5,-97.5 790.5,-67.5 691.5,-67.5"/>
<text text-anchor="start" x="699.5" y="-85.5" font-family="Helvetica,sans-Serif" font-size="10.00">src/coroutine/await</text>
<text text-anchor="middle" x="741" y="-74.5" font-family="Helvetica,sans-Serif" font-size="10.00">_awaiter.cpp</text>
</a>
</g>
</g>
<!-- Node19&#45;&gt;Node20 -->
<g id="edge27" class="edge">
<title>Node19&#45;&gt;Node20</title>
<path fill="none" stroke="midnightblue" d="M717.05,-125.58C722.36,-116.24 728.34,-105.75 732.99,-97.58"/>
<polygon fill="midnightblue" stroke="midnightblue" points="713.93,-123.97 712.03,-134.4 720.02,-127.44 713.93,-123.97"/>
</g>
<!-- Node23&#45;&gt;Node2 -->
<g id="edge34" class="edge">
<title>Node23&#45;&gt;Node2</title>
<path fill="none" stroke="midnightblue" d="M878.74,-410.01C795.8,-401.54 649.5,-385.5 525,-366 521.99,-365.53 518.91,-365.02 515.8,-364.5"/>
<polygon fill="midnightblue" stroke="midnightblue" points="878.48,-413.5 888.78,-411.03 879.18,-406.54 878.48,-413.5"/>
</g>
<!-- Node23&#45;&gt;Node6 -->
<g id="edge38" class="edge">
<title>Node23&#45;&gt;Node6</title>
<path fill="none" stroke="midnightblue" d="M929.74,-393.62C924.72,-385.23 919.53,-375.46 916,-366 898.37,-318.75 890.87,-258.84 888.23,-231.84"/>
<polygon fill="midnightblue" stroke="midnightblue" points="926.77,-395.47 935.03,-402.11 932.71,-391.77 926.77,-395.47"/>
</g>
<!-- Node24 -->
<g id="node24" class="node">
<title>Node24</title>
<g id="a_node24"><a xlink:href="when__all__impl_8hpp.html" target="_top" xlink:title=" ">
<polygon fill="none" stroke="black" points="1247.5,-268.5 1247.5,-298.5 1372.5,-298.5 1372.5,-268.5 1247.5,-268.5"/>
<text text-anchor="start" x="1255.5" y="-286.5" font-family="Helvetica,sans-Serif" font-size="10.00">include/yaclib/algo</text>
<text text-anchor="middle" x="1310" y="-275.5" font-family="Helvetica,sans-Serif" font-size="10.00">/detail/when_all_impl.hpp</text>
</a>
</g>
</g>
<!-- Node23&#45;&gt;Node24 -->
<g id="edge32" class="edge">
<title>Node23&#45;&gt;Node24</title>
<path fill="none" stroke="midnightblue" d="M1011.47,-409.09C1060.53,-402.06 1128.18,-389.02 1184,-366 1226.15,-348.62 1269.55,-316.91 1292.8,-298.59"/>
<polygon fill="midnightblue" stroke="midnightblue" points="1010.72,-405.66 1001.29,-410.5 1011.68,-412.6 1010.72,-405.66"/>
</g>
<!-- Node25 -->
<g id="node25" class="node">
<title>Node25</title>
<g id="a_node25"><a xlink:href="core_8hpp.html" target="_top" xlink:title=" ">
<polygon fill="none" stroke="black" points="1071,-335.5 1071,-365.5 1175,-365.5 1175,-335.5 1071,-335.5"/>
<text text-anchor="start" x="1079" y="-353.5" font-family="Helvetica,sans-Serif" font-size="10.00">include/yaclib/async</text>
<text text-anchor="middle" x="1123" y="-342.5" font-family="Helvetica,sans-Serif" font-size="10.00">/detail/core.hpp</text>
</a>
</g>
</g>
<!-- Node23&#45;&gt;Node25 -->
<g id="edge35" class="edge">
<title>Node23&#45;&gt;Node25</title>
<path fill="none" stroke="midnightblue" d="M993.05,-398.96C1021.72,-388.48 1057.64,-375.37 1084.45,-365.58"/>
<polygon fill="midnightblue" stroke="midnightblue" points="991.82,-395.68 983.62,-402.4 994.22,-402.25 991.82,-395.68"/>
</g>
<!-- Node26 -->
<g id="node26" class="node">
<title>Node26</title>
<g id="a_node26"><a xlink:href="promise_8hpp.html" target="_top" xlink:title=" ">
<polygon fill="none" stroke="black" points="1548,-201.5 1548,-231.5 1652,-231.5 1652,-201.5 1548,-201.5"/>
<text text-anchor="start" x="1556" y="-219.5" font-family="Helvetica,sans-Serif" font-size="10.00">include/yaclib/async</text>
<text text-anchor="middle" x="1600" y="-208.5" font-family="Helvetica,sans-Serif" font-size="10.00">/promise.hpp</text>
</a>
</g>
</g>
<!-- Node23&#45;&gt;Node26 -->
<g id="edge39" class="edge">
<title>Node23&#45;&gt;Node26</title>
<path fill="none" stroke="midnightblue" d="M1011.25,-408.41C1068.73,-400.49 1153.83,-386.59 1226,-366 1358.35,-328.24 1508.48,-260.66 1570.65,-231.51"/>
<polygon fill="midnightblue" stroke="midnightblue" points="1010.64,-404.96 1001.2,-409.77 1011.58,-411.9 1010.64,-404.96"/>
</g>
<!-- Node28 -->
<g id="node28" class="node">
<title>Node28</title>
<g id="a_node28"><a xlink:href="promise__type_8hpp.html" target="_top" xlink:title=" ">
<polygon fill="none" stroke="black" points="534,-335.5 534,-365.5 656,-365.5 656,-335.5 534,-335.5"/>
<text text-anchor="start" x="542" y="-353.5" font-family="Helvetica,sans-Serif" font-size="10.00">include/yaclib/coroutine</text>
<text text-anchor="middle" x="595" y="-342.5" font-family="Helvetica,sans-Serif" font-size="10.00">/detail/promise_type.hpp</text>
</a>
</g>
</g>
<!-- Node23&#45;&gt;Node28 -->
<g id="edge43" class="edge">
<title>Node23&#45;&gt;Node28</title>
<path fill="none" stroke="midnightblue" d="M878.77,-404.2C814.69,-392.3 718.38,-374.41 656.1,-362.85"/>
<polygon fill="midnightblue" stroke="midnightblue" points="878.3,-407.67 888.77,-406.06 879.57,-400.79 878.3,-407.67"/>
</g>
<!-- Node33 -->
<g id="node33" class="node">
<title>Node33</title>
<g id="a_node33"><a xlink:href="result__core_8cpp.html" target="_top" xlink:title=" ">
<polygon fill="none" stroke="black" points="925,-341 925,-360 1053,-360 1053,-341 925,-341"/>
<text text-anchor="middle" x="989" y="-348" font-family="Helvetica,sans-Serif" font-size="10.00">src/async/result_core.cpp</text>
</a>
</g>
</g>
<!-- Node23&#45;&gt;Node33 -->
<g id="edge49" class="edge">
<title>Node23&#45;&gt;Node33</title>
<path fill="none" stroke="midnightblue" d="M960.25,-393.97C968.13,-382.33 977.29,-368.8 983.11,-360.19"/>
<polygon fill="midnightblue" stroke="midnightblue" points="957.25,-392.15 954.55,-402.4 963.05,-396.08 957.25,-392.15"/>
</g>
<!-- Node24&#45;&gt;Node8 -->
<g id="edge33" class="edge">
<title>Node24&#45;&gt;Node8</title>
<path fill="none" stroke="midnightblue" d="M1314.41,-258.11C1318.73,-227.26 1321.97,-173.39 1301,-134 1292.66,-118.33 1277.1,-106.06 1263.18,-97.54"/>
<polygon fill="midnightblue" stroke="midnightblue" points="1310.9,-257.95 1312.81,-268.37 1317.81,-259.03 1310.9,-257.95"/>
</g>
<!-- Node25&#45;&gt;Node5 -->
<g id="edge36" class="edge">
<title>Node25&#45;&gt;Node5</title>
<path fill="none" stroke="midnightblue" d="M1060.71,-334.75C989.31,-319.13 917.75,-304.84 869.48,-295.4"/>
<polygon fill="midnightblue" stroke="midnightblue" points="1060.26,-338.24 1070.78,-336.97 1061.77,-331.4 1060.26,-338.24"/>
</g>
<!-- Node25&#45;&gt;Node17 -->
<g id="edge37" class="edge">
<title>Node25&#45;&gt;Node17</title>
<path fill="none" stroke="midnightblue" d="M1151.34,-329.14C1207.56,-288.75 1331.93,-199.4 1380.26,-164.68"/>
<polygon fill="midnightblue" stroke="midnightblue" points="1149,-326.51 1142.92,-335.19 1153.08,-332.2 1149,-326.51"/>
</g>
<!-- Node26&#45;&gt;Node15 -->
<g id="edge40" class="edge">
<title>Node26&#45;&gt;Node15</title>
<path fill="none" stroke="midnightblue" d="M1586.07,-192.87C1580.28,-183.46 1573.74,-172.83 1568.66,-164.58"/>
<polygon fill="midnightblue" stroke="midnightblue" points="1583.1,-194.71 1591.32,-201.4 1589.06,-191.05 1583.1,-194.71"/>
</g>
<!-- Node26&#45;&gt;Node16 -->
<g id="edge42" class="edge">
<title>Node26&#45;&gt;Node16</title>
<path fill="none" stroke="midnightblue" d="M1614.17,-192.32C1622.48,-175.56 1629.79,-152.68 1621,-134 1613.74,-118.57 1599.21,-106.24 1586.14,-97.63"/>
<polygon fill="midnightblue" stroke="midnightblue" points="1610.93,-190.94 1609.27,-201.4 1617.1,-194.26 1610.93,-190.94"/>
</g>
<!-- Node27 -->
<g id="node27" class="node">
<title>Node27</title>
<g id="a_node27"><a xlink:href="promise__impl_8cpp.html" target="_top" xlink:title=" ">
<polygon fill="none" stroke="black" points="1668.5,-140 1668.5,-159 1805.5,-159 1805.5,-140 1668.5,-140"/>
<text text-anchor="middle" x="1737" y="-147" font-family="Helvetica,sans-Serif" font-size="10.00">src/async/promise_impl.cpp</text>
</a>
</g>
</g>
<!-- Node26&#45;&gt;Node27 -->
<g id="edge41" class="edge">
<title>Node26&#45;&gt;Node27</title>
<path fill="none" stroke="midnightblue" d="M1639.06,-196.97C1665.38,-184.48 1698.86,-168.6 1719.07,-159.01"/>
<polygon fill="midnightblue" stroke="midnightblue" points="1637.26,-193.95 1629.73,-201.4 1640.26,-200.27 1637.26,-193.95"/>
</g>
<!-- Node28&#45;&gt;Node21 -->
<g id="edge48" class="edge">
<title>Node28&#45;&gt;Node21</title>
<path fill="none" stroke="midnightblue" d="M583.03,-326.43C564.53,-293.21 525.78,-232.45 475,-201 471.35,-198.74 372.58,-177.33 306.25,-163.13"/>
<polygon fill="midnightblue" stroke="midnightblue" points="580.06,-328.29 587.9,-335.41 586.21,-324.95 580.06,-328.29"/>
</g>
<!-- Node29 -->
<g id="node29" class="node">
<title>Node29</title>
<g id="a_node29"><a xlink:href="on__awaiter_8hpp.html" target="_top" xlink:title=" ">
<polygon fill="none" stroke="black" points="337,-268.5 337,-298.5 455,-298.5 455,-268.5 337,-268.5"/>
<text text-anchor="start" x="345" y="-286.5" font-family="Helvetica,sans-Serif" font-size="10.00">include/yaclib/coroutine</text>
<text text-anchor="middle" x="396" y="-275.5" font-family="Helvetica,sans-Serif" font-size="10.00">/detail/on_awaiter.hpp</text>
</a>
</g>
</g>
<!-- Node28&#45;&gt;Node29 -->
<g id="edge44" class="edge">
<title>Node28&#45;&gt;Node29</title>
<path fill="none" stroke="midnightblue" d="M542.12,-332.23C509.93,-321.71 469.33,-308.45 439.1,-298.58"/>
<polygon fill="midnightblue" stroke="midnightblue" points="541.23,-335.62 551.82,-335.4 543.4,-328.96 541.23,-335.62"/>
</g>
<!-- Node30 -->
<g id="node30" class="node">
<title>Node30</title>
<g id="a_node30"><a xlink:href="on_8hpp.html" target="_top" xlink:title=" ">
<polygon fill="none" stroke="black" points="115,-201.5 115,-231.5 233,-231.5 233,-201.5 115,-201.5"/>
<text text-anchor="start" x="123" y="-219.5" font-family="Helvetica,sans-Serif" font-size="10.00">include/yaclib/coroutine</text>
<text text-anchor="middle" x="174" y="-208.5" font-family="Helvetica,sans-Serif" font-size="10.00">/on.hpp</text>
</a>
</g>
</g>
<!-- Node29&#45;&gt;Node30 -->
<g id="edge45" class="edge">
<title>Node29&#45;&gt;Node30</title>
<path fill="none" stroke="midnightblue" d="M338.21,-265.58C302.15,-255.02 256.28,-241.59 222.19,-231.61"/>
<polygon fill="midnightblue" stroke="midnightblue" points="337.52,-269.02 348.1,-268.48 339.49,-262.31 337.52,-269.02"/>
</g>
<!-- Node32 -->
<g id="node32" class="node">
<title>Node32</title>
<g id="a_node32"><a xlink:href="on__awaiter_8cpp.html" target="_top" xlink:title=" ">
<polygon fill="none" stroke="black" points="325.5,-207 325.5,-226 466.5,-226 466.5,-207 325.5,-207"/>
<text text-anchor="middle" x="396" y="-214" font-family="Helvetica,sans-Serif" font-size="10.00">src/coroutine/on_awaiter.cpp</text>
</a>
</g>
</g>
<!-- Node29&#45;&gt;Node32 -->
<g id="edge47" class="edge">
<title>Node29&#45;&gt;Node32</title>
<path fill="none" stroke="midnightblue" d="M396,-258.25C396,-247.02 396,-234.38 396,-226.19"/>
<polygon fill="midnightblue" stroke="midnightblue" points="392.5,-258.4 396,-268.4 399.5,-258.4 392.5,-258.4"/>
</g>
<!-- Node31 -->
<g id="node31" class="node">
<title>Node31</title>
<g id="a_node31"><a xlink:href="on_8cpp.html" target="_top" xlink:title=" ">
<polygon fill="none" stroke="black" points="66,-140 66,-159 170,-159 170,-140 66,-140"/>
<text text-anchor="middle" x="118" y="-147" font-family="Helvetica,sans-Serif" font-size="10.00">src/coroutine/on.cpp</text>
</a>
</g>
</g>
<!-- Node30&#45;&gt;Node31 -->
<g id="edge46" class="edge">
<title>Node30&#45;&gt;Node31</title>
<path fill="none" stroke="midnightblue" d="M155.18,-193.66C145.02,-181.86 133.05,-167.97 125.49,-159.19"/>
<polygon fill="midnightblue" stroke="midnightblue" points="152.67,-196.1 161.85,-201.4 157.97,-191.54 152.67,-196.1"/>
</g>
</g>
</svg>
        <g id="navigator" transform="translate(0 0)" fill="#404254">
                <rect fill="#f2f5e9" fill-opacity="0.5" stroke="#606060" stroke-width=".5" x="0" y="0" width="60" height="60"/>
                <use id="zoomplus" xlink:href="#zoomPlus" x="17" y="9" onmousedown="handleZoom(evt,'in')"/>
                <use id="zoomminus" xlink:href="#zoomMin" x="42" y="9" onmousedown="handleZoom(evt,'out')"/>
                <use id="reset" xlink:href="#resetDef" x="30" y="36" onmousedown="handleReset()"/>
                <g id="arrowUp" xlink:href="#dirArrow" transform="translate(30 24)" onmousedown="handlePan(0,-1)">
                  <use xlink:href="#rim" fill="#404040">
                        <set attributeName="fill" to="#808080" begin="arrowUp.mouseover" end="arrowUp.mouseout"/>
                  </use>
                  <path fill="none" stroke="white" stroke-width="1.5" d="M0,-3.0v7 M-2.5,-0.5L0,-3.0L2.5,-0.5"/>
                </g>
                <g id="arrowRight" xlink:href="#dirArrow" transform="rotate(90) translate(36 -43)" onmousedown="handlePan(1,0)">
                  <use xlink:href="#rim" fill="#404040">
                        <set attributeName="fill" to="#808080" begin="arrowRight.mouseover" end="arrowRight.mouseout"/>
                  </use>
                  <path fill="none" stroke="white" stroke-width="1.5" d="M0,-3.0v7 M-2.5,-0.5L0,-3.0L2.5,-0.5"/>
                </g>
                <g id="arrowDown" xlink:href="#dirArrow" transform="rotate(180) translate(-30 -48)" onmousedown="handlePan(0,1)">
                  <use xlink:href="#rim" fill="#404040">
                        <set attributeName="fill" to="#808080" begin="arrowDown.mouseover" end="arrowDown.mouseout"/>
                  </use>
                  <path fill="none" stroke="white" stroke-width="1.5" d="M0,-3.0v7 M-2.5,-0.5L0,-3.0L2.5,-0.5"/>
                </g>
                <g id="arrowLeft" xlink:href="#dirArrow" transform="rotate(270) translate(-36 17)" onmousedown="handlePan(-1,0)">
                  <use xlink:href="#rim" fill="#404040">
                        <set attributeName="fill" to="#808080" begin="arrowLeft.mouseover" end="arrowLeft.mouseout"/>
                  </use>
                  <path fill="none" stroke="white" stroke-width="1.5" d="M0,-3.0v7 M-2.5,-0.5L0,-3.0L2.5,-0.5"/>
                </g>
        </g>
        <svg viewBox="0 0 15 15" width="100%" height="30px" preserveAspectRatio="xMaxYMin meet">
         <g id="arrow_out" transform="scale(0.3 0.3)">
          <a xlink:href="result_8hpp__dep__incl_org.svg" target="_base">
           <rect id="button" ry="5" rx="5" y="6" x="6" height="38" width="38"
                fill="#f2f5e9" fill-opacity="0.5" stroke="#606060" stroke-width="1.0"/>
           <path id="arrow"
             d="M 11.500037,31.436501 C 11.940474,20.09759 22.043105,11.32322 32.158766,21.979434 L 37.068811,17.246167 C 37.068811,17.246167 37.088388,32 37.088388,32 L 22.160133,31.978069 C 22.160133,31.978069 26.997745,27.140456 26.997745,27.140456 C 18.528582,18.264221 13.291696,25.230495 11.500037,31.436501 z"
             style="fill:#404040;"/>
          </a>
         </g>
        </svg>
</svg>
