<?xml version="1.0" encoding="UTF-8" standalone="no"?>
<!DOCTYPE svg PUBLIC "-//W3C//DTD SVG 1.1//EN"
 "http://www.w3.org/Graphics/SVG/1.1/DTD/svg11.dtd">
<!-- Generated by graphviz version 3.0.0 (20220413.0106)
 -->
<!-- Title: src/async/result_core.cpp Pages: 1 -->
<!--zoomable 475 -->
<svg id="main" version="1.1" xmlns="http://www.w3.org/2000/svg" xmlns:xlink="http://www.w3.org/1999/xlink" xml:space="preserve" onload="init(evt)">
<style type="text/css"><![CDATA[
.edge:hover path { stroke: red; }
.edge:hover polygon { stroke: red; fill: red; }
]]></style>
<script type="text/javascript"><![CDATA[
var edges = document.getElementsByTagName('g');
if (edges && edges.length) {
  for (var i=0;i<edges.length;i++) {
    if (edges[i].id.substr(0,4)=='edge') {
      edges[i].setAttribute('class','edge');
    }
  }
}
]]></script>
        <defs>
                <circle id="rim" cx="0" cy="0" r="7"/>
                <circle id="rim2" cx="0" cy="0" r="3.5"/>
                <g id="zoomPlus">
                        <use xlink:href="#rim" fill="#404040">
                                <set attributeName="fill" to="#808080" begin="zoomplus.mouseover" end="zoomplus.mouseout"/>
                        </use>
                        <path d="M-4,0h8M0,-4v8" fill="none" stroke="white" stroke-width="1.5" pointer-events="none"/>
                </g>
                <g id="zoomMin">
                        <use xlink:href="#rim" fill="#404040">
                                <set attributeName="fill" to="#808080" begin="zoomminus.mouseover" end="zoomminus.mouseout"/>
                        </use>
                        <path d="M-4,0h8" fill="none" stroke="white" stroke-width="1.5" pointer-events="none"/>
                </g>
                <g id="dirArrow">
                        <path fill="none" stroke="white" stroke-width="1.5" d="M0,-3.0v7 M-2.5,-0.5L0,-3.0L2.5,-0.5"/>
                </g>
               <g id="resetDef">
                       <use xlink:href="#rim2" fill="#404040">
                               <set attributeName="fill" to="#808080" begin="reset.mouseover" end="reset.mouseout"/>
                       </use>
               </g>
        </defs>

<script type="text/javascript">
var viewWidth = 871;
var viewHeight = 475;
var sectionId = 'dynsection-0';
</script>
<script xlink:href="svgpan.js"/>
<svg id="graph" class="graph">
<g id="viewport">
<title>src/async/result_core.cpp</title>
<!-- Node1 -->
<g id="node1" class="node">
<title>Node1</title>
<g id="a_node1"><a xlink:title=" ">
<polygon fill="#bfbfbf" stroke="black" points="162,-447.5 162,-466.5 290,-466.5 290,-447.5 162,-447.5"/>
<text text-anchor="middle" x="226" y="-454.5" font-family="Helvetica,sans-Serif" font-size="10.00">src/async/result_core.cpp</text>
</a>
</g>
</g>
<!-- Node2 -->
<g id="node2" class="node">
<title>Node2</title>
<g id="a_node2"><a xlink:href="result__core_8hpp.html" target="_top" xlink:title=" ">
<polygon fill="none" stroke="black" points="178,-380.5 178,-410.5 274,-410.5 274,-380.5 178,-380.5"/>
<text text-anchor="start" x="186" y="-398.5" font-family="Helvetica,sans-Serif" font-size="10.00">yaclib/async/detail</text>
<text text-anchor="middle" x="226" y="-387.5" font-family="Helvetica,sans-Serif" font-size="10.00">/result_core.hpp</text>
</a>
</g>
</g>
<!-- Node1&#45;&gt;Node2 -->
<g id="edge1" class="edge">
<title>Node1&#45;&gt;Node2</title>
<path fill="none" stroke="midnightblue" d="M226,-447.48C226,-440.47 226,-430.19 226,-420.7"/>
<polygon fill="midnightblue" stroke="midnightblue" points="229.5,-420.52 226,-410.52 222.5,-420.52 229.5,-420.52"/>
</g>
<!-- Node3 -->
<g id="node3" class="node">
<title>Node3</title>
<g id="a_node3"><a xlink:href="base__core_8hpp.html" target="_top" xlink:title=" ">
<polygon fill="none" stroke="black" points="178,-313.5 178,-343.5 274,-343.5 274,-313.5 178,-313.5"/>
<text text-anchor="start" x="186" y="-331.5" font-family="Helvetica,sans-Serif" font-size="10.00">yaclib/async/detail</text>
<text text-anchor="middle" x="226" y="-320.5" font-family="Helvetica,sans-Serif" font-size="10.00">/base_core.hpp</text>
</a>
</g>
</g>
<!-- Node2&#45;&gt;Node3 -->
<g id="edge2" class="edge">
<title>Node2&#45;&gt;Node3</title>
<path fill="none" stroke="midnightblue" d="M226,-380.4C226,-372.64 226,-362.81 226,-353.86"/>
<polygon fill="midnightblue" stroke="midnightblue" points="229.5,-353.58 226,-343.58 222.5,-353.58 229.5,-353.58"/>
</g>
<!-- Node4 -->
<g id="node4" class="node">
<title>Node4</title>
<g id="a_node4"><a xlink:href="inline__core_8hpp.html" target="_top" xlink:title=" ">
<polygon fill="none" stroke="black" points="28,-246.5 28,-276.5 124,-276.5 124,-246.5 28,-246.5"/>
<text text-anchor="start" x="36" y="-264.5" font-family="Helvetica,sans-Serif" font-size="10.00">yaclib/async/detail</text>
<text text-anchor="middle" x="76" y="-253.5" font-family="Helvetica,sans-Serif" font-size="10.00">/inline_core.hpp</text>
</a>
</g>
</g>
<!-- Node2&#45;&gt;Node4 -->
<g id="edge21" class="edge">
<title>Node2&#45;&gt;Node4</title>
<path fill="none" stroke="midnightblue" d="M209.95,-380.37C183.44,-357.05 130.41,-310.38 99.62,-283.29"/>
<polygon fill="midnightblue" stroke="midnightblue" points="101.76,-280.5 91.94,-276.52 97.13,-285.76 101.76,-280.5"/>
</g>
<!-- Node10 -->
<g id="node10" class="node">
<title>Node10</title>
<g id="a_node10"><a xlink:title=" ">
<polygon fill="none" stroke="#bfbfbf" points="104.5,-56.5 104.5,-75.5 143.5,-75.5 143.5,-56.5 104.5,-56.5"/>
<text text-anchor="middle" x="124" y="-63.5" font-family="Helvetica,sans-Serif" font-size="10.00">utility</text>
</a>
</g>
</g>
<!-- Node2&#45;&gt;Node10 -->
<g id="edge33" class="edge">
<title>Node2&#45;&gt;Node10</title>
<path fill="none" stroke="midnightblue" d="M177.79,-388.08C111.42,-376.23 0,-344.18 0,-262.5 0,-262.5 0,-262.5 0,-193.5 0,-139.16 59.08,-99.56 95.68,-80.25"/>
<polygon fill="midnightblue" stroke="midnightblue" points="97.57,-83.21 104.9,-75.56 94.4,-76.98 97.57,-83.21"/>
</g>
<!-- Node12 -->
<g id="node12" class="node">
<title>Node12</title>
<g id="a_node12"><a xlink:href="intrusive__ptr_8hpp.html" target="_top" xlink:title=" ">
<polygon fill="none" stroke="black" points="426.5,-179.5 426.5,-209.5 523.5,-209.5 523.5,-179.5 426.5,-179.5"/>
<text text-anchor="start" x="434.5" y="-197.5" font-family="Helvetica,sans-Serif" font-size="10.00">yaclib/util/intrusive</text>
<text text-anchor="middle" x="475" y="-186.5" font-family="Helvetica,sans-Serif" font-size="10.00">_ptr.hpp</text>
</a>
</g>
</g>
<!-- Node2&#45;&gt;Node12 -->
<g id="edge22" class="edge">
<title>Node2&#45;&gt;Node12</title>
<path fill="none" stroke="midnightblue" d="M274.03,-384.92C329.39,-371.19 418.55,-340.24 464,-277 475.87,-260.49 477.94,-237.12 477.43,-219.64"/>
<polygon fill="midnightblue" stroke="midnightblue" points="480.93,-219.41 476.85,-209.62 473.94,-219.81 480.93,-219.41"/>
</g>
<!-- Node17 -->
<g id="node17" class="node">
<title>Node17</title>
<g id="a_node17"><a xlink:href="result_8hpp.html" target="_top" xlink:title=" ">
<polygon fill="none" stroke="black" points="611,-252 611,-271 713,-271 713,-252 611,-252"/>
<text text-anchor="middle" x="662" y="-259" font-family="Helvetica,sans-Serif" font-size="10.00">yaclib/util/result.hpp</text>
</a>
</g>
</g>
<!-- Node2&#45;&gt;Node17 -->
<g id="edge23" class="edge">
<title>Node2&#45;&gt;Node17</title>
<path fill="none" stroke="midnightblue" d="M274.15,-390.61C331.6,-384.91 429.93,-371.79 510,-344 559.3,-326.89 611.93,-295.3 640.5,-276.88"/>
<polygon fill="midnightblue" stroke="midnightblue" points="642.77,-279.57 649.23,-271.17 638.94,-273.71 642.77,-279.57"/>
</g>
<!-- Node3&#45;&gt;Node4 -->
<g id="edge3" class="edge">
<title>Node3&#45;&gt;Node4</title>
<path fill="none" stroke="midnightblue" d="M193.45,-313.4C171.24,-303.77 141.62,-290.94 117.69,-280.56"/>
<polygon fill="midnightblue" stroke="midnightblue" points="119.05,-277.34 108.48,-276.58 116.27,-283.76 119.05,-277.34"/>
</g>
<!-- Node8 -->
<g id="node8" class="node">
<title>Node8</title>
<g id="a_node8"><a xlink:href="ref_8hpp.html" target="_top" xlink:title=" ">
<polygon fill="none" stroke="black" points="285.5,-56.5 285.5,-75.5 374.5,-75.5 374.5,-56.5 285.5,-56.5"/>
<text text-anchor="middle" x="330" y="-63.5" font-family="Helvetica,sans-Serif" font-size="10.00">yaclib/util/ref.hpp</text>
</a>
</g>
</g>
<!-- Node3&#45;&gt;Node8 -->
<g id="edge19" class="edge">
<title>Node3&#45;&gt;Node8</title>
<path fill="none" stroke="midnightblue" d="M203.22,-313.44C191.21,-304.62 177.62,-292.07 171,-277 155.18,-240.99 105.04,-200.01 172,-112 184.7,-95.31 234.93,-82.95 275.4,-75.45"/>
<polygon fill="midnightblue" stroke="midnightblue" points="276.22,-78.86 285.44,-73.65 274.98,-71.97 276.22,-78.86"/>
</g>
<!-- Node11 -->
<g id="node11" class="node">
<title>Node11</title>
<g id="a_node11"><a xlink:href="executor_8hpp.html" target="_top" xlink:title=" ">
<polygon fill="none" stroke="black" points="290.5,-252 290.5,-271 429.5,-271 429.5,-252 290.5,-252"/>
<text text-anchor="middle" x="360" y="-259" font-family="Helvetica,sans-Serif" font-size="10.00">yaclib/executor/executor.hpp</text>
</a>
</g>
</g>
<!-- Node3&#45;&gt;Node11 -->
<g id="edge10" class="edge">
<title>Node3&#45;&gt;Node11</title>
<path fill="none" stroke="midnightblue" d="M255.08,-313.4C278.38,-302.09 310.81,-286.36 333.43,-275.39"/>
<polygon fill="midnightblue" stroke="midnightblue" points="334.99,-278.52 342.46,-271.01 331.94,-272.22 334.99,-278.52"/>
</g>
<!-- Node3&#45;&gt;Node12 -->
<g id="edge18" class="edge">
<title>Node3&#45;&gt;Node12</title>
<path fill="none" stroke="midnightblue" d="M274.11,-327.91C321.18,-325.83 392.4,-315.76 439,-277 456.4,-262.53 465.67,-237.98 470.42,-219.6"/>
<polygon fill="midnightblue" stroke="midnightblue" points="473.88,-220.15 472.72,-209.62 467.06,-218.57 473.88,-220.15"/>
</g>
<!-- Node16 -->
<g id="node16" class="node">
<title>Node16</title>
<g id="a_node16"><a xlink:title=" ">
<polygon fill="none" stroke="#bfbfbf" points="180,-252 180,-271 272,-271 272,-252 180,-252"/>
<text text-anchor="middle" x="226" y="-259" font-family="Helvetica,sans-Serif" font-size="10.00">yaclib_std/atomic</text>
</a>
</g>
</g>
<!-- Node3&#45;&gt;Node16 -->
<g id="edge20" class="edge">
<title>Node3&#45;&gt;Node16</title>
<path fill="none" stroke="midnightblue" d="M226,-313.4C226,-304.06 226,-291.71 226,-281.52"/>
<polygon fill="midnightblue" stroke="midnightblue" points="229.5,-281.19 226,-271.19 222.5,-281.19 229.5,-281.19"/>
</g>
<!-- Node5 -->
<g id="node5" class="node">
<title>Node5</title>
<g id="a_node5"><a xlink:href="job_8hpp.html" target="_top" xlink:title=" ">
<polygon fill="none" stroke="black" points="226.5,-185 226.5,-204 341.5,-204 341.5,-185 226.5,-185"/>
<text text-anchor="middle" x="284" y="-192" font-family="Helvetica,sans-Serif" font-size="10.00">yaclib/executor/job.hpp</text>
</a>
</g>
</g>
<!-- Node4&#45;&gt;Node5 -->
<g id="edge4" class="edge">
<title>Node4&#45;&gt;Node5</title>
<path fill="none" stroke="midnightblue" d="M120.88,-246.48C158.49,-234.72 211.54,-218.14 246.81,-207.12"/>
<polygon fill="midnightblue" stroke="midnightblue" points="248.21,-210.35 256.71,-204.03 246.12,-203.67 248.21,-210.35"/>
</g>
<!-- Node6 -->
<g id="node6" class="node">
<title>Node6</title>
<g id="a_node6"><a xlink:href="node_8hpp.html" target="_top" xlink:title=" ">
<polygon fill="none" stroke="black" points="180.5,-112.5 180.5,-142.5 263.5,-142.5 263.5,-112.5 180.5,-112.5"/>
<text text-anchor="start" x="188.5" y="-130.5" font-family="Helvetica,sans-Serif" font-size="10.00">yaclib/util/detail</text>
<text text-anchor="middle" x="222" y="-119.5" font-family="Helvetica,sans-Serif" font-size="10.00">/node.hpp</text>
</a>
</g>
</g>
<!-- Node5&#45;&gt;Node6 -->
<g id="edge5" class="edge">
<title>Node5&#45;&gt;Node6</title>
<path fill="none" stroke="midnightblue" d="M275.64,-184.73C267.18,-175.86 253.77,-161.81 242.48,-149.97"/>
<polygon fill="midnightblue" stroke="midnightblue" points="244.87,-147.41 235.44,-142.59 239.81,-152.24 244.87,-147.41"/>
</g>
<!-- Node7 -->
<g id="node7" class="node">
<title>Node7</title>
<g id="a_node7"><a xlink:href="func_8hpp.html" target="_top" xlink:title=" ">
<polygon fill="none" stroke="black" points="281.5,-118 281.5,-137 378.5,-137 378.5,-118 281.5,-118"/>
<text text-anchor="middle" x="330" y="-125" font-family="Helvetica,sans-Serif" font-size="10.00">yaclib/util/func.hpp</text>
</a>
</g>
</g>
<!-- Node5&#45;&gt;Node7 -->
<g id="edge6" class="edge">
<title>Node5&#45;&gt;Node7</title>
<path fill="none" stroke="midnightblue" d="M290.2,-184.73C297.31,-174.7 309.11,-158.01 318.02,-145.42"/>
<polygon fill="midnightblue" stroke="midnightblue" points="320.97,-147.31 323.89,-137.13 315.26,-143.27 320.97,-147.31"/>
</g>
<!-- Node7&#45;&gt;Node8 -->
<g id="edge7" class="edge">
<title>Node7&#45;&gt;Node8</title>
<path fill="none" stroke="midnightblue" d="M330,-117.98C330,-109.58 330,-96.48 330,-85.66"/>
<polygon fill="midnightblue" stroke="midnightblue" points="333.5,-85.51 330,-75.51 326.5,-85.51 333.5,-85.51"/>
</g>
<!-- Node9 -->
<g id="node9" class="node">
<title>Node9</title>
<g id="a_node9"><a xlink:title=" ">
<polygon fill="none" stroke="#bfbfbf" points="573,-56.5 573,-75.5 635,-75.5 635,-56.5 573,-56.5"/>
<text text-anchor="middle" x="604" y="-63.5" font-family="Helvetica,sans-Serif" font-size="10.00">type_traits</text>
</a>
</g>
</g>
<!-- Node7&#45;&gt;Node9 -->
<g id="edge8" class="edge">
<title>Node7&#45;&gt;Node9</title>
<path fill="none" stroke="midnightblue" d="M369.26,-117.98C420.73,-106.8 510.6,-87.28 562.94,-75.92"/>
<polygon fill="midnightblue" stroke="midnightblue" points="563.86,-79.3 572.89,-73.76 562.37,-72.46 563.86,-79.3"/>
</g>
<!-- Node7&#45;&gt;Node10 -->
<g id="edge9" class="edge">
<title>Node7&#45;&gt;Node10</title>
<path fill="none" stroke="midnightblue" d="M300.49,-117.98C261.27,-106.65 192.4,-86.76 153.29,-75.46"/>
<polygon fill="midnightblue" stroke="midnightblue" points="154.14,-72.06 143.57,-72.65 152.2,-78.79 154.14,-72.06"/>
</g>
<!-- Node11&#45;&gt;Node5 -->
<g id="edge11" class="edge">
<title>Node11&#45;&gt;Node5</title>
<path fill="none" stroke="midnightblue" d="M349.75,-251.73C337.56,-241.31 316.98,-223.71 302.09,-210.97"/>
<polygon fill="midnightblue" stroke="midnightblue" points="303.96,-207.97 294.09,-204.13 299.41,-213.29 303.96,-207.97"/>
</g>
<!-- Node11&#45;&gt;Node12 -->
<g id="edge12" class="edge">
<title>Node11&#45;&gt;Node12</title>
<path fill="none" stroke="midnightblue" d="M375.51,-251.73C392.25,-242.27 419.42,-226.91 441.14,-214.64"/>
<polygon fill="midnightblue" stroke="midnightblue" points="443.09,-217.56 450.07,-209.59 439.65,-211.46 443.09,-217.56"/>
</g>
<!-- Node12&#45;&gt;Node8 -->
<g id="edge13" class="edge">
<title>Node12&#45;&gt;Node8</title>
<path fill="none" stroke="midnightblue" d="M460.6,-179.23C443.65,-162.61 414.45,-134.57 388,-112 375.64,-101.45 361.2,-90.25 349.83,-81.66"/>
<polygon fill="midnightblue" stroke="midnightblue" points="351.91,-78.85 341.81,-75.65 347.71,-84.45 351.91,-78.85"/>
</g>
<!-- Node12&#45;&gt;Node9 -->
<g id="edge14" class="edge">
<title>Node12&#45;&gt;Node9</title>
<path fill="none" stroke="midnightblue" d="M505.86,-179.3C522.65,-170.51 542.99,-158.05 558,-143 574.96,-126 588.3,-101.57 596.16,-85.03"/>
<polygon fill="midnightblue" stroke="midnightblue" points="599.36,-86.44 600.32,-75.89 592.99,-83.54 599.36,-86.44"/>
</g>
<!-- Node13 -->
<g id="node13" class="node">
<title>Node13</title>
<g id="a_node13"><a xlink:href="intrusive__ptr__impl_8hpp.html" target="_top" xlink:title=" ">
<polygon fill="none" stroke="black" points="435,-112.5 435,-142.5 549,-142.5 549,-112.5 435,-112.5"/>
<text text-anchor="start" x="443" y="-130.5" font-family="Helvetica,sans-Serif" font-size="10.00">yaclib/util/detail</text>
<text text-anchor="middle" x="492" y="-119.5" font-family="Helvetica,sans-Serif" font-size="10.00">/intrusive_ptr_impl.hpp</text>
</a>
</g>
</g>
<!-- Node12&#45;&gt;Node13 -->
<g id="edge15" class="edge">
<title>Node12&#45;&gt;Node13</title>
<path fill="none" stroke="midnightblue" d="M478.69,-179.4C480.76,-171.47 483.4,-161.38 485.78,-152.27"/>
<polygon fill="midnightblue" stroke="midnightblue" points="489.17,-153.14 488.32,-142.58 482.4,-151.37 489.17,-153.14"/>
</g>
<!-- Node14 -->
<g id="node14" class="node">
<title>Node14</title>
<g id="a_node14"><a xlink:href="log_8hpp.html" target="_top" xlink:title=" ">
<polygon fill="none" stroke="black" points="454.5,-56.5 454.5,-75.5 529.5,-75.5 529.5,-56.5 454.5,-56.5"/>
<text text-anchor="middle" x="492" y="-63.5" font-family="Helvetica,sans-Serif" font-size="10.00">yaclib/log.hpp</text>
</a>
</g>
</g>
<!-- Node13&#45;&gt;Node14 -->
<g id="edge16" class="edge">
<title>Node13&#45;&gt;Node14</title>
<path fill="none" stroke="midnightblue" d="M492,-112.4C492,-104.47 492,-94.46 492,-85.86"/>
<polygon fill="midnightblue" stroke="midnightblue" points="495.5,-85.66 492,-75.66 488.5,-85.66 495.5,-85.66"/>
</g>
<!-- Node15 -->
<g id="node15" class="node">
<title>Node15</title>
<g id="a_node15"><a xlink:title=" ">
<polygon fill="none" stroke="#bfbfbf" points="459,-0.5 459,-19.5 525,-19.5 525,-0.5 459,-0.5"/>
<text text-anchor="middle" x="492" y="-7.5" font-family="Helvetica,sans-Serif" font-size="10.00">string_view</text>
</a>
</g>
</g>
<!-- Node14&#45;&gt;Node15 -->
<g id="edge17" class="edge">
<title>Node14&#45;&gt;Node15</title>
<path fill="none" stroke="midnightblue" d="M492,-56.08C492,-49.01 492,-38.86 492,-29.99"/>
<polygon fill="midnightblue" stroke="midnightblue" points="495.5,-29.75 492,-19.75 488.5,-29.75 495.5,-29.75"/>
</g>
<!-- Node18 -->
<g id="node18" class="node">
<title>Node18</title>
<g id="a_node18"><a xlink:href="type__traits_8hpp.html" target="_top" xlink:title=" ">
<polygon fill="none" stroke="black" points="646.5,-185 646.5,-204 769.5,-204 769.5,-185 646.5,-185"/>
<text text-anchor="middle" x="708" y="-192" font-family="Helvetica,sans-Serif" font-size="10.00">yaclib/util/type_traits.hpp</text>
</a>
</g>
</g>
<!-- Node17&#45;&gt;Node18 -->
<g id="edge24" class="edge">
<title>Node17&#45;&gt;Node18</title>
<path fill="none" stroke="midnightblue" d="M668.2,-251.73C675.31,-241.7 687.11,-225.01 696.02,-212.42"/>
<polygon fill="midnightblue" stroke="midnightblue" points="698.97,-214.31 701.89,-204.13 693.26,-210.27 698.97,-214.31"/>
</g>
<!-- Node21 -->
<g id="node21" class="node">
<title>Node21</title>
<g id="a_node21"><a xlink:title=" ">
<polygon fill="none" stroke="#bfbfbf" points="805,-118 805,-137 863,-137 863,-118 805,-118"/>
<text text-anchor="middle" x="834" y="-125" font-family="Helvetica,sans-Serif" font-size="10.00">exception</text>
</a>
</g>
</g>
<!-- Node17&#45;&gt;Node21 -->
<g id="edge31" class="edge">
<title>Node17&#45;&gt;Node21</title>
<path fill="none" stroke="midnightblue" d="M694.47,-251.96C719.58,-244.14 754.14,-230.62 779,-210 800.19,-192.43 816.51,-164.66 825.68,-146.51"/>
<polygon fill="midnightblue" stroke="midnightblue" points="828.93,-147.84 830.14,-137.31 822.63,-144.79 828.93,-147.84"/>
</g>
<!-- Node22 -->
<g id="node22" class="node">
<title>Node22</title>
<g id="a_node22"><a xlink:title=" ">
<polygon fill="none" stroke="#bfbfbf" points="582,-185 582,-204 628,-204 628,-185 582,-185"/>
<text text-anchor="middle" x="605" y="-192" font-family="Helvetica,sans-Serif" font-size="10.00">variant</text>
</a>
</g>
</g>
<!-- Node17&#45;&gt;Node22 -->
<g id="edge32" class="edge">
<title>Node17&#45;&gt;Node22</title>
<path fill="none" stroke="midnightblue" d="M654.31,-251.73C645.34,-241.5 630.31,-224.36 619.2,-211.69"/>
<polygon fill="midnightblue" stroke="midnightblue" points="621.79,-209.34 612.57,-204.13 616.53,-213.95 621.79,-209.34"/>
</g>
<!-- Node18&#45;&gt;Node9 -->
<g id="edge30" class="edge">
<title>Node18&#45;&gt;Node9</title>
<path fill="none" stroke="midnightblue" d="M689.56,-184.92C673,-176.38 649.05,-161.84 634,-143 620.48,-126.07 612.41,-102.29 608.1,-85.85"/>
<polygon fill="midnightblue" stroke="midnightblue" points="611.44,-84.74 605.7,-75.83 604.63,-86.37 611.44,-84.74"/>
</g>
<!-- Node19 -->
<g id="node19" class="node">
<title>Node19</title>
<g id="a_node19"><a xlink:href="fwd_8hpp.html" target="_top" xlink:title=" ">
<polygon fill="none" stroke="black" points="668,-56.5 668,-75.5 746,-75.5 746,-56.5 668,-56.5"/>
<text text-anchor="middle" x="707" y="-63.5" font-family="Helvetica,sans-Serif" font-size="10.00">yaclib/fwd.hpp</text>
</a>
</g>
</g>
<!-- Node18&#45;&gt;Node19 -->
<g id="edge25" class="edge">
<title>Node18&#45;&gt;Node19</title>
<path fill="none" stroke="midnightblue" d="M721.11,-184.89C733.28,-176.04 750.58,-161.03 758,-143 763.24,-130.26 763.67,-124.56 758,-112 752.38,-99.56 741.44,-89.17 731.12,-81.53"/>
<polygon fill="midnightblue" stroke="midnightblue" points="732.96,-78.54 722.73,-75.76 728.99,-84.31 732.96,-78.54"/>
</g>
<!-- Node20 -->
<g id="node20" class="node">
<title>Node20</title>
<g id="a_node20"><a xlink:href="type__traits__impl_8hpp.html" target="_top" xlink:title=" ">
<polygon fill="none" stroke="black" points="643,-112.5 643,-142.5 749,-142.5 749,-112.5 643,-112.5"/>
<text text-anchor="start" x="651" y="-130.5" font-family="Helvetica,sans-Serif" font-size="10.00">yaclib/util/detail</text>
<text text-anchor="middle" x="696" y="-119.5" font-family="Helvetica,sans-Serif" font-size="10.00">/type_traits_impl.hpp</text>
</a>
</g>
</g>
<!-- Node18&#45;&gt;Node20 -->
<g id="edge26" class="edge">
<title>Node18&#45;&gt;Node20</title>
<path fill="none" stroke="midnightblue" d="M706.38,-184.73C704.87,-176.54 702.54,-163.92 700.47,-152.71"/>
<polygon fill="midnightblue" stroke="midnightblue" points="703.86,-151.79 698.6,-142.59 696.97,-153.06 703.86,-151.79"/>
</g>
<!-- Node18&#45;&gt;Node21 -->
<g id="edge29" class="edge">
<title>Node18&#45;&gt;Node21</title>
<path fill="none" stroke="midnightblue" d="M724.73,-184.87C746.1,-173.84 783.3,-154.66 808.28,-141.77"/>
<polygon fill="midnightblue" stroke="midnightblue" points="809.92,-144.86 817.2,-137.17 806.71,-138.64 809.92,-144.86"/>
</g>
<!-- Node20&#45;&gt;Node9 -->
<g id="edge28" class="edge">
<title>Node20&#45;&gt;Node9</title>
<path fill="none" stroke="midnightblue" d="M674.2,-112.4C659.59,-102.95 640.43,-90.56 625.82,-81.11"/>
<polygon fill="midnightblue" stroke="midnightblue" points="627.68,-78.15 617.39,-75.66 623.88,-84.03 627.68,-78.15"/>
</g>
<!-- Node20&#45;&gt;Node19 -->
<g id="edge27" class="edge">
<title>Node20&#45;&gt;Node19</title>
<path fill="none" stroke="midnightblue" d="M698.61,-112.4C700.09,-104.38 701.97,-94.23 703.57,-85.57"/>
<polygon fill="midnightblue" stroke="midnightblue" points="707.02,-86.13 705.4,-75.66 700.14,-84.85 707.02,-86.13"/>
</g>
</g>
</svg>
        <g id="navigator" transform="translate(0 0)" fill="#404254">
                <rect fill="#f2f5e9" fill-opacity="0.5" stroke="#606060" stroke-width=".5" x="0" y="0" width="60" height="60"/>
                <use id="zoomplus" xlink:href="#zoomPlus" x="17" y="9" onmousedown="handleZoom(evt,'in')"/>
                <use id="zoomminus" xlink:href="#zoomMin" x="42" y="9" onmousedown="handleZoom(evt,'out')"/>
                <use id="reset" xlink:href="#resetDef" x="30" y="36" onmousedown="handleReset()"/>
                <g id="arrowUp" xlink:href="#dirArrow" transform="translate(30 24)" onmousedown="handlePan(0,-1)">
                  <use xlink:href="#rim" fill="#404040">
                        <set attributeName="fill" to="#808080" begin="arrowUp.mouseover" end="arrowUp.mouseout"/>
                  </use>
                  <path fill="none" stroke="white" stroke-width="1.5" d="M0,-3.0v7 M-2.5,-0.5L0,-3.0L2.5,-0.5"/>
                </g>
                <g id="arrowRight" xlink:href="#dirArrow" transform="rotate(90) translate(36 -43)" onmousedown="handlePan(1,0)">
                  <use xlink:href="#rim" fill="#404040">
                        <set attributeName="fill" to="#808080" begin="arrowRight.mouseover" end="arrowRight.mouseout"/>
                  </use>
                  <path fill="none" stroke="white" stroke-width="1.5" d="M0,-3.0v7 M-2.5,-0.5L0,-3.0L2.5,-0.5"/>
                </g>
                <g id="arrowDown" xlink:href="#dirArrow" transform="rotate(180) translate(-30 -48)" onmousedown="handlePan(0,1)">
                  <use xlink:href="#rim" fill="#404040">
                        <set attributeName="fill" to="#808080" begin="arrowDown.mouseover" end="arrowDown.mouseout"/>
                  </use>
                  <path fill="none" stroke="white" stroke-width="1.5" d="M0,-3.0v7 M-2.5,-0.5L0,-3.0L2.5,-0.5"/>
                </g>
                <g id="arrowLeft" xlink:href="#dirArrow" transform="rotate(270) translate(-36 17)" onmousedown="handlePan(-1,0)">
                  <use xlink:href="#rim" fill="#404040">
                        <set attributeName="fill" to="#808080" begin="arrowLeft.mouseover" end="arrowLeft.mouseout"/>
                  </use>
                  <path fill="none" stroke="white" stroke-width="1.5" d="M0,-3.0v7 M-2.5,-0.5L0,-3.0L2.5,-0.5"/>
                </g>
        </g>
        <svg viewBox="0 0 15 15" width="100%" height="30px" preserveAspectRatio="xMaxYMin meet">
         <g id="arrow_out" transform="scale(0.3 0.3)">
          <a xlink:href="result__core_8cpp__incl_org.svg" target="_base">
           <rect id="button" ry="5" rx="5" y="6" x="6" height="38" width="38"
                fill="#f2f5e9" fill-opacity="0.5" stroke="#606060" stroke-width="1.0"/>
           <path id="arrow"
             d="M 11.500037,31.436501 C 11.940474,20.09759 22.043105,11.32322 32.158766,21.979434 L 37.068811,17.246167 C 37.068811,17.246167 37.088388,32 37.088388,32 L 22.160133,31.978069 C 22.160133,31.978069 26.997745,27.140456 26.997745,27.140456 C 18.528582,18.264221 13.291696,25.230495 11.500037,31.436501 z"
             style="fill:#404040;"/>
          </a>
         </g>
        </svg>
</svg>
