<?xml version="1.0" encoding="UTF-8" standalone="no"?>
<!DOCTYPE svg PUBLIC "-//W3C//DTD SVG 1.1//EN"
 "http://www.w3.org/Graphics/SVG/1.1/DTD/svg11.dtd">
<!-- Generated by graphviz version 3.0.0 (20220413.0106)
 -->
<!-- Title: include/yaclib/async/detail/result_core.hpp Pages: 1 -->
<!--zoomable 441 -->
<svg id="main" version="1.1" xmlns="http://www.w3.org/2000/svg" xmlns:xlink="http://www.w3.org/1999/xlink" xml:space="preserve" onload="init(evt)">
<style type="text/css"><![CDATA[
.edge:hover path { stroke: red; }
.edge:hover polygon { stroke: red; fill: red; }
]]></style>
<script type="text/javascript"><![CDATA[
var edges = document.getElementsByTagName('g');
if (edges && edges.length) {
  for (var i=0;i<edges.length;i++) {
    if (edges[i].id.substr(0,4)=='edge') {
      edges[i].setAttribute('class','edge');
    }
  }
}
]]></script>
        <defs>
                <circle id="rim" cx="0" cy="0" r="7"/>
                <circle id="rim2" cx="0" cy="0" r="3.5"/>
                <g id="zoomPlus">
                        <use xlink:href="#rim" fill="#404040">
                                <set attributeName="fill" to="#808080" begin="zoomplus.mouseover" end="zoomplus.mouseout"/>
                        </use>
                        <path d="M-4,0h8M0,-4v8" fill="none" stroke="white" stroke-width="1.5" pointer-events="none"/>
                </g>
                <g id="zoomMin">
                        <use xlink:href="#rim" fill="#404040">
                                <set attributeName="fill" to="#808080" begin="zoomminus.mouseover" end="zoomminus.mouseout"/>
                        </use>
                        <path d="M-4,0h8" fill="none" stroke="white" stroke-width="1.5" pointer-events="none"/>
                </g>
                <g id="dirArrow">
                        <path fill="none" stroke="white" stroke-width="1.5" d="M0,-3.0v7 M-2.5,-0.5L0,-3.0L2.5,-0.5"/>
                </g>
               <g id="resetDef">
                       <use xlink:href="#rim2" fill="#404040">
                               <set attributeName="fill" to="#808080" begin="reset.mouseover" end="reset.mouseout"/>
                       </use>
               </g>
        </defs>

<script type="text/javascript">
var viewWidth = 1786;
var viewHeight = 441;
var sectionId = 'dynsection-1';
</script>
<script xlink:href="svgpan.js"/>
<svg id="graph" class="graph">
<g id="viewport">
<title>include/yaclib/async/detail/result_core.hpp</title>
<!-- Node1 -->
<g id="node1" class="node">
<title>Node1</title>
<g id="a_node1"><a xlink:title=" ">
<polygon fill="#bfbfbf" stroke="black" points="1001,-402.5 1001,-432.5 1113,-432.5 1113,-402.5 1001,-402.5"/>
<text text-anchor="start" x="1009" y="-420.5" font-family="Helvetica,sans-Serif" font-size="10.00">include/yaclib/async</text>
<text text-anchor="middle" x="1057" y="-409.5" font-family="Helvetica,sans-Serif" font-size="10.00">/detail/result_core.hpp</text>
</a>
</g>
</g>
<!-- Node2 -->
<g id="node2" class="node">
<title>Node2</title>
<g id="a_node2"><a xlink:href="when__all__impl_8hpp.html" target="_top" xlink:title=" ">
<polygon fill="none" stroke="black" points="503.5,-268.5 503.5,-298.5 628.5,-298.5 628.5,-268.5 503.5,-268.5"/>
<text text-anchor="start" x="511.5" y="-286.5" font-family="Helvetica,sans-Serif" font-size="10.00">include/yaclib/algo</text>
<text text-anchor="middle" x="566" y="-275.5" font-family="Helvetica,sans-Serif" font-size="10.00">/detail/when_all_impl.hpp</text>
</a>
</g>
</g>
<!-- Node1&#45;&gt;Node2 -->
<g id="edge1" class="edge">
<title>Node1&#45;&gt;Node2</title>
<path fill="none" stroke="midnightblue" d="M990.73,-402.49C946.91,-392.93 888.31,-379.59 837,-366 756.02,-344.56 662.7,-315.52 609.4,-298.52"/>
<polygon fill="midnightblue" stroke="midnightblue" points="990.17,-405.95 1000.68,-404.65 991.66,-399.11 990.17,-405.95"/>
</g>
<!-- Node5 -->
<g id="node5" class="node">
<title>Node5</title>
<g id="a_node5"><a xlink:href="when__any__impl_8hpp.html" target="_top" xlink:title=" ">
<polygon fill="none" stroke="black" points="959.5,-268.5 959.5,-298.5 1090.5,-298.5 1090.5,-268.5 959.5,-268.5"/>
<text text-anchor="start" x="967.5" y="-286.5" font-family="Helvetica,sans-Serif" font-size="10.00">include/yaclib/algo</text>
<text text-anchor="middle" x="1025" y="-275.5" font-family="Helvetica,sans-Serif" font-size="10.00">/detail/when_any_impl.hpp</text>
</a>
</g>
</g>
<!-- Node1&#45;&gt;Node5 -->
<g id="edge4" class="edge">
<title>Node1&#45;&gt;Node5</title>
<path fill="none" stroke="midnightblue" d="M1051.57,-392.57C1047.85,-376.31 1042.74,-354.33 1038,-335 1034.98,-322.69 1031.38,-308.74 1028.73,-298.63"/>
<polygon fill="midnightblue" stroke="midnightblue" points="1048.17,-393.37 1053.8,-402.34 1054.99,-391.81 1048.17,-393.37"/>
</g>
<!-- Node8 -->
<g id="node8" class="node">
<title>Node8</title>
<g id="a_node8"><a xlink:href="core_8hpp.html" target="_top" xlink:title=" ">
<polygon fill="none" stroke="black" points="925,-335.5 925,-365.5 1029,-365.5 1029,-335.5 925,-335.5"/>
<text text-anchor="start" x="933" y="-353.5" font-family="Helvetica,sans-Serif" font-size="10.00">include/yaclib/async</text>
<text text-anchor="middle" x="977" y="-342.5" font-family="Helvetica,sans-Serif" font-size="10.00">/detail/core.hpp</text>
</a>
</g>
</g>
<!-- Node1&#45;&gt;Node8 -->
<g id="edge7" class="edge">
<title>Node1&#45;&gt;Node8</title>
<path fill="none" stroke="midnightblue" d="M1031.63,-395.88C1019.47,-386.01 1005.22,-374.43 994.32,-365.58"/>
<polygon fill="midnightblue" stroke="midnightblue" points="1029.67,-398.81 1039.64,-402.4 1034.09,-393.37 1029.67,-398.81"/>
</g>
<!-- Node10 -->
<g id="node10" class="node">
<title>Node10</title>
<g id="a_node10"><a xlink:href="future_8hpp.html" target="_top" xlink:title=" ">
<polygon fill="none" stroke="black" points="684,-201.5 684,-231.5 788,-231.5 788,-201.5 684,-201.5"/>
<text text-anchor="start" x="692" y="-219.5" font-family="Helvetica,sans-Serif" font-size="10.00">include/yaclib/async</text>
<text text-anchor="middle" x="736" y="-208.5" font-family="Helvetica,sans-Serif" font-size="10.00">/future.hpp</text>
</a>
</g>
</g>
<!-- Node1&#45;&gt;Node10 -->
<g id="edge35" class="edge">
<title>Node1&#45;&gt;Node10</title>
<path fill="none" stroke="midnightblue" d="M993.96,-399.32C968.8,-391.1 940.14,-379.97 916,-366 857.89,-332.35 853.08,-310.39 801,-268 785.59,-255.46 767.75,-241.65 754.67,-231.65"/>
<polygon fill="midnightblue" stroke="midnightblue" points="993.18,-402.75 1003.77,-402.44 995.3,-396.07 993.18,-402.75"/>
</g>
<!-- Node25 -->
<g id="node25" class="node">
<title>Node25</title>
<g id="a_node25"><a xlink:href="promise_8hpp.html" target="_top" xlink:title=" ">
<polygon fill="none" stroke="black" points="1554,-201.5 1554,-231.5 1658,-231.5 1658,-201.5 1554,-201.5"/>
<text text-anchor="start" x="1562" y="-219.5" font-family="Helvetica,sans-Serif" font-size="10.00">include/yaclib/async</text>
<text text-anchor="middle" x="1606" y="-208.5" font-family="Helvetica,sans-Serif" font-size="10.00">/promise.hpp</text>
</a>
</g>
</g>
<!-- Node1&#45;&gt;Node25 -->
<g id="edge36" class="edge">
<title>Node1&#45;&gt;Node25</title>
<path fill="none" stroke="midnightblue" d="M1122.93,-399.85C1157.22,-390.73 1199.67,-378.71 1237,-366 1364.15,-322.72 1511.09,-259.49 1574.36,-231.6"/>
<polygon fill="midnightblue" stroke="midnightblue" points="1121.8,-396.53 1113.03,-402.47 1123.59,-403.3 1121.8,-396.53"/>
</g>
<!-- Node27 -->
<g id="node27" class="node">
<title>Node27</title>
<g id="a_node27"><a xlink:href="promise__type_8hpp.html" target="_top" xlink:title=" ">
<polygon fill="none" stroke="black" points="1106,-335.5 1106,-365.5 1228,-365.5 1228,-335.5 1106,-335.5"/>
<text text-anchor="start" x="1114" y="-353.5" font-family="Helvetica,sans-Serif" font-size="10.00">include/yaclib/coroutine</text>
<text text-anchor="middle" x="1167" y="-342.5" font-family="Helvetica,sans-Serif" font-size="10.00">/detail/promise_type.hpp</text>
</a>
</g>
</g>
<!-- Node1&#45;&gt;Node27 -->
<g id="edge40" class="edge">
<title>Node1&#45;&gt;Node27</title>
<path fill="none" stroke="midnightblue" d="M1089.5,-397.3C1106.71,-387.12 1127.48,-374.85 1143.18,-365.58"/>
<polygon fill="midnightblue" stroke="midnightblue" points="1087.7,-394.3 1080.87,-402.4 1091.26,-400.32 1087.7,-394.3"/>
</g>
<!-- Node32 -->
<g id="node32" class="node">
<title>Node32</title>
<g id="a_node32"><a xlink:href="result__core_8cpp.html" target="_top" xlink:title=" ">
<polygon fill="none" stroke="black" points="1375,-341 1375,-360 1503,-360 1503,-341 1375,-341"/>
<text text-anchor="middle" x="1439" y="-348" font-family="Helvetica,sans-Serif" font-size="10.00">src/async/result_core.cpp</text>
</a>
</g>
</g>
<!-- Node1&#45;&gt;Node32 -->
<g id="edge46" class="edge">
<title>Node1&#45;&gt;Node32</title>
<path fill="none" stroke="midnightblue" d="M1123.06,-405.9C1184.68,-395.92 1279.14,-380.41 1361,-366 1371.72,-364.11 1383.25,-362.01 1394.07,-360"/>
<polygon fill="midnightblue" stroke="midnightblue" points="1122.4,-402.46 1113.08,-407.51 1123.52,-409.37 1122.4,-402.46"/>
</g>
<!-- Node3 -->
<g id="node3" class="node">
<title>Node3</title>
<g id="a_node3"><a xlink:href="when__all_8hpp.html" target="_top" xlink:title=" ">
<polygon fill="none" stroke="black" points="581,-67.5 581,-97.5 677,-97.5 677,-67.5 581,-67.5"/>
<text text-anchor="start" x="589" y="-85.5" font-family="Helvetica,sans-Serif" font-size="10.00">include/yaclib/algo</text>
<text text-anchor="middle" x="629" y="-74.5" font-family="Helvetica,sans-Serif" font-size="10.00">/when_all.hpp</text>
</a>
</g>
</g>
<!-- Node2&#45;&gt;Node3 -->
<g id="edge2" class="edge">
<title>Node2&#45;&gt;Node3</title>
<path fill="none" stroke="midnightblue" d="M563.5,-258.03C561.44,-227.51 561.36,-174.42 580,-134 586.65,-119.58 599.18,-106.78 609.91,-97.68"/>
<polygon fill="midnightblue" stroke="midnightblue" points="560.03,-258.51 564.32,-268.19 567.01,-257.94 560.03,-258.51"/>
</g>
<!-- Node4 -->
<g id="node4" class="node">
<title>Node4</title>
<g id="a_node4"><a xlink:href="when__all_8cpp.html" target="_top" xlink:title=" ">
<polygon fill="none" stroke="black" points="595.5,-0.5 595.5,-30.5 696.5,-30.5 696.5,-0.5 595.5,-0.5"/>
<text text-anchor="start" x="603.5" y="-18.5" font-family="Helvetica,sans-Serif" font-size="10.00">test/example/async</text>
<text text-anchor="middle" x="646" y="-7.5" font-family="Helvetica,sans-Serif" font-size="10.00">/when_all.cpp</text>
</a>
</g>
</g>
<!-- Node3&#45;&gt;Node4 -->
<g id="edge3" class="edge">
<title>Node3&#45;&gt;Node4</title>
<path fill="none" stroke="midnightblue" d="M635.23,-57.7C637.61,-48.59 640.25,-38.49 642.32,-30.58"/>
<polygon fill="midnightblue" stroke="midnightblue" points="631.83,-56.84 632.69,-67.4 638.61,-58.61 631.83,-56.84"/>
</g>
<!-- Node6 -->
<g id="node6" class="node">
<title>Node6</title>
<g id="a_node6"><a xlink:href="when__any_8hpp.html" target="_top" xlink:title=" ">
<polygon fill="none" stroke="black" points="711,-67.5 711,-97.5 807,-97.5 807,-67.5 711,-67.5"/>
<text text-anchor="start" x="719" y="-85.5" font-family="Helvetica,sans-Serif" font-size="10.00">include/yaclib/algo</text>
<text text-anchor="middle" x="759" y="-74.5" font-family="Helvetica,sans-Serif" font-size="10.00">/when_any.hpp</text>
</a>
</g>
</g>
<!-- Node5&#45;&gt;Node6 -->
<g id="edge5" class="edge">
<title>Node5&#45;&gt;Node6</title>
<path fill="none" stroke="midnightblue" d="M1031.57,-258.03C1038.7,-225.41 1045.39,-167.87 1015,-134 984.4,-99.9 856.7,-108.06 812,-98 810.42,-97.64 808.81,-97.27 807.19,-96.89"/>
<polygon fill="midnightblue" stroke="midnightblue" points="1028.09,-257.53 1029.18,-268.06 1034.9,-259.14 1028.09,-257.53"/>
</g>
<!-- Node7 -->
<g id="node7" class="node">
<title>Node7</title>
<g id="a_node7"><a xlink:href="when__any_8cpp.html" target="_top" xlink:title=" ">
<polygon fill="none" stroke="black" points="723.5,-0.5 723.5,-30.5 824.5,-30.5 824.5,-0.5 723.5,-0.5"/>
<text text-anchor="start" x="731.5" y="-18.5" font-family="Helvetica,sans-Serif" font-size="10.00">test/example/async</text>
<text text-anchor="middle" x="774" y="-7.5" font-family="Helvetica,sans-Serif" font-size="10.00">/when_any.cpp</text>
</a>
</g>
</g>
<!-- Node6&#45;&gt;Node7 -->
<g id="edge6" class="edge">
<title>Node6&#45;&gt;Node7</title>
<path fill="none" stroke="midnightblue" d="M764.56,-57.4C766.65,-48.37 768.94,-38.41 770.75,-30.58"/>
<polygon fill="midnightblue" stroke="midnightblue" points="761.09,-56.87 762.25,-67.4 767.91,-58.44 761.09,-56.87"/>
</g>
<!-- Node9 -->
<g id="node9" class="node">
<title>Node9</title>
<g id="a_node9"><a xlink:href="future__impl_8hpp.html" target="_top" xlink:title=" ">
<polygon fill="none" stroke="black" points="680,-268.5 680,-298.5 792,-298.5 792,-268.5 680,-268.5"/>
<text text-anchor="start" x="688" y="-286.5" font-family="Helvetica,sans-Serif" font-size="10.00">include/yaclib/async</text>
<text text-anchor="middle" x="736" y="-275.5" font-family="Helvetica,sans-Serif" font-size="10.00">/detail/future_impl.hpp</text>
</a>
</g>
</g>
<!-- Node8&#45;&gt;Node9 -->
<g id="edge8" class="edge">
<title>Node8&#45;&gt;Node9</title>
<path fill="none" stroke="midnightblue" d="M915.27,-332.85C875.97,-322.25 825.64,-308.68 788.32,-298.61"/>
<polygon fill="midnightblue" stroke="midnightblue" points="914.44,-336.25 925,-335.48 916.26,-329.49 914.44,-336.25"/>
</g>
<!-- Node19 -->
<g id="node19" class="node">
<title>Node19</title>
<g id="a_node19"><a xlink:href="run_8hpp.html" target="_top" xlink:title=" ">
<polygon fill="none" stroke="black" points="1062,-134.5 1062,-164.5 1166,-164.5 1166,-134.5 1062,-134.5"/>
<text text-anchor="start" x="1070" y="-152.5" font-family="Helvetica,sans-Serif" font-size="10.00">include/yaclib/async</text>
<text text-anchor="middle" x="1114" y="-141.5" font-family="Helvetica,sans-Serif" font-size="10.00">/run.hpp</text>
</a>
</g>
</g>
<!-- Node8&#45;&gt;Node19 -->
<g id="edge34" class="edge">
<title>Node8&#45;&gt;Node19</title>
<path fill="none" stroke="midnightblue" d="M1038.72,-338.21C1061.51,-330.87 1085.33,-318.8 1100,-299 1130.06,-258.42 1122.45,-193.5 1117.11,-164.87"/>
<polygon fill="midnightblue" stroke="midnightblue" points="1037.64,-334.88 1029.04,-341.08 1039.62,-341.59 1037.64,-334.88"/>
</g>
<!-- Node9&#45;&gt;Node10 -->
<g id="edge9" class="edge">
<title>Node9&#45;&gt;Node10</title>
<path fill="none" stroke="midnightblue" d="M736,-258.11C736,-249.15 736,-239.32 736,-231.58"/>
<polygon fill="midnightblue" stroke="midnightblue" points="732.5,-258.4 736,-268.4 739.5,-258.4 732.5,-258.4"/>
</g>
<!-- Node10&#45;&gt;Node3 -->
<g id="edge19" class="edge">
<title>Node10&#45;&gt;Node3</title>
<path fill="none" stroke="midnightblue" d="M673.94,-210.67C643.07,-204.76 608.31,-192.05 589,-165 573.43,-143.19 596.18,-114.41 613.22,-97.53"/>
<polygon fill="midnightblue" stroke="midnightblue" points="673.35,-214.12 683.8,-212.36 674.53,-207.22 673.35,-214.12"/>
</g>
<!-- Node10&#45;&gt;Node6 -->
<g id="edge20" class="edge">
<title>Node10&#45;&gt;Node6</title>
<path fill="none" stroke="midnightblue" d="M740.2,-191.39C744.99,-163.9 752.66,-119.89 756.56,-97.52"/>
<polygon fill="midnightblue" stroke="midnightblue" points="736.73,-190.92 738.46,-201.37 743.63,-192.12 736.73,-190.92"/>
</g>
<!-- Node11 -->
<g id="node11" class="node">
<title>Node11</title>
<g id="a_node11"><a xlink:href="when__impl_8hpp.html" target="_top" xlink:title=" ">
<polygon fill="none" stroke="black" points="598,-134.5 598,-164.5 708,-164.5 708,-134.5 598,-134.5"/>
<text text-anchor="start" x="606" y="-152.5" font-family="Helvetica,sans-Serif" font-size="10.00">include/yaclib/algo</text>
<text text-anchor="middle" x="653" y="-141.5" font-family="Helvetica,sans-Serif" font-size="10.00">/detail/when_impl.hpp</text>
</a>
</g>
</g>
<!-- Node10&#45;&gt;Node11 -->
<g id="edge10" class="edge">
<title>Node10&#45;&gt;Node11</title>
<path fill="none" stroke="midnightblue" d="M710.04,-195.17C697.35,-185.23 682.39,-173.51 670.97,-164.58"/>
<polygon fill="midnightblue" stroke="midnightblue" points="707.96,-197.99 717.99,-201.4 712.28,-192.47 707.96,-197.99"/>
</g>
<!-- Node12 -->
<g id="node12" class="node">
<title>Node12</title>
<g id="a_node12"><a xlink:href="wait_8hpp.html" target="_top" xlink:title=" ">
<polygon fill="none" stroke="black" points="0,-134.5 0,-164.5 96,-164.5 96,-134.5 0,-134.5"/>
<text text-anchor="start" x="8" y="-152.5" font-family="Helvetica,sans-Serif" font-size="10.00">include/yaclib/algo</text>
<text text-anchor="middle" x="48" y="-141.5" font-family="Helvetica,sans-Serif" font-size="10.00">/wait.hpp</text>
</a>
</g>
</g>
<!-- Node10&#45;&gt;Node12 -->
<g id="edge13" class="edge">
<title>Node10&#45;&gt;Node12</title>
<path fill="none" stroke="midnightblue" d="M673.56,-213.55C560.54,-209.33 314.75,-197.02 110,-165 105.52,-164.3 100.89,-163.45 96.26,-162.52"/>
<polygon fill="midnightblue" stroke="midnightblue" points="673.63,-217.05 683.75,-213.92 673.89,-210.06 673.63,-217.05"/>
</g>
<!-- Node13 -->
<g id="node13" class="node">
<title>Node13</title>
<g id="a_node13"><a xlink:href="wait__for_8hpp.html" target="_top" xlink:title=" ">
<polygon fill="none" stroke="black" points="910,-134.5 910,-164.5 1006,-164.5 1006,-134.5 910,-134.5"/>
<text text-anchor="start" x="918" y="-152.5" font-family="Helvetica,sans-Serif" font-size="10.00">include/yaclib/algo</text>
<text text-anchor="middle" x="958" y="-141.5" font-family="Helvetica,sans-Serif" font-size="10.00">/wait_for.hpp</text>
</a>
</g>
</g>
<!-- Node10&#45;&gt;Node13 -->
<g id="edge15" class="edge">
<title>Node10&#45;&gt;Node13</title>
<path fill="none" stroke="midnightblue" d="M793.79,-198.58C829.85,-188.02 875.72,-174.59 909.81,-164.61"/>
<polygon fill="midnightblue" stroke="midnightblue" points="792.51,-195.31 783.9,-201.48 794.48,-202.02 792.51,-195.31"/>
</g>
<!-- Node14 -->
<g id="node14" class="node">
<title>Node14</title>
<g id="a_node14"><a xlink:href="wait__group_8hpp.html" target="_top" xlink:title=" ">
<polygon fill="none" stroke="black" points="408,-134.5 408,-164.5 504,-164.5 504,-134.5 408,-134.5"/>
<text text-anchor="start" x="416" y="-152.5" font-family="Helvetica,sans-Serif" font-size="10.00">include/yaclib/algo</text>
<text text-anchor="middle" x="456" y="-141.5" font-family="Helvetica,sans-Serif" font-size="10.00">/wait_group.hpp</text>
</a>
</g>
</g>
<!-- Node10&#45;&gt;Node14 -->
<g id="edge16" class="edge">
<title>Node10&#45;&gt;Node14</title>
<path fill="none" stroke="midnightblue" d="M674.05,-201.12C622.95,-189.26 551.45,-172.66 504.45,-161.75"/>
<polygon fill="midnightblue" stroke="midnightblue" points="673.46,-204.57 683.99,-203.43 675.04,-197.76 673.46,-204.57"/>
</g>
<!-- Node16 -->
<g id="node16" class="node">
<title>Node16</title>
<g id="a_node16"><a xlink:href="wait__until_8hpp.html" target="_top" xlink:title=" ">
<polygon fill="none" stroke="black" points="152,-134.5 152,-164.5 248,-164.5 248,-134.5 152,-134.5"/>
<text text-anchor="start" x="160" y="-152.5" font-family="Helvetica,sans-Serif" font-size="10.00">include/yaclib/algo</text>
<text text-anchor="middle" x="200" y="-141.5" font-family="Helvetica,sans-Serif" font-size="10.00">/wait_until.hpp</text>
</a>
</g>
</g>
<!-- Node10&#45;&gt;Node16 -->
<g id="edge18" class="edge">
<title>Node10&#45;&gt;Node16</title>
<path fill="none" stroke="midnightblue" d="M673.68,-211.81C581.9,-205.72 405.21,-191.52 257,-165 254.09,-164.48 251.1,-163.89 248.1,-163.25"/>
<polygon fill="midnightblue" stroke="midnightblue" points="673.7,-215.32 683.91,-212.47 674.16,-208.33 673.7,-215.32"/>
</g>
<!-- Node17 -->
<g id="node17" class="node">
<title>Node17</title>
<g id="a_node17"><a xlink:href="contract_8hpp.html" target="_top" xlink:title=" ">
<polygon fill="none" stroke="black" points="1358,-134.5 1358,-164.5 1462,-164.5 1462,-134.5 1358,-134.5"/>
<text text-anchor="start" x="1366" y="-152.5" font-family="Helvetica,sans-Serif" font-size="10.00">include/yaclib/async</text>
<text text-anchor="middle" x="1410" y="-141.5" font-family="Helvetica,sans-Serif" font-size="10.00">/contract.hpp</text>
</a>
</g>
</g>
<!-- Node10&#45;&gt;Node17 -->
<g id="edge21" class="edge">
<title>Node10&#45;&gt;Node17</title>
<path fill="none" stroke="midnightblue" d="M798.43,-213.47C909.69,-209.17 1149.33,-196.77 1349,-165 1351.9,-164.54 1354.87,-164.01 1357.86,-163.44"/>
<polygon fill="midnightblue" stroke="midnightblue" points="798.25,-209.98 788.39,-213.85 798.52,-216.97 798.25,-209.98"/>
</g>
<!-- Node18 -->
<g id="node18" class="node">
<title>Node18</title>
<g id="a_node18"><a xlink:href="simple_8cpp.html" target="_top" xlink:title=" ">
<polygon fill="none" stroke="black" points="1251.5,-67.5 1251.5,-97.5 1352.5,-97.5 1352.5,-67.5 1251.5,-67.5"/>
<text text-anchor="start" x="1259.5" y="-85.5" font-family="Helvetica,sans-Serif" font-size="10.00">test/example/async</text>
<text text-anchor="middle" x="1302" y="-74.5" font-family="Helvetica,sans-Serif" font-size="10.00">/simple.cpp</text>
</a>
</g>
</g>
<!-- Node10&#45;&gt;Node18 -->
<g id="edge33" class="edge">
<title>Node10&#45;&gt;Node18</title>
<path fill="none" stroke="midnightblue" d="M798.42,-212.64C902.97,-207.13 1108.56,-193.04 1175,-165 1195.08,-156.52 1195.01,-146.31 1213,-134 1232.79,-120.45 1256.46,-107.15 1274.41,-97.6"/>
<polygon fill="midnightblue" stroke="midnightblue" points="798.13,-209.15 788.32,-213.16 798.49,-216.14 798.13,-209.15"/>
</g>
<!-- Node10&#45;&gt;Node19 -->
<g id="edge23" class="edge">
<title>Node10&#45;&gt;Node19</title>
<path fill="none" stroke="midnightblue" d="M798.22,-204.8C871.77,-192.15 992.87,-171.33 1061.77,-159.48"/>
<polygon fill="midnightblue" stroke="midnightblue" points="797.42,-201.39 788.16,-206.53 798.61,-208.28 797.42,-201.39"/>
</g>
<!-- Node20 -->
<g id="node20" class="node">
<title>Node20</title>
<g id="a_node20"><a xlink:href="await_8hpp.html" target="_top" xlink:title=" ">
<polygon fill="none" stroke="black" points="104,-67.5 104,-97.5 222,-97.5 222,-67.5 104,-67.5"/>
<text text-anchor="start" x="112" y="-85.5" font-family="Helvetica,sans-Serif" font-size="10.00">include/yaclib/coroutine</text>
<text text-anchor="middle" x="163" y="-74.5" font-family="Helvetica,sans-Serif" font-size="10.00">/await.hpp</text>
</a>
</g>
</g>
<!-- Node10&#45;&gt;Node20 -->
<g id="edge27" class="edge">
<title>Node10&#45;&gt;Node20</title>
<path fill="none" stroke="midnightblue" d="M673.53,-214.85C528.46,-212.69 178.36,-203.5 143,-165 125.95,-146.44 141.08,-115.74 152.68,-97.79"/>
<polygon fill="midnightblue" stroke="midnightblue" points="673.57,-218.35 683.62,-214.99 673.67,-211.35 673.57,-218.35"/>
</g>
<!-- Node21 -->
<g id="node21" class="node">
<title>Node21</title>
<g id="a_node21"><a xlink:href="await__awaiter_8hpp.html" target="_top" xlink:title=" ">
<polygon fill="none" stroke="black" points="266,-134.5 266,-164.5 390,-164.5 390,-134.5 266,-134.5"/>
<text text-anchor="start" x="274" y="-152.5" font-family="Helvetica,sans-Serif" font-size="10.00">include/yaclib/coroutine</text>
<text text-anchor="middle" x="328" y="-141.5" font-family="Helvetica,sans-Serif" font-size="10.00">/detail/await_awaiter.hpp</text>
</a>
</g>
</g>
<!-- Node10&#45;&gt;Node21 -->
<g id="edge28" class="edge">
<title>Node10&#45;&gt;Node21</title>
<path fill="none" stroke="midnightblue" d="M673.82,-207.18C606.08,-197.89 494.58,-181.91 399,-165 396.15,-164.5 393.24,-163.97 390.3,-163.42"/>
<polygon fill="midnightblue" stroke="midnightblue" points="673.52,-210.67 683.9,-208.56 674.47,-203.74 673.52,-210.67"/>
</g>
<!-- Node23 -->
<g id="node23" class="node">
<title>Node23</title>
<g id="a_node23"><a xlink:href="future__traits_8hpp.html" target="_top" xlink:title=" ">
<polygon fill="none" stroke="black" points="1222,-134.5 1222,-164.5 1340,-164.5 1340,-134.5 1222,-134.5"/>
<text text-anchor="start" x="1230" y="-152.5" font-family="Helvetica,sans-Serif" font-size="10.00">include/yaclib/coroutine</text>
<text text-anchor="middle" x="1281" y="-141.5" font-family="Helvetica,sans-Serif" font-size="10.00">/future_traits.hpp</text>
</a>
</g>
</g>
<!-- Node10&#45;&gt;Node23 -->
<g id="edge31" class="edge">
<title>Node10&#45;&gt;Node23</title>
<path fill="none" stroke="midnightblue" d="M798.32,-210.62C888.86,-203.13 1061.89,-187.28 1208,-165 1212.47,-164.32 1217.08,-163.55 1221.72,-162.74"/>
<polygon fill="midnightblue" stroke="midnightblue" points="797.91,-207.14 788.23,-211.45 798.48,-214.12 797.91,-207.14"/>
</g>
<!-- Node24 -->
<g id="node24" class="node">
<title>Node24</title>
<g id="a_node24"><a xlink:href="future__impl_8cpp.html" target="_top" xlink:title=" ">
<polygon fill="none" stroke="black" points="764,-140 764,-159 892,-159 892,-140 764,-140"/>
<text text-anchor="middle" x="828" y="-147" font-family="Helvetica,sans-Serif" font-size="10.00">src/async/future_impl.cpp</text>
</a>
</g>
</g>
<!-- Node10&#45;&gt;Node24 -->
<g id="edge32" class="edge">
<title>Node10&#45;&gt;Node24</title>
<path fill="none" stroke="midnightblue" d="M764.58,-195.31C781.86,-183.1 802.98,-168.18 815.96,-159.01"/>
<polygon fill="midnightblue" stroke="midnightblue" points="762.11,-192.77 755.96,-201.4 766.15,-198.48 762.11,-192.77"/>
</g>
<!-- Node11&#45;&gt;Node3 -->
<g id="edge11" class="edge">
<title>Node11&#45;&gt;Node3</title>
<path fill="none" stroke="midnightblue" d="M644.32,-124.99C640.93,-115.8 637.15,-105.58 634.2,-97.58"/>
<polygon fill="midnightblue" stroke="midnightblue" points="641.05,-126.23 647.79,-134.4 647.61,-123.8 641.05,-126.23"/>
</g>
<!-- Node11&#45;&gt;Node6 -->
<g id="edge12" class="edge">
<title>Node11&#45;&gt;Node6</title>
<path fill="none" stroke="midnightblue" d="M684.78,-129.02C701.27,-118.9 721.05,-106.77 736.04,-97.58"/>
<polygon fill="midnightblue" stroke="midnightblue" points="682.7,-126.18 676,-134.4 686.35,-132.15 682.7,-126.18"/>
</g>
<!-- Node12&#45;&gt;Node9 -->
<g id="edge14" class="edge">
<title>Node12&#45;&gt;Node9</title>
<path fill="none" stroke="midnightblue" d="M106.46,-161.72C237.16,-186.79 551.62,-247.12 679.99,-271.75"/>
<polygon fill="midnightblue" stroke="midnightblue" points="106.73,-158.2 96.25,-159.76 105.41,-165.08 106.73,-158.2"/>
</g>
<!-- Node15 -->
<g id="node15" class="node">
<title>Node15</title>
<g id="a_node15"><a xlink:href="wait__group_8cpp.html" target="_top" xlink:title=" ">
<polygon fill="none" stroke="black" points="396.5,-73 396.5,-92 515.5,-92 515.5,-73 396.5,-73"/>
<text text-anchor="middle" x="456" y="-80" font-family="Helvetica,sans-Serif" font-size="10.00">src/algo/wait_group.cpp</text>
</a>
</g>
</g>
<!-- Node14&#45;&gt;Node15 -->
<g id="edge17" class="edge">
<title>Node14&#45;&gt;Node15</title>
<path fill="none" stroke="midnightblue" d="M456,-124.25C456,-113.02 456,-100.38 456,-92.19"/>
<polygon fill="midnightblue" stroke="midnightblue" points="452.5,-124.4 456,-134.4 459.5,-124.4 452.5,-124.4"/>
</g>
<!-- Node17&#45;&gt;Node18 -->
<g id="edge22" class="edge">
<title>Node17&#45;&gt;Node18</title>
<path fill="none" stroke="midnightblue" d="M1377.63,-129.02C1360.82,-118.9 1340.66,-106.77 1325.39,-97.58"/>
<polygon fill="midnightblue" stroke="midnightblue" points="1376.19,-132.24 1386.57,-134.4 1379.8,-126.24 1376.19,-132.24"/>
</g>
<!-- Node19&#45;&gt;Node4 -->
<g id="edge25" class="edge">
<title>Node19&#45;&gt;Node4</title>
<path fill="none" stroke="midnightblue" d="M1052.07,-134.61C1011.22,-125.11 956.65,-111.79 909,-98 867.15,-85.89 857.55,-80.09 816,-67 775.33,-54.18 728.91,-40.45 694.86,-30.55"/>
<polygon fill="midnightblue" stroke="midnightblue" points="1051.35,-138.03 1061.88,-136.88 1052.92,-131.21 1051.35,-138.03"/>
</g>
<!-- Node19&#45;&gt;Node7 -->
<g id="edge26" class="edge">
<title>Node19&#45;&gt;Node7</title>
<path fill="none" stroke="midnightblue" d="M1068.3,-130.76C999.96,-104.23 872.53,-54.75 810.21,-30.56"/>
<polygon fill="midnightblue" stroke="midnightblue" points="1067.35,-134.14 1077.94,-134.5 1069.88,-127.62 1067.35,-134.14"/>
</g>
<!-- Node19&#45;&gt;Node18 -->
<g id="edge24" class="edge">
<title>Node19&#45;&gt;Node18</title>
<path fill="none" stroke="midnightblue" d="M1164.35,-131.09C1194.7,-120.6 1232.85,-107.41 1261.29,-97.58"/>
<polygon fill="midnightblue" stroke="midnightblue" points="1163.1,-127.82 1154.79,-134.4 1165.39,-134.44 1163.1,-127.82"/>
</g>
<!-- Node21&#45;&gt;Node20 -->
<g id="edge29" class="edge">
<title>Node21&#45;&gt;Node20</title>
<path fill="none" stroke="midnightblue" d="M282.77,-130.68C256.31,-120.26 223.37,-107.28 198.73,-97.58"/>
<polygon fill="midnightblue" stroke="midnightblue" points="281.61,-133.99 292.2,-134.4 284.18,-127.47 281.61,-133.99"/>
</g>
<!-- Node22 -->
<g id="node22" class="node">
<title>Node22</title>
<g id="a_node22"><a xlink:href="await__awaiter_8cpp.html" target="_top" xlink:title=" ">
<polygon fill="none" stroke="black" points="278.5,-67.5 278.5,-97.5 377.5,-97.5 377.5,-67.5 278.5,-67.5"/>
<text text-anchor="start" x="286.5" y="-85.5" font-family="Helvetica,sans-Serif" font-size="10.00">src/coroutine/await</text>
<text text-anchor="middle" x="328" y="-74.5" font-family="Helvetica,sans-Serif" font-size="10.00">_awaiter.cpp</text>
</a>
</g>
</g>
<!-- Node21&#45;&gt;Node22 -->
<g id="edge30" class="edge">
<title>Node21&#45;&gt;Node22</title>
<path fill="none" stroke="midnightblue" d="M328,-124.11C328,-115.15 328,-105.32 328,-97.58"/>
<polygon fill="midnightblue" stroke="midnightblue" points="324.5,-124.4 328,-134.4 331.5,-124.4 324.5,-124.4"/>
</g>
<!-- Node25&#45;&gt;Node17 -->
<g id="edge37" class="edge">
<title>Node25&#45;&gt;Node17</title>
<path fill="none" stroke="midnightblue" d="M1553.92,-198.23C1522.21,-187.71 1482.22,-174.45 1452.45,-164.58"/>
<polygon fill="midnightblue" stroke="midnightblue" points="1552.88,-201.57 1563.47,-201.4 1555.08,-194.93 1552.88,-201.57"/>
</g>
<!-- Node25&#45;&gt;Node18 -->
<g id="edge39" class="edge">
<title>Node25&#45;&gt;Node18</title>
<path fill="none" stroke="midnightblue" d="M1609.02,-191.08C1609.82,-172.9 1607.57,-148.77 1593,-134 1560.23,-100.78 1426.98,-89.27 1352.67,-85.39"/>
<polygon fill="midnightblue" stroke="midnightblue" points="1605.52,-191 1608.24,-201.23 1612.5,-191.53 1605.52,-191"/>
</g>
<!-- Node26 -->
<g id="node26" class="node">
<title>Node26</title>
<g id="a_node26"><a xlink:href="promise__impl_8cpp.html" target="_top" xlink:title=" ">
<polygon fill="none" stroke="black" points="1640.5,-140 1640.5,-159 1777.5,-159 1777.5,-140 1640.5,-140"/>
<text text-anchor="middle" x="1709" y="-147" font-family="Helvetica,sans-Serif" font-size="10.00">src/async/promise_impl.cpp</text>
</a>
</g>
</g>
<!-- Node25&#45;&gt;Node26 -->
<g id="edge38" class="edge">
<title>Node25&#45;&gt;Node26</title>
<path fill="none" stroke="midnightblue" d="M1636.94,-195.97C1656.47,-183.65 1680.72,-168.35 1695.52,-159.01"/>
<polygon fill="midnightblue" stroke="midnightblue" points="1634.94,-193.1 1628.35,-201.4 1638.67,-199.02 1634.94,-193.1"/>
</g>
<!-- Node27&#45;&gt;Node23 -->
<g id="edge45" class="edge">
<title>Node27&#45;&gt;Node23</title>
<path fill="none" stroke="midnightblue" d="M1163.93,-325.24C1161.25,-293.72 1161.16,-238.3 1187,-201 1198.6,-184.25 1217.59,-172.57 1235.47,-164.7"/>
<polygon fill="midnightblue" stroke="midnightblue" points="1160.46,-325.73 1164.95,-335.33 1167.42,-325.03 1160.46,-325.73"/>
</g>
<!-- Node28 -->
<g id="node28" class="node">
<title>Node28</title>
<g id="a_node28"><a xlink:href="on__awaiter_8hpp.html" target="_top" xlink:title=" ">
<polygon fill="none" stroke="black" points="1201,-268.5 1201,-298.5 1319,-298.5 1319,-268.5 1201,-268.5"/>
<text text-anchor="start" x="1209" y="-286.5" font-family="Helvetica,sans-Serif" font-size="10.00">include/yaclib/coroutine</text>
<text text-anchor="middle" x="1260" y="-275.5" font-family="Helvetica,sans-Serif" font-size="10.00">/detail/on_awaiter.hpp</text>
</a>
</g>
</g>
<!-- Node27&#45;&gt;Node28 -->
<g id="edge41" class="edge">
<title>Node27&#45;&gt;Node28</title>
<path fill="none" stroke="midnightblue" d="M1195.69,-329.45C1209.99,-319.45 1226.95,-307.6 1239.86,-298.58"/>
<polygon fill="midnightblue" stroke="midnightblue" points="1193.37,-326.8 1187.18,-335.4 1197.38,-332.54 1193.37,-326.8"/>
</g>
<!-- Node29 -->
<g id="node29" class="node">
<title>Node29</title>
<g id="a_node29"><a xlink:href="on_8hpp.html" target="_top" xlink:title=" ">
<polygon fill="none" stroke="black" points="1397,-201.5 1397,-231.5 1515,-231.5 1515,-201.5 1397,-201.5"/>
<text text-anchor="start" x="1405" y="-219.5" font-family="Helvetica,sans-Serif" font-size="10.00">include/yaclib/coroutine</text>
<text text-anchor="middle" x="1456" y="-208.5" font-family="Helvetica,sans-Serif" font-size="10.00">/on.hpp</text>
</a>
</g>
</g>
<!-- Node28&#45;&gt;Node29 -->
<g id="edge42" class="edge">
<title>Node28&#45;&gt;Node29</title>
<path fill="none" stroke="midnightblue" d="M1312.08,-265.23C1343.79,-254.71 1383.78,-241.45 1413.55,-231.58"/>
<polygon fill="midnightblue" stroke="midnightblue" points="1310.92,-261.93 1302.53,-268.4 1313.12,-268.57 1310.92,-261.93"/>
</g>
<!-- Node31 -->
<g id="node31" class="node">
<title>Node31</title>
<g id="a_node31"><a xlink:href="on__awaiter_8cpp.html" target="_top" xlink:title=" ">
<polygon fill="none" stroke="black" points="1195.5,-207 1195.5,-226 1336.5,-226 1336.5,-207 1195.5,-207"/>
<text text-anchor="middle" x="1266" y="-214" font-family="Helvetica,sans-Serif" font-size="10.00">src/coroutine/on_awaiter.cpp</text>
</a>
</g>
</g>
<!-- Node28&#45;&gt;Node31 -->
<g id="edge44" class="edge">
<title>Node28&#45;&gt;Node31</title>
<path fill="none" stroke="midnightblue" d="M1262.24,-258.25C1263.28,-247.02 1264.44,-234.38 1265.2,-226.19"/>
<polygon fill="midnightblue" stroke="midnightblue" points="1258.74,-258.12 1261.3,-268.4 1265.71,-258.76 1258.74,-258.12"/>
</g>
<!-- Node30 -->
<g id="node30" class="node">
<title>Node30</title>
<g id="a_node30"><a xlink:href="on_8cpp.html" target="_top" xlink:title=" ">
<polygon fill="none" stroke="black" points="1480,-140 1480,-159 1584,-159 1584,-140 1480,-140"/>
<text text-anchor="middle" x="1532" y="-147" font-family="Helvetica,sans-Serif" font-size="10.00">src/coroutine/on.cpp</text>
</a>
</g>
</g>
<!-- Node29&#45;&gt;Node30 -->
<g id="edge43" class="edge">
<title>Node29&#45;&gt;Node30</title>
<path fill="none" stroke="midnightblue" d="M1480.35,-194.67C1494.39,-182.67 1511.28,-168.22 1521.83,-159.19"/>
<polygon fill="midnightblue" stroke="midnightblue" points="1477.82,-192.24 1472.49,-201.4 1482.37,-197.56 1477.82,-192.24"/>
</g>
</g>
</svg>
        <g id="navigator" transform="translate(0 0)" fill="#404254">
                <rect fill="#f2f5e9" fill-opacity="0.5" stroke="#606060" stroke-width=".5" x="0" y="0" width="60" height="60"/>
                <use id="zoomplus" xlink:href="#zoomPlus" x="17" y="9" onmousedown="handleZoom(evt,'in')"/>
                <use id="zoomminus" xlink:href="#zoomMin" x="42" y="9" onmousedown="handleZoom(evt,'out')"/>
                <use id="reset" xlink:href="#resetDef" x="30" y="36" onmousedown="handleReset()"/>
                <g id="arrowUp" xlink:href="#dirArrow" transform="translate(30 24)" onmousedown="handlePan(0,-1)">
                  <use xlink:href="#rim" fill="#404040">
                        <set attributeName="fill" to="#808080" begin="arrowUp.mouseover" end="arrowUp.mouseout"/>
                  </use>
                  <path fill="none" stroke="white" stroke-width="1.5" d="M0,-3.0v7 M-2.5,-0.5L0,-3.0L2.5,-0.5"/>
                </g>
                <g id="arrowRight" xlink:href="#dirArrow" transform="rotate(90) translate(36 -43)" onmousedown="handlePan(1,0)">
                  <use xlink:href="#rim" fill="#404040">
                        <set attributeName="fill" to="#808080" begin="arrowRight.mouseover" end="arrowRight.mouseout"/>
                  </use>
                  <path fill="none" stroke="white" stroke-width="1.5" d="M0,-3.0v7 M-2.5,-0.5L0,-3.0L2.5,-0.5"/>
                </g>
                <g id="arrowDown" xlink:href="#dirArrow" transform="rotate(180) translate(-30 -48)" onmousedown="handlePan(0,1)">
                  <use xlink:href="#rim" fill="#404040">
                        <set attributeName="fill" to="#808080" begin="arrowDown.mouseover" end="arrowDown.mouseout"/>
                  </use>
                  <path fill="none" stroke="white" stroke-width="1.5" d="M0,-3.0v7 M-2.5,-0.5L0,-3.0L2.5,-0.5"/>
                </g>
                <g id="arrowLeft" xlink:href="#dirArrow" transform="rotate(270) translate(-36 17)" onmousedown="handlePan(-1,0)">
                  <use xlink:href="#rim" fill="#404040">
                        <set attributeName="fill" to="#808080" begin="arrowLeft.mouseover" end="arrowLeft.mouseout"/>
                  </use>
                  <path fill="none" stroke="white" stroke-width="1.5" d="M0,-3.0v7 M-2.5,-0.5L0,-3.0L2.5,-0.5"/>
                </g>
        </g>
        <svg viewBox="0 0 15 15" width="100%" height="30px" preserveAspectRatio="xMaxYMin meet">
         <g id="arrow_out" transform="scale(0.3 0.3)">
          <a xlink:href="result__core_8hpp__dep__incl_org.svg" target="_base">
           <rect id="button" ry="5" rx="5" y="6" x="6" height="38" width="38"
                fill="#f2f5e9" fill-opacity="0.5" stroke="#606060" stroke-width="1.0"/>
           <path id="arrow"
             d="M 11.500037,31.436501 C 11.940474,20.09759 22.043105,11.32322 32.158766,21.979434 L 37.068811,17.246167 C 37.068811,17.246167 37.088388,32 37.088388,32 L 22.160133,31.978069 C 22.160133,31.978069 26.997745,27.140456 26.997745,27.140456 C 18.528582,18.264221 13.291696,25.230495 11.500037,31.436501 z"
             style="fill:#404040;"/>
          </a>
         </g>
        </svg>
</svg>
