<?xml version="1.0" encoding="UTF-8" standalone="no"?>
<!DOCTYPE svg PUBLIC "-//W3C//DTD SVG 1.1//EN"
 "http://www.w3.org/Graphics/SVG/1.1/DTD/svg11.dtd">
<!-- Generated by graphviz version 3.0.0 (20220413.0106)
 -->
<!-- Title: include/yaclib/async/run.hpp Pages: 1 -->
<svg width="1371pt" height="676pt"
 viewBox="0.00 0.00 1370.83 676.00" xmlns="http://www.w3.org/2000/svg" xmlns:xlink="http://www.w3.org/1999/xlink">
<g id="graph0" class="graph" transform="scale(1 1) rotate(0) translate(4 672)">
<title>include/yaclib/async/run.hpp</title>
<!-- Node1 -->
<g id="node1" class="node">
<title>Node1</title>
<g id="a_node1"><a xlink:title=" ">
<polygon fill="#bfbfbf" stroke="black" points="746.83,-637.5 746.83,-667.5 850.83,-667.5 850.83,-637.5 746.83,-637.5"/>
<text text-anchor="start" x="754.83" y="-655.5" font-family="Helvetica,sans-Serif" font-size="10.00">include/yaclib/async</text>
<text text-anchor="middle" x="798.83" y="-644.5" font-family="Helvetica,sans-Serif" font-size="10.00">/run.hpp</text>
</a>
</g>
</g>
<!-- Node2 -->
<g id="node2" class="node">
<title>Node2</title>
<g id="a_node2"><a xlink:href="core_8hpp.html" target="_top" xlink:title=" ">
<polygon fill="none" stroke="black" points="711.83,-447.5 711.83,-477.5 807.83,-477.5 807.83,-447.5 711.83,-447.5"/>
<text text-anchor="start" x="719.83" y="-465.5" font-family="Helvetica,sans-Serif" font-size="10.00">yaclib/async/detail</text>
<text text-anchor="middle" x="759.83" y="-454.5" font-family="Helvetica,sans-Serif" font-size="10.00">/core.hpp</text>
</a>
</g>
</g>
<!-- Node1&#45;&gt;Node2 -->
<g id="edge1" class="edge">
<title>Node1&#45;&gt;Node2</title>
<path fill="none" stroke="midnightblue" d="M775,-637.35C761.14,-628.26 744.05,-615.47 731.83,-601 713.75,-579.59 709.47,-572.23 702.83,-545 699.57,-531.61 697.18,-526.56 702.83,-514 708.18,-502.13 717.84,-491.92 727.71,-483.85"/>
<polygon fill="midnightblue" stroke="midnightblue" points="730.11,-486.43 735.96,-477.59 725.87,-480.85 730.11,-486.43"/>
</g>
<!-- Node12 -->
<g id="node12" class="node">
<title>Node12</title>
<g id="a_node12"><a xlink:href="executor_8hpp.html" target="_top" xlink:title=" ">
<polygon fill="none" stroke="black" points="1119.33,-252 1119.33,-271 1258.33,-271 1258.33,-252 1119.33,-252"/>
<text text-anchor="middle" x="1188.83" y="-259" font-family="Helvetica,sans-Serif" font-size="10.00">yaclib/executor/executor.hpp</text>
</a>
</g>
</g>
<!-- Node1&#45;&gt;Node12 -->
<g id="edge71" class="edge">
<title>Node1&#45;&gt;Node12</title>
<path fill="none" stroke="midnightblue" d="M851.06,-649.57C976.95,-643.51 1286.83,-619.53 1286.83,-530.5 1286.83,-530.5 1286.83,-530.5 1286.83,-394.5 1286.83,-343.28 1238.69,-299.01 1209.89,-277.12"/>
<polygon fill="midnightblue" stroke="midnightblue" points="1211.78,-274.16 1201.65,-271.05 1207.63,-279.8 1211.78,-274.16"/>
</g>
<!-- Node15 -->
<g id="node15" class="node">
<title>Node15</title>
<g id="a_node15"><a xlink:href="log_8hpp.html" target="_top" xlink:title=" ">
<polygon fill="none" stroke="black" points="1287.33,-56.5 1287.33,-75.5 1362.33,-75.5 1362.33,-56.5 1287.33,-56.5"/>
<text text-anchor="middle" x="1324.83" y="-63.5" font-family="Helvetica,sans-Serif" font-size="10.00">yaclib/log.hpp</text>
</a>
</g>
</g>
<!-- Node1&#45;&gt;Node15 -->
<g id="edge72" class="edge">
<title>Node1&#45;&gt;Node15</title>
<path fill="none" stroke="midnightblue" d="M850.88,-651.32C990.51,-649.44 1362.83,-634.65 1362.83,-530.5 1362.83,-530.5 1362.83,-530.5 1362.83,-193.5 1362.83,-153.35 1345.06,-108.95 1333.82,-84.89"/>
<polygon fill="midnightblue" stroke="midnightblue" points="1336.85,-83.1 1329.34,-75.63 1330.55,-86.15 1336.85,-83.1"/>
</g>
<!-- Node19 -->
<g id="node19" class="node">
<title>Node19</title>
<g id="a_node19"><a xlink:href="type__traits_8hpp.html" target="_top" xlink:title=" ">
<polygon fill="none" stroke="black" points="35.33,-252 35.33,-271 158.33,-271 158.33,-252 35.33,-252"/>
<text text-anchor="middle" x="96.83" y="-259" font-family="Helvetica,sans-Serif" font-size="10.00">yaclib/util/type_traits.hpp</text>
</a>
</g>
</g>
<!-- Node1&#45;&gt;Node19 -->
<g id="edge73" class="edge">
<title>Node1&#45;&gt;Node19</title>
<path fill="none" stroke="midnightblue" d="M746.55,-648.13C582.36,-636.85 87.83,-597.33 87.83,-530.5 87.83,-530.5 87.83,-530.5 87.83,-394.5 87.83,-354.06 92.09,-306.82 94.75,-281.25"/>
<polygon fill="midnightblue" stroke="midnightblue" points="98.25,-281.45 95.84,-271.13 91.29,-280.7 98.25,-281.45"/>
</g>
<!-- Node27 -->
<g id="node27" class="node">
<title>Node27</title>
<g id="a_node27"><a xlink:href="future_8hpp.html" target="_top" xlink:title=" ">
<polygon fill="none" stroke="black" points="740.83,-581.5 740.83,-600.5 856.83,-600.5 856.83,-581.5 740.83,-581.5"/>
<text text-anchor="middle" x="798.83" y="-588.5" font-family="Helvetica,sans-Serif" font-size="10.00">yaclib/async/future.hpp</text>
</a>
</g>
</g>
<!-- Node1&#45;&gt;Node27 -->
<g id="edge40" class="edge">
<title>Node1&#45;&gt;Node27</title>
<path fill="none" stroke="midnightblue" d="M798.83,-637.4C798.83,-629.47 798.83,-619.46 798.83,-610.86"/>
<polygon fill="midnightblue" stroke="midnightblue" points="802.33,-610.66 798.83,-600.66 795.33,-610.66 802.33,-610.66"/>
</g>
<!-- Node3 -->
<g id="node3" class="node">
<title>Node3</title>
<g id="a_node3"><a xlink:href="result__core_8hpp.html" target="_top" xlink:title=" ">
<polygon fill="none" stroke="black" points="928.83,-380.5 928.83,-410.5 1024.83,-410.5 1024.83,-380.5 928.83,-380.5"/>
<text text-anchor="start" x="936.83" y="-398.5" font-family="Helvetica,sans-Serif" font-size="10.00">yaclib/async/detail</text>
<text text-anchor="middle" x="976.83" y="-387.5" font-family="Helvetica,sans-Serif" font-size="10.00">/result_core.hpp</text>
</a>
</g>
</g>
<!-- Node2&#45;&gt;Node3 -->
<g id="edge2" class="edge">
<title>Node2&#45;&gt;Node3</title>
<path fill="none" stroke="midnightblue" d="M806.65,-447.48C839.91,-437.51 884.74,-424.09 920.04,-413.51"/>
<polygon fill="midnightblue" stroke="midnightblue" points="921.15,-416.83 929.73,-410.61 919.14,-410.13 921.15,-416.83"/>
</g>
<!-- Node24 -->
<g id="node24" class="node">
<title>Node24</title>
<g id="a_node24"><a xlink:href="atomic__counter_8hpp.html" target="_top" xlink:title=" ">
<polygon fill="none" stroke="black" points="768.83,-313.5 768.83,-343.5 872.83,-343.5 872.83,-313.5 768.83,-313.5"/>
<text text-anchor="start" x="776.83" y="-331.5" font-family="Helvetica,sans-Serif" font-size="10.00">yaclib/util/detail</text>
<text text-anchor="middle" x="820.83" y="-320.5" font-family="Helvetica,sans-Serif" font-size="10.00">/atomic_counter.hpp</text>
</a>
</g>
</g>
<!-- Node2&#45;&gt;Node24 -->
<g id="edge35" class="edge">
<title>Node2&#45;&gt;Node24</title>
<path fill="none" stroke="midnightblue" d="M761.14,-447.28C763.12,-430.46 767.9,-401.99 778.83,-380 783.99,-369.63 791.66,-359.54 799.05,-351.14"/>
<polygon fill="midnightblue" stroke="midnightblue" points="801.74,-353.38 805.94,-343.65 796.6,-348.64 801.74,-353.38"/>
</g>
<!-- Node4 -->
<g id="node4" class="node">
<title>Node4</title>
<g id="a_node4"><a xlink:href="base__core_8hpp.html" target="_top" xlink:title=" ">
<polygon fill="none" stroke="black" points="928.83,-313.5 928.83,-343.5 1024.83,-343.5 1024.83,-313.5 928.83,-313.5"/>
<text text-anchor="start" x="936.83" y="-331.5" font-family="Helvetica,sans-Serif" font-size="10.00">yaclib/async/detail</text>
<text text-anchor="middle" x="976.83" y="-320.5" font-family="Helvetica,sans-Serif" font-size="10.00">/base_core.hpp</text>
</a>
</g>
</g>
<!-- Node3&#45;&gt;Node4 -->
<g id="edge3" class="edge">
<title>Node3&#45;&gt;Node4</title>
<path fill="none" stroke="midnightblue" d="M976.83,-380.4C976.83,-372.64 976.83,-362.81 976.83,-353.86"/>
<polygon fill="midnightblue" stroke="midnightblue" points="980.33,-353.58 976.83,-343.58 973.33,-353.58 980.33,-353.58"/>
</g>
<!-- Node5 -->
<g id="node5" class="node">
<title>Node5</title>
<g id="a_node5"><a xlink:href="inline__core_8hpp.html" target="_top" xlink:title=" ">
<polygon fill="none" stroke="black" points="1004.83,-246.5 1004.83,-276.5 1100.83,-276.5 1100.83,-246.5 1004.83,-246.5"/>
<text text-anchor="start" x="1012.83" y="-264.5" font-family="Helvetica,sans-Serif" font-size="10.00">yaclib/async/detail</text>
<text text-anchor="middle" x="1052.83" y="-253.5" font-family="Helvetica,sans-Serif" font-size="10.00">/inline_core.hpp</text>
</a>
</g>
</g>
<!-- Node3&#45;&gt;Node5 -->
<g id="edge22" class="edge">
<title>Node3&#45;&gt;Node5</title>
<path fill="none" stroke="midnightblue" d="M1022.02,-380.34C1039.19,-372.51 1056.97,-360.85 1066.83,-344 1077.14,-326.39 1071.69,-303.22 1064.8,-286.09"/>
<polygon fill="midnightblue" stroke="midnightblue" points="1067.93,-284.51 1060.69,-276.78 1061.53,-287.34 1067.93,-284.51"/>
</g>
<!-- Node11 -->
<g id="node11" class="node">
<title>Node11</title>
<g id="a_node11"><a xlink:title=" ">
<polygon fill="none" stroke="#bfbfbf" points="981.33,-56.5 981.33,-75.5 1020.33,-75.5 1020.33,-56.5 981.33,-56.5"/>
<text text-anchor="middle" x="1000.83" y="-63.5" font-family="Helvetica,sans-Serif" font-size="10.00">utility</text>
</a>
</g>
</g>
<!-- Node3&#45;&gt;Node11 -->
<g id="edge34" class="edge">
<title>Node3&#45;&gt;Node11</title>
<path fill="none" stroke="midnightblue" d="M1024.89,-390.98C1092.41,-383.15 1213.21,-357.96 1267.83,-277 1292.05,-241.1 1338.99,-203.51 1253.83,-112 1223.95,-79.88 1090.63,-70.55 1030.47,-67.95"/>
<polygon fill="midnightblue" stroke="midnightblue" points="1030.59,-64.46 1020.46,-67.56 1030.31,-71.45 1030.59,-64.46"/>
</g>
<!-- Node13 -->
<g id="node13" class="node">
<title>Node13</title>
<g id="a_node13"><a xlink:href="intrusive__ptr_8hpp.html" target="_top" xlink:title=" ">
<polygon fill="none" stroke="black" points="890.33,-179.5 890.33,-209.5 987.33,-209.5 987.33,-179.5 890.33,-179.5"/>
<text text-anchor="start" x="898.33" y="-197.5" font-family="Helvetica,sans-Serif" font-size="10.00">yaclib/util/intrusive</text>
<text text-anchor="middle" x="938.83" y="-186.5" font-family="Helvetica,sans-Serif" font-size="10.00">_ptr.hpp</text>
</a>
</g>
</g>
<!-- Node3&#45;&gt;Node13 -->
<g id="edge23" class="edge">
<title>Node3&#45;&gt;Node13</title>
<path fill="none" stroke="midnightblue" d="M1000.71,-380.41C1013.08,-371.66 1027,-359.19 1033.83,-344 1039.49,-331.44 1039.28,-325.66 1033.83,-313 1024.64,-291.63 1011.02,-294.62 995.83,-277 979.76,-258.35 963.91,-235.19 953.02,-218.33"/>
<polygon fill="midnightblue" stroke="midnightblue" points="955.83,-216.24 947.51,-209.68 949.93,-220 955.83,-216.24"/>
</g>
<!-- Node18 -->
<g id="node18" class="node">
<title>Node18</title>
<g id="a_node18"><a xlink:href="result_8hpp.html" target="_top" xlink:title=" ">
<polygon fill="none" stroke="black" points="191.83,-319 191.83,-338 293.83,-338 293.83,-319 191.83,-319"/>
<text text-anchor="middle" x="242.83" y="-326" font-family="Helvetica,sans-Serif" font-size="10.00">yaclib/util/result.hpp</text>
</a>
</g>
</g>
<!-- Node3&#45;&gt;Node18 -->
<g id="edge24" class="edge">
<title>Node3&#45;&gt;Node18</title>
<path fill="none" stroke="midnightblue" d="M928.74,-384.36C919.51,-382.69 909.9,-381.13 900.83,-380 636.63,-346.98 566.16,-383.43 302.83,-344 296.51,-343.05 289.86,-341.76 283.4,-340.33"/>
<polygon fill="midnightblue" stroke="midnightblue" points="283.99,-336.87 273.46,-338.01 282.4,-343.69 283.99,-336.87"/>
</g>
<!-- Node4&#45;&gt;Node5 -->
<g id="edge4" class="edge">
<title>Node4&#45;&gt;Node5</title>
<path fill="none" stroke="midnightblue" d="M993.33,-313.4C1003.68,-304.54 1017.22,-292.96 1028.76,-283.09"/>
<polygon fill="midnightblue" stroke="midnightblue" points="1031.05,-285.74 1036.38,-276.58 1026.5,-280.42 1031.05,-285.74"/>
</g>
<!-- Node9 -->
<g id="node9" class="node">
<title>Node9</title>
<g id="a_node9"><a xlink:href="ref_8hpp.html" target="_top" xlink:title=" ">
<polygon fill="none" stroke="black" points="783.33,-56.5 783.33,-75.5 872.33,-75.5 872.33,-56.5 783.33,-56.5"/>
<text text-anchor="middle" x="827.83" y="-63.5" font-family="Helvetica,sans-Serif" font-size="10.00">yaclib/util/ref.hpp</text>
</a>
</g>
</g>
<!-- Node4&#45;&gt;Node9 -->
<g id="edge20" class="edge">
<title>Node4&#45;&gt;Node9</title>
<path fill="none" stroke="midnightblue" d="M962.28,-313.37C933.58,-284.47 870.1,-215.22 842.83,-143 835.72,-124.17 831.8,-101.38 829.77,-85.7"/>
<polygon fill="midnightblue" stroke="midnightblue" points="833.24,-85.22 828.6,-75.69 826.28,-86.03 833.24,-85.22"/>
</g>
<!-- Node4&#45;&gt;Node12 -->
<g id="edge11" class="edge">
<title>Node4&#45;&gt;Node12</title>
<path fill="none" stroke="midnightblue" d="M1022.57,-313.48C1061.07,-301.67 1115.45,-285 1151.4,-273.98"/>
<polygon fill="midnightblue" stroke="midnightblue" points="1152.48,-277.31 1161.02,-271.03 1150.43,-270.61 1152.48,-277.31"/>
</g>
<!-- Node4&#45;&gt;Node13 -->
<g id="edge19" class="edge">
<title>Node4&#45;&gt;Node13</title>
<path fill="none" stroke="midnightblue" d="M972.77,-313.37C966.31,-290.94 953.64,-246.92 945.74,-219.49"/>
<polygon fill="midnightblue" stroke="midnightblue" points="949,-218.17 942.87,-209.52 942.27,-220.1 949,-218.17"/>
</g>
<!-- Node17 -->
<g id="node17" class="node">
<title>Node17</title>
<g id="a_node17"><a xlink:title=" ">
<polygon fill="none" stroke="#bfbfbf" points="742.83,-252 742.83,-271 834.83,-271 834.83,-252 742.83,-252"/>
<text text-anchor="middle" x="788.83" y="-259" font-family="Helvetica,sans-Serif" font-size="10.00">yaclib_std/atomic</text>
</a>
</g>
</g>
<!-- Node4&#45;&gt;Node17 -->
<g id="edge21" class="edge">
<title>Node4&#45;&gt;Node17</title>
<path fill="none" stroke="midnightblue" d="M936.04,-313.4C902.32,-301.74 854.99,-285.37 823.18,-274.38"/>
<polygon fill="midnightblue" stroke="midnightblue" points="824.03,-270.97 813.44,-271.01 821.75,-277.58 824.03,-270.97"/>
</g>
<!-- Node6 -->
<g id="node6" class="node">
<title>Node6</title>
<g id="a_node6"><a xlink:href="job_8hpp.html" target="_top" xlink:title=" ">
<polygon fill="none" stroke="black" points="1068.33,-185 1068.33,-204 1183.33,-204 1183.33,-185 1068.33,-185"/>
<text text-anchor="middle" x="1125.83" y="-192" font-family="Helvetica,sans-Serif" font-size="10.00">yaclib/executor/job.hpp</text>
</a>
</g>
</g>
<!-- Node5&#45;&gt;Node6 -->
<g id="edge5" class="edge">
<title>Node5&#45;&gt;Node6</title>
<path fill="none" stroke="midnightblue" d="M1068.67,-246.4C1080.39,-235.96 1096.35,-221.75 1108.43,-211"/>
<polygon fill="midnightblue" stroke="midnightblue" points="1110.93,-213.46 1116.07,-204.19 1106.27,-208.23 1110.93,-213.46"/>
</g>
<!-- Node7 -->
<g id="node7" class="node">
<title>Node7</title>
<g id="a_node7"><a xlink:href="node_8hpp.html" target="_top" xlink:title=" ">
<polygon fill="none" stroke="black" points="1161.33,-112.5 1161.33,-142.5 1244.33,-142.5 1244.33,-112.5 1161.33,-112.5"/>
<text text-anchor="start" x="1169.33" y="-130.5" font-family="Helvetica,sans-Serif" font-size="10.00">yaclib/util/detail</text>
<text text-anchor="middle" x="1202.83" y="-119.5" font-family="Helvetica,sans-Serif" font-size="10.00">/node.hpp</text>
</a>
</g>
</g>
<!-- Node6&#45;&gt;Node7 -->
<g id="edge6" class="edge">
<title>Node6&#45;&gt;Node7</title>
<path fill="none" stroke="midnightblue" d="M1136.22,-184.73C1146.93,-175.7 1164.01,-161.27 1178.2,-149.3"/>
<polygon fill="midnightblue" stroke="midnightblue" points="1180.76,-151.71 1186.14,-142.59 1176.25,-146.37 1180.76,-151.71"/>
</g>
<!-- Node8 -->
<g id="node8" class="node">
<title>Node8</title>
<g id="a_node8"><a xlink:href="func_8hpp.html" target="_top" xlink:title=" ">
<polygon fill="none" stroke="black" points="875.33,-118 875.33,-137 972.33,-137 972.33,-118 875.33,-118"/>
<text text-anchor="middle" x="923.83" y="-125" font-family="Helvetica,sans-Serif" font-size="10.00">yaclib/util/func.hpp</text>
</a>
</g>
</g>
<!-- Node6&#45;&gt;Node8 -->
<g id="edge7" class="edge">
<title>Node6&#45;&gt;Node8</title>
<path fill="none" stroke="midnightblue" d="M1099.01,-184.87C1063.29,-173.38 1000,-153.01 960.07,-140.16"/>
<polygon fill="midnightblue" stroke="midnightblue" points="961.04,-136.8 950.45,-137.06 958.89,-143.46 961.04,-136.8"/>
</g>
<!-- Node8&#45;&gt;Node9 -->
<g id="edge8" class="edge">
<title>Node8&#45;&gt;Node9</title>
<path fill="none" stroke="midnightblue" d="M910.08,-117.98C894.47,-108.3 868.77,-92.37 850.25,-80.89"/>
<polygon fill="midnightblue" stroke="midnightblue" points="851.91,-77.8 841.56,-75.51 848.22,-83.75 851.91,-77.8"/>
</g>
<!-- Node10 -->
<g id="node10" class="node">
<title>Node10</title>
<g id="a_node10"><a xlink:title=" ">
<polygon fill="none" stroke="#bfbfbf" points="508.83,-56.5 508.83,-75.5 570.83,-75.5 570.83,-56.5 508.83,-56.5"/>
<text text-anchor="middle" x="539.83" y="-63.5" font-family="Helvetica,sans-Serif" font-size="10.00">type_traits</text>
</a>
</g>
</g>
<!-- Node8&#45;&gt;Node10 -->
<g id="edge9" class="edge">
<title>Node8&#45;&gt;Node10</title>
<path fill="none" stroke="midnightblue" d="M875.2,-118.96C798.84,-107.13 652.17,-84.41 580.83,-73.35"/>
<polygon fill="midnightblue" stroke="midnightblue" points="581.28,-69.88 570.87,-71.81 580.21,-76.8 581.28,-69.88"/>
</g>
<!-- Node8&#45;&gt;Node11 -->
<g id="edge10" class="edge">
<title>Node8&#45;&gt;Node11</title>
<path fill="none" stroke="midnightblue" d="M934.87,-117.98C947.1,-108.52 967.06,-93.1 981.83,-81.69"/>
<polygon fill="midnightblue" stroke="midnightblue" points="984.05,-84.39 989.82,-75.51 979.77,-78.85 984.05,-84.39"/>
</g>
<!-- Node12&#45;&gt;Node6 -->
<g id="edge12" class="edge">
<title>Node12&#45;&gt;Node6</title>
<path fill="none" stroke="midnightblue" d="M1180.34,-251.73C1170.32,-241.4 1153.49,-224.04 1141.18,-211.33"/>
<polygon fill="midnightblue" stroke="midnightblue" points="1143.67,-208.87 1134.2,-204.13 1138.64,-213.74 1143.67,-208.87"/>
</g>
<!-- Node12&#45;&gt;Node13 -->
<g id="edge13" class="edge">
<title>Node12&#45;&gt;Node13</title>
<path fill="none" stroke="midnightblue" d="M1155.89,-251.94C1115.7,-241.49 1047.02,-223.63 997.67,-210.8"/>
<polygon fill="midnightblue" stroke="midnightblue" points="998.32,-207.35 987.76,-208.22 996.56,-214.13 998.32,-207.35"/>
</g>
<!-- Node13&#45;&gt;Node9 -->
<g id="edge14" class="edge">
<title>Node13&#45;&gt;Node9</title>
<path fill="none" stroke="midnightblue" d="M912.03,-179.42C897.01,-170.52 878.76,-157.9 865.83,-143 850.93,-125.82 840.19,-101.75 834.01,-85.34"/>
<polygon fill="midnightblue" stroke="midnightblue" points="837.26,-84.05 830.61,-75.8 830.67,-86.4 837.26,-84.05"/>
</g>
<!-- Node13&#45;&gt;Node10 -->
<g id="edge15" class="edge">
<title>Node13&#45;&gt;Node10</title>
<path fill="none" stroke="midnightblue" d="M894.61,-179.48C815.35,-154.35 650.52,-102.09 576.83,-78.73"/>
<polygon fill="midnightblue" stroke="midnightblue" points="577.65,-75.32 567.06,-75.63 575.53,-81.99 577.65,-75.32"/>
</g>
<!-- Node14 -->
<g id="node14" class="node">
<title>Node14</title>
<g id="a_node14"><a xlink:href="intrusive__ptr__impl_8hpp.html" target="_top" xlink:title=" ">
<polygon fill="none" stroke="black" points="1028.83,-112.5 1028.83,-142.5 1142.83,-142.5 1142.83,-112.5 1028.83,-112.5"/>
<text text-anchor="start" x="1036.83" y="-130.5" font-family="Helvetica,sans-Serif" font-size="10.00">yaclib/util/detail</text>
<text text-anchor="middle" x="1085.83" y="-119.5" font-family="Helvetica,sans-Serif" font-size="10.00">/intrusive_ptr_impl.hpp</text>
</a>
</g>
</g>
<!-- Node13&#45;&gt;Node14 -->
<g id="edge16" class="edge">
<title>Node13&#45;&gt;Node14</title>
<path fill="none" stroke="midnightblue" d="M970.73,-179.4C992.4,-169.81 1021.27,-157.05 1044.67,-146.7"/>
<polygon fill="midnightblue" stroke="midnightblue" points="1046.27,-149.82 1054,-142.58 1043.44,-143.42 1046.27,-149.82"/>
</g>
<!-- Node14&#45;&gt;Node15 -->
<g id="edge17" class="edge">
<title>Node14&#45;&gt;Node15</title>
<path fill="none" stroke="midnightblue" d="M1142.17,-112.47C1184.48,-101.94 1241.62,-87.72 1280.66,-78"/>
<polygon fill="midnightblue" stroke="midnightblue" points="1281.81,-81.32 1290.67,-75.51 1280.12,-74.53 1281.81,-81.32"/>
</g>
<!-- Node16 -->
<g id="node16" class="node">
<title>Node16</title>
<g id="a_node16"><a xlink:title=" ">
<polygon fill="none" stroke="#bfbfbf" points="1291.83,-0.5 1291.83,-19.5 1357.83,-19.5 1357.83,-0.5 1291.83,-0.5"/>
<text text-anchor="middle" x="1324.83" y="-7.5" font-family="Helvetica,sans-Serif" font-size="10.00">string_view</text>
</a>
</g>
</g>
<!-- Node15&#45;&gt;Node16 -->
<g id="edge18" class="edge">
<title>Node15&#45;&gt;Node16</title>
<path fill="none" stroke="midnightblue" d="M1324.83,-56.08C1324.83,-49.01 1324.83,-38.86 1324.83,-29.99"/>
<polygon fill="midnightblue" stroke="midnightblue" points="1328.33,-29.75 1324.83,-19.75 1321.33,-29.75 1328.33,-29.75"/>
</g>
<!-- Node18&#45;&gt;Node19 -->
<g id="edge25" class="edge">
<title>Node18&#45;&gt;Node19</title>
<path fill="none" stroke="midnightblue" d="M223.45,-318.87C198.36,-307.7 154.44,-288.15 125.5,-275.26"/>
<polygon fill="midnightblue" stroke="midnightblue" points="126.86,-272.04 116.3,-271.17 124.01,-278.43 126.86,-272.04"/>
</g>
<!-- Node22 -->
<g id="node22" class="node">
<title>Node22</title>
<g id="a_node22"><a xlink:title=" ">
<polygon fill="none" stroke="#bfbfbf" points="162.83,-185 162.83,-204 220.83,-204 220.83,-185 162.83,-185"/>
<text text-anchor="middle" x="191.83" y="-192" font-family="Helvetica,sans-Serif" font-size="10.00">exception</text>
</a>
</g>
</g>
<!-- Node18&#45;&gt;Node22 -->
<g id="edge32" class="edge">
<title>Node18&#45;&gt;Node22</title>
<path fill="none" stroke="midnightblue" d="M235.96,-318.7C228.7,-309.01 217.41,-292.7 210.83,-277 202.26,-256.53 197.15,-231.47 194.43,-214.59"/>
<polygon fill="midnightblue" stroke="midnightblue" points="197.84,-213.74 192.91,-204.36 190.92,-214.77 197.84,-213.74"/>
</g>
<!-- Node23 -->
<g id="node23" class="node">
<title>Node23</title>
<g id="a_node23"><a xlink:title=" ">
<polygon fill="none" stroke="#bfbfbf" points="219.83,-252 219.83,-271 265.83,-271 265.83,-252 219.83,-252"/>
<text text-anchor="middle" x="242.83" y="-259" font-family="Helvetica,sans-Serif" font-size="10.00">variant</text>
</a>
</g>
</g>
<!-- Node18&#45;&gt;Node23 -->
<g id="edge33" class="edge">
<title>Node18&#45;&gt;Node23</title>
<path fill="none" stroke="midnightblue" d="M242.83,-318.73C242.83,-309.18 242.83,-293.62 242.83,-281.28"/>
<polygon fill="midnightblue" stroke="midnightblue" points="246.33,-281.13 242.83,-271.13 239.33,-281.13 246.33,-281.13"/>
</g>
<!-- Node19&#45;&gt;Node10 -->
<g id="edge31" class="edge">
<title>Node19&#45;&gt;Node10</title>
<path fill="none" stroke="midnightblue" d="M74.93,-251.93C57.58,-243.89 34.41,-230.07 22.83,-210 1.04,-172.22 -11.65,-144.14 17.83,-112 50.14,-76.79 381.19,-69.06 498.72,-67.42"/>
<polygon fill="midnightblue" stroke="midnightblue" points="498.81,-70.92 508.76,-67.29 498.72,-63.92 498.81,-70.92"/>
</g>
<!-- Node20 -->
<g id="node20" class="node">
<title>Node20</title>
<g id="a_node20"><a xlink:href="fwd_8hpp.html" target="_top" xlink:title=" ">
<polygon fill="none" stroke="black" points="26.83,-118 26.83,-137 104.83,-137 104.83,-118 26.83,-118"/>
<text text-anchor="middle" x="65.83" y="-125" font-family="Helvetica,sans-Serif" font-size="10.00">yaclib/fwd.hpp</text>
</a>
</g>
</g>
<!-- Node19&#45;&gt;Node20 -->
<g id="edge26" class="edge">
<title>Node19&#45;&gt;Node20</title>
<path fill="none" stroke="midnightblue" d="M77.22,-251.92C61.19,-243.72 39.65,-229.68 29.83,-210 18.79,-187.84 35.64,-161.52 49.81,-144.91"/>
<polygon fill="midnightblue" stroke="midnightblue" points="52.69,-146.95 56.82,-137.19 47.51,-142.24 52.69,-146.95"/>
</g>
<!-- Node21 -->
<g id="node21" class="node">
<title>Node21</title>
<g id="a_node21"><a xlink:href="type__traits__impl_8hpp.html" target="_top" xlink:title=" ">
<polygon fill="none" stroke="black" points="38.83,-179.5 38.83,-209.5 144.83,-209.5 144.83,-179.5 38.83,-179.5"/>
<text text-anchor="start" x="46.83" y="-197.5" font-family="Helvetica,sans-Serif" font-size="10.00">yaclib/util/detail</text>
<text text-anchor="middle" x="91.83" y="-186.5" font-family="Helvetica,sans-Serif" font-size="10.00">/type_traits_impl.hpp</text>
</a>
</g>
</g>
<!-- Node19&#45;&gt;Node21 -->
<g id="edge27" class="edge">
<title>Node19&#45;&gt;Node21</title>
<path fill="none" stroke="midnightblue" d="M96.16,-251.73C95.53,-243.54 94.56,-230.92 93.7,-219.71"/>
<polygon fill="midnightblue" stroke="midnightblue" points="97.17,-219.29 92.92,-209.59 90.2,-219.83 97.17,-219.29"/>
</g>
<!-- Node19&#45;&gt;Node22 -->
<g id="edge30" class="edge">
<title>Node19&#45;&gt;Node22</title>
<path fill="none" stroke="midnightblue" d="M109.65,-251.73C125.32,-241.01 152.06,-222.72 170.77,-209.91"/>
<polygon fill="midnightblue" stroke="midnightblue" points="172.95,-212.66 179.23,-204.13 169,-206.89 172.95,-212.66"/>
</g>
<!-- Node21&#45;&gt;Node10 -->
<g id="edge29" class="edge">
<title>Node21&#45;&gt;Node10</title>
<path fill="none" stroke="midnightblue" d="M141.49,-179.48C231.05,-154.19 417.9,-101.43 499.86,-78.29"/>
<polygon fill="midnightblue" stroke="midnightblue" points="500.88,-81.64 509.55,-75.55 498.97,-74.9 500.88,-81.64"/>
</g>
<!-- Node21&#45;&gt;Node20 -->
<g id="edge28" class="edge">
<title>Node21&#45;&gt;Node20</title>
<path fill="none" stroke="midnightblue" d="M86.19,-179.4C82.34,-169.76 77.2,-156.91 73.05,-146.54"/>
<polygon fill="midnightblue" stroke="midnightblue" points="76.28,-145.18 69.31,-137.19 69.78,-147.78 76.28,-145.18"/>
</g>
<!-- Node24&#45;&gt;Node11 -->
<g id="edge38" class="edge">
<title>Node24&#45;&gt;Node11</title>
<path fill="none" stroke="midnightblue" d="M778.03,-313.42C761.15,-305.52 743.51,-293.8 733.83,-277 726.96,-265.06 726.37,-257.58 733.83,-246 772.97,-185.32 814.97,-206.25 881.83,-179 925.19,-161.33 949.28,-177.58 980.83,-143 995.03,-127.44 999.38,-103.01 1000.59,-86.07"/>
<polygon fill="midnightblue" stroke="midnightblue" points="1004.1,-85.87 1001.02,-75.73 997.11,-85.58 1004.1,-85.87"/>
</g>
<!-- Node24&#45;&gt;Node17 -->
<g id="edge39" class="edge">
<title>Node24&#45;&gt;Node17</title>
<path fill="none" stroke="midnightblue" d="M813.89,-313.4C809.1,-303.66 802.69,-290.65 797.56,-280.21"/>
<polygon fill="midnightblue" stroke="midnightblue" points="800.67,-278.62 793.11,-271.19 794.39,-281.71 800.67,-278.62"/>
</g>
<!-- Node25 -->
<g id="node25" class="node">
<title>Node25</title>
<g id="a_node25"><a xlink:title=" ">
<polygon fill="none" stroke="#bfbfbf" points="423.83,-252 423.83,-271 511.83,-271 511.83,-252 423.83,-252"/>
<text text-anchor="middle" x="467.83" y="-259" font-family="Helvetica,sans-Serif" font-size="10.00">yaclib/config.hpp</text>
</a>
</g>
</g>
<!-- Node24&#45;&gt;Node25 -->
<g id="edge36" class="edge">
<title>Node24&#45;&gt;Node25</title>
<path fill="none" stroke="midnightblue" d="M768.79,-315.1C765.42,-314.37 762.08,-313.66 758.83,-313 714.54,-303.98 593.2,-283.43 521.97,-271.51"/>
<polygon fill="midnightblue" stroke="midnightblue" points="522.28,-268.01 511.84,-269.82 521.13,-274.92 522.28,-268.01"/>
</g>
<!-- Node26 -->
<g id="node26" class="node">
<title>Node26</title>
<g id="a_node26"><a xlink:title=" ">
<polygon fill="none" stroke="#bfbfbf" points="568.33,-252 568.33,-271 617.33,-271 617.33,-252 568.33,-252"/>
<text text-anchor="middle" x="592.83" y="-259" font-family="Helvetica,sans-Serif" font-size="10.00">cstddef</text>
</a>
</g>
</g>
<!-- Node24&#45;&gt;Node26 -->
<g id="edge37" class="edge">
<title>Node24&#45;&gt;Node26</title>
<path fill="none" stroke="midnightblue" d="M771.64,-313.48C728.02,-301.04 665.44,-283.2 627.06,-272.26"/>
<polygon fill="midnightblue" stroke="midnightblue" points="627.95,-268.87 617.38,-269.5 626.03,-275.6 627.95,-268.87"/>
</g>
<!-- Node27&#45;&gt;Node3 -->
<g id="edge41" class="edge">
<title>Node27&#45;&gt;Node3</title>
<path fill="none" stroke="midnightblue" d="M806.71,-581.44C832.94,-552.92 917.87,-460.6 956.89,-418.18"/>
<polygon fill="midnightblue" stroke="midnightblue" points="959.64,-420.36 963.84,-410.63 954.49,-415.62 959.64,-420.36"/>
</g>
<!-- Node27&#45;&gt;Node12 -->
<g id="edge42" class="edge">
<title>Node27&#45;&gt;Node12</title>
<path fill="none" stroke="midnightblue" d="M856.99,-584.4C970.56,-571.84 1210.83,-536.64 1210.83,-463.5 1210.83,-463.5 1210.83,-463.5 1210.83,-394.5 1210.83,-353.42 1200.34,-306.11 1193.85,-280.78"/>
<polygon fill="midnightblue" stroke="midnightblue" points="1197.22,-279.84 1191.27,-271.07 1190.45,-281.63 1197.22,-279.84"/>
</g>
<!-- Node27&#45;&gt;Node19 -->
<g id="edge46" class="edge">
<title>Node27&#45;&gt;Node19</title>
<path fill="none" stroke="midnightblue" d="M767.81,-581.47C735.54,-572.56 683.57,-558.07 638.83,-545 410.92,-478.41 317.36,-506.07 143.83,-344 124.68,-326.11 111.07,-298.61 103.58,-280.59"/>
<polygon fill="midnightblue" stroke="midnightblue" points="106.81,-279.24 99.88,-271.22 100.29,-281.81 106.81,-279.24"/>
</g>
<!-- Node28 -->
<g id="node28" class="node">
<title>Node28</title>
<g id="a_node28"><a xlink:href="helper_8hpp.html" target="_top" xlink:title=" ">
<polygon fill="none" stroke="black" points="787.83,-386 787.83,-405 891.83,-405 891.83,-386 787.83,-386"/>
<text text-anchor="middle" x="839.83" y="-393" font-family="Helvetica,sans-Serif" font-size="10.00">yaclib/util/helper.hpp</text>
</a>
</g>
</g>
<!-- Node27&#45;&gt;Node28 -->
<g id="edge43" class="edge">
<title>Node27&#45;&gt;Node28</title>
<path fill="none" stroke="midnightblue" d="M803.03,-581.24C807.14,-572.32 813.28,-557.99 816.83,-545 829.36,-499.22 835.7,-443.51 838.32,-415.1"/>
<polygon fill="midnightblue" stroke="midnightblue" points="841.82,-415.28 839.2,-405.01 834.84,-414.67 841.82,-415.28"/>
</g>
<!-- Node29 -->
<g id="node29" class="node">
<title>Node29</title>
<g id="a_node29"><a xlink:href="future__impl_8hpp.html" target="_top" xlink:title=" ">
<polygon fill="none" stroke="black" points="711.83,-514.5 711.83,-544.5 807.83,-544.5 807.83,-514.5 711.83,-514.5"/>
<text text-anchor="start" x="719.83" y="-532.5" font-family="Helvetica,sans-Serif" font-size="10.00">yaclib/async/detail</text>
<text text-anchor="middle" x="759.83" y="-521.5" font-family="Helvetica,sans-Serif" font-size="10.00">/future_impl.hpp</text>
</a>
</g>
</g>
<!-- Node27&#45;&gt;Node29 -->
<g id="edge47" class="edge">
<title>Node27&#45;&gt;Node29</title>
<path fill="none" stroke="midnightblue" d="M793.25,-581.48C788.41,-574.09 781.19,-563.08 774.69,-553.17"/>
<polygon fill="midnightblue" stroke="midnightblue" points="777.44,-550.97 769.03,-544.52 771.58,-554.81 777.44,-550.97"/>
</g>
<!-- Node28&#45;&gt;Node13 -->
<g id="edge45" class="edge">
<title>Node28&#45;&gt;Node13</title>
<path fill="none" stroke="midnightblue" d="M848.54,-385.87C857.8,-376.32 872.38,-360.13 881.83,-344 905.94,-302.87 923.46,-249.68 932.31,-219.4"/>
<polygon fill="midnightblue" stroke="midnightblue" points="935.7,-220.28 935.07,-209.7 928.97,-218.36 935.7,-220.28"/>
</g>
<!-- Node28&#45;&gt;Node24 -->
<g id="edge44" class="edge">
<title>Node28&#45;&gt;Node24</title>
<path fill="none" stroke="midnightblue" d="M837.27,-385.73C834.85,-377.46 831.11,-364.66 827.81,-353.37"/>
<polygon fill="midnightblue" stroke="midnightblue" points="831.12,-352.21 824.95,-343.59 824.4,-354.17 831.12,-352.21"/>
</g>
<!-- Node29&#45;&gt;Node2 -->
<g id="edge68" class="edge">
<title>Node29&#45;&gt;Node2</title>
<path fill="none" stroke="midnightblue" d="M759.83,-514.4C759.83,-506.64 759.83,-496.81 759.83,-487.86"/>
<polygon fill="midnightblue" stroke="midnightblue" points="763.33,-487.58 759.83,-477.58 756.33,-487.58 763.33,-487.58"/>
</g>
<!-- Node29&#45;&gt;Node15 -->
<g id="edge69" class="edge">
<title>Node29&#45;&gt;Node15</title>
<path fill="none" stroke="midnightblue" d="M808.01,-527.87C944.64,-523.32 1324.83,-490.18 1324.83,-262.5 1324.83,-262.5 1324.83,-262.5 1324.83,-193.5 1324.83,-155.2 1324.83,-110.38 1324.83,-85.7"/>
<polygon fill="midnightblue" stroke="midnightblue" points="1328.33,-85.59 1324.83,-75.59 1321.33,-85.59 1328.33,-85.59"/>
</g>
<!-- Node29&#45;&gt;Node18 -->
<g id="edge70" class="edge">
<title>Node29&#45;&gt;Node18</title>
<path fill="none" stroke="midnightblue" d="M711.74,-524.84C656.25,-519.43 563.01,-506.66 487.83,-478 396.67,-443.24 301.36,-374.56 261.79,-344.35"/>
<polygon fill="midnightblue" stroke="midnightblue" points="263.85,-341.52 253.79,-338.19 259.58,-347.06 263.85,-341.52"/>
</g>
<!-- Node30 -->
<g id="node30" class="node">
<title>Node30</title>
<g id="a_node30"><a xlink:href="wait_8hpp.html" target="_top" xlink:title=" ">
<polygon fill="none" stroke="black" points="497.33,-453 497.33,-472 598.33,-472 598.33,-453 497.33,-453"/>
<text text-anchor="middle" x="547.83" y="-460" font-family="Helvetica,sans-Serif" font-size="10.00">yaclib/algo/wait.hpp</text>
</a>
</g>
</g>
<!-- Node29&#45;&gt;Node30 -->
<g id="edge48" class="edge">
<title>Node29&#45;&gt;Node30</title>
<path fill="none" stroke="midnightblue" d="M714.09,-514.48C675.6,-502.67 621.22,-486 585.27,-474.98"/>
<polygon fill="midnightblue" stroke="midnightblue" points="586.24,-471.61 575.65,-472.03 584.19,-478.31 586.24,-471.61"/>
</g>
<!-- Node30&#45;&gt;Node25 -->
<g id="edge65" class="edge">
<title>Node30&#45;&gt;Node25</title>
<path fill="none" stroke="midnightblue" d="M538.2,-452.97C518.82,-435.09 475.61,-391.39 459.83,-344 452.91,-323.2 457.23,-297.88 461.76,-281.04"/>
<polygon fill="midnightblue" stroke="midnightblue" points="465.15,-281.91 464.65,-271.33 458.44,-279.91 465.15,-281.91"/>
</g>
<!-- Node30&#45;&gt;Node26 -->
<g id="edge67" class="edge">
<title>Node30&#45;&gt;Node26</title>
<path fill="none" stroke="midnightblue" d="M543.57,-452.91C536.73,-438.01 524.67,-406.46 530.83,-380 539.9,-341.08 565.09,-301.02 580.43,-279.19"/>
<polygon fill="midnightblue" stroke="midnightblue" points="583.32,-281.17 586.32,-271.01 577.64,-277.08 583.32,-281.17"/>
</g>
<!-- Node30&#45;&gt;Node27 -->
<g id="edge64" class="edge">
<title>Node30&#45;&gt;Node27</title>
<path fill="none" stroke="midnightblue" d="M563.55,-472.07C591.42,-487.19 651.38,-519.43 702.83,-545 725.54,-556.28 751.6,-568.45 770.83,-577.28"/>
<polygon fill="midnightblue" stroke="midnightblue" points="769.4,-580.48 779.95,-581.46 772.31,-574.11 769.4,-580.48"/>
</g>
<!-- Node31 -->
<g id="node31" class="node">
<title>Node31</title>
<g id="a_node31"><a xlink:href="wait__impl_8hpp.html" target="_top" xlink:title=" ">
<polygon fill="none" stroke="black" points="540.33,-380.5 540.33,-410.5 629.33,-410.5 629.33,-380.5 540.33,-380.5"/>
<text text-anchor="start" x="548.33" y="-398.5" font-family="Helvetica,sans-Serif" font-size="10.00">yaclib/algo/detail</text>
<text text-anchor="middle" x="584.83" y="-387.5" font-family="Helvetica,sans-Serif" font-size="10.00">/wait_impl.hpp</text>
</a>
</g>
</g>
<!-- Node30&#45;&gt;Node31 -->
<g id="edge49" class="edge">
<title>Node30&#45;&gt;Node31</title>
<path fill="none" stroke="midnightblue" d="M552.82,-452.73C557.68,-444.2 565.27,-430.87 571.84,-419.33"/>
<polygon fill="midnightblue" stroke="midnightblue" points="574.91,-421.01 576.81,-410.59 568.83,-417.55 574.91,-421.01"/>
</g>
<!-- Node32 -->
<g id="node32" class="node">
<title>Node32</title>
<g id="a_node32"><a xlink:href="default__event_8hpp.html" target="_top" xlink:title=" ">
<polygon fill="none" stroke="black" points="311.83,-313.5 311.83,-343.5 407.83,-343.5 407.83,-313.5 311.83,-313.5"/>
<text text-anchor="start" x="319.83" y="-331.5" font-family="Helvetica,sans-Serif" font-size="10.00">yaclib/util/detail</text>
<text text-anchor="middle" x="359.83" y="-320.5" font-family="Helvetica,sans-Serif" font-size="10.00">/default_event.hpp</text>
</a>
</g>
</g>
<!-- Node30&#45;&gt;Node32 -->
<g id="edge66" class="edge">
<title>Node30&#45;&gt;Node32</title>
<path fill="none" stroke="midnightblue" d="M512.64,-452.93C485.83,-445.15 449.02,-431.7 421.83,-411 401,-395.13 383.61,-370.54 372.6,-352.51"/>
<polygon fill="midnightblue" stroke="midnightblue" points="375.54,-350.6 367.44,-343.77 369.51,-354.16 375.54,-350.6"/>
</g>
<!-- Node31&#45;&gt;Node4 -->
<g id="edge50" class="edge">
<title>Node31&#45;&gt;Node4</title>
<path fill="none" stroke="midnightblue" d="M629.42,-387.11C700.48,-375.32 839.42,-352.29 918.36,-339.2"/>
<polygon fill="midnightblue" stroke="midnightblue" points="919.33,-342.58 928.62,-337.49 918.18,-335.68 919.33,-342.58"/>
</g>
<!-- Node31&#45;&gt;Node10 -->
<g id="edge63" class="edge">
<title>Node31&#45;&gt;Node10</title>
<path fill="none" stroke="midnightblue" d="M577.55,-380.32C572.81,-370.41 566.95,-356.73 563.83,-344 540.59,-249.11 539.1,-131.13 539.49,-85.88"/>
<polygon fill="midnightblue" stroke="midnightblue" points="542.99,-85.82 539.63,-75.77 535.99,-85.73 542.99,-85.82"/>
</g>
<!-- Node31&#45;&gt;Node19 -->
<g id="edge60" class="edge">
<title>Node31&#45;&gt;Node19</title>
<path fill="none" stroke="midnightblue" d="M540.25,-392.39C449.24,-387.52 245.39,-373.58 182.83,-344 166.35,-336.2 131.43,-300.1 111.53,-278.65"/>
<polygon fill="midnightblue" stroke="midnightblue" points="114.06,-276.22 104.71,-271.23 108.91,-280.96 114.06,-276.22"/>
</g>
<!-- Node31&#45;&gt;Node24 -->
<g id="edge51" class="edge">
<title>Node31&#45;&gt;Node24</title>
<path fill="none" stroke="midnightblue" d="M629.5,-382.2C666.41,-372.03 719.19,-357.5 759.96,-346.27"/>
<polygon fill="midnightblue" stroke="midnightblue" points="761.08,-349.59 769.79,-343.56 759.22,-342.84 761.08,-349.59"/>
</g>
<!-- Node31&#45;&gt;Node26 -->
<g id="edge61" class="edge">
<title>Node31&#45;&gt;Node26</title>
<path fill="none" stroke="midnightblue" d="M578.46,-380.32C571.96,-364.02 563.54,-336.49 568.83,-313 571.47,-301.33 577.12,-289.2 582.28,-279.75"/>
<polygon fill="midnightblue" stroke="midnightblue" points="585.36,-281.42 587.34,-271.01 579.3,-277.92 585.36,-281.42"/>
</g>
<!-- Node31&#45;&gt;Node32 -->
<g id="edge52" class="edge">
<title>Node31&#45;&gt;Node32</title>
<path fill="none" stroke="midnightblue" d="M540.11,-381.58C505.05,-371.45 456,-357.28 417.91,-346.28"/>
<polygon fill="midnightblue" stroke="midnightblue" points="418.55,-342.82 407.97,-343.41 416.61,-349.55 418.55,-342.82"/>
</g>
<!-- Node37 -->
<g id="node37" class="node">
<title>Node37</title>
<g id="a_node37"><a xlink:href="set__one__deleter_8hpp.html" target="_top" xlink:title=" ">
<polygon fill="none" stroke="black" points="578.33,-313.5 578.33,-343.5 685.33,-343.5 685.33,-313.5 578.33,-313.5"/>
<text text-anchor="start" x="586.33" y="-331.5" font-family="Helvetica,sans-Serif" font-size="10.00">yaclib/util/detail</text>
<text text-anchor="middle" x="631.83" y="-320.5" font-family="Helvetica,sans-Serif" font-size="10.00">/set_one_deleter.hpp</text>
</a>
</g>
</g>
<!-- Node31&#45;&gt;Node37 -->
<g id="edge59" class="edge">
<title>Node31&#45;&gt;Node37</title>
<path fill="none" stroke="midnightblue" d="M595.03,-380.4C601.07,-372.05 608.85,-361.29 615.7,-351.81"/>
<polygon fill="midnightblue" stroke="midnightblue" points="618.63,-353.73 621.66,-343.58 612.96,-349.63 618.63,-353.73"/>
</g>
<!-- Node38 -->
<g id="node38" class="node">
<title>Node38</title>
<g id="a_node38"><a xlink:title=" ">
<polygon fill="none" stroke="#bfbfbf" points="703.33,-319 703.33,-338 750.33,-338 750.33,-319 703.33,-319"/>
<text text-anchor="middle" x="726.83" y="-326" font-family="Helvetica,sans-Serif" font-size="10.00">iterator</text>
</a>
</g>
</g>
<!-- Node31&#45;&gt;Node38 -->
<g id="edge62" class="edge">
<title>Node31&#45;&gt;Node38</title>
<path fill="none" stroke="midnightblue" d="M615.65,-380.4C640.45,-369.04 675.02,-353.22 698.99,-342.24"/>
<polygon fill="midnightblue" stroke="midnightblue" points="700.61,-345.35 708.25,-338.01 697.7,-338.99 700.61,-345.35"/>
</g>
<!-- Node32&#45;&gt;Node25 -->
<g id="edge53" class="edge">
<title>Node32&#45;&gt;Node25</title>
<path fill="none" stroke="midnightblue" d="M383.27,-313.4C401.55,-302.39 426.79,-287.2 444.94,-276.28"/>
<polygon fill="midnightblue" stroke="midnightblue" points="446.94,-279.16 453.7,-271.01 443.33,-273.16 446.94,-279.16"/>
</g>
<!-- Node33 -->
<g id="node33" class="node">
<title>Node33</title>
<g id="a_node33"><a xlink:href="mutex__event_8hpp.html" target="_top" xlink:title=" ">
<polygon fill="none" stroke="black" points="313.33,-246.5 313.33,-276.5 406.33,-276.5 406.33,-246.5 313.33,-246.5"/>
<text text-anchor="start" x="321.33" y="-264.5" font-family="Helvetica,sans-Serif" font-size="10.00">yaclib/util/detail</text>
<text text-anchor="middle" x="359.83" y="-253.5" font-family="Helvetica,sans-Serif" font-size="10.00">/mutex_event.hpp</text>
</a>
</g>
</g>
<!-- Node32&#45;&gt;Node33 -->
<g id="edge54" class="edge">
<title>Node32&#45;&gt;Node33</title>
<path fill="none" stroke="midnightblue" d="M359.83,-313.4C359.83,-305.64 359.83,-295.81 359.83,-286.86"/>
<polygon fill="midnightblue" stroke="midnightblue" points="363.33,-286.58 359.83,-276.58 356.33,-286.58 363.33,-286.58"/>
</g>
<!-- Node33&#45;&gt;Node9 -->
<g id="edge55" class="edge">
<title>Node33&#45;&gt;Node9</title>
<path fill="none" stroke="midnightblue" d="M406.54,-247.62C438.99,-238.25 483.01,-224.67 520.83,-210 627.96,-168.46 750.41,-107.02 802.38,-80.26"/>
<polygon fill="midnightblue" stroke="midnightblue" points="804.25,-83.23 811.53,-75.53 801.04,-77.02 804.25,-83.23"/>
</g>
<!-- Node34 -->
<g id="node34" class="node">
<title>Node34</title>
<g id="a_node34"><a xlink:title=" ">
<polygon fill="none" stroke="#bfbfbf" points="345.83,-185 345.83,-204 391.83,-204 391.83,-185 345.83,-185"/>
<text text-anchor="middle" x="368.83" y="-192" font-family="Helvetica,sans-Serif" font-size="10.00">chrono</text>
</a>
</g>
</g>
<!-- Node33&#45;&gt;Node34 -->
<g id="edge56" class="edge">
<title>Node33&#45;&gt;Node34</title>
<path fill="none" stroke="midnightblue" d="M361.79,-246.4C363.09,-236.96 364.83,-224.45 366.25,-214.19"/>
<polygon fill="midnightblue" stroke="midnightblue" points="369.73,-214.58 367.63,-204.19 362.79,-213.62 369.73,-214.58"/>
</g>
<!-- Node35 -->
<g id="node35" class="node">
<title>Node35</title>
<g id="a_node35"><a xlink:title=" ">
<polygon fill="none" stroke="#bfbfbf" points="409.83,-179.5 409.83,-209.5 511.83,-209.5 511.83,-179.5 409.83,-179.5"/>
<text text-anchor="start" x="417.83" y="-197.5" font-family="Helvetica,sans-Serif" font-size="10.00">yaclib_std/condition</text>
<text text-anchor="middle" x="460.83" y="-186.5" font-family="Helvetica,sans-Serif" font-size="10.00">_variable</text>
</a>
</g>
</g>
<!-- Node33&#45;&gt;Node35 -->
<g id="edge57" class="edge">
<title>Node33&#45;&gt;Node35</title>
<path fill="none" stroke="midnightblue" d="M381.75,-246.4C395.91,-237.28 414.55,-225.29 430.17,-215.24"/>
<polygon fill="midnightblue" stroke="midnightblue" points="432.45,-217.93 438.96,-209.58 428.66,-212.05 432.45,-217.93"/>
</g>
<!-- Node36 -->
<g id="node36" class="node">
<title>Node36</title>
<g id="a_node36"><a xlink:title=" ">
<polygon fill="none" stroke="#bfbfbf" points="238.33,-185 238.33,-204 327.33,-204 327.33,-185 238.33,-185"/>
<text text-anchor="middle" x="282.83" y="-192" font-family="Helvetica,sans-Serif" font-size="10.00">yaclib_std/mutex</text>
</a>
</g>
</g>
<!-- Node33&#45;&gt;Node36 -->
<g id="edge58" class="edge">
<title>Node33&#45;&gt;Node36</title>
<path fill="none" stroke="midnightblue" d="M343.13,-246.4C330.65,-235.86 313.61,-221.48 300.83,-210.69"/>
<polygon fill="midnightblue" stroke="midnightblue" points="303.03,-207.97 293.13,-204.19 298.52,-213.32 303.03,-207.97"/>
</g>
</g>
</svg>
