<?xml version="1.0" encoding="UTF-8" standalone="no"?>
<!DOCTYPE svg PUBLIC "-//W3C//DTD SVG 1.1//EN"
 "http://www.w3.org/Graphics/SVG/1.1/DTD/svg11.dtd">
<!-- Generated by graphviz version 3.0.0 (20220413.0106)
 -->
<!-- Title: include/yaclib/util/detail/safe_call.hpp Pages: 1 -->
<!--zoomable 307 -->
<svg id="main" version="1.1" xmlns="http://www.w3.org/2000/svg" xmlns:xlink="http://www.w3.org/1999/xlink" xml:space="preserve" onload="init(evt)">
<style type="text/css"><![CDATA[
.edge:hover path { stroke: red; }
.edge:hover polygon { stroke: red; fill: red; }
]]></style>
<script type="text/javascript"><![CDATA[
var edges = document.getElementsByTagName('g');
if (edges && edges.length) {
  for (var i=0;i<edges.length;i++) {
    if (edges[i].id.substr(0,4)=='edge') {
      edges[i].setAttribute('class','edge');
    }
  }
}
]]></script>
        <defs>
                <circle id="rim" cx="0" cy="0" r="7"/>
                <circle id="rim2" cx="0" cy="0" r="3.5"/>
                <g id="zoomPlus">
                        <use xlink:href="#rim" fill="#404040">
                                <set attributeName="fill" to="#808080" begin="zoomplus.mouseover" end="zoomplus.mouseout"/>
                        </use>
                        <path d="M-4,0h8M0,-4v8" fill="none" stroke="white" stroke-width="1.5" pointer-events="none"/>
                </g>
                <g id="zoomMin">
                        <use xlink:href="#rim" fill="#404040">
                                <set attributeName="fill" to="#808080" begin="zoomminus.mouseover" end="zoomminus.mouseout"/>
                        </use>
                        <path d="M-4,0h8" fill="none" stroke="white" stroke-width="1.5" pointer-events="none"/>
                </g>
                <g id="dirArrow">
                        <path fill="none" stroke="white" stroke-width="1.5" d="M0,-3.0v7 M-2.5,-0.5L0,-3.0L2.5,-0.5"/>
                </g>
               <g id="resetDef">
                       <use xlink:href="#rim2" fill="#404040">
                               <set attributeName="fill" to="#808080" begin="reset.mouseover" end="reset.mouseout"/>
                       </use>
               </g>
        </defs>

<script type="text/javascript">
var viewWidth = 726;
var viewHeight = 307;
var sectionId = 'dynsection-1';
</script>
<script xlink:href="svgpan.js"/>
<svg id="graph" class="graph">
<g id="viewport">
<title>include/yaclib/util/detail/safe_call.hpp</title>
<!-- Node1 -->
<g id="node1" class="node">
<title>Node1</title>
<g id="a_node1"><a xlink:title=" ">
<polygon fill="#bfbfbf" stroke="black" points="294.5,-268.5 294.5,-298.5 397.5,-298.5 397.5,-268.5 294.5,-268.5"/>
<text text-anchor="start" x="302.5" y="-286.5" font-family="Helvetica,sans-Serif" font-size="10.00">include/yaclib/util</text>
<text text-anchor="middle" x="346" y="-275.5" font-family="Helvetica,sans-Serif" font-size="10.00">/detail/safe_call.hpp</text>
</a>
</g>
</g>
<!-- Node2 -->
<g id="node2" class="node">
<title>Node2</title>
<g id="a_node2"><a xlink:href="unique__job_8hpp.html" target="_top" xlink:title=" ">
<polygon fill="none" stroke="black" points="221.5,-201.5 221.5,-231.5 336.5,-231.5 336.5,-201.5 221.5,-201.5"/>
<text text-anchor="start" x="229.5" y="-219.5" font-family="Helvetica,sans-Serif" font-size="10.00">include/yaclib/executor</text>
<text text-anchor="middle" x="279" y="-208.5" font-family="Helvetica,sans-Serif" font-size="10.00">/detail/unique_job.hpp</text>
</a>
</g>
</g>
<!-- Node1&#45;&gt;Node2 -->
<g id="edge1" class="edge">
<title>Node1&#45;&gt;Node2</title>
<path fill="none" stroke="midnightblue" d="M324.16,-261.31C314.11,-251.56 302.46,-240.26 293.51,-231.58"/>
<polygon fill="midnightblue" stroke="midnightblue" points="321.85,-263.94 331.46,-268.4 326.72,-258.92 321.85,-263.94"/>
</g>
<!-- Node6 -->
<g id="node6" class="node">
<title>Node6</title>
<g id="a_node6"><a xlink:href="shared__func_8hpp.html" target="_top" xlink:title=" ">
<polygon fill="none" stroke="black" points="370.5,-201.5 370.5,-231.5 487.5,-231.5 487.5,-201.5 370.5,-201.5"/>
<text text-anchor="start" x="378.5" y="-219.5" font-family="Helvetica,sans-Serif" font-size="10.00">include/yaclib/util</text>
<text text-anchor="middle" x="429" y="-208.5" font-family="Helvetica,sans-Serif" font-size="10.00">/detail/shared_func.hpp</text>
</a>
</g>
</g>
<!-- Node1&#45;&gt;Node6 -->
<g id="edge5" class="edge">
<title>Node1&#45;&gt;Node6</title>
<path fill="none" stroke="midnightblue" d="M371.96,-262.17C384.65,-252.23 399.61,-240.51 411.03,-231.58"/>
<polygon fill="midnightblue" stroke="midnightblue" points="369.72,-259.47 364.01,-268.4 374.04,-264.99 369.72,-259.47"/>
</g>
<!-- Node3 -->
<g id="node3" class="node">
<title>Node3</title>
<g id="a_node3"><a xlink:href="submit_8hpp.html" target="_top" xlink:title=" ">
<polygon fill="none" stroke="black" points="128.5,-67.5 128.5,-97.5 243.5,-97.5 243.5,-67.5 128.5,-67.5"/>
<text text-anchor="start" x="136.5" y="-85.5" font-family="Helvetica,sans-Serif" font-size="10.00">include/yaclib/executor</text>
<text text-anchor="middle" x="186" y="-74.5" font-family="Helvetica,sans-Serif" font-size="10.00">/submit.hpp</text>
</a>
</g>
</g>
<!-- Node2&#45;&gt;Node3 -->
<g id="edge2" class="edge">
<title>Node2&#45;&gt;Node3</title>
<path fill="none" stroke="midnightblue" d="M263.28,-193.19C244.03,-165.86 211.99,-120.38 195.88,-97.52"/>
<polygon fill="midnightblue" stroke="midnightblue" points="260.43,-195.21 269.05,-201.37 266.15,-191.18 260.43,-195.21"/>
</g>
<!-- Node4 -->
<g id="node4" class="node">
<title>Node4</title>
<g id="a_node4"><a xlink:href="test_2example_2executor_2strand_8cpp.html" target="_top" xlink:title=" ">
<polygon fill="none" stroke="black" points="0,-0.5 0,-30.5 112,-30.5 112,-0.5 0,-0.5"/>
<text text-anchor="start" x="8" y="-18.5" font-family="Helvetica,sans-Serif" font-size="10.00">test/example/executor</text>
<text text-anchor="middle" x="56" y="-7.5" font-family="Helvetica,sans-Serif" font-size="10.00">/strand.cpp</text>
</a>
</g>
</g>
<!-- Node3&#45;&gt;Node4 -->
<g id="edge3" class="edge">
<title>Node3&#45;&gt;Node4</title>
<path fill="none" stroke="midnightblue" d="M148.71,-62.85C128.15,-52.58 103.05,-40.03 84.15,-30.58"/>
<polygon fill="midnightblue" stroke="midnightblue" points="147.28,-66.05 157.79,-67.4 150.41,-59.79 147.28,-66.05"/>
</g>
<!-- Node5 -->
<g id="node5" class="node">
<title>Node5</title>
<g id="a_node5"><a xlink:href="test_2example_2executor_2thread__pool_8cpp.html" target="_top" xlink:title=" ">
<polygon fill="none" stroke="black" points="130,-0.5 130,-30.5 242,-30.5 242,-0.5 130,-0.5"/>
<text text-anchor="start" x="138" y="-18.5" font-family="Helvetica,sans-Serif" font-size="10.00">test/example/executor</text>
<text text-anchor="middle" x="186" y="-7.5" font-family="Helvetica,sans-Serif" font-size="10.00">/thread_pool.cpp</text>
</a>
</g>
</g>
<!-- Node3&#45;&gt;Node5 -->
<g id="edge4" class="edge">
<title>Node3&#45;&gt;Node5</title>
<path fill="none" stroke="midnightblue" d="M186,-57.11C186,-48.15 186,-38.32 186,-30.58"/>
<polygon fill="midnightblue" stroke="midnightblue" points="182.5,-57.4 186,-67.4 189.5,-57.4 182.5,-57.4"/>
</g>
<!-- Node7 -->
<g id="node7" class="node">
<title>Node7</title>
<g id="a_node7"><a xlink:href="thread__factory_8hpp.html" target="_top" xlink:title=" ">
<polygon fill="none" stroke="black" points="379.5,-134.5 379.5,-164.5 494.5,-164.5 494.5,-134.5 379.5,-134.5"/>
<text text-anchor="start" x="387.5" y="-152.5" font-family="Helvetica,sans-Serif" font-size="10.00">include/yaclib/executor</text>
<text text-anchor="middle" x="437" y="-141.5" font-family="Helvetica,sans-Serif" font-size="10.00">/thread_factory.hpp</text>
</a>
</g>
</g>
<!-- Node6&#45;&gt;Node7 -->
<g id="edge6" class="edge">
<title>Node6&#45;&gt;Node7</title>
<path fill="none" stroke="midnightblue" d="M431.97,-191.4C433.08,-182.37 434.3,-172.41 435.27,-164.58"/>
<polygon fill="midnightblue" stroke="midnightblue" points="428.48,-191.04 430.74,-201.4 435.43,-191.9 428.48,-191.04"/>
</g>
<!-- Node8 -->
<g id="node8" class="node">
<title>Node8</title>
<g id="a_node8"><a xlink:href="thread__pool_8hpp.html" target="_top" xlink:title=" ">
<polygon fill="none" stroke="black" points="297.5,-67.5 297.5,-97.5 412.5,-97.5 412.5,-67.5 297.5,-67.5"/>
<text text-anchor="start" x="305.5" y="-85.5" font-family="Helvetica,sans-Serif" font-size="10.00">include/yaclib/executor</text>
<text text-anchor="middle" x="355" y="-74.5" font-family="Helvetica,sans-Serif" font-size="10.00">/thread_pool.hpp</text>
</a>
</g>
</g>
<!-- Node7&#45;&gt;Node8 -->
<g id="edge7" class="edge">
<title>Node7&#45;&gt;Node8</title>
<path fill="none" stroke="midnightblue" d="M411.35,-128.17C398.81,-118.23 384.03,-106.51 372.76,-97.58"/>
<polygon fill="midnightblue" stroke="midnightblue" points="409.2,-130.93 419.21,-134.4 413.54,-125.44 409.2,-130.93"/>
</g>
<!-- Node9 -->
<g id="node9" class="node">
<title>Node9</title>
<g id="a_node9"><a xlink:href="src_2executor_2thread__pool_8cpp.html" target="_top" xlink:title=" ">
<polygon fill="none" stroke="black" points="618,-0.5 618,-30.5 718,-30.5 718,-0.5 618,-0.5"/>
<text text-anchor="start" x="626" y="-18.5" font-family="Helvetica,sans-Serif" font-size="10.00">src/executor/thread</text>
<text text-anchor="middle" x="668" y="-7.5" font-family="Helvetica,sans-Serif" font-size="10.00">_pool.cpp</text>
</a>
</g>
</g>
<!-- Node7&#45;&gt;Node9 -->
<g id="edge15" class="edge">
<title>Node7&#45;&gt;Node9</title>
<path fill="none" stroke="midnightblue" d="M477.21,-130.06C496.47,-120.91 519.7,-109.39 540,-98 578.83,-76.21 622.17,-47.67 647.15,-30.79"/>
<polygon fill="midnightblue" stroke="midnightblue" points="475.66,-126.92 468.11,-134.35 478.65,-133.25 475.66,-126.92"/>
</g>
<!-- Node13 -->
<g id="node13" class="node">
<title>Node13</title>
<g id="a_node13"><a xlink:href="thread__factory_8cpp.html" target="_top" xlink:title=" ">
<polygon fill="none" stroke="black" points="431,-67.5 431,-97.5 531,-97.5 531,-67.5 431,-67.5"/>
<text text-anchor="start" x="439" y="-85.5" font-family="Helvetica,sans-Serif" font-size="10.00">src/executor/thread</text>
<text text-anchor="middle" x="481" y="-74.5" font-family="Helvetica,sans-Serif" font-size="10.00">_factory.cpp</text>
</a>
</g>
</g>
<!-- Node7&#45;&gt;Node13 -->
<g id="edge14" class="edge">
<title>Node7&#45;&gt;Node13</title>
<path fill="none" stroke="midnightblue" d="M452.32,-125.87C458.69,-116.46 465.88,-105.83 471.47,-97.58"/>
<polygon fill="midnightblue" stroke="midnightblue" points="449.25,-124.15 446.55,-134.4 455.05,-128.08 449.25,-124.15"/>
</g>
<!-- Node8&#45;&gt;Node4 -->
<g id="edge12" class="edge">
<title>Node8&#45;&gt;Node4</title>
<path fill="none" stroke="midnightblue" d="M287.27,-67.01C240.53,-56.98 176.97,-43.28 121,-31 118.06,-30.36 115.05,-29.69 112.01,-29.02"/>
<polygon fill="midnightblue" stroke="midnightblue" points="286.77,-70.48 297.28,-69.16 288.23,-63.64 286.77,-70.48"/>
</g>
<!-- Node8&#45;&gt;Node5 -->
<g id="edge13" class="edge">
<title>Node8&#45;&gt;Node5</title>
<path fill="none" stroke="midnightblue" d="M308.67,-63.68C281.57,-53.26 247.83,-40.28 222.6,-30.58"/>
<polygon fill="midnightblue" stroke="midnightblue" points="307.74,-67.07 318.33,-67.4 310.25,-60.54 307.74,-67.07"/>
</g>
<!-- Node8&#45;&gt;Node9 -->
<g id="edge8" class="edge">
<title>Node8&#45;&gt;Node9</title>
<path fill="none" stroke="midnightblue" d="M422.7,-66.89C506.59,-49.95 529.39,-48.43 609,-31 611.89,-30.37 614.84,-29.7 617.83,-29.01"/>
<polygon fill="midnightblue" stroke="midnightblue" points="421.83,-63.5 412.73,-68.92 423.22,-70.36 421.83,-63.5"/>
</g>
<!-- Node10 -->
<g id="node10" class="node">
<title>Node10</title>
<g id="a_node10"><a xlink:href="simple_8cpp.html" target="_top" xlink:title=" ">
<polygon fill="none" stroke="black" points="379.5,-0.5 379.5,-30.5 480.5,-30.5 480.5,-0.5 379.5,-0.5"/>
<text text-anchor="start" x="387.5" y="-18.5" font-family="Helvetica,sans-Serif" font-size="10.00">test/example/async</text>
<text text-anchor="middle" x="430" y="-7.5" font-family="Helvetica,sans-Serif" font-size="10.00">/simple.cpp</text>
</a>
</g>
</g>
<!-- Node8&#45;&gt;Node10 -->
<g id="edge9" class="edge">
<title>Node8&#45;&gt;Node10</title>
<path fill="none" stroke="midnightblue" d="M379.12,-60.6C390.44,-50.78 403.64,-39.34 413.76,-30.58"/>
<polygon fill="midnightblue" stroke="midnightblue" points="376.54,-58.2 371.27,-67.4 381.12,-63.49 376.54,-58.2"/>
</g>
<!-- Node11 -->
<g id="node11" class="node">
<title>Node11</title>
<g id="a_node11"><a xlink:href="when__all_8cpp.html" target="_top" xlink:title=" ">
<polygon fill="none" stroke="black" points="498.5,-0.5 498.5,-30.5 599.5,-30.5 599.5,-0.5 498.5,-0.5"/>
<text text-anchor="start" x="506.5" y="-18.5" font-family="Helvetica,sans-Serif" font-size="10.00">test/example/async</text>
<text text-anchor="middle" x="549" y="-7.5" font-family="Helvetica,sans-Serif" font-size="10.00">/when_all.cpp</text>
</a>
</g>
</g>
<!-- Node8&#45;&gt;Node11 -->
<g id="edge10" class="edge">
<title>Node8&#45;&gt;Node11</title>
<path fill="none" stroke="midnightblue" d="M406.96,-64.09C438.27,-53.6 477.64,-40.41 506.99,-30.58"/>
<polygon fill="midnightblue" stroke="midnightblue" points="405.47,-60.9 397.1,-67.4 407.69,-67.54 405.47,-60.9"/>
</g>
<!-- Node12 -->
<g id="node12" class="node">
<title>Node12</title>
<g id="a_node12"><a xlink:href="when__any_8cpp.html" target="_top" xlink:title=" ">
<polygon fill="none" stroke="black" points="260.5,-0.5 260.5,-30.5 361.5,-30.5 361.5,-0.5 260.5,-0.5"/>
<text text-anchor="start" x="268.5" y="-18.5" font-family="Helvetica,sans-Serif" font-size="10.00">test/example/async</text>
<text text-anchor="middle" x="311" y="-7.5" font-family="Helvetica,sans-Serif" font-size="10.00">/when_any.cpp</text>
</a>
</g>
</g>
<!-- Node8&#45;&gt;Node12 -->
<g id="edge11" class="edge">
<title>Node8&#45;&gt;Node12</title>
<path fill="none" stroke="midnightblue" d="M339.68,-58.87C333.31,-49.46 326.12,-38.83 320.53,-30.58"/>
<polygon fill="midnightblue" stroke="midnightblue" points="336.95,-61.08 345.45,-67.4 342.75,-57.15 336.95,-61.08"/>
</g>
</g>
</svg>
        <g id="navigator" transform="translate(0 0)" fill="#404254">
                <rect fill="#f2f5e9" fill-opacity="0.5" stroke="#606060" stroke-width=".5" x="0" y="0" width="60" height="60"/>
                <use id="zoomplus" xlink:href="#zoomPlus" x="17" y="9" onmousedown="handleZoom(evt,'in')"/>
                <use id="zoomminus" xlink:href="#zoomMin" x="42" y="9" onmousedown="handleZoom(evt,'out')"/>
                <use id="reset" xlink:href="#resetDef" x="30" y="36" onmousedown="handleReset()"/>
                <g id="arrowUp" xlink:href="#dirArrow" transform="translate(30 24)" onmousedown="handlePan(0,-1)">
                  <use xlink:href="#rim" fill="#404040">
                        <set attributeName="fill" to="#808080" begin="arrowUp.mouseover" end="arrowUp.mouseout"/>
                  </use>
                  <path fill="none" stroke="white" stroke-width="1.5" d="M0,-3.0v7 M-2.5,-0.5L0,-3.0L2.5,-0.5"/>
                </g>
                <g id="arrowRight" xlink:href="#dirArrow" transform="rotate(90) translate(36 -43)" onmousedown="handlePan(1,0)">
                  <use xlink:href="#rim" fill="#404040">
                        <set attributeName="fill" to="#808080" begin="arrowRight.mouseover" end="arrowRight.mouseout"/>
                  </use>
                  <path fill="none" stroke="white" stroke-width="1.5" d="M0,-3.0v7 M-2.5,-0.5L0,-3.0L2.5,-0.5"/>
                </g>
                <g id="arrowDown" xlink:href="#dirArrow" transform="rotate(180) translate(-30 -48)" onmousedown="handlePan(0,1)">
                  <use xlink:href="#rim" fill="#404040">
                        <set attributeName="fill" to="#808080" begin="arrowDown.mouseover" end="arrowDown.mouseout"/>
                  </use>
                  <path fill="none" stroke="white" stroke-width="1.5" d="M0,-3.0v7 M-2.5,-0.5L0,-3.0L2.5,-0.5"/>
                </g>
                <g id="arrowLeft" xlink:href="#dirArrow" transform="rotate(270) translate(-36 17)" onmousedown="handlePan(-1,0)">
                  <use xlink:href="#rim" fill="#404040">
                        <set attributeName="fill" to="#808080" begin="arrowLeft.mouseover" end="arrowLeft.mouseout"/>
                  </use>
                  <path fill="none" stroke="white" stroke-width="1.5" d="M0,-3.0v7 M-2.5,-0.5L0,-3.0L2.5,-0.5"/>
                </g>
        </g>
        <svg viewBox="0 0 15 15" width="100%" height="30px" preserveAspectRatio="xMaxYMin meet">
         <g id="arrow_out" transform="scale(0.3 0.3)">
          <a xlink:href="safe__call_8hpp__dep__incl_org.svg" target="_base">
           <rect id="button" ry="5" rx="5" y="6" x="6" height="38" width="38"
                fill="#f2f5e9" fill-opacity="0.5" stroke="#606060" stroke-width="1.0"/>
           <path id="arrow"
             d="M 11.500037,31.436501 C 11.940474,20.09759 22.043105,11.32322 32.158766,21.979434 L 37.068811,17.246167 C 37.068811,17.246167 37.088388,32 37.088388,32 L 22.160133,31.978069 C 22.160133,31.978069 26.997745,27.140456 26.997745,27.140456 C 18.528582,18.264221 13.291696,25.230495 11.500037,31.436501 z"
             style="fill:#404040;"/>
          </a>
         </g>
        </svg>
</svg>
