<?xml version="1.0" encoding="UTF-8" standalone="no"?>
<!DOCTYPE svg PUBLIC "-//W3C//DTD SVG 1.1//EN"
 "http://www.w3.org/Graphics/SVG/1.1/DTD/svg11.dtd">
<!-- Generated by graphviz version 3.0.0 (20220413.0106)
 -->
<!-- Title: include/yaclib/util/detail/shared_func.hpp Pages: 1 -->
<svg width="734pt" height="341pt"
 viewBox="0.00 0.00 734.00 341.00" xmlns="http://www.w3.org/2000/svg" xmlns:xlink="http://www.w3.org/1999/xlink">
<g id="graph0" class="graph" transform="scale(1 1) rotate(0) translate(4 337)">
<title>include/yaclib/util/detail/shared_func.hpp</title>
<!-- Node1 -->
<g id="node1" class="node">
<title>Node1</title>
<g id="a_node1"><a xlink:title=" ">
<polygon fill="#bfbfbf" stroke="black" points="259.5,-302.5 259.5,-332.5 376.5,-332.5 376.5,-302.5 259.5,-302.5"/>
<text text-anchor="start" x="267.5" y="-320.5" font-family="Helvetica,sans-Serif" font-size="10.00">include/yaclib/util</text>
<text text-anchor="middle" x="318" y="-309.5" font-family="Helvetica,sans-Serif" font-size="10.00">/detail/shared_func.hpp</text>
</a>
</g>
</g>
<!-- Node2 -->
<g id="node2" class="node">
<title>Node2</title>
<g id="a_node2"><a xlink:href="safe__call_8hpp.html" target="_top" xlink:title=" ">
<polygon fill="none" stroke="black" points="381.5,-179.5 381.5,-209.5 464.5,-209.5 464.5,-179.5 381.5,-179.5"/>
<text text-anchor="start" x="389.5" y="-197.5" font-family="Helvetica,sans-Serif" font-size="10.00">yaclib/util/detail</text>
<text text-anchor="middle" x="423" y="-186.5" font-family="Helvetica,sans-Serif" font-size="10.00">/safe_call.hpp</text>
</a>
</g>
</g>
<!-- Node1&#45;&gt;Node2 -->
<g id="edge1" class="edge">
<title>Node1&#45;&gt;Node2</title>
<path fill="none" stroke="midnightblue" d="M347.47,-302.39C363.02,-293.71 381.44,-281.31 394,-266 405.08,-252.5 412.44,-234.18 416.98,-219.6"/>
<polygon fill="midnightblue" stroke="midnightblue" points="420.41,-220.35 419.79,-209.77 413.68,-218.42 420.41,-220.35"/>
</g>
<!-- Node3 -->
<g id="node3" class="node">
<title>Node3</title>
<g id="a_node3"><a xlink:title=" ">
<polygon fill="none" stroke="#bfbfbf" points="269,-118 269,-137 331,-137 331,-118 269,-118"/>
<text text-anchor="middle" x="300" y="-125" font-family="Helvetica,sans-Serif" font-size="10.00">type_traits</text>
</a>
</g>
</g>
<!-- Node1&#45;&gt;Node3 -->
<g id="edge22" class="edge">
<title>Node1&#45;&gt;Node3</title>
<path fill="none" stroke="midnightblue" d="M291.86,-302.37C278.79,-293.76 264.26,-281.43 257,-266 251.14,-253.53 239.82,-228.14 258,-179 262.9,-165.77 272.87,-153.53 281.87,-144.41"/>
<polygon fill="midnightblue" stroke="midnightblue" points="284.56,-146.69 289.38,-137.26 279.73,-141.62 284.56,-146.69"/>
</g>
<!-- Node4 -->
<g id="node4" class="node">
<title>Node4</title>
<g id="a_node4"><a xlink:title=" ">
<polygon fill="none" stroke="#bfbfbf" points="403.5,-118 403.5,-137 442.5,-137 442.5,-118 403.5,-118"/>
<text text-anchor="middle" x="423" y="-125" font-family="Helvetica,sans-Serif" font-size="10.00">utility</text>
</a>
</g>
</g>
<!-- Node1&#45;&gt;Node4 -->
<g id="edge23" class="edge">
<title>Node1&#45;&gt;Node4</title>
<path fill="none" stroke="midnightblue" d="M360.37,-302.37C399.11,-286.76 453.42,-257.37 474,-210 479.49,-197.36 479.3,-191.72 474,-179 467.96,-164.52 455.53,-152.07 444.45,-143.15"/>
<polygon fill="midnightblue" stroke="midnightblue" points="446.46,-140.28 436.37,-137.05 442.24,-145.87 446.46,-140.28"/>
</g>
<!-- Node5 -->
<g id="node5" class="node">
<title>Node5</title>
<g id="a_node5"><a xlink:href="func_8hpp.html" target="_top" xlink:title=" ">
<polygon fill="none" stroke="black" points="266.5,-185 266.5,-204 363.5,-204 363.5,-185 266.5,-185"/>
<text text-anchor="middle" x="315" y="-192" font-family="Helvetica,sans-Serif" font-size="10.00">yaclib/util/func.hpp</text>
</a>
</g>
</g>
<!-- Node1&#45;&gt;Node5 -->
<g id="edge4" class="edge">
<title>Node1&#45;&gt;Node5</title>
<path fill="none" stroke="midnightblue" d="M344.92,-302.27C365.9,-289.11 389.8,-268.28 379,-246 371.3,-230.12 355.92,-217.73 342.17,-209.2"/>
<polygon fill="midnightblue" stroke="midnightblue" points="343.87,-206.14 333.46,-204.15 340.35,-212.19 343.87,-206.14"/>
</g>
<!-- Node6 -->
<g id="node6" class="node">
<title>Node6</title>
<g id="a_node6"><a xlink:href="ref_8hpp.html" target="_top" xlink:title=" ">
<polygon fill="none" stroke="black" points="132.5,-118 132.5,-137 221.5,-137 221.5,-118 132.5,-118"/>
<text text-anchor="middle" x="177" y="-125" font-family="Helvetica,sans-Serif" font-size="10.00">yaclib/util/ref.hpp</text>
</a>
</g>
</g>
<!-- Node1&#45;&gt;Node6 -->
<g id="edge21" class="edge">
<title>Node1&#45;&gt;Node6</title>
<path fill="none" stroke="midnightblue" d="M259.19,-305.96C207.53,-293.17 135.78,-265.92 104,-210 97.19,-198.02 97.6,-191.2 104,-179 112.77,-162.27 129.87,-149.99 145.32,-141.72"/>
<polygon fill="midnightblue" stroke="midnightblue" points="147.24,-144.68 154.64,-137.09 144.13,-138.41 147.24,-144.68"/>
</g>
<!-- Node7 -->
<g id="node7" class="node">
<title>Node7</title>
<g id="a_node7"><a xlink:href="helper_8hpp.html" target="_top" xlink:title=" ">
<polygon fill="none" stroke="black" points="266,-246.5 266,-265.5 370,-265.5 370,-246.5 266,-246.5"/>
<text text-anchor="middle" x="318" y="-253.5" font-family="Helvetica,sans-Serif" font-size="10.00">yaclib/util/helper.hpp</text>
</a>
</g>
</g>
<!-- Node1&#45;&gt;Node7 -->
<g id="edge8" class="edge">
<title>Node1&#45;&gt;Node7</title>
<path fill="none" stroke="midnightblue" d="M318,-302.4C318,-294.47 318,-284.46 318,-275.86"/>
<polygon fill="midnightblue" stroke="midnightblue" points="321.5,-275.66 318,-265.66 314.5,-275.66 321.5,-275.66"/>
</g>
<!-- Node12 -->
<g id="node12" class="node">
<title>Node12</title>
<g id="a_node12"><a xlink:href="intrusive__ptr_8hpp.html" target="_top" xlink:title=" ">
<polygon fill="none" stroke="black" points="112.5,-179.5 112.5,-209.5 209.5,-209.5 209.5,-179.5 112.5,-179.5"/>
<text text-anchor="start" x="120.5" y="-197.5" font-family="Helvetica,sans-Serif" font-size="10.00">yaclib/util/intrusive</text>
<text text-anchor="middle" x="161" y="-186.5" font-family="Helvetica,sans-Serif" font-size="10.00">_ptr.hpp</text>
</a>
</g>
</g>
<!-- Node1&#45;&gt;Node12 -->
<g id="edge20" class="edge">
<title>Node1&#45;&gt;Node12</title>
<path fill="none" stroke="midnightblue" d="M285.41,-302.46C266.49,-293.5 242.77,-280.79 224,-266 206.22,-251.99 189.31,-232.61 177.49,-217.72"/>
<polygon fill="midnightblue" stroke="midnightblue" points="180.05,-215.3 171.16,-209.54 174.51,-219.59 180.05,-215.3"/>
</g>
<!-- Node2&#45;&gt;Node3 -->
<g id="edge2" class="edge">
<title>Node2&#45;&gt;Node3</title>
<path fill="none" stroke="midnightblue" d="M396.31,-179.4C375.11,-168.19 345.68,-152.64 324.95,-141.69"/>
<polygon fill="midnightblue" stroke="midnightblue" points="326.57,-138.58 316.1,-137.01 323.3,-144.77 326.57,-138.58"/>
</g>
<!-- Node2&#45;&gt;Node4 -->
<g id="edge3" class="edge">
<title>Node2&#45;&gt;Node4</title>
<path fill="none" stroke="midnightblue" d="M423,-179.4C423,-170.06 423,-157.71 423,-147.52"/>
<polygon fill="midnightblue" stroke="midnightblue" points="426.5,-147.19 423,-137.19 419.5,-147.19 426.5,-147.19"/>
</g>
<!-- Node5&#45;&gt;Node3 -->
<g id="edge6" class="edge">
<title>Node5&#45;&gt;Node3</title>
<path fill="none" stroke="midnightblue" d="M312.98,-184.73C310.75,-175.09 307.11,-159.3 304.25,-146.91"/>
<polygon fill="midnightblue" stroke="midnightblue" points="307.65,-146.08 301.99,-137.13 300.83,-147.66 307.65,-146.08"/>
</g>
<!-- Node5&#45;&gt;Node4 -->
<g id="edge7" class="edge">
<title>Node5&#45;&gt;Node4</title>
<path fill="none" stroke="midnightblue" d="M329.57,-184.73C347.62,-173.87 378.61,-155.22 399.92,-142.39"/>
<polygon fill="midnightblue" stroke="midnightblue" points="401.9,-145.28 408.67,-137.13 398.29,-139.29 401.9,-145.28"/>
</g>
<!-- Node5&#45;&gt;Node6 -->
<g id="edge5" class="edge">
<title>Node5&#45;&gt;Node6</title>
<path fill="none" stroke="midnightblue" d="M296.67,-184.87C273.06,-173.75 231.81,-154.32 204.45,-141.43"/>
<polygon fill="midnightblue" stroke="midnightblue" points="205.94,-138.26 195.4,-137.17 202.96,-144.59 205.94,-138.26"/>
</g>
<!-- Node8 -->
<g id="node8" class="node">
<title>Node8</title>
<g id="a_node8"><a xlink:href="atomic__counter_8hpp.html" target="_top" xlink:title=" ">
<polygon fill="none" stroke="black" points="521,-179.5 521,-209.5 625,-209.5 625,-179.5 521,-179.5"/>
<text text-anchor="start" x="529" y="-197.5" font-family="Helvetica,sans-Serif" font-size="10.00">yaclib/util/detail</text>
<text text-anchor="middle" x="573" y="-186.5" font-family="Helvetica,sans-Serif" font-size="10.00">/atomic_counter.hpp</text>
</a>
</g>
</g>
<!-- Node7&#45;&gt;Node8 -->
<g id="edge9" class="edge">
<title>Node7&#45;&gt;Node8</title>
<path fill="none" stroke="midnightblue" d="M354.54,-246.48C395.25,-236.98 461.78,-221.45 510.74,-210.03"/>
<polygon fill="midnightblue" stroke="midnightblue" points="511.66,-213.41 520.6,-207.73 510.06,-206.59 511.66,-213.41"/>
</g>
<!-- Node7&#45;&gt;Node12 -->
<g id="edge14" class="edge">
<title>Node7&#45;&gt;Node12</title>
<path fill="none" stroke="midnightblue" d="M295.51,-246.48C272.65,-237.81 236.59,-224.15 207.55,-213.14"/>
<polygon fill="midnightblue" stroke="midnightblue" points="208.59,-209.79 198,-209.52 206.11,-216.34 208.59,-209.79"/>
</g>
<!-- Node8&#45;&gt;Node4 -->
<g id="edge12" class="edge">
<title>Node8&#45;&gt;Node4</title>
<path fill="none" stroke="midnightblue" d="M537.51,-179.43C513.25,-169.64 480.46,-156.03 452,-143 451,-142.54 449.99,-142.07 448.97,-141.59"/>
<polygon fill="midnightblue" stroke="midnightblue" points="450.3,-138.35 439.77,-137.13 447.24,-144.64 450.3,-138.35"/>
</g>
<!-- Node9 -->
<g id="node9" class="node">
<title>Node9</title>
<g id="a_node9"><a xlink:title=" ">
<polygon fill="none" stroke="#bfbfbf" points="638,-118 638,-137 726,-137 726,-118 638,-118"/>
<text text-anchor="middle" x="682" y="-125" font-family="Helvetica,sans-Serif" font-size="10.00">yaclib/config.hpp</text>
</a>
</g>
</g>
<!-- Node8&#45;&gt;Node9 -->
<g id="edge10" class="edge">
<title>Node8&#45;&gt;Node9</title>
<path fill="none" stroke="midnightblue" d="M596.65,-179.4C615.18,-168.34 640.81,-153.06 659.14,-142.13"/>
<polygon fill="midnightblue" stroke="midnightblue" points="660.94,-145.13 667.73,-137.01 657.35,-139.12 660.94,-145.13"/>
</g>
<!-- Node10 -->
<g id="node10" class="node">
<title>Node10</title>
<g id="a_node10"><a xlink:title=" ">
<polygon fill="none" stroke="#bfbfbf" points="460.5,-118 460.5,-137 509.5,-137 509.5,-118 460.5,-118"/>
<text text-anchor="middle" x="485" y="-125" font-family="Helvetica,sans-Serif" font-size="10.00">cstddef</text>
</a>
</g>
</g>
<!-- Node8&#45;&gt;Node10 -->
<g id="edge11" class="edge">
<title>Node8&#45;&gt;Node10</title>
<path fill="none" stroke="midnightblue" d="M553.91,-179.4C539.42,-168.7 519.57,-154.03 504.89,-143.19"/>
<polygon fill="midnightblue" stroke="midnightblue" points="506.64,-140.13 496.52,-137.01 502.48,-145.76 506.64,-140.13"/>
</g>
<!-- Node11 -->
<g id="node11" class="node">
<title>Node11</title>
<g id="a_node11"><a xlink:title=" ">
<polygon fill="none" stroke="#bfbfbf" points="528,-118 528,-137 620,-137 620,-118 528,-118"/>
<text text-anchor="middle" x="574" y="-125" font-family="Helvetica,sans-Serif" font-size="10.00">yaclib_std/atomic</text>
</a>
</g>
</g>
<!-- Node8&#45;&gt;Node11 -->
<g id="edge13" class="edge">
<title>Node8&#45;&gt;Node11</title>
<path fill="none" stroke="midnightblue" d="M573.22,-179.4C573.36,-170.06 573.55,-157.71 573.71,-147.52"/>
<polygon fill="midnightblue" stroke="midnightblue" points="577.21,-147.25 573.87,-137.19 570.21,-147.14 577.21,-147.25"/>
</g>
<!-- Node12&#45;&gt;Node3 -->
<g id="edge16" class="edge">
<title>Node12&#45;&gt;Node3</title>
<path fill="none" stroke="midnightblue" d="M191.16,-179.4C215.44,-168.04 249.28,-152.22 272.75,-141.24"/>
<polygon fill="midnightblue" stroke="midnightblue" points="274.23,-144.41 281.81,-137.01 271.27,-138.07 274.23,-144.41"/>
</g>
<!-- Node12&#45;&gt;Node6 -->
<g id="edge15" class="edge">
<title>Node12&#45;&gt;Node6</title>
<path fill="none" stroke="midnightblue" d="M164.47,-179.4C166.79,-169.96 169.87,-157.45 172.4,-147.19"/>
<polygon fill="midnightblue" stroke="midnightblue" points="175.87,-147.74 174.86,-137.19 169.07,-146.07 175.87,-147.74"/>
</g>
<!-- Node13 -->
<g id="node13" class="node">
<title>Node13</title>
<g id="a_node13"><a xlink:href="intrusive__ptr__impl_8hpp.html" target="_top" xlink:title=" ">
<polygon fill="none" stroke="black" points="0,-112.5 0,-142.5 114,-142.5 114,-112.5 0,-112.5"/>
<text text-anchor="start" x="8" y="-130.5" font-family="Helvetica,sans-Serif" font-size="10.00">yaclib/util/detail</text>
<text text-anchor="middle" x="57" y="-119.5" font-family="Helvetica,sans-Serif" font-size="10.00">/intrusive_ptr_impl.hpp</text>
</a>
</g>
</g>
<!-- Node12&#45;&gt;Node13 -->
<g id="edge17" class="edge">
<title>Node12&#45;&gt;Node13</title>
<path fill="none" stroke="midnightblue" d="M138.43,-179.4C123.71,-170.2 104.31,-158.07 88.13,-147.95"/>
<polygon fill="midnightblue" stroke="midnightblue" points="89.86,-144.91 79.52,-142.58 86.15,-150.84 89.86,-144.91"/>
</g>
<!-- Node14 -->
<g id="node14" class="node">
<title>Node14</title>
<g id="a_node14"><a xlink:href="log_8hpp.html" target="_top" xlink:title=" ">
<polygon fill="none" stroke="black" points="19.5,-56.5 19.5,-75.5 94.5,-75.5 94.5,-56.5 19.5,-56.5"/>
<text text-anchor="middle" x="57" y="-63.5" font-family="Helvetica,sans-Serif" font-size="10.00">yaclib/log.hpp</text>
</a>
</g>
</g>
<!-- Node13&#45;&gt;Node14 -->
<g id="edge18" class="edge">
<title>Node13&#45;&gt;Node14</title>
<path fill="none" stroke="midnightblue" d="M57,-112.4C57,-104.47 57,-94.46 57,-85.86"/>
<polygon fill="midnightblue" stroke="midnightblue" points="60.5,-85.66 57,-75.66 53.5,-85.66 60.5,-85.66"/>
</g>
<!-- Node15 -->
<g id="node15" class="node">
<title>Node15</title>
<g id="a_node15"><a xlink:title=" ">
<polygon fill="none" stroke="#bfbfbf" points="24,-0.5 24,-19.5 90,-19.5 90,-0.5 24,-0.5"/>
<text text-anchor="middle" x="57" y="-7.5" font-family="Helvetica,sans-Serif" font-size="10.00">string_view</text>
</a>
</g>
</g>
<!-- Node14&#45;&gt;Node15 -->
<g id="edge19" class="edge">
<title>Node14&#45;&gt;Node15</title>
<path fill="none" stroke="midnightblue" d="M57,-56.08C57,-49.01 57,-38.86 57,-29.99"/>
<polygon fill="midnightblue" stroke="midnightblue" points="60.5,-29.75 57,-19.75 53.5,-29.75 60.5,-29.75"/>
</g>
</g>
</svg>
