<?xml version="1.0" encoding="UTF-8" standalone="no"?>
<!DOCTYPE svg PUBLIC "-//W3C//DTD SVG 1.1//EN"
 "http://www.w3.org/Graphics/SVG/1.1/DTD/svg11.dtd">
<!-- Generated by graphviz version 3.0.0 (20220413.0106)
 -->
<!-- Title: src/executor/thread_pool.cpp Pages: 1 -->
<svg width="1130pt" height="553pt"
 viewBox="0.00 0.00 1129.50 553.00" xmlns="http://www.w3.org/2000/svg" xmlns:xlink="http://www.w3.org/1999/xlink">
<g id="graph0" class="graph" transform="scale(1 1) rotate(0) translate(4 549)">
<title>src/executor/thread_pool.cpp</title>
<!-- Node1 -->
<g id="node1" class="node">
<title>Node1</title>
<g id="a_node1"><a xlink:title=" ">
<polygon fill="#bfbfbf" stroke="black" points="383,-514.5 383,-544.5 483,-544.5 483,-514.5 383,-514.5"/>
<text text-anchor="start" x="391" y="-532.5" font-family="Helvetica,sans-Serif" font-size="10.00">src/executor/thread</text>
<text text-anchor="middle" x="433" y="-521.5" font-family="Helvetica,sans-Serif" font-size="10.00">_pool.cpp</text>
</a>
</g>
</g>
<!-- Node2 -->
<g id="node2" class="node">
<title>Node2</title>
<g id="a_node2"><a xlink:href="intrusive__list_8hpp.html" target="_top" xlink:title=" ">
<polygon fill="none" stroke="black" points="66.5,-319 66.5,-338 171.5,-338 171.5,-319 66.5,-319"/>
<text text-anchor="middle" x="119" y="-326" font-family="Helvetica,sans-Serif" font-size="10.00">util/intrusive_list.hpp</text>
</a>
</g>
</g>
<!-- Node1&#45;&gt;Node2 -->
<g id="edge1" class="edge">
<title>Node1&#45;&gt;Node2</title>
<path fill="none" stroke="midnightblue" d="M382.72,-527.56C304.21,-524.94 157.96,-515.07 124,-478 91.27,-442.27 103.88,-379.02 112.92,-347.87"/>
<polygon fill="midnightblue" stroke="midnightblue" points="116.27,-348.88 115.88,-338.29 109.58,-346.81 116.27,-348.88"/>
</g>
<!-- Node4 -->
<g id="node4" class="node">
<title>Node4</title>
<g id="a_node4"><a xlink:href="executor_8hpp.html" target="_top" xlink:title=" ">
<polygon fill="none" stroke="black" points="128.5,-386 128.5,-405 267.5,-405 267.5,-386 128.5,-386"/>
<text text-anchor="middle" x="198" y="-393" font-family="Helvetica,sans-Serif" font-size="10.00">yaclib/executor/executor.hpp</text>
</a>
</g>
</g>
<!-- Node1&#45;&gt;Node4 -->
<g id="edge3" class="edge">
<title>Node1&#45;&gt;Node4</title>
<path fill="none" stroke="midnightblue" d="M382.92,-527.58C306.01,-524.98 164.42,-515.15 133,-478 113.35,-454.76 147.56,-426.88 173.36,-410.49"/>
<polygon fill="midnightblue" stroke="midnightblue" points="175.32,-413.4 182.03,-405.2 171.67,-407.42 175.32,-413.4"/>
</g>
<!-- Node5 -->
<g id="node5" class="node">
<title>Node5</title>
<g id="a_node5"><a xlink:href="job_8hpp.html" target="_top" xlink:title=" ">
<polygon fill="none" stroke="black" points="228.5,-319 228.5,-338 343.5,-338 343.5,-319 228.5,-319"/>
<text text-anchor="middle" x="286" y="-326" font-family="Helvetica,sans-Serif" font-size="10.00">yaclib/executor/job.hpp</text>
</a>
</g>
</g>
<!-- Node1&#45;&gt;Node5 -->
<g id="edge18" class="edge">
<title>Node1&#45;&gt;Node5</title>
<path fill="none" stroke="midnightblue" d="M405.01,-514.42C389.63,-505.6 371.07,-493.06 358,-478 355.65,-475.29 312.98,-386.07 294.46,-347.25"/>
<polygon fill="midnightblue" stroke="midnightblue" points="297.58,-345.67 290.12,-338.15 291.26,-348.68 297.58,-345.67"/>
</g>
<!-- Node6 -->
<g id="node6" class="node">
<title>Node6</title>
<g id="a_node6"><a xlink:href="func_8hpp.html" target="_top" xlink:title=" ">
<polygon fill="none" stroke="black" points="244.5,-252 244.5,-271 341.5,-271 341.5,-252 244.5,-252"/>
<text text-anchor="middle" x="293" y="-259" font-family="Helvetica,sans-Serif" font-size="10.00">yaclib/util/func.hpp</text>
</a>
</g>
</g>
<!-- Node1&#45;&gt;Node6 -->
<g id="edge47" class="edge">
<title>Node1&#45;&gt;Node6</title>
<path fill="none" stroke="midnightblue" d="M428.17,-514.42C412.63,-469.34 364.27,-330.51 352,-313 342.04,-298.78 327.17,-286.09 314.86,-276.99"/>
<polygon fill="midnightblue" stroke="midnightblue" points="316.63,-273.95 306.45,-271.03 312.58,-279.66 316.63,-273.95"/>
</g>
<!-- Node9 -->
<g id="node9" class="node">
<title>Node9</title>
<g id="a_node9"><a xlink:title=" ">
<polygon fill="none" stroke="#bfbfbf" points="402.5,-118 402.5,-137 441.5,-137 441.5,-118 402.5,-118"/>
<text text-anchor="middle" x="422" y="-125" font-family="Helvetica,sans-Serif" font-size="10.00">utility</text>
</a>
</g>
</g>
<!-- Node1&#45;&gt;Node9 -->
<g id="edge51" class="edge">
<title>Node1&#45;&gt;Node9</title>
<path fill="none" stroke="midnightblue" d="M483.4,-525.17C522.14,-520.23 574.97,-508.03 611,-478 646.3,-448.58 646.56,-425.89 644,-380 640.66,-320.17 664.73,-294.11 629,-246 604.79,-213.39 580.74,-229.3 545,-210 506.82,-189.39 465.33,-160.38 441.61,-143.1"/>
<polygon fill="midnightblue" stroke="midnightblue" points="443.57,-140.2 433.44,-137.1 439.42,-145.84 443.57,-140.2"/>
</g>
<!-- Node10 -->
<g id="node10" class="node">
<title>Node10</title>
<g id="a_node10"><a xlink:href="intrusive__ptr_8hpp.html" target="_top" xlink:title=" ">
<polygon fill="none" stroke="black" points="70.5,-179.5 70.5,-209.5 167.5,-209.5 167.5,-179.5 70.5,-179.5"/>
<text text-anchor="start" x="78.5" y="-197.5" font-family="Helvetica,sans-Serif" font-size="10.00">yaclib/util/intrusive</text>
<text text-anchor="middle" x="119" y="-186.5" font-family="Helvetica,sans-Serif" font-size="10.00">_ptr.hpp</text>
</a>
</g>
</g>
<!-- Node1&#45;&gt;Node10 -->
<g id="edge49" class="edge">
<title>Node1&#45;&gt;Node10</title>
<path fill="none" stroke="midnightblue" d="M396.36,-514.42C377.44,-505.89 354.85,-493.62 338,-478 300.21,-442.96 312.46,-416.43 276,-380 254.8,-358.82 243.43,-361.35 219,-344 200.95,-331.18 199.04,-324.31 180,-313 144.73,-292.04 117.66,-311.2 95,-277 83.25,-259.26 92.37,-235.63 102.56,-218.38"/>
<polygon fill="midnightblue" stroke="midnightblue" points="105.78,-219.85 108.21,-209.53 99.88,-216.08 105.78,-219.85"/>
</g>
<!-- Node12 -->
<g id="node12" class="node">
<title>Node12</title>
<g id="a_node12"><a xlink:href="log_8hpp.html" target="_top" xlink:title=" ">
<polygon fill="none" stroke="black" points="64.5,-56.5 64.5,-75.5 139.5,-75.5 139.5,-56.5 64.5,-56.5"/>
<text text-anchor="middle" x="102" y="-63.5" font-family="Helvetica,sans-Serif" font-size="10.00">yaclib/log.hpp</text>
</a>
</g>
</g>
<!-- Node1&#45;&gt;Node12 -->
<g id="edge45" class="edge">
<title>Node1&#45;&gt;Node12</title>
<path fill="none" stroke="midnightblue" d="M382.9,-528.6C316.47,-527.02 196.81,-518.17 104,-478 50.11,-454.67 0,-455.22 0,-396.5 0,-396.5 0,-396.5 0,-193.5 0,-153.9 10.67,-142.44 36,-112 46.81,-99.01 62.29,-88.19 75.54,-80.42"/>
<polygon fill="midnightblue" stroke="midnightblue" points="77.25,-83.47 84.27,-75.53 73.83,-77.36 77.25,-83.47"/>
</g>
<!-- Node14 -->
<g id="node14" class="node">
<title>Node14</title>
<g id="a_node14"><a xlink:href="inline_8hpp.html" target="_top" xlink:title=" ">
<polygon fill="none" stroke="black" points="142.5,-453 142.5,-472 267.5,-472 267.5,-453 142.5,-453"/>
<text text-anchor="middle" x="205" y="-460" font-family="Helvetica,sans-Serif" font-size="10.00">yaclib/executor/inline.hpp</text>
</a>
</g>
</g>
<!-- Node1&#45;&gt;Node14 -->
<g id="edge16" class="edge">
<title>Node1&#45;&gt;Node14</title>
<path fill="none" stroke="midnightblue" d="M383.81,-514.48C342.23,-502.62 283.43,-485.86 244.77,-474.84"/>
<polygon fill="midnightblue" stroke="midnightblue" points="245.49,-471.4 234.92,-472.03 243.57,-478.14 245.49,-471.4"/>
</g>
<!-- Node15 -->
<g id="node15" class="node">
<title>Node15</title>
<g id="a_node15"><a xlink:href="thread__factory_8hpp.html" target="_top" xlink:title=" ">
<polygon fill="none" stroke="black" points="400.5,-380.5 400.5,-410.5 511.5,-410.5 511.5,-380.5 400.5,-380.5"/>
<text text-anchor="start" x="408.5" y="-398.5" font-family="Helvetica,sans-Serif" font-size="10.00">yaclib/executor/thread</text>
<text text-anchor="middle" x="456" y="-387.5" font-family="Helvetica,sans-Serif" font-size="10.00">_factory.hpp</text>
</a>
</g>
</g>
<!-- Node1&#45;&gt;Node15 -->
<g id="edge19" class="edge">
<title>Node1&#45;&gt;Node15</title>
<path fill="none" stroke="midnightblue" d="M435.46,-514.37C439.37,-491.94 447.04,-447.92 451.82,-420.49"/>
<polygon fill="midnightblue" stroke="midnightblue" points="455.29,-420.98 453.56,-410.52 448.39,-419.78 455.29,-420.98"/>
</g>
<!-- Node18 -->
<g id="node18" class="node">
<title>Node18</title>
<g id="a_node18"><a xlink:href="helper_8hpp.html" target="_top" xlink:title=" ">
<polygon fill="none" stroke="black" points="516,-252 516,-271 620,-271 620,-252 516,-252"/>
<text text-anchor="middle" x="568" y="-259" font-family="Helvetica,sans-Serif" font-size="10.00">yaclib/util/helper.hpp</text>
</a>
</g>
</g>
<!-- Node1&#45;&gt;Node18 -->
<g id="edge48" class="edge">
<title>Node1&#45;&gt;Node18</title>
<path fill="none" stroke="midnightblue" d="M483,-519.81C513.84,-512.56 552.93,-499.78 582,-478 611.11,-456.19 618.05,-445.69 629,-411 644.6,-361.6 605.38,-305.64 582.73,-278.7"/>
<polygon fill="midnightblue" stroke="midnightblue" points="585.25,-276.26 576.05,-271.02 579.97,-280.86 585.25,-276.26"/>
</g>
<!-- Node21 -->
<g id="node21" class="node">
<title>Node21</title>
<g id="a_node21"><a xlink:title=" ">
<polygon fill="none" stroke="#bfbfbf" points="725.5,-118 725.5,-137 774.5,-137 774.5,-118 725.5,-118"/>
<text text-anchor="middle" x="750" y="-125" font-family="Helvetica,sans-Serif" font-size="10.00">cstddef</text>
</a>
</g>
</g>
<!-- Node1&#45;&gt;Node21 -->
<g id="edge50" class="edge">
<title>Node1&#45;&gt;Node21</title>
<path fill="none" stroke="midnightblue" d="M483.41,-527.25C528.19,-523.74 593.29,-512.46 638,-478 741.21,-398.43 739.05,-339.08 757,-210 759.99,-188.51 756.92,-163.65 753.96,-147.09"/>
<polygon fill="midnightblue" stroke="midnightblue" points="757.35,-146.24 752,-137.1 750.49,-147.59 757.35,-146.24"/>
</g>
<!-- Node23 -->
<g id="node23" class="node">
<title>Node23</title>
<g id="a_node23"><a xlink:href="thread__pool_8hpp.html" target="_top" xlink:title=" ">
<polygon fill="none" stroke="black" points="461.5,-447.5 461.5,-477.5 572.5,-477.5 572.5,-447.5 461.5,-447.5"/>
<text text-anchor="start" x="469.5" y="-465.5" font-family="Helvetica,sans-Serif" font-size="10.00">yaclib/executor/thread</text>
<text text-anchor="middle" x="517" y="-454.5" font-family="Helvetica,sans-Serif" font-size="10.00">_pool.hpp</text>
</a>
</g>
</g>
<!-- Node1&#45;&gt;Node23 -->
<g id="edge40" class="edge">
<title>Node1&#45;&gt;Node23</title>
<path fill="none" stroke="midnightblue" d="M451.23,-514.4C462.78,-505.45 477.92,-493.74 490.76,-483.8"/>
<polygon fill="midnightblue" stroke="midnightblue" points="493.04,-486.46 498.81,-477.58 488.76,-480.93 493.04,-486.46"/>
</g>
<!-- Node25 -->
<g id="node25" class="node">
<title>Node25</title>
<g id="a_node25"><a xlink:href="nope__counter_8hpp.html" target="_top" xlink:title=" ">
<polygon fill="none" stroke="black" points="799,-447.5 799,-477.5 895,-477.5 895,-447.5 799,-447.5"/>
<text text-anchor="start" x="807" y="-465.5" font-family="Helvetica,sans-Serif" font-size="10.00">yaclib/util/detail</text>
<text text-anchor="middle" x="847" y="-454.5" font-family="Helvetica,sans-Serif" font-size="10.00">/nope_counter.hpp</text>
</a>
</g>
</g>
<!-- Node1&#45;&gt;Node25 -->
<g id="edge46" class="edge">
<title>Node1&#45;&gt;Node25</title>
<path fill="none" stroke="midnightblue" d="M483.07,-522.71C551.53,-514.48 678.07,-498.13 785,-478 786.25,-477.76 787.52,-477.52 788.79,-477.27"/>
<polygon fill="midnightblue" stroke="midnightblue" points="789.6,-480.68 798.69,-475.23 788.19,-473.82 789.6,-480.68"/>
</g>
<!-- Node26 -->
<g id="node26" class="node">
<title>Node26</title>
<g id="a_node26"><a xlink:title=" ">
<polygon fill="none" stroke="#bfbfbf" points="913,-447.5 913,-477.5 1015,-477.5 1015,-447.5 913,-447.5"/>
<text text-anchor="start" x="921" y="-465.5" font-family="Helvetica,sans-Serif" font-size="10.00">yaclib_std/condition</text>
<text text-anchor="middle" x="964" y="-454.5" font-family="Helvetica,sans-Serif" font-size="10.00">_variable</text>
</a>
</g>
</g>
<!-- Node1&#45;&gt;Node26 -->
<g id="edge52" class="edge">
<title>Node1&#45;&gt;Node26</title>
<path fill="none" stroke="midnightblue" d="M483.14,-525.28C567.78,-519.37 744.43,-505.03 902.78,-478.07"/>
<polygon fill="midnightblue" stroke="midnightblue" points="903.44,-481.51 912.7,-476.36 902.26,-474.61 903.44,-481.51"/>
</g>
<!-- Node27 -->
<g id="node27" class="node">
<title>Node27</title>
<g id="a_node27"><a xlink:title=" ">
<polygon fill="none" stroke="#bfbfbf" points="1032.5,-453 1032.5,-472 1121.5,-472 1121.5,-453 1032.5,-453"/>
<text text-anchor="middle" x="1077" y="-460" font-family="Helvetica,sans-Serif" font-size="10.00">yaclib_std/mutex</text>
</a>
</g>
</g>
<!-- Node1&#45;&gt;Node27 -->
<g id="edge53" class="edge">
<title>Node1&#45;&gt;Node27</title>
<path fill="none" stroke="midnightblue" d="M483.21,-527.28C585.65,-524.13 825.79,-513.28 1024,-478 1029.09,-477.09 1034.41,-475.92 1039.62,-474.63"/>
<polygon fill="midnightblue" stroke="midnightblue" points="1040.65,-477.98 1049.43,-472.06 1038.87,-471.21 1040.65,-477.98"/>
</g>
<!-- Node3 -->
<g id="node3" class="node">
<title>Node3</title>
<g id="a_node3"><a xlink:href="node_8hpp.html" target="_top" xlink:title=" ">
<polygon fill="none" stroke="black" points="104.5,-246.5 104.5,-276.5 187.5,-276.5 187.5,-246.5 104.5,-246.5"/>
<text text-anchor="start" x="112.5" y="-264.5" font-family="Helvetica,sans-Serif" font-size="10.00">yaclib/util/detail</text>
<text text-anchor="middle" x="146" y="-253.5" font-family="Helvetica,sans-Serif" font-size="10.00">/node.hpp</text>
</a>
</g>
</g>
<!-- Node2&#45;&gt;Node3 -->
<g id="edge2" class="edge">
<title>Node2&#45;&gt;Node3</title>
<path fill="none" stroke="midnightblue" d="M122.64,-318.73C126.11,-310.37 131.5,-297.4 136.23,-286.02"/>
<polygon fill="midnightblue" stroke="midnightblue" points="139.54,-287.17 140.15,-276.59 133.08,-284.48 139.54,-287.17"/>
</g>
<!-- Node4&#45;&gt;Node5 -->
<g id="edge4" class="edge">
<title>Node4&#45;&gt;Node5</title>
<path fill="none" stroke="midnightblue" d="M209.87,-385.73C224.25,-375.11 248.7,-357.05 266.01,-344.26"/>
<polygon fill="midnightblue" stroke="midnightblue" points="268.36,-346.88 274.32,-338.13 264.2,-341.25 268.36,-346.88"/>
</g>
<!-- Node4&#45;&gt;Node10 -->
<g id="edge10" class="edge">
<title>Node4&#45;&gt;Node10</title>
<path fill="none" stroke="midnightblue" d="M128.43,-386.69C101.56,-379.88 73.39,-367.28 57,-344 48.04,-331.28 50.28,-269.65 62,-246 67.83,-234.25 77.7,-224.02 87.6,-215.9"/>
<polygon fill="midnightblue" stroke="midnightblue" points="90.03,-218.44 95.85,-209.59 85.78,-212.89 90.03,-218.44"/>
</g>
<!-- Node5&#45;&gt;Node3 -->
<g id="edge5" class="edge">
<title>Node5&#45;&gt;Node3</title>
<path fill="none" stroke="midnightblue" d="M267.41,-318.87C246.58,-309.2 212.23,-293.25 185.37,-280.78"/>
<polygon fill="midnightblue" stroke="midnightblue" points="186.76,-277.56 176.21,-276.53 183.81,-283.91 186.76,-277.56"/>
</g>
<!-- Node5&#45;&gt;Node6 -->
<g id="edge6" class="edge">
<title>Node5&#45;&gt;Node6</title>
<path fill="none" stroke="midnightblue" d="M286.94,-318.73C287.97,-309.18 289.65,-293.62 290.98,-281.28"/>
<polygon fill="midnightblue" stroke="midnightblue" points="294.48,-281.44 292.07,-271.13 287.52,-280.7 294.48,-281.44"/>
</g>
<!-- Node7 -->
<g id="node7" class="node">
<title>Node7</title>
<g id="a_node7"><a xlink:href="ref_8hpp.html" target="_top" xlink:title=" ">
<polygon fill="none" stroke="black" points="177.5,-118 177.5,-137 266.5,-137 266.5,-118 177.5,-118"/>
<text text-anchor="middle" x="222" y="-125" font-family="Helvetica,sans-Serif" font-size="10.00">yaclib/util/ref.hpp</text>
</a>
</g>
</g>
<!-- Node6&#45;&gt;Node7 -->
<g id="edge7" class="edge">
<title>Node6&#45;&gt;Node7</title>
<path fill="none" stroke="midnightblue" d="M284.21,-251.92C274.89,-242.4 260.26,-226.25 251,-210 239.41,-189.66 231.19,-163.88 226.52,-146.82"/>
<polygon fill="midnightblue" stroke="midnightblue" points="229.88,-145.81 223.97,-137.01 223.1,-147.57 229.88,-145.81"/>
</g>
<!-- Node8 -->
<g id="node8" class="node">
<title>Node8</title>
<g id="a_node8"><a xlink:title=" ">
<polygon fill="none" stroke="#bfbfbf" points="301,-118 301,-137 363,-137 363,-118 301,-118"/>
<text text-anchor="middle" x="332" y="-125" font-family="Helvetica,sans-Serif" font-size="10.00">type_traits</text>
</a>
</g>
</g>
<!-- Node6&#45;&gt;Node8 -->
<g id="edge8" class="edge">
<title>Node6&#45;&gt;Node8</title>
<path fill="none" stroke="midnightblue" d="M284.04,-251.72C269.69,-236.55 244.48,-204.6 258,-179 266.99,-161.99 284.57,-149.62 300.34,-141.39"/>
<polygon fill="midnightblue" stroke="midnightblue" points="301.88,-144.53 309.34,-137.01 298.82,-138.24 301.88,-144.53"/>
</g>
<!-- Node6&#45;&gt;Node9 -->
<g id="edge9" class="edge">
<title>Node6&#45;&gt;Node9</title>
<path fill="none" stroke="midnightblue" d="M300.68,-251.74C314.03,-236.59 342.54,-204.66 368,-179 379.96,-166.95 393.98,-153.87 404.73,-144.04"/>
<polygon fill="midnightblue" stroke="midnightblue" points="407.18,-146.54 412.23,-137.23 402.48,-141.36 407.18,-146.54"/>
</g>
<!-- Node10&#45;&gt;Node7 -->
<g id="edge11" class="edge">
<title>Node10&#45;&gt;Node7</title>
<path fill="none" stroke="midnightblue" d="M141.35,-179.4C158.62,-168.5 182.42,-153.48 199.68,-142.58"/>
<polygon fill="midnightblue" stroke="midnightblue" points="201.93,-145.3 208.52,-137.01 198.19,-139.38 201.93,-145.3"/>
</g>
<!-- Node10&#45;&gt;Node8 -->
<g id="edge12" class="edge">
<title>Node10&#45;&gt;Node8</title>
<path fill="none" stroke="midnightblue" d="M164.96,-179.48C203.63,-167.67 258.27,-151 294.38,-139.98"/>
<polygon fill="midnightblue" stroke="midnightblue" points="295.51,-143.3 304.05,-137.03 293.47,-136.6 295.51,-143.3"/>
</g>
<!-- Node11 -->
<g id="node11" class="node">
<title>Node11</title>
<g id="a_node11"><a xlink:href="intrusive__ptr__impl_8hpp.html" target="_top" xlink:title=" ">
<polygon fill="none" stroke="black" points="45,-112.5 45,-142.5 159,-142.5 159,-112.5 45,-112.5"/>
<text text-anchor="start" x="53" y="-130.5" font-family="Helvetica,sans-Serif" font-size="10.00">yaclib/util/detail</text>
<text text-anchor="middle" x="102" y="-119.5" font-family="Helvetica,sans-Serif" font-size="10.00">/intrusive_ptr_impl.hpp</text>
</a>
</g>
</g>
<!-- Node10&#45;&gt;Node11 -->
<g id="edge13" class="edge">
<title>Node10&#45;&gt;Node11</title>
<path fill="none" stroke="midnightblue" d="M115.31,-179.4C113.24,-171.47 110.6,-161.38 108.22,-152.27"/>
<polygon fill="midnightblue" stroke="midnightblue" points="111.6,-151.37 105.68,-142.58 104.83,-153.14 111.6,-151.37"/>
</g>
<!-- Node11&#45;&gt;Node12 -->
<g id="edge14" class="edge">
<title>Node11&#45;&gt;Node12</title>
<path fill="none" stroke="midnightblue" d="M102,-112.4C102,-104.47 102,-94.46 102,-85.86"/>
<polygon fill="midnightblue" stroke="midnightblue" points="105.5,-85.66 102,-75.66 98.5,-85.66 105.5,-85.66"/>
</g>
<!-- Node13 -->
<g id="node13" class="node">
<title>Node13</title>
<g id="a_node13"><a xlink:title=" ">
<polygon fill="none" stroke="#bfbfbf" points="352,-0.5 352,-19.5 418,-19.5 418,-0.5 352,-0.5"/>
<text text-anchor="middle" x="385" y="-7.5" font-family="Helvetica,sans-Serif" font-size="10.00">string_view</text>
</a>
</g>
</g>
<!-- Node12&#45;&gt;Node13 -->
<g id="edge15" class="edge">
<title>Node12&#45;&gt;Node13</title>
<path fill="none" stroke="midnightblue" d="M139.58,-57.83C191.95,-47.84 286.65,-29.77 341.85,-19.23"/>
<polygon fill="midnightblue" stroke="midnightblue" points="342.51,-22.67 351.68,-17.36 341.2,-15.8 342.51,-22.67"/>
</g>
<!-- Node14&#45;&gt;Node4 -->
<g id="edge17" class="edge">
<title>Node14&#45;&gt;Node4</title>
<path fill="none" stroke="midnightblue" d="M204.06,-452.73C203.03,-443.18 201.35,-427.62 200.02,-415.28"/>
<polygon fill="midnightblue" stroke="midnightblue" points="203.48,-414.7 198.93,-405.13 196.52,-415.44 203.48,-414.7"/>
</g>
<!-- Node15&#45;&gt;Node3 -->
<g id="edge21" class="edge">
<title>Node15&#45;&gt;Node3</title>
<path fill="none" stroke="midnightblue" d="M442.21,-380.43C423.47,-362.14 388.15,-330.47 352,-313 290.27,-283.17 268.52,-293.59 202,-277 200.54,-276.64 199.06,-276.26 197.56,-275.89"/>
<polygon fill="midnightblue" stroke="midnightblue" points="198.12,-272.42 187.57,-273.35 196.4,-279.2 198.12,-272.42"/>
</g>
<!-- Node15&#45;&gt;Node5 -->
<g id="edge20" class="edge">
<title>Node15&#45;&gt;Node5</title>
<path fill="none" stroke="midnightblue" d="M419.11,-380.4C388.89,-368.84 346.56,-352.66 317.81,-341.66"/>
<polygon fill="midnightblue" stroke="midnightblue" points="318.84,-338.31 308.25,-338.01 316.34,-344.85 318.84,-338.31"/>
</g>
<!-- Node15&#45;&gt;Node13 -->
<g id="edge39" class="edge">
<title>Node15&#45;&gt;Node13</title>
<path fill="none" stroke="midnightblue" d="M485.33,-380.47C522.66,-361.4 587.3,-324.22 629,-277 678.81,-220.59 710.32,-173.53 667,-112 612.55,-34.66 493.13,-16.24 428.54,-12.05"/>
<polygon fill="midnightblue" stroke="midnightblue" points="428.47,-8.54 418.28,-11.47 428.07,-15.53 428.47,-8.54"/>
</g>
<!-- Node16 -->
<g id="node16" class="node">
<title>Node16</title>
<g id="a_node16"><a xlink:href="shared__func_8hpp.html" target="_top" xlink:title=" ">
<polygon fill="none" stroke="black" points="438.5,-313.5 438.5,-343.5 529.5,-343.5 529.5,-313.5 438.5,-313.5"/>
<text text-anchor="start" x="446.5" y="-331.5" font-family="Helvetica,sans-Serif" font-size="10.00">yaclib/util/detail</text>
<text text-anchor="middle" x="484" y="-320.5" font-family="Helvetica,sans-Serif" font-size="10.00">/shared_func.hpp</text>
</a>
</g>
</g>
<!-- Node15&#45;&gt;Node16 -->
<g id="edge22" class="edge">
<title>Node15&#45;&gt;Node16</title>
<path fill="none" stroke="midnightblue" d="M462.08,-380.4C465.52,-372.39 469.93,-362.16 473.89,-352.98"/>
<polygon fill="midnightblue" stroke="midnightblue" points="477.19,-354.15 477.94,-343.58 470.77,-351.38 477.19,-354.15"/>
</g>
<!-- Node15&#45;&gt;Node21 -->
<g id="edge38" class="edge">
<title>Node15&#45;&gt;Node21</title>
<path fill="none" stroke="midnightblue" d="M509.93,-380.41C555.48,-368.16 614.76,-351.28 624,-344 692.46,-290.11 731.1,-187.96 744.54,-146.58"/>
<polygon fill="midnightblue" stroke="midnightblue" points="747.88,-147.61 747.54,-137.02 741.2,-145.52 747.88,-147.61"/>
</g>
<!-- Node16&#45;&gt;Node6 -->
<g id="edge26" class="edge">
<title>Node16&#45;&gt;Node6</title>
<path fill="none" stroke="midnightblue" d="M442.56,-313.4C408.15,-301.69 359.8,-285.23 327.48,-274.23"/>
<polygon fill="midnightblue" stroke="midnightblue" points="328.59,-270.92 318,-271.01 326.34,-277.54 328.59,-270.92"/>
</g>
<!-- Node16&#45;&gt;Node7 -->
<g id="edge35" class="edge">
<title>Node16&#45;&gt;Node7</title>
<path fill="none" stroke="midnightblue" d="M455.55,-313.42C437.39,-303.98 413.65,-290.79 394,-277 332.6,-233.92 267.53,-172.92 238.11,-144.38"/>
<polygon fill="midnightblue" stroke="midnightblue" points="240.39,-141.72 230.79,-137.23 235.5,-146.72 240.39,-141.72"/>
</g>
<!-- Node16&#45;&gt;Node8 -->
<g id="edge36" class="edge">
<title>Node16&#45;&gt;Node8</title>
<path fill="none" stroke="midnightblue" d="M466.25,-313.17C441.57,-292.51 396.7,-252.19 368,-210 354.44,-190.07 344.05,-164.2 337.99,-147.01"/>
<polygon fill="midnightblue" stroke="midnightblue" points="341.16,-145.47 334.65,-137.11 334.53,-147.71 341.16,-145.47"/>
</g>
<!-- Node16&#45;&gt;Node9 -->
<g id="edge37" class="edge">
<title>Node16&#45;&gt;Node9</title>
<path fill="none" stroke="midnightblue" d="M485.47,-313.22C487.68,-285.83 489.62,-224.56 469,-179 462.76,-165.22 451.25,-152.75 441.18,-143.65"/>
<polygon fill="midnightblue" stroke="midnightblue" points="443.41,-140.96 433.54,-137.11 438.86,-146.28 443.41,-140.96"/>
</g>
<!-- Node16&#45;&gt;Node10 -->
<g id="edge34" class="edge">
<title>Node16&#45;&gt;Node10</title>
<path fill="none" stroke="midnightblue" d="M438.39,-320.87C376.77,-311.46 270.54,-293.55 235,-277 214.93,-267.65 213.94,-258.97 196,-246 181.2,-235.3 164.26,-224.08 150.05,-214.95"/>
<polygon fill="midnightblue" stroke="midnightblue" points="151.91,-211.99 141.6,-209.56 148.15,-217.89 151.91,-211.99"/>
</g>
<!-- Node17 -->
<g id="node17" class="node">
<title>Node17</title>
<g id="a_node17"><a xlink:href="safe__call_8hpp.html" target="_top" xlink:title=" ">
<polygon fill="none" stroke="black" points="376.5,-179.5 376.5,-209.5 459.5,-209.5 459.5,-179.5 376.5,-179.5"/>
<text text-anchor="start" x="384.5" y="-197.5" font-family="Helvetica,sans-Serif" font-size="10.00">yaclib/util/detail</text>
<text text-anchor="middle" x="418" y="-186.5" font-family="Helvetica,sans-Serif" font-size="10.00">/safe_call.hpp</text>
</a>
</g>
</g>
<!-- Node16&#45;&gt;Node17 -->
<g id="edge23" class="edge">
<title>Node16&#45;&gt;Node17</title>
<path fill="none" stroke="midnightblue" d="M476.94,-313.37C465.62,-290.75 443.32,-246.14 429.63,-218.76"/>
<polygon fill="midnightblue" stroke="midnightblue" points="432.62,-216.9 425.01,-209.52 426.35,-220.03 432.62,-216.9"/>
</g>
<!-- Node16&#45;&gt;Node18 -->
<g id="edge27" class="edge">
<title>Node16&#45;&gt;Node18</title>
<path fill="none" stroke="midnightblue" d="M502.23,-313.4C515.97,-302.76 534.78,-288.2 548.77,-277.38"/>
<polygon fill="midnightblue" stroke="midnightblue" points="551,-280.08 556.76,-271.19 546.71,-274.55 551,-280.08"/>
</g>
<!-- Node17&#45;&gt;Node8 -->
<g id="edge24" class="edge">
<title>Node17&#45;&gt;Node8</title>
<path fill="none" stroke="midnightblue" d="M399.34,-179.4C385.27,-168.76 366.01,-154.2 351.69,-143.38"/>
<polygon fill="midnightblue" stroke="midnightblue" points="353.59,-140.43 343.5,-137.19 349.37,-146.02 353.59,-140.43"/>
</g>
<!-- Node17&#45;&gt;Node9 -->
<g id="edge25" class="edge">
<title>Node17&#45;&gt;Node9</title>
<path fill="none" stroke="midnightblue" d="M418.87,-179.4C419.45,-169.96 420.22,-157.45 420.85,-147.19"/>
<polygon fill="midnightblue" stroke="midnightblue" points="424.34,-147.39 421.46,-137.19 417.36,-146.96 424.34,-147.39"/>
</g>
<!-- Node18&#45;&gt;Node10 -->
<g id="edge33" class="edge">
<title>Node18&#45;&gt;Node10</title>
<path fill="none" stroke="midnightblue" d="M515.62,-252.92C431.28,-240.71 265.96,-216.77 177.74,-204"/>
<polygon fill="midnightblue" stroke="midnightblue" points="178.03,-200.51 167.64,-202.54 177.03,-207.44 178.03,-200.51"/>
</g>
<!-- Node19 -->
<g id="node19" class="node">
<title>Node19</title>
<g id="a_node19"><a xlink:href="atomic__counter_8hpp.html" target="_top" xlink:title=" ">
<polygon fill="none" stroke="black" points="554,-179.5 554,-209.5 658,-209.5 658,-179.5 554,-179.5"/>
<text text-anchor="start" x="562" y="-197.5" font-family="Helvetica,sans-Serif" font-size="10.00">yaclib/util/detail</text>
<text text-anchor="middle" x="606" y="-186.5" font-family="Helvetica,sans-Serif" font-size="10.00">/atomic_counter.hpp</text>
</a>
</g>
</g>
<!-- Node18&#45;&gt;Node19 -->
<g id="edge28" class="edge">
<title>Node18&#45;&gt;Node19</title>
<path fill="none" stroke="midnightblue" d="M573.12,-251.73C578.11,-243.2 585.9,-229.87 592.65,-218.33"/>
<polygon fill="midnightblue" stroke="midnightblue" points="595.74,-219.99 597.76,-209.59 589.69,-216.46 595.74,-219.99"/>
</g>
<!-- Node19&#45;&gt;Node9 -->
<g id="edge31" class="edge">
<title>Node19&#45;&gt;Node9</title>
<path fill="none" stroke="midnightblue" d="M556.46,-179.41C525.69,-170.16 485.56,-157.18 451,-143 449.8,-142.51 448.58,-141.99 447.35,-141.44"/>
<polygon fill="midnightblue" stroke="midnightblue" points="448.6,-138.16 438.06,-137.06 445.61,-144.49 448.6,-138.16"/>
</g>
<!-- Node20 -->
<g id="node20" class="node">
<title>Node20</title>
<g id="a_node20"><a xlink:title=" ">
<polygon fill="none" stroke="#bfbfbf" points="460,-118 460,-137 548,-137 548,-118 460,-118"/>
<text text-anchor="middle" x="504" y="-125" font-family="Helvetica,sans-Serif" font-size="10.00">yaclib/config.hpp</text>
</a>
</g>
</g>
<!-- Node19&#45;&gt;Node20 -->
<g id="edge29" class="edge">
<title>Node19&#45;&gt;Node20</title>
<path fill="none" stroke="midnightblue" d="M583.87,-179.4C566.76,-168.5 543.2,-153.48 526.1,-142.58"/>
<polygon fill="midnightblue" stroke="midnightblue" points="527.66,-139.43 517.35,-137.01 523.9,-145.33 527.66,-139.43"/>
</g>
<!-- Node19&#45;&gt;Node21 -->
<g id="edge30" class="edge">
<title>Node19&#45;&gt;Node21</title>
<path fill="none" stroke="midnightblue" d="M637.25,-179.4C662.4,-168.04 697.45,-152.22 721.77,-141.24"/>
<polygon fill="midnightblue" stroke="midnightblue" points="723.48,-144.31 731.15,-137.01 720.6,-137.93 723.48,-144.31"/>
</g>
<!-- Node22 -->
<g id="node22" class="node">
<title>Node22</title>
<g id="a_node22"><a xlink:title=" ">
<polygon fill="none" stroke="#bfbfbf" points="566,-118 566,-137 658,-137 658,-118 566,-118"/>
<text text-anchor="middle" x="612" y="-125" font-family="Helvetica,sans-Serif" font-size="10.00">yaclib_std/atomic</text>
</a>
</g>
</g>
<!-- Node19&#45;&gt;Node22 -->
<g id="edge32" class="edge">
<title>Node19&#45;&gt;Node22</title>
<path fill="none" stroke="midnightblue" d="M607.3,-179.4C608.17,-169.96 609.33,-157.45 610.27,-147.19"/>
<polygon fill="midnightblue" stroke="midnightblue" points="613.76,-147.47 611.2,-137.19 606.79,-146.83 613.76,-147.47"/>
</g>
<!-- Node23&#45;&gt;Node4 -->
<g id="edge41" class="edge">
<title>Node23&#45;&gt;Node4</title>
<path fill="none" stroke="midnightblue" d="M461.43,-450.18C401.82,-438.03 307.9,-418.89 249.79,-407.05"/>
<polygon fill="midnightblue" stroke="midnightblue" points="250.22,-403.57 239.72,-405 248.82,-410.43 250.22,-403.57"/>
</g>
<!-- Node23&#45;&gt;Node15 -->
<g id="edge42" class="edge">
<title>Node23&#45;&gt;Node15</title>
<path fill="none" stroke="midnightblue" d="M503.76,-447.4C495.69,-438.79 485.21,-427.63 476.13,-417.94"/>
<polygon fill="midnightblue" stroke="midnightblue" points="478.61,-415.47 469.21,-410.58 473.5,-420.26 478.61,-415.47"/>
</g>
<!-- Node23&#45;&gt;Node21 -->
<g id="edge43" class="edge">
<title>Node23&#45;&gt;Node21</title>
<path fill="none" stroke="midnightblue" d="M564.96,-447.41C586.38,-439.34 610.83,-427.47 629,-411 704.61,-342.46 710.25,-307.62 740,-210 746.35,-189.17 748.68,-164.18 749.53,-147.41"/>
<polygon fill="midnightblue" stroke="midnightblue" points="753.03,-147.39 749.91,-137.27 746.04,-147.13 753.03,-147.39"/>
</g>
<!-- Node24 -->
<g id="node24" class="node">
<title>Node24</title>
<g id="a_node24"><a xlink:title=" ">
<polygon fill="none" stroke="#bfbfbf" points="530,-386 530,-405 620,-405 620,-386 530,-386"/>
<text text-anchor="middle" x="575" y="-393" font-family="Helvetica,sans-Serif" font-size="10.00">yaclib_std/thread</text>
</a>
</g>
</g>
<!-- Node23&#45;&gt;Node24 -->
<g id="edge44" class="edge">
<title>Node23&#45;&gt;Node24</title>
<path fill="none" stroke="midnightblue" d="M529.59,-447.4C538.63,-437.26 550.85,-423.57 560.33,-412.94"/>
<polygon fill="midnightblue" stroke="midnightblue" points="563.2,-414.99 567.24,-405.19 557.97,-410.33 563.2,-414.99"/>
</g>
</g>
</svg>
