<?xml version="1.0" encoding="UTF-8" standalone="no"?>
<!DOCTYPE svg PUBLIC "-//W3C//DTD SVG 1.1//EN"
 "http://www.w3.org/Graphics/SVG/1.1/DTD/svg11.dtd">
<!-- Generated by graphviz version 3.0.0 (20220413.0106)
 -->
<!-- Title: src/executor/strand.cpp Pages: 1 -->
<svg width="671pt" height="397pt"
 viewBox="0.00 0.00 670.50 397.00" xmlns="http://www.w3.org/2000/svg" xmlns:xlink="http://www.w3.org/1999/xlink">
<g id="graph0" class="graph" transform="scale(1 1) rotate(0) translate(4 393)">
<title>src/executor/strand.cpp</title>
<!-- Node1 -->
<g id="node1" class="node">
<title>Node1</title>
<g id="a_node1"><a xlink:title=" ">
<polygon fill="#bfbfbf" stroke="black" points="316.5,-369.5 316.5,-388.5 434.5,-388.5 434.5,-369.5 316.5,-369.5"/>
<text text-anchor="middle" x="375.5" y="-376.5" font-family="Helvetica,sans-Serif" font-size="10.00">src/executor/strand.cpp</text>
</a>
</g>
</g>
<!-- Node2 -->
<g id="node2" class="node">
<title>Node2</title>
<g id="a_node2"><a xlink:href="executor_8hpp.html" target="_top" xlink:title=" ">
<polygon fill="none" stroke="black" points="146,-252 146,-271 285,-271 285,-252 146,-252"/>
<text text-anchor="middle" x="215.5" y="-259" font-family="Helvetica,sans-Serif" font-size="10.00">yaclib/executor/executor.hpp</text>
</a>
</g>
</g>
<!-- Node1&#45;&gt;Node2 -->
<g id="edge1" class="edge">
<title>Node1&#45;&gt;Node2</title>
<path fill="none" stroke="midnightblue" d="M316.28,-373.2C262.09,-367.43 187.67,-355.56 169.5,-333 154.88,-314.84 176.35,-291.93 194.61,-277.24"/>
<polygon fill="midnightblue" stroke="midnightblue" points="196.8,-279.97 202.63,-271.12 192.56,-274.41 196.8,-279.97"/>
</g>
<!-- Node3 -->
<g id="node3" class="node">
<title>Node3</title>
<g id="a_node3"><a xlink:href="job_8hpp.html" target="_top" xlink:title=" ">
<polygon fill="none" stroke="black" points="45,-185 45,-204 160,-204 160,-185 45,-185"/>
<text text-anchor="middle" x="102.5" y="-192" font-family="Helvetica,sans-Serif" font-size="10.00">yaclib/executor/job.hpp</text>
</a>
</g>
</g>
<!-- Node1&#45;&gt;Node3 -->
<g id="edge14" class="edge">
<title>Node1&#45;&gt;Node3</title>
<path fill="none" stroke="midnightblue" d="M316.37,-371.82C261.17,-364.97 183.9,-352.27 160.5,-333 123.44,-302.48 109.64,-244.09 104.85,-214.17"/>
<polygon fill="midnightblue" stroke="midnightblue" points="108.3,-213.62 103.42,-204.22 101.37,-214.62 108.3,-213.62"/>
</g>
<!-- Node8 -->
<g id="node8" class="node">
<title>Node8</title>
<g id="a_node8"><a xlink:title=" ">
<polygon fill="none" stroke="#bfbfbf" points="284,-56.5 284,-75.5 323,-75.5 323,-56.5 284,-56.5"/>
<text text-anchor="middle" x="303.5" y="-63.5" font-family="Helvetica,sans-Serif" font-size="10.00">utility</text>
</a>
</g>
</g>
<!-- Node1&#45;&gt;Node8 -->
<g id="edge26" class="edge">
<title>Node1&#45;&gt;Node8</title>
<path fill="none" stroke="midnightblue" d="M434.51,-375.67C508.14,-369.25 624.5,-345.89 624.5,-262.5 624.5,-262.5 624.5,-262.5 624.5,-193.5 624.5,-137.87 579.52,-136.34 529.5,-112 464.36,-80.31 378.3,-70.94 333.51,-68.16"/>
<polygon fill="midnightblue" stroke="midnightblue" points="333.48,-64.66 323.3,-67.6 333.1,-71.65 333.48,-64.66"/>
</g>
<!-- Node9 -->
<g id="node9" class="node">
<title>Node9</title>
<g id="a_node9"><a xlink:href="intrusive__ptr_8hpp.html" target="_top" xlink:title=" ">
<polygon fill="none" stroke="black" points="178,-179.5 178,-209.5 275,-209.5 275,-179.5 178,-179.5"/>
<text text-anchor="start" x="186" y="-197.5" font-family="Helvetica,sans-Serif" font-size="10.00">yaclib/util/intrusive</text>
<text text-anchor="middle" x="226.5" y="-186.5" font-family="Helvetica,sans-Serif" font-size="10.00">_ptr.hpp</text>
</a>
</g>
</g>
<!-- Node1&#45;&gt;Node9 -->
<g id="edge25" class="edge">
<title>Node1&#45;&gt;Node9</title>
<path fill="none" stroke="midnightblue" d="M371.57,-369.21C361.27,-346.85 331.71,-286.66 294.5,-246 284.03,-234.57 270.66,-223.99 258.54,-215.49"/>
<polygon fill="midnightblue" stroke="midnightblue" points="260.24,-212.42 250,-209.7 256.31,-218.21 260.24,-212.42"/>
</g>
<!-- Node11 -->
<g id="node11" class="node">
<title>Node11</title>
<g id="a_node11"><a xlink:href="log_8hpp.html" target="_top" xlink:title=" ">
<polygon fill="none" stroke="black" points="525,-56.5 525,-75.5 600,-75.5 600,-56.5 525,-56.5"/>
<text text-anchor="middle" x="562.5" y="-63.5" font-family="Helvetica,sans-Serif" font-size="10.00">yaclib/log.hpp</text>
</a>
</g>
</g>
<!-- Node1&#45;&gt;Node11 -->
<g id="edge17" class="edge">
<title>Node1&#45;&gt;Node11</title>
<path fill="none" stroke="midnightblue" d="M434.56,-378.19C484.62,-375.79 556.51,-366.08 609.5,-333 642.75,-312.24 662.5,-301.7 662.5,-262.5 662.5,-262.5 662.5,-262.5 662.5,-193.5 662.5,-143.77 614.36,-102.15 584.88,-81.33"/>
<polygon fill="midnightblue" stroke="midnightblue" points="586.64,-78.29 576.4,-75.55 582.69,-84.07 586.64,-78.29"/>
</g>
<!-- Node13 -->
<g id="node13" class="node">
<title>Node13</title>
<g id="a_node13"><a xlink:href="strand_8hpp.html" target="_top" xlink:title=" ">
<polygon fill="none" stroke="black" points="178,-313.5 178,-332.5 307,-332.5 307,-313.5 178,-313.5"/>
<text text-anchor="middle" x="242.5" y="-320.5" font-family="Helvetica,sans-Serif" font-size="10.00">yaclib/executor/strand.hpp</text>
</a>
</g>
</g>
<!-- Node1&#45;&gt;Node13 -->
<g id="edge15" class="edge">
<title>Node1&#45;&gt;Node13</title>
<path fill="none" stroke="midnightblue" d="M354.43,-369.44C332.44,-360.52 297.77,-346.44 272.84,-336.32"/>
<polygon fill="midnightblue" stroke="midnightblue" points="274.06,-333.04 263.48,-332.52 271.42,-339.52 274.06,-333.04"/>
</g>
<!-- Node14 -->
<g id="node14" class="node">
<title>Node14</title>
<g id="a_node14"><a xlink:href="helper_8hpp.html" target="_top" xlink:title=" ">
<polygon fill="none" stroke="black" points="363.5,-313.5 363.5,-332.5 467.5,-332.5 467.5,-313.5 363.5,-313.5"/>
<text text-anchor="middle" x="415.5" y="-320.5" font-family="Helvetica,sans-Serif" font-size="10.00">yaclib/util/helper.hpp</text>
</a>
</g>
</g>
<!-- Node1&#45;&gt;Node14 -->
<g id="edge18" class="edge">
<title>Node1&#45;&gt;Node14</title>
<path fill="none" stroke="midnightblue" d="M382.11,-369.08C387.76,-361.46 396.04,-350.26 402.95,-340.94"/>
<polygon fill="midnightblue" stroke="midnightblue" points="405.88,-342.87 409.02,-332.75 400.25,-338.7 405.88,-342.87"/>
</g>
<!-- Node18 -->
<g id="node18" class="node">
<title>Node18</title>
<g id="a_node18"><a xlink:title=" ">
<polygon fill="none" stroke="#bfbfbf" points="504.5,-185 504.5,-204 596.5,-204 596.5,-185 504.5,-185"/>
<text text-anchor="middle" x="550.5" y="-192" font-family="Helvetica,sans-Serif" font-size="10.00">yaclib_std/atomic</text>
</a>
</g>
</g>
<!-- Node1&#45;&gt;Node18 -->
<g id="edge27" class="edge">
<title>Node1&#45;&gt;Node18</title>
<path fill="none" stroke="midnightblue" d="M405.77,-369.43C427.21,-362.26 455.74,-350.37 476.5,-333 515.03,-300.76 536.55,-243.14 545.5,-213.78"/>
<polygon fill="midnightblue" stroke="midnightblue" points="548.91,-214.6 548.33,-204.03 542.18,-212.66 548.91,-214.6"/>
</g>
<!-- Node2&#45;&gt;Node3 -->
<g id="edge2" class="edge">
<title>Node2&#45;&gt;Node3</title>
<path fill="none" stroke="midnightblue" d="M200.26,-251.73C181.28,-240.82 148.65,-222.05 126.35,-209.22"/>
<polygon fill="midnightblue" stroke="midnightblue" points="127.91,-206.08 117.5,-204.13 124.42,-212.15 127.91,-206.08"/>
</g>
<!-- Node2&#45;&gt;Node9 -->
<g id="edge8" class="edge">
<title>Node2&#45;&gt;Node9</title>
<path fill="none" stroke="midnightblue" d="M216.98,-251.73C218.37,-243.54 220.51,-230.92 222.4,-219.71"/>
<polygon fill="midnightblue" stroke="midnightblue" points="225.9,-220.03 224.12,-209.59 219,-218.86 225.9,-220.03"/>
</g>
<!-- Node4 -->
<g id="node4" class="node">
<title>Node4</title>
<g id="a_node4"><a xlink:href="node_8hpp.html" target="_top" xlink:title=" ">
<polygon fill="none" stroke="black" points="0,-112.5 0,-142.5 83,-142.5 83,-112.5 0,-112.5"/>
<text text-anchor="start" x="8" y="-130.5" font-family="Helvetica,sans-Serif" font-size="10.00">yaclib/util/detail</text>
<text text-anchor="middle" x="41.5" y="-119.5" font-family="Helvetica,sans-Serif" font-size="10.00">/node.hpp</text>
</a>
</g>
</g>
<!-- Node3&#45;&gt;Node4 -->
<g id="edge3" class="edge">
<title>Node3&#45;&gt;Node4</title>
<path fill="none" stroke="midnightblue" d="M94.27,-184.73C85.95,-175.86 72.76,-161.81 61.65,-149.97"/>
<polygon fill="midnightblue" stroke="midnightblue" points="64.12,-147.49 54.72,-142.59 59.01,-152.28 64.12,-147.49"/>
</g>
<!-- Node5 -->
<g id="node5" class="node">
<title>Node5</title>
<g id="a_node5"><a xlink:href="func_8hpp.html" target="_top" xlink:title=" ">
<polygon fill="none" stroke="black" points="140,-118 140,-137 237,-137 237,-118 140,-118"/>
<text text-anchor="middle" x="188.5" y="-125" font-family="Helvetica,sans-Serif" font-size="10.00">yaclib/util/func.hpp</text>
</a>
</g>
</g>
<!-- Node3&#45;&gt;Node5 -->
<g id="edge4" class="edge">
<title>Node3&#45;&gt;Node5</title>
<path fill="none" stroke="midnightblue" d="M114.1,-184.73C128.15,-174.11 152.05,-156.05 168.97,-143.26"/>
<polygon fill="midnightblue" stroke="midnightblue" points="171.22,-145.95 177.09,-137.13 167,-140.36 171.22,-145.95"/>
</g>
<!-- Node6 -->
<g id="node6" class="node">
<title>Node6</title>
<g id="a_node6"><a xlink:href="ref_8hpp.html" target="_top" xlink:title=" ">
<polygon fill="none" stroke="black" points="75,-56.5 75,-75.5 164,-75.5 164,-56.5 75,-56.5"/>
<text text-anchor="middle" x="119.5" y="-63.5" font-family="Helvetica,sans-Serif" font-size="10.00">yaclib/util/ref.hpp</text>
</a>
</g>
</g>
<!-- Node5&#45;&gt;Node6 -->
<g id="edge5" class="edge">
<title>Node5&#45;&gt;Node6</title>
<path fill="none" stroke="midnightblue" d="M178.61,-117.98C167.85,-108.7 150.43,-93.67 137.28,-82.33"/>
<polygon fill="midnightblue" stroke="midnightblue" points="139.23,-79.39 129.37,-75.51 134.66,-84.69 139.23,-79.39"/>
</g>
<!-- Node7 -->
<g id="node7" class="node">
<title>Node7</title>
<g id="a_node7"><a xlink:title=" ">
<polygon fill="none" stroke="#bfbfbf" points="196.5,-56.5 196.5,-75.5 258.5,-75.5 258.5,-56.5 196.5,-56.5"/>
<text text-anchor="middle" x="227.5" y="-63.5" font-family="Helvetica,sans-Serif" font-size="10.00">type_traits</text>
</a>
</g>
</g>
<!-- Node5&#45;&gt;Node7 -->
<g id="edge6" class="edge">
<title>Node5&#45;&gt;Node7</title>
<path fill="none" stroke="midnightblue" d="M194.09,-117.98C199.88,-109.14 209.09,-95.09 216.37,-83.98"/>
<polygon fill="midnightblue" stroke="midnightblue" points="219.37,-85.79 221.92,-75.51 213.51,-81.95 219.37,-85.79"/>
</g>
<!-- Node5&#45;&gt;Node8 -->
<g id="edge7" class="edge">
<title>Node5&#45;&gt;Node8</title>
<path fill="none" stroke="midnightblue" d="M204.98,-117.98C224.11,-108.08 255.87,-91.64 278.15,-80.12"/>
<polygon fill="midnightblue" stroke="midnightblue" points="279.78,-83.21 287.05,-75.51 276.56,-77 279.78,-83.21"/>
</g>
<!-- Node9&#45;&gt;Node6 -->
<g id="edge9" class="edge">
<title>Node9&#45;&gt;Node6</title>
<path fill="none" stroke="midnightblue" d="M181.18,-179.5C163,-171.62 143.54,-159.88 131.5,-143 119.65,-126.39 117.67,-102.54 118,-86.01"/>
<polygon fill="midnightblue" stroke="midnightblue" points="121.5,-86.07 118.5,-75.91 114.51,-85.72 121.5,-86.07"/>
</g>
<!-- Node9&#45;&gt;Node7 -->
<g id="edge10" class="edge">
<title>Node9&#45;&gt;Node7</title>
<path fill="none" stroke="midnightblue" d="M233.78,-179.35C238.44,-169.46 244.06,-155.78 246.5,-143 249.08,-129.47 249.23,-125.5 246.5,-112 244.61,-102.65 240.71,-92.83 236.93,-84.75"/>
<polygon fill="midnightblue" stroke="midnightblue" points="239.97,-83.01 232.38,-75.63 233.71,-86.14 239.97,-83.01"/>
</g>
<!-- Node10 -->
<g id="node10" class="node">
<title>Node10</title>
<g id="a_node10"><a xlink:href="intrusive__ptr__impl_8hpp.html" target="_top" xlink:title=" ">
<polygon fill="none" stroke="black" points="406.5,-112.5 406.5,-142.5 520.5,-142.5 520.5,-112.5 406.5,-112.5"/>
<text text-anchor="start" x="414.5" y="-130.5" font-family="Helvetica,sans-Serif" font-size="10.00">yaclib/util/detail</text>
<text text-anchor="middle" x="463.5" y="-119.5" font-family="Helvetica,sans-Serif" font-size="10.00">/intrusive_ptr_impl.hpp</text>
</a>
</g>
</g>
<!-- Node9&#45;&gt;Node10 -->
<g id="edge11" class="edge">
<title>Node9&#45;&gt;Node10</title>
<path fill="none" stroke="midnightblue" d="M275.03,-180.19C311.86,-170.09 362.74,-156.13 402.35,-145.27"/>
<polygon fill="midnightblue" stroke="midnightblue" points="403.44,-148.6 412.16,-142.58 401.59,-141.85 403.44,-148.6"/>
</g>
<!-- Node10&#45;&gt;Node11 -->
<g id="edge12" class="edge">
<title>Node10&#45;&gt;Node11</title>
<path fill="none" stroke="midnightblue" d="M486.96,-112.4C502.83,-102.86 523.69,-90.32 539.47,-80.84"/>
<polygon fill="midnightblue" stroke="midnightblue" points="541.33,-83.81 548.09,-75.66 537.72,-77.81 541.33,-83.81"/>
</g>
<!-- Node12 -->
<g id="node12" class="node">
<title>Node12</title>
<g id="a_node12"><a xlink:title=" ">
<polygon fill="none" stroke="#bfbfbf" points="529.5,-0.5 529.5,-19.5 595.5,-19.5 595.5,-0.5 529.5,-0.5"/>
<text text-anchor="middle" x="562.5" y="-7.5" font-family="Helvetica,sans-Serif" font-size="10.00">string_view</text>
</a>
</g>
</g>
<!-- Node11&#45;&gt;Node12 -->
<g id="edge13" class="edge">
<title>Node11&#45;&gt;Node12</title>
<path fill="none" stroke="midnightblue" d="M562.5,-56.08C562.5,-49.01 562.5,-38.86 562.5,-29.99"/>
<polygon fill="midnightblue" stroke="midnightblue" points="566,-29.75 562.5,-19.75 559,-29.75 566,-29.75"/>
</g>
<!-- Node13&#45;&gt;Node2 -->
<g id="edge16" class="edge">
<title>Node13&#45;&gt;Node2</title>
<path fill="none" stroke="midnightblue" d="M238.63,-313.48C234.7,-304.82 228.5,-291.15 223.51,-280.15"/>
<polygon fill="midnightblue" stroke="midnightblue" points="226.68,-278.67 219.36,-271.01 220.31,-281.56 226.68,-278.67"/>
</g>
<!-- Node14&#45;&gt;Node9 -->
<g id="edge24" class="edge">
<title>Node14&#45;&gt;Node9</title>
<path fill="none" stroke="midnightblue" d="M409.98,-313.31C399.76,-297.85 376.47,-265.36 349.5,-246 330.07,-232.05 306.21,-221.12 284.7,-213.05"/>
<polygon fill="midnightblue" stroke="midnightblue" points="285.6,-209.65 275,-209.54 283.22,-216.23 285.6,-209.65"/>
</g>
<!-- Node15 -->
<g id="node15" class="node">
<title>Node15</title>
<g id="a_node15"><a xlink:href="atomic__counter_8hpp.html" target="_top" xlink:title=" ">
<polygon fill="none" stroke="black" points="401.5,-246.5 401.5,-276.5 505.5,-276.5 505.5,-246.5 401.5,-246.5"/>
<text text-anchor="start" x="409.5" y="-264.5" font-family="Helvetica,sans-Serif" font-size="10.00">yaclib/util/detail</text>
<text text-anchor="middle" x="453.5" y="-253.5" font-family="Helvetica,sans-Serif" font-size="10.00">/atomic_counter.hpp</text>
</a>
</g>
</g>
<!-- Node14&#45;&gt;Node15 -->
<g id="edge19" class="edge">
<title>Node14&#45;&gt;Node15</title>
<path fill="none" stroke="midnightblue" d="M420.94,-313.48C425.66,-306.09 432.69,-295.08 439.02,-285.17"/>
<polygon fill="midnightblue" stroke="midnightblue" points="442.11,-286.83 444.54,-276.52 436.21,-283.07 442.11,-286.83"/>
</g>
<!-- Node15&#45;&gt;Node8 -->
<g id="edge22" class="edge">
<title>Node15&#45;&gt;Node8</title>
<path fill="none" stroke="midnightblue" d="M401.6,-246.41C369.63,-236.65 332.84,-223.11 322.5,-210 293.9,-173.71 296.65,-115.45 300.43,-85.74"/>
<polygon fill="midnightblue" stroke="midnightblue" points="303.93,-85.93 301.91,-75.53 297.01,-84.93 303.93,-85.93"/>
</g>
<!-- Node16 -->
<g id="node16" class="node">
<title>Node16</title>
<g id="a_node16"><a xlink:title=" ">
<polygon fill="none" stroke="#bfbfbf" points="331.5,-185 331.5,-204 419.5,-204 419.5,-185 331.5,-185"/>
<text text-anchor="middle" x="375.5" y="-192" font-family="Helvetica,sans-Serif" font-size="10.00">yaclib/config.hpp</text>
</a>
</g>
</g>
<!-- Node15&#45;&gt;Node16 -->
<g id="edge20" class="edge">
<title>Node15&#45;&gt;Node16</title>
<path fill="none" stroke="midnightblue" d="M436.58,-246.4C423.93,-235.86 406.67,-221.48 393.73,-210.69"/>
<polygon fill="midnightblue" stroke="midnightblue" points="395.86,-207.91 385.93,-204.19 391.38,-213.29 395.86,-207.91"/>
</g>
<!-- Node17 -->
<g id="node17" class="node">
<title>Node17</title>
<g id="a_node17"><a xlink:title=" ">
<polygon fill="none" stroke="#bfbfbf" points="437,-185 437,-204 486,-204 486,-185 437,-185"/>
<text text-anchor="middle" x="461.5" y="-192" font-family="Helvetica,sans-Serif" font-size="10.00">cstddef</text>
</a>
</g>
</g>
<!-- Node15&#45;&gt;Node17 -->
<g id="edge21" class="edge">
<title>Node15&#45;&gt;Node17</title>
<path fill="none" stroke="midnightblue" d="M455.24,-246.4C456.4,-236.96 457.94,-224.45 459.2,-214.19"/>
<polygon fill="midnightblue" stroke="midnightblue" points="462.68,-214.55 460.43,-204.19 455.73,-213.69 462.68,-214.55"/>
</g>
<!-- Node15&#45;&gt;Node18 -->
<g id="edge23" class="edge">
<title>Node15&#45;&gt;Node18</title>
<path fill="none" stroke="midnightblue" d="M474.55,-246.4C490.81,-235.5 513.22,-220.48 529.48,-209.58"/>
<polygon fill="midnightblue" stroke="midnightblue" points="531.45,-212.48 537.8,-204.01 527.55,-206.67 531.45,-212.48"/>
</g>
</g>
</svg>
