<?xml version="1.0" encoding="UTF-8" standalone="no"?>
<!DOCTYPE svg PUBLIC "-//W3C//DTD SVG 1.1//EN"
 "http://www.w3.org/Graphics/SVG/1.1/DTD/svg11.dtd">
<!-- Generated by graphviz version 3.0.0 (20220413.0106)
 -->
<!-- Title: yaclib::detail::Node Pages: 1 -->
<!--zoomable 181 -->
<svg id="main" version="1.1" xmlns="http://www.w3.org/2000/svg" xmlns:xlink="http://www.w3.org/1999/xlink" xml:space="preserve" onload="init(evt)">
<style type="text/css"><![CDATA[
.edge:hover path { stroke: red; }
.edge:hover polygon { stroke: red; fill: red; }
]]></style>
<script type="text/javascript"><![CDATA[
var edges = document.getElementsByTagName('g');
if (edges && edges.length) {
  for (var i=0;i<edges.length;i++) {
    if (edges[i].id.substr(0,4)=='edge') {
      edges[i].setAttribute('class','edge');
    }
  }
}
]]></script>
        <defs>
                <circle id="rim" cx="0" cy="0" r="7"/>
                <circle id="rim2" cx="0" cy="0" r="3.5"/>
                <g id="zoomPlus">
                        <use xlink:href="#rim" fill="#404040">
                                <set attributeName="fill" to="#808080" begin="zoomplus.mouseover" end="zoomplus.mouseout"/>
                        </use>
                        <path d="M-4,0h8M0,-4v8" fill="none" stroke="white" stroke-width="1.5" pointer-events="none"/>
                </g>
                <g id="zoomMin">
                        <use xlink:href="#rim" fill="#404040">
                                <set attributeName="fill" to="#808080" begin="zoomminus.mouseover" end="zoomminus.mouseout"/>
                        </use>
                        <path d="M-4,0h8" fill="none" stroke="white" stroke-width="1.5" pointer-events="none"/>
                </g>
                <g id="dirArrow">
                        <path fill="none" stroke="white" stroke-width="1.5" d="M0,-3.0v7 M-2.5,-0.5L0,-3.0L2.5,-0.5"/>
                </g>
               <g id="resetDef">
                       <use xlink:href="#rim2" fill="#404040">
                               <set attributeName="fill" to="#808080" begin="reset.mouseover" end="reset.mouseout"/>
                       </use>
               </g>
        </defs>

<script type="text/javascript">
var viewWidth = 1529;
var viewHeight = 181;
var sectionId = 'dynsection-0';
</script>
<script xlink:href="svgpan.js"/>
<svg id="graph" class="graph">
<g id="viewport">
<title>yaclib::detail::Node</title>
<!-- Node1 -->
<g id="node1" class="node">
<title>Node1</title>
<g id="a_node1"><a xlink:title="Node class, used in intrusive data structure.">
<polygon fill="#bfbfbf" stroke="black" points="0,-86 0,-105 97,-105 97,-86 0,-86"/>
<text text-anchor="middle" x="48.5" y="-93" font-family="Helvetica,sans-Serif" font-size="10.00">yaclib::detail::Node</text>
</a>
</g>
</g>
<!-- Node2 -->
<g id="node2" class="node">
<title>Node2</title>
<g id="a_node2"><a xlink:href="classyaclib_1_1IThread.html" target="_top" xlink:title=" ">
<polygon fill="none" stroke="black" points="134,-105 134,-124 213,-124 213,-105 134,-105"/>
<text text-anchor="middle" x="173.5" y="-112" font-family="Helvetica,sans-Serif" font-size="10.00">yaclib::IThread</text>
</a>
</g>
</g>
<!-- Node1&#45;&gt;Node2 -->
<g id="edge1" class="edge">
<title>Node1&#45;&gt;Node2</title>
<path fill="none" stroke="midnightblue" d="M107.17,-104.41C116.2,-105.8 125.35,-107.22 133.82,-108.53"/>
<polygon fill="midnightblue" stroke="midnightblue" points="107.47,-100.91 97.06,-102.85 106.4,-107.83 107.47,-100.91"/>
</g>
<!-- Node3 -->
<g id="node3" class="node">
<title>Node3</title>
<g id="a_node3"><a xlink:href="classyaclib_1_1Job.html" target="_top" xlink:title="Callable that can be executed in an IExecutor.">
<polygon fill="none" stroke="black" points="142.5,-67 142.5,-86 204.5,-86 204.5,-67 142.5,-67"/>
<text text-anchor="middle" x="173.5" y="-74" font-family="Helvetica,sans-Serif" font-size="10.00">yaclib::Job</text>
</a>
</g>
</g>
<!-- Node1&#45;&gt;Node3 -->
<g id="edge2" class="edge">
<title>Node1&#45;&gt;Node3</title>
<path fill="none" stroke="midnightblue" d="M107.21,-86.59C119.41,-84.7 131.81,-82.79 142.48,-81.14"/>
<polygon fill="midnightblue" stroke="midnightblue" points="106.4,-83.17 97.06,-88.15 107.47,-90.09 106.4,-83.17"/>
</g>
<!-- Node4 -->
<g id="node4" class="node">
<title>Node4</title>
<g id="a_node4"><a xlink:href="classyaclib_1_1detail_1_1InlineCore.html" target="_top" xlink:title=" ">
<polygon fill="none" stroke="black" points="251.5,-99 251.5,-118 368.5,-118 368.5,-99 251.5,-99"/>
<text text-anchor="middle" x="310" y="-106" font-family="Helvetica,sans-Serif" font-size="10.00">yaclib::detail::InlineCore</text>
</a>
</g>
</g>
<!-- Node3&#45;&gt;Node4 -->
<g id="edge3" class="edge">
<title>Node3&#45;&gt;Node4</title>
<path fill="none" stroke="midnightblue" d="M214.44,-86C231.65,-90.1 251.74,-94.88 268.96,-98.97"/>
<polygon fill="midnightblue" stroke="midnightblue" points="215.22,-82.59 204.68,-83.68 213.6,-89.4 215.22,-82.59"/>
</g>
<!-- Node17 -->
<g id="node17" class="node">
<title>Node17</title>
<g id="a_node17"><a xlink:href="classyaclib_1_1detail_1_1UniqueJob.html" target="_top" xlink:title=" ">
<polygon fill="none" stroke="black" points="250,-49.5 250,-79.5 370,-79.5 370,-49.5 250,-49.5"/>
<text text-anchor="start" x="258" y="-67.5" font-family="Helvetica,sans-Serif" font-size="10.00">yaclib::detail::UniqueJob</text>
<text text-anchor="middle" x="310" y="-56.5" font-family="Helvetica,sans-Serif" font-size="10.00">&lt; Func &gt;</text>
</a>
</g>
</g>
<!-- Node3&#45;&gt;Node17 -->
<g id="edge18" class="edge">
<title>Node3&#45;&gt;Node17</title>
<path fill="none" stroke="midnightblue" d="M214.87,-72.9C225.92,-71.91 238.13,-70.82 249.99,-69.77"/>
<polygon fill="midnightblue" stroke="midnightblue" points="214.33,-69.43 204.68,-73.81 214.96,-76.4 214.33,-69.43"/>
</g>
<!-- Node5 -->
<g id="node5" class="node">
<title>Node5</title>
<g id="a_node5"><a xlink:href="classyaclib_1_1detail_1_1AllCombinator.html" target="_top" xlink:title=" ">
<polygon fill="none" stroke="black" points="410,-142.5 410,-172.5 544,-172.5 544,-142.5 410,-142.5"/>
<text text-anchor="start" x="418" y="-160.5" font-family="Helvetica,sans-Serif" font-size="10.00">yaclib::detail::AllCombinator</text>
<text text-anchor="middle" x="477" y="-149.5" font-family="Helvetica,sans-Serif" font-size="10.00">&lt; V, E, N, FutureValue &gt;</text>
</a>
</g>
</g>
<!-- Node4&#45;&gt;Node5 -->
<g id="edge4" class="edge">
<title>Node4&#45;&gt;Node5</title>
<path fill="none" stroke="midnightblue" d="M352.94,-120.95C374.98,-127.5 402.16,-135.57 425.37,-142.46"/>
<polygon fill="midnightblue" stroke="midnightblue" points="353.79,-117.56 343.21,-118.06 351.8,-124.27 353.79,-117.56"/>
</g>
<!-- Node6 -->
<g id="node6" class="node">
<title>Node6</title>
<g id="a_node6"><a xlink:href="classyaclib_1_1detail_1_1AnyCombinator.html" target="_top" xlink:title=" ">
<polygon fill="none" stroke="black" points="407,-93.5 407,-123.5 547,-123.5 547,-93.5 407,-93.5"/>
<text text-anchor="start" x="415" y="-111.5" font-family="Helvetica,sans-Serif" font-size="10.00">yaclib::detail::AnyCombinator</text>
<text text-anchor="middle" x="477" y="-100.5" font-family="Helvetica,sans-Serif" font-size="10.00">&lt; V, E, P &gt;</text>
</a>
</g>
</g>
<!-- Node4&#45;&gt;Node6 -->
<g id="edge5" class="edge">
<title>Node4&#45;&gt;Node6</title>
<path fill="none" stroke="midnightblue" d="M379.01,-108.5C388.24,-108.5 397.73,-108.5 406.98,-108.5"/>
<polygon fill="midnightblue" stroke="midnightblue" points="378.71,-105 368.71,-108.5 378.71,-112 378.71,-105"/>
</g>
<!-- Node7 -->
<g id="node7" class="node">
<title>Node7</title>
<g id="a_node7"><a xlink:href="classyaclib_1_1detail_1_1BaseCore.html" target="_top" xlink:title=" ">
<polygon fill="none" stroke="black" points="419,-55 419,-74 535,-74 535,-55 419,-55"/>
<text text-anchor="middle" x="477" y="-62" font-family="Helvetica,sans-Serif" font-size="10.00">yaclib::detail::BaseCore</text>
</a>
</g>
</g>
<!-- Node4&#45;&gt;Node7 -->
<g id="edge6" class="edge">
<title>Node4&#45;&gt;Node7</title>
<path fill="none" stroke="midnightblue" d="M356.58,-96.35C382.98,-89.3 415.74,-80.57 440.27,-74.03"/>
<polygon fill="midnightblue" stroke="midnightblue" points="355.56,-92.99 346.8,-98.95 357.37,-99.76 355.56,-92.99"/>
</g>
<!-- Node8 -->
<g id="node8" class="node">
<title>Node8</title>
<g id="a_node8"><a xlink:href="classyaclib_1_1detail_1_1ResultCore.html" target="_top" xlink:title=" ">
<polygon fill="none" stroke="black" points="815,-90.5 815,-120.5 937,-120.5 937,-90.5 815,-90.5"/>
<text text-anchor="start" x="823" y="-108.5" font-family="Helvetica,sans-Serif" font-size="10.00">yaclib::detail::ResultCore</text>
<text text-anchor="middle" x="876" y="-97.5" font-family="Helvetica,sans-Serif" font-size="10.00">&lt; void, E &gt;</text>
</a>
</g>
</g>
<!-- Node7&#45;&gt;Node8 -->
<g id="edge7" class="edge">
<title>Node7&#45;&gt;Node8</title>
<path fill="none" stroke="midnightblue" d="M521.48,-76.59C540.52,-81.4 563.22,-86.5 584,-89.5 663.25,-100.93 755.72,-104.34 814.78,-105.28"/>
<polygon fill="midnightblue" stroke="midnightblue" points="522.16,-73.15 511.6,-74.03 520.41,-79.92 522.16,-73.15"/>
</g>
<!-- Node12 -->
<g id="node12" class="node">
<title>Node12</title>
<g id="a_node12"><a xlink:href="classyaclib_1_1detail_1_1ResultCore.html" target="_top" xlink:title=" ">
<polygon fill="none" stroke="black" points="584,-49.5 584,-79.5 706,-79.5 706,-49.5 584,-49.5"/>
<text text-anchor="start" x="592" y="-67.5" font-family="Helvetica,sans-Serif" font-size="10.00">yaclib::detail::ResultCore</text>
<text text-anchor="middle" x="645" y="-56.5" font-family="Helvetica,sans-Serif" font-size="10.00">&lt; V, E &gt;</text>
</a>
</g>
</g>
<!-- Node7&#45;&gt;Node12 -->
<g id="edge11" class="edge">
<title>Node7&#45;&gt;Node12</title>
<path fill="none" stroke="midnightblue" d="M545.26,-64.5C558.06,-64.5 571.38,-64.5 583.94,-64.5"/>
<polygon fill="midnightblue" stroke="midnightblue" points="545.13,-61 535.13,-64.5 545.13,-68 545.13,-61"/>
</g>
<!-- Node16 -->
<g id="node16" class="node">
<title>Node16</title>
<g id="a_node16"><a xlink:href="classyaclib_1_1detail_1_1ResultCore_3_01void_00_01void_01_4.html" target="_top" xlink:title=" ">
<polygon fill="none" stroke="black" points="584,-0.5 584,-30.5 706,-30.5 706,-0.5 584,-0.5"/>
<text text-anchor="start" x="592" y="-18.5" font-family="Helvetica,sans-Serif" font-size="10.00">yaclib::detail::ResultCore</text>
<text text-anchor="middle" x="645" y="-7.5" font-family="Helvetica,sans-Serif" font-size="10.00">&lt; void, void &gt;</text>
</a>
</g>
</g>
<!-- Node7&#45;&gt;Node16 -->
<g id="edge17" class="edge">
<title>Node7&#45;&gt;Node16</title>
<path fill="none" stroke="midnightblue" d="M520.19,-52.05C542.36,-45.5 569.71,-37.43 593.06,-30.54"/>
<polygon fill="midnightblue" stroke="midnightblue" points="519,-48.75 510.4,-54.94 520.98,-55.46 519,-48.75"/>
</g>
<!-- Node9 -->
<g id="node9" class="node">
<title>Node9</title>
<g id="a_node9"><a xlink:href="structyaclib_1_1detail_1_1AtomicCounter.html" target="_top" xlink:title=" ">
<polygon fill="none" stroke="black" points="998,-85 998,-126 1136,-126 1136,-85 998,-85"/>
<text text-anchor="start" x="1006" y="-114" font-family="Helvetica,sans-Serif" font-size="10.00">yaclib::detail::AtomicCounter</text>
<text text-anchor="start" x="1006" y="-103" font-family="Helvetica,sans-Serif" font-size="10.00">&lt; ResultCore&lt; void, E &gt;,</text>
<text text-anchor="middle" x="1067" y="-92" font-family="Helvetica,sans-Serif" font-size="10.00"> PromiseTypeDeleter &gt;</text>
</a>
</g>
</g>
<!-- Node8&#45;&gt;Node9 -->
<g id="edge8" class="edge">
<title>Node8&#45;&gt;Node9</title>
<path fill="none" stroke="midnightblue" d="M947.21,-105.5C963.78,-105.5 981.41,-105.5 997.87,-105.5"/>
<polygon fill="midnightblue" stroke="midnightblue" points="947.06,-102 937.06,-105.5 947.06,-109 947.06,-102"/>
</g>
<!-- Node10 -->
<g id="node10" class="node">
<title>Node10</title>
<g id="a_node10"><a xlink:href="classyaclib_1_1detail_1_1BasePromiseType.html" target="_top" xlink:title=" ">
<polygon fill="none" stroke="black" points="1221,-85.5 1221,-115.5 1353,-115.5 1353,-85.5 1221,-85.5"/>
<text text-anchor="start" x="1229" y="-103.5" font-family="Helvetica,sans-Serif" font-size="10.00">yaclib::detail::BasePromise</text>
<text text-anchor="middle" x="1287" y="-92.5" font-family="Helvetica,sans-Serif" font-size="10.00">Type&lt; void, E &gt;</text>
</a>
</g>
</g>
<!-- Node9&#45;&gt;Node10 -->
<g id="edge9" class="edge">
<title>Node9&#45;&gt;Node10</title>
<path fill="none" stroke="midnightblue" d="M1146.37,-103.7C1170.72,-103.14 1197.3,-102.53 1220.67,-102"/>
<polygon fill="midnightblue" stroke="midnightblue" points="1146,-100.21 1136.08,-103.94 1146.16,-107.21 1146,-100.21"/>
</g>
<!-- Node11 -->
<g id="node11" class="node">
<title>Node11</title>
<g id="a_node11"><a xlink:href="classyaclib_1_1detail_1_1PromiseType_3_01void_00_01E_01_4.html" target="_top" xlink:title=" ">
<polygon fill="none" stroke="black" points="1390,-85.5 1390,-115.5 1521,-115.5 1521,-85.5 1390,-85.5"/>
<text text-anchor="start" x="1398" y="-103.5" font-family="Helvetica,sans-Serif" font-size="10.00">yaclib::detail::PromiseType</text>
<text text-anchor="middle" x="1455.5" y="-92.5" font-family="Helvetica,sans-Serif" font-size="10.00">&lt; void, E &gt;</text>
</a>
</g>
</g>
<!-- Node10&#45;&gt;Node11 -->
<g id="edge10" class="edge">
<title>Node10&#45;&gt;Node11</title>
<path fill="none" stroke="midnightblue" d="M1363.57,-100.5C1372.37,-100.5 1381.28,-100.5 1389.91,-100.5"/>
<polygon fill="midnightblue" stroke="midnightblue" points="1363.33,-97 1353.33,-100.5 1363.33,-104 1363.33,-97"/>
</g>
<!-- Node12&#45;&gt;Node8 -->
<g id="edge16" class="edge">
<title>Node12&#45;&gt;Node8</title>
<path fill="none" stroke="orange" stroke-dasharray="5,2" d="M716.31,-74.2C734.79,-76.97 754.68,-80.16 773,-83.5 786.63,-85.99 801.23,-88.95 814.99,-91.89"/>
<polygon fill="orange" stroke="orange" points="716.62,-70.71 706.21,-72.7 715.59,-77.63 716.62,-70.71"/>
<text text-anchor="middle" x="748.5" y="-86.5" font-family="Helvetica,sans-Serif" font-size="10.00"> &lt; void, E &gt;</text>
</g>
<!-- Node13 -->
<g id="node13" class="node">
<title>Node13</title>
<g id="a_node13"><a xlink:href="structyaclib_1_1detail_1_1AtomicCounter.html" target="_top" xlink:title=" ">
<polygon fill="none" stroke="black" points="791,-29 791,-70 961,-70 961,-29 791,-29"/>
<text text-anchor="start" x="799" y="-58" font-family="Helvetica,sans-Serif" font-size="10.00">yaclib::detail::AtomicCounter</text>
<text text-anchor="start" x="799" y="-47" font-family="Helvetica,sans-Serif" font-size="10.00">&lt; ResultCore&lt; V, E &gt;, PromiseType</text>
<text text-anchor="middle" x="876" y="-36" font-family="Helvetica,sans-Serif" font-size="10.00">Deleter &gt;</text>
</a>
</g>
</g>
<!-- Node12&#45;&gt;Node13 -->
<g id="edge12" class="edge">
<title>Node12&#45;&gt;Node13</title>
<path fill="none" stroke="midnightblue" d="M716.38,-59.89C739.87,-58.35 766.27,-56.62 790.7,-55.02"/>
<polygon fill="midnightblue" stroke="midnightblue" points="715.92,-56.41 706.17,-60.56 716.37,-63.4 715.92,-56.41"/>
</g>
<!-- Node14 -->
<g id="node14" class="node">
<title>Node14</title>
<g id="a_node14"><a xlink:href="classyaclib_1_1detail_1_1BasePromiseType.html" target="_top" xlink:title=" ">
<polygon fill="none" stroke="black" points="1001,-34.5 1001,-64.5 1133,-64.5 1133,-34.5 1001,-34.5"/>
<text text-anchor="start" x="1009" y="-52.5" font-family="Helvetica,sans-Serif" font-size="10.00">yaclib::detail::BasePromise</text>
<text text-anchor="middle" x="1067" y="-41.5" font-family="Helvetica,sans-Serif" font-size="10.00">Type&lt; V, E &gt;</text>
</a>
</g>
</g>
<!-- Node13&#45;&gt;Node14 -->
<g id="edge13" class="edge">
<title>Node13&#45;&gt;Node14</title>
<path fill="none" stroke="midnightblue" d="M971.28,-49.5C981.29,-49.5 991.32,-49.5 1000.89,-49.5"/>
<polygon fill="midnightblue" stroke="midnightblue" points="971.27,-46 961.27,-49.5 971.27,-53 971.27,-46"/>
</g>
<!-- Node14&#45;&gt;Node10 -->
<g id="edge15" class="edge">
<title>Node14&#45;&gt;Node10</title>
<path fill="none" stroke="orange" stroke-dasharray="5,2" d="M1142,-66.81C1167.93,-72.88 1196.81,-79.63 1221.85,-85.49"/>
<polygon fill="orange" stroke="orange" points="1142.76,-63.4 1132.23,-64.53 1141.17,-70.21 1142.76,-63.4"/>
<text text-anchor="middle" x="1178.5" y="-83.5" font-family="Helvetica,sans-Serif" font-size="10.00"> &lt; void, E &gt;</text>
</g>
<!-- Node15 -->
<g id="node15" class="node">
<title>Node15</title>
<g id="a_node15"><a xlink:href="classyaclib_1_1detail_1_1PromiseType.html" target="_top" xlink:title=" ">
<polygon fill="none" stroke="black" points="1221.5,-31.5 1221.5,-61.5 1352.5,-61.5 1352.5,-31.5 1221.5,-31.5"/>
<text text-anchor="start" x="1229.5" y="-49.5" font-family="Helvetica,sans-Serif" font-size="10.00">yaclib::detail::PromiseType</text>
<text text-anchor="middle" x="1287" y="-38.5" font-family="Helvetica,sans-Serif" font-size="10.00">&lt; V, E &gt;</text>
</a>
</g>
</g>
<!-- Node14&#45;&gt;Node15 -->
<g id="edge14" class="edge">
<title>Node14&#45;&gt;Node15</title>
<path fill="none" stroke="midnightblue" d="M1143.42,-48.46C1168.75,-48.11 1196.78,-47.73 1221.22,-47.39"/>
<polygon fill="midnightblue" stroke="midnightblue" points="1143.06,-44.97 1133.11,-48.6 1143.16,-51.97 1143.06,-44.97"/>
</g>
</g>
</svg>
        <g id="navigator" transform="translate(0 0)" fill="#404254">
                <rect fill="#f2f5e9" fill-opacity="0.5" stroke="#606060" stroke-width=".5" x="0" y="0" width="60" height="60"/>
                <use id="zoomplus" xlink:href="#zoomPlus" x="17" y="9" onmousedown="handleZoom(evt,'in')"/>
                <use id="zoomminus" xlink:href="#zoomMin" x="42" y="9" onmousedown="handleZoom(evt,'out')"/>
                <use id="reset" xlink:href="#resetDef" x="30" y="36" onmousedown="handleReset()"/>
                <g id="arrowUp" xlink:href="#dirArrow" transform="translate(30 24)" onmousedown="handlePan(0,-1)">
                  <use xlink:href="#rim" fill="#404040">
                        <set attributeName="fill" to="#808080" begin="arrowUp.mouseover" end="arrowUp.mouseout"/>
                  </use>
                  <path fill="none" stroke="white" stroke-width="1.5" d="M0,-3.0v7 M-2.5,-0.5L0,-3.0L2.5,-0.5"/>
                </g>
                <g id="arrowRight" xlink:href="#dirArrow" transform="rotate(90) translate(36 -43)" onmousedown="handlePan(1,0)">
                  <use xlink:href="#rim" fill="#404040">
                        <set attributeName="fill" to="#808080" begin="arrowRight.mouseover" end="arrowRight.mouseout"/>
                  </use>
                  <path fill="none" stroke="white" stroke-width="1.5" d="M0,-3.0v7 M-2.5,-0.5L0,-3.0L2.5,-0.5"/>
                </g>
                <g id="arrowDown" xlink:href="#dirArrow" transform="rotate(180) translate(-30 -48)" onmousedown="handlePan(0,1)">
                  <use xlink:href="#rim" fill="#404040">
                        <set attributeName="fill" to="#808080" begin="arrowDown.mouseover" end="arrowDown.mouseout"/>
                  </use>
                  <path fill="none" stroke="white" stroke-width="1.5" d="M0,-3.0v7 M-2.5,-0.5L0,-3.0L2.5,-0.5"/>
                </g>
                <g id="arrowLeft" xlink:href="#dirArrow" transform="rotate(270) translate(-36 17)" onmousedown="handlePan(-1,0)">
                  <use xlink:href="#rim" fill="#404040">
                        <set attributeName="fill" to="#808080" begin="arrowLeft.mouseover" end="arrowLeft.mouseout"/>
                  </use>
                  <path fill="none" stroke="white" stroke-width="1.5" d="M0,-3.0v7 M-2.5,-0.5L0,-3.0L2.5,-0.5"/>
                </g>
        </g>
        <svg viewBox="0 0 15 15" width="100%" height="30px" preserveAspectRatio="xMaxYMin meet">
         <g id="arrow_out" transform="scale(0.3 0.3)">
          <a xlink:href="structyaclib_1_1detail_1_1Node__inherit__graph_org.svg" target="_base">
           <rect id="button" ry="5" rx="5" y="6" x="6" height="38" width="38"
                fill="#f2f5e9" fill-opacity="0.5" stroke="#606060" stroke-width="1.0"/>
           <path id="arrow"
             d="M 11.500037,31.436501 C 11.940474,20.09759 22.043105,11.32322 32.158766,21.979434 L 37.068811,17.246167 C 37.068811,17.246167 37.088388,32 37.088388,32 L 22.160133,31.978069 C 22.160133,31.978069 26.997745,27.140456 26.997745,27.140456 C 18.528582,18.264221 13.291696,25.230495 11.500037,31.436501 z"
             style="fill:#404040;"/>
          </a>
         </g>
        </svg>
</svg>
