<?xml version="1.0" encoding="UTF-8" standalone="no"?>
<!DOCTYPE svg PUBLIC "-//W3C//DTD SVG 1.1//EN"
 "http://www.w3.org/Graphics/SVG/1.1/DTD/svg11.dtd">
<!-- Generated by graphviz version 3.0.0 (20220413.0106)
 -->
<!-- Title: yaclib::detail::AtomicCounter&lt; CounterBase, Deleter &gt; Pages: 1 -->
<svg width="1271pt" height="201pt"
 viewBox="0.00 0.00 1271.00 201.00" xmlns="http://www.w3.org/2000/svg" xmlns:xlink="http://www.w3.org/1999/xlink">
<g id="graph0" class="graph" transform="scale(1 1) rotate(0) translate(4 197)">
<title>yaclib::detail::AtomicCounter&lt; CounterBase, Deleter &gt;</title>
<!-- Node1 -->
<g id="node1" class="node">
<title>Node1</title>
<g id="a_node1"><a xlink:title=" ">
<polygon fill="#bfbfbf" stroke="black" points="110,-78.5 110,-108.5 248,-108.5 248,-78.5 110,-78.5"/>
<text text-anchor="start" x="118" y="-96.5" font-family="Helvetica,sans-Serif" font-size="10.00">yaclib::detail::AtomicCounter</text>
<text text-anchor="middle" x="179" y="-85.5" font-family="Helvetica,sans-Serif" font-size="10.00">&lt; CounterBase, Deleter &gt;</text>
</a>
</g>
</g>
<!-- Node3 -->
<g id="node3" class="node">
<title>Node3</title>
<g id="a_node3"><a xlink:href="structyaclib_1_1detail_1_1AtomicCounter.html" target="_top" xlink:title=" ">
<polygon fill="none" stroke="black" points="402,-147 402,-188 572,-188 572,-147 402,-147"/>
<text text-anchor="start" x="410" y="-176" font-family="Helvetica,sans-Serif" font-size="10.00">yaclib::detail::AtomicCounter</text>
<text text-anchor="start" x="410" y="-165" font-family="Helvetica,sans-Serif" font-size="10.00">&lt; ResultCore&lt; V, E &gt;, PromiseType</text>
<text text-anchor="middle" x="487" y="-154" font-family="Helvetica,sans-Serif" font-size="10.00">Deleter &gt;</text>
</a>
</g>
</g>
<!-- Node1&#45;&gt;Node3 -->
<g id="edge2" class="edge">
<title>Node1&#45;&gt;Node3</title>
<path fill="none" stroke="orange" stroke-dasharray="5,2" d="M208.78,-114.33C224.83,-124.87 245.65,-136.81 266,-143.5 309.53,-157.81 360.24,-164 402,-166.52"/>
<polygon fill="orange" stroke="orange" points="210.63,-111.35 200.38,-108.66 206.71,-117.16 210.63,-111.35"/>
<text text-anchor="start" x="270" y="-179.5" font-family="Helvetica,sans-Serif" font-size="10.00"> &lt; ResultCore&lt; V, E</text>
<text text-anchor="middle" x="325" y="-168.5" font-family="Helvetica,sans-Serif" font-size="10.00"> &gt;, PromiseTypeDeleter &gt;</text>
</g>
<!-- Node8 -->
<g id="node8" class="node">
<title>Node8</title>
<g id="a_node8"><a xlink:href="structyaclib_1_1detail_1_1AtomicCounter.html" target="_top" xlink:title=" ">
<polygon fill="none" stroke="black" points="590,-98 590,-139 728,-139 728,-98 590,-98"/>
<text text-anchor="start" x="598" y="-127" font-family="Helvetica,sans-Serif" font-size="10.00">yaclib::detail::AtomicCounter</text>
<text text-anchor="start" x="598" y="-116" font-family="Helvetica,sans-Serif" font-size="10.00">&lt; ResultCore&lt; void, E &gt;,</text>
<text text-anchor="middle" x="659" y="-105" font-family="Helvetica,sans-Serif" font-size="10.00"> PromiseTypeDeleter &gt;</text>
</a>
</g>
</g>
<!-- Node1&#45;&gt;Node8 -->
<g id="edge7" class="edge">
<title>Node1&#45;&gt;Node8</title>
<path fill="none" stroke="orange" stroke-dasharray="5,2" d="M258.35,-97.6C350.63,-102.42 502.4,-110.36 589.95,-114.94"/>
<polygon fill="orange" stroke="orange" points="258.4,-94.1 248.23,-97.07 258.04,-101.09 258.4,-94.1"/>
<text text-anchor="start" x="266" y="-118.5" font-family="Helvetica,sans-Serif" font-size="10.00"> &lt; ResultCore&lt; void,</text>
<text text-anchor="middle" x="325" y="-107.5" font-family="Helvetica,sans-Serif" font-size="10.00"> E &gt;, PromiseTypeDeleter &gt;</text>
</g>
<!-- Node9 -->
<g id="node9" class="node">
<title>Node9</title>
<g id="a_node9"><a xlink:href="structyaclib_1_1detail_1_1AtomicCounter.html" target="_top" xlink:title=" ">
<polygon fill="none" stroke="black" points="418,-49 418,-90 556,-90 556,-49 418,-49"/>
<text text-anchor="start" x="426" y="-78" font-family="Helvetica,sans-Serif" font-size="10.00">yaclib::detail::AtomicCounter</text>
<text text-anchor="start" x="426" y="-67" font-family="Helvetica,sans-Serif" font-size="10.00">&lt; detail::DefaultEvent, detail</text>
<text text-anchor="middle" x="487" y="-56" font-family="Helvetica,sans-Serif" font-size="10.00">::SetAllDeleter &gt;</text>
</a>
</g>
</g>
<!-- Node1&#45;&gt;Node9 -->
<g id="edge9" class="edge">
<title>Node1&#45;&gt;Node9</title>
<path fill="none" stroke="orange" stroke-dasharray="5,2" d="M251.4,-76.62C256.32,-75.8 261.22,-75.08 266,-74.5 316.64,-68.39 374.29,-67.29 417.87,-67.64"/>
<polygon fill="orange" stroke="orange" points="250.51,-73.22 241.29,-78.44 251.75,-80.11 250.51,-73.22"/>
<text text-anchor="start" x="276.5" y="-88.5" font-family="Helvetica,sans-Serif" font-size="10.00"> &lt; detail::DefaultEvent,</text>
<text text-anchor="middle" x="325" y="-77.5" font-family="Helvetica,sans-Serif" font-size="10.00"> detail::SetAllDeleter &gt;</text>
</g>
<!-- Node10 -->
<g id="node10" class="node">
<title>Node10</title>
<g id="a_node10"><a xlink:href="structyaclib_1_1detail_1_1AtomicCounter.html" target="_top" xlink:title=" ">
<polygon fill="none" stroke="black" points="418,-0.5 418,-30.5 556,-30.5 556,-0.5 418,-0.5"/>
<text text-anchor="start" x="426" y="-18.5" font-family="Helvetica,sans-Serif" font-size="10.00">yaclib::detail::AtomicCounter</text>
<text text-anchor="middle" x="487" y="-7.5" font-family="Helvetica,sans-Serif" font-size="10.00">&lt; Handle, HandleDeleter &gt;</text>
</a>
</g>
</g>
<!-- Node1&#45;&gt;Node10 -->
<g id="edge10" class="edge">
<title>Node1&#45;&gt;Node10</title>
<path fill="none" stroke="orange" stroke-dasharray="5,2" d="M216.47,-73.93C231.46,-66.59 249.21,-58.75 266,-53.5 315.75,-37.93 373.96,-28.24 417.99,-22.54"/>
<polygon fill="orange" stroke="orange" points="214.9,-70.81 207.53,-78.42 218.04,-77.06 214.9,-70.81"/>
<text text-anchor="middle" x="325" y="-56.5" font-family="Helvetica,sans-Serif" font-size="10.00"> &lt; Handle, HandleDeleter &gt;</text>
</g>
<!-- Node2 -->
<g id="node2" class="node">
<title>Node2</title>
<g id="a_node2"><a xlink:href="classCounterBase.html" target="_top" xlink:title=" ">
<polygon fill="none" stroke="black" points="0,-84 0,-103 73,-103 73,-84 0,-84"/>
<text text-anchor="middle" x="36.5" y="-91" font-family="Helvetica,sans-Serif" font-size="10.00">CounterBase</text>
</a>
</g>
</g>
<!-- Node2&#45;&gt;Node1 -->
<g id="edge1" class="edge">
<title>Node2&#45;&gt;Node1</title>
<path fill="none" stroke="midnightblue" d="M83.4,-93.5C91.92,-93.5 100.98,-93.5 109.99,-93.5"/>
<polygon fill="midnightblue" stroke="midnightblue" points="83.32,-90 73.32,-93.5 83.32,-97 83.32,-90"/>
</g>
<!-- Node4 -->
<g id="node4" class="node">
<title>Node4</title>
<g id="a_node4"><a xlink:href="classyaclib_1_1detail_1_1BasePromiseType.html" target="_top" xlink:title=" ">
<polygon fill="none" stroke="black" points="746,-152.5 746,-182.5 878,-182.5 878,-152.5 746,-152.5"/>
<text text-anchor="start" x="754" y="-170.5" font-family="Helvetica,sans-Serif" font-size="10.00">yaclib::detail::BasePromise</text>
<text text-anchor="middle" x="812" y="-159.5" font-family="Helvetica,sans-Serif" font-size="10.00">Type&lt; V, E &gt;</text>
</a>
</g>
</g>
<!-- Node3&#45;&gt;Node4 -->
<g id="edge3" class="edge">
<title>Node3&#45;&gt;Node4</title>
<path fill="none" stroke="midnightblue" d="M582.03,-167.5C634.57,-167.5 698.73,-167.5 745.75,-167.5"/>
<polygon fill="midnightblue" stroke="midnightblue" points="582.02,-164 572.02,-167.5 582.02,-171 582.02,-164"/>
</g>
<!-- Node5 -->
<g id="node5" class="node">
<title>Node5</title>
<g id="a_node5"><a xlink:href="classyaclib_1_1detail_1_1PromiseType.html" target="_top" xlink:title=" ">
<polygon fill="none" stroke="black" points="963.5,-162.5 963.5,-192.5 1094.5,-192.5 1094.5,-162.5 963.5,-162.5"/>
<text text-anchor="start" x="971.5" y="-180.5" font-family="Helvetica,sans-Serif" font-size="10.00">yaclib::detail::PromiseType</text>
<text text-anchor="middle" x="1029" y="-169.5" font-family="Helvetica,sans-Serif" font-size="10.00">&lt; V, E &gt;</text>
</a>
</g>
</g>
<!-- Node4&#45;&gt;Node5 -->
<g id="edge4" class="edge">
<title>Node4&#45;&gt;Node5</title>
<path fill="none" stroke="midnightblue" d="M888.38,-171.01C912.76,-172.14 939.58,-173.39 963.13,-174.48"/>
<polygon fill="midnightblue" stroke="midnightblue" points="888.24,-167.5 878.09,-170.53 887.92,-174.49 888.24,-167.5"/>
</g>
<!-- Node6 -->
<g id="node6" class="node">
<title>Node6</title>
<g id="a_node6"><a xlink:href="classyaclib_1_1detail_1_1BasePromiseType.html" target="_top" xlink:title=" ">
<polygon fill="none" stroke="black" points="963,-108.5 963,-138.5 1095,-138.5 1095,-108.5 963,-108.5"/>
<text text-anchor="start" x="971" y="-126.5" font-family="Helvetica,sans-Serif" font-size="10.00">yaclib::detail::BasePromise</text>
<text text-anchor="middle" x="1029" y="-115.5" font-family="Helvetica,sans-Serif" font-size="10.00">Type&lt; void, E &gt;</text>
</a>
</g>
</g>
<!-- Node4&#45;&gt;Node6 -->
<g id="edge5" class="edge">
<title>Node4&#45;&gt;Node6</title>
<path fill="none" stroke="orange" stroke-dasharray="5,2" d="M888,-152.15C912.36,-147.17 939.17,-141.68 962.76,-136.85"/>
<polygon fill="orange" stroke="orange" points="887.19,-148.75 878.09,-154.18 888.59,-155.6 887.19,-148.75"/>
<text text-anchor="middle" x="920.5" y="-152.5" font-family="Helvetica,sans-Serif" font-size="10.00"> &lt; void, E &gt;</text>
</g>
<!-- Node7 -->
<g id="node7" class="node">
<title>Node7</title>
<g id="a_node7"><a xlink:href="classyaclib_1_1detail_1_1PromiseType_3_01void_00_01E_01_4.html" target="_top" xlink:title=" ">
<polygon fill="none" stroke="black" points="1132,-108.5 1132,-138.5 1263,-138.5 1263,-108.5 1132,-108.5"/>
<text text-anchor="start" x="1140" y="-126.5" font-family="Helvetica,sans-Serif" font-size="10.00">yaclib::detail::PromiseType</text>
<text text-anchor="middle" x="1197.5" y="-115.5" font-family="Helvetica,sans-Serif" font-size="10.00">&lt; void, E &gt;</text>
</a>
</g>
</g>
<!-- Node6&#45;&gt;Node7 -->
<g id="edge6" class="edge">
<title>Node6&#45;&gt;Node7</title>
<path fill="none" stroke="midnightblue" d="M1105.57,-123.5C1114.37,-123.5 1123.28,-123.5 1131.91,-123.5"/>
<polygon fill="midnightblue" stroke="midnightblue" points="1105.33,-120 1095.33,-123.5 1105.33,-127 1105.33,-120"/>
</g>
<!-- Node8&#45;&gt;Node6 -->
<g id="edge8" class="edge">
<title>Node8&#45;&gt;Node6</title>
<path fill="none" stroke="midnightblue" d="M738.41,-119.57C805.21,-120.47 900.08,-121.76 962.79,-122.61"/>
<polygon fill="midnightblue" stroke="midnightblue" points="738.4,-116.07 728.36,-119.43 738.31,-123.06 738.4,-116.07"/>
</g>
</g>
</svg>
