<?xml version="1.0" encoding="UTF-8" standalone="no"?>
<!DOCTYPE svg PUBLIC "-//W3C//DTD SVG 1.1//EN"
 "http://www.w3.org/Graphics/SVG/1.1/DTD/svg11.dtd">
<!-- Generated by graphviz version 3.0.0 (20220413.0106)
 -->
<!-- Title: include/yaclib/executor/submit.hpp Pages: 1 -->
<svg width="476pt" height="408pt"
 viewBox="0.00 0.00 476.19 408.00" xmlns="http://www.w3.org/2000/svg" xmlns:xlink="http://www.w3.org/1999/xlink">
<g id="graph0" class="graph" transform="scale(1 1) rotate(0) translate(4 404)">
<title>include/yaclib/executor/submit.hpp</title>
<!-- Node1 -->
<g id="node1" class="node">
<title>Node1</title>
<g id="a_node1"><a xlink:title=" ">
<polygon fill="#bfbfbf" stroke="black" points="335.5,-369.5 335.5,-399.5 450.5,-399.5 450.5,-369.5 335.5,-369.5"/>
<text text-anchor="start" x="343.5" y="-387.5" font-family="Helvetica,sans-Serif" font-size="10.00">include/yaclib/executor</text>
<text text-anchor="middle" x="393" y="-376.5" font-family="Helvetica,sans-Serif" font-size="10.00">/submit.hpp</text>
</a>
</g>
</g>
<!-- Node2 -->
<g id="node2" class="node">
<title>Node2</title>
<g id="a_node2"><a xlink:href="unique__job_8hpp.html" target="_top" xlink:title=" ">
<polygon fill="none" stroke="black" points="339.5,-302.5 339.5,-332.5 446.5,-332.5 446.5,-302.5 339.5,-302.5"/>
<text text-anchor="start" x="347.5" y="-320.5" font-family="Helvetica,sans-Serif" font-size="10.00">yaclib/executor/detail</text>
<text text-anchor="middle" x="393" y="-309.5" font-family="Helvetica,sans-Serif" font-size="10.00">/unique_job.hpp</text>
</a>
</g>
</g>
<!-- Node1&#45;&gt;Node2 -->
<g id="edge1" class="edge">
<title>Node1&#45;&gt;Node2</title>
<path fill="none" stroke="midnightblue" d="M393,-369.4C393,-361.64 393,-351.81 393,-342.86"/>
<polygon fill="midnightblue" stroke="midnightblue" points="396.5,-342.58 393,-332.58 389.5,-342.58 396.5,-342.58"/>
</g>
<!-- Node8 -->
<g id="node8" class="node">
<title>Node8</title>
<g id="a_node8"><a xlink:title=" ">
<polygon fill="none" stroke="#bfbfbf" points="396.5,-118 396.5,-137 435.5,-137 435.5,-118 396.5,-118"/>
<text text-anchor="middle" x="416" y="-125" font-family="Helvetica,sans-Serif" font-size="10.00">utility</text>
</a>
</g>
</g>
<!-- Node1&#45;&gt;Node8 -->
<g id="edge20" class="edge">
<title>Node1&#45;&gt;Node8</title>
<path fill="none" stroke="midnightblue" d="M420.3,-369.36C433.7,-360.81 448.54,-348.54 456,-333 468.05,-307.89 479.53,-284.19 446,-179 442.19,-167.05 435.12,-154.92 428.79,-145.55"/>
<polygon fill="midnightblue" stroke="midnightblue" points="431.51,-143.33 422.87,-137.2 425.8,-147.39 431.51,-143.33"/>
</g>
<!-- Node10 -->
<g id="node10" class="node">
<title>Node10</title>
<g id="a_node10"><a xlink:href="executor_8hpp.html" target="_top" xlink:title=" ">
<polygon fill="none" stroke="black" points="182.5,-308 182.5,-327 321.5,-327 321.5,-308 182.5,-308"/>
<text text-anchor="middle" x="252" y="-315" font-family="Helvetica,sans-Serif" font-size="10.00">yaclib/executor/executor.hpp</text>
</a>
</g>
</g>
<!-- Node1&#45;&gt;Node10 -->
<g id="edge12" class="edge">
<title>Node1&#45;&gt;Node10</title>
<path fill="none" stroke="midnightblue" d="M362.41,-369.4C337.77,-358.04 303.45,-342.22 279.64,-331.24"/>
<polygon fill="midnightblue" stroke="midnightblue" points="281,-328.02 270.45,-327.01 278.07,-334.37 281,-328.02"/>
</g>
<!-- Node3 -->
<g id="node3" class="node">
<title>Node3</title>
<g id="a_node3"><a xlink:href="job_8hpp.html" target="_top" xlink:title=" ">
<polygon fill="none" stroke="black" points="199.5,-246.5 199.5,-265.5 314.5,-265.5 314.5,-246.5 199.5,-246.5"/>
<text text-anchor="middle" x="257" y="-253.5" font-family="Helvetica,sans-Serif" font-size="10.00">yaclib/executor/job.hpp</text>
</a>
</g>
</g>
<!-- Node2&#45;&gt;Node3 -->
<g id="edge2" class="edge">
<title>Node2&#45;&gt;Node3</title>
<path fill="none" stroke="midnightblue" d="M360.77,-302.4C338.16,-292.51 308.16,-279.38 286.24,-269.79"/>
<polygon fill="midnightblue" stroke="midnightblue" points="287.35,-266.46 276.79,-265.66 284.55,-272.87 287.35,-266.46"/>
</g>
<!-- Node2&#45;&gt;Node8 -->
<g id="edge11" class="edge">
<title>Node2&#45;&gt;Node8</title>
<path fill="none" stroke="midnightblue" d="M401.3,-302.31C414.75,-277.65 439.13,-225.1 432,-179 430.3,-168.04 426.66,-156.2 423.27,-146.74"/>
<polygon fill="midnightblue" stroke="midnightblue" points="426.49,-145.36 419.68,-137.24 419.94,-147.83 426.49,-145.36"/>
</g>
<!-- Node9 -->
<g id="node9" class="node">
<title>Node9</title>
<g id="a_node9"><a xlink:href="safe__call_8hpp.html" target="_top" xlink:title=" ">
<polygon fill="none" stroke="black" points="339.5,-179.5 339.5,-209.5 422.5,-209.5 422.5,-179.5 339.5,-179.5"/>
<text text-anchor="start" x="347.5" y="-197.5" font-family="Helvetica,sans-Serif" font-size="10.00">yaclib/util/detail</text>
<text text-anchor="middle" x="381" y="-186.5" font-family="Helvetica,sans-Serif" font-size="10.00">/safe_call.hpp</text>
</a>
</g>
</g>
<!-- Node2&#45;&gt;Node9 -->
<g id="edge8" class="edge">
<title>Node2&#45;&gt;Node9</title>
<path fill="none" stroke="midnightblue" d="M391.58,-302.14C389.56,-281.86 385.86,-244.53 383.42,-219.86"/>
<polygon fill="midnightblue" stroke="midnightblue" points="386.89,-219.44 382.42,-209.84 379.93,-220.13 386.89,-219.44"/>
</g>
<!-- Node4 -->
<g id="node4" class="node">
<title>Node4</title>
<g id="a_node4"><a xlink:href="node_8hpp.html" target="_top" xlink:title=" ">
<polygon fill="none" stroke="black" points="123.5,-179.5 123.5,-209.5 206.5,-209.5 206.5,-179.5 123.5,-179.5"/>
<text text-anchor="start" x="131.5" y="-197.5" font-family="Helvetica,sans-Serif" font-size="10.00">yaclib/util/detail</text>
<text text-anchor="middle" x="165" y="-186.5" font-family="Helvetica,sans-Serif" font-size="10.00">/node.hpp</text>
</a>
</g>
</g>
<!-- Node3&#45;&gt;Node4 -->
<g id="edge3" class="edge">
<title>Node3&#45;&gt;Node4</title>
<path fill="none" stroke="midnightblue" d="M243.82,-246.48C231.24,-238.34 211.84,-225.79 195.43,-215.18"/>
<polygon fill="midnightblue" stroke="midnightblue" points="196.98,-212.01 186.68,-209.52 193.18,-217.89 196.98,-212.01"/>
</g>
<!-- Node5 -->
<g id="node5" class="node">
<title>Node5</title>
<g id="a_node5"><a xlink:href="func_8hpp.html" target="_top" xlink:title=" ">
<polygon fill="none" stroke="black" points="224.5,-185 224.5,-204 321.5,-204 321.5,-185 224.5,-185"/>
<text text-anchor="middle" x="273" y="-192" font-family="Helvetica,sans-Serif" font-size="10.00">yaclib/util/func.hpp</text>
</a>
</g>
</g>
<!-- Node3&#45;&gt;Node5 -->
<g id="edge4" class="edge">
<title>Node3&#45;&gt;Node5</title>
<path fill="none" stroke="midnightblue" d="M259.29,-246.48C261.57,-237.99 265.15,-224.7 268.07,-213.82"/>
<polygon fill="midnightblue" stroke="midnightblue" points="271.49,-214.57 270.71,-204.01 264.74,-212.76 271.49,-214.57"/>
</g>
<!-- Node6 -->
<g id="node6" class="node">
<title>Node6</title>
<g id="a_node6"><a xlink:href="ref_8hpp.html" target="_top" xlink:title=" ">
<polygon fill="none" stroke="black" points="134.5,-118 134.5,-137 223.5,-137 223.5,-118 134.5,-118"/>
<text text-anchor="middle" x="179" y="-125" font-family="Helvetica,sans-Serif" font-size="10.00">yaclib/util/ref.hpp</text>
</a>
</g>
</g>
<!-- Node5&#45;&gt;Node6 -->
<g id="edge5" class="edge">
<title>Node5&#45;&gt;Node6</title>
<path fill="none" stroke="midnightblue" d="M260.32,-184.73C244.82,-174.01 218.36,-155.72 199.84,-142.91"/>
<polygon fill="midnightblue" stroke="midnightblue" points="201.69,-139.94 191.48,-137.13 197.71,-145.69 201.69,-139.94"/>
</g>
<!-- Node7 -->
<g id="node7" class="node">
<title>Node7</title>
<g id="a_node7"><a xlink:title=" ">
<polygon fill="none" stroke="#bfbfbf" points="242,-118 242,-137 304,-137 304,-118 242,-118"/>
<text text-anchor="middle" x="273" y="-125" font-family="Helvetica,sans-Serif" font-size="10.00">type_traits</text>
</a>
</g>
</g>
<!-- Node5&#45;&gt;Node7 -->
<g id="edge6" class="edge">
<title>Node5&#45;&gt;Node7</title>
<path fill="none" stroke="midnightblue" d="M273,-184.73C273,-175.18 273,-159.62 273,-147.28"/>
<polygon fill="midnightblue" stroke="midnightblue" points="276.5,-147.13 273,-137.13 269.5,-147.13 276.5,-147.13"/>
</g>
<!-- Node5&#45;&gt;Node8 -->
<g id="edge7" class="edge">
<title>Node5&#45;&gt;Node8</title>
<path fill="none" stroke="midnightblue" d="M291.99,-184.87C316.46,-173.75 359.2,-154.32 387.56,-141.43"/>
<polygon fill="midnightblue" stroke="midnightblue" points="389.28,-144.49 396.93,-137.17 386.38,-138.12 389.28,-144.49"/>
</g>
<!-- Node9&#45;&gt;Node7 -->
<g id="edge9" class="edge">
<title>Node9&#45;&gt;Node7</title>
<path fill="none" stroke="midnightblue" d="M357.57,-179.4C339.29,-168.39 314.04,-153.2 295.9,-142.28"/>
<polygon fill="midnightblue" stroke="midnightblue" points="297.51,-139.16 287.13,-137.01 293.9,-145.16 297.51,-139.16"/>
</g>
<!-- Node9&#45;&gt;Node8 -->
<g id="edge10" class="edge">
<title>Node9&#45;&gt;Node8</title>
<path fill="none" stroke="midnightblue" d="M388.59,-179.4C393.84,-169.66 400.84,-156.65 406.46,-146.21"/>
<polygon fill="midnightblue" stroke="midnightblue" points="409.66,-147.66 411.32,-137.19 403.5,-144.34 409.66,-147.66"/>
</g>
<!-- Node10&#45;&gt;Node3 -->
<g id="edge13" class="edge">
<title>Node10&#45;&gt;Node3</title>
<path fill="none" stroke="midnightblue" d="M252.72,-307.98C253.42,-299.58 254.52,-286.48 255.43,-275.66"/>
<polygon fill="midnightblue" stroke="midnightblue" points="258.94,-275.77 256.28,-265.51 251.96,-275.18 258.94,-275.77"/>
</g>
<!-- Node11 -->
<g id="node11" class="node">
<title>Node11</title>
<g id="a_node11"><a xlink:href="intrusive__ptr_8hpp.html" target="_top" xlink:title=" ">
<polygon fill="none" stroke="black" points="8.5,-179.5 8.5,-209.5 105.5,-209.5 105.5,-179.5 8.5,-179.5"/>
<text text-anchor="start" x="16.5" y="-197.5" font-family="Helvetica,sans-Serif" font-size="10.00">yaclib/util/intrusive</text>
<text text-anchor="middle" x="57" y="-186.5" font-family="Helvetica,sans-Serif" font-size="10.00">_ptr.hpp</text>
</a>
</g>
</g>
<!-- Node10&#45;&gt;Node11 -->
<g id="edge14" class="edge">
<title>Node10&#45;&gt;Node11</title>
<path fill="none" stroke="midnightblue" d="M238.29,-307.99C207.37,-288.81 131.57,-241.77 88.41,-214.99"/>
<polygon fill="midnightblue" stroke="midnightblue" points="90.06,-211.9 79.72,-209.6 86.37,-217.85 90.06,-211.9"/>
</g>
<!-- Node11&#45;&gt;Node6 -->
<g id="edge15" class="edge">
<title>Node11&#45;&gt;Node6</title>
<path fill="none" stroke="midnightblue" d="M83.47,-179.4C104.4,-168.24 133.43,-152.78 153.97,-141.83"/>
<polygon fill="midnightblue" stroke="midnightblue" points="155.85,-144.8 163.03,-137.01 152.56,-138.62 155.85,-144.8"/>
</g>
<!-- Node11&#45;&gt;Node7 -->
<g id="edge16" class="edge">
<title>Node11&#45;&gt;Node7</title>
<path fill="none" stroke="midnightblue" d="M105.51,-180.33C140.77,-170.56 189.54,-156.62 232,-143 234.61,-142.16 237.3,-141.27 239.99,-140.36"/>
<polygon fill="midnightblue" stroke="midnightblue" points="241.36,-143.59 249.66,-137.02 239.07,-136.98 241.36,-143.59"/>
</g>
<!-- Node12 -->
<g id="node12" class="node">
<title>Node12</title>
<g id="a_node12"><a xlink:href="intrusive__ptr__impl_8hpp.html" target="_top" xlink:title=" ">
<polygon fill="none" stroke="black" points="0,-112.5 0,-142.5 114,-142.5 114,-112.5 0,-112.5"/>
<text text-anchor="start" x="8" y="-130.5" font-family="Helvetica,sans-Serif" font-size="10.00">yaclib/util/detail</text>
<text text-anchor="middle" x="57" y="-119.5" font-family="Helvetica,sans-Serif" font-size="10.00">/intrusive_ptr_impl.hpp</text>
</a>
</g>
</g>
<!-- Node11&#45;&gt;Node12 -->
<g id="edge17" class="edge">
<title>Node11&#45;&gt;Node12</title>
<path fill="none" stroke="midnightblue" d="M57,-179.4C57,-171.64 57,-161.81 57,-152.86"/>
<polygon fill="midnightblue" stroke="midnightblue" points="60.5,-152.58 57,-142.58 53.5,-152.58 60.5,-152.58"/>
</g>
<!-- Node13 -->
<g id="node13" class="node">
<title>Node13</title>
<g id="a_node13"><a xlink:href="log_8hpp.html" target="_top" xlink:title=" ">
<polygon fill="none" stroke="black" points="19.5,-56.5 19.5,-75.5 94.5,-75.5 94.5,-56.5 19.5,-56.5"/>
<text text-anchor="middle" x="57" y="-63.5" font-family="Helvetica,sans-Serif" font-size="10.00">yaclib/log.hpp</text>
</a>
</g>
</g>
<!-- Node12&#45;&gt;Node13 -->
<g id="edge18" class="edge">
<title>Node12&#45;&gt;Node13</title>
<path fill="none" stroke="midnightblue" d="M57,-112.4C57,-104.47 57,-94.46 57,-85.86"/>
<polygon fill="midnightblue" stroke="midnightblue" points="60.5,-85.66 57,-75.66 53.5,-85.66 60.5,-85.66"/>
</g>
<!-- Node14 -->
<g id="node14" class="node">
<title>Node14</title>
<g id="a_node14"><a xlink:title=" ">
<polygon fill="none" stroke="#bfbfbf" points="24,-0.5 24,-19.5 90,-19.5 90,-0.5 24,-0.5"/>
<text text-anchor="middle" x="57" y="-7.5" font-family="Helvetica,sans-Serif" font-size="10.00">string_view</text>
</a>
</g>
</g>
<!-- Node13&#45;&gt;Node14 -->
<g id="edge19" class="edge">
<title>Node13&#45;&gt;Node14</title>
<path fill="none" stroke="midnightblue" d="M57,-56.08C57,-49.01 57,-38.86 57,-29.99"/>
<polygon fill="midnightblue" stroke="midnightblue" points="60.5,-29.75 57,-19.75 53.5,-29.75 60.5,-29.75"/>
</g>
</g>
</svg>
