<?xml version="1.0" encoding="UTF-8" standalone="no"?>
<!DOCTYPE svg PUBLIC "-//W3C//DTD SVG 1.1//EN"
 "http://www.w3.org/Graphics/SVG/1.1/DTD/svg11.dtd">
<!-- Generated by graphviz version 3.0.0 (20220413.0106)
 -->
<!-- Title: src/executor/thread_factory.cpp Pages: 1 -->
<!--zoomable 486 -->
<svg id="main" version="1.1" xmlns="http://www.w3.org/2000/svg" xmlns:xlink="http://www.w3.org/1999/xlink" xml:space="preserve" onload="init(evt)">
<style type="text/css"><![CDATA[
.edge:hover path { stroke: red; }
.edge:hover polygon { stroke: red; fill: red; }
]]></style>
<script type="text/javascript"><![CDATA[
var edges = document.getElementsByTagName('g');
if (edges && edges.length) {
  for (var i=0;i<edges.length;i++) {
    if (edges[i].id.substr(0,4)=='edge') {
      edges[i].setAttribute('class','edge');
    }
  }
}
]]></script>
        <defs>
                <circle id="rim" cx="0" cy="0" r="7"/>
                <circle id="rim2" cx="0" cy="0" r="3.5"/>
                <g id="zoomPlus">
                        <use xlink:href="#rim" fill="#404040">
                                <set attributeName="fill" to="#808080" begin="zoomplus.mouseover" end="zoomplus.mouseout"/>
                        </use>
                        <path d="M-4,0h8M0,-4v8" fill="none" stroke="white" stroke-width="1.5" pointer-events="none"/>
                </g>
                <g id="zoomMin">
                        <use xlink:href="#rim" fill="#404040">
                                <set attributeName="fill" to="#808080" begin="zoomminus.mouseover" end="zoomminus.mouseout"/>
                        </use>
                        <path d="M-4,0h8" fill="none" stroke="white" stroke-width="1.5" pointer-events="none"/>
                </g>
                <g id="dirArrow">
                        <path fill="none" stroke="white" stroke-width="1.5" d="M0,-3.0v7 M-2.5,-0.5L0,-3.0L2.5,-0.5"/>
                </g>
               <g id="resetDef">
                       <use xlink:href="#rim2" fill="#404040">
                               <set attributeName="fill" to="#808080" begin="reset.mouseover" end="reset.mouseout"/>
                       </use>
               </g>
        </defs>

<script type="text/javascript">
var viewWidth = 1360;
var viewHeight = 486;
var sectionId = 'dynsection-0';
</script>
<script xlink:href="svgpan.js"/>
<svg id="graph" class="graph">
<g id="viewport">
<title>src/executor/thread_factory.cpp</title>
<!-- Node1 -->
<g id="node1" class="node">
<title>Node1</title>
<g id="a_node1"><a xlink:title=" ">
<polygon fill="#bfbfbf" stroke="black" points="733.87,-447.5 733.87,-477.5 833.87,-477.5 833.87,-447.5 733.87,-447.5"/>
<text text-anchor="start" x="741.87" y="-465.5" font-family="Helvetica,sans-Serif" font-size="10.00">src/executor/thread</text>
<text text-anchor="middle" x="783.87" y="-454.5" font-family="Helvetica,sans-Serif" font-size="10.00">_factory.cpp</text>
</a>
</g>
</g>
<!-- Node2 -->
<g id="node2" class="node">
<title>Node2</title>
<g id="a_node2"><a xlink:href="intrusive__list_8hpp.html" target="_top" xlink:title=" ">
<polygon fill="none" stroke="black" points="30.37,-319 30.37,-338 135.37,-338 135.37,-319 30.37,-319"/>
<text text-anchor="middle" x="82.87" y="-326" font-family="Helvetica,sans-Serif" font-size="10.00">util/intrusive_list.hpp</text>
</a>
</g>
</g>
<!-- Node1&#45;&gt;Node2 -->
<g id="edge1" class="edge">
<title>Node1&#45;&gt;Node2</title>
<path fill="none" stroke="midnightblue" d="M733.49,-460.96C608.11,-459.02 285.05,-450.25 185.87,-411 149.5,-396.61 115.64,-364.92 97.24,-345.57"/>
<polygon fill="midnightblue" stroke="midnightblue" points="99.7,-343.08 90.34,-338.12 94.57,-347.84 99.7,-343.08"/>
</g>
<!-- Node4 -->
<g id="node4" class="node">
<title>Node4</title>
<g id="a_node4"><a xlink:href="thread__factory_8hpp.html" target="_top" xlink:title=" ">
<polygon fill="none" stroke="black" points="195.37,-380.5 195.37,-410.5 306.37,-410.5 306.37,-380.5 195.37,-380.5"/>
<text text-anchor="start" x="203.37" y="-398.5" font-family="Helvetica,sans-Serif" font-size="10.00">yaclib/executor/thread</text>
<text text-anchor="middle" x="250.87" y="-387.5" font-family="Helvetica,sans-Serif" font-size="10.00">_factory.hpp</text>
</a>
</g>
</g>
<!-- Node1&#45;&gt;Node4 -->
<g id="edge3" class="edge">
<title>Node1&#45;&gt;Node4</title>
<path fill="none" stroke="midnightblue" d="M733.76,-457.55C648.74,-450.52 470.94,-434.32 321.87,-411 320.16,-410.73 318.43,-410.45 316.68,-410.16"/>
<polygon fill="midnightblue" stroke="midnightblue" points="317.04,-406.67 306.59,-408.39 315.83,-413.57 317.04,-406.67"/>
</g>
<!-- Node6 -->
<g id="node6" class="node">
<title>Node6</title>
<g id="a_node6"><a xlink:href="func_8hpp.html" target="_top" xlink:title=" ">
<polygon fill="none" stroke="black" points="201.37,-252 201.37,-271 298.37,-271 298.37,-252 201.37,-252"/>
<text text-anchor="middle" x="249.87" y="-259" font-family="Helvetica,sans-Serif" font-size="10.00">yaclib/util/func.hpp</text>
</a>
</g>
</g>
<!-- Node1&#45;&gt;Node6 -->
<g id="edge35" class="edge">
<title>Node1&#45;&gt;Node6</title>
<path fill="none" stroke="midnightblue" d="M733.65,-455.04C650.73,-442.82 481.77,-411.28 354.87,-344 335.3,-333.63 333.33,-326.62 315.87,-313 300.34,-300.89 282.6,-287.34 269.43,-277.32"/>
<polygon fill="midnightblue" stroke="midnightblue" points="271.21,-274.27 261.13,-271.02 266.98,-279.85 271.21,-274.27"/>
</g>
<!-- Node9 -->
<g id="node9" class="node">
<title>Node9</title>
<g id="a_node9"><a xlink:title=" ">
<polygon fill="none" stroke="#bfbfbf" points="113.37,-118 113.37,-137 152.37,-137 152.37,-118 113.37,-118"/>
<text text-anchor="middle" x="132.87" y="-125" font-family="Helvetica,sans-Serif" font-size="10.00">utility</text>
</a>
</g>
</g>
<!-- Node1&#45;&gt;Node9 -->
<g id="edge43" class="edge">
<title>Node1&#45;&gt;Node9</title>
<path fill="none" stroke="midnightblue" d="M733.82,-460.54C601.61,-457.54 245.56,-446.33 133.87,-411 78.2,-393.39 49.77,-394.73 20.87,-344 14.05,-332.03 20.25,-326.76 20.87,-313 22.2,-283.13 14.9,-273.4 26.87,-246 45.94,-202.31 87.87,-163.86 112.9,-143.62"/>
<polygon fill="midnightblue" stroke="midnightblue" points="115.3,-146.18 120.98,-137.24 110.96,-140.69 115.3,-146.18"/>
</g>
<!-- Node12 -->
<g id="node12" class="node">
<title>Node12</title>
<g id="a_node12"><a xlink:href="helper_8hpp.html" target="_top" xlink:title=" ">
<polygon fill="none" stroke="black" points="549.87,-252 549.87,-271 653.87,-271 653.87,-252 549.87,-252"/>
<text text-anchor="middle" x="601.87" y="-259" font-family="Helvetica,sans-Serif" font-size="10.00">yaclib/util/helper.hpp</text>
</a>
</g>
</g>
<!-- Node1&#45;&gt;Node12 -->
<g id="edge36" class="edge">
<title>Node1&#45;&gt;Node12</title>
<path fill="none" stroke="midnightblue" d="M767.5,-447.41C756.3,-437.54 741.29,-423.87 728.87,-411 684.86,-365.41 637.46,-307.29 615.05,-279.2"/>
<polygon fill="midnightblue" stroke="midnightblue" points="617.64,-276.84 608.68,-271.19 612.16,-281.19 617.64,-276.84"/>
</g>
<!-- Node15 -->
<g id="node15" class="node">
<title>Node15</title>
<g id="a_node15"><a xlink:title=" ">
<polygon fill="none" stroke="#bfbfbf" points="706.37,-118 706.37,-137 755.37,-137 755.37,-118 706.37,-118"/>
<text text-anchor="middle" x="730.87" y="-125" font-family="Helvetica,sans-Serif" font-size="10.00">cstddef</text>
</a>
</g>
</g>
<!-- Node1&#45;&gt;Node15 -->
<g id="edge38" class="edge">
<title>Node1&#45;&gt;Node15</title>
<path fill="none" stroke="midnightblue" d="M776.35,-447.3C764.51,-423.59 742.87,-374.13 742.87,-329.5 742.87,-329.5 742.87,-329.5 742.87,-260.5 742.87,-219.99 737.19,-172.78 733.65,-147.23"/>
<polygon fill="midnightblue" stroke="midnightblue" points="737.08,-146.53 732.2,-137.12 730.15,-147.52 737.08,-146.53"/>
</g>
<!-- Node17 -->
<g id="node17" class="node">
<title>Node17</title>
<g id="a_node17"><a xlink:href="intrusive__ptr_8hpp.html" target="_top" xlink:title=" ">
<polygon fill="none" stroke="black" points="434.37,-179.5 434.37,-209.5 531.37,-209.5 531.37,-179.5 434.37,-179.5"/>
<text text-anchor="start" x="442.37" y="-197.5" font-family="Helvetica,sans-Serif" font-size="10.00">yaclib/util/intrusive</text>
<text text-anchor="middle" x="482.87" y="-186.5" font-family="Helvetica,sans-Serif" font-size="10.00">_ptr.hpp</text>
</a>
</g>
</g>
<!-- Node1&#45;&gt;Node17 -->
<g id="edge37" class="edge">
<title>Node1&#45;&gt;Node17</title>
<path fill="none" stroke="midnightblue" d="M756.08,-447.33C738.33,-437.85 715.12,-424.66 695.87,-411 621.59,-358.32 602.15,-344.36 540.87,-277 524.1,-258.57 507.92,-235.21 496.92,-218.23"/>
<polygon fill="midnightblue" stroke="midnightblue" points="499.7,-216.08 491.38,-209.52 493.8,-219.84 499.7,-216.08"/>
</g>
<!-- Node19 -->
<g id="node19" class="node">
<title>Node19</title>
<g id="a_node19"><a xlink:href="log_8hpp.html" target="_top" xlink:title=" ">
<polygon fill="none" stroke="black" points="547.37,-56.5 547.37,-75.5 622.37,-75.5 622.37,-56.5 547.37,-56.5"/>
<text text-anchor="middle" x="584.87" y="-63.5" font-family="Helvetica,sans-Serif" font-size="10.00">yaclib/log.hpp</text>
</a>
</g>
</g>
<!-- Node1&#45;&gt;Node19 -->
<g id="edge34" class="edge">
<title>Node1&#45;&gt;Node19</title>
<path fill="none" stroke="midnightblue" d="M783.87,-447.24C783.87,-423.03 783.87,-372.35 783.87,-329.5 783.87,-329.5 783.87,-329.5 783.87,-193.5 783.87,-156.31 790.96,-138.51 764.87,-112 746.55,-93.39 679.26,-80.31 632.36,-73.21"/>
<polygon fill="midnightblue" stroke="midnightblue" points="632.79,-69.74 622.39,-71.75 631.77,-76.66 632.79,-69.74"/>
</g>
<!-- Node20 -->
<g id="node20" class="node">
<title>Node20</title>
<g id="a_node20"><a xlink:title=" ">
<polygon fill="none" stroke="#bfbfbf" points="551.87,-0.5 551.87,-19.5 617.87,-19.5 617.87,-0.5 551.87,-0.5"/>
<text text-anchor="middle" x="584.87" y="-7.5" font-family="Helvetica,sans-Serif" font-size="10.00">string_view</text>
</a>
</g>
</g>
<!-- Node1&#45;&gt;Node20 -->
<g id="edge41" class="edge">
<title>Node1&#45;&gt;Node20</title>
<path fill="none" stroke="midnightblue" d="M790.84,-447.24C801.81,-423.44 821.87,-373.86 821.87,-329.5 821.87,-329.5 821.87,-329.5 821.87,-126.5 821.87,-41.28 696.5,-18.92 628.13,-13.07"/>
<polygon fill="midnightblue" stroke="midnightblue" points="628.31,-9.57 618.07,-12.29 627.77,-16.55 628.31,-9.57"/>
</g>
<!-- Node21 -->
<g id="node21" class="node">
<title>Node21</title>
<g id="a_node21"><a xlink:title=" ">
<polygon fill="none" stroke="#bfbfbf" points="850.37,-386 850.37,-405 895.37,-405 895.37,-386 850.37,-386"/>
<text text-anchor="middle" x="872.87" y="-393" font-family="Helvetica,sans-Serif" font-size="10.00">iosfwd</text>
</a>
</g>
</g>
<!-- Node1&#45;&gt;Node21 -->
<g id="edge39" class="edge">
<title>Node1&#45;&gt;Node21</title>
<path fill="none" stroke="midnightblue" d="M803.18,-447.4C817.83,-436.7 837.91,-422.03 852.75,-411.19"/>
<polygon fill="midnightblue" stroke="midnightblue" points="855.21,-413.73 861.22,-405.01 851.08,-408.08 855.21,-413.73"/>
</g>
<!-- Node22 -->
<g id="node22" class="node">
<title>Node22</title>
<g id="a_node22"><a xlink:title=" ">
<polygon fill="none" stroke="#bfbfbf" points="913.37,-386 913.37,-405 954.37,-405 954.37,-386 913.37,-386"/>
<text text-anchor="middle" x="933.87" y="-393" font-family="Helvetica,sans-Serif" font-size="10.00">string</text>
</a>
</g>
</g>
<!-- Node1&#45;&gt;Node22 -->
<g id="edge40" class="edge">
<title>Node1&#45;&gt;Node22</title>
<path fill="none" stroke="midnightblue" d="M819.35,-447.43C843.62,-437.64 876.41,-424.03 904.87,-411 905.87,-410.54 906.88,-410.07 907.9,-409.59"/>
<polygon fill="midnightblue" stroke="midnightblue" points="909.62,-412.64 917.09,-405.13 906.57,-406.35 909.62,-412.64"/>
</g>
<!-- Node23 -->
<g id="node23" class="node">
<title>Node23</title>
<g id="a_node23"><a xlink:title=" ">
<polygon fill="none" stroke="#bfbfbf" points="972.87,-386 972.87,-405 1016.87,-405 1016.87,-386 972.87,-386"/>
<text text-anchor="middle" x="994.87" y="-393" font-family="Helvetica,sans-Serif" font-size="10.00">thread</text>
</a>
</g>
</g>
<!-- Node1&#45;&gt;Node23 -->
<g id="edge42" class="edge">
<title>Node1&#45;&gt;Node23</title>
<path fill="none" stroke="midnightblue" d="M834.23,-449.73C870.72,-440.63 920.97,-426.93 963.87,-411 965.29,-410.47 966.75,-409.9 968.2,-409.31"/>
<polygon fill="midnightblue" stroke="midnightblue" points="969.95,-412.36 977.7,-405.14 967.14,-405.95 969.95,-412.36"/>
</g>
<!-- Node24 -->
<g id="node24" class="node">
<title>Node24</title>
<g id="a_node24"><a xlink:title=" ">
<polygon fill="none" stroke="#bfbfbf" points="1034.87,-380.5 1034.87,-410.5 1136.87,-410.5 1136.87,-380.5 1034.87,-380.5"/>
<text text-anchor="start" x="1042.87" y="-398.5" font-family="Helvetica,sans-Serif" font-size="10.00">yaclib_std/condition</text>
<text text-anchor="middle" x="1085.87" y="-387.5" font-family="Helvetica,sans-Serif" font-size="10.00">_variable</text>
</a>
</g>
</g>
<!-- Node1&#45;&gt;Node24 -->
<g id="edge44" class="edge">
<title>Node1&#45;&gt;Node24</title>
<path fill="none" stroke="midnightblue" d="M834.02,-451.51C880.83,-442.08 952.88,-427.3 1024.7,-411.23"/>
<polygon fill="midnightblue" stroke="midnightblue" points="1025.84,-414.56 1034.83,-408.95 1024.31,-407.73 1025.84,-414.56"/>
</g>
<!-- Node25 -->
<g id="node25" class="node">
<title>Node25</title>
<g id="a_node25"><a xlink:title=" ">
<polygon fill="none" stroke="#bfbfbf" points="1154.37,-386 1154.37,-405 1243.37,-405 1243.37,-386 1154.37,-386"/>
<text text-anchor="middle" x="1198.87" y="-393" font-family="Helvetica,sans-Serif" font-size="10.00">yaclib_std/mutex</text>
</a>
</g>
</g>
<!-- Node1&#45;&gt;Node25 -->
<g id="edge45" class="edge">
<title>Node1&#45;&gt;Node25</title>
<path fill="none" stroke="midnightblue" d="M833.99,-456.57C904.18,-449.19 1035.54,-433.69 1145.87,-411 1150.64,-410.02 1155.62,-408.85 1160.53,-407.61"/>
<polygon fill="midnightblue" stroke="midnightblue" points="1161.65,-410.94 1170.42,-405 1159.86,-404.17 1161.65,-410.94"/>
</g>
<!-- Node26 -->
<g id="node26" class="node">
<title>Node26</title>
<g id="a_node26"><a xlink:title=" ">
<polygon fill="none" stroke="#bfbfbf" points="1261.87,-386 1261.87,-405 1351.87,-405 1351.87,-386 1261.87,-386"/>
<text text-anchor="middle" x="1306.87" y="-393" font-family="Helvetica,sans-Serif" font-size="10.00">yaclib_std/thread</text>
</a>
</g>
</g>
<!-- Node1&#45;&gt;Node26 -->
<g id="edge46" class="edge">
<title>Node1&#45;&gt;Node26</title>
<path fill="none" stroke="midnightblue" d="M833.87,-458.67C920.02,-453.23 1101.73,-439.25 1252.87,-411 1257.98,-410.04 1263.33,-408.85 1268.58,-407.56"/>
<polygon fill="midnightblue" stroke="midnightblue" points="1269.66,-410.9 1278.47,-405.01 1267.91,-404.12 1269.66,-410.9"/>
</g>
<!-- Node3 -->
<g id="node3" class="node">
<title>Node3</title>
<g id="a_node3"><a xlink:href="node_8hpp.html" target="_top" xlink:title=" ">
<polygon fill="none" stroke="black" points="36.37,-246.5 36.37,-276.5 119.37,-276.5 119.37,-246.5 36.37,-246.5"/>
<text text-anchor="start" x="44.37" y="-264.5" font-family="Helvetica,sans-Serif" font-size="10.00">yaclib/util/detail</text>
<text text-anchor="middle" x="77.87" y="-253.5" font-family="Helvetica,sans-Serif" font-size="10.00">/node.hpp</text>
</a>
</g>
</g>
<!-- Node2&#45;&gt;Node3 -->
<g id="edge2" class="edge">
<title>Node2&#45;&gt;Node3</title>
<path fill="none" stroke="midnightblue" d="M82.19,-318.73C81.56,-310.54 80.59,-297.92 79.73,-286.71"/>
<polygon fill="midnightblue" stroke="midnightblue" points="83.21,-286.29 78.95,-276.59 76.23,-286.83 83.21,-286.29"/>
</g>
<!-- Node4&#45;&gt;Node3 -->
<g id="edge10" class="edge">
<title>Node4&#45;&gt;Node3</title>
<path fill="none" stroke="midnightblue" d="M231.4,-380.3C217.73,-370.27 199.07,-356.45 182.87,-344 165.31,-330.51 161.33,-326.62 143.87,-313 131.05,-303 116.73,-292.03 104.72,-282.87"/>
<polygon fill="midnightblue" stroke="midnightblue" points="106.51,-279.83 96.43,-276.56 102.27,-285.4 106.51,-279.83"/>
</g>
<!-- Node5 -->
<g id="node5" class="node">
<title>Node5</title>
<g id="a_node5"><a xlink:href="job_8hpp.html" target="_top" xlink:title=" ">
<polygon fill="none" stroke="black" points="192.37,-319 192.37,-338 307.37,-338 307.37,-319 192.37,-319"/>
<text text-anchor="middle" x="249.87" y="-326" font-family="Helvetica,sans-Serif" font-size="10.00">yaclib/executor/job.hpp</text>
</a>
</g>
</g>
<!-- Node4&#45;&gt;Node5 -->
<g id="edge4" class="edge">
<title>Node4&#45;&gt;Node5</title>
<path fill="none" stroke="midnightblue" d="M250.65,-380.4C250.51,-371.06 250.32,-358.71 250.16,-348.52"/>
<polygon fill="midnightblue" stroke="midnightblue" points="253.65,-348.14 250,-338.19 246.66,-348.25 253.65,-348.14"/>
</g>
<!-- Node10 -->
<g id="node10" class="node">
<title>Node10</title>
<g id="a_node10"><a xlink:href="shared__func_8hpp.html" target="_top" xlink:title=" ">
<polygon fill="none" stroke="black" points="364.37,-313.5 364.37,-343.5 455.37,-343.5 455.37,-313.5 364.37,-313.5"/>
<text text-anchor="start" x="372.37" y="-331.5" font-family="Helvetica,sans-Serif" font-size="10.00">yaclib/util/detail</text>
<text text-anchor="middle" x="409.87" y="-320.5" font-family="Helvetica,sans-Serif" font-size="10.00">/shared_func.hpp</text>
</a>
</g>
</g>
<!-- Node4&#45;&gt;Node10 -->
<g id="edge11" class="edge">
<title>Node4&#45;&gt;Node10</title>
<path fill="none" stroke="midnightblue" d="M285.37,-380.4C309.02,-370.73 340.59,-357.82 366.02,-347.43"/>
<polygon fill="midnightblue" stroke="midnightblue" points="367.5,-350.6 375.43,-343.58 364.85,-344.12 367.5,-350.6"/>
</g>
<!-- Node4&#45;&gt;Node15 -->
<g id="edge32" class="edge">
<title>Node4&#45;&gt;Node15</title>
<path fill="none" stroke="midnightblue" d="M306.54,-393.58C393.32,-389.2 561.37,-368.53 662.87,-277 702.25,-241.48 720.38,-178.6 727.3,-147.29"/>
<polygon fill="midnightblue" stroke="midnightblue" points="730.76,-147.8 729.35,-137.3 723.91,-146.39 730.76,-147.8"/>
</g>
<!-- Node4&#45;&gt;Node20 -->
<g id="edge33" class="edge">
<title>Node4&#45;&gt;Node20</title>
<path fill="none" stroke="midnightblue" d="M195.34,-389.1C135.36,-382.12 45.12,-367.95 20.87,-344 -5.6,-317.87 1.87,-299.69 1.87,-262.5 1.87,-262.5 1.87,-262.5 1.87,-126.5 1.87,-16.49 406.32,-9.61 541.48,-10.38"/>
<polygon fill="midnightblue" stroke="midnightblue" points="541.83,-13.89 551.85,-10.46 541.88,-6.89 541.83,-13.89"/>
</g>
<!-- Node5&#45;&gt;Node3 -->
<g id="edge5" class="edge">
<title>Node5&#45;&gt;Node3</title>
<path fill="none" stroke="midnightblue" d="M227.03,-318.87C200.99,-309.03 157.75,-292.69 124.51,-280.13"/>
<polygon fill="midnightblue" stroke="midnightblue" points="125.58,-276.79 114.99,-276.53 123.1,-283.34 125.58,-276.79"/>
</g>
<!-- Node5&#45;&gt;Node6 -->
<g id="edge6" class="edge">
<title>Node5&#45;&gt;Node6</title>
<path fill="none" stroke="midnightblue" d="M249.87,-318.73C249.87,-309.18 249.87,-293.62 249.87,-281.28"/>
<polygon fill="midnightblue" stroke="midnightblue" points="253.37,-281.13 249.87,-271.13 246.37,-281.13 253.37,-281.13"/>
</g>
<!-- Node7 -->
<g id="node7" class="node">
<title>Node7</title>
<g id="a_node7"><a xlink:href="ref_8hpp.html" target="_top" xlink:title=" ">
<polygon fill="none" stroke="black" points="250.37,-118 250.37,-137 339.37,-137 339.37,-118 250.37,-118"/>
<text text-anchor="middle" x="294.87" y="-125" font-family="Helvetica,sans-Serif" font-size="10.00">yaclib/util/ref.hpp</text>
</a>
</g>
</g>
<!-- Node6&#45;&gt;Node7 -->
<g id="edge7" class="edge">
<title>Node6&#45;&gt;Node7</title>
<path fill="none" stroke="midnightblue" d="M265.03,-251.95C278.59,-243.33 297.57,-228.66 305.87,-210 315,-189.47 308.75,-163.39 302.58,-146.34"/>
<polygon fill="midnightblue" stroke="midnightblue" points="305.82,-145.02 298.88,-137.02 299.31,-147.6 305.82,-145.02"/>
</g>
<!-- Node8 -->
<g id="node8" class="node">
<title>Node8</title>
<g id="a_node8"><a xlink:title=" ">
<polygon fill="none" stroke="#bfbfbf" points="170.87,-118 170.87,-137 232.87,-137 232.87,-118 170.87,-118"/>
<text text-anchor="middle" x="201.87" y="-125" font-family="Helvetica,sans-Serif" font-size="10.00">type_traits</text>
</a>
</g>
</g>
<!-- Node6&#45;&gt;Node8 -->
<g id="edge8" class="edge">
<title>Node6&#45;&gt;Node8</title>
<path fill="none" stroke="midnightblue" d="M256.03,-251.99C266.29,-236.68 284.55,-203.79 271.87,-179 263.39,-162.43 246.66,-150.05 231.68,-141.69"/>
<polygon fill="midnightblue" stroke="midnightblue" points="233.15,-138.52 222.67,-137.01 229.93,-144.73 233.15,-138.52"/>
</g>
<!-- Node6&#45;&gt;Node9 -->
<g id="edge9" class="edge">
<title>Node6&#45;&gt;Node9</title>
<path fill="none" stroke="midnightblue" d="M230.44,-251.99C212.94,-243.49 187.49,-228.98 170.87,-210 154.52,-191.32 143.82,-164.41 138.06,-146.69"/>
<polygon fill="midnightblue" stroke="midnightblue" points="141.37,-145.55 135.1,-137.01 134.67,-147.59 141.37,-145.55"/>
</g>
<!-- Node10&#45;&gt;Node6 -->
<g id="edge15" class="edge">
<title>Node10&#45;&gt;Node6</title>
<path fill="none" stroke="midnightblue" d="M375.15,-313.4C346.83,-301.89 307.21,-285.8 280.16,-274.81"/>
<polygon fill="midnightblue" stroke="midnightblue" points="281.39,-271.53 270.81,-271.01 278.75,-278.01 281.39,-271.53"/>
</g>
<!-- Node10&#45;&gt;Node7 -->
<g id="edge29" class="edge">
<title>Node10&#45;&gt;Node7</title>
<path fill="none" stroke="midnightblue" d="M405.75,-313.47C400.59,-296.84 390.95,-268.55 378.87,-246 358.25,-207.54 326.85,-167.07 308.85,-145.1"/>
<polygon fill="midnightblue" stroke="midnightblue" points="311.31,-142.59 302.24,-137.12 305.92,-147.05 311.31,-142.59"/>
</g>
<!-- Node10&#45;&gt;Node8 -->
<g id="edge30" class="edge">
<title>Node10&#45;&gt;Node8</title>
<path fill="none" stroke="midnightblue" d="M400.93,-313.39C382.58,-285.22 338.19,-221.1 288.87,-179 271.16,-163.89 248.3,-150.82 230.46,-141.76"/>
<polygon fill="midnightblue" stroke="midnightblue" points="231.64,-138.45 221.13,-137.16 228.55,-144.72 231.64,-138.45"/>
</g>
<!-- Node10&#45;&gt;Node9 -->
<g id="edge31" class="edge">
<title>Node10&#45;&gt;Node9</title>
<path fill="none" stroke="midnightblue" d="M364.19,-321C308.78,-312.43 219.36,-296.16 191.87,-277 148.71,-246.92 137.11,-179.91 134,-147.2"/>
<polygon fill="midnightblue" stroke="midnightblue" points="137.49,-146.87 133.22,-137.17 130.51,-147.41 137.49,-146.87"/>
</g>
<!-- Node11 -->
<g id="node11" class="node">
<title>Node11</title>
<g id="a_node11"><a xlink:href="safe__call_8hpp.html" target="_top" xlink:title=" ">
<polygon fill="none" stroke="black" points="180.37,-179.5 180.37,-209.5 263.37,-209.5 263.37,-179.5 180.37,-179.5"/>
<text text-anchor="start" x="188.37" y="-197.5" font-family="Helvetica,sans-Serif" font-size="10.00">yaclib/util/detail</text>
<text text-anchor="middle" x="221.87" y="-186.5" font-family="Helvetica,sans-Serif" font-size="10.00">/safe_call.hpp</text>
</a>
</g>
</g>
<!-- Node10&#45;&gt;Node11 -->
<g id="edge12" class="edge">
<title>Node10&#45;&gt;Node11</title>
<path fill="none" stroke="midnightblue" d="M393.26,-313.23C373.33,-296.37 338.61,-267.85 306.87,-246 290.79,-234.94 272.23,-223.74 256.56,-214.71"/>
<polygon fill="midnightblue" stroke="midnightblue" points="258.13,-211.58 247.71,-209.66 254.66,-217.66 258.13,-211.58"/>
</g>
<!-- Node10&#45;&gt;Node12 -->
<g id="edge16" class="edge">
<title>Node10&#45;&gt;Node12</title>
<path fill="none" stroke="midnightblue" d="M451.53,-313.4C486.11,-301.69 534.72,-285.23 567.21,-274.23"/>
<polygon fill="midnightblue" stroke="midnightblue" points="568.39,-277.53 576.74,-271.01 566.14,-270.9 568.39,-277.53"/>
</g>
<!-- Node10&#45;&gt;Node17 -->
<g id="edge28" class="edge">
<title>Node10&#45;&gt;Node17</title>
<path fill="none" stroke="midnightblue" d="M417.68,-313.37C430.25,-290.65 455.08,-245.75 470.2,-218.4"/>
<polygon fill="midnightblue" stroke="midnightblue" points="473.33,-219.97 475.11,-209.52 467.21,-216.58 473.33,-219.97"/>
</g>
<!-- Node11&#45;&gt;Node8 -->
<g id="edge13" class="edge">
<title>Node11&#45;&gt;Node8</title>
<path fill="none" stroke="midnightblue" d="M217.53,-179.4C214.59,-169.86 210.69,-157.18 207.52,-146.86"/>
<polygon fill="midnightblue" stroke="midnightblue" points="210.83,-145.72 204.54,-137.19 204.14,-147.78 210.83,-145.72"/>
</g>
<!-- Node11&#45;&gt;Node9 -->
<g id="edge14" class="edge">
<title>Node11&#45;&gt;Node9</title>
<path fill="none" stroke="midnightblue" d="M202.56,-179.4C187.91,-168.7 167.83,-154.03 152.99,-143.19"/>
<polygon fill="midnightblue" stroke="midnightblue" points="154.66,-140.08 144.52,-137.01 150.53,-145.73 154.66,-140.08"/>
</g>
<!-- Node13 -->
<g id="node13" class="node">
<title>Node13</title>
<g id="a_node13"><a xlink:href="atomic__counter_8hpp.html" target="_top" xlink:title=" ">
<polygon fill="none" stroke="black" points="549.87,-179.5 549.87,-209.5 653.87,-209.5 653.87,-179.5 549.87,-179.5"/>
<text text-anchor="start" x="557.87" y="-197.5" font-family="Helvetica,sans-Serif" font-size="10.00">yaclib/util/detail</text>
<text text-anchor="middle" x="601.87" y="-186.5" font-family="Helvetica,sans-Serif" font-size="10.00">/atomic_counter.hpp</text>
</a>
</g>
</g>
<!-- Node12&#45;&gt;Node13 -->
<g id="edge17" class="edge">
<title>Node12&#45;&gt;Node13</title>
<path fill="none" stroke="midnightblue" d="M601.87,-251.73C601.87,-243.54 601.87,-230.92 601.87,-219.71"/>
<polygon fill="midnightblue" stroke="midnightblue" points="605.37,-219.59 601.87,-209.59 598.37,-219.59 605.37,-219.59"/>
</g>
<!-- Node12&#45;&gt;Node17 -->
<g id="edge22" class="edge">
<title>Node12&#45;&gt;Node17</title>
<path fill="none" stroke="midnightblue" d="M585.82,-251.73C568.42,-242.23 540.13,-226.78 517.6,-214.47"/>
<polygon fill="midnightblue" stroke="midnightblue" points="519.11,-211.31 508.66,-209.59 515.76,-217.45 519.11,-211.31"/>
</g>
<!-- Node13&#45;&gt;Node9 -->
<g id="edge20" class="edge">
<title>Node13&#45;&gt;Node9</title>
<path fill="none" stroke="midnightblue" d="M549.72,-180.6C546.73,-180.02 543.77,-179.48 540.87,-179 373.94,-151.37 324.52,-189.63 161.87,-143 160.19,-142.52 158.5,-141.94 156.82,-141.3"/>
<polygon fill="midnightblue" stroke="midnightblue" points="158.05,-138.02 147.49,-137.12 155.18,-144.41 158.05,-138.02"/>
</g>
<!-- Node14 -->
<g id="node14" class="node">
<title>Node14</title>
<g id="a_node14"><a xlink:title=" ">
<polygon fill="none" stroke="#bfbfbf" points="489.87,-118 489.87,-137 577.87,-137 577.87,-118 489.87,-118"/>
<text text-anchor="middle" x="533.87" y="-125" font-family="Helvetica,sans-Serif" font-size="10.00">yaclib/config.hpp</text>
</a>
</g>
</g>
<!-- Node13&#45;&gt;Node14 -->
<g id="edge18" class="edge">
<title>Node13&#45;&gt;Node14</title>
<path fill="none" stroke="midnightblue" d="M587.11,-179.4C576.3,-169.06 561.62,-155.02 550.41,-144.31"/>
<polygon fill="midnightblue" stroke="midnightblue" points="552.61,-141.57 542.96,-137.19 547.77,-146.63 552.61,-141.57"/>
</g>
<!-- Node13&#45;&gt;Node15 -->
<g id="edge19" class="edge">
<title>Node13&#45;&gt;Node15</title>
<path fill="none" stroke="midnightblue" d="M629.86,-179.4C652.19,-168.14 683.23,-152.5 704.99,-141.54"/>
<polygon fill="midnightblue" stroke="midnightblue" points="706.63,-144.63 713.98,-137.01 703.48,-138.38 706.63,-144.63"/>
</g>
<!-- Node16 -->
<g id="node16" class="node">
<title>Node16</title>
<g id="a_node16"><a xlink:title=" ">
<polygon fill="none" stroke="#bfbfbf" points="595.87,-118 595.87,-137 687.87,-137 687.87,-118 595.87,-118"/>
<text text-anchor="middle" x="641.87" y="-125" font-family="Helvetica,sans-Serif" font-size="10.00">yaclib_std/atomic</text>
</a>
</g>
</g>
<!-- Node13&#45;&gt;Node16 -->
<g id="edge21" class="edge">
<title>Node13&#45;&gt;Node16</title>
<path fill="none" stroke="midnightblue" d="M610.55,-179.4C616.6,-169.56 624.71,-156.38 631.16,-145.89"/>
<polygon fill="midnightblue" stroke="midnightblue" points="634.26,-147.55 636.52,-137.19 628.29,-143.88 634.26,-147.55"/>
</g>
<!-- Node17&#45;&gt;Node7 -->
<g id="edge23" class="edge">
<title>Node17&#45;&gt;Node7</title>
<path fill="none" stroke="midnightblue" d="M442.07,-179.4C408.36,-167.74 361.02,-151.37 329.22,-140.38"/>
<polygon fill="midnightblue" stroke="midnightblue" points="330.07,-136.97 319.47,-137.01 327.78,-143.58 330.07,-136.97"/>
</g>
<!-- Node17&#45;&gt;Node8 -->
<g id="edge24" class="edge">
<title>Node17&#45;&gt;Node8</title>
<path fill="none" stroke="midnightblue" d="M434.13,-185.55C384.88,-177 306.85,-162.03 240.87,-143 238.23,-142.24 235.51,-141.38 232.79,-140.48"/>
<polygon fill="midnightblue" stroke="midnightblue" points="233.73,-137.09 223.13,-137.06 231.39,-143.69 233.73,-137.09"/>
</g>
<!-- Node18 -->
<g id="node18" class="node">
<title>Node18</title>
<g id="a_node18"><a xlink:href="intrusive__ptr__impl_8hpp.html" target="_top" xlink:title=" ">
<polygon fill="none" stroke="black" points="357.87,-112.5 357.87,-142.5 471.87,-142.5 471.87,-112.5 357.87,-112.5"/>
<text text-anchor="start" x="365.87" y="-130.5" font-family="Helvetica,sans-Serif" font-size="10.00">yaclib/util/detail</text>
<text text-anchor="middle" x="414.87" y="-119.5" font-family="Helvetica,sans-Serif" font-size="10.00">/intrusive_ptr_impl.hpp</text>
</a>
</g>
</g>
<!-- Node17&#45;&gt;Node18 -->
<g id="edge25" class="edge">
<title>Node17&#45;&gt;Node18</title>
<path fill="none" stroke="midnightblue" d="M468.11,-179.4C459.02,-170.71 447.2,-159.4 437,-149.66"/>
<polygon fill="midnightblue" stroke="midnightblue" points="439.24,-146.96 429.59,-142.58 434.4,-152.02 439.24,-146.96"/>
</g>
<!-- Node18&#45;&gt;Node19 -->
<g id="edge26" class="edge">
<title>Node18&#45;&gt;Node19</title>
<path fill="none" stroke="midnightblue" d="M455.15,-112.4C484.19,-102.24 522.95,-88.67 550.52,-79.02"/>
<polygon fill="midnightblue" stroke="midnightblue" points="551.85,-82.26 560.13,-75.66 549.54,-75.66 551.85,-82.26"/>
</g>
<!-- Node19&#45;&gt;Node20 -->
<g id="edge27" class="edge">
<title>Node19&#45;&gt;Node20</title>
<path fill="none" stroke="midnightblue" d="M584.87,-56.08C584.87,-49.01 584.87,-38.86 584.87,-29.99"/>
<polygon fill="midnightblue" stroke="midnightblue" points="588.37,-29.75 584.87,-19.75 581.37,-29.75 588.37,-29.75"/>
</g>
</g>
</svg>
        <g id="navigator" transform="translate(0 0)" fill="#404254">
                <rect fill="#f2f5e9" fill-opacity="0.5" stroke="#606060" stroke-width=".5" x="0" y="0" width="60" height="60"/>
                <use id="zoomplus" xlink:href="#zoomPlus" x="17" y="9" onmousedown="handleZoom(evt,'in')"/>
                <use id="zoomminus" xlink:href="#zoomMin" x="42" y="9" onmousedown="handleZoom(evt,'out')"/>
                <use id="reset" xlink:href="#resetDef" x="30" y="36" onmousedown="handleReset()"/>
                <g id="arrowUp" xlink:href="#dirArrow" transform="translate(30 24)" onmousedown="handlePan(0,-1)">
                  <use xlink:href="#rim" fill="#404040">
                        <set attributeName="fill" to="#808080" begin="arrowUp.mouseover" end="arrowUp.mouseout"/>
                  </use>
                  <path fill="none" stroke="white" stroke-width="1.5" d="M0,-3.0v7 M-2.5,-0.5L0,-3.0L2.5,-0.5"/>
                </g>
                <g id="arrowRight" xlink:href="#dirArrow" transform="rotate(90) translate(36 -43)" onmousedown="handlePan(1,0)">
                  <use xlink:href="#rim" fill="#404040">
                        <set attributeName="fill" to="#808080" begin="arrowRight.mouseover" end="arrowRight.mouseout"/>
                  </use>
                  <path fill="none" stroke="white" stroke-width="1.5" d="M0,-3.0v7 M-2.5,-0.5L0,-3.0L2.5,-0.5"/>
                </g>
                <g id="arrowDown" xlink:href="#dirArrow" transform="rotate(180) translate(-30 -48)" onmousedown="handlePan(0,1)">
                  <use xlink:href="#rim" fill="#404040">
                        <set attributeName="fill" to="#808080" begin="arrowDown.mouseover" end="arrowDown.mouseout"/>
                  </use>
                  <path fill="none" stroke="white" stroke-width="1.5" d="M0,-3.0v7 M-2.5,-0.5L0,-3.0L2.5,-0.5"/>
                </g>
                <g id="arrowLeft" xlink:href="#dirArrow" transform="rotate(270) translate(-36 17)" onmousedown="handlePan(-1,0)">
                  <use xlink:href="#rim" fill="#404040">
                        <set attributeName="fill" to="#808080" begin="arrowLeft.mouseover" end="arrowLeft.mouseout"/>
                  </use>
                  <path fill="none" stroke="white" stroke-width="1.5" d="M0,-3.0v7 M-2.5,-0.5L0,-3.0L2.5,-0.5"/>
                </g>
        </g>
        <svg viewBox="0 0 15 15" width="100%" height="30px" preserveAspectRatio="xMaxYMin meet">
         <g id="arrow_out" transform="scale(0.3 0.3)">
          <a xlink:href="thread__factory_8cpp__incl_org.svg" target="_base">
           <rect id="button" ry="5" rx="5" y="6" x="6" height="38" width="38"
                fill="#f2f5e9" fill-opacity="0.5" stroke="#606060" stroke-width="1.0"/>
           <path id="arrow"
             d="M 11.500037,31.436501 C 11.940474,20.09759 22.043105,11.32322 32.158766,21.979434 L 37.068811,17.246167 C 37.068811,17.246167 37.088388,32 37.088388,32 L 22.160133,31.978069 C 22.160133,31.978069 26.997745,27.140456 26.997745,27.140456 C 18.528582,18.264221 13.291696,25.230495 11.500037,31.436501 z"
             style="fill:#404040;"/>
          </a>
         </g>
        </svg>
</svg>
