<?xml version="1.0" encoding="UTF-8" standalone="no"?>
<!DOCTYPE svg PUBLIC "-//W3C//DTD SVG 1.1//EN"
 "http://www.w3.org/Graphics/SVG/1.1/DTD/svg11.dtd">
<!-- Generated by graphviz version 3.0.0 (20220413.0106)
 -->
<!-- Title: include/yaclib/executor/thread_factory.hpp Pages: 1 -->
<!--zoomable 419 -->
<svg id="main" version="1.1" xmlns="http://www.w3.org/2000/svg" xmlns:xlink="http://www.w3.org/1999/xlink" xml:space="preserve" onload="init(evt)">
<style type="text/css"><![CDATA[
.edge:hover path { stroke: red; }
.edge:hover polygon { stroke: red; fill: red; }
]]></style>
<script type="text/javascript"><![CDATA[
var edges = document.getElementsByTagName('g');
if (edges && edges.length) {
  for (var i=0;i<edges.length;i++) {
    if (edges[i].id.substr(0,4)=='edge') {
      edges[i].setAttribute('class','edge');
    }
  }
}
]]></script>
        <defs>
                <circle id="rim" cx="0" cy="0" r="7"/>
                <circle id="rim2" cx="0" cy="0" r="3.5"/>
                <g id="zoomPlus">
                        <use xlink:href="#rim" fill="#404040">
                                <set attributeName="fill" to="#808080" begin="zoomplus.mouseover" end="zoomplus.mouseout"/>
                        </use>
                        <path d="M-4,0h8M0,-4v8" fill="none" stroke="white" stroke-width="1.5" pointer-events="none"/>
                </g>
                <g id="zoomMin">
                        <use xlink:href="#rim" fill="#404040">
                                <set attributeName="fill" to="#808080" begin="zoomminus.mouseover" end="zoomminus.mouseout"/>
                        </use>
                        <path d="M-4,0h8" fill="none" stroke="white" stroke-width="1.5" pointer-events="none"/>
                </g>
                <g id="dirArrow">
                        <path fill="none" stroke="white" stroke-width="1.5" d="M0,-3.0v7 M-2.5,-0.5L0,-3.0L2.5,-0.5"/>
                </g>
               <g id="resetDef">
                       <use xlink:href="#rim2" fill="#404040">
                               <set attributeName="fill" to="#808080" begin="reset.mouseover" end="reset.mouseout"/>
                       </use>
               </g>
        </defs>

<script type="text/javascript">
var viewWidth = 791;
var viewHeight = 419;
var sectionId = 'dynsection-0';
</script>
<script xlink:href="svgpan.js"/>
<svg id="graph" class="graph">
<g id="viewport">
<title>include/yaclib/executor/thread_factory.hpp</title>
<!-- Node1 -->
<g id="node1" class="node">
<title>Node1</title>
<g id="a_node1"><a xlink:title=" ">
<polygon fill="#bfbfbf" stroke="black" points="247,-380.5 247,-410.5 362,-410.5 362,-380.5 247,-380.5"/>
<text text-anchor="start" x="255" y="-398.5" font-family="Helvetica,sans-Serif" font-size="10.00">include/yaclib/executor</text>
<text text-anchor="middle" x="304.5" y="-387.5" font-family="Helvetica,sans-Serif" font-size="10.00">/thread_factory.hpp</text>
</a>
</g>
</g>
<!-- Node2 -->
<g id="node2" class="node">
<title>Node2</title>
<g id="a_node2"><a xlink:href="job_8hpp.html" target="_top" xlink:title=" ">
<polygon fill="none" stroke="black" points="126,-319 126,-338 241,-338 241,-319 126,-319"/>
<text text-anchor="middle" x="183.5" y="-326" font-family="Helvetica,sans-Serif" font-size="10.00">yaclib/executor/job.hpp</text>
</a>
</g>
</g>
<!-- Node1&#45;&gt;Node2 -->
<g id="edge1" class="edge">
<title>Node1&#45;&gt;Node2</title>
<path fill="none" stroke="midnightblue" d="M278.24,-380.4C257.48,-369.24 228.7,-353.78 208.32,-342.83"/>
<polygon fill="midnightblue" stroke="midnightblue" points="209.8,-339.66 199.34,-338.01 206.49,-345.82 209.8,-339.66"/>
</g>
<!-- Node3 -->
<g id="node3" class="node">
<title>Node3</title>
<g id="a_node3"><a xlink:href="node_8hpp.html" target="_top" xlink:title=" ">
<polygon fill="none" stroke="black" points="0,-246.5 0,-276.5 83,-276.5 83,-246.5 0,-246.5"/>
<text text-anchor="start" x="8" y="-264.5" font-family="Helvetica,sans-Serif" font-size="10.00">yaclib/util/detail</text>
<text text-anchor="middle" x="41.5" y="-253.5" font-family="Helvetica,sans-Serif" font-size="10.00">/node.hpp</text>
</a>
</g>
</g>
<!-- Node1&#45;&gt;Node3 -->
<g id="edge7" class="edge">
<title>Node1&#45;&gt;Node3</title>
<path fill="none" stroke="midnightblue" d="M246.92,-387.61C207.9,-380.95 156.39,-368.16 116.5,-344 91.65,-328.95 70.01,-303.28 56.45,-284.76"/>
<polygon fill="midnightblue" stroke="midnightblue" points="59.28,-282.7 50.63,-276.58 53.57,-286.76 59.28,-282.7"/>
</g>
<!-- Node8 -->
<g id="node8" class="node">
<title>Node8</title>
<g id="a_node8"><a xlink:href="shared__func_8hpp.html" target="_top" xlink:title=" ">
<polygon fill="none" stroke="black" points="259,-313.5 259,-343.5 350,-343.5 350,-313.5 259,-313.5"/>
<text text-anchor="start" x="267" y="-331.5" font-family="Helvetica,sans-Serif" font-size="10.00">yaclib/util/detail</text>
<text text-anchor="middle" x="304.5" y="-320.5" font-family="Helvetica,sans-Serif" font-size="10.00">/shared_func.hpp</text>
</a>
</g>
</g>
<!-- Node1&#45;&gt;Node8 -->
<g id="edge8" class="edge">
<title>Node1&#45;&gt;Node8</title>
<path fill="none" stroke="midnightblue" d="M304.5,-380.4C304.5,-372.64 304.5,-362.81 304.5,-353.86"/>
<polygon fill="midnightblue" stroke="midnightblue" points="308,-353.58 304.5,-343.58 301,-353.58 308,-353.58"/>
</g>
<!-- Node13 -->
<g id="node13" class="node">
<title>Node13</title>
<g id="a_node13"><a xlink:title=" ">
<polygon fill="none" stroke="#bfbfbf" points="705,-118 705,-137 754,-137 754,-118 705,-118"/>
<text text-anchor="middle" x="729.5" y="-125" font-family="Helvetica,sans-Serif" font-size="10.00">cstddef</text>
</a>
</g>
</g>
<!-- Node1&#45;&gt;Node13 -->
<g id="edge29" class="edge">
<title>Node1&#45;&gt;Node13</title>
<path fill="none" stroke="midnightblue" d="M343.11,-380.47C411.93,-354.25 558.25,-292.85 661.5,-210 684.78,-191.32 705.83,-163.64 718.15,-145.84"/>
<polygon fill="midnightblue" stroke="midnightblue" points="721.36,-147.33 724.05,-137.08 715.56,-143.42 721.36,-147.33"/>
</g>
<!-- Node18 -->
<g id="node18" class="node">
<title>Node18</title>
<g id="a_node18"><a xlink:title=" ">
<polygon fill="none" stroke="#bfbfbf" points="536.5,-0.5 536.5,-19.5 602.5,-19.5 602.5,-0.5 536.5,-0.5"/>
<text text-anchor="middle" x="569.5" y="-7.5" font-family="Helvetica,sans-Serif" font-size="10.00">string_view</text>
</a>
</g>
</g>
<!-- Node1&#45;&gt;Node18 -->
<g id="edge30" class="edge">
<title>Node1&#45;&gt;Node18</title>
<path fill="none" stroke="midnightblue" d="M362.16,-390.75C489.29,-380.89 782.5,-348.81 782.5,-262.5 782.5,-262.5 782.5,-262.5 782.5,-126.5 782.5,-49.99 674.99,-23.9 612.73,-15.2"/>
<polygon fill="midnightblue" stroke="midnightblue" points="613.15,-11.72 602.78,-13.9 612.25,-18.67 613.15,-11.72"/>
</g>
<!-- Node2&#45;&gt;Node3 -->
<g id="edge2" class="edge">
<title>Node2&#45;&gt;Node3</title>
<path fill="none" stroke="midnightblue" d="M164.64,-318.87C143.52,-309.2 108.67,-293.25 81.43,-280.78"/>
<polygon fill="midnightblue" stroke="midnightblue" points="82.7,-277.51 72.15,-276.53 79.78,-283.87 82.7,-277.51"/>
</g>
<!-- Node4 -->
<g id="node4" class="node">
<title>Node4</title>
<g id="a_node4"><a xlink:href="func_8hpp.html" target="_top" xlink:title=" ">
<polygon fill="none" stroke="black" points="140,-185 140,-204 237,-204 237,-185 140,-185"/>
<text text-anchor="middle" x="188.5" y="-192" font-family="Helvetica,sans-Serif" font-size="10.00">yaclib/util/func.hpp</text>
</a>
</g>
</g>
<!-- Node2&#45;&gt;Node4 -->
<g id="edge3" class="edge">
<title>Node2&#45;&gt;Node4</title>
<path fill="none" stroke="midnightblue" d="M183.83,-318.84C184.63,-297.67 186.7,-242.95 187.8,-214.03"/>
<polygon fill="midnightblue" stroke="midnightblue" points="191.3,-214.15 188.18,-204.02 184.3,-213.88 191.3,-214.15"/>
</g>
<!-- Node5 -->
<g id="node5" class="node">
<title>Node5</title>
<g id="a_node5"><a xlink:href="ref_8hpp.html" target="_top" xlink:title=" ">
<polygon fill="none" stroke="black" points="112,-118 112,-137 201,-137 201,-118 112,-118"/>
<text text-anchor="middle" x="156.5" y="-125" font-family="Helvetica,sans-Serif" font-size="10.00">yaclib/util/ref.hpp</text>
</a>
</g>
</g>
<!-- Node4&#45;&gt;Node5 -->
<g id="edge4" class="edge">
<title>Node4&#45;&gt;Node5</title>
<path fill="none" stroke="midnightblue" d="M184.18,-184.73C179.34,-174.89 171.35,-158.66 165.19,-146.16"/>
<polygon fill="midnightblue" stroke="midnightblue" points="168.3,-144.55 160.75,-137.13 162.02,-147.64 168.3,-144.55"/>
</g>
<!-- Node6 -->
<g id="node6" class="node">
<title>Node6</title>
<g id="a_node6"><a xlink:title=" ">
<polygon fill="none" stroke="#bfbfbf" points="218.5,-118 218.5,-137 280.5,-137 280.5,-118 218.5,-118"/>
<text text-anchor="middle" x="249.5" y="-125" font-family="Helvetica,sans-Serif" font-size="10.00">type_traits</text>
</a>
</g>
</g>
<!-- Node4&#45;&gt;Node6 -->
<g id="edge5" class="edge">
<title>Node4&#45;&gt;Node6</title>
<path fill="none" stroke="midnightblue" d="M196.73,-184.73C206.33,-174.5 222.41,-157.36 234.3,-144.69"/>
<polygon fill="midnightblue" stroke="midnightblue" points="237.11,-146.81 241.4,-137.13 232.01,-142.02 237.11,-146.81"/>
</g>
<!-- Node7 -->
<g id="node7" class="node">
<title>Node7</title>
<g id="a_node7"><a xlink:title=" ">
<polygon fill="none" stroke="#bfbfbf" points="431,-118 431,-137 470,-137 470,-118 431,-118"/>
<text text-anchor="middle" x="450.5" y="-125" font-family="Helvetica,sans-Serif" font-size="10.00">utility</text>
</a>
</g>
</g>
<!-- Node4&#45;&gt;Node7 -->
<g id="edge6" class="edge">
<title>Node4&#45;&gt;Node7</title>
<path fill="none" stroke="midnightblue" d="M237.22,-186.59C285.05,-178.95 359.62,-164.79 421.5,-143 422.93,-142.5 424.37,-141.94 425.82,-141.35"/>
<polygon fill="midnightblue" stroke="midnightblue" points="427.53,-144.41 435.16,-137.06 424.61,-138.05 427.53,-144.41"/>
</g>
<!-- Node8&#45;&gt;Node4 -->
<g id="edge12" class="edge">
<title>Node8&#45;&gt;Node4</title>
<path fill="none" stroke="midnightblue" d="M288.11,-313.08C277.31,-303.29 263.08,-289.84 251.5,-277 232.5,-255.93 212.86,-229.68 200.66,-212.76"/>
<polygon fill="midnightblue" stroke="midnightblue" points="203.36,-210.52 194.71,-204.41 197.67,-214.58 203.36,-210.52"/>
</g>
<!-- Node8&#45;&gt;Node5 -->
<g id="edge26" class="edge">
<title>Node8&#45;&gt;Node5</title>
<path fill="none" stroke="midnightblue" d="M263.35,-313.37C221.01,-296.31 157.53,-263.12 130.5,-210 119.82,-189 132.35,-162.74 143.44,-145.79"/>
<polygon fill="midnightblue" stroke="midnightblue" points="146.43,-147.63 149.29,-137.43 140.69,-143.62 146.43,-147.63"/>
</g>
<!-- Node8&#45;&gt;Node6 -->
<g id="edge27" class="edge">
<title>Node8&#45;&gt;Node6</title>
<path fill="none" stroke="midnightblue" d="M300.54,-313.19C290.77,-277.83 265.5,-186.39 254.61,-147"/>
<polygon fill="midnightblue" stroke="midnightblue" points="257.99,-146.07 251.95,-137.36 251.24,-147.93 257.99,-146.07"/>
</g>
<!-- Node8&#45;&gt;Node7 -->
<g id="edge28" class="edge">
<title>Node8&#45;&gt;Node7</title>
<path fill="none" stroke="midnightblue" d="M350.21,-322.1C384.52,-316.05 430.99,-303.36 463.5,-277 499.79,-247.58 519.48,-222.12 501.5,-179 495.46,-164.52 483.03,-152.07 471.95,-143.15"/>
<polygon fill="midnightblue" stroke="midnightblue" points="473.96,-140.28 463.87,-137.05 469.74,-145.87 473.96,-140.28"/>
</g>
<!-- Node9 -->
<g id="node9" class="node">
<title>Node9</title>
<g id="a_node9"><a xlink:href="safe__call_8hpp.html" target="_top" xlink:title=" ">
<polygon fill="none" stroke="black" points="409,-179.5 409,-209.5 492,-209.5 492,-179.5 409,-179.5"/>
<text text-anchor="start" x="417" y="-197.5" font-family="Helvetica,sans-Serif" font-size="10.00">yaclib/util/detail</text>
<text text-anchor="middle" x="450.5" y="-186.5" font-family="Helvetica,sans-Serif" font-size="10.00">/safe_call.hpp</text>
</a>
</g>
</g>
<!-- Node8&#45;&gt;Node9 -->
<g id="edge9" class="edge">
<title>Node8&#45;&gt;Node9</title>
<path fill="none" stroke="midnightblue" d="M350.2,-323.71C381.96,-318.48 422.4,-306.13 444.5,-277 456.71,-260.9 457.19,-237.49 455.22,-219.88"/>
<polygon fill="midnightblue" stroke="midnightblue" points="458.65,-219.18 453.75,-209.79 451.72,-220.19 458.65,-219.18"/>
</g>
<!-- Node10 -->
<g id="node10" class="node">
<title>Node10</title>
<g id="a_node10"><a xlink:href="helper_8hpp.html" target="_top" xlink:title=" ">
<polygon fill="none" stroke="black" points="331.5,-252 331.5,-271 435.5,-271 435.5,-252 331.5,-252"/>
<text text-anchor="middle" x="383.5" y="-259" font-family="Helvetica,sans-Serif" font-size="10.00">yaclib/util/helper.hpp</text>
</a>
</g>
</g>
<!-- Node8&#45;&gt;Node10 -->
<g id="edge13" class="edge">
<title>Node8&#45;&gt;Node10</title>
<path fill="none" stroke="midnightblue" d="M321.64,-313.4C334.45,-302.86 351.93,-288.48 365.04,-277.69"/>
<polygon fill="midnightblue" stroke="midnightblue" points="367.43,-280.25 372.93,-271.19 362.99,-274.85 367.43,-280.25"/>
</g>
<!-- Node15 -->
<g id="node15" class="node">
<title>Node15</title>
<g id="a_node15"><a xlink:href="intrusive__ptr_8hpp.html" target="_top" xlink:title=" ">
<polygon fill="none" stroke="black" points="294,-179.5 294,-209.5 391,-209.5 391,-179.5 294,-179.5"/>
<text text-anchor="start" x="302" y="-197.5" font-family="Helvetica,sans-Serif" font-size="10.00">yaclib/util/intrusive</text>
<text text-anchor="middle" x="342.5" y="-186.5" font-family="Helvetica,sans-Serif" font-size="10.00">_ptr.hpp</text>
</a>
</g>
</g>
<!-- Node8&#45;&gt;Node15 -->
<g id="edge25" class="edge">
<title>Node8&#45;&gt;Node15</title>
<path fill="none" stroke="midnightblue" d="M306.89,-313.48C309.85,-297.1 315.37,-269.28 322.5,-246 325.21,-237.15 328.78,-227.67 332.15,-219.34"/>
<polygon fill="midnightblue" stroke="midnightblue" points="335.48,-220.44 336.1,-209.87 329.02,-217.75 335.48,-220.44"/>
</g>
<!-- Node9&#45;&gt;Node6 -->
<g id="edge10" class="edge">
<title>Node9&#45;&gt;Node6</title>
<path fill="none" stroke="midnightblue" d="M408.98,-181.02C376.37,-171.09 329.88,-156.64 289.5,-143 287.11,-142.19 284.65,-141.34 282.18,-140.48"/>
<polygon fill="midnightblue" stroke="midnightblue" points="283.3,-137.16 272.71,-137.11 280.95,-143.76 283.3,-137.16"/>
</g>
<!-- Node9&#45;&gt;Node7 -->
<g id="edge11" class="edge">
<title>Node9&#45;&gt;Node7</title>
<path fill="none" stroke="midnightblue" d="M450.5,-179.4C450.5,-170.06 450.5,-157.71 450.5,-147.52"/>
<polygon fill="midnightblue" stroke="midnightblue" points="454,-147.19 450.5,-137.19 447,-147.19 454,-147.19"/>
</g>
<!-- Node11 -->
<g id="node11" class="node">
<title>Node11</title>
<g id="a_node11"><a xlink:href="atomic__counter_8hpp.html" target="_top" xlink:title=" ">
<polygon fill="none" stroke="black" points="548.5,-179.5 548.5,-209.5 652.5,-209.5 652.5,-179.5 548.5,-179.5"/>
<text text-anchor="start" x="556.5" y="-197.5" font-family="Helvetica,sans-Serif" font-size="10.00">yaclib/util/detail</text>
<text text-anchor="middle" x="600.5" y="-186.5" font-family="Helvetica,sans-Serif" font-size="10.00">/atomic_counter.hpp</text>
</a>
</g>
</g>
<!-- Node10&#45;&gt;Node11 -->
<g id="edge14" class="edge">
<title>Node10&#45;&gt;Node11</title>
<path fill="none" stroke="midnightblue" d="M412.32,-251.87C445.79,-241.84 501.83,-225.06 544.07,-212.4"/>
<polygon fill="midnightblue" stroke="midnightblue" points="545.09,-215.75 553.67,-209.53 543.08,-209.04 545.09,-215.75"/>
</g>
<!-- Node10&#45;&gt;Node15 -->
<g id="edge19" class="edge">
<title>Node10&#45;&gt;Node15</title>
<path fill="none" stroke="midnightblue" d="M377.97,-251.73C372.59,-243.2 364.18,-229.87 356.9,-218.33"/>
<polygon fill="midnightblue" stroke="midnightblue" points="359.68,-216.18 351.39,-209.59 353.76,-219.91 359.68,-216.18"/>
</g>
<!-- Node11&#45;&gt;Node7 -->
<g id="edge17" class="edge">
<title>Node11&#45;&gt;Node7</title>
<path fill="none" stroke="midnightblue" d="M565.01,-179.43C540.75,-169.64 507.96,-156.03 479.5,-143 478.5,-142.54 477.49,-142.07 476.47,-141.59"/>
<polygon fill="midnightblue" stroke="midnightblue" points="477.8,-138.35 467.27,-137.13 474.74,-144.64 477.8,-138.35"/>
</g>
<!-- Node12 -->
<g id="node12" class="node">
<title>Node12</title>
<g id="a_node12"><a xlink:title=" ">
<polygon fill="none" stroke="#bfbfbf" points="488.5,-118 488.5,-137 576.5,-137 576.5,-118 488.5,-118"/>
<text text-anchor="middle" x="532.5" y="-125" font-family="Helvetica,sans-Serif" font-size="10.00">yaclib/config.hpp</text>
</a>
</g>
</g>
<!-- Node11&#45;&gt;Node12 -->
<g id="edge15" class="edge">
<title>Node11&#45;&gt;Node12</title>
<path fill="none" stroke="midnightblue" d="M585.75,-179.4C574.93,-169.06 560.25,-155.02 549.04,-144.31"/>
<polygon fill="midnightblue" stroke="midnightblue" points="551.24,-141.57 541.6,-137.19 546.41,-146.63 551.24,-141.57"/>
</g>
<!-- Node11&#45;&gt;Node13 -->
<g id="edge16" class="edge">
<title>Node11&#45;&gt;Node13</title>
<path fill="none" stroke="midnightblue" d="M628.49,-179.4C650.83,-168.14 681.87,-152.5 703.63,-141.54"/>
<polygon fill="midnightblue" stroke="midnightblue" points="705.26,-144.63 712.62,-137.01 702.11,-138.38 705.26,-144.63"/>
</g>
<!-- Node14 -->
<g id="node14" class="node">
<title>Node14</title>
<g id="a_node14"><a xlink:title=" ">
<polygon fill="none" stroke="#bfbfbf" points="594.5,-118 594.5,-137 686.5,-137 686.5,-118 594.5,-118"/>
<text text-anchor="middle" x="640.5" y="-125" font-family="Helvetica,sans-Serif" font-size="10.00">yaclib_std/atomic</text>
</a>
</g>
</g>
<!-- Node11&#45;&gt;Node14 -->
<g id="edge18" class="edge">
<title>Node11&#45;&gt;Node14</title>
<path fill="none" stroke="midnightblue" d="M609.18,-179.4C615.23,-169.56 623.34,-156.38 629.8,-145.89"/>
<polygon fill="midnightblue" stroke="midnightblue" points="632.89,-147.55 635.15,-137.19 626.93,-143.88 632.89,-147.55"/>
</g>
<!-- Node15&#45;&gt;Node5 -->
<g id="edge20" class="edge">
<title>Node15&#45;&gt;Node5</title>
<path fill="none" stroke="midnightblue" d="M302.14,-179.4C268.78,-167.74 221.95,-151.37 190.48,-140.38"/>
<polygon fill="midnightblue" stroke="midnightblue" points="191.44,-137 180.84,-137.01 189.13,-143.61 191.44,-137"/>
</g>
<!-- Node15&#45;&gt;Node6 -->
<g id="edge21" class="edge">
<title>Node15&#45;&gt;Node6</title>
<path fill="none" stroke="midnightblue" d="M322.32,-179.4C306.87,-168.6 285.64,-153.76 270.08,-142.89"/>
<polygon fill="midnightblue" stroke="midnightblue" points="271.87,-139.87 261.67,-137.01 267.86,-145.6 271.87,-139.87"/>
</g>
<!-- Node16 -->
<g id="node16" class="node">
<title>Node16</title>
<g id="a_node16"><a xlink:href="intrusive__ptr__impl_8hpp.html" target="_top" xlink:title=" ">
<polygon fill="none" stroke="black" points="298.5,-112.5 298.5,-142.5 412.5,-142.5 412.5,-112.5 298.5,-112.5"/>
<text text-anchor="start" x="306.5" y="-130.5" font-family="Helvetica,sans-Serif" font-size="10.00">yaclib/util/detail</text>
<text text-anchor="middle" x="355.5" y="-119.5" font-family="Helvetica,sans-Serif" font-size="10.00">/intrusive_ptr_impl.hpp</text>
</a>
</g>
</g>
<!-- Node15&#45;&gt;Node16 -->
<g id="edge22" class="edge">
<title>Node15&#45;&gt;Node16</title>
<path fill="none" stroke="midnightblue" d="M345.32,-179.4C346.89,-171.56 348.88,-161.6 350.69,-152.57"/>
<polygon fill="midnightblue" stroke="midnightblue" points="354.16,-153.07 352.68,-142.58 347.29,-151.7 354.16,-153.07"/>
</g>
<!-- Node17 -->
<g id="node17" class="node">
<title>Node17</title>
<g id="a_node17"><a xlink:href="log_8hpp.html" target="_top" xlink:title=" ">
<polygon fill="none" stroke="black" points="499,-56.5 499,-75.5 574,-75.5 574,-56.5 499,-56.5"/>
<text text-anchor="middle" x="536.5" y="-63.5" font-family="Helvetica,sans-Serif" font-size="10.00">yaclib/log.hpp</text>
</a>
</g>
</g>
<!-- Node16&#45;&gt;Node17 -->
<g id="edge23" class="edge">
<title>Node16&#45;&gt;Node17</title>
<path fill="none" stroke="midnightblue" d="M398.39,-112.4C429.53,-102.16 471.19,-88.47 500.58,-78.81"/>
<polygon fill="midnightblue" stroke="midnightblue" points="502.02,-82.02 510.43,-75.57 499.83,-75.37 502.02,-82.02"/>
</g>
<!-- Node17&#45;&gt;Node18 -->
<g id="edge24" class="edge">
<title>Node17&#45;&gt;Node18</title>
<path fill="none" stroke="midnightblue" d="M541.95,-56.08C546.51,-48.61 553.17,-37.72 558.79,-28.52"/>
<polygon fill="midnightblue" stroke="midnightblue" points="561.92,-30.11 564.15,-19.75 555.95,-26.46 561.92,-30.11"/>
</g>
</g>
</svg>
        <g id="navigator" transform="translate(0 0)" fill="#404254">
                <rect fill="#f2f5e9" fill-opacity="0.5" stroke="#606060" stroke-width=".5" x="0" y="0" width="60" height="60"/>
                <use id="zoomplus" xlink:href="#zoomPlus" x="17" y="9" onmousedown="handleZoom(evt,'in')"/>
                <use id="zoomminus" xlink:href="#zoomMin" x="42" y="9" onmousedown="handleZoom(evt,'out')"/>
                <use id="reset" xlink:href="#resetDef" x="30" y="36" onmousedown="handleReset()"/>
                <g id="arrowUp" xlink:href="#dirArrow" transform="translate(30 24)" onmousedown="handlePan(0,-1)">
                  <use xlink:href="#rim" fill="#404040">
                        <set attributeName="fill" to="#808080" begin="arrowUp.mouseover" end="arrowUp.mouseout"/>
                  </use>
                  <path fill="none" stroke="white" stroke-width="1.5" d="M0,-3.0v7 M-2.5,-0.5L0,-3.0L2.5,-0.5"/>
                </g>
                <g id="arrowRight" xlink:href="#dirArrow" transform="rotate(90) translate(36 -43)" onmousedown="handlePan(1,0)">
                  <use xlink:href="#rim" fill="#404040">
                        <set attributeName="fill" to="#808080" begin="arrowRight.mouseover" end="arrowRight.mouseout"/>
                  </use>
                  <path fill="none" stroke="white" stroke-width="1.5" d="M0,-3.0v7 M-2.5,-0.5L0,-3.0L2.5,-0.5"/>
                </g>
                <g id="arrowDown" xlink:href="#dirArrow" transform="rotate(180) translate(-30 -48)" onmousedown="handlePan(0,1)">
                  <use xlink:href="#rim" fill="#404040">
                        <set attributeName="fill" to="#808080" begin="arrowDown.mouseover" end="arrowDown.mouseout"/>
                  </use>
                  <path fill="none" stroke="white" stroke-width="1.5" d="M0,-3.0v7 M-2.5,-0.5L0,-3.0L2.5,-0.5"/>
                </g>
                <g id="arrowLeft" xlink:href="#dirArrow" transform="rotate(270) translate(-36 17)" onmousedown="handlePan(-1,0)">
                  <use xlink:href="#rim" fill="#404040">
                        <set attributeName="fill" to="#808080" begin="arrowLeft.mouseover" end="arrowLeft.mouseout"/>
                  </use>
                  <path fill="none" stroke="white" stroke-width="1.5" d="M0,-3.0v7 M-2.5,-0.5L0,-3.0L2.5,-0.5"/>
                </g>
        </g>
        <svg viewBox="0 0 15 15" width="100%" height="30px" preserveAspectRatio="xMaxYMin meet">
         <g id="arrow_out" transform="scale(0.3 0.3)">
          <a xlink:href="thread__factory_8hpp__incl_org.svg" target="_base">
           <rect id="button" ry="5" rx="5" y="6" x="6" height="38" width="38"
                fill="#f2f5e9" fill-opacity="0.5" stroke="#606060" stroke-width="1.0"/>
           <path id="arrow"
             d="M 11.500037,31.436501 C 11.940474,20.09759 22.043105,11.32322 32.158766,21.979434 L 37.068811,17.246167 C 37.068811,17.246167 37.088388,32 37.088388,32 L 22.160133,31.978069 C 22.160133,31.978069 26.997745,27.140456 26.997745,27.140456 C 18.528582,18.264221 13.291696,25.230495 11.500037,31.436501 z"
             style="fill:#404040;"/>
          </a>
         </g>
        </svg>
</svg>
