<?xml version="1.0" encoding="UTF-8" standalone="no"?>
<!DOCTYPE svg PUBLIC "-//W3C//DTD SVG 1.1//EN"
 "http://www.w3.org/Graphics/SVG/1.1/DTD/svg11.dtd">
<!-- Generated by graphviz version 3.0.0 (20220413.0106)
 -->
<!-- Title: include/yaclib/executor/thread_pool.hpp Pages: 1 -->
<!--zoomable 486 -->
<svg id="main" version="1.1" xmlns="http://www.w3.org/2000/svg" xmlns:xlink="http://www.w3.org/1999/xlink" xml:space="preserve" onload="init(evt)">
<style type="text/css"><![CDATA[
.edge:hover path { stroke: red; }
.edge:hover polygon { stroke: red; fill: red; }
]]></style>
<script type="text/javascript"><![CDATA[
var edges = document.getElementsByTagName('g');
if (edges && edges.length) {
  for (var i=0;i<edges.length;i++) {
    if (edges[i].id.substr(0,4)=='edge') {
      edges[i].setAttribute('class','edge');
    }
  }
}
]]></script>
        <defs>
                <circle id="rim" cx="0" cy="0" r="7"/>
                <circle id="rim2" cx="0" cy="0" r="3.5"/>
                <g id="zoomPlus">
                        <use xlink:href="#rim" fill="#404040">
                                <set attributeName="fill" to="#808080" begin="zoomplus.mouseover" end="zoomplus.mouseout"/>
                        </use>
                        <path d="M-4,0h8M0,-4v8" fill="none" stroke="white" stroke-width="1.5" pointer-events="none"/>
                </g>
                <g id="zoomMin">
                        <use xlink:href="#rim" fill="#404040">
                                <set attributeName="fill" to="#808080" begin="zoomminus.mouseover" end="zoomminus.mouseout"/>
                        </use>
                        <path d="M-4,0h8" fill="none" stroke="white" stroke-width="1.5" pointer-events="none"/>
                </g>
                <g id="dirArrow">
                        <path fill="none" stroke="white" stroke-width="1.5" d="M0,-3.0v7 M-2.5,-0.5L0,-3.0L2.5,-0.5"/>
                </g>
               <g id="resetDef">
                       <use xlink:href="#rim2" fill="#404040">
                               <set attributeName="fill" to="#808080" begin="reset.mouseover" end="reset.mouseout"/>
                       </use>
               </g>
        </defs>

<script type="text/javascript">
var viewWidth = 740;
var viewHeight = 486;
var sectionId = 'dynsection-0';
</script>
<script xlink:href="svgpan.js"/>
<svg id="graph" class="graph">
<g id="viewport">
<title>include/yaclib/executor/thread_pool.hpp</title>
<!-- Node1 -->
<g id="node1" class="node">
<title>Node1</title>
<g id="a_node1"><a xlink:title=" ">
<polygon fill="#bfbfbf" stroke="black" points="404.5,-447.5 404.5,-477.5 519.5,-477.5 519.5,-447.5 404.5,-447.5"/>
<text text-anchor="start" x="412.5" y="-465.5" font-family="Helvetica,sans-Serif" font-size="10.00">include/yaclib/executor</text>
<text text-anchor="middle" x="462" y="-454.5" font-family="Helvetica,sans-Serif" font-size="10.00">/thread_pool.hpp</text>
</a>
</g>
</g>
<!-- Node2 -->
<g id="node2" class="node">
<title>Node2</title>
<g id="a_node2"><a xlink:href="executor_8hpp.html" target="_top" xlink:title=" ">
<polygon fill="none" stroke="black" points="484.5,-386 484.5,-405 623.5,-405 623.5,-386 484.5,-386"/>
<text text-anchor="middle" x="554" y="-393" font-family="Helvetica,sans-Serif" font-size="10.00">yaclib/executor/executor.hpp</text>
</a>
</g>
</g>
<!-- Node1&#45;&gt;Node2 -->
<g id="edge1" class="edge">
<title>Node1&#45;&gt;Node2</title>
<path fill="none" stroke="midnightblue" d="M481.96,-447.4C497.25,-436.6 518.25,-421.76 533.64,-410.89"/>
<polygon fill="midnightblue" stroke="midnightblue" points="535.81,-413.64 541.96,-405.01 531.77,-407.92 535.81,-413.64"/>
</g>
<!-- Node13 -->
<g id="node13" class="node">
<title>Node13</title>
<g id="a_node13"><a xlink:href="thread__factory_8hpp.html" target="_top" xlink:title=" ">
<polygon fill="none" stroke="black" points="335.5,-380.5 335.5,-410.5 446.5,-410.5 446.5,-380.5 335.5,-380.5"/>
<text text-anchor="start" x="343.5" y="-398.5" font-family="Helvetica,sans-Serif" font-size="10.00">yaclib/executor/thread</text>
<text text-anchor="middle" x="391" y="-387.5" font-family="Helvetica,sans-Serif" font-size="10.00">_factory.hpp</text>
</a>
</g>
</g>
<!-- Node1&#45;&gt;Node13 -->
<g id="edge14" class="edge">
<title>Node1&#45;&gt;Node13</title>
<path fill="none" stroke="midnightblue" d="M446.59,-447.4C437.01,-438.62 424.51,-427.18 413.8,-417.37"/>
<polygon fill="midnightblue" stroke="midnightblue" points="416.12,-414.75 406.38,-410.58 411.39,-419.91 416.12,-414.75"/>
</g>
<!-- Node19 -->
<g id="node19" class="node">
<title>Node19</title>
<g id="a_node19"><a xlink:title=" ">
<polygon fill="none" stroke="#bfbfbf" points="28.5,-118 28.5,-137 77.5,-137 77.5,-118 28.5,-118"/>
<text text-anchor="middle" x="53" y="-125" font-family="Helvetica,sans-Serif" font-size="10.00">cstddef</text>
</a>
</g>
</g>
<!-- Node1&#45;&gt;Node19 -->
<g id="edge35" class="edge">
<title>Node1&#45;&gt;Node19</title>
<path fill="none" stroke="midnightblue" d="M404.46,-455.46C290.06,-441.86 45,-404.01 45,-329.5 45,-329.5 45,-329.5 45,-260.5 45,-220.08 48.78,-172.83 51.15,-147.26"/>
<polygon fill="midnightblue" stroke="midnightblue" points="54.65,-147.43 52.11,-137.14 47.68,-146.76 54.65,-147.43"/>
</g>
<!-- Node21 -->
<g id="node21" class="node">
<title>Node21</title>
<g id="a_node21"><a xlink:title=" ">
<polygon fill="none" stroke="#bfbfbf" points="642,-386 642,-405 732,-405 732,-386 642,-386"/>
<text text-anchor="middle" x="687" y="-393" font-family="Helvetica,sans-Serif" font-size="10.00">yaclib_std/thread</text>
</a>
</g>
</g>
<!-- Node1&#45;&gt;Node21 -->
<g id="edge36" class="edge">
<title>Node1&#45;&gt;Node21</title>
<path fill="none" stroke="midnightblue" d="M510.54,-447.48C551.58,-435.62 609.61,-418.86 647.75,-407.84"/>
<polygon fill="midnightblue" stroke="midnightblue" points="648.84,-411.17 657.48,-405.03 646.9,-404.44 648.84,-411.17"/>
</g>
<!-- Node3 -->
<g id="node3" class="node">
<title>Node3</title>
<g id="a_node3"><a xlink:href="job_8hpp.html" target="_top" xlink:title=" ">
<polygon fill="none" stroke="black" points="499.5,-319 499.5,-338 614.5,-338 614.5,-319 499.5,-319"/>
<text text-anchor="middle" x="557" y="-326" font-family="Helvetica,sans-Serif" font-size="10.00">yaclib/executor/job.hpp</text>
</a>
</g>
</g>
<!-- Node2&#45;&gt;Node3 -->
<g id="edge2" class="edge">
<title>Node2&#45;&gt;Node3</title>
<path fill="none" stroke="midnightblue" d="M554.4,-385.73C554.85,-376.18 555.56,-360.62 556.13,-348.28"/>
<polygon fill="midnightblue" stroke="midnightblue" points="559.64,-348.28 556.6,-338.13 552.64,-347.96 559.64,-348.28"/>
</g>
<!-- Node9 -->
<g id="node9" class="node">
<title>Node9</title>
<g id="a_node9"><a xlink:href="intrusive__ptr_8hpp.html" target="_top" xlink:title=" ">
<polygon fill="none" stroke="black" points="526.5,-179.5 526.5,-209.5 623.5,-209.5 623.5,-179.5 526.5,-179.5"/>
<text text-anchor="start" x="534.5" y="-197.5" font-family="Helvetica,sans-Serif" font-size="10.00">yaclib/util/intrusive</text>
<text text-anchor="middle" x="575" y="-186.5" font-family="Helvetica,sans-Serif" font-size="10.00">_ptr.hpp</text>
</a>
</g>
</g>
<!-- Node2&#45;&gt;Node9 -->
<g id="edge8" class="edge">
<title>Node2&#45;&gt;Node9</title>
<path fill="none" stroke="midnightblue" d="M572.75,-385.95C588.79,-377.61 611.11,-363.35 623,-344 638.79,-318.29 631.55,-307.08 634,-277 635.12,-263.27 639.76,-258.52 634,-246 628.44,-233.92 618.4,-223.65 608.17,-215.59"/>
<polygon fill="midnightblue" stroke="midnightblue" points="610.14,-212.7 600,-209.61 606,-218.34 610.14,-212.7"/>
</g>
<!-- Node4 -->
<g id="node4" class="node">
<title>Node4</title>
<g id="a_node4"><a xlink:href="node_8hpp.html" target="_top" xlink:title=" ">
<polygon fill="none" stroke="black" points="525.5,-246.5 525.5,-276.5 608.5,-276.5 608.5,-246.5 525.5,-246.5"/>
<text text-anchor="start" x="533.5" y="-264.5" font-family="Helvetica,sans-Serif" font-size="10.00">yaclib/util/detail</text>
<text text-anchor="middle" x="567" y="-253.5" font-family="Helvetica,sans-Serif" font-size="10.00">/node.hpp</text>
</a>
</g>
</g>
<!-- Node3&#45;&gt;Node4 -->
<g id="edge3" class="edge">
<title>Node3&#45;&gt;Node4</title>
<path fill="none" stroke="midnightblue" d="M558.35,-318.73C559.61,-310.54 561.55,-297.92 563.27,-286.71"/>
<polygon fill="midnightblue" stroke="midnightblue" points="566.77,-287 564.83,-276.59 559.85,-285.94 566.77,-287"/>
</g>
<!-- Node5 -->
<g id="node5" class="node">
<title>Node5</title>
<g id="a_node5"><a xlink:href="func_8hpp.html" target="_top" xlink:title=" ">
<polygon fill="none" stroke="black" points="411.5,-185 411.5,-204 508.5,-204 508.5,-185 411.5,-185"/>
<text text-anchor="middle" x="460" y="-192" font-family="Helvetica,sans-Serif" font-size="10.00">yaclib/util/func.hpp</text>
</a>
</g>
</g>
<!-- Node3&#45;&gt;Node5 -->
<g id="edge4" class="edge">
<title>Node3&#45;&gt;Node5</title>
<path fill="none" stroke="midnightblue" d="M571.57,-318.95C594.98,-304.14 636.46,-272.69 617,-246 610.08,-236.5 547.44,-218.41 503.41,-206.66"/>
<polygon fill="midnightblue" stroke="midnightblue" points="504.06,-203.21 493.49,-204.03 502.27,-209.98 504.06,-203.21"/>
</g>
<!-- Node6 -->
<g id="node6" class="node">
<title>Node6</title>
<g id="a_node6"><a xlink:href="ref_8hpp.html" target="_top" xlink:title=" ">
<polygon fill="none" stroke="black" points="448.5,-118 448.5,-137 537.5,-137 537.5,-118 448.5,-118"/>
<text text-anchor="middle" x="493" y="-125" font-family="Helvetica,sans-Serif" font-size="10.00">yaclib/util/ref.hpp</text>
</a>
</g>
</g>
<!-- Node5&#45;&gt;Node6 -->
<g id="edge5" class="edge">
<title>Node5&#45;&gt;Node6</title>
<path fill="none" stroke="midnightblue" d="M464.45,-184.73C469.45,-174.89 477.69,-158.66 484.03,-146.16"/>
<polygon fill="midnightblue" stroke="midnightblue" points="487.21,-147.63 488.62,-137.13 480.97,-144.46 487.21,-147.63"/>
</g>
<!-- Node7 -->
<g id="node7" class="node">
<title>Node7</title>
<g id="a_node7"><a xlink:title=" ">
<polygon fill="none" stroke="#bfbfbf" points="369,-118 369,-137 431,-137 431,-118 369,-118"/>
<text text-anchor="middle" x="400" y="-125" font-family="Helvetica,sans-Serif" font-size="10.00">type_traits</text>
</a>
</g>
</g>
<!-- Node5&#45;&gt;Node7 -->
<g id="edge6" class="edge">
<title>Node5&#45;&gt;Node7</title>
<path fill="none" stroke="midnightblue" d="M451.91,-184.73C442.46,-174.5 426.64,-157.36 414.95,-144.69"/>
<polygon fill="midnightblue" stroke="midnightblue" points="417.32,-142.1 407.96,-137.13 412.17,-146.85 417.32,-142.1"/>
</g>
<!-- Node8 -->
<g id="node8" class="node">
<title>Node8</title>
<g id="a_node8"><a xlink:title=" ">
<polygon fill="none" stroke="#bfbfbf" points="311.5,-118 311.5,-137 350.5,-137 350.5,-118 311.5,-118"/>
<text text-anchor="middle" x="331" y="-125" font-family="Helvetica,sans-Serif" font-size="10.00">utility</text>
</a>
</g>
</g>
<!-- Node5&#45;&gt;Node8 -->
<g id="edge7" class="edge">
<title>Node5&#45;&gt;Node8</title>
<path fill="none" stroke="midnightblue" d="M442.87,-184.87C420.99,-173.84 382.91,-154.66 357.33,-141.77"/>
<polygon fill="midnightblue" stroke="midnightblue" points="358.71,-138.54 348.2,-137.17 355.56,-144.79 358.71,-138.54"/>
</g>
<!-- Node9&#45;&gt;Node6 -->
<g id="edge9" class="edge">
<title>Node9&#45;&gt;Node6</title>
<path fill="none" stroke="midnightblue" d="M557.21,-179.4C543.92,-168.86 525.77,-154.48 512.16,-143.69"/>
<polygon fill="midnightblue" stroke="midnightblue" points="513.98,-140.66 503.97,-137.19 509.63,-146.15 513.98,-140.66"/>
</g>
<!-- Node9&#45;&gt;Node7 -->
<g id="edge10" class="edge">
<title>Node9&#45;&gt;Node7</title>
<path fill="none" stroke="midnightblue" d="M537.19,-179.46C509.9,-169.33 472.17,-155.33 439,-143 436.91,-142.22 434.76,-141.42 432.58,-140.62"/>
<polygon fill="midnightblue" stroke="midnightblue" points="433.69,-137.29 423.1,-137.09 431.25,-143.85 433.69,-137.29"/>
</g>
<!-- Node10 -->
<g id="node10" class="node">
<title>Node10</title>
<g id="a_node10"><a xlink:href="intrusive__ptr__impl_8hpp.html" target="_top" xlink:title=" ">
<polygon fill="none" stroke="black" points="556,-112.5 556,-142.5 670,-142.5 670,-112.5 556,-112.5"/>
<text text-anchor="start" x="564" y="-130.5" font-family="Helvetica,sans-Serif" font-size="10.00">yaclib/util/detail</text>
<text text-anchor="middle" x="613" y="-119.5" font-family="Helvetica,sans-Serif" font-size="10.00">/intrusive_ptr_impl.hpp</text>
</a>
</g>
</g>
<!-- Node9&#45;&gt;Node10 -->
<g id="edge11" class="edge">
<title>Node9&#45;&gt;Node10</title>
<path fill="none" stroke="midnightblue" d="M583.25,-179.4C588.03,-171.22 594.16,-160.73 599.62,-151.39"/>
<polygon fill="midnightblue" stroke="midnightblue" points="602.75,-152.98 604.77,-142.58 596.7,-149.44 602.75,-152.98"/>
</g>
<!-- Node11 -->
<g id="node11" class="node">
<title>Node11</title>
<g id="a_node11"><a xlink:href="log_8hpp.html" target="_top" xlink:title=" ">
<polygon fill="none" stroke="black" points="301.5,-56.5 301.5,-75.5 376.5,-75.5 376.5,-56.5 301.5,-56.5"/>
<text text-anchor="middle" x="339" y="-63.5" font-family="Helvetica,sans-Serif" font-size="10.00">yaclib/log.hpp</text>
</a>
</g>
</g>
<!-- Node10&#45;&gt;Node11 -->
<g id="edge12" class="edge">
<title>Node10&#45;&gt;Node11</title>
<path fill="none" stroke="midnightblue" d="M555.89,-114.1C505.78,-103.22 433.73,-87.57 386.65,-77.35"/>
<polygon fill="midnightblue" stroke="midnightblue" points="387.22,-73.89 376.71,-75.19 385.74,-80.73 387.22,-73.89"/>
</g>
<!-- Node12 -->
<g id="node12" class="node">
<title>Node12</title>
<g id="a_node12"><a xlink:title=" ">
<polygon fill="none" stroke="#bfbfbf" points="0,-0.5 0,-19.5 66,-19.5 66,-0.5 0,-0.5"/>
<text text-anchor="middle" x="33" y="-7.5" font-family="Helvetica,sans-Serif" font-size="10.00">string_view</text>
</a>
</g>
</g>
<!-- Node11&#45;&gt;Node12 -->
<g id="edge13" class="edge">
<title>Node11&#45;&gt;Node12</title>
<path fill="none" stroke="midnightblue" d="M301.48,-58.38C244.45,-48.32 136.26,-29.22 76.09,-18.6"/>
<polygon fill="midnightblue" stroke="midnightblue" points="76.6,-15.14 66.15,-16.85 75.39,-22.03 76.6,-15.14"/>
</g>
<!-- Node13&#45;&gt;Node3 -->
<g id="edge15" class="edge">
<title>Node13&#45;&gt;Node3</title>
<path fill="none" stroke="midnightblue" d="M427.02,-380.4C456.53,-368.84 497.86,-352.66 525.94,-341.66"/>
<polygon fill="midnightblue" stroke="midnightblue" points="527.24,-344.91 535.27,-338.01 524.69,-338.39 527.24,-344.91"/>
</g>
<!-- Node13&#45;&gt;Node4 -->
<g id="edge16" class="edge">
<title>Node13&#45;&gt;Node4</title>
<path fill="none" stroke="midnightblue" d="M407.03,-380.39C426.26,-363.68 459.7,-335.31 490,-313 504.47,-302.35 521.07,-291.32 535.15,-282.29"/>
<polygon fill="midnightblue" stroke="midnightblue" points="537.43,-284.99 543.99,-276.67 533.67,-279.08 537.43,-284.99"/>
</g>
<!-- Node13&#45;&gt;Node12 -->
<g id="edge34" class="edge">
<title>Node13&#45;&gt;Node12</title>
<path fill="none" stroke="midnightblue" d="M335.39,-387.54C227.45,-372.48 0,-332.44 0,-262.5 0,-262.5 0,-262.5 0,-126.5 0,-90.85 14.71,-51.32 24.49,-28.98"/>
<polygon fill="midnightblue" stroke="midnightblue" points="27.74,-30.29 28.69,-19.74 21.36,-27.4 27.74,-30.29"/>
</g>
<!-- Node14 -->
<g id="node14" class="node">
<title>Node14</title>
<g id="a_node14"><a xlink:href="shared__func_8hpp.html" target="_top" xlink:title=" ">
<polygon fill="none" stroke="black" points="340.5,-313.5 340.5,-343.5 431.5,-343.5 431.5,-313.5 340.5,-313.5"/>
<text text-anchor="start" x="348.5" y="-331.5" font-family="Helvetica,sans-Serif" font-size="10.00">yaclib/util/detail</text>
<text text-anchor="middle" x="386" y="-320.5" font-family="Helvetica,sans-Serif" font-size="10.00">/shared_func.hpp</text>
</a>
</g>
</g>
<!-- Node13&#45;&gt;Node14 -->
<g id="edge17" class="edge">
<title>Node13&#45;&gt;Node14</title>
<path fill="none" stroke="midnightblue" d="M389.92,-380.4C389.31,-372.56 388.55,-362.6 387.85,-353.57"/>
<polygon fill="midnightblue" stroke="midnightblue" points="391.34,-353.28 387.08,-343.58 384.36,-353.82 391.34,-353.28"/>
</g>
<!-- Node13&#45;&gt;Node19 -->
<g id="edge33" class="edge">
<title>Node13&#45;&gt;Node19</title>
<path fill="none" stroke="midnightblue" d="M335.5,-386.24C270.75,-373.75 164.6,-343.97 102,-277 84.02,-257.76 65.15,-182.4 57.07,-147.02"/>
<polygon fill="midnightblue" stroke="midnightblue" points="60.44,-146.06 54.83,-137.07 53.61,-147.59 60.44,-146.06"/>
</g>
<!-- Node14&#45;&gt;Node5 -->
<g id="edge21" class="edge">
<title>Node14&#45;&gt;Node5</title>
<path fill="none" stroke="midnightblue" d="M393.92,-313.37C407.54,-289.08 435.37,-239.44 450.19,-213"/>
<polygon fill="midnightblue" stroke="midnightblue" points="453.34,-214.53 455.18,-204.1 447.24,-211.11 453.34,-214.53"/>
</g>
<!-- Node14&#45;&gt;Node6 -->
<g id="edge30" class="edge">
<title>Node14&#45;&gt;Node6</title>
<path fill="none" stroke="midnightblue" d="M414.97,-313.32C433.5,-303.84 457.76,-290.65 478,-277 496.07,-264.82 496.8,-256.31 516,-246 563.56,-220.47 599.98,-253.46 632,-210 640.17,-198.91 639.91,-190.28 632,-179 625.96,-170.39 570.71,-152.11 531.71,-140.07"/>
<polygon fill="midnightblue" stroke="midnightblue" points="532.28,-136.58 521.7,-137 530.23,-143.28 532.28,-136.58"/>
</g>
<!-- Node14&#45;&gt;Node7 -->
<g id="edge31" class="edge">
<title>Node14&#45;&gt;Node7</title>
<path fill="none" stroke="midnightblue" d="M387.01,-313.19C389.48,-277.99 395.87,-187.17 398.66,-147.51"/>
<polygon fill="midnightblue" stroke="midnightblue" points="402.17,-147.58 399.38,-137.36 395.18,-147.09 402.17,-147.58"/>
</g>
<!-- Node14&#45;&gt;Node8 -->
<g id="edge32" class="edge">
<title>Node14&#45;&gt;Node8</title>
<path fill="none" stroke="midnightblue" d="M362,-313.48C332.06,-294.44 282.33,-257.27 262,-210 256.56,-197.34 255.77,-191.29 262,-179 266.98,-169.19 289.31,-153.82 307.24,-142.61"/>
<polygon fill="midnightblue" stroke="midnightblue" points="309.4,-145.39 316.1,-137.18 305.74,-139.42 309.4,-145.39"/>
</g>
<!-- Node14&#45;&gt;Node9 -->
<g id="edge29" class="edge">
<title>Node14&#45;&gt;Node9</title>
<path fill="none" stroke="midnightblue" d="M401.04,-313.24C419.5,-296.13 452.15,-267.13 483,-246 500,-234.36 519.93,-223.15 536.88,-214.26"/>
<polygon fill="midnightblue" stroke="midnightblue" points="538.68,-217.28 545.96,-209.58 535.47,-211.06 538.68,-217.28"/>
</g>
<!-- Node15 -->
<g id="node15" class="node">
<title>Node15</title>
<g id="a_node15"><a xlink:href="safe__call_8hpp.html" target="_top" xlink:title=" ">
<polygon fill="none" stroke="black" points="271.5,-179.5 271.5,-209.5 354.5,-209.5 354.5,-179.5 271.5,-179.5"/>
<text text-anchor="start" x="279.5" y="-197.5" font-family="Helvetica,sans-Serif" font-size="10.00">yaclib/util/detail</text>
<text text-anchor="middle" x="313" y="-186.5" font-family="Helvetica,sans-Serif" font-size="10.00">/safe_call.hpp</text>
</a>
</g>
</g>
<!-- Node14&#45;&gt;Node15 -->
<g id="edge18" class="edge">
<title>Node14&#45;&gt;Node15</title>
<path fill="none" stroke="midnightblue" d="M378.19,-313.37C365.62,-290.65 340.79,-245.75 325.67,-218.4"/>
<polygon fill="midnightblue" stroke="midnightblue" points="328.66,-216.58 320.76,-209.52 322.53,-219.97 328.66,-216.58"/>
</g>
<!-- Node16 -->
<g id="node16" class="node">
<title>Node16</title>
<g id="a_node16"><a xlink:href="helper_8hpp.html" target="_top" xlink:title=" ">
<polygon fill="none" stroke="black" points="111,-252 111,-271 215,-271 215,-252 111,-252"/>
<text text-anchor="middle" x="163" y="-259" font-family="Helvetica,sans-Serif" font-size="10.00">yaclib/util/helper.hpp</text>
</a>
</g>
</g>
<!-- Node14&#45;&gt;Node16 -->
<g id="edge22" class="edge">
<title>Node14&#45;&gt;Node16</title>
<path fill="none" stroke="midnightblue" d="M340.33,-314.19C299.63,-302.32 240.68,-285.14 202.11,-273.9"/>
<polygon fill="midnightblue" stroke="midnightblue" points="202.86,-270.47 192.28,-271.03 200.9,-277.19 202.86,-270.47"/>
</g>
<!-- Node15&#45;&gt;Node7 -->
<g id="edge19" class="edge">
<title>Node15&#45;&gt;Node7</title>
<path fill="none" stroke="midnightblue" d="M331.88,-179.4C346.11,-168.76 365.6,-154.2 380.08,-143.38"/>
<polygon fill="midnightblue" stroke="midnightblue" points="382.45,-145.98 388.36,-137.19 378.26,-140.38 382.45,-145.98"/>
</g>
<!-- Node15&#45;&gt;Node8 -->
<g id="edge20" class="edge">
<title>Node15&#45;&gt;Node8</title>
<path fill="none" stroke="midnightblue" d="M316.91,-179.4C319.55,-169.86 323.06,-157.18 325.92,-146.86"/>
<polygon fill="midnightblue" stroke="midnightblue" points="329.3,-147.77 328.59,-137.19 322.55,-145.9 329.3,-147.77"/>
</g>
<!-- Node16&#45;&gt;Node9 -->
<g id="edge28" class="edge">
<title>Node16&#45;&gt;Node9</title>
<path fill="none" stroke="midnightblue" d="M215.17,-254.77C282.51,-246.99 403.44,-231.74 516.48,-209.97"/>
<polygon fill="midnightblue" stroke="midnightblue" points="517.2,-213.4 526.35,-208.05 515.86,-206.53 517.2,-213.4"/>
</g>
<!-- Node17 -->
<g id="node17" class="node">
<title>Node17</title>
<g id="a_node17"><a xlink:href="atomic__counter_8hpp.html" target="_top" xlink:title=" ">
<polygon fill="none" stroke="black" points="111,-179.5 111,-209.5 215,-209.5 215,-179.5 111,-179.5"/>
<text text-anchor="start" x="119" y="-197.5" font-family="Helvetica,sans-Serif" font-size="10.00">yaclib/util/detail</text>
<text text-anchor="middle" x="163" y="-186.5" font-family="Helvetica,sans-Serif" font-size="10.00">/atomic_counter.hpp</text>
</a>
</g>
</g>
<!-- Node16&#45;&gt;Node17 -->
<g id="edge23" class="edge">
<title>Node16&#45;&gt;Node17</title>
<path fill="none" stroke="midnightblue" d="M163,-251.73C163,-243.54 163,-230.92 163,-219.71"/>
<polygon fill="midnightblue" stroke="midnightblue" points="166.5,-219.59 163,-209.59 159.5,-219.59 166.5,-219.59"/>
</g>
<!-- Node17&#45;&gt;Node8 -->
<g id="edge26" class="edge">
<title>Node17&#45;&gt;Node8</title>
<path fill="none" stroke="midnightblue" d="M205.46,-179.5C233.24,-169.99 270.16,-156.69 302,-143 303.16,-142.5 304.35,-141.98 305.54,-141.44"/>
<polygon fill="midnightblue" stroke="midnightblue" points="307.07,-144.58 314.59,-137.11 304.06,-138.26 307.07,-144.58"/>
</g>
<!-- Node18 -->
<g id="node18" class="node">
<title>Node18</title>
<g id="a_node18"><a xlink:title=" ">
<polygon fill="none" stroke="#bfbfbf" points="95,-118 95,-137 183,-137 183,-118 95,-118"/>
<text text-anchor="middle" x="139" y="-125" font-family="Helvetica,sans-Serif" font-size="10.00">yaclib/config.hpp</text>
</a>
</g>
</g>
<!-- Node17&#45;&gt;Node18 -->
<g id="edge24" class="edge">
<title>Node17&#45;&gt;Node18</title>
<path fill="none" stroke="midnightblue" d="M157.79,-179.4C154.27,-169.86 149.59,-157.18 145.78,-146.86"/>
<polygon fill="midnightblue" stroke="midnightblue" points="148.96,-145.36 142.21,-137.19 142.39,-147.79 148.96,-145.36"/>
</g>
<!-- Node17&#45;&gt;Node19 -->
<g id="edge25" class="edge">
<title>Node17&#45;&gt;Node19</title>
<path fill="none" stroke="midnightblue" d="M139.13,-179.4C120.43,-168.34 94.56,-153.06 76.07,-142.13"/>
<polygon fill="midnightblue" stroke="midnightblue" points="77.79,-139.08 67.4,-137.01 74.23,-145.11 77.79,-139.08"/>
</g>
<!-- Node20 -->
<g id="node20" class="node">
<title>Node20</title>
<g id="a_node20"><a xlink:title=" ">
<polygon fill="none" stroke="#bfbfbf" points="201,-118 201,-137 293,-137 293,-118 201,-118"/>
<text text-anchor="middle" x="247" y="-125" font-family="Helvetica,sans-Serif" font-size="10.00">yaclib_std/atomic</text>
</a>
</g>
</g>
<!-- Node17&#45;&gt;Node20 -->
<g id="edge27" class="edge">
<title>Node17&#45;&gt;Node20</title>
<path fill="none" stroke="midnightblue" d="M181.23,-179.4C194.97,-168.76 213.78,-154.2 227.77,-143.38"/>
<polygon fill="midnightblue" stroke="midnightblue" points="230,-146.08 235.76,-137.19 225.71,-140.55 230,-146.08"/>
</g>
</g>
</svg>
        <g id="navigator" transform="translate(0 0)" fill="#404254">
                <rect fill="#f2f5e9" fill-opacity="0.5" stroke="#606060" stroke-width=".5" x="0" y="0" width="60" height="60"/>
                <use id="zoomplus" xlink:href="#zoomPlus" x="17" y="9" onmousedown="handleZoom(evt,'in')"/>
                <use id="zoomminus" xlink:href="#zoomMin" x="42" y="9" onmousedown="handleZoom(evt,'out')"/>
                <use id="reset" xlink:href="#resetDef" x="30" y="36" onmousedown="handleReset()"/>
                <g id="arrowUp" xlink:href="#dirArrow" transform="translate(30 24)" onmousedown="handlePan(0,-1)">
                  <use xlink:href="#rim" fill="#404040">
                        <set attributeName="fill" to="#808080" begin="arrowUp.mouseover" end="arrowUp.mouseout"/>
                  </use>
                  <path fill="none" stroke="white" stroke-width="1.5" d="M0,-3.0v7 M-2.5,-0.5L0,-3.0L2.5,-0.5"/>
                </g>
                <g id="arrowRight" xlink:href="#dirArrow" transform="rotate(90) translate(36 -43)" onmousedown="handlePan(1,0)">
                  <use xlink:href="#rim" fill="#404040">
                        <set attributeName="fill" to="#808080" begin="arrowRight.mouseover" end="arrowRight.mouseout"/>
                  </use>
                  <path fill="none" stroke="white" stroke-width="1.5" d="M0,-3.0v7 M-2.5,-0.5L0,-3.0L2.5,-0.5"/>
                </g>
                <g id="arrowDown" xlink:href="#dirArrow" transform="rotate(180) translate(-30 -48)" onmousedown="handlePan(0,1)">
                  <use xlink:href="#rim" fill="#404040">
                        <set attributeName="fill" to="#808080" begin="arrowDown.mouseover" end="arrowDown.mouseout"/>
                  </use>
                  <path fill="none" stroke="white" stroke-width="1.5" d="M0,-3.0v7 M-2.5,-0.5L0,-3.0L2.5,-0.5"/>
                </g>
                <g id="arrowLeft" xlink:href="#dirArrow" transform="rotate(270) translate(-36 17)" onmousedown="handlePan(-1,0)">
                  <use xlink:href="#rim" fill="#404040">
                        <set attributeName="fill" to="#808080" begin="arrowLeft.mouseover" end="arrowLeft.mouseout"/>
                  </use>
                  <path fill="none" stroke="white" stroke-width="1.5" d="M0,-3.0v7 M-2.5,-0.5L0,-3.0L2.5,-0.5"/>
                </g>
        </g>
        <svg viewBox="0 0 15 15" width="100%" height="30px" preserveAspectRatio="xMaxYMin meet">
         <g id="arrow_out" transform="scale(0.3 0.3)">
          <a xlink:href="thread__pool_8hpp__incl_org.svg" target="_base">
           <rect id="button" ry="5" rx="5" y="6" x="6" height="38" width="38"
                fill="#f2f5e9" fill-opacity="0.5" stroke="#606060" stroke-width="1.0"/>
           <path id="arrow"
             d="M 11.500037,31.436501 C 11.940474,20.09759 22.043105,11.32322 32.158766,21.979434 L 37.068811,17.246167 C 37.068811,17.246167 37.088388,32 37.088388,32 L 22.160133,31.978069 C 22.160133,31.978069 26.997745,27.140456 26.997745,27.140456 C 18.528582,18.264221 13.291696,25.230495 11.500037,31.436501 z"
             style="fill:#404040;"/>
          </a>
         </g>
        </svg>
</svg>
