<?xml version="1.0" encoding="UTF-8" standalone="no"?>
<!DOCTYPE svg PUBLIC "-//W3C//DTD SVG 1.1//EN"
 "http://www.w3.org/Graphics/SVG/1.1/DTD/svg11.dtd">
<!-- Generated by graphviz version 3.0.0 (20220413.0106)
 -->
<!-- Title: include/yaclib/util/type_traits.hpp Pages: 1 -->
<!--zoomable 575 -->
<svg id="main" version="1.1" xmlns="http://www.w3.org/2000/svg" xmlns:xlink="http://www.w3.org/1999/xlink" xml:space="preserve" onload="init(evt)">
<style type="text/css"><![CDATA[
.edge:hover path { stroke: red; }
.edge:hover polygon { stroke: red; fill: red; }
]]></style>
<script type="text/javascript"><![CDATA[
var edges = document.getElementsByTagName('g');
if (edges && edges.length) {
  for (var i=0;i<edges.length;i++) {
    if (edges[i].id.substr(0,4)=='edge') {
      edges[i].setAttribute('class','edge');
    }
  }
}
]]></script>
        <defs>
                <circle id="rim" cx="0" cy="0" r="7"/>
                <circle id="rim2" cx="0" cy="0" r="3.5"/>
                <g id="zoomPlus">
                        <use xlink:href="#rim" fill="#404040">
                                <set attributeName="fill" to="#808080" begin="zoomplus.mouseover" end="zoomplus.mouseout"/>
                        </use>
                        <path d="M-4,0h8M0,-4v8" fill="none" stroke="white" stroke-width="1.5" pointer-events="none"/>
                </g>
                <g id="zoomMin">
                        <use xlink:href="#rim" fill="#404040">
                                <set attributeName="fill" to="#808080" begin="zoomminus.mouseover" end="zoomminus.mouseout"/>
                        </use>
                        <path d="M-4,0h8" fill="none" stroke="white" stroke-width="1.5" pointer-events="none"/>
                </g>
                <g id="dirArrow">
                        <path fill="none" stroke="white" stroke-width="1.5" d="M0,-3.0v7 M-2.5,-0.5L0,-3.0L2.5,-0.5"/>
                </g>
               <g id="resetDef">
                       <use xlink:href="#rim2" fill="#404040">
                               <set attributeName="fill" to="#808080" begin="reset.mouseover" end="reset.mouseout"/>
                       </use>
               </g>
        </defs>

<script type="text/javascript">
var viewWidth = 1825;
var viewHeight = 575;
var sectionId = 'dynsection-1';
</script>
<script xlink:href="svgpan.js"/>
<svg id="graph" class="graph">
<g id="viewport">
<title>include/yaclib/util/type_traits.hpp</title>
<!-- Node1 -->
<g id="node1" class="node">
<title>Node1</title>
<g id="a_node1"><a xlink:title=" ">
<polygon fill="#bfbfbf" stroke="black" points="544,-536.5 544,-566.5 635,-566.5 635,-536.5 544,-536.5"/>
<text text-anchor="start" x="552" y="-554.5" font-family="Helvetica,sans-Serif" font-size="10.00">include/yaclib/util</text>
<text text-anchor="middle" x="589.5" y="-543.5" font-family="Helvetica,sans-Serif" font-size="10.00">/type_traits.hpp</text>
</a>
</g>
</g>
<!-- Node2 -->
<g id="node2" class="node">
<title>Node2</title>
<g id="a_node2"><a xlink:href="wait__group__impl_8hpp.html" target="_top" xlink:title=" ">
<polygon fill="none" stroke="black" points="124.5,-469.5 124.5,-499.5 258.5,-499.5 258.5,-469.5 124.5,-469.5"/>
<text text-anchor="start" x="132.5" y="-487.5" font-family="Helvetica,sans-Serif" font-size="10.00">include/yaclib/algo</text>
<text text-anchor="middle" x="191.5" y="-476.5" font-family="Helvetica,sans-Serif" font-size="10.00">/detail/wait_group_impl.hpp</text>
</a>
</g>
</g>
<!-- Node1&#45;&gt;Node2 -->
<g id="edge1" class="edge">
<title>Node1&#45;&gt;Node2</title>
<path fill="none" stroke="midnightblue" d="M533.61,-541.93C470.24,-532.13 363.85,-515.45 272.5,-500 267.99,-499.24 263.35,-498.44 258.67,-497.63"/>
<polygon fill="midnightblue" stroke="midnightblue" points="533.37,-545.43 543.78,-543.5 534.44,-538.51 533.37,-545.43"/>
</g>
<!-- Node3 -->
<g id="node3" class="node">
<title>Node3</title>
<g id="a_node3"><a xlink:href="wait__group_8hpp.html" target="_top" xlink:title=" ">
<polygon fill="none" stroke="black" points="53.5,-134.5 53.5,-164.5 149.5,-164.5 149.5,-134.5 53.5,-134.5"/>
<text text-anchor="start" x="61.5" y="-152.5" font-family="Helvetica,sans-Serif" font-size="10.00">include/yaclib/algo</text>
<text text-anchor="middle" x="101.5" y="-141.5" font-family="Helvetica,sans-Serif" font-size="10.00">/wait_group.hpp</text>
</a>
</g>
</g>
<!-- Node1&#45;&gt;Node3 -->
<g id="edge35" class="edge">
<title>Node1&#45;&gt;Node3</title>
<path fill="none" stroke="midnightblue" d="M533.61,-548.14C414.98,-542.62 146.31,-527.24 115.5,-500 87.63,-475.36 96.5,-455.69 96.5,-418.5 96.5,-418.5 96.5,-418.5 96.5,-282.5 96.5,-239.62 99.17,-188.95 100.61,-164.75"/>
<polygon fill="midnightblue" stroke="midnightblue" points="533.78,-551.65 543.93,-548.61 534.1,-544.66 533.78,-551.65"/>
</g>
<!-- Node5 -->
<g id="node5" class="node">
<title>Node5</title>
<g id="a_node5"><a xlink:href="wait__impl_8hpp.html" target="_top" xlink:title=" ">
<polygon fill="none" stroke="black" points="537,-402.5 537,-432.5 642,-432.5 642,-402.5 537,-402.5"/>
<text text-anchor="start" x="545" y="-420.5" font-family="Helvetica,sans-Serif" font-size="10.00">include/yaclib/algo</text>
<text text-anchor="middle" x="589.5" y="-409.5" font-family="Helvetica,sans-Serif" font-size="10.00">/detail/wait_impl.hpp</text>
</a>
</g>
</g>
<!-- Node1&#45;&gt;Node5 -->
<g id="edge4" class="edge">
<title>Node1&#45;&gt;Node5</title>
<path fill="none" stroke="midnightblue" d="M589.5,-526.02C589.5,-498.51 589.5,-454.79 589.5,-432.52"/>
<polygon fill="midnightblue" stroke="midnightblue" points="586,-526.37 589.5,-536.37 593,-526.37 586,-526.37"/>
</g>
<!-- Node8 -->
<g id="node8" class="node">
<title>Node8</title>
<g id="a_node8"><a xlink:href="future_8hpp.html" target="_top" xlink:title=" ">
<polygon fill="none" stroke="black" points="812.5,-201.5 812.5,-231.5 916.5,-231.5 916.5,-201.5 812.5,-201.5"/>
<text text-anchor="start" x="820.5" y="-219.5" font-family="Helvetica,sans-Serif" font-size="10.00">include/yaclib/async</text>
<text text-anchor="middle" x="864.5" y="-208.5" font-family="Helvetica,sans-Serif" font-size="10.00">/future.hpp</text>
</a>
</g>
</g>
<!-- Node1&#45;&gt;Node8 -->
<g id="edge38" class="edge">
<title>Node1&#45;&gt;Node8</title>
<path fill="none" stroke="midnightblue" d="M645.23,-549.51C730.58,-546.83 888.03,-536.88 928.5,-500 956.07,-474.88 948.5,-455.8 948.5,-418.5 948.5,-418.5 948.5,-418.5 948.5,-349.5 948.5,-312.31 949.56,-299.32 929.5,-268 919.79,-252.84 903.89,-240.37 890.25,-231.61"/>
<polygon fill="midnightblue" stroke="midnightblue" points="645.09,-546.02 635.2,-549.81 645.29,-553.01 645.09,-546.02"/>
</g>
<!-- Node10 -->
<g id="node10" class="node">
<title>Node10</title>
<g id="a_node10"><a xlink:href="when__all_8hpp.html" target="_top" xlink:title=" ">
<polygon fill="none" stroke="black" points="1244.5,-67.5 1244.5,-97.5 1340.5,-97.5 1340.5,-67.5 1244.5,-67.5"/>
<text text-anchor="start" x="1252.5" y="-85.5" font-family="Helvetica,sans-Serif" font-size="10.00">include/yaclib/algo</text>
<text text-anchor="middle" x="1292.5" y="-74.5" font-family="Helvetica,sans-Serif" font-size="10.00">/when_all.hpp</text>
</a>
</g>
</g>
<!-- Node1&#45;&gt;Node10 -->
<g id="edge36" class="edge">
<title>Node1&#45;&gt;Node10</title>
<path fill="none" stroke="midnightblue" d="M645.02,-547.67C819.76,-537.47 1352.71,-496 1451.5,-366 1500.8,-301.12 1375.94,-323.22 1353.5,-299 1298.8,-239.96 1292.68,-135.5 1292.34,-97.67"/>
<polygon fill="midnightblue" stroke="midnightblue" points="644.79,-544.18 635.01,-548.24 645.19,-551.17 644.79,-544.18"/>
</g>
<!-- Node12 -->
<g id="node12" class="node">
<title>Node12</title>
<g id="a_node12"><a xlink:href="when__any_8hpp.html" target="_top" xlink:title=" ">
<polygon fill="none" stroke="black" points="580.5,-67.5 580.5,-97.5 676.5,-97.5 676.5,-67.5 580.5,-67.5"/>
<text text-anchor="start" x="588.5" y="-85.5" font-family="Helvetica,sans-Serif" font-size="10.00">include/yaclib/algo</text>
<text text-anchor="middle" x="628.5" y="-74.5" font-family="Helvetica,sans-Serif" font-size="10.00">/when_any.hpp</text>
</a>
</g>
</g>
<!-- Node1&#45;&gt;Node12 -->
<g id="edge37" class="edge">
<title>Node1&#45;&gt;Node12</title>
<path fill="none" stroke="midnightblue" d="M533.8,-542.82C466.59,-530.05 362.5,-497.53 362.5,-418.5 362.5,-418.5 362.5,-418.5 362.5,-282.5 362.5,-199.83 407.25,-182.08 474.5,-134 505.97,-111.5 548.06,-98.6 580.29,-91.48"/>
<polygon fill="midnightblue" stroke="midnightblue" points="533.37,-546.3 543.84,-544.63 534.62,-539.41 533.37,-546.3"/>
</g>
<!-- Node18 -->
<g id="node18" class="node">
<title>Node18</title>
<g id="a_node18"><a xlink:href="run_8hpp.html" target="_top" xlink:title=" ">
<polygon fill="none" stroke="black" points="1358.5,-134.5 1358.5,-164.5 1462.5,-164.5 1462.5,-134.5 1358.5,-134.5"/>
<text text-anchor="start" x="1366.5" y="-152.5" font-family="Helvetica,sans-Serif" font-size="10.00">include/yaclib/async</text>
<text text-anchor="middle" x="1410.5" y="-141.5" font-family="Helvetica,sans-Serif" font-size="10.00">/run.hpp</text>
</a>
</g>
</g>
<!-- Node1&#45;&gt;Node18 -->
<g id="edge43" class="edge">
<title>Node1&#45;&gt;Node18</title>
<path fill="none" stroke="midnightblue" d="M645.18,-551.02C830.56,-552.27 1418.86,-552.04 1484.5,-500 1514.09,-476.54 1508.5,-456.26 1508.5,-418.5 1508.5,-418.5 1508.5,-418.5 1508.5,-349.5 1508.5,-312.2 1502.9,-295.12 1528.5,-268 1565.84,-228.43 1613.18,-275.76 1645.5,-232 1653.69,-220.92 1654.2,-211.68 1645.5,-201 1595.64,-139.76 1548.59,-182.13 1471.5,-165 1468.63,-164.36 1465.69,-163.7 1462.72,-163.02"/>
<polygon fill="midnightblue" stroke="midnightblue" points="645.13,-547.52 635.11,-550.95 645.08,-554.52 645.13,-547.52"/>
</g>
<!-- Node19 -->
<g id="node19" class="node">
<title>Node19</title>
<g id="a_node19"><a xlink:href="await_8hpp.html" target="_top" xlink:title=" ">
<polygon fill="none" stroke="black" points="254.5,-67.5 254.5,-97.5 372.5,-97.5 372.5,-67.5 254.5,-67.5"/>
<text text-anchor="start" x="262.5" y="-85.5" font-family="Helvetica,sans-Serif" font-size="10.00">include/yaclib/coroutine</text>
<text text-anchor="middle" x="313.5" y="-74.5" font-family="Helvetica,sans-Serif" font-size="10.00">/await.hpp</text>
</a>
</g>
</g>
<!-- Node1&#45;&gt;Node19 -->
<g id="edge44" class="edge">
<title>Node1&#45;&gt;Node19</title>
<path fill="none" stroke="midnightblue" d="M533.82,-547.02C456.1,-538.81 324.5,-511.22 324.5,-418.5 324.5,-418.5 324.5,-418.5 324.5,-215.5 324.5,-172.5 318.63,-121.89 315.47,-97.73"/>
<polygon fill="midnightblue" stroke="midnightblue" points="533.65,-550.52 543.94,-548.02 534.33,-543.56 533.65,-550.52"/>
</g>
<!-- Node20 -->
<g id="node20" class="node">
<title>Node20</title>
<g id="a_node20"><a xlink:href="await__awaiter_8hpp.html" target="_top" xlink:title=" ">
<polygon fill="none" stroke="black" points="172.5,-134.5 172.5,-164.5 296.5,-164.5 296.5,-134.5 172.5,-134.5"/>
<text text-anchor="start" x="180.5" y="-152.5" font-family="Helvetica,sans-Serif" font-size="10.00">include/yaclib/coroutine</text>
<text text-anchor="middle" x="234.5" y="-141.5" font-family="Helvetica,sans-Serif" font-size="10.00">/detail/await_awaiter.hpp</text>
</a>
</g>
</g>
<!-- Node1&#45;&gt;Node20 -->
<g id="edge45" class="edge">
<title>Node1&#45;&gt;Node20</title>
<path fill="none" stroke="midnightblue" d="M533.76,-547.23C461.99,-541.9 342.66,-528.88 310.5,-500 282.41,-474.77 286.5,-456.26 286.5,-418.5 286.5,-418.5 286.5,-418.5 286.5,-282.5 286.5,-236.93 259.34,-188.29 244.28,-164.81"/>
<polygon fill="midnightblue" stroke="midnightblue" points="533.76,-550.74 543.99,-547.96 534.26,-543.76 533.76,-550.74"/>
</g>
<!-- Node25 -->
<g id="node25" class="node">
<title>Node25</title>
<g id="a_node25"><a xlink:href="promise_8hpp.html" target="_top" xlink:title=" ">
<polygon fill="none" stroke="black" points="1553.5,-335.5 1553.5,-365.5 1657.5,-365.5 1657.5,-335.5 1553.5,-335.5"/>
<text text-anchor="start" x="1561.5" y="-353.5" font-family="Helvetica,sans-Serif" font-size="10.00">include/yaclib/async</text>
<text text-anchor="middle" x="1605.5" y="-342.5" font-family="Helvetica,sans-Serif" font-size="10.00">/promise.hpp</text>
</a>
</g>
</g>
<!-- Node1&#45;&gt;Node25 -->
<g id="edge39" class="edge">
<title>Node1&#45;&gt;Node25</title>
<path fill="none" stroke="midnightblue" d="M645.21,-550.58C834.91,-550.44 1448.16,-546.36 1522.5,-500 1572.37,-468.9 1594.86,-396.42 1602.41,-365.68"/>
<polygon fill="midnightblue" stroke="midnightblue" points="645.17,-547.08 635.17,-550.59 645.17,-554.08 645.17,-547.08"/>
</g>
<!-- Node27 -->
<g id="node27" class="node">
<title>Node27</title>
<g id="a_node27"><a xlink:href="result_8hpp.html" target="_top" xlink:title=" ">
<polygon fill="none" stroke="black" points="829,-469.5 829,-499.5 920,-499.5 920,-469.5 829,-469.5"/>
<text text-anchor="start" x="837" y="-487.5" font-family="Helvetica,sans-Serif" font-size="10.00">include/yaclib/util</text>
<text text-anchor="middle" x="874.5" y="-476.5" font-family="Helvetica,sans-Serif" font-size="10.00">/result.hpp</text>
</a>
</g>
</g>
<!-- Node1&#45;&gt;Node27 -->
<g id="edge46" class="edge">
<title>Node1&#45;&gt;Node27</title>
<path fill="none" stroke="midnightblue" d="M645.31,-537.77C698.91,-525.55 778.91,-507.3 828.82,-495.92"/>
<polygon fill="midnightblue" stroke="midnightblue" points="644.26,-534.42 635.29,-540.06 645.82,-541.25 644.26,-534.42"/>
</g>
<!-- Node2&#45;&gt;Node3 -->
<g id="edge2" class="edge">
<title>Node2&#45;&gt;Node3</title>
<path fill="none" stroke="midnightblue" d="M183.3,-459.67C175.04,-433.47 163.5,-390 163.5,-351.5 163.5,-351.5 163.5,-351.5 163.5,-282.5 163.5,-235.66 131.12,-187.58 113.16,-164.52"/>
<polygon fill="midnightblue" stroke="midnightblue" points="180.07,-461.03 186.49,-469.45 186.72,-458.86 180.07,-461.03"/>
</g>
<!-- Node4 -->
<g id="node4" class="node">
<title>Node4</title>
<g id="a_node4"><a xlink:href="wait__group_8cpp.html" target="_top" xlink:title=" ">
<polygon fill="none" stroke="black" points="0,-73 0,-92 119,-92 119,-73 0,-73"/>
<text text-anchor="middle" x="59.5" y="-80" font-family="Helvetica,sans-Serif" font-size="10.00">src/algo/wait_group.cpp</text>
</a>
</g>
</g>
<!-- Node3&#45;&gt;Node4 -->
<g id="edge3" class="edge">
<title>Node3&#45;&gt;Node4</title>
<path fill="none" stroke="midnightblue" d="M86.95,-125.97C79.42,-114.33 70.68,-100.8 65.12,-92.19"/>
<polygon fill="midnightblue" stroke="midnightblue" points="84.02,-127.9 92.39,-134.4 89.9,-124.1 84.02,-127.9"/>
</g>
<!-- Node6 -->
<g id="node6" class="node">
<title>Node6</title>
<g id="a_node6"><a xlink:href="wait_8hpp.html" target="_top" xlink:title=" ">
<polygon fill="none" stroke="black" points="636.5,-335.5 636.5,-365.5 732.5,-365.5 732.5,-335.5 636.5,-335.5"/>
<text text-anchor="start" x="644.5" y="-353.5" font-family="Helvetica,sans-Serif" font-size="10.00">include/yaclib/algo</text>
<text text-anchor="middle" x="684.5" y="-342.5" font-family="Helvetica,sans-Serif" font-size="10.00">/wait.hpp</text>
</a>
</g>
</g>
<!-- Node5&#45;&gt;Node6 -->
<g id="edge5" class="edge">
<title>Node5&#45;&gt;Node6</title>
<path fill="none" stroke="midnightblue" d="M618.39,-396.73C633.09,-386.68 650.61,-374.68 663.93,-365.58"/>
<polygon fill="midnightblue" stroke="midnightblue" points="616.39,-393.86 610.11,-402.4 620.34,-399.64 616.39,-393.86"/>
</g>
<!-- Node14 -->
<g id="node14" class="node">
<title>Node14</title>
<g id="a_node14"><a xlink:href="wait__for_8hpp.html" target="_top" xlink:title=" ">
<polygon fill="none" stroke="black" points="492.5,-134.5 492.5,-164.5 588.5,-164.5 588.5,-134.5 492.5,-134.5"/>
<text text-anchor="start" x="500.5" y="-152.5" font-family="Helvetica,sans-Serif" font-size="10.00">include/yaclib/algo</text>
<text text-anchor="middle" x="540.5" y="-141.5" font-family="Helvetica,sans-Serif" font-size="10.00">/wait_for.hpp</text>
</a>
</g>
</g>
<!-- Node5&#45;&gt;Node14 -->
<g id="edge32" class="edge">
<title>Node5&#45;&gt;Node14</title>
<path fill="none" stroke="midnightblue" d="M585,-392.07C574.96,-337.57 551,-207.52 543.09,-164.55"/>
<polygon fill="midnightblue" stroke="midnightblue" points="581.61,-393 586.87,-402.2 588.5,-391.73 581.61,-393"/>
</g>
<!-- Node15 -->
<g id="node15" class="node">
<title>Node15</title>
<g id="a_node15"><a xlink:href="wait__until_8hpp.html" target="_top" xlink:title=" ">
<polygon fill="none" stroke="black" points="606.5,-134.5 606.5,-164.5 702.5,-164.5 702.5,-134.5 606.5,-134.5"/>
<text text-anchor="start" x="614.5" y="-152.5" font-family="Helvetica,sans-Serif" font-size="10.00">include/yaclib/algo</text>
<text text-anchor="middle" x="654.5" y="-141.5" font-family="Helvetica,sans-Serif" font-size="10.00">/wait_until.hpp</text>
</a>
</g>
</g>
<!-- Node5&#45;&gt;Node15 -->
<g id="edge33" class="edge">
<title>Node5&#45;&gt;Node15</title>
<path fill="none" stroke="midnightblue" d="M595.39,-392.41C608.65,-338.12 640.54,-207.61 651.07,-164.55"/>
<polygon fill="midnightblue" stroke="midnightblue" points="591.97,-391.65 592.99,-402.2 598.77,-393.32 591.97,-391.65"/>
</g>
<!-- Node24 -->
<g id="node24" class="node">
<title>Node24</title>
<g id="a_node24"><a xlink:href="wait__impl_8cpp.html" target="_top" xlink:title=" ">
<polygon fill="none" stroke="black" points="429,-341 429,-360 542,-360 542,-341 429,-341"/>
<text text-anchor="middle" x="485.5" y="-348" font-family="Helvetica,sans-Serif" font-size="10.00">src/algo/wait_impl.cpp</text>
</a>
</g>
</g>
<!-- Node5&#45;&gt;Node24 -->
<g id="edge34" class="edge">
<title>Node5&#45;&gt;Node24</title>
<path fill="none" stroke="midnightblue" d="M558.26,-396.97C538.54,-384.65 514.05,-369.35 499.11,-360.01"/>
<polygon fill="midnightblue" stroke="midnightblue" points="556.6,-400.06 566.93,-402.4 560.31,-394.13 556.6,-400.06"/>
</g>
<!-- Node7 -->
<g id="node7" class="node">
<title>Node7</title>
<g id="a_node7"><a xlink:href="future__impl_8hpp.html" target="_top" xlink:title=" ">
<polygon fill="none" stroke="black" points="808.5,-268.5 808.5,-298.5 920.5,-298.5 920.5,-268.5 808.5,-268.5"/>
<text text-anchor="start" x="816.5" y="-286.5" font-family="Helvetica,sans-Serif" font-size="10.00">include/yaclib/async</text>
<text text-anchor="middle" x="864.5" y="-275.5" font-family="Helvetica,sans-Serif" font-size="10.00">/detail/future_impl.hpp</text>
</a>
</g>
</g>
<!-- Node6&#45;&gt;Node7 -->
<g id="edge6" class="edge">
<title>Node6&#45;&gt;Node7</title>
<path fill="none" stroke="midnightblue" d="M733.09,-331.96C762.08,-321.48 798.41,-308.37 825.52,-298.58"/>
<polygon fill="midnightblue" stroke="midnightblue" points="731.77,-328.71 723.56,-335.4 734.15,-335.29 731.77,-328.71"/>
</g>
<!-- Node7&#45;&gt;Node8 -->
<g id="edge7" class="edge">
<title>Node7&#45;&gt;Node8</title>
<path fill="none" stroke="midnightblue" d="M864.5,-258.11C864.5,-249.15 864.5,-239.32 864.5,-231.58"/>
<polygon fill="midnightblue" stroke="midnightblue" points="861,-258.4 864.5,-268.4 868,-258.4 861,-258.4"/>
</g>
<!-- Node8&#45;&gt;Node3 -->
<g id="edge15" class="edge">
<title>Node8&#45;&gt;Node3</title>
<path fill="none" stroke="midnightblue" d="M801.96,-214.3C678.99,-211.21 397.34,-200.54 163.5,-165 159.02,-164.32 154.38,-163.48 149.76,-162.56"/>
<polygon fill="midnightblue" stroke="midnightblue" points="802.22,-217.81 812.3,-214.55 802.39,-210.81 802.22,-217.81"/>
</g>
<!-- Node8&#45;&gt;Node6 -->
<g id="edge13" class="edge">
<title>Node8&#45;&gt;Node6</title>
<path fill="none" stroke="midnightblue" d="M837.09,-237.6C800.29,-264.59 735.84,-311.85 703.76,-335.37"/>
<polygon fill="midnightblue" stroke="midnightblue" points="839.38,-240.26 845.38,-231.52 835.24,-234.62 839.38,-240.26"/>
</g>
<!-- Node9 -->
<g id="node9" class="node">
<title>Node9</title>
<g id="a_node9"><a xlink:href="when__impl_8hpp.html" target="_top" xlink:title=" ">
<polygon fill="none" stroke="black" points="796.5,-134.5 796.5,-164.5 906.5,-164.5 906.5,-134.5 796.5,-134.5"/>
<text text-anchor="start" x="804.5" y="-152.5" font-family="Helvetica,sans-Serif" font-size="10.00">include/yaclib/algo</text>
<text text-anchor="middle" x="851.5" y="-141.5" font-family="Helvetica,sans-Serif" font-size="10.00">/detail/when_impl.hpp</text>
</a>
</g>
</g>
<!-- Node8&#45;&gt;Node9 -->
<g id="edge8" class="edge">
<title>Node8&#45;&gt;Node9</title>
<path fill="none" stroke="midnightblue" d="M859.68,-191.4C857.87,-182.37 855.88,-172.41 854.32,-164.58"/>
<polygon fill="midnightblue" stroke="midnightblue" points="856.29,-192.28 861.68,-201.4 863.15,-190.9 856.29,-192.28"/>
</g>
<!-- Node8&#45;&gt;Node10 -->
<g id="edge17" class="edge">
<title>Node8&#45;&gt;Node10</title>
<path fill="none" stroke="midnightblue" d="M926.77,-205.71C966.58,-197.98 1018.61,-185.08 1061.5,-165 1082.84,-155.01 1083.22,-144.11 1104.5,-134 1149.68,-112.54 1205.45,-99.01 1244.47,-91.42"/>
<polygon fill="midnightblue" stroke="midnightblue" points="926.1,-202.28 916.92,-207.57 927.4,-209.16 926.1,-202.28"/>
</g>
<!-- Node8&#45;&gt;Node12 -->
<g id="edge18" class="edge">
<title>Node8&#45;&gt;Node12</title>
<path fill="none" stroke="midnightblue" d="M833.98,-195.93C819.76,-186.69 802.66,-175.43 787.5,-165 768.09,-151.65 764.97,-145.66 744.5,-134 719.4,-119.71 689.48,-106.77 666.31,-97.57"/>
<polygon fill="midnightblue" stroke="midnightblue" points="832.13,-198.89 842.42,-201.39 835.93,-193.02 832.13,-198.89"/>
</g>
<!-- Node8&#45;&gt;Node14 -->
<g id="edge14" class="edge">
<title>Node8&#45;&gt;Node14</title>
<path fill="none" stroke="midnightblue" d="M802.22,-204.85C747.96,-195.3 667.27,-180.46 597.5,-165 594.61,-164.36 591.64,-163.68 588.65,-162.97"/>
<polygon fill="midnightblue" stroke="midnightblue" points="801.92,-208.35 812.37,-206.63 803.12,-201.46 801.92,-208.35"/>
</g>
<!-- Node8&#45;&gt;Node15 -->
<g id="edge16" class="edge">
<title>Node8&#45;&gt;Node15</title>
<path fill="none" stroke="midnightblue" d="M809.4,-198.44C775.36,-187.91 732.2,-174.55 700.09,-164.61"/>
<polygon fill="midnightblue" stroke="midnightblue" points="808.6,-201.86 819.19,-201.48 810.67,-195.18 808.6,-201.86"/>
</g>
<!-- Node16 -->
<g id="node16" class="node">
<title>Node16</title>
<g id="a_node16"><a xlink:href="contract_8hpp.html" target="_top" xlink:title=" ">
<polygon fill="none" stroke="black" points="1480.5,-134.5 1480.5,-164.5 1584.5,-164.5 1584.5,-134.5 1480.5,-134.5"/>
<text text-anchor="start" x="1488.5" y="-152.5" font-family="Helvetica,sans-Serif" font-size="10.00">include/yaclib/async</text>
<text text-anchor="middle" x="1532.5" y="-141.5" font-family="Helvetica,sans-Serif" font-size="10.00">/contract.hpp</text>
</a>
</g>
</g>
<!-- Node8&#45;&gt;Node16 -->
<g id="edge19" class="edge">
<title>Node8&#45;&gt;Node16</title>
<path fill="none" stroke="midnightblue" d="M927.08,-213.4C1037.58,-208.99 1274.23,-196.47 1471.5,-165 1474.4,-164.54 1477.37,-164.01 1480.36,-163.44"/>
<polygon fill="midnightblue" stroke="midnightblue" points="926.64,-209.91 916.78,-213.8 926.91,-216.91 926.64,-209.91"/>
</g>
<!-- Node17 -->
<g id="node17" class="node">
<title>Node17</title>
<g id="a_node17"><a xlink:href="simple_8cpp.html" target="_top" xlink:title=" ">
<polygon fill="none" stroke="black" points="1482,-67.5 1482,-97.5 1583,-97.5 1583,-67.5 1482,-67.5"/>
<text text-anchor="start" x="1490" y="-85.5" font-family="Helvetica,sans-Serif" font-size="10.00">test/example/async</text>
<text text-anchor="middle" x="1532.5" y="-74.5" font-family="Helvetica,sans-Serif" font-size="10.00">/simple.cpp</text>
</a>
</g>
</g>
<!-- Node8&#45;&gt;Node17 -->
<g id="edge31" class="edge">
<title>Node8&#45;&gt;Node17</title>
<path fill="none" stroke="midnightblue" d="M926.72,-209.35C974.81,-202.88 1042.13,-189.99 1096.5,-165 1117.26,-155.46 1116.35,-142.63 1137.5,-134 1168.79,-121.24 1382.65,-98.52 1481.99,-88.49"/>
<polygon fill="midnightblue" stroke="midnightblue" points="926.23,-205.89 916.76,-210.64 927.13,-212.83 926.23,-205.89"/>
</g>
<!-- Node8&#45;&gt;Node18 -->
<g id="edge21" class="edge">
<title>Node8&#45;&gt;Node18</title>
<path fill="none" stroke="midnightblue" d="M927.01,-208.06C1035.64,-195.13 1257.33,-168.73 1358.31,-156.71"/>
<polygon fill="midnightblue" stroke="midnightblue" points="926.37,-204.61 916.85,-209.27 927.2,-211.56 926.37,-204.61"/>
</g>
<!-- Node8&#45;&gt;Node19 -->
<g id="edge25" class="edge">
<title>Node8&#45;&gt;Node19</title>
<path fill="none" stroke="midnightblue" d="M811.61,-197.92C789.93,-189.55 765.14,-178.41 744.5,-165 727.63,-154.04 729.7,-142.57 711.5,-134 652.74,-106.32 468.36,-92.17 372.58,-86.53"/>
<polygon fill="midnightblue" stroke="midnightblue" points="810.41,-201.21 821,-201.46 812.87,-194.66 810.41,-201.21"/>
</g>
<!-- Node8&#45;&gt;Node20 -->
<g id="edge26" class="edge">
<title>Node8&#45;&gt;Node20</title>
<path fill="none" stroke="midnightblue" d="M802.23,-209.08C681.62,-196.63 417.38,-169.37 296.76,-156.92"/>
<polygon fill="midnightblue" stroke="midnightblue" points="802.1,-212.58 812.41,-210.13 802.82,-205.62 802.1,-212.58"/>
</g>
<!-- Node22 -->
<g id="node22" class="node">
<title>Node22</title>
<g id="a_node22"><a xlink:href="future__traits_8hpp.html" target="_top" xlink:title=" ">
<polygon fill="none" stroke="black" points="1146.5,-134.5 1146.5,-164.5 1264.5,-164.5 1264.5,-134.5 1146.5,-134.5"/>
<text text-anchor="start" x="1154.5" y="-152.5" font-family="Helvetica,sans-Serif" font-size="10.00">include/yaclib/coroutine</text>
<text text-anchor="middle" x="1205.5" y="-141.5" font-family="Helvetica,sans-Serif" font-size="10.00">/future_traits.hpp</text>
</a>
</g>
</g>
<!-- Node8&#45;&gt;Node22 -->
<g id="edge29" class="edge">
<title>Node8&#45;&gt;Node22</title>
<path fill="none" stroke="midnightblue" d="M926.82,-203.94C981.16,-193.81 1062.08,-178.63 1132.5,-165 1136.94,-164.14 1141.53,-163.25 1146.15,-162.34"/>
<polygon fill="midnightblue" stroke="midnightblue" points="925.85,-200.56 916.66,-205.83 927.13,-207.44 925.85,-200.56"/>
</g>
<!-- Node23 -->
<g id="node23" class="node">
<title>Node23</title>
<g id="a_node23"><a xlink:href="future__impl_8cpp.html" target="_top" xlink:title=" ">
<polygon fill="none" stroke="black" points="924.5,-140 924.5,-159 1052.5,-159 1052.5,-140 924.5,-140"/>
<text text-anchor="middle" x="988.5" y="-147" font-family="Helvetica,sans-Serif" font-size="10.00">src/async/future_impl.cpp</text>
</a>
</g>
</g>
<!-- Node8&#45;&gt;Node23 -->
<g id="edge30" class="edge">
<title>Node8&#45;&gt;Node23</title>
<path fill="none" stroke="midnightblue" d="M900.48,-196.64C924.21,-184.2 954.14,-168.51 972.27,-159.01"/>
<polygon fill="midnightblue" stroke="midnightblue" points="898.64,-193.65 891.41,-201.4 901.89,-199.85 898.64,-193.65"/>
</g>
<!-- Node9&#45;&gt;Node10 -->
<g id="edge9" class="edge">
<title>Node9&#45;&gt;Node10</title>
<path fill="none" stroke="midnightblue" d="M916.62,-133.9C1040.29,-112.01 1174.4,-96.19 1244.38,-88.55"/>
<polygon fill="midnightblue" stroke="midnightblue" points="915.82,-130.48 906.59,-135.69 917.05,-137.37 915.82,-130.48"/>
</g>
<!-- Node9&#45;&gt;Node12 -->
<g id="edge11" class="edge">
<title>Node9&#45;&gt;Node12</title>
<path fill="none" stroke="midnightblue" d="M793.42,-131.57C757.07,-120.97 710.8,-107.49 676.53,-97.5"/>
<polygon fill="midnightblue" stroke="midnightblue" points="792.81,-135.04 803.39,-134.48 794.77,-128.32 792.81,-135.04"/>
</g>
<!-- Node11 -->
<g id="node11" class="node">
<title>Node11</title>
<g id="a_node11"><a xlink:href="when__all_8cpp.html" target="_top" xlink:title=" ">
<polygon fill="none" stroke="black" points="1360,-0.5 1360,-30.5 1461,-30.5 1461,-0.5 1360,-0.5"/>
<text text-anchor="start" x="1368" y="-18.5" font-family="Helvetica,sans-Serif" font-size="10.00">test/example/async</text>
<text text-anchor="middle" x="1410.5" y="-7.5" font-family="Helvetica,sans-Serif" font-size="10.00">/when_all.cpp</text>
</a>
</g>
</g>
<!-- Node10&#45;&gt;Node11 -->
<g id="edge10" class="edge">
<title>Node10&#45;&gt;Node11</title>
<path fill="none" stroke="midnightblue" d="M1327.11,-62.44C1345.62,-52.24 1368.02,-39.9 1384.95,-30.58"/>
<polygon fill="midnightblue" stroke="midnightblue" points="1325.17,-59.51 1318.1,-67.4 1328.55,-65.64 1325.17,-59.51"/>
</g>
<!-- Node13 -->
<g id="node13" class="node">
<title>Node13</title>
<g id="a_node13"><a xlink:href="when__any_8cpp.html" target="_top" xlink:title=" ">
<polygon fill="none" stroke="black" points="578,-0.5 578,-30.5 679,-30.5 679,-0.5 578,-0.5"/>
<text text-anchor="start" x="586" y="-18.5" font-family="Helvetica,sans-Serif" font-size="10.00">test/example/async</text>
<text text-anchor="middle" x="628.5" y="-7.5" font-family="Helvetica,sans-Serif" font-size="10.00">/when_any.cpp</text>
</a>
</g>
</g>
<!-- Node12&#45;&gt;Node13 -->
<g id="edge12" class="edge">
<title>Node12&#45;&gt;Node13</title>
<path fill="none" stroke="midnightblue" d="M628.5,-57.11C628.5,-48.15 628.5,-38.32 628.5,-30.58"/>
<polygon fill="midnightblue" stroke="midnightblue" points="625,-57.4 628.5,-67.4 632,-57.4 625,-57.4"/>
</g>
<!-- Node16&#45;&gt;Node17 -->
<g id="edge20" class="edge">
<title>Node16&#45;&gt;Node17</title>
<path fill="none" stroke="midnightblue" d="M1532.5,-124.11C1532.5,-115.15 1532.5,-105.32 1532.5,-97.58"/>
<polygon fill="midnightblue" stroke="midnightblue" points="1529,-124.4 1532.5,-134.4 1536,-124.4 1529,-124.4"/>
</g>
<!-- Node18&#45;&gt;Node11 -->
<g id="edge23" class="edge">
<title>Node18&#45;&gt;Node11</title>
<path fill="none" stroke="midnightblue" d="M1410.5,-124.02C1410.5,-96.51 1410.5,-52.79 1410.5,-30.52"/>
<polygon fill="midnightblue" stroke="midnightblue" points="1407,-124.37 1410.5,-134.37 1414,-124.37 1407,-124.37"/>
</g>
<!-- Node18&#45;&gt;Node13 -->
<g id="edge24" class="edge">
<title>Node18&#45;&gt;Node13</title>
<path fill="none" stroke="midnightblue" d="M1400.04,-125.22C1390.04,-105.98 1373,-79.81 1349.5,-67 1291,-35.11 833.36,-21.38 679.08,-17.62"/>
<polygon fill="midnightblue" stroke="midnightblue" points="1396.95,-126.86 1404.5,-134.28 1403.23,-123.77 1396.95,-126.86"/>
</g>
<!-- Node18&#45;&gt;Node17 -->
<g id="edge22" class="edge">
<title>Node18&#45;&gt;Node17</title>
<path fill="none" stroke="midnightblue" d="M1446.02,-129.57C1465.21,-119.35 1488.5,-106.94 1506.08,-97.58"/>
<polygon fill="midnightblue" stroke="midnightblue" points="1444.15,-126.6 1436.97,-134.4 1447.44,-132.78 1444.15,-126.6"/>
</g>
<!-- Node20&#45;&gt;Node19 -->
<g id="edge27" class="edge">
<title>Node20&#45;&gt;Node19</title>
<path fill="none" stroke="midnightblue" d="M259.56,-127.88C271.56,-118.01 285.63,-106.43 296.39,-97.58"/>
<polygon fill="midnightblue" stroke="midnightblue" points="257.14,-125.34 251.64,-134.4 261.59,-130.75 257.14,-125.34"/>
</g>
<!-- Node21 -->
<g id="node21" class="node">
<title>Node21</title>
<g id="a_node21"><a xlink:href="await__awaiter_8cpp.html" target="_top" xlink:title=" ">
<polygon fill="none" stroke="black" points="137,-67.5 137,-97.5 236,-97.5 236,-67.5 137,-67.5"/>
<text text-anchor="start" x="145" y="-85.5" font-family="Helvetica,sans-Serif" font-size="10.00">src/coroutine/await</text>
<text text-anchor="middle" x="186.5" y="-74.5" font-family="Helvetica,sans-Serif" font-size="10.00">_awaiter.cpp</text>
</a>
</g>
</g>
<!-- Node20&#45;&gt;Node21 -->
<g id="edge28" class="edge">
<title>Node20&#45;&gt;Node21</title>
<path fill="none" stroke="midnightblue" d="M218,-126.16C211,-116.68 203.06,-105.92 196.89,-97.58"/>
<polygon fill="midnightblue" stroke="midnightblue" points="215.33,-128.43 224.08,-134.4 220.96,-124.27 215.33,-128.43"/>
</g>
<!-- Node25&#45;&gt;Node16 -->
<g id="edge40" class="edge">
<title>Node25&#45;&gt;Node16</title>
<path fill="none" stroke="midnightblue" d="M1650.87,-330.49C1663.75,-322.72 1676.24,-312.36 1683.5,-299 1692.5,-282.45 1690.32,-216.35 1678.5,-201 1672.26,-192.9 1621.65,-176.53 1581.74,-164.62"/>
<polygon fill="midnightblue" stroke="midnightblue" points="1648.98,-327.54 1641.95,-335.46 1652.39,-333.65 1648.98,-327.54"/>
</g>
<!-- Node25&#45;&gt;Node17 -->
<g id="edge42" class="edge">
<title>Node25&#45;&gt;Node17</title>
<path fill="none" stroke="midnightblue" d="M1660.43,-330.99C1675.35,-323.36 1689.99,-312.94 1699.5,-299 1741,-238.12 1760.13,-192.62 1715.5,-134 1699.48,-112.96 1631.61,-98.45 1583.21,-90.55"/>
<polygon fill="midnightblue" stroke="midnightblue" points="1658.69,-327.94 1651.15,-335.39 1661.68,-334.27 1658.69,-327.94"/>
</g>
<!-- Node26 -->
<g id="node26" class="node">
<title>Node26</title>
<g id="a_node26"><a xlink:href="promise__impl_8cpp.html" target="_top" xlink:title=" ">
<polygon fill="none" stroke="black" points="1537,-274 1537,-293 1674,-293 1674,-274 1537,-274"/>
<text text-anchor="middle" x="1605.5" y="-281" font-family="Helvetica,sans-Serif" font-size="10.00">src/async/promise_impl.cpp</text>
</a>
</g>
</g>
<!-- Node25&#45;&gt;Node26 -->
<g id="edge41" class="edge">
<title>Node25&#45;&gt;Node26</title>
<path fill="none" stroke="midnightblue" d="M1605.5,-325.25C1605.5,-314.02 1605.5,-301.38 1605.5,-293.19"/>
<polygon fill="midnightblue" stroke="midnightblue" points="1602,-325.4 1605.5,-335.4 1609,-325.4 1602,-325.4"/>
</g>
<!-- Node27&#45;&gt;Node7 -->
<g id="edge49" class="edge">
<title>Node27&#45;&gt;Node7</title>
<path fill="none" stroke="midnightblue" d="M882.07,-459.51C890.3,-429.88 900.94,-378.09 890.5,-335 887.34,-321.97 880.2,-308.53 874.2,-298.79"/>
<polygon fill="midnightblue" stroke="midnightblue" points="878.64,-458.79 879.2,-469.37 885.36,-460.75 878.64,-458.79"/>
</g>
<!-- Node27&#45;&gt;Node11 -->
<g id="edge67" class="edge">
<title>Node27&#45;&gt;Node11</title>
<path fill="none" stroke="midnightblue" d="M930.37,-481.6C1132.88,-473.96 1816.5,-441.54 1816.5,-351.5 1816.5,-351.5 1816.5,-351.5 1816.5,-148.5 1816.5,-74.57 1569.93,-35.7 1461.1,-22.15"/>
<polygon fill="midnightblue" stroke="midnightblue" points="930.12,-478.1 920.25,-481.97 930.38,-485.1 930.12,-478.1"/>
</g>
<!-- Node27&#45;&gt;Node13 -->
<g id="edge68" class="edge">
<title>Node27&#45;&gt;Node13</title>
<path fill="none" stroke="midnightblue" d="M818.45,-479.74C692.99,-469.79 400.5,-437.39 400.5,-351.5 400.5,-351.5 400.5,-351.5 400.5,-282.5 400.5,-159.64 542.46,-65.05 602.35,-30.61"/>
<polygon fill="midnightblue" stroke="midnightblue" points="818.38,-483.25 828.62,-480.53 818.92,-476.27 818.38,-483.25"/>
</g>
<!-- Node27&#45;&gt;Node17 -->
<g id="edge66" class="edge">
<title>Node27&#45;&gt;Node17</title>
<path fill="none" stroke="midnightblue" d="M930.22,-480.36C1088.79,-470.64 1539.33,-437.29 1666.5,-366 1760.56,-313.27 1812.93,-211.06 1737.5,-134 1716.28,-112.33 1636.82,-97.57 1583.29,-89.85"/>
<polygon fill="midnightblue" stroke="midnightblue" points="929.97,-476.87 920.2,-480.97 930.39,-483.86 929.97,-476.87"/>
</g>
<!-- Node28 -->
<g id="node28" class="node">
<title>Node28</title>
<g id="a_node28"><a xlink:href="when__any__impl_8hpp.html" target="_top" xlink:title=" ">
<polygon fill="none" stroke="black" points="751,-335.5 751,-365.5 882,-365.5 882,-335.5 751,-335.5"/>
<text text-anchor="start" x="759" y="-353.5" font-family="Helvetica,sans-Serif" font-size="10.00">include/yaclib/algo</text>
<text text-anchor="middle" x="816.5" y="-342.5" font-family="Helvetica,sans-Serif" font-size="10.00">/detail/when_any_impl.hpp</text>
</a>
</g>
</g>
<!-- Node27&#45;&gt;Node28 -->
<g id="edge47" class="edge">
<title>Node27&#45;&gt;Node28</title>
<path fill="none" stroke="midnightblue" d="M864.23,-460.12C852.17,-432.68 832.58,-388.09 822.66,-365.52"/>
<polygon fill="midnightblue" stroke="midnightblue" points="861.07,-461.63 868.29,-469.37 867.47,-458.81 861.07,-461.63"/>
</g>
<!-- Node29 -->
<g id="node29" class="node">
<title>Node29</title>
<g id="a_node29"><a xlink:href="result__core_8hpp.html" target="_top" xlink:title=" ">
<polygon fill="none" stroke="black" points="1089.5,-402.5 1089.5,-432.5 1201.5,-432.5 1201.5,-402.5 1089.5,-402.5"/>
<text text-anchor="start" x="1097.5" y="-420.5" font-family="Helvetica,sans-Serif" font-size="10.00">include/yaclib/async</text>
<text text-anchor="middle" x="1145.5" y="-409.5" font-family="Helvetica,sans-Serif" font-size="10.00">/detail/result_core.hpp</text>
</a>
</g>
</g>
<!-- Node27&#45;&gt;Node29 -->
<g id="edge50" class="edge">
<title>Node27&#45;&gt;Node29</title>
<path fill="none" stroke="midnightblue" d="M930.07,-470.17C976.57,-459.02 1042.63,-443.17 1089.3,-431.98"/>
<polygon fill="midnightblue" stroke="midnightblue" points="929.07,-466.81 920.17,-472.55 930.71,-473.62 929.07,-466.81"/>
</g>
<!-- Node28&#45;&gt;Node12 -->
<g id="edge48" class="edge">
<title>Node28&#45;&gt;Node12</title>
<path fill="none" stroke="midnightblue" d="M744.2,-332.63C664.32,-309.7 539.56,-260.16 483.5,-165 458.87,-123.2 529.02,-101.16 580.15,-90.95"/>
<polygon fill="midnightblue" stroke="midnightblue" points="743.63,-336.1 754.2,-335.43 745.51,-329.36 743.63,-336.1"/>
</g>
<!-- Node29&#45;&gt;Node8 -->
<g id="edge57" class="edge">
<title>Node29&#45;&gt;Node8</title>
<path fill="none" stroke="midnightblue" d="M1079.48,-404.43C1053.85,-396.96 1025.84,-385.01 1005.5,-366 970.75,-333.52 995.07,-302.66 962.5,-268 947.17,-251.68 925.38,-239.73 906.24,-231.56"/>
<polygon fill="midnightblue" stroke="midnightblue" points="1078.59,-407.82 1089.16,-407.08 1080.44,-401.07 1078.59,-407.82"/>
</g>
<!-- Node29&#45;&gt;Node25 -->
<g id="edge58" class="edge">
<title>Node29&#45;&gt;Node25</title>
<path fill="none" stroke="midnightblue" d="M1211.97,-407.11C1304.24,-394.07 1469.24,-370.75 1553.25,-358.88"/>
<polygon fill="midnightblue" stroke="midnightblue" points="1211.32,-403.66 1201.91,-408.53 1212.3,-410.6 1211.32,-403.66"/>
</g>
<!-- Node29&#45;&gt;Node28 -->
<g id="edge53" class="edge">
<title>Node29&#45;&gt;Node28</title>
<path fill="none" stroke="midnightblue" d="M1079.26,-403.41C1021.86,-392.07 939.27,-375.76 882.07,-364.45"/>
<polygon fill="midnightblue" stroke="midnightblue" points="1078.83,-406.9 1089.32,-405.4 1080.18,-400.03 1078.83,-406.9"/>
</g>
<!-- Node30 -->
<g id="node30" class="node">
<title>Node30</title>
<g id="a_node30"><a xlink:href="when__all__impl_8hpp.html" target="_top" xlink:title=" ">
<polygon fill="none" stroke="black" points="1105,-268.5 1105,-298.5 1230,-298.5 1230,-268.5 1105,-268.5"/>
<text text-anchor="start" x="1113" y="-286.5" font-family="Helvetica,sans-Serif" font-size="10.00">include/yaclib/algo</text>
<text text-anchor="middle" x="1167.5" y="-275.5" font-family="Helvetica,sans-Serif" font-size="10.00">/detail/when_all_impl.hpp</text>
</a>
</g>
</g>
<!-- Node29&#45;&gt;Node30 -->
<g id="edge51" class="edge">
<title>Node29&#45;&gt;Node30</title>
<path fill="none" stroke="midnightblue" d="M1211.23,-406.35C1234.9,-399.17 1259.27,-386.92 1273.5,-366 1281.25,-354.61 1280.85,-346.65 1273.5,-335 1262.56,-317.68 1243.88,-306.17 1225.21,-298.59"/>
<polygon fill="midnightblue" stroke="midnightblue" points="1210.21,-403 1201.51,-409.04 1212.08,-409.74 1210.21,-403"/>
</g>
<!-- Node31 -->
<g id="node31" class="node">
<title>Node31</title>
<g id="a_node31"><a xlink:href="core_8hpp.html" target="_top" xlink:title=" ">
<polygon fill="none" stroke="black" points="1160.5,-335.5 1160.5,-365.5 1264.5,-365.5 1264.5,-335.5 1160.5,-335.5"/>
<text text-anchor="start" x="1168.5" y="-353.5" font-family="Helvetica,sans-Serif" font-size="10.00">include/yaclib/async</text>
<text text-anchor="middle" x="1212.5" y="-342.5" font-family="Helvetica,sans-Serif" font-size="10.00">/detail/core.hpp</text>
</a>
</g>
</g>
<!-- Node29&#45;&gt;Node31 -->
<g id="edge54" class="edge">
<title>Node29&#45;&gt;Node31</title>
<path fill="none" stroke="midnightblue" d="M1167.34,-395.31C1177.39,-385.56 1189.04,-374.26 1197.99,-365.58"/>
<polygon fill="midnightblue" stroke="midnightblue" points="1164.78,-392.92 1160.04,-402.4 1169.65,-397.94 1164.78,-392.92"/>
</g>
<!-- Node32 -->
<g id="node32" class="node">
<title>Node32</title>
<g id="a_node32"><a xlink:href="promise__type_8hpp.html" target="_top" xlink:title=" ">
<polygon fill="none" stroke="black" points="1320.5,-335.5 1320.5,-365.5 1442.5,-365.5 1442.5,-335.5 1320.5,-335.5"/>
<text text-anchor="start" x="1328.5" y="-353.5" font-family="Helvetica,sans-Serif" font-size="10.00">include/yaclib/coroutine</text>
<text text-anchor="middle" x="1381.5" y="-342.5" font-family="Helvetica,sans-Serif" font-size="10.00">/detail/promise_type.hpp</text>
</a>
</g>
</g>
<!-- Node29&#45;&gt;Node32 -->
<g id="edge59" class="edge">
<title>Node29&#45;&gt;Node32</title>
<path fill="none" stroke="midnightblue" d="M1206.44,-399.71C1244.85,-389.14 1293.87,-375.63 1330.27,-365.61"/>
<polygon fill="midnightblue" stroke="midnightblue" points="1205.13,-396.45 1196.42,-402.48 1206.99,-403.19 1205.13,-396.45"/>
</g>
<!-- Node37 -->
<g id="node37" class="node">
<title>Node37</title>
<g id="a_node37"><a xlink:href="result__core_8cpp.html" target="_top" xlink:title=" ">
<polygon fill="none" stroke="black" points="1014.5,-341 1014.5,-360 1142.5,-360 1142.5,-341 1014.5,-341"/>
<text text-anchor="middle" x="1078.5" y="-348" font-family="Helvetica,sans-Serif" font-size="10.00">src/async/result_core.cpp</text>
</a>
</g>
</g>
<!-- Node29&#45;&gt;Node37 -->
<g id="edge65" class="edge">
<title>Node29&#45;&gt;Node37</title>
<path fill="none" stroke="midnightblue" d="M1123.68,-395.34C1111.38,-383.4 1096.68,-369.14 1087.46,-360.19"/>
<polygon fill="midnightblue" stroke="midnightblue" points="1121.35,-397.94 1130.96,-402.4 1126.22,-392.92 1121.35,-397.94"/>
</g>
<!-- Node30&#45;&gt;Node10 -->
<g id="edge52" class="edge">
<title>Node30&#45;&gt;Node10</title>
<path fill="none" stroke="midnightblue" d="M1192.49,-261.73C1216.86,-240.08 1253.15,-203.94 1273.5,-165 1284.94,-143.11 1289.56,-114.35 1291.38,-97.5"/>
<polygon fill="midnightblue" stroke="midnightblue" points="1189.96,-259.29 1184.72,-268.49 1194.56,-264.56 1189.96,-259.29"/>
</g>
<!-- Node31&#45;&gt;Node7 -->
<g id="edge55" class="edge">
<title>Node31&#45;&gt;Node7</title>
<path fill="none" stroke="midnightblue" d="M1150.41,-334.84C1064.75,-317.33 976.34,-302.39 920.51,-293.35"/>
<polygon fill="midnightblue" stroke="midnightblue" points="1149.8,-338.29 1160.3,-336.88 1151.21,-331.43 1149.8,-338.29"/>
</g>
<!-- Node31&#45;&gt;Node18 -->
<g id="edge56" class="edge">
<title>Node31&#45;&gt;Node18</title>
<path fill="none" stroke="midnightblue" d="M1231.18,-327.78C1257.01,-298.14 1305.53,-243.81 1350.5,-201 1364.11,-188.04 1380.48,-174.38 1392.68,-164.54"/>
<polygon fill="midnightblue" stroke="midnightblue" points="1228.43,-325.61 1224.52,-335.46 1233.72,-330.2 1228.43,-325.61"/>
</g>
<!-- Node32&#45;&gt;Node22 -->
<g id="edge64" class="edge">
<title>Node32&#45;&gt;Node22</title>
<path fill="none" stroke="midnightblue" d="M1354.38,-329.17C1343.38,-320.4 1330.86,-309.71 1320.5,-299 1276.73,-253.78 1233.59,-192.34 1215.01,-164.84"/>
<polygon fill="midnightblue" stroke="midnightblue" points="1352.4,-332.06 1362.43,-335.47 1356.71,-326.55 1352.4,-332.06"/>
</g>
<!-- Node33 -->
<g id="node33" class="node">
<title>Node33</title>
<g id="a_node33"><a xlink:href="on__awaiter_8hpp.html" target="_top" xlink:title=" ">
<polygon fill="none" stroke="black" points="1362.5,-268.5 1362.5,-298.5 1480.5,-298.5 1480.5,-268.5 1362.5,-268.5"/>
<text text-anchor="start" x="1370.5" y="-286.5" font-family="Helvetica,sans-Serif" font-size="10.00">include/yaclib/coroutine</text>
<text text-anchor="middle" x="1421.5" y="-275.5" font-family="Helvetica,sans-Serif" font-size="10.00">/detail/on_awaiter.hpp</text>
</a>
</g>
</g>
<!-- Node32&#45;&gt;Node33 -->
<g id="edge60" class="edge">
<title>Node32&#45;&gt;Node33</title>
<path fill="none" stroke="midnightblue" d="M1395.43,-326.87C1401.22,-317.46 1407.76,-306.83 1412.84,-298.58"/>
<polygon fill="midnightblue" stroke="midnightblue" points="1392.44,-325.05 1390.18,-335.4 1398.4,-328.71 1392.44,-325.05"/>
</g>
<!-- Node34 -->
<g id="node34" class="node">
<title>Node34</title>
<g id="a_node34"><a xlink:href="on_8hpp.html" target="_top" xlink:title=" ">
<polygon fill="none" stroke="black" points="1518.5,-201.5 1518.5,-231.5 1636.5,-231.5 1636.5,-201.5 1518.5,-201.5"/>
<text text-anchor="start" x="1526.5" y="-219.5" font-family="Helvetica,sans-Serif" font-size="10.00">include/yaclib/coroutine</text>
<text text-anchor="middle" x="1577.5" y="-208.5" font-family="Helvetica,sans-Serif" font-size="10.00">/on.hpp</text>
</a>
</g>
</g>
<!-- Node33&#45;&gt;Node34 -->
<g id="edge61" class="edge">
<title>Node33&#45;&gt;Node34</title>
<path fill="none" stroke="midnightblue" d="M1464.59,-264.54C1489.56,-254.14 1520.53,-241.24 1543.72,-231.58"/>
<polygon fill="midnightblue" stroke="midnightblue" points="1463.23,-261.32 1455.35,-268.4 1465.93,-267.78 1463.23,-261.32"/>
</g>
<!-- Node36 -->
<g id="node36" class="node">
<title>Node36</title>
<g id="a_node36"><a xlink:href="on__awaiter_8cpp.html" target="_top" xlink:title=" ">
<polygon fill="none" stroke="black" points="1359,-207 1359,-226 1500,-226 1500,-207 1359,-207"/>
<text text-anchor="middle" x="1429.5" y="-214" font-family="Helvetica,sans-Serif" font-size="10.00">src/coroutine/on_awaiter.cpp</text>
</a>
</g>
</g>
<!-- Node33&#45;&gt;Node36 -->
<g id="edge63" class="edge">
<title>Node33&#45;&gt;Node36</title>
<path fill="none" stroke="midnightblue" d="M1424.48,-258.25C1425.87,-247.02 1427.42,-234.38 1428.43,-226.19"/>
<polygon fill="midnightblue" stroke="midnightblue" points="1420.98,-258.04 1423.24,-268.4 1427.93,-258.9 1420.98,-258.04"/>
</g>
<!-- Node35 -->
<g id="node35" class="node">
<title>Node35</title>
<g id="a_node35"><a xlink:href="on_8cpp.html" target="_top" xlink:title=" ">
<polygon fill="none" stroke="black" points="1602.5,-140 1602.5,-159 1706.5,-159 1706.5,-140 1602.5,-140"/>
<text text-anchor="middle" x="1654.5" y="-147" font-family="Helvetica,sans-Serif" font-size="10.00">src/coroutine/on.cpp</text>
</a>
</g>
</g>
<!-- Node34&#45;&gt;Node35 -->
<g id="edge62" class="edge">
<title>Node34&#45;&gt;Node35</title>
<path fill="none" stroke="midnightblue" d="M1602.17,-194.67C1616.39,-182.67 1633.51,-168.22 1644.2,-159.19"/>
<polygon fill="midnightblue" stroke="midnightblue" points="1599.59,-192.27 1594.21,-201.4 1604.11,-197.62 1599.59,-192.27"/>
</g>
</g>
</svg>
        <g id="navigator" transform="translate(0 0)" fill="#404254">
                <rect fill="#f2f5e9" fill-opacity="0.5" stroke="#606060" stroke-width=".5" x="0" y="0" width="60" height="60"/>
                <use id="zoomplus" xlink:href="#zoomPlus" x="17" y="9" onmousedown="handleZoom(evt,'in')"/>
                <use id="zoomminus" xlink:href="#zoomMin" x="42" y="9" onmousedown="handleZoom(evt,'out')"/>
                <use id="reset" xlink:href="#resetDef" x="30" y="36" onmousedown="handleReset()"/>
                <g id="arrowUp" xlink:href="#dirArrow" transform="translate(30 24)" onmousedown="handlePan(0,-1)">
                  <use xlink:href="#rim" fill="#404040">
                        <set attributeName="fill" to="#808080" begin="arrowUp.mouseover" end="arrowUp.mouseout"/>
                  </use>
                  <path fill="none" stroke="white" stroke-width="1.5" d="M0,-3.0v7 M-2.5,-0.5L0,-3.0L2.5,-0.5"/>
                </g>
                <g id="arrowRight" xlink:href="#dirArrow" transform="rotate(90) translate(36 -43)" onmousedown="handlePan(1,0)">
                  <use xlink:href="#rim" fill="#404040">
                        <set attributeName="fill" to="#808080" begin="arrowRight.mouseover" end="arrowRight.mouseout"/>
                  </use>
                  <path fill="none" stroke="white" stroke-width="1.5" d="M0,-3.0v7 M-2.5,-0.5L0,-3.0L2.5,-0.5"/>
                </g>
                <g id="arrowDown" xlink:href="#dirArrow" transform="rotate(180) translate(-30 -48)" onmousedown="handlePan(0,1)">
                  <use xlink:href="#rim" fill="#404040">
                        <set attributeName="fill" to="#808080" begin="arrowDown.mouseover" end="arrowDown.mouseout"/>
                  </use>
                  <path fill="none" stroke="white" stroke-width="1.5" d="M0,-3.0v7 M-2.5,-0.5L0,-3.0L2.5,-0.5"/>
                </g>
                <g id="arrowLeft" xlink:href="#dirArrow" transform="rotate(270) translate(-36 17)" onmousedown="handlePan(-1,0)">
                  <use xlink:href="#rim" fill="#404040">
                        <set attributeName="fill" to="#808080" begin="arrowLeft.mouseover" end="arrowLeft.mouseout"/>
                  </use>
                  <path fill="none" stroke="white" stroke-width="1.5" d="M0,-3.0v7 M-2.5,-0.5L0,-3.0L2.5,-0.5"/>
                </g>
        </g>
        <svg viewBox="0 0 15 15" width="100%" height="30px" preserveAspectRatio="xMaxYMin meet">
         <g id="arrow_out" transform="scale(0.3 0.3)">
          <a xlink:href="type__traits_8hpp__dep__incl_org.svg" target="_base">
           <rect id="button" ry="5" rx="5" y="6" x="6" height="38" width="38"
                fill="#f2f5e9" fill-opacity="0.5" stroke="#606060" stroke-width="1.0"/>
           <path id="arrow"
             d="M 11.500037,31.436501 C 11.940474,20.09759 22.043105,11.32322 32.158766,21.979434 L 37.068811,17.246167 C 37.068811,17.246167 37.088388,32 37.088388,32 L 22.160133,31.978069 C 22.160133,31.978069 26.997745,27.140456 26.997745,27.140456 C 18.528582,18.264221 13.291696,25.230495 11.500037,31.436501 z"
             style="fill:#404040;"/>
          </a>
         </g>
        </svg>
</svg>
