<?xml version="1.0" encoding="UTF-8" standalone="no"?>
<!DOCTYPE svg PUBLIC "-//W3C//DTD SVG 1.1//EN"
 "http://www.w3.org/Graphics/SVG/1.1/DTD/svg11.dtd">
<!-- Generated by graphviz version 3.0.0 (20220413.0106)
 -->
<!-- Title: include/yaclib/executor/detail/unique_job.hpp Pages: 1 -->
<svg width="323pt" height="218pt"
 viewBox="0.00 0.00 323.00 218.00" xmlns="http://www.w3.org/2000/svg" xmlns:xlink="http://www.w3.org/1999/xlink">
<g id="graph0" class="graph" transform="scale(1 1) rotate(0) translate(4 214)">
<title>include/yaclib/executor/detail/unique_job.hpp</title>
<!-- Node1 -->
<g id="node1" class="node">
<title>Node1</title>
<g id="a_node1"><a xlink:title=" ">
<polygon fill="#bfbfbf" stroke="black" points="200,-179.5 200,-209.5 315,-209.5 315,-179.5 200,-179.5"/>
<text text-anchor="start" x="208" y="-197.5" font-family="Helvetica,sans-Serif" font-size="10.00">include/yaclib/executor</text>
<text text-anchor="middle" x="257.5" y="-186.5" font-family="Helvetica,sans-Serif" font-size="10.00">/detail/unique_job.hpp</text>
</a>
</g>
</g>
<!-- Node2 -->
<g id="node2" class="node">
<title>Node2</title>
<g id="a_node2"><a xlink:href="job_8hpp.html" target="_top" xlink:title=" ">
<polygon fill="none" stroke="black" points="92,-123.5 92,-142.5 207,-142.5 207,-123.5 92,-123.5"/>
<text text-anchor="middle" x="149.5" y="-130.5" font-family="Helvetica,sans-Serif" font-size="10.00">yaclib/executor/job.hpp</text>
</a>
</g>
</g>
<!-- Node1&#45;&gt;Node2 -->
<g id="edge1" class="edge">
<title>Node1&#45;&gt;Node2</title>
<path fill="none" stroke="midnightblue" d="M231.91,-179.4C214.43,-169.77 191.41,-157.09 174.14,-147.58"/>
<polygon fill="midnightblue" stroke="midnightblue" points="175.66,-144.42 165.21,-142.66 172.28,-150.55 175.66,-144.42"/>
</g>
<!-- Node7 -->
<g id="node7" class="node">
<title>Node7</title>
<g id="a_node7"><a xlink:title=" ">
<polygon fill="none" stroke="#bfbfbf" points="265,-0.5 265,-19.5 304,-19.5 304,-0.5 265,-0.5"/>
<text text-anchor="middle" x="284.5" y="-7.5" font-family="Helvetica,sans-Serif" font-size="10.00">utility</text>
</a>
</g>
</g>
<!-- Node1&#45;&gt;Node7 -->
<g id="edge10" class="edge">
<title>Node1&#45;&gt;Node7</title>
<path fill="none" stroke="midnightblue" d="M266.78,-179.44C279.16,-159.75 300.46,-122.38 308.5,-87 311.55,-73.56 311.84,-69.37 308.5,-56 306.06,-46.25 301.06,-36.29 296.26,-28.23"/>
<polygon fill="midnightblue" stroke="midnightblue" points="299.19,-26.32 290.87,-19.77 293.29,-30.08 299.19,-26.32"/>
</g>
<!-- Node8 -->
<g id="node8" class="node">
<title>Node8</title>
<g id="a_node8"><a xlink:href="safe__call_8hpp.html" target="_top" xlink:title=" ">
<polygon fill="none" stroke="black" points="216,-56.5 216,-86.5 299,-86.5 299,-56.5 216,-56.5"/>
<text text-anchor="start" x="224" y="-74.5" font-family="Helvetica,sans-Serif" font-size="10.00">yaclib/util/detail</text>
<text text-anchor="middle" x="257.5" y="-63.5" font-family="Helvetica,sans-Serif" font-size="10.00">/safe_call.hpp</text>
</a>
</g>
</g>
<!-- Node1&#45;&gt;Node8 -->
<g id="edge7" class="edge">
<title>Node1&#45;&gt;Node8</title>
<path fill="none" stroke="midnightblue" d="M257.5,-179.14C257.5,-158.86 257.5,-121.53 257.5,-96.86"/>
<polygon fill="midnightblue" stroke="midnightblue" points="261,-96.84 257.5,-86.84 254,-96.84 261,-96.84"/>
</g>
<!-- Node3 -->
<g id="node3" class="node">
<title>Node3</title>
<g id="a_node3"><a xlink:href="node_8hpp.html" target="_top" xlink:title=" ">
<polygon fill="none" stroke="black" points="0,-56.5 0,-86.5 83,-86.5 83,-56.5 0,-56.5"/>
<text text-anchor="start" x="8" y="-74.5" font-family="Helvetica,sans-Serif" font-size="10.00">yaclib/util/detail</text>
<text text-anchor="middle" x="41.5" y="-63.5" font-family="Helvetica,sans-Serif" font-size="10.00">/node.hpp</text>
</a>
</g>
</g>
<!-- Node2&#45;&gt;Node3 -->
<g id="edge2" class="edge">
<title>Node2&#45;&gt;Node3</title>
<path fill="none" stroke="midnightblue" d="M134.03,-123.48C118.92,-115.15 95.42,-102.21 75.89,-91.45"/>
<polygon fill="midnightblue" stroke="midnightblue" points="77.4,-88.28 66.95,-86.52 74.02,-94.41 77.4,-88.28"/>
</g>
<!-- Node4 -->
<g id="node4" class="node">
<title>Node4</title>
<g id="a_node4"><a xlink:href="func_8hpp.html" target="_top" xlink:title=" ">
<polygon fill="none" stroke="black" points="101,-62 101,-81 198,-81 198,-62 101,-62"/>
<text text-anchor="middle" x="149.5" y="-69" font-family="Helvetica,sans-Serif" font-size="10.00">yaclib/util/func.hpp</text>
</a>
</g>
</g>
<!-- Node2&#45;&gt;Node4 -->
<g id="edge3" class="edge">
<title>Node2&#45;&gt;Node4</title>
<path fill="none" stroke="midnightblue" d="M149.5,-123.48C149.5,-115.08 149.5,-101.98 149.5,-91.16"/>
<polygon fill="midnightblue" stroke="midnightblue" points="153,-91.01 149.5,-81.01 146,-91.01 153,-91.01"/>
</g>
<!-- Node5 -->
<g id="node5" class="node">
<title>Node5</title>
<g id="a_node5"><a xlink:href="ref_8hpp.html" target="_top" xlink:title=" ">
<polygon fill="none" stroke="black" points="78,-0.5 78,-19.5 167,-19.5 167,-0.5 78,-0.5"/>
<text text-anchor="middle" x="122.5" y="-7.5" font-family="Helvetica,sans-Serif" font-size="10.00">yaclib/util/ref.hpp</text>
</a>
</g>
</g>
<!-- Node4&#45;&gt;Node5 -->
<g id="edge4" class="edge">
<title>Node4&#45;&gt;Node5</title>
<path fill="none" stroke="midnightblue" d="M145.63,-61.98C141.7,-53.32 135.5,-39.65 130.51,-28.65"/>
<polygon fill="midnightblue" stroke="midnightblue" points="133.68,-27.17 126.36,-19.51 127.31,-30.06 133.68,-27.17"/>
</g>
<!-- Node6 -->
<g id="node6" class="node">
<title>Node6</title>
<g id="a_node6"><a xlink:title=" ">
<polygon fill="none" stroke="#bfbfbf" points="184.5,-0.5 184.5,-19.5 246.5,-19.5 246.5,-0.5 184.5,-0.5"/>
<text text-anchor="middle" x="215.5" y="-7.5" font-family="Helvetica,sans-Serif" font-size="10.00">type_traits</text>
</a>
</g>
</g>
<!-- Node4&#45;&gt;Node6 -->
<g id="edge5" class="edge">
<title>Node4&#45;&gt;Node6</title>
<path fill="none" stroke="midnightblue" d="M158.96,-61.98C169.25,-52.7 185.92,-37.67 198.49,-26.33"/>
<polygon fill="midnightblue" stroke="midnightblue" points="200.98,-28.8 206.06,-19.51 196.29,-23.61 200.98,-28.8"/>
</g>
<!-- Node4&#45;&gt;Node7 -->
<g id="edge6" class="edge">
<title>Node4&#45;&gt;Node7</title>
<path fill="none" stroke="midnightblue" d="M168.84,-61.98C191.6,-51.95 229.59,-35.2 255.79,-23.65"/>
<polygon fill="midnightblue" stroke="midnightblue" points="257.45,-26.74 265.19,-19.51 254.63,-20.34 257.45,-26.74"/>
</g>
<!-- Node8&#45;&gt;Node6 -->
<g id="edge8" class="edge">
<title>Node8&#45;&gt;Node6</title>
<path fill="none" stroke="midnightblue" d="M247.55,-56.4C241.51,-47.84 233.76,-36.87 227.4,-27.86"/>
<polygon fill="midnightblue" stroke="midnightblue" points="230.24,-25.81 221.61,-19.66 224.52,-29.85 230.24,-25.81"/>
</g>
<!-- Node8&#45;&gt;Node7 -->
<g id="edge9" class="edge">
<title>Node8&#45;&gt;Node7</title>
<path fill="none" stroke="midnightblue" d="M263.9,-56.4C267.62,-48.2 272.35,-37.78 276.33,-28.99"/>
<polygon fill="midnightblue" stroke="midnightblue" points="279.63,-30.21 280.57,-19.66 273.25,-27.32 279.63,-30.21"/>
</g>
</g>
</svg>
