<?xml version="1.0" encoding="UTF-8" standalone="no"?>
<!DOCTYPE svg PUBLIC "-//W3C//DTD SVG 1.1//EN"
 "http://www.w3.org/Graphics/SVG/1.1/DTD/svg11.dtd">
<!-- Generated by graphviz version 3.0.0 (20220413.0106)
 -->
<!-- Title: include/yaclib/algo/wait.hpp Pages: 1 -->
<svg width="1283pt" height="374pt"
 viewBox="0.00 0.00 1283.00 374.00" xmlns="http://www.w3.org/2000/svg" xmlns:xlink="http://www.w3.org/1999/xlink">
<g id="graph0" class="graph" transform="scale(1 1) rotate(0) translate(4 370)">
<title>include/yaclib/algo/wait.hpp</title>
<!-- Node1 -->
<g id="node1" class="node">
<title>Node1</title>
<g id="a_node1"><a xlink:title=" ">
<polygon fill="#bfbfbf" stroke="black" points="489,-335.5 489,-365.5 585,-365.5 585,-335.5 489,-335.5"/>
<text text-anchor="start" x="497" y="-353.5" font-family="Helvetica,sans-Serif" font-size="10.00">include/yaclib/algo</text>
<text text-anchor="middle" x="537" y="-342.5" font-family="Helvetica,sans-Serif" font-size="10.00">/wait.hpp</text>
</a>
</g>
</g>
<!-- Node2 -->
<g id="node2" class="node">
<title>Node2</title>
<g id="a_node2"><a xlink:href="future__impl_8hpp.html" target="_top" xlink:title=" ">
<polygon fill="none" stroke="black" points="439,-268.5 439,-298.5 551,-298.5 551,-268.5 439,-268.5"/>
<text text-anchor="start" x="447" y="-286.5" font-family="Helvetica,sans-Serif" font-size="10.00">include/yaclib/async</text>
<text text-anchor="middle" x="495" y="-275.5" font-family="Helvetica,sans-Serif" font-size="10.00">/detail/future_impl.hpp</text>
</a>
</g>
</g>
<!-- Node1&#45;&gt;Node2 -->
<g id="edge1" class="edge">
<title>Node1&#45;&gt;Node2</title>
<path fill="none" stroke="midnightblue" d="M522.38,-326.87C516.3,-317.46 509.43,-306.83 504.1,-298.58"/>
<polygon fill="midnightblue" stroke="midnightblue" points="519.52,-328.9 527.89,-335.4 525.4,-325.1 519.52,-328.9"/>
</g>
<!-- Node3 -->
<g id="node3" class="node">
<title>Node3</title>
<g id="a_node3"><a xlink:href="future_8hpp.html" target="_top" xlink:title=" ">
<polygon fill="none" stroke="black" points="485,-201.5 485,-231.5 589,-231.5 589,-201.5 485,-201.5"/>
<text text-anchor="start" x="493" y="-219.5" font-family="Helvetica,sans-Serif" font-size="10.00">include/yaclib/async</text>
<text text-anchor="middle" x="537" y="-208.5" font-family="Helvetica,sans-Serif" font-size="10.00">/future.hpp</text>
</a>
</g>
</g>
<!-- Node2&#45;&gt;Node3 -->
<g id="edge2" class="edge">
<title>Node2&#45;&gt;Node3</title>
<path fill="none" stroke="midnightblue" d="M509.62,-259.87C515.7,-250.46 522.57,-239.83 527.9,-231.58"/>
<polygon fill="midnightblue" stroke="midnightblue" points="506.6,-258.1 504.11,-268.4 512.48,-261.9 506.6,-258.1"/>
</g>
<!-- Node3&#45;&gt;Node1 -->
<g id="edge8" class="edge">
<title>Node3&#45;&gt;Node1</title>
<path fill="none" stroke="midnightblue" d="M550.04,-240.62C554.06,-248.98 557.97,-258.66 560,-268 562.92,-281.46 562.92,-285.54 560,-299 557.18,-311.99 550.72,-325.65 545.36,-335.48"/>
<polygon fill="midnightblue" stroke="midnightblue" points="553.04,-238.81 545.36,-231.52 546.82,-242.01 553.04,-238.81"/>
</g>
<!-- Node4 -->
<g id="node4" class="node">
<title>Node4</title>
<g id="a_node4"><a xlink:href="when__impl_8hpp.html" target="_top" xlink:title=" ">
<polygon fill="none" stroke="black" points="41,-134.5 41,-164.5 151,-164.5 151,-134.5 41,-134.5"/>
<text text-anchor="start" x="49" y="-152.5" font-family="Helvetica,sans-Serif" font-size="10.00">include/yaclib/algo</text>
<text text-anchor="middle" x="96" y="-141.5" font-family="Helvetica,sans-Serif" font-size="10.00">/detail/when_impl.hpp</text>
</a>
</g>
</g>
<!-- Node3&#45;&gt;Node4 -->
<g id="edge3" class="edge">
<title>Node3&#45;&gt;Node4</title>
<path fill="none" stroke="midnightblue" d="M474.67,-208.43C400.61,-199.71 273.42,-183.73 165,-165 160.54,-164.23 155.92,-163.38 151.29,-162.49"/>
<polygon fill="midnightblue" stroke="midnightblue" points="474.42,-211.93 484.76,-209.61 475.23,-204.98 474.42,-211.93"/>
</g>
<!-- Node5 -->
<g id="node5" class="node">
<title>Node5</title>
<g id="a_node5"><a xlink:href="when__all_8hpp.html" target="_top" xlink:title=" ">
<polygon fill="none" stroke="black" points="0,-67.5 0,-97.5 96,-97.5 96,-67.5 0,-67.5"/>
<text text-anchor="start" x="8" y="-85.5" font-family="Helvetica,sans-Serif" font-size="10.00">include/yaclib/algo</text>
<text text-anchor="middle" x="48" y="-74.5" font-family="Helvetica,sans-Serif" font-size="10.00">/when_all.hpp</text>
</a>
</g>
</g>
<!-- Node3&#45;&gt;Node5 -->
<g id="edge13" class="edge">
<title>Node3&#45;&gt;Node5</title>
<path fill="none" stroke="midnightblue" d="M474.8,-213.86C346.34,-209.82 61.21,-197.28 32,-165 15.16,-146.4 28.61,-115.43 38.94,-97.5"/>
<polygon fill="midnightblue" stroke="midnightblue" points="474.78,-217.36 484.88,-214.17 475,-210.36 474.78,-217.36"/>
</g>
<!-- Node7 -->
<g id="node7" class="node">
<title>Node7</title>
<g id="a_node7"><a xlink:href="when__any_8hpp.html" target="_top" xlink:title=" ">
<polygon fill="none" stroke="black" points="114,-67.5 114,-97.5 210,-97.5 210,-67.5 114,-67.5"/>
<text text-anchor="start" x="122" y="-85.5" font-family="Helvetica,sans-Serif" font-size="10.00">include/yaclib/algo</text>
<text text-anchor="middle" x="162" y="-74.5" font-family="Helvetica,sans-Serif" font-size="10.00">/when_any.hpp</text>
</a>
</g>
</g>
<!-- Node3&#45;&gt;Node7 -->
<g id="edge14" class="edge">
<title>Node3&#45;&gt;Node7</title>
<path fill="none" stroke="midnightblue" d="M474.55,-213.29C388.78,-209.08 240.29,-197.24 198,-165 176.35,-148.49 167.45,-116.16 164.01,-97.57"/>
<polygon fill="midnightblue" stroke="midnightblue" points="474.54,-216.79 484.69,-213.76 474.87,-209.8 474.54,-216.79"/>
</g>
<!-- Node9 -->
<g id="node9" class="node">
<title>Node9</title>
<g id="a_node9"><a xlink:href="wait__for_8hpp.html" target="_top" xlink:title=" ">
<polygon fill="none" stroke="black" points="489,-134.5 489,-164.5 585,-164.5 585,-134.5 489,-134.5"/>
<text text-anchor="start" x="497" y="-152.5" font-family="Helvetica,sans-Serif" font-size="10.00">include/yaclib/algo</text>
<text text-anchor="middle" x="537" y="-141.5" font-family="Helvetica,sans-Serif" font-size="10.00">/wait_for.hpp</text>
</a>
</g>
</g>
<!-- Node3&#45;&gt;Node9 -->
<g id="edge9" class="edge">
<title>Node3&#45;&gt;Node9</title>
<path fill="none" stroke="midnightblue" d="M537,-191.11C537,-182.15 537,-172.32 537,-164.58"/>
<polygon fill="midnightblue" stroke="midnightblue" points="533.5,-191.4 537,-201.4 540.5,-191.4 533.5,-191.4"/>
</g>
<!-- Node10 -->
<g id="node10" class="node">
<title>Node10</title>
<g id="a_node10"><a xlink:href="wait__group_8hpp.html" target="_top" xlink:title=" ">
<polygon fill="none" stroke="black" points="603,-134.5 603,-164.5 699,-164.5 699,-134.5 603,-134.5"/>
<text text-anchor="start" x="611" y="-152.5" font-family="Helvetica,sans-Serif" font-size="10.00">include/yaclib/algo</text>
<text text-anchor="middle" x="651" y="-141.5" font-family="Helvetica,sans-Serif" font-size="10.00">/wait_group.hpp</text>
</a>
</g>
</g>
<!-- Node3&#45;&gt;Node10 -->
<g id="edge10" class="edge">
<title>Node3&#45;&gt;Node10</title>
<path fill="none" stroke="midnightblue" d="M570.68,-196.3C588.52,-186.12 610.04,-173.85 626.31,-164.58"/>
<polygon fill="midnightblue" stroke="midnightblue" points="568.69,-193.4 561.74,-201.4 572.16,-199.48 568.69,-193.4"/>
</g>
<!-- Node12 -->
<g id="node12" class="node">
<title>Node12</title>
<g id="a_node12"><a xlink:href="wait__until_8hpp.html" target="_top" xlink:title=" ">
<polygon fill="none" stroke="black" points="717,-134.5 717,-164.5 813,-164.5 813,-134.5 717,-134.5"/>
<text text-anchor="start" x="725" y="-152.5" font-family="Helvetica,sans-Serif" font-size="10.00">include/yaclib/algo</text>
<text text-anchor="middle" x="765" y="-141.5" font-family="Helvetica,sans-Serif" font-size="10.00">/wait_until.hpp</text>
</a>
</g>
</g>
<!-- Node3&#45;&gt;Node12 -->
<g id="edge12" class="edge">
<title>Node3&#45;&gt;Node12</title>
<path fill="none" stroke="midnightblue" d="M595.98,-198.69C633.48,-187.99 681.44,-174.32 716.68,-164.28"/>
<polygon fill="midnightblue" stroke="midnightblue" points="594.85,-195.37 586.19,-201.48 596.77,-202.1 594.85,-195.37"/>
</g>
<!-- Node13 -->
<g id="node13" class="node">
<title>Node13</title>
<g id="a_node13"><a xlink:href="contract_8hpp.html" target="_top" xlink:title=" ">
<polygon fill="none" stroke="black" points="329,-134.5 329,-164.5 433,-164.5 433,-134.5 329,-134.5"/>
<text text-anchor="start" x="337" y="-152.5" font-family="Helvetica,sans-Serif" font-size="10.00">include/yaclib/async</text>
<text text-anchor="middle" x="381" y="-141.5" font-family="Helvetica,sans-Serif" font-size="10.00">/contract.hpp</text>
</a>
</g>
</g>
<!-- Node3&#45;&gt;Node13 -->
<g id="edge15" class="edge">
<title>Node3&#45;&gt;Node13</title>
<path fill="none" stroke="midnightblue" d="M493.91,-197.54C468.94,-187.14 437.97,-174.24 414.78,-164.58"/>
<polygon fill="midnightblue" stroke="midnightblue" points="492.57,-200.78 503.15,-201.4 495.27,-194.32 492.57,-200.78"/>
</g>
<!-- Node14 -->
<g id="node14" class="node">
<title>Node14</title>
<g id="a_node14"><a xlink:href="simple_8cpp.html" target="_top" xlink:title=" ">
<polygon fill="none" stroke="black" points="330.5,-67.5 330.5,-97.5 431.5,-97.5 431.5,-67.5 330.5,-67.5"/>
<text text-anchor="start" x="338.5" y="-85.5" font-family="Helvetica,sans-Serif" font-size="10.00">test/example/async</text>
<text text-anchor="middle" x="381" y="-74.5" font-family="Helvetica,sans-Serif" font-size="10.00">/simple.cpp</text>
</a>
</g>
</g>
<!-- Node3&#45;&gt;Node14 -->
<g id="edge27" class="edge">
<title>Node3&#45;&gt;Node14</title>
<path fill="none" stroke="midnightblue" d="M512.94,-194.66C493.8,-178.12 466.28,-154.46 442,-134 427.28,-121.6 410.42,-107.66 398.16,-97.57"/>
<polygon fill="midnightblue" stroke="midnightblue" points="510.75,-197.39 520.6,-201.28 515.32,-192.09 510.75,-197.39"/>
</g>
<!-- Node15 -->
<g id="node15" class="node">
<title>Node15</title>
<g id="a_node15"><a xlink:href="run_8hpp.html" target="_top" xlink:title=" ">
<polygon fill="none" stroke="black" points="207,-134.5 207,-164.5 311,-164.5 311,-134.5 207,-134.5"/>
<text text-anchor="start" x="215" y="-152.5" font-family="Helvetica,sans-Serif" font-size="10.00">include/yaclib/async</text>
<text text-anchor="middle" x="259" y="-141.5" font-family="Helvetica,sans-Serif" font-size="10.00">/run.hpp</text>
</a>
</g>
</g>
<!-- Node3&#45;&gt;Node15 -->
<g id="edge17" class="edge">
<title>Node3&#45;&gt;Node15</title>
<path fill="none" stroke="midnightblue" d="M474.96,-201.14C431.55,-191.08 372.22,-177.28 320,-165 317.14,-164.33 314.2,-163.63 311.24,-162.93"/>
<polygon fill="midnightblue" stroke="midnightblue" points="474.27,-204.58 484.81,-203.43 475.86,-197.76 474.27,-204.58"/>
</g>
<!-- Node16 -->
<g id="node16" class="node">
<title>Node16</title>
<g id="a_node16"><a xlink:href="await_8hpp.html" target="_top" xlink:title=" ">
<polygon fill="none" stroke="black" points="782,-67.5 782,-97.5 900,-97.5 900,-67.5 782,-67.5"/>
<text text-anchor="start" x="790" y="-85.5" font-family="Helvetica,sans-Serif" font-size="10.00">include/yaclib/coroutine</text>
<text text-anchor="middle" x="841" y="-74.5" font-family="Helvetica,sans-Serif" font-size="10.00">/await.hpp</text>
</a>
</g>
</g>
<!-- Node3&#45;&gt;Node16 -->
<g id="edge21" class="edge">
<title>Node3&#45;&gt;Node16</title>
<path fill="none" stroke="midnightblue" d="M599.21,-212.33C673.21,-207.26 790.69,-194.67 822,-165 840.45,-147.51 842.56,-115.85 842.04,-97.56"/>
<polygon fill="midnightblue" stroke="midnightblue" points="598.81,-208.85 589.07,-213 599.27,-215.83 598.81,-208.85"/>
</g>
<!-- Node17 -->
<g id="node17" class="node">
<title>Node17</title>
<g id="a_node17"><a xlink:href="await__awaiter_8hpp.html" target="_top" xlink:title=" ">
<polygon fill="none" stroke="black" points="869,-134.5 869,-164.5 993,-164.5 993,-134.5 869,-134.5"/>
<text text-anchor="start" x="877" y="-152.5" font-family="Helvetica,sans-Serif" font-size="10.00">include/yaclib/coroutine</text>
<text text-anchor="middle" x="931" y="-141.5" font-family="Helvetica,sans-Serif" font-size="10.00">/detail/await_awaiter.hpp</text>
</a>
</g>
</g>
<!-- Node3&#45;&gt;Node17 -->
<g id="edge22" class="edge">
<title>Node3&#45;&gt;Node17</title>
<path fill="none" stroke="midnightblue" d="M599.09,-206.22C663.26,-196.5 766.27,-180.51 855,-165 859.5,-164.21 864.14,-163.38 868.82,-162.53"/>
<polygon fill="midnightblue" stroke="midnightblue" points="598.5,-202.77 589.14,-207.73 599.55,-209.69 598.5,-202.77"/>
</g>
<!-- Node19 -->
<g id="node19" class="node">
<title>Node19</title>
<g id="a_node19"><a xlink:href="future__traits_8hpp.html" target="_top" xlink:title=" ">
<polygon fill="none" stroke="black" points="1011,-134.5 1011,-164.5 1129,-164.5 1129,-134.5 1011,-134.5"/>
<text text-anchor="start" x="1019" y="-152.5" font-family="Helvetica,sans-Serif" font-size="10.00">include/yaclib/coroutine</text>
<text text-anchor="middle" x="1070" y="-141.5" font-family="Helvetica,sans-Serif" font-size="10.00">/future_traits.hpp</text>
</a>
</g>
</g>
<!-- Node3&#45;&gt;Node19 -->
<g id="edge25" class="edge">
<title>Node3&#45;&gt;Node19</title>
<path fill="none" stroke="midnightblue" d="M599.16,-210.78C688.6,-203.52 858.6,-188.01 1002,-165 1004.86,-164.54 1007.78,-164.04 1010.73,-163.51"/>
<polygon fill="midnightblue" stroke="midnightblue" points="598.87,-207.29 589.19,-211.58 599.43,-214.27 598.87,-207.29"/>
</g>
<!-- Node20 -->
<g id="node20" class="node">
<title>Node20</title>
<g id="a_node20"><a xlink:href="future__impl_8cpp.html" target="_top" xlink:title=" ">
<polygon fill="none" stroke="black" points="1147,-140 1147,-159 1275,-159 1275,-140 1147,-140"/>
<text text-anchor="middle" x="1211" y="-147" font-family="Helvetica,sans-Serif" font-size="10.00">src/async/future_impl.cpp</text>
</a>
</g>
</g>
<!-- Node3&#45;&gt;Node20 -->
<g id="edge26" class="edge">
<title>Node3&#45;&gt;Node20</title>
<path fill="none" stroke="midnightblue" d="M599.27,-212.58C708.68,-206.92 942.39,-192.56 1138,-165 1149.13,-163.43 1161.13,-161.25 1172.12,-159.06"/>
<polygon fill="midnightblue" stroke="midnightblue" points="598.88,-209.09 589.07,-213.1 599.24,-216.08 598.88,-209.09"/>
</g>
<!-- Node4&#45;&gt;Node5 -->
<g id="edge4" class="edge">
<title>Node4&#45;&gt;Node5</title>
<path fill="none" stroke="midnightblue" d="M79.5,-126.16C72.5,-116.68 64.56,-105.92 58.39,-97.58"/>
<polygon fill="midnightblue" stroke="midnightblue" points="76.83,-128.43 85.58,-134.4 82.46,-124.27 76.83,-128.43"/>
</g>
<!-- Node4&#45;&gt;Node7 -->
<g id="edge6" class="edge">
<title>Node4&#45;&gt;Node7</title>
<path fill="none" stroke="midnightblue" d="M117.51,-127.31C127.41,-117.56 138.89,-106.26 147.71,-97.58"/>
<polygon fill="midnightblue" stroke="midnightblue" points="114.99,-124.89 110.32,-134.4 119.9,-129.87 114.99,-124.89"/>
</g>
<!-- Node6 -->
<g id="node6" class="node">
<title>Node6</title>
<g id="a_node6"><a xlink:href="when__all_8cpp.html" target="_top" xlink:title=" ">
<polygon fill="none" stroke="black" points="51.5,-0.5 51.5,-30.5 152.5,-30.5 152.5,-0.5 51.5,-0.5"/>
<text text-anchor="start" x="59.5" y="-18.5" font-family="Helvetica,sans-Serif" font-size="10.00">test/example/async</text>
<text text-anchor="middle" x="102" y="-7.5" font-family="Helvetica,sans-Serif" font-size="10.00">/when_all.cpp</text>
</a>
</g>
</g>
<!-- Node5&#45;&gt;Node6 -->
<g id="edge5" class="edge">
<title>Node5&#45;&gt;Node6</title>
<path fill="none" stroke="midnightblue" d="M66.32,-59.45C74.25,-49.9 83.3,-39 90.31,-30.58"/>
<polygon fill="midnightblue" stroke="midnightblue" points="63.42,-57.47 59.72,-67.4 68.8,-61.94 63.42,-57.47"/>
</g>
<!-- Node8 -->
<g id="node8" class="node">
<title>Node8</title>
<g id="a_node8"><a xlink:href="when__any_8cpp.html" target="_top" xlink:title=" ">
<polygon fill="none" stroke="black" points="197.5,-0.5 197.5,-30.5 298.5,-30.5 298.5,-0.5 197.5,-0.5"/>
<text text-anchor="start" x="205.5" y="-18.5" font-family="Helvetica,sans-Serif" font-size="10.00">test/example/async</text>
<text text-anchor="middle" x="248" y="-7.5" font-family="Helvetica,sans-Serif" font-size="10.00">/when_any.cpp</text>
</a>
</g>
</g>
<!-- Node7&#45;&gt;Node8 -->
<g id="edge7" class="edge">
<title>Node7&#45;&gt;Node8</title>
<path fill="none" stroke="midnightblue" d="M188.9,-61.17C202.05,-51.23 217.55,-39.51 229.38,-30.58"/>
<polygon fill="midnightblue" stroke="midnightblue" points="186.53,-58.57 180.66,-67.4 190.75,-64.16 186.53,-58.57"/>
</g>
<!-- Node11 -->
<g id="node11" class="node">
<title>Node11</title>
<g id="a_node11"><a xlink:href="wait__group_8cpp.html" target="_top" xlink:title=" ">
<polygon fill="none" stroke="black" points="591.5,-73 591.5,-92 710.5,-92 710.5,-73 591.5,-73"/>
<text text-anchor="middle" x="651" y="-80" font-family="Helvetica,sans-Serif" font-size="10.00">src/algo/wait_group.cpp</text>
</a>
</g>
</g>
<!-- Node10&#45;&gt;Node11 -->
<g id="edge11" class="edge">
<title>Node10&#45;&gt;Node11</title>
<path fill="none" stroke="midnightblue" d="M651,-124.25C651,-113.02 651,-100.38 651,-92.19"/>
<polygon fill="midnightblue" stroke="midnightblue" points="647.5,-124.4 651,-134.4 654.5,-124.4 647.5,-124.4"/>
</g>
<!-- Node13&#45;&gt;Node14 -->
<g id="edge16" class="edge">
<title>Node13&#45;&gt;Node14</title>
<path fill="none" stroke="midnightblue" d="M381,-124.11C381,-115.15 381,-105.32 381,-97.58"/>
<polygon fill="midnightblue" stroke="midnightblue" points="377.5,-124.4 381,-134.4 384.5,-124.4 377.5,-124.4"/>
</g>
<!-- Node15&#45;&gt;Node6 -->
<g id="edge19" class="edge">
<title>Node15&#45;&gt;Node6</title>
<path fill="none" stroke="midnightblue" d="M252.25,-124.57C246.13,-106.69 235.51,-82.72 219,-67 200.58,-49.45 175.09,-37.48 152.61,-29.61"/>
<polygon fill="midnightblue" stroke="midnightblue" points="248.97,-125.82 255.34,-134.28 255.64,-123.69 248.97,-125.82"/>
</g>
<!-- Node15&#45;&gt;Node8 -->
<g id="edge20" class="edge">
<title>Node15&#45;&gt;Node8</title>
<path fill="none" stroke="midnightblue" d="M256.99,-124.39C254.7,-96.9 251.03,-52.89 249.17,-30.52"/>
<polygon fill="midnightblue" stroke="midnightblue" points="253.5,-124.7 257.82,-134.37 260.48,-124.12 253.5,-124.7"/>
</g>
<!-- Node15&#45;&gt;Node14 -->
<g id="edge18" class="edge">
<title>Node15&#45;&gt;Node14</title>
<path fill="none" stroke="midnightblue" d="M294.52,-129.57C313.71,-119.35 337,-106.94 354.58,-97.58"/>
<polygon fill="midnightblue" stroke="midnightblue" points="292.65,-126.6 285.47,-134.4 295.94,-132.78 292.65,-126.6"/>
</g>
<!-- Node17&#45;&gt;Node16 -->
<g id="edge23" class="edge">
<title>Node17&#45;&gt;Node16</title>
<path fill="none" stroke="midnightblue" d="M903.24,-128.45C889.39,-118.45 872.98,-106.6 860.49,-97.58"/>
<polygon fill="midnightblue" stroke="midnightblue" points="901.32,-131.38 911.47,-134.4 905.41,-125.7 901.32,-131.38"/>
</g>
<!-- Node18 -->
<g id="node18" class="node">
<title>Node18</title>
<g id="a_node18"><a xlink:href="await__awaiter_8cpp.html" target="_top" xlink:title=" ">
<polygon fill="none" stroke="black" points="918.5,-67.5 918.5,-97.5 1017.5,-97.5 1017.5,-67.5 918.5,-67.5"/>
<text text-anchor="start" x="926.5" y="-85.5" font-family="Helvetica,sans-Serif" font-size="10.00">src/coroutine/await</text>
<text text-anchor="middle" x="968" y="-74.5" font-family="Helvetica,sans-Serif" font-size="10.00">_awaiter.cpp</text>
</a>
</g>
</g>
<!-- Node17&#45;&gt;Node18 -->
<g id="edge24" class="edge">
<title>Node17&#45;&gt;Node18</title>
<path fill="none" stroke="midnightblue" d="M944.05,-125.58C949.36,-116.24 955.34,-105.75 959.99,-97.58"/>
<polygon fill="midnightblue" stroke="midnightblue" points="940.93,-123.97 939.03,-134.4 947.02,-127.44 940.93,-123.97"/>
</g>
</g>
</svg>
