<?xml version="1.0" encoding="UTF-8" standalone="no"?>
<!DOCTYPE svg PUBLIC "-//W3C//DTD SVG 1.1//EN"
 "http://www.w3.org/Graphics/SVG/1.1/DTD/svg11.dtd">
<!-- Generated by graphviz version 3.0.0 (20220413.0106)
 -->
<!-- Title: src/algo/wait_impl.cpp Pages: 1 -->
<!--zoomable 475 -->
<svg id="main" version="1.1" xmlns="http://www.w3.org/2000/svg" xmlns:xlink="http://www.w3.org/1999/xlink" xml:space="preserve" onload="init(evt)">
<style type="text/css"><![CDATA[
.edge:hover path { stroke: red; }
.edge:hover polygon { stroke: red; fill: red; }
]]></style>
<script type="text/javascript"><![CDATA[
var edges = document.getElementsByTagName('g');
if (edges && edges.length) {
  for (var i=0;i<edges.length;i++) {
    if (edges[i].id.substr(0,4)=='edge') {
      edges[i].setAttribute('class','edge');
    }
  }
}
]]></script>
        <defs>
                <circle id="rim" cx="0" cy="0" r="7"/>
                <circle id="rim2" cx="0" cy="0" r="3.5"/>
                <g id="zoomPlus">
                        <use xlink:href="#rim" fill="#404040">
                                <set attributeName="fill" to="#808080" begin="zoomplus.mouseover" end="zoomplus.mouseout"/>
                        </use>
                        <path d="M-4,0h8M0,-4v8" fill="none" stroke="white" stroke-width="1.5" pointer-events="none"/>
                </g>
                <g id="zoomMin">
                        <use xlink:href="#rim" fill="#404040">
                                <set attributeName="fill" to="#808080" begin="zoomminus.mouseover" end="zoomminus.mouseout"/>
                        </use>
                        <path d="M-4,0h8" fill="none" stroke="white" stroke-width="1.5" pointer-events="none"/>
                </g>
                <g id="dirArrow">
                        <path fill="none" stroke="white" stroke-width="1.5" d="M0,-3.0v7 M-2.5,-0.5L0,-3.0L2.5,-0.5"/>
                </g>
               <g id="resetDef">
                       <use xlink:href="#rim2" fill="#404040">
                               <set attributeName="fill" to="#808080" begin="reset.mouseover" end="reset.mouseout"/>
                       </use>
               </g>
        </defs>

<script type="text/javascript">
var viewWidth = 1205;
var viewHeight = 475;
var sectionId = 'dynsection-0';
</script>
<script xlink:href="svgpan.js"/>
<svg id="graph" class="graph">
<g id="viewport">
<title>src/algo/wait_impl.cpp</title>
<!-- Node1 -->
<g id="node1" class="node">
<title>Node1</title>
<g id="a_node1"><a xlink:title=" ">
<polygon fill="#bfbfbf" stroke="black" points="847.5,-447.5 847.5,-466.5 960.5,-466.5 960.5,-447.5 847.5,-447.5"/>
<text text-anchor="middle" x="904" y="-454.5" font-family="Helvetica,sans-Serif" font-size="10.00">src/algo/wait_impl.cpp</text>
</a>
</g>
</g>
<!-- Node2 -->
<g id="node2" class="node">
<title>Node2</title>
<g id="a_node2"><a xlink:href="wait__impl_8hpp.html" target="_top" xlink:title=" ">
<polygon fill="none" stroke="black" points="859.5,-380.5 859.5,-410.5 948.5,-410.5 948.5,-380.5 859.5,-380.5"/>
<text text-anchor="start" x="867.5" y="-398.5" font-family="Helvetica,sans-Serif" font-size="10.00">yaclib/algo/detail</text>
<text text-anchor="middle" x="904" y="-387.5" font-family="Helvetica,sans-Serif" font-size="10.00">/wait_impl.hpp</text>
</a>
</g>
</g>
<!-- Node1&#45;&gt;Node2 -->
<g id="edge1" class="edge">
<title>Node1&#45;&gt;Node2</title>
<path fill="none" stroke="midnightblue" d="M904,-447.48C904,-440.47 904,-430.19 904,-420.7"/>
<polygon fill="midnightblue" stroke="midnightblue" points="907.5,-420.52 904,-410.52 900.5,-420.52 907.5,-420.52"/>
</g>
<!-- Node3 -->
<g id="node3" class="node">
<title>Node3</title>
<g id="a_node3"><a xlink:href="base__core_8hpp.html" target="_top" xlink:title=" ">
<polygon fill="none" stroke="black" points="298,-313.5 298,-343.5 394,-343.5 394,-313.5 298,-313.5"/>
<text text-anchor="start" x="306" y="-331.5" font-family="Helvetica,sans-Serif" font-size="10.00">yaclib/async/detail</text>
<text text-anchor="middle" x="346" y="-320.5" font-family="Helvetica,sans-Serif" font-size="10.00">/base_core.hpp</text>
</a>
</g>
</g>
<!-- Node2&#45;&gt;Node3 -->
<g id="edge2" class="edge">
<title>Node2&#45;&gt;Node3</title>
<path fill="none" stroke="midnightblue" d="M859.28,-389.29C758.97,-377.61 516.05,-349.31 404.17,-336.28"/>
<polygon fill="midnightblue" stroke="midnightblue" points="404.43,-332.78 394.09,-335.1 403.62,-339.74 404.43,-332.78"/>
</g>
<!-- Node9 -->
<g id="node9" class="node">
<title>Node9</title>
<g id="a_node9"><a xlink:title=" ">
<polygon fill="none" stroke="#bfbfbf" points="892,-56.5 892,-75.5 954,-75.5 954,-56.5 892,-56.5"/>
<text text-anchor="middle" x="923" y="-63.5" font-family="Helvetica,sans-Serif" font-size="10.00">type_traits</text>
</a>
</g>
</g>
<!-- Node2&#45;&gt;Node9 -->
<g id="edge43" class="edge">
<title>Node2&#45;&gt;Node9</title>
<path fill="none" stroke="midnightblue" d="M907.4,-380.34C912.86,-356.27 923,-305.8 923,-262.5 923,-262.5 923,-262.5 923,-193.5 923,-155.2 923,-110.38 923,-85.7"/>
<polygon fill="midnightblue" stroke="midnightblue" points="926.5,-85.59 923,-75.59 919.5,-85.59 926.5,-85.59"/>
</g>
<!-- Node17 -->
<g id="node17" class="node">
<title>Node17</title>
<g id="a_node17"><a xlink:href="atomic__counter_8hpp.html" target="_top" xlink:title=" ">
<polygon fill="none" stroke="black" points="753,-313.5 753,-343.5 857,-343.5 857,-313.5 753,-313.5"/>
<text text-anchor="start" x="761" y="-331.5" font-family="Helvetica,sans-Serif" font-size="10.00">yaclib/util/detail</text>
<text text-anchor="middle" x="805" y="-320.5" font-family="Helvetica,sans-Serif" font-size="10.00">/atomic_counter.hpp</text>
</a>
</g>
</g>
<!-- Node2&#45;&gt;Node17 -->
<g id="edge21" class="edge">
<title>Node2&#45;&gt;Node17</title>
<path fill="none" stroke="midnightblue" d="M882.52,-380.4C868.64,-371.28 850.37,-359.29 835.06,-349.24"/>
<polygon fill="midnightblue" stroke="midnightblue" points="836.72,-346.14 826.44,-343.58 832.88,-351.99 836.72,-346.14"/>
</g>
<!-- Node19 -->
<g id="node19" class="node">
<title>Node19</title>
<g id="a_node19"><a xlink:title=" ">
<polygon fill="none" stroke="#bfbfbf" points="845.5,-252 845.5,-271 894.5,-271 894.5,-252 845.5,-252"/>
<text text-anchor="middle" x="870" y="-259" font-family="Helvetica,sans-Serif" font-size="10.00">cstddef</text>
</a>
</g>
</g>
<!-- Node2&#45;&gt;Node19 -->
<g id="edge41" class="edge">
<title>Node2&#45;&gt;Node19</title>
<path fill="none" stroke="midnightblue" d="M900.36,-380.37C894.19,-356.4 881.65,-307.75 874.78,-281.06"/>
<polygon fill="midnightblue" stroke="midnightblue" points="878.1,-279.91 872.21,-271.1 871.32,-281.65 878.1,-279.91"/>
</g>
<!-- Node20 -->
<g id="node20" class="node">
<title>Node20</title>
<g id="a_node20"><a xlink:href="default__event_8hpp.html" target="_top" xlink:title=" ">
<polygon fill="none" stroke="black" points="639,-313.5 639,-343.5 735,-343.5 735,-313.5 639,-313.5"/>
<text text-anchor="start" x="647" y="-331.5" font-family="Helvetica,sans-Serif" font-size="10.00">yaclib/util/detail</text>
<text text-anchor="middle" x="687" y="-320.5" font-family="Helvetica,sans-Serif" font-size="10.00">/default_event.hpp</text>
</a>
</g>
</g>
<!-- Node2&#45;&gt;Node20 -->
<g id="edge26" class="edge">
<title>Node2&#45;&gt;Node20</title>
<path fill="none" stroke="midnightblue" d="M859.3,-381.11C825.85,-371.09 779.84,-357.31 743.78,-346.51"/>
<polygon fill="midnightblue" stroke="midnightblue" points="744.48,-343.06 733.89,-343.55 742.47,-349.77 744.48,-343.06"/>
</g>
<!-- Node25 -->
<g id="node25" class="node">
<title>Node25</title>
<g id="a_node25"><a xlink:href="set__one__deleter_8hpp.html" target="_top" xlink:title=" ">
<polygon fill="none" stroke="black" points="951.5,-313.5 951.5,-343.5 1058.5,-343.5 1058.5,-313.5 951.5,-313.5"/>
<text text-anchor="start" x="959.5" y="-331.5" font-family="Helvetica,sans-Serif" font-size="10.00">yaclib/util/detail</text>
<text text-anchor="middle" x="1005" y="-320.5" font-family="Helvetica,sans-Serif" font-size="10.00">/set_one_deleter.hpp</text>
</a>
</g>
</g>
<!-- Node2&#45;&gt;Node25 -->
<g id="edge33" class="edge">
<title>Node2&#45;&gt;Node25</title>
<path fill="none" stroke="midnightblue" d="M925.92,-380.4C940.08,-371.28 958.71,-359.29 974.33,-349.24"/>
<polygon fill="midnightblue" stroke="midnightblue" points="976.61,-351.93 983.13,-343.58 972.82,-346.05 976.61,-351.93"/>
</g>
<!-- Node26 -->
<g id="node26" class="node">
<title>Node26</title>
<g id="a_node26"><a xlink:href="type__traits_8hpp.html" target="_top" xlink:title=" ">
<polygon fill="none" stroke="black" points="1025.5,-185 1025.5,-204 1148.5,-204 1148.5,-185 1025.5,-185"/>
<text text-anchor="middle" x="1087" y="-192" font-family="Helvetica,sans-Serif" font-size="10.00">yaclib/util/type_traits.hpp</text>
</a>
</g>
</g>
<!-- Node2&#45;&gt;Node26 -->
<g id="edge34" class="edge">
<title>Node2&#45;&gt;Node26</title>
<path fill="none" stroke="midnightblue" d="M948.77,-393.42C986.49,-389.95 1038.84,-378.64 1068,-344 1099.17,-306.97 1095.05,-245.24 1090.48,-214.34"/>
<polygon fill="midnightblue" stroke="midnightblue" points="1093.88,-213.41 1088.78,-204.12 1086.97,-214.55 1093.88,-213.41"/>
</g>
<!-- Node30 -->
<g id="node30" class="node">
<title>Node30</title>
<g id="a_node30"><a xlink:title=" ">
<polygon fill="none" stroke="#bfbfbf" points="1115.5,-319 1115.5,-338 1162.5,-338 1162.5,-319 1115.5,-319"/>
<text text-anchor="middle" x="1139" y="-326" font-family="Helvetica,sans-Serif" font-size="10.00">iterator</text>
</a>
</g>
</g>
<!-- Node2&#45;&gt;Node30 -->
<g id="edge42" class="edge">
<title>Node2&#45;&gt;Node30</title>
<path fill="none" stroke="midnightblue" d="M948.61,-384.59C988.81,-375.3 1049.35,-360.42 1101,-344 1103.41,-343.23 1105.9,-342.4 1108.38,-341.52"/>
<polygon fill="midnightblue" stroke="midnightblue" points="1109.66,-344.78 1117.85,-338.06 1107.25,-338.21 1109.66,-344.78"/>
</g>
<!-- Node4 -->
<g id="node4" class="node">
<title>Node4</title>
<g id="a_node4"><a xlink:href="inline__core_8hpp.html" target="_top" xlink:title=" ">
<polygon fill="none" stroke="black" points="366,-246.5 366,-276.5 462,-276.5 462,-246.5 366,-246.5"/>
<text text-anchor="start" x="374" y="-264.5" font-family="Helvetica,sans-Serif" font-size="10.00">yaclib/async/detail</text>
<text text-anchor="middle" x="414" y="-253.5" font-family="Helvetica,sans-Serif" font-size="10.00">/inline_core.hpp</text>
</a>
</g>
</g>
<!-- Node3&#45;&gt;Node4 -->
<g id="edge3" class="edge">
<title>Node3&#45;&gt;Node4</title>
<path fill="none" stroke="midnightblue" d="M360.75,-313.4C369.84,-304.71 381.67,-293.4 391.87,-283.66"/>
<polygon fill="midnightblue" stroke="midnightblue" points="394.46,-286.02 399.27,-276.58 389.63,-280.96 394.46,-286.02"/>
</g>
<!-- Node8 -->
<g id="node8" class="node">
<title>Node8</title>
<g id="a_node8"><a xlink:href="ref_8hpp.html" target="_top" xlink:title=" ">
<polygon fill="none" stroke="black" points="351.5,-56.5 351.5,-75.5 440.5,-75.5 440.5,-56.5 351.5,-56.5"/>
<text text-anchor="middle" x="396" y="-63.5" font-family="Helvetica,sans-Serif" font-size="10.00">yaclib/util/ref.hpp</text>
</a>
</g>
</g>
<!-- Node3&#45;&gt;Node8 -->
<g id="edge19" class="edge">
<title>Node3&#45;&gt;Node8</title>
<path fill="none" stroke="midnightblue" d="M297.89,-326.16C261.75,-322.31 214.45,-310.61 190,-277 181.9,-265.86 187.12,-259.47 190,-246 196.82,-214.09 199.02,-203.99 220,-179 254.16,-138.31 274.04,-140.31 319,-112 336.47,-101 356.63,-89.25 371.94,-80.52"/>
<polygon fill="midnightblue" stroke="midnightblue" points="373.8,-83.48 380.77,-75.5 370.35,-77.4 373.8,-83.48"/>
</g>
<!-- Node11 -->
<g id="node11" class="node">
<title>Node11</title>
<g id="a_node11"><a xlink:href="executor_8hpp.html" target="_top" xlink:title=" ">
<polygon fill="none" stroke="black" points="208.5,-252 208.5,-271 347.5,-271 347.5,-252 208.5,-252"/>
<text text-anchor="middle" x="278" y="-259" font-family="Helvetica,sans-Serif" font-size="10.00">yaclib/executor/executor.hpp</text>
</a>
</g>
</g>
<!-- Node3&#45;&gt;Node11 -->
<g id="edge10" class="edge">
<title>Node3&#45;&gt;Node11</title>
<path fill="none" stroke="midnightblue" d="M331.25,-313.4C320.43,-303.06 305.75,-289.02 294.54,-278.31"/>
<polygon fill="midnightblue" stroke="midnightblue" points="296.74,-275.57 287.1,-271.19 291.91,-280.63 296.74,-275.57"/>
</g>
<!-- Node12 -->
<g id="node12" class="node">
<title>Node12</title>
<g id="a_node12"><a xlink:href="intrusive__ptr_8hpp.html" target="_top" xlink:title=" ">
<polygon fill="none" stroke="black" points="229.5,-179.5 229.5,-209.5 326.5,-209.5 326.5,-179.5 229.5,-179.5"/>
<text text-anchor="start" x="237.5" y="-197.5" font-family="Helvetica,sans-Serif" font-size="10.00">yaclib/util/intrusive</text>
<text text-anchor="middle" x="278" y="-186.5" font-family="Helvetica,sans-Serif" font-size="10.00">_ptr.hpp</text>
</a>
</g>
</g>
<!-- Node3&#45;&gt;Node12 -->
<g id="edge18" class="edge">
<title>Node3&#45;&gt;Node12</title>
<path fill="none" stroke="midnightblue" d="M297.75,-324.93C264.06,-320.31 221.26,-308.19 199,-277 191,-265.79 192.38,-258.08 199,-246 206.31,-232.66 218.8,-222.33 231.73,-214.59"/>
<polygon fill="midnightblue" stroke="midnightblue" points="233.63,-217.54 240.69,-209.64 230.24,-211.41 233.63,-217.54"/>
</g>
<!-- Node16 -->
<g id="node16" class="node">
<title>Node16</title>
<g id="a_node16"><a xlink:title=" ">
<polygon fill="none" stroke="#bfbfbf" points="480,-252 480,-271 572,-271 572,-252 480,-252"/>
<text text-anchor="middle" x="526" y="-259" font-family="Helvetica,sans-Serif" font-size="10.00">yaclib_std/atomic</text>
</a>
</g>
</g>
<!-- Node3&#45;&gt;Node16 -->
<g id="edge20" class="edge">
<title>Node3&#45;&gt;Node16</title>
<path fill="none" stroke="midnightblue" d="M385.06,-313.4C417.2,-301.79 462.27,-285.51 492.72,-274.52"/>
<polygon fill="midnightblue" stroke="midnightblue" points="494.23,-277.7 502.44,-271.01 491.85,-271.11 494.23,-277.7"/>
</g>
<!-- Node5 -->
<g id="node5" class="node">
<title>Node5</title>
<g id="a_node5"><a xlink:href="job_8hpp.html" target="_top" xlink:title=" ">
<polygon fill="none" stroke="black" points="344.5,-185 344.5,-204 459.5,-204 459.5,-185 344.5,-185"/>
<text text-anchor="middle" x="402" y="-192" font-family="Helvetica,sans-Serif" font-size="10.00">yaclib/executor/job.hpp</text>
</a>
</g>
</g>
<!-- Node4&#45;&gt;Node5 -->
<g id="edge4" class="edge">
<title>Node4&#45;&gt;Node5</title>
<path fill="none" stroke="midnightblue" d="M411.4,-246.4C409.65,-236.96 407.34,-224.45 405.45,-214.19"/>
<polygon fill="midnightblue" stroke="midnightblue" points="408.86,-213.39 403.61,-204.19 401.98,-214.66 408.86,-213.39"/>
</g>
<!-- Node6 -->
<g id="node6" class="node">
<title>Node6</title>
<g id="a_node6"><a xlink:href="node_8hpp.html" target="_top" xlink:title=" ">
<polygon fill="none" stroke="black" points="360.5,-112.5 360.5,-142.5 443.5,-142.5 443.5,-112.5 360.5,-112.5"/>
<text text-anchor="start" x="368.5" y="-130.5" font-family="Helvetica,sans-Serif" font-size="10.00">yaclib/util/detail</text>
<text text-anchor="middle" x="402" y="-119.5" font-family="Helvetica,sans-Serif" font-size="10.00">/node.hpp</text>
</a>
</g>
</g>
<!-- Node5&#45;&gt;Node6 -->
<g id="edge5" class="edge">
<title>Node5&#45;&gt;Node6</title>
<path fill="none" stroke="midnightblue" d="M402,-184.73C402,-176.54 402,-163.92 402,-152.71"/>
<polygon fill="midnightblue" stroke="midnightblue" points="405.5,-152.59 402,-142.59 398.5,-152.59 405.5,-152.59"/>
</g>
<!-- Node7 -->
<g id="node7" class="node">
<title>Node7</title>
<g id="a_node7"><a xlink:href="func_8hpp.html" target="_top" xlink:title=" ">
<polygon fill="none" stroke="black" points="604.5,-118 604.5,-137 701.5,-137 701.5,-118 604.5,-118"/>
<text text-anchor="middle" x="653" y="-125" font-family="Helvetica,sans-Serif" font-size="10.00">yaclib/util/func.hpp</text>
</a>
</g>
</g>
<!-- Node5&#45;&gt;Node7 -->
<g id="edge6" class="edge">
<title>Node5&#45;&gt;Node7</title>
<path fill="none" stroke="midnightblue" d="M435.07,-184.94C480.03,-173.29 560.5,-152.45 610.07,-139.62"/>
<polygon fill="midnightblue" stroke="midnightblue" points="611.05,-142.98 619.85,-137.08 609.3,-136.2 611.05,-142.98"/>
</g>
<!-- Node7&#45;&gt;Node8 -->
<g id="edge7" class="edge">
<title>Node7&#45;&gt;Node8</title>
<path fill="none" stroke="midnightblue" d="M616.18,-117.98C570.47,-107.39 492.47,-89.34 442.63,-77.8"/>
<polygon fill="midnightblue" stroke="midnightblue" points="443.29,-74.35 432.75,-75.51 441.71,-81.17 443.29,-74.35"/>
</g>
<!-- Node7&#45;&gt;Node9 -->
<g id="edge8" class="edge">
<title>Node7&#45;&gt;Node9</title>
<path fill="none" stroke="midnightblue" d="M691.68,-117.98C742.26,-106.83 830.48,-87.39 882.12,-76.01"/>
<polygon fill="midnightblue" stroke="midnightblue" points="882.93,-79.41 891.94,-73.84 881.42,-72.58 882.93,-79.41"/>
</g>
<!-- Node10 -->
<g id="node10" class="node">
<title>Node10</title>
<g id="a_node10"><a xlink:title=" ">
<polygon fill="none" stroke="#bfbfbf" points="715.5,-56.5 715.5,-75.5 754.5,-75.5 754.5,-56.5 715.5,-56.5"/>
<text text-anchor="middle" x="735" y="-63.5" font-family="Helvetica,sans-Serif" font-size="10.00">utility</text>
</a>
</g>
</g>
<!-- Node7&#45;&gt;Node10 -->
<g id="edge9" class="edge">
<title>Node7&#45;&gt;Node10</title>
<path fill="none" stroke="midnightblue" d="M664.75,-117.98C677.78,-108.52 699.04,-93.1 714.76,-81.69"/>
<polygon fill="midnightblue" stroke="midnightblue" points="717.23,-84.21 723.27,-75.51 713.12,-78.55 717.23,-84.21"/>
</g>
<!-- Node11&#45;&gt;Node5 -->
<g id="edge11" class="edge">
<title>Node11&#45;&gt;Node5</title>
<path fill="none" stroke="midnightblue" d="M294.47,-251.87C315.4,-240.89 351.78,-221.82 376.36,-208.94"/>
<polygon fill="midnightblue" stroke="midnightblue" points="378.23,-211.91 385.47,-204.17 374.98,-205.71 378.23,-211.91"/>
</g>
<!-- Node11&#45;&gt;Node12 -->
<g id="edge12" class="edge">
<title>Node11&#45;&gt;Node12</title>
<path fill="none" stroke="midnightblue" d="M278,-251.73C278,-243.54 278,-230.92 278,-219.71"/>
<polygon fill="midnightblue" stroke="midnightblue" points="281.5,-219.59 278,-209.59 274.5,-219.59 281.5,-219.59"/>
</g>
<!-- Node12&#45;&gt;Node8 -->
<g id="edge13" class="edge">
<title>Node12&#45;&gt;Node8</title>
<path fill="none" stroke="midnightblue" d="M290.17,-179.45C304.48,-163.03 329.06,-135.18 351,-112 360.3,-102.17 371.01,-91.44 379.64,-82.93"/>
<polygon fill="midnightblue" stroke="midnightblue" points="382.2,-85.32 386.89,-75.82 377.3,-80.33 382.2,-85.32"/>
</g>
<!-- Node12&#45;&gt;Node9 -->
<g id="edge14" class="edge">
<title>Node12&#45;&gt;Node9</title>
<path fill="none" stroke="midnightblue" d="M326.71,-180.59C329.51,-180.01 332.28,-179.47 335,-179 499.95,-150.28 546.57,-179.41 710,-143 778.18,-127.81 854.48,-97.02 894.67,-79.66"/>
<polygon fill="midnightblue" stroke="midnightblue" points="896.32,-82.76 904.09,-75.55 893.52,-76.34 896.32,-82.76"/>
</g>
<!-- Node13 -->
<g id="node13" class="node">
<title>Node13</title>
<g id="a_node13"><a xlink:href="intrusive__ptr__impl_8hpp.html" target="_top" xlink:title=" ">
<polygon fill="none" stroke="black" points="0,-112.5 0,-142.5 114,-142.5 114,-112.5 0,-112.5"/>
<text text-anchor="start" x="8" y="-130.5" font-family="Helvetica,sans-Serif" font-size="10.00">yaclib/util/detail</text>
<text text-anchor="middle" x="57" y="-119.5" font-family="Helvetica,sans-Serif" font-size="10.00">/intrusive_ptr_impl.hpp</text>
</a>
</g>
</g>
<!-- Node12&#45;&gt;Node13 -->
<g id="edge15" class="edge">
<title>Node12&#45;&gt;Node13</title>
<path fill="none" stroke="midnightblue" d="M230.32,-179.48C196.45,-169.51 150.79,-156.09 114.84,-145.51"/>
<polygon fill="midnightblue" stroke="midnightblue" points="115.56,-142.07 104.98,-142.61 113.58,-148.79 115.56,-142.07"/>
</g>
<!-- Node14 -->
<g id="node14" class="node">
<title>Node14</title>
<g id="a_node14"><a xlink:href="log_8hpp.html" target="_top" xlink:title=" ">
<polygon fill="none" stroke="black" points="19.5,-56.5 19.5,-75.5 94.5,-75.5 94.5,-56.5 19.5,-56.5"/>
<text text-anchor="middle" x="57" y="-63.5" font-family="Helvetica,sans-Serif" font-size="10.00">yaclib/log.hpp</text>
</a>
</g>
</g>
<!-- Node13&#45;&gt;Node14 -->
<g id="edge16" class="edge">
<title>Node13&#45;&gt;Node14</title>
<path fill="none" stroke="midnightblue" d="M57,-112.4C57,-104.47 57,-94.46 57,-85.86"/>
<polygon fill="midnightblue" stroke="midnightblue" points="60.5,-85.66 57,-75.66 53.5,-85.66 60.5,-85.66"/>
</g>
<!-- Node15 -->
<g id="node15" class="node">
<title>Node15</title>
<g id="a_node15"><a xlink:title=" ">
<polygon fill="none" stroke="#bfbfbf" points="24,-0.5 24,-19.5 90,-19.5 90,-0.5 24,-0.5"/>
<text text-anchor="middle" x="57" y="-7.5" font-family="Helvetica,sans-Serif" font-size="10.00">string_view</text>
</a>
</g>
</g>
<!-- Node14&#45;&gt;Node15 -->
<g id="edge17" class="edge">
<title>Node14&#45;&gt;Node15</title>
<path fill="none" stroke="midnightblue" d="M57,-56.08C57,-49.01 57,-38.86 57,-29.99"/>
<polygon fill="midnightblue" stroke="midnightblue" points="60.5,-29.75 57,-19.75 53.5,-29.75 60.5,-29.75"/>
</g>
<!-- Node17&#45;&gt;Node10 -->
<g id="edge24" class="edge">
<title>Node17&#45;&gt;Node10</title>
<path fill="none" stroke="midnightblue" d="M806.32,-313.23C808.34,-286.35 810.69,-226.65 797,-179 786.52,-142.53 762.44,-104.89 747.57,-83.86"/>
<polygon fill="midnightblue" stroke="midnightblue" points="750.34,-81.72 741.64,-75.67 744.67,-85.83 750.34,-81.72"/>
</g>
<!-- Node17&#45;&gt;Node16 -->
<g id="edge25" class="edge">
<title>Node17&#45;&gt;Node16</title>
<path fill="none" stroke="midnightblue" d="M752.77,-315.03C749.8,-314.34 746.86,-313.66 744,-313 671.69,-296.42 653.11,-294.46 581,-277 576.56,-275.93 571.93,-274.77 567.32,-273.59"/>
<polygon fill="midnightblue" stroke="midnightblue" points="567.91,-270.12 557.36,-271 566.16,-276.9 567.91,-270.12"/>
</g>
<!-- Node18 -->
<g id="node18" class="node">
<title>Node18</title>
<g id="a_node18"><a xlink:title=" ">
<polygon fill="none" stroke="#bfbfbf" points="701,-252 701,-271 789,-271 789,-252 701,-252"/>
<text text-anchor="middle" x="745" y="-259" font-family="Helvetica,sans-Serif" font-size="10.00">yaclib/config.hpp</text>
</a>
</g>
</g>
<!-- Node17&#45;&gt;Node18 -->
<g id="edge22" class="edge">
<title>Node17&#45;&gt;Node18</title>
<path fill="none" stroke="midnightblue" d="M791.98,-313.4C782.53,-303.16 769.73,-289.3 759.88,-278.62"/>
<polygon fill="midnightblue" stroke="midnightblue" points="762.38,-276.17 753.03,-271.19 757.24,-280.92 762.38,-276.17"/>
</g>
<!-- Node17&#45;&gt;Node19 -->
<g id="edge23" class="edge">
<title>Node17&#45;&gt;Node19</title>
<path fill="none" stroke="midnightblue" d="M819.1,-313.4C829.44,-303.06 843.48,-289.02 854.19,-278.31"/>
<polygon fill="midnightblue" stroke="midnightblue" points="856.71,-280.74 861.31,-271.19 851.76,-275.79 856.71,-280.74"/>
</g>
<!-- Node20&#45;&gt;Node18 -->
<g id="edge27" class="edge">
<title>Node20&#45;&gt;Node18</title>
<path fill="none" stroke="midnightblue" d="M699.59,-313.4C708.63,-303.26 720.85,-289.57 730.33,-278.94"/>
<polygon fill="midnightblue" stroke="midnightblue" points="733.2,-280.99 737.24,-271.19 727.97,-276.33 733.2,-280.99"/>
</g>
<!-- Node21 -->
<g id="node21" class="node">
<title>Node21</title>
<g id="a_node21"><a xlink:href="mutex__event_8hpp.html" target="_top" xlink:title=" ">
<polygon fill="none" stroke="black" points="590.5,-246.5 590.5,-276.5 683.5,-276.5 683.5,-246.5 590.5,-246.5"/>
<text text-anchor="start" x="598.5" y="-264.5" font-family="Helvetica,sans-Serif" font-size="10.00">yaclib/util/detail</text>
<text text-anchor="middle" x="637" y="-253.5" font-family="Helvetica,sans-Serif" font-size="10.00">/mutex_event.hpp</text>
</a>
</g>
</g>
<!-- Node20&#45;&gt;Node21 -->
<g id="edge28" class="edge">
<title>Node20&#45;&gt;Node21</title>
<path fill="none" stroke="midnightblue" d="M676.15,-313.4C669.66,-304.96 661.28,-294.07 653.94,-284.52"/>
<polygon fill="midnightblue" stroke="midnightblue" points="656.7,-282.37 647.83,-276.58 651.15,-286.64 656.7,-282.37"/>
</g>
<!-- Node21&#45;&gt;Node8 -->
<g id="edge29" class="edge">
<title>Node21&#45;&gt;Node8</title>
<path fill="none" stroke="midnightblue" d="M591.35,-246.41C559.38,-235.88 520.12,-221.39 507,-210 469.28,-177.26 484.28,-150.12 452,-112 442.21,-100.43 429.09,-89.71 418.02,-81.63"/>
<polygon fill="midnightblue" stroke="midnightblue" points="419.87,-78.65 409.67,-75.76 415.84,-84.38 419.87,-78.65"/>
</g>
<!-- Node22 -->
<g id="node22" class="node">
<title>Node22</title>
<g id="a_node22"><a xlink:title=" ">
<polygon fill="none" stroke="#bfbfbf" points="516,-185 516,-204 562,-204 562,-185 516,-185"/>
<text text-anchor="middle" x="539" y="-192" font-family="Helvetica,sans-Serif" font-size="10.00">chrono</text>
</a>
</g>
</g>
<!-- Node21&#45;&gt;Node22 -->
<g id="edge30" class="edge">
<title>Node21&#45;&gt;Node22</title>
<path fill="none" stroke="midnightblue" d="M615.74,-246.4C599.3,-235.5 576.66,-220.48 560.23,-209.58"/>
<polygon fill="midnightblue" stroke="midnightblue" points="562.09,-206.62 551.83,-204.01 558.22,-212.45 562.09,-206.62"/>
</g>
<!-- Node23 -->
<g id="node23" class="node">
<title>Node23</title>
<g id="a_node23"><a xlink:title=" ">
<polygon fill="none" stroke="#bfbfbf" points="580,-179.5 580,-209.5 682,-209.5 682,-179.5 580,-179.5"/>
<text text-anchor="start" x="588" y="-197.5" font-family="Helvetica,sans-Serif" font-size="10.00">yaclib_std/condition</text>
<text text-anchor="middle" x="631" y="-186.5" font-family="Helvetica,sans-Serif" font-size="10.00">_variable</text>
</a>
</g>
</g>
<!-- Node21&#45;&gt;Node23 -->
<g id="edge31" class="edge">
<title>Node21&#45;&gt;Node23</title>
<path fill="none" stroke="midnightblue" d="M635.7,-246.4C634.97,-238.56 634.05,-228.6 633.22,-219.57"/>
<polygon fill="midnightblue" stroke="midnightblue" points="636.7,-219.21 632.3,-209.58 629.73,-219.86 636.7,-219.21"/>
</g>
<!-- Node24 -->
<g id="node24" class="node">
<title>Node24</title>
<g id="a_node24"><a xlink:title=" ">
<polygon fill="none" stroke="#bfbfbf" points="699.5,-185 699.5,-204 788.5,-204 788.5,-185 699.5,-185"/>
<text text-anchor="middle" x="744" y="-192" font-family="Helvetica,sans-Serif" font-size="10.00">yaclib_std/mutex</text>
</a>
</g>
</g>
<!-- Node21&#45;&gt;Node24 -->
<g id="edge32" class="edge">
<title>Node21&#45;&gt;Node24</title>
<path fill="none" stroke="midnightblue" d="M660.22,-246.4C678.33,-235.39 703.34,-220.2 721.31,-209.28"/>
<polygon fill="midnightblue" stroke="midnightblue" points="723.27,-212.19 730,-204.01 719.63,-206.21 723.27,-212.19"/>
</g>
<!-- Node26&#45;&gt;Node9 -->
<g id="edge40" class="edge">
<title>Node26&#45;&gt;Node9</title>
<path fill="none" stroke="midnightblue" d="M1059.9,-184.88C1036.95,-176.65 1004.04,-162.6 980,-143 959.7,-126.44 942.65,-101.18 932.63,-84.38"/>
<polygon fill="midnightblue" stroke="midnightblue" points="935.59,-82.52 927.57,-75.6 929.53,-86.01 935.59,-82.52"/>
</g>
<!-- Node27 -->
<g id="node27" class="node">
<title>Node27</title>
<g id="a_node27"><a xlink:href="fwd_8hpp.html" target="_top" xlink:title=" ">
<polygon fill="none" stroke="black" points="1119,-56.5 1119,-75.5 1197,-75.5 1197,-56.5 1119,-56.5"/>
<text text-anchor="middle" x="1158" y="-63.5" font-family="Helvetica,sans-Serif" font-size="10.00">yaclib/fwd.hpp</text>
</a>
</g>
</g>
<!-- Node26&#45;&gt;Node27 -->
<g id="edge35" class="edge">
<title>Node26&#45;&gt;Node27</title>
<path fill="none" stroke="midnightblue" d="M1120.26,-184.93C1141.4,-177.57 1167.13,-164.63 1180,-143 1191.04,-124.45 1180.23,-100.03 1170.24,-83.94"/>
<polygon fill="midnightblue" stroke="midnightblue" points="1173.09,-81.91 1164.63,-75.54 1167.27,-85.8 1173.09,-81.91"/>
</g>
<!-- Node28 -->
<g id="node28" class="node">
<title>Node28</title>
<g id="a_node28"><a xlink:href="type__traits__impl_8hpp.html" target="_top" xlink:title=" ">
<polygon fill="none" stroke="black" points="1065,-112.5 1065,-142.5 1171,-142.5 1171,-112.5 1065,-112.5"/>
<text text-anchor="start" x="1073" y="-130.5" font-family="Helvetica,sans-Serif" font-size="10.00">yaclib/util/detail</text>
<text text-anchor="middle" x="1118" y="-119.5" font-family="Helvetica,sans-Serif" font-size="10.00">/type_traits_impl.hpp</text>
</a>
</g>
</g>
<!-- Node26&#45;&gt;Node28 -->
<g id="edge36" class="edge">
<title>Node26&#45;&gt;Node28</title>
<path fill="none" stroke="midnightblue" d="M1091.18,-184.73C1095.21,-176.29 1101.48,-163.14 1106.95,-151.68"/>
<polygon fill="midnightblue" stroke="midnightblue" points="1110.13,-153.12 1111.28,-142.59 1103.82,-150.11 1110.13,-153.12"/>
</g>
<!-- Node29 -->
<g id="node29" class="node">
<title>Node29</title>
<g id="a_node29"><a xlink:title=" ">
<polygon fill="none" stroke="#bfbfbf" points="989,-118 989,-137 1047,-137 1047,-118 989,-118"/>
<text text-anchor="middle" x="1018" y="-125" font-family="Helvetica,sans-Serif" font-size="10.00">exception</text>
</a>
</g>
</g>
<!-- Node26&#45;&gt;Node29 -->
<g id="edge39" class="edge">
<title>Node26&#45;&gt;Node29</title>
<path fill="none" stroke="midnightblue" d="M1077.69,-184.73C1066.73,-174.4 1048.29,-157.04 1034.81,-144.33"/>
<polygon fill="midnightblue" stroke="midnightblue" points="1036.84,-141.44 1027.16,-137.13 1032.04,-146.53 1036.84,-141.44"/>
</g>
<!-- Node28&#45;&gt;Node9 -->
<g id="edge38" class="edge">
<title>Node28&#45;&gt;Node9</title>
<path fill="none" stroke="midnightblue" d="M1071.79,-112.4C1037.95,-102.07 992.58,-88.23 960.87,-78.56"/>
<polygon fill="midnightblue" stroke="midnightblue" points="961.68,-75.14 951.09,-75.57 959.63,-81.84 961.68,-75.14"/>
</g>
<!-- Node28&#45;&gt;Node27 -->
<g id="edge37" class="edge">
<title>Node28&#45;&gt;Node27</title>
<path fill="none" stroke="midnightblue" d="M1127.48,-112.4C1133.17,-103.93 1140.45,-93.1 1146.48,-84.14"/>
<polygon fill="midnightblue" stroke="midnightblue" points="1149.51,-85.91 1152.18,-75.66 1143.7,-82 1149.51,-85.91"/>
</g>
</g>
</svg>
        <g id="navigator" transform="translate(0 0)" fill="#404254">
                <rect fill="#f2f5e9" fill-opacity="0.5" stroke="#606060" stroke-width=".5" x="0" y="0" width="60" height="60"/>
                <use id="zoomplus" xlink:href="#zoomPlus" x="17" y="9" onmousedown="handleZoom(evt,'in')"/>
                <use id="zoomminus" xlink:href="#zoomMin" x="42" y="9" onmousedown="handleZoom(evt,'out')"/>
                <use id="reset" xlink:href="#resetDef" x="30" y="36" onmousedown="handleReset()"/>
                <g id="arrowUp" xlink:href="#dirArrow" transform="translate(30 24)" onmousedown="handlePan(0,-1)">
                  <use xlink:href="#rim" fill="#404040">
                        <set attributeName="fill" to="#808080" begin="arrowUp.mouseover" end="arrowUp.mouseout"/>
                  </use>
                  <path fill="none" stroke="white" stroke-width="1.5" d="M0,-3.0v7 M-2.5,-0.5L0,-3.0L2.5,-0.5"/>
                </g>
                <g id="arrowRight" xlink:href="#dirArrow" transform="rotate(90) translate(36 -43)" onmousedown="handlePan(1,0)">
                  <use xlink:href="#rim" fill="#404040">
                        <set attributeName="fill" to="#808080" begin="arrowRight.mouseover" end="arrowRight.mouseout"/>
                  </use>
                  <path fill="none" stroke="white" stroke-width="1.5" d="M0,-3.0v7 M-2.5,-0.5L0,-3.0L2.5,-0.5"/>
                </g>
                <g id="arrowDown" xlink:href="#dirArrow" transform="rotate(180) translate(-30 -48)" onmousedown="handlePan(0,1)">
                  <use xlink:href="#rim" fill="#404040">
                        <set attributeName="fill" to="#808080" begin="arrowDown.mouseover" end="arrowDown.mouseout"/>
                  </use>
                  <path fill="none" stroke="white" stroke-width="1.5" d="M0,-3.0v7 M-2.5,-0.5L0,-3.0L2.5,-0.5"/>
                </g>
                <g id="arrowLeft" xlink:href="#dirArrow" transform="rotate(270) translate(-36 17)" onmousedown="handlePan(-1,0)">
                  <use xlink:href="#rim" fill="#404040">
                        <set attributeName="fill" to="#808080" begin="arrowLeft.mouseover" end="arrowLeft.mouseout"/>
                  </use>
                  <path fill="none" stroke="white" stroke-width="1.5" d="M0,-3.0v7 M-2.5,-0.5L0,-3.0L2.5,-0.5"/>
                </g>
        </g>
        <svg viewBox="0 0 15 15" width="100%" height="30px" preserveAspectRatio="xMaxYMin meet">
         <g id="arrow_out" transform="scale(0.3 0.3)">
          <a xlink:href="wait__impl_8cpp__incl_org.svg" target="_base">
           <rect id="button" ry="5" rx="5" y="6" x="6" height="38" width="38"
                fill="#f2f5e9" fill-opacity="0.5" stroke="#606060" stroke-width="1.0"/>
           <path id="arrow"
             d="M 11.500037,31.436501 C 11.940474,20.09759 22.043105,11.32322 32.158766,21.979434 L 37.068811,17.246167 C 37.068811,17.246167 37.088388,32 37.088388,32 L 22.160133,31.978069 C 22.160133,31.978069 26.997745,27.140456 26.997745,27.140456 C 18.528582,18.264221 13.291696,25.230495 11.500037,31.436501 z"
             style="fill:#404040;"/>
          </a>
         </g>
        </svg>
</svg>
