<?xml version="1.0" encoding="UTF-8" standalone="no"?>
<!DOCTYPE svg PUBLIC "-//W3C//DTD SVG 1.1//EN"
 "http://www.w3.org/Graphics/SVG/1.1/DTD/svg11.dtd">
<!-- Generated by graphviz version 3.0.0 (20220413.0106)
 -->
<!-- Title: include/yaclib/algo/wait.hpp Pages: 1 -->
<!--zoomable 676 -->
<svg id="main" version="1.1" xmlns="http://www.w3.org/2000/svg" xmlns:xlink="http://www.w3.org/1999/xlink" xml:space="preserve" onload="init(evt)">
<style type="text/css"><![CDATA[
.edge:hover path { stroke: red; }
.edge:hover polygon { stroke: red; fill: red; }
]]></style>
<script type="text/javascript"><![CDATA[
var edges = document.getElementsByTagName('g');
if (edges && edges.length) {
  for (var i=0;i<edges.length;i++) {
    if (edges[i].id.substr(0,4)=='edge') {
      edges[i].setAttribute('class','edge');
    }
  }
}
]]></script>
        <defs>
                <circle id="rim" cx="0" cy="0" r="7"/>
                <circle id="rim2" cx="0" cy="0" r="3.5"/>
                <g id="zoomPlus">
                        <use xlink:href="#rim" fill="#404040">
                                <set attributeName="fill" to="#808080" begin="zoomplus.mouseover" end="zoomplus.mouseout"/>
                        </use>
                        <path d="M-4,0h8M0,-4v8" fill="none" stroke="white" stroke-width="1.5" pointer-events="none"/>
                </g>
                <g id="zoomMin">
                        <use xlink:href="#rim" fill="#404040">
                                <set attributeName="fill" to="#808080" begin="zoomminus.mouseover" end="zoomminus.mouseout"/>
                        </use>
                        <path d="M-4,0h8" fill="none" stroke="white" stroke-width="1.5" pointer-events="none"/>
                </g>
                <g id="dirArrow">
                        <path fill="none" stroke="white" stroke-width="1.5" d="M0,-3.0v7 M-2.5,-0.5L0,-3.0L2.5,-0.5"/>
                </g>
               <g id="resetDef">
                       <use xlink:href="#rim2" fill="#404040">
                               <set attributeName="fill" to="#808080" begin="reset.mouseover" end="reset.mouseout"/>
                       </use>
               </g>
        </defs>

<script type="text/javascript">
var viewWidth = 1396;
var viewHeight = 676;
var sectionId = 'dynsection-0';
</script>
<script xlink:href="svgpan.js"/>
<svg id="graph" class="graph">
<g id="viewport">
<title>include/yaclib/algo/wait.hpp</title>
<!-- Node1 -->
<g id="node1" class="node">
<title>Node1</title>
<g id="a_node1"><a xlink:title=" ">
<polygon fill="#bfbfbf" stroke="black" points="302,-637.5 302,-667.5 398,-667.5 398,-637.5 302,-637.5"/>
<text text-anchor="start" x="310" y="-655.5" font-family="Helvetica,sans-Serif" font-size="10.00">include/yaclib/algo</text>
<text text-anchor="middle" x="350" y="-644.5" font-family="Helvetica,sans-Serif" font-size="10.00">/wait.hpp</text>
</a>
</g>
</g>
<!-- Node2 -->
<g id="node2" class="node">
<title>Node2</title>
<g id="a_node2"><a xlink:href="wait__impl_8hpp.html" target="_top" xlink:title=" ">
<polygon fill="none" stroke="black" points="463.5,-380.5 463.5,-410.5 552.5,-410.5 552.5,-380.5 463.5,-380.5"/>
<text text-anchor="start" x="471.5" y="-398.5" font-family="Helvetica,sans-Serif" font-size="10.00">yaclib/algo/detail</text>
<text text-anchor="middle" x="508" y="-387.5" font-family="Helvetica,sans-Serif" font-size="10.00">/wait_impl.hpp</text>
</a>
</g>
</g>
<!-- Node1&#45;&gt;Node2 -->
<g id="edge1" class="edge">
<title>Node1&#45;&gt;Node2</title>
<path fill="none" stroke="midnightblue" d="M358.72,-637.43C384.73,-595.46 461.91,-470.88 493.89,-419.28"/>
<polygon fill="midnightblue" stroke="midnightblue" points="497.02,-420.87 499.31,-410.53 491.06,-417.19 497.02,-420.87"/>
</g>
<!-- Node18 -->
<g id="node18" class="node">
<title>Node18</title>
<g id="a_node18"><a xlink:title=" ">
<polygon fill="none" stroke="#bfbfbf" points="74,-252 74,-271 162,-271 162,-252 74,-252"/>
<text text-anchor="middle" x="118" y="-259" font-family="Helvetica,sans-Serif" font-size="10.00">yaclib/config.hpp</text>
</a>
</g>
</g>
<!-- Node1&#45;&gt;Node18 -->
<g id="edge66" class="edge">
<title>Node1&#45;&gt;Node18</title>
<path fill="none" stroke="midnightblue" d="M301.84,-646.03C237.91,-635.79 133,-607.28 133,-530.5 133,-530.5 133,-530.5 133,-394.5 133,-353.9 125.91,-306.72 121.48,-281.21"/>
<polygon fill="midnightblue" stroke="midnightblue" points="124.88,-280.33 119.66,-271.11 117.99,-281.57 124.88,-280.33"/>
</g>
<!-- Node19 -->
<g id="node19" class="node">
<title>Node19</title>
<g id="a_node19"><a xlink:title=" ">
<polygon fill="none" stroke="#bfbfbf" points="419.5,-252 419.5,-271 468.5,-271 468.5,-252 419.5,-252"/>
<text text-anchor="middle" x="444" y="-259" font-family="Helvetica,sans-Serif" font-size="10.00">cstddef</text>
</a>
</g>
</g>
<!-- Node1&#45;&gt;Node19 -->
<g id="edge68" class="edge">
<title>Node1&#45;&gt;Node19</title>
<path fill="none" stroke="midnightblue" d="M346.34,-637.45C340.82,-615.02 331,-569.63 331,-530.5 331,-530.5 331,-530.5 331,-394.5 331,-357.31 327.39,-342.53 350,-313 364.9,-293.53 389.52,-280.7 409.82,-272.84"/>
<polygon fill="midnightblue" stroke="midnightblue" points="411.17,-276.07 419.38,-269.37 408.79,-269.49 411.17,-276.07"/>
</g>
<!-- Node20 -->
<g id="node20" class="node">
<title>Node20</title>
<g id="a_node20"><a xlink:href="default__event_8hpp.html" target="_top" xlink:title=" ">
<polygon fill="none" stroke="black" points="169,-313.5 169,-343.5 265,-343.5 265,-313.5 169,-313.5"/>
<text text-anchor="start" x="177" y="-331.5" font-family="Helvetica,sans-Serif" font-size="10.00">yaclib/util/detail</text>
<text text-anchor="middle" x="217" y="-320.5" font-family="Helvetica,sans-Serif" font-size="10.00">/default_event.hpp</text>
</a>
</g>
</g>
<!-- Node1&#45;&gt;Node20 -->
<g id="edge67" class="edge">
<title>Node1&#45;&gt;Node20</title>
<path fill="none" stroke="midnightblue" d="M327.97,-637.21C299.9,-617.07 255,-577.51 255,-530.5 255,-530.5 255,-530.5 255,-461.5 255,-422.34 239.37,-379.11 228.15,-353.14"/>
<polygon fill="midnightblue" stroke="midnightblue" points="231.24,-351.47 223.97,-343.76 224.85,-354.32 231.24,-351.47"/>
</g>
<!-- Node31 -->
<g id="node31" class="node">
<title>Node31</title>
<g id="a_node31"><a xlink:href="future_8hpp.html" target="_top" xlink:title=" ">
<polygon fill="none" stroke="black" points="738,-581.5 738,-600.5 854,-600.5 854,-581.5 738,-581.5"/>
<text text-anchor="middle" x="796" y="-588.5" font-family="Helvetica,sans-Serif" font-size="10.00">yaclib/async/future.hpp</text>
</a>
</g>
</g>
<!-- Node1&#45;&gt;Node31 -->
<g id="edge44" class="edge">
<title>Node1&#45;&gt;Node31</title>
<path fill="none" stroke="midnightblue" d="M398.15,-645.08C477.72,-634.46 636.88,-613.23 727.93,-601.08"/>
<polygon fill="midnightblue" stroke="midnightblue" points="728.42,-604.55 737.87,-599.75 727.5,-597.61 728.42,-604.55"/>
</g>
<!-- Node3 -->
<g id="node3" class="node">
<title>Node3</title>
<g id="a_node3"><a xlink:href="base__core_8hpp.html" target="_top" xlink:title=" ">
<polygon fill="none" stroke="black" points="982,-313.5 982,-343.5 1078,-343.5 1078,-313.5 982,-313.5"/>
<text text-anchor="start" x="990" y="-331.5" font-family="Helvetica,sans-Serif" font-size="10.00">yaclib/async/detail</text>
<text text-anchor="middle" x="1030" y="-320.5" font-family="Helvetica,sans-Serif" font-size="10.00">/base_core.hpp</text>
</a>
</g>
</g>
<!-- Node2&#45;&gt;Node3 -->
<g id="edge2" class="edge">
<title>Node2&#45;&gt;Node3</title>
<path fill="none" stroke="midnightblue" d="M552.63,-389.72C630.4,-381.29 795.74,-362.86 935,-344 946.88,-342.39 959.58,-340.54 971.7,-338.72"/>
<polygon fill="midnightblue" stroke="midnightblue" points="972.36,-342.16 981.72,-337.19 971.3,-335.24 972.36,-342.16"/>
</g>
<!-- Node9 -->
<g id="node9" class="node">
<title>Node9</title>
<g id="a_node9"><a xlink:title=" ">
<polygon fill="none" stroke="#bfbfbf" points="440,-56.5 440,-75.5 502,-75.5 502,-56.5 440,-56.5"/>
<text text-anchor="middle" x="471" y="-63.5" font-family="Helvetica,sans-Serif" font-size="10.00">type_traits</text>
</a>
</g>
</g>
<!-- Node2&#45;&gt;Node9 -->
<g id="edge43" class="edge">
<title>Node2&#45;&gt;Node9</title>
<path fill="none" stroke="midnightblue" d="M463.37,-393.74C426.34,-390.45 375.73,-379.23 350,-344 285.33,-255.44 406.85,-126.91 453.69,-82.65"/>
<polygon fill="midnightblue" stroke="midnightblue" points="456.32,-84.99 461.26,-75.62 451.55,-79.86 456.32,-84.99"/>
</g>
<!-- Node17 -->
<g id="node17" class="node">
<title>Node17</title>
<g id="a_node17"><a xlink:href="atomic__counter_8hpp.html" target="_top" xlink:title=" ">
<polygon fill="none" stroke="black" points="664,-313.5 664,-343.5 768,-343.5 768,-313.5 664,-313.5"/>
<text text-anchor="start" x="672" y="-331.5" font-family="Helvetica,sans-Serif" font-size="10.00">yaclib/util/detail</text>
<text text-anchor="middle" x="716" y="-320.5" font-family="Helvetica,sans-Serif" font-size="10.00">/atomic_counter.hpp</text>
</a>
</g>
</g>
<!-- Node2&#45;&gt;Node17 -->
<g id="edge21" class="edge">
<title>Node2&#45;&gt;Node17</title>
<path fill="none" stroke="midnightblue" d="M552.62,-380.56C584.45,-370.61 627.45,-357.17 661.34,-346.58"/>
<polygon fill="midnightblue" stroke="midnightblue" points="662.59,-349.86 671.09,-343.53 660.51,-343.18 662.59,-349.86"/>
</g>
<!-- Node2&#45;&gt;Node19 -->
<g id="edge41" class="edge">
<title>Node2&#45;&gt;Node19</title>
<path fill="none" stroke="midnightblue" d="M521.18,-380.28C535.08,-363.47 553.28,-334.99 540,-313 536.08,-306.5 499.03,-288.16 472.13,-275.47"/>
<polygon fill="midnightblue" stroke="midnightblue" points="473.3,-272.16 462.76,-271.09 470.33,-278.5 473.3,-272.16"/>
</g>
<!-- Node2&#45;&gt;Node20 -->
<g id="edge26" class="edge">
<title>Node2&#45;&gt;Node20</title>
<path fill="none" stroke="midnightblue" d="M463.2,-384.8C417.01,-374.75 342.92,-358.52 279,-344 277.73,-343.71 276.44,-343.42 275.14,-343.12"/>
<polygon fill="midnightblue" stroke="midnightblue" points="275.58,-339.63 265.05,-340.8 274.01,-346.45 275.58,-339.63"/>
</g>
<!-- Node25 -->
<g id="node25" class="node">
<title>Node25</title>
<g id="a_node25"><a xlink:href="set__one__deleter_8hpp.html" target="_top" xlink:title=" ">
<polygon fill="none" stroke="black" points="359.5,-313.5 359.5,-343.5 466.5,-343.5 466.5,-313.5 359.5,-313.5"/>
<text text-anchor="start" x="367.5" y="-331.5" font-family="Helvetica,sans-Serif" font-size="10.00">yaclib/util/detail</text>
<text text-anchor="middle" x="413" y="-320.5" font-family="Helvetica,sans-Serif" font-size="10.00">/set_one_deleter.hpp</text>
</a>
</g>
</g>
<!-- Node2&#45;&gt;Node25 -->
<g id="edge33" class="edge">
<title>Node2&#45;&gt;Node25</title>
<path fill="none" stroke="midnightblue" d="M487.39,-380.4C474.07,-371.28 456.54,-359.29 441.84,-349.24"/>
<polygon fill="midnightblue" stroke="midnightblue" points="443.8,-346.33 433.57,-343.58 439.85,-352.11 443.8,-346.33"/>
</g>
<!-- Node26 -->
<g id="node26" class="node">
<title>Node26</title>
<g id="a_node26"><a xlink:href="type__traits_8hpp.html" target="_top" xlink:title=" ">
<polygon fill="none" stroke="black" points="486.5,-252 486.5,-271 609.5,-271 609.5,-252 486.5,-252"/>
<text text-anchor="middle" x="548" y="-259" font-family="Helvetica,sans-Serif" font-size="10.00">yaclib/util/type_traits.hpp</text>
</a>
</g>
</g>
<!-- Node2&#45;&gt;Node26 -->
<g id="edge34" class="edge">
<title>Node2&#45;&gt;Node26</title>
<path fill="none" stroke="midnightblue" d="M536.91,-380.45C550.85,-371.99 566.2,-359.78 574,-344 584.43,-322.88 571.96,-296.64 560.95,-279.74"/>
<polygon fill="midnightblue" stroke="midnightblue" points="563.73,-277.6 555.15,-271.4 557.99,-281.6 563.73,-277.6"/>
</g>
<!-- Node30 -->
<g id="node30" class="node">
<title>Node30</title>
<g id="a_node30"><a xlink:title=" ">
<polygon fill="none" stroke="#bfbfbf" points="484.5,-319 484.5,-338 531.5,-338 531.5,-319 484.5,-319"/>
<text text-anchor="middle" x="508" y="-326" font-family="Helvetica,sans-Serif" font-size="10.00">iterator</text>
</a>
</g>
</g>
<!-- Node2&#45;&gt;Node30 -->
<g id="edge42" class="edge">
<title>Node2&#45;&gt;Node30</title>
<path fill="none" stroke="midnightblue" d="M508,-380.4C508,-371.06 508,-358.71 508,-348.52"/>
<polygon fill="midnightblue" stroke="midnightblue" points="511.5,-348.19 508,-338.19 504.5,-348.19 511.5,-348.19"/>
</g>
<!-- Node4 -->
<g id="node4" class="node">
<title>Node4</title>
<g id="a_node4"><a xlink:href="inline__core_8hpp.html" target="_top" xlink:title=" ">
<polygon fill="none" stroke="black" points="1188,-246.5 1188,-276.5 1284,-276.5 1284,-246.5 1188,-246.5"/>
<text text-anchor="start" x="1196" y="-264.5" font-family="Helvetica,sans-Serif" font-size="10.00">yaclib/async/detail</text>
<text text-anchor="middle" x="1236" y="-253.5" font-family="Helvetica,sans-Serif" font-size="10.00">/inline_core.hpp</text>
</a>
</g>
</g>
<!-- Node3&#45;&gt;Node4 -->
<g id="edge3" class="edge">
<title>Node3&#45;&gt;Node4</title>
<path fill="none" stroke="midnightblue" d="M1074.45,-313.48C1105.88,-303.56 1148.21,-290.2 1181.65,-279.65"/>
<polygon fill="midnightblue" stroke="midnightblue" points="1182.8,-282.96 1191.28,-276.61 1180.69,-276.28 1182.8,-282.96"/>
</g>
<!-- Node8 -->
<g id="node8" class="node">
<title>Node8</title>
<g id="a_node8"><a xlink:href="ref_8hpp.html" target="_top" xlink:title=" ">
<polygon fill="none" stroke="black" points="786.5,-56.5 786.5,-75.5 875.5,-75.5 875.5,-56.5 786.5,-56.5"/>
<text text-anchor="middle" x="831" y="-63.5" font-family="Helvetica,sans-Serif" font-size="10.00">yaclib/util/ref.hpp</text>
</a>
</g>
</g>
<!-- Node3&#45;&gt;Node8 -->
<g id="edge19" class="edge">
<title>Node3&#45;&gt;Node8</title>
<path fill="none" stroke="midnightblue" d="M1027.18,-313.05C1020.4,-279.61 1002.29,-198.33 983,-179 945.76,-141.69 910.23,-177.06 870,-143 852.27,-127.99 841.63,-102.88 836.05,-85.66"/>
<polygon fill="midnightblue" stroke="midnightblue" points="839.28,-84.26 833.08,-75.67 832.57,-86.25 839.28,-84.26"/>
</g>
<!-- Node11 -->
<g id="node11" class="node">
<title>Node11</title>
<g id="a_node11"><a xlink:href="executor_8hpp.html" target="_top" xlink:title=" ">
<polygon fill="none" stroke="black" points="1030.5,-252 1030.5,-271 1169.5,-271 1169.5,-252 1030.5,-252"/>
<text text-anchor="middle" x="1100" y="-259" font-family="Helvetica,sans-Serif" font-size="10.00">yaclib/executor/executor.hpp</text>
</a>
</g>
</g>
<!-- Node3&#45;&gt;Node11 -->
<g id="edge10" class="edge">
<title>Node3&#45;&gt;Node11</title>
<path fill="none" stroke="midnightblue" d="M1045.19,-313.4C1056.32,-303.06 1071.44,-289.02 1082.97,-278.31"/>
<polygon fill="midnightblue" stroke="midnightblue" points="1085.69,-280.56 1090.64,-271.19 1080.93,-275.43 1085.69,-280.56"/>
</g>
<!-- Node12 -->
<g id="node12" class="node">
<title>Node12</title>
<g id="a_node12"><a xlink:href="intrusive__ptr_8hpp.html" target="_top" xlink:title=" ">
<polygon fill="none" stroke="black" points="876.5,-179.5 876.5,-209.5 973.5,-209.5 973.5,-179.5 876.5,-179.5"/>
<text text-anchor="start" x="884.5" y="-197.5" font-family="Helvetica,sans-Serif" font-size="10.00">yaclib/util/intrusive</text>
<text text-anchor="middle" x="925" y="-186.5" font-family="Helvetica,sans-Serif" font-size="10.00">_ptr.hpp</text>
</a>
</g>
</g>
<!-- Node3&#45;&gt;Node12 -->
<g id="edge18" class="edge">
<title>Node3&#45;&gt;Node12</title>
<path fill="none" stroke="midnightblue" d="M1018.1,-313.46C1009.61,-303.39 997.99,-289.45 988,-277 972.09,-257.16 954.41,-234.21 941.85,-217.73"/>
<polygon fill="midnightblue" stroke="midnightblue" points="944.62,-215.59 935.77,-209.75 939.04,-219.83 944.62,-215.59"/>
</g>
<!-- Node16 -->
<g id="node16" class="node">
<title>Node16</title>
<g id="a_node16"><a xlink:title=" ">
<polygon fill="none" stroke="#bfbfbf" points="704,-252 704,-271 796,-271 796,-252 704,-252"/>
<text text-anchor="middle" x="750" y="-259" font-family="Helvetica,sans-Serif" font-size="10.00">yaclib_std/atomic</text>
</a>
</g>
</g>
<!-- Node3&#45;&gt;Node16 -->
<g id="edge20" class="edge">
<title>Node3&#45;&gt;Node16</title>
<path fill="none" stroke="midnightblue" d="M981.87,-316.33C929.97,-304.28 847.93,-285.23 796.63,-273.33"/>
<polygon fill="midnightblue" stroke="midnightblue" points="797.33,-269.9 786.8,-271.04 795.75,-276.71 797.33,-269.9"/>
</g>
<!-- Node5 -->
<g id="node5" class="node">
<title>Node5</title>
<g id="a_node5"><a xlink:href="job_8hpp.html" target="_top" xlink:title=" ">
<polygon fill="none" stroke="black" points="1077.5,-185 1077.5,-204 1192.5,-204 1192.5,-185 1077.5,-185"/>
<text text-anchor="middle" x="1135" y="-192" font-family="Helvetica,sans-Serif" font-size="10.00">yaclib/executor/job.hpp</text>
</a>
</g>
</g>
<!-- Node4&#45;&gt;Node5 -->
<g id="edge4" class="edge">
<title>Node4&#45;&gt;Node5</title>
<path fill="none" stroke="midnightblue" d="M1214.08,-246.4C1197.15,-235.5 1173.81,-220.48 1156.88,-209.58"/>
<polygon fill="midnightblue" stroke="midnightblue" points="1158.52,-206.48 1148.22,-204.01 1154.73,-212.36 1158.52,-206.48"/>
</g>
<!-- Node6 -->
<g id="node6" class="node">
<title>Node6</title>
<g id="a_node6"><a xlink:href="node_8hpp.html" target="_top" xlink:title=" ">
<polygon fill="none" stroke="black" points="1164.5,-112.5 1164.5,-142.5 1247.5,-142.5 1247.5,-112.5 1164.5,-112.5"/>
<text text-anchor="start" x="1172.5" y="-130.5" font-family="Helvetica,sans-Serif" font-size="10.00">yaclib/util/detail</text>
<text text-anchor="middle" x="1206" y="-119.5" font-family="Helvetica,sans-Serif" font-size="10.00">/node.hpp</text>
</a>
</g>
</g>
<!-- Node5&#45;&gt;Node6 -->
<g id="edge5" class="edge">
<title>Node5&#45;&gt;Node6</title>
<path fill="none" stroke="midnightblue" d="M1144.58,-184.73C1154.36,-175.78 1169.91,-161.54 1182.91,-149.63"/>
<polygon fill="midnightblue" stroke="midnightblue" points="1185.6,-151.92 1190.61,-142.59 1180.87,-146.76 1185.6,-151.92"/>
</g>
<!-- Node7 -->
<g id="node7" class="node">
<title>Node7</title>
<g id="a_node7"><a xlink:href="func_8hpp.html" target="_top" xlink:title=" ">
<polygon fill="none" stroke="black" points="878.5,-118 878.5,-137 975.5,-137 975.5,-118 878.5,-118"/>
<text text-anchor="middle" x="927" y="-125" font-family="Helvetica,sans-Serif" font-size="10.00">yaclib/util/func.hpp</text>
</a>
</g>
</g>
<!-- Node5&#45;&gt;Node7 -->
<g id="edge6" class="edge">
<title>Node5&#45;&gt;Node7</title>
<path fill="none" stroke="midnightblue" d="M1107.38,-184.87C1070.52,-173.35 1005.15,-152.92 964.05,-140.08"/>
<polygon fill="midnightblue" stroke="midnightblue" points="964.99,-136.71 954.4,-137.06 962.9,-143.39 964.99,-136.71"/>
</g>
<!-- Node7&#45;&gt;Node8 -->
<g id="edge7" class="edge">
<title>Node7&#45;&gt;Node8</title>
<path fill="none" stroke="midnightblue" d="M913.25,-117.98C897.63,-108.3 871.94,-92.37 853.42,-80.89"/>
<polygon fill="midnightblue" stroke="midnightblue" points="855.07,-77.8 844.73,-75.51 851.38,-83.75 855.07,-77.8"/>
</g>
<!-- Node7&#45;&gt;Node9 -->
<g id="edge8" class="edge">
<title>Node7&#45;&gt;Node9</title>
<path fill="none" stroke="midnightblue" d="M878.2,-120.13C787.88,-108.35 596.21,-83.34 512.07,-72.36"/>
<polygon fill="midnightblue" stroke="midnightblue" points="512.48,-68.88 502.11,-71.06 511.58,-75.82 512.48,-68.88"/>
</g>
<!-- Node10 -->
<g id="node10" class="node">
<title>Node10</title>
<g id="a_node10"><a xlink:title=" ">
<polygon fill="none" stroke="#bfbfbf" points="984.5,-56.5 984.5,-75.5 1023.5,-75.5 1023.5,-56.5 984.5,-56.5"/>
<text text-anchor="middle" x="1004" y="-63.5" font-family="Helvetica,sans-Serif" font-size="10.00">utility</text>
</a>
</g>
</g>
<!-- Node7&#45;&gt;Node10 -->
<g id="edge9" class="edge">
<title>Node7&#45;&gt;Node10</title>
<path fill="none" stroke="midnightblue" d="M938.03,-117.98C950.27,-108.52 970.23,-93.1 984.99,-81.69"/>
<polygon fill="midnightblue" stroke="midnightblue" points="987.22,-84.39 992.99,-75.51 982.94,-78.85 987.22,-84.39"/>
</g>
<!-- Node11&#45;&gt;Node5 -->
<g id="edge11" class="edge">
<title>Node11&#45;&gt;Node5</title>
<path fill="none" stroke="midnightblue" d="M1104.72,-251.73C1110.02,-241.89 1118.76,-225.66 1125.49,-213.16"/>
<polygon fill="midnightblue" stroke="midnightblue" points="1128.7,-214.59 1130.35,-204.13 1122.53,-211.27 1128.7,-214.59"/>
</g>
<!-- Node11&#45;&gt;Node12 -->
<g id="edge12" class="edge">
<title>Node11&#45;&gt;Node12</title>
<path fill="none" stroke="midnightblue" d="M1076.76,-251.87C1050.27,-242.03 1006.28,-225.69 972.46,-213.13"/>
<polygon fill="midnightblue" stroke="midnightblue" points="973.36,-209.73 962.77,-209.53 970.92,-216.29 973.36,-209.73"/>
</g>
<!-- Node12&#45;&gt;Node8 -->
<g id="edge13" class="edge">
<title>Node12&#45;&gt;Node8</title>
<path fill="none" stroke="midnightblue" d="M881.77,-179.33C864.6,-171.42 846.48,-159.71 836,-143 825.27,-125.89 825.56,-102.14 827.55,-85.77"/>
<polygon fill="midnightblue" stroke="midnightblue" points="831.02,-86.19 829.08,-75.78 824.1,-85.14 831.02,-86.19"/>
</g>
<!-- Node12&#45;&gt;Node9 -->
<g id="edge14" class="edge">
<title>Node12&#45;&gt;Node9</title>
<path fill="none" stroke="midnightblue" d="M876.41,-179.96C786.38,-154.88 595.2,-101.61 511.58,-78.31"/>
<polygon fill="midnightblue" stroke="midnightblue" points="512.27,-74.86 501.69,-75.55 510.39,-81.61 512.27,-74.86"/>
</g>
<!-- Node13 -->
<g id="node13" class="node">
<title>Node13</title>
<g id="a_node13"><a xlink:href="intrusive__ptr__impl_8hpp.html" target="_top" xlink:title=" ">
<polygon fill="none" stroke="black" points="1032,-112.5 1032,-142.5 1146,-142.5 1146,-112.5 1032,-112.5"/>
<text text-anchor="start" x="1040" y="-130.5" font-family="Helvetica,sans-Serif" font-size="10.00">yaclib/util/detail</text>
<text text-anchor="middle" x="1089" y="-119.5" font-family="Helvetica,sans-Serif" font-size="10.00">/intrusive_ptr_impl.hpp</text>
</a>
</g>
</g>
<!-- Node12&#45;&gt;Node13 -->
<g id="edge15" class="edge">
<title>Node12&#45;&gt;Node13</title>
<path fill="none" stroke="midnightblue" d="M960.59,-179.4C985.09,-169.69 1017.83,-156.71 1044.12,-146.29"/>
<polygon fill="midnightblue" stroke="midnightblue" points="1045.48,-149.51 1053.48,-142.58 1042.9,-143.01 1045.48,-149.51"/>
</g>
<!-- Node14 -->
<g id="node14" class="node">
<title>Node14</title>
<g id="a_node14"><a xlink:href="log_8hpp.html" target="_top" xlink:title=" ">
<polygon fill="none" stroke="black" points="1181.5,-56.5 1181.5,-75.5 1256.5,-75.5 1256.5,-56.5 1181.5,-56.5"/>
<text text-anchor="middle" x="1219" y="-63.5" font-family="Helvetica,sans-Serif" font-size="10.00">yaclib/log.hpp</text>
</a>
</g>
</g>
<!-- Node13&#45;&gt;Node14 -->
<g id="edge16" class="edge">
<title>Node13&#45;&gt;Node14</title>
<path fill="none" stroke="midnightblue" d="M1119.81,-112.4C1141.33,-102.55 1169.84,-89.5 1190.77,-79.92"/>
<polygon fill="midnightblue" stroke="midnightblue" points="1192.45,-83 1200.08,-75.66 1189.53,-76.64 1192.45,-83"/>
</g>
<!-- Node15 -->
<g id="node15" class="node">
<title>Node15</title>
<g id="a_node15"><a xlink:title=" ">
<polygon fill="none" stroke="#bfbfbf" points="1186,-0.5 1186,-19.5 1252,-19.5 1252,-0.5 1186,-0.5"/>
<text text-anchor="middle" x="1219" y="-7.5" font-family="Helvetica,sans-Serif" font-size="10.00">string_view</text>
</a>
</g>
</g>
<!-- Node14&#45;&gt;Node15 -->
<g id="edge17" class="edge">
<title>Node14&#45;&gt;Node15</title>
<path fill="none" stroke="midnightblue" d="M1219,-56.08C1219,-49.01 1219,-38.86 1219,-29.99"/>
<polygon fill="midnightblue" stroke="midnightblue" points="1222.5,-29.75 1219,-19.75 1215.5,-29.75 1222.5,-29.75"/>
</g>
<!-- Node17&#45;&gt;Node10 -->
<g id="edge24" class="edge">
<title>Node17&#45;&gt;Node10</title>
<path fill="none" stroke="midnightblue" d="M705.92,-313.33C694.99,-296.05 680.88,-266.61 695,-246 718.3,-211.99 829.05,-192.52 868,-179 919.4,-161.16 947.57,-182.49 985,-143 999.52,-127.68 1003.42,-103.01 1004.24,-85.95"/>
<polygon fill="midnightblue" stroke="midnightblue" points="1007.74,-85.62 1004.4,-75.56 1000.74,-85.51 1007.74,-85.62"/>
</g>
<!-- Node17&#45;&gt;Node16 -->
<g id="edge25" class="edge">
<title>Node17&#45;&gt;Node16</title>
<path fill="none" stroke="midnightblue" d="M723.38,-313.4C728.47,-303.66 735.28,-290.65 740.73,-280.21"/>
<polygon fill="midnightblue" stroke="midnightblue" points="743.92,-281.68 745.45,-271.19 737.72,-278.43 743.92,-281.68"/>
</g>
<!-- Node17&#45;&gt;Node18 -->
<g id="edge22" class="edge">
<title>Node17&#45;&gt;Node18</title>
<path fill="none" stroke="midnightblue" d="M663.95,-323.22C536.89,-312.71 217.81,-285.8 170,-277 165.13,-276.1 160.05,-274.96 155.07,-273.71"/>
<polygon fill="midnightblue" stroke="midnightblue" points="155.61,-270.23 145.04,-271.03 153.8,-276.99 155.61,-270.23"/>
</g>
<!-- Node17&#45;&gt;Node19 -->
<g id="edge23" class="edge">
<title>Node17&#45;&gt;Node19</title>
<path fill="none" stroke="midnightblue" d="M663.92,-319.67C614.95,-311.57 539.98,-297.25 477,-277 475.08,-276.38 473.12,-275.69 471.16,-274.95"/>
<polygon fill="midnightblue" stroke="midnightblue" points="472.13,-271.57 461.55,-271.01 469.47,-278.04 472.13,-271.57"/>
</g>
<!-- Node20&#45;&gt;Node18 -->
<g id="edge27" class="edge">
<title>Node20&#45;&gt;Node18</title>
<path fill="none" stroke="midnightblue" d="M195.52,-313.4C178.92,-302.5 156.04,-287.48 139.45,-276.58"/>
<polygon fill="midnightblue" stroke="midnightblue" points="141.24,-273.57 130.96,-271.01 137.4,-279.42 141.24,-273.57"/>
</g>
<!-- Node21 -->
<g id="node21" class="node">
<title>Node21</title>
<g id="a_node21"><a xlink:href="mutex__event_8hpp.html" target="_top" xlink:title=" ">
<polygon fill="none" stroke="black" points="179.5,-246.5 179.5,-276.5 272.5,-276.5 272.5,-246.5 179.5,-246.5"/>
<text text-anchor="start" x="187.5" y="-264.5" font-family="Helvetica,sans-Serif" font-size="10.00">yaclib/util/detail</text>
<text text-anchor="middle" x="226" y="-253.5" font-family="Helvetica,sans-Serif" font-size="10.00">/mutex_event.hpp</text>
</a>
</g>
</g>
<!-- Node20&#45;&gt;Node21 -->
<g id="edge28" class="edge">
<title>Node20&#45;&gt;Node21</title>
<path fill="none" stroke="midnightblue" d="M218.95,-313.4C220.04,-305.56 221.42,-295.6 222.67,-286.57"/>
<polygon fill="midnightblue" stroke="midnightblue" points="226.15,-286.96 224.05,-276.58 219.21,-286 226.15,-286.96"/>
</g>
<!-- Node21&#45;&gt;Node8 -->
<g id="edge29" class="edge">
<title>Node21&#45;&gt;Node8</title>
<path fill="none" stroke="midnightblue" d="M272.78,-255.9C354.73,-247.48 520.77,-228.74 576,-210 670.28,-178 769.8,-111.08 811.17,-81.54"/>
<polygon fill="midnightblue" stroke="midnightblue" points="813.47,-84.2 819.53,-75.51 809.37,-78.52 813.47,-84.2"/>
</g>
<!-- Node22 -->
<g id="node22" class="node">
<title>Node22</title>
<g id="a_node22"><a xlink:title=" ">
<polygon fill="none" stroke="#bfbfbf" points="227,-185 227,-204 273,-204 273,-185 227,-185"/>
<text text-anchor="middle" x="250" y="-192" font-family="Helvetica,sans-Serif" font-size="10.00">chrono</text>
</a>
</g>
</g>
<!-- Node21&#45;&gt;Node22 -->
<g id="edge30" class="edge">
<title>Node21&#45;&gt;Node22</title>
<path fill="none" stroke="midnightblue" d="M231.21,-246.4C234.73,-236.86 239.41,-224.18 243.22,-213.86"/>
<polygon fill="midnightblue" stroke="midnightblue" points="246.61,-214.79 246.79,-204.19 240.04,-212.36 246.61,-214.79"/>
</g>
<!-- Node23 -->
<g id="node23" class="node">
<title>Node23</title>
<g id="a_node23"><a xlink:title=" ">
<polygon fill="none" stroke="#bfbfbf" points="0,-179.5 0,-209.5 102,-209.5 102,-179.5 0,-179.5"/>
<text text-anchor="start" x="8" y="-197.5" font-family="Helvetica,sans-Serif" font-size="10.00">yaclib_std/condition</text>
<text text-anchor="middle" x="51" y="-186.5" font-family="Helvetica,sans-Serif" font-size="10.00">_variable</text>
</a>
</g>
</g>
<!-- Node21&#45;&gt;Node23 -->
<g id="edge31" class="edge">
<title>Node21&#45;&gt;Node23</title>
<path fill="none" stroke="midnightblue" d="M188.03,-246.4C161.77,-236.64 126.64,-223.59 98.52,-213.15"/>
<polygon fill="midnightblue" stroke="midnightblue" points="99.49,-209.78 88.9,-209.58 97.05,-216.34 99.49,-209.78"/>
</g>
<!-- Node24 -->
<g id="node24" class="node">
<title>Node24</title>
<g id="a_node24"><a xlink:title=" ">
<polygon fill="none" stroke="#bfbfbf" points="119.5,-185 119.5,-204 208.5,-204 208.5,-185 119.5,-185"/>
<text text-anchor="middle" x="164" y="-192" font-family="Helvetica,sans-Serif" font-size="10.00">yaclib_std/mutex</text>
</a>
</g>
</g>
<!-- Node21&#45;&gt;Node24 -->
<g id="edge32" class="edge">
<title>Node21&#45;&gt;Node24</title>
<path fill="none" stroke="midnightblue" d="M212.55,-246.4C202.78,-236.16 189.56,-222.3 179.38,-211.62"/>
<polygon fill="midnightblue" stroke="midnightblue" points="181.73,-209.01 172.29,-204.19 176.66,-213.85 181.73,-209.01"/>
</g>
<!-- Node26&#45;&gt;Node9 -->
<g id="edge40" class="edge">
<title>Node26&#45;&gt;Node9</title>
<path fill="none" stroke="midnightblue" d="M512.74,-251.9C491.12,-244.62 465.14,-231.76 452,-210 428.13,-170.48 448.5,-113.72 461.76,-85.04"/>
<polygon fill="midnightblue" stroke="midnightblue" points="465.01,-86.36 466.23,-75.83 458.72,-83.3 465.01,-86.36"/>
</g>
<!-- Node27 -->
<g id="node27" class="node">
<title>Node27</title>
<g id="a_node27"><a xlink:href="fwd_8hpp.html" target="_top" xlink:title=" ">
<polygon fill="none" stroke="black" points="499,-118 499,-137 577,-137 577,-118 499,-118"/>
<text text-anchor="middle" x="538" y="-125" font-family="Helvetica,sans-Serif" font-size="10.00">yaclib/fwd.hpp</text>
</a>
</g>
</g>
<!-- Node26&#45;&gt;Node27 -->
<g id="edge35" class="edge">
<title>Node26&#45;&gt;Node27</title>
<path fill="none" stroke="midnightblue" d="M554.76,-251.95C565.64,-237.13 584.92,-205.68 576,-179 571.69,-166.09 562.63,-153.84 554.44,-144.63"/>
<polygon fill="midnightblue" stroke="midnightblue" points="556.74,-141.97 547.33,-137.11 551.66,-146.78 556.74,-141.97"/>
</g>
<!-- Node28 -->
<g id="node28" class="node">
<title>Node28</title>
<g id="a_node28"><a xlink:href="type__traits__impl_8hpp.html" target="_top" xlink:title=" ">
<polygon fill="none" stroke="black" points="461,-179.5 461,-209.5 567,-209.5 567,-179.5 461,-179.5"/>
<text text-anchor="start" x="469" y="-197.5" font-family="Helvetica,sans-Serif" font-size="10.00">yaclib/util/detail</text>
<text text-anchor="middle" x="514" y="-186.5" font-family="Helvetica,sans-Serif" font-size="10.00">/type_traits_impl.hpp</text>
</a>
</g>
</g>
<!-- Node26&#45;&gt;Node28 -->
<g id="edge36" class="edge">
<title>Node26&#45;&gt;Node28</title>
<path fill="none" stroke="midnightblue" d="M543.41,-251.73C539,-243.29 532.12,-230.14 526.12,-218.68"/>
<polygon fill="midnightblue" stroke="midnightblue" points="529.11,-216.83 521.37,-209.59 522.9,-220.07 529.11,-216.83"/>
</g>
<!-- Node29 -->
<g id="node29" class="node">
<title>Node29</title>
<g id="a_node29"><a xlink:title=" ">
<polygon fill="none" stroke="#bfbfbf" points="671,-185 671,-204 729,-204 729,-185 671,-185"/>
<text text-anchor="middle" x="700" y="-192" font-family="Helvetica,sans-Serif" font-size="10.00">exception</text>
</a>
</g>
</g>
<!-- Node26&#45;&gt;Node29 -->
<g id="edge39" class="edge">
<title>Node26&#45;&gt;Node29</title>
<path fill="none" stroke="midnightblue" d="M568.18,-251.87C594.3,-240.7 640.03,-221.15 670.16,-208.26"/>
<polygon fill="midnightblue" stroke="midnightblue" points="671.91,-211.32 679.73,-204.17 669.16,-204.88 671.91,-211.32"/>
</g>
<!-- Node28&#45;&gt;Node9 -->
<g id="edge38" class="edge">
<title>Node28&#45;&gt;Node9</title>
<path fill="none" stroke="midnightblue" d="M506.29,-179.24C501.14,-169.3 494.52,-155.61 490,-143 483.13,-123.84 477.8,-101.1 474.55,-85.52"/>
<polygon fill="midnightblue" stroke="midnightblue" points="477.96,-84.72 472.57,-75.6 471.1,-86.09 477.96,-84.72"/>
</g>
<!-- Node28&#45;&gt;Node27 -->
<g id="edge37" class="edge">
<title>Node28&#45;&gt;Node27</title>
<path fill="none" stroke="midnightblue" d="M519.21,-179.4C522.73,-169.86 527.41,-157.18 531.22,-146.86"/>
<polygon fill="midnightblue" stroke="midnightblue" points="534.61,-147.79 534.79,-137.19 528.04,-145.36 534.61,-147.79"/>
</g>
<!-- Node31&#45;&gt;Node11 -->
<g id="edge54" class="edge">
<title>Node31&#45;&gt;Node11</title>
<path fill="none" stroke="midnightblue" d="M854.11,-589.81C1003.27,-587.75 1388,-571.95 1388,-463.5 1388,-463.5 1388,-463.5 1388,-394.5 1388,-341.95 1227.55,-294.31 1146.17,-273.52"/>
<polygon fill="midnightblue" stroke="midnightblue" points="1146.74,-270.06 1136.18,-271.01 1145.03,-276.84 1146.74,-270.06"/>
</g>
<!-- Node31&#45;&gt;Node26 -->
<g id="edge58" class="edge">
<title>Node31&#45;&gt;Node26</title>
<path fill="none" stroke="midnightblue" d="M766.28,-581.45C720.01,-566.1 636,-529.19 636,-463.5 636,-463.5 636,-463.5 636,-394.5 636,-345.04 592.7,-300.02 566.85,-277.55"/>
<polygon fill="midnightblue" stroke="midnightblue" points="569.05,-274.83 559.15,-271.07 564.54,-280.18 569.05,-274.83"/>
</g>
<!-- Node32 -->
<g id="node32" class="node">
<title>Node32</title>
<g id="a_node32"><a xlink:href="result__core_8hpp.html" target="_top" xlink:title=" ">
<polygon fill="none" stroke="black" points="959,-380.5 959,-410.5 1055,-410.5 1055,-380.5 959,-380.5"/>
<text text-anchor="start" x="967" y="-398.5" font-family="Helvetica,sans-Serif" font-size="10.00">yaclib/async/detail</text>
<text text-anchor="middle" x="1007" y="-387.5" font-family="Helvetica,sans-Serif" font-size="10.00">/result_core.hpp</text>
</a>
</g>
</g>
<!-- Node31&#45;&gt;Node32 -->
<g id="edge45" class="edge">
<title>Node31&#45;&gt;Node32</title>
<path fill="none" stroke="midnightblue" d="M829.18,-581.45C874.15,-567.9 952.86,-536.8 988,-478 998.39,-460.61 1003.1,-437.98 1005.23,-420.98"/>
<polygon fill="midnightblue" stroke="midnightblue" points="1008.75,-421.04 1006.3,-410.74 1001.78,-420.32 1008.75,-421.04"/>
</g>
<!-- Node35 -->
<g id="node35" class="node">
<title>Node35</title>
<g id="a_node35"><a xlink:href="helper_8hpp.html" target="_top" xlink:title=" ">
<polygon fill="none" stroke="black" points="685,-386 685,-405 789,-405 789,-386 685,-386"/>
<text text-anchor="middle" x="737" y="-393" font-family="Helvetica,sans-Serif" font-size="10.00">yaclib/util/helper.hpp</text>
</a>
</g>
</g>
<!-- Node31&#45;&gt;Node35 -->
<g id="edge55" class="edge">
<title>Node31&#45;&gt;Node35</title>
<path fill="none" stroke="midnightblue" d="M793.39,-581.44C784.48,-552.22 755.16,-456.06 742.69,-415.17"/>
<polygon fill="midnightblue" stroke="midnightblue" points="745.98,-413.95 739.72,-405.41 739.28,-415.99 745.98,-413.95"/>
</g>
<!-- Node36 -->
<g id="node36" class="node">
<title>Node36</title>
<g id="a_node36"><a xlink:href="future__impl_8hpp.html" target="_top" xlink:title=" ">
<polygon fill="none" stroke="black" points="807,-514.5 807,-544.5 903,-544.5 903,-514.5 807,-514.5"/>
<text text-anchor="start" x="815" y="-532.5" font-family="Helvetica,sans-Serif" font-size="10.00">yaclib/async/detail</text>
<text text-anchor="middle" x="855" y="-521.5" font-family="Helvetica,sans-Serif" font-size="10.00">/future_impl.hpp</text>
</a>
</g>
</g>
<!-- Node31&#45;&gt;Node36 -->
<g id="edge59" class="edge">
<title>Node31&#45;&gt;Node36</title>
<path fill="none" stroke="midnightblue" d="M804.45,-581.48C812.15,-573.72 823.82,-561.94 834.01,-551.66"/>
<polygon fill="midnightblue" stroke="midnightblue" points="836.54,-554.09 841.09,-544.52 831.57,-549.16 836.54,-554.09"/>
</g>
<!-- Node32&#45;&gt;Node3 -->
<g id="edge46" class="edge">
<title>Node32&#45;&gt;Node3</title>
<path fill="none" stroke="midnightblue" d="M1011.99,-380.4C1014.79,-372.47 1018.37,-362.38 1021.59,-353.27"/>
<polygon fill="midnightblue" stroke="midnightblue" points="1024.98,-354.17 1025.02,-343.58 1018.38,-351.84 1024.98,-354.17"/>
</g>
<!-- Node32&#45;&gt;Node4 -->
<g id="edge47" class="edge">
<title>Node32&#45;&gt;Node4</title>
<path fill="none" stroke="midnightblue" d="M1031.51,-380.37C1072.83,-356.56 1156.39,-308.39 1202.89,-281.59"/>
<polygon fill="midnightblue" stroke="midnightblue" points="1204.75,-284.55 1211.67,-276.52 1201.26,-278.49 1204.75,-284.55"/>
</g>
<!-- Node32&#45;&gt;Node10 -->
<g id="edge53" class="edge">
<title>Node32&#45;&gt;Node10</title>
<path fill="none" stroke="midnightblue" d="M1055.33,-394.63C1141.33,-392.04 1312,-372.99 1312,-262.5 1312,-262.5 1312,-262.5 1312,-193.5 1312,-149.8 1293.63,-135.82 1257,-112 1220.47,-88.24 1092.38,-74.54 1033.73,-69.38"/>
<polygon fill="midnightblue" stroke="midnightblue" points="1033.89,-65.88 1023.62,-68.52 1033.29,-72.86 1033.89,-65.88"/>
</g>
<!-- Node32&#45;&gt;Node12 -->
<g id="edge48" class="edge">
<title>Node32&#45;&gt;Node12</title>
<path fill="none" stroke="midnightblue" d="M995.74,-380.14C988.49,-370.37 979.29,-356.93 973,-344 952.63,-302.12 937.98,-249.53 930.54,-219.49"/>
<polygon fill="midnightblue" stroke="midnightblue" points="933.88,-218.41 928.14,-209.51 927.08,-220.05 933.88,-218.41"/>
</g>
<!-- Node33 -->
<g id="node33" class="node">
<title>Node33</title>
<g id="a_node33"><a xlink:href="result_8hpp.html" target="_top" xlink:title=" ">
<polygon fill="none" stroke="black" points="824,-319 824,-338 926,-338 926,-319 824,-319"/>
<text text-anchor="middle" x="875" y="-326" font-family="Helvetica,sans-Serif" font-size="10.00">yaclib/util/result.hpp</text>
</a>
</g>
</g>
<!-- Node32&#45;&gt;Node33 -->
<g id="edge49" class="edge">
<title>Node32&#45;&gt;Node33</title>
<path fill="none" stroke="midnightblue" d="M978.36,-380.4C955.5,-369.14 923.74,-353.5 901.48,-342.54"/>
<polygon fill="midnightblue" stroke="midnightblue" points="902.79,-339.28 892.28,-338.01 899.7,-345.56 902.79,-339.28"/>
</g>
<!-- Node33&#45;&gt;Node26 -->
<g id="edge50" class="edge">
<title>Node33&#45;&gt;Node26</title>
<path fill="none" stroke="midnightblue" d="M831.91,-318.94C772.4,-307.11 665.14,-285.78 600.85,-273.01"/>
<polygon fill="midnightblue" stroke="midnightblue" points="601.41,-269.55 590.92,-271.03 600.05,-276.41 601.41,-269.55"/>
</g>
<!-- Node33&#45;&gt;Node29 -->
<g id="edge51" class="edge">
<title>Node33&#45;&gt;Node29</title>
<path fill="none" stroke="midnightblue" d="M823.77,-320.1C776.25,-312.06 710.59,-297.56 695,-277 681.32,-258.95 686.66,-231.69 692.61,-213.75"/>
<polygon fill="midnightblue" stroke="midnightblue" points="695.97,-214.76 696.14,-204.17 689.4,-212.34 695.97,-214.76"/>
</g>
<!-- Node34 -->
<g id="node34" class="node">
<title>Node34</title>
<g id="a_node34"><a xlink:title=" ">
<polygon fill="none" stroke="#bfbfbf" points="852,-252 852,-271 898,-271 898,-252 852,-252"/>
<text text-anchor="middle" x="875" y="-259" font-family="Helvetica,sans-Serif" font-size="10.00">variant</text>
</a>
</g>
</g>
<!-- Node33&#45;&gt;Node34 -->
<g id="edge52" class="edge">
<title>Node33&#45;&gt;Node34</title>
<path fill="none" stroke="midnightblue" d="M875,-318.73C875,-309.18 875,-293.62 875,-281.28"/>
<polygon fill="midnightblue" stroke="midnightblue" points="878.5,-281.13 875,-271.13 871.5,-281.13 878.5,-281.13"/>
</g>
<!-- Node35&#45;&gt;Node12 -->
<g id="edge57" class="edge">
<title>Node35&#45;&gt;Node12</title>
<path fill="none" stroke="midnightblue" d="M744.29,-385.72C752.48,-375.77 766.04,-358.99 777,-344 807.99,-301.61 805.12,-282.37 843,-246 855.78,-233.73 872.04,-222.96 886.7,-214.55"/>
<polygon fill="midnightblue" stroke="midnightblue" points="888.53,-217.54 895.58,-209.63 885.13,-211.42 888.53,-217.54"/>
</g>
<!-- Node35&#45;&gt;Node17 -->
<g id="edge56" class="edge">
<title>Node35&#45;&gt;Node17</title>
<path fill="none" stroke="midnightblue" d="M734.17,-385.73C731.49,-377.46 727.36,-364.66 723.71,-353.37"/>
<polygon fill="midnightblue" stroke="midnightblue" points="726.96,-352.03 720.55,-343.59 720.3,-354.18 726.96,-352.03"/>
</g>
<!-- Node36&#45;&gt;Node1 -->
<g id="edge60" class="edge">
<title>Node36&#45;&gt;Node1</title>
<path fill="none" stroke="midnightblue" d="M806.73,-542.07C713.52,-564.4 509.12,-613.37 408.42,-637.5"/>
<polygon fill="midnightblue" stroke="midnightblue" points="407.33,-634.16 398.42,-639.9 408.96,-640.97 407.33,-634.16"/>
</g>
<!-- Node36&#45;&gt;Node14 -->
<g id="edge64" class="edge">
<title>Node36&#45;&gt;Node14</title>
<path fill="none" stroke="midnightblue" d="M903.36,-525.9C1027.92,-517.9 1350,-488.33 1350,-396.5 1350,-396.5 1350,-396.5 1350,-193.5 1350,-137.69 1287.7,-98.69 1249.03,-79.86"/>
<polygon fill="midnightblue" stroke="midnightblue" points="1250.3,-76.59 1239.76,-75.51 1247.32,-82.93 1250.3,-76.59"/>
</g>
<!-- Node36&#45;&gt;Node33 -->
<g id="edge65" class="edge">
<title>Node36&#45;&gt;Node33</title>
<path fill="none" stroke="midnightblue" d="M856.44,-514.19C859.98,-478.99 869.1,-388.17 873.09,-348.51"/>
<polygon fill="midnightblue" stroke="midnightblue" points="876.59,-348.66 874.11,-338.36 869.63,-347.96 876.59,-348.66"/>
</g>
<!-- Node37 -->
<g id="node37" class="node">
<title>Node37</title>
<g id="a_node37"><a xlink:href="core_8hpp.html" target="_top" xlink:title=" ">
<polygon fill="none" stroke="black" points="883,-447.5 883,-477.5 979,-477.5 979,-447.5 883,-447.5"/>
<text text-anchor="start" x="891" y="-465.5" font-family="Helvetica,sans-Serif" font-size="10.00">yaclib/async/detail</text>
<text text-anchor="middle" x="931" y="-454.5" font-family="Helvetica,sans-Serif" font-size="10.00">/core.hpp</text>
</a>
</g>
</g>
<!-- Node36&#45;&gt;Node37 -->
<g id="edge61" class="edge">
<title>Node36&#45;&gt;Node37</title>
<path fill="none" stroke="midnightblue" d="M871.49,-514.4C881.85,-505.54 895.38,-493.96 906.93,-484.09"/>
<polygon fill="midnightblue" stroke="midnightblue" points="909.22,-486.74 914.54,-477.58 904.67,-481.42 909.22,-486.74"/>
</g>
<!-- Node37&#45;&gt;Node17 -->
<g id="edge63" class="edge">
<title>Node37&#45;&gt;Node17</title>
<path fill="none" stroke="midnightblue" d="M907.99,-447.37C869.36,-423.65 791.39,-375.79 747.64,-348.92"/>
<polygon fill="midnightblue" stroke="midnightblue" points="749.2,-345.77 738.84,-343.52 745.53,-351.74 749.2,-345.77"/>
</g>
<!-- Node37&#45;&gt;Node32 -->
<g id="edge62" class="edge">
<title>Node37&#45;&gt;Node32</title>
<path fill="none" stroke="midnightblue" d="M947.49,-447.4C957.85,-438.54 971.38,-426.96 982.93,-417.09"/>
<polygon fill="midnightblue" stroke="midnightblue" points="985.22,-419.74 990.54,-410.58 980.67,-414.42 985.22,-419.74"/>
</g>
</g>
</svg>
        <g id="navigator" transform="translate(0 0)" fill="#404254">
                <rect fill="#f2f5e9" fill-opacity="0.5" stroke="#606060" stroke-width=".5" x="0" y="0" width="60" height="60"/>
                <use id="zoomplus" xlink:href="#zoomPlus" x="17" y="9" onmousedown="handleZoom(evt,'in')"/>
                <use id="zoomminus" xlink:href="#zoomMin" x="42" y="9" onmousedown="handleZoom(evt,'out')"/>
                <use id="reset" xlink:href="#resetDef" x="30" y="36" onmousedown="handleReset()"/>
                <g id="arrowUp" xlink:href="#dirArrow" transform="translate(30 24)" onmousedown="handlePan(0,-1)">
                  <use xlink:href="#rim" fill="#404040">
                        <set attributeName="fill" to="#808080" begin="arrowUp.mouseover" end="arrowUp.mouseout"/>
                  </use>
                  <path fill="none" stroke="white" stroke-width="1.5" d="M0,-3.0v7 M-2.5,-0.5L0,-3.0L2.5,-0.5"/>
                </g>
                <g id="arrowRight" xlink:href="#dirArrow" transform="rotate(90) translate(36 -43)" onmousedown="handlePan(1,0)">
                  <use xlink:href="#rim" fill="#404040">
                        <set attributeName="fill" to="#808080" begin="arrowRight.mouseover" end="arrowRight.mouseout"/>
                  </use>
                  <path fill="none" stroke="white" stroke-width="1.5" d="M0,-3.0v7 M-2.5,-0.5L0,-3.0L2.5,-0.5"/>
                </g>
                <g id="arrowDown" xlink:href="#dirArrow" transform="rotate(180) translate(-30 -48)" onmousedown="handlePan(0,1)">
                  <use xlink:href="#rim" fill="#404040">
                        <set attributeName="fill" to="#808080" begin="arrowDown.mouseover" end="arrowDown.mouseout"/>
                  </use>
                  <path fill="none" stroke="white" stroke-width="1.5" d="M0,-3.0v7 M-2.5,-0.5L0,-3.0L2.5,-0.5"/>
                </g>
                <g id="arrowLeft" xlink:href="#dirArrow" transform="rotate(270) translate(-36 17)" onmousedown="handlePan(-1,0)">
                  <use xlink:href="#rim" fill="#404040">
                        <set attributeName="fill" to="#808080" begin="arrowLeft.mouseover" end="arrowLeft.mouseout"/>
                  </use>
                  <path fill="none" stroke="white" stroke-width="1.5" d="M0,-3.0v7 M-2.5,-0.5L0,-3.0L2.5,-0.5"/>
                </g>
        </g>
        <svg viewBox="0 0 15 15" width="100%" height="30px" preserveAspectRatio="xMaxYMin meet">
         <g id="arrow_out" transform="scale(0.3 0.3)">
          <a xlink:href="wait_8hpp__incl_org.svg" target="_base">
           <rect id="button" ry="5" rx="5" y="6" x="6" height="38" width="38"
                fill="#f2f5e9" fill-opacity="0.5" stroke="#606060" stroke-width="1.0"/>
           <path id="arrow"
             d="M 11.500037,31.436501 C 11.940474,20.09759 22.043105,11.32322 32.158766,21.979434 L 37.068811,17.246167 C 37.068811,17.246167 37.088388,32 37.088388,32 L 22.160133,31.978069 C 22.160133,31.978069 26.997745,27.140456 26.997745,27.140456 C 18.528582,18.264221 13.291696,25.230495 11.500037,31.436501 z"
             style="fill:#404040;"/>
          </a>
         </g>
        </svg>
</svg>
