<?xml version="1.0" encoding="UTF-8" standalone="no"?>
<!DOCTYPE svg PUBLIC "-//W3C//DTD SVG 1.1//EN"
 "http://www.w3.org/Graphics/SVG/1.1/DTD/svg11.dtd">
<!-- Generated by graphviz version 3.0.0 (20220413.0106)
 -->
<!-- Title: include/yaclib/algo/wait_for.hpp Pages: 1 -->
<svg width="1427pt" height="676pt"
 viewBox="0.00 0.00 1427.00 676.00" xmlns="http://www.w3.org/2000/svg" xmlns:xlink="http://www.w3.org/1999/xlink">
<g id="graph0" class="graph" transform="scale(1 1) rotate(0) translate(4 672)">
<title>include/yaclib/algo/wait_for.hpp</title>
<!-- Node1 -->
<g id="node1" class="node">
<title>Node1</title>
<g id="a_node1"><a xlink:title=" ">
<polygon fill="#bfbfbf" stroke="black" points="168,-637.5 168,-667.5 264,-667.5 264,-637.5 168,-637.5"/>
<text text-anchor="start" x="176" y="-655.5" font-family="Helvetica,sans-Serif" font-size="10.00">include/yaclib/algo</text>
<text text-anchor="middle" x="216" y="-644.5" font-family="Helvetica,sans-Serif" font-size="10.00">/wait_for.hpp</text>
</a>
</g>
</g>
<!-- Node2 -->
<g id="node2" class="node">
<title>Node2</title>
<g id="a_node2"><a xlink:href="wait__impl_8hpp.html" target="_top" xlink:title=" ">
<polygon fill="none" stroke="black" points="320.5,-380.5 320.5,-410.5 409.5,-410.5 409.5,-380.5 320.5,-380.5"/>
<text text-anchor="start" x="328.5" y="-398.5" font-family="Helvetica,sans-Serif" font-size="10.00">yaclib/algo/detail</text>
<text text-anchor="middle" x="365" y="-387.5" font-family="Helvetica,sans-Serif" font-size="10.00">/wait_impl.hpp</text>
</a>
</g>
</g>
<!-- Node1&#45;&gt;Node2 -->
<g id="edge1" class="edge">
<title>Node1&#45;&gt;Node2</title>
<path fill="none" stroke="midnightblue" d="M224.22,-637.43C248.75,-595.46 321.54,-470.88 351.69,-419.28"/>
<polygon fill="midnightblue" stroke="midnightblue" points="354.78,-420.93 356.8,-410.53 348.74,-417.4 354.78,-420.93"/>
</g>
<!-- Node18 -->
<g id="node18" class="node">
<title>Node18</title>
<g id="a_node18"><a xlink:title=" ">
<polygon fill="none" stroke="#bfbfbf" points="449,-252 449,-271 537,-271 537,-252 449,-252"/>
<text text-anchor="middle" x="493" y="-259" font-family="Helvetica,sans-Serif" font-size="10.00">yaclib/config.hpp</text>
</a>
</g>
</g>
<!-- Node1&#45;&gt;Node18 -->
<g id="edge71" class="edge">
<title>Node1&#45;&gt;Node18</title>
<path fill="none" stroke="midnightblue" d="M264.02,-644.32C344.11,-629.46 502.88,-587.11 571,-478 613.31,-410.22 541.25,-316.18 508.21,-278.78"/>
<polygon fill="midnightblue" stroke="midnightblue" points="510.75,-276.37 501.45,-271.3 505.56,-281.07 510.75,-276.37"/>
</g>
<!-- Node19 -->
<g id="node19" class="node">
<title>Node19</title>
<g id="a_node19"><a xlink:title=" ">
<polygon fill="none" stroke="#bfbfbf" points="333.5,-252 333.5,-271 382.5,-271 382.5,-252 333.5,-252"/>
<text text-anchor="middle" x="358" y="-259" font-family="Helvetica,sans-Serif" font-size="10.00">cstddef</text>
</a>
</g>
</g>
<!-- Node1&#45;&gt;Node19 -->
<g id="edge74" class="edge">
<title>Node1&#45;&gt;Node19</title>
<path fill="none" stroke="midnightblue" d="M192.09,-637.43C161.94,-617.69 114,-578.72 114,-530.5 114,-530.5 114,-530.5 114,-394.5 114,-357.31 106.59,-339.19 133,-313 146.47,-299.64 263.43,-278.36 323.18,-268.23"/>
<polygon fill="midnightblue" stroke="midnightblue" points="324,-271.64 333.28,-266.53 322.84,-264.74 324,-271.64"/>
</g>
<!-- Node21 -->
<g id="node21" class="node">
<title>Node21</title>
<g id="a_node21"><a xlink:href="mutex__event_8hpp.html" target="_top" xlink:title=" ">
<polygon fill="none" stroke="black" points="155.5,-246.5 155.5,-276.5 248.5,-276.5 248.5,-246.5 155.5,-246.5"/>
<text text-anchor="start" x="163.5" y="-264.5" font-family="Helvetica,sans-Serif" font-size="10.00">yaclib/util/detail</text>
<text text-anchor="middle" x="202" y="-253.5" font-family="Helvetica,sans-Serif" font-size="10.00">/mutex_event.hpp</text>
</a>
</g>
</g>
<!-- Node1&#45;&gt;Node21 -->
<g id="edge72" class="edge">
<title>Node1&#45;&gt;Node21</title>
<path fill="none" stroke="midnightblue" d="M167.83,-640.82C115.12,-625.96 38,-593.46 38,-530.5 38,-530.5 38,-530.5 38,-394.5 38,-336.76 100.45,-300.02 148.27,-280.35"/>
<polygon fill="midnightblue" stroke="midnightblue" points="149.61,-283.58 157.62,-276.64 147.03,-277.07 149.61,-283.58"/>
</g>
<!-- Node22 -->
<g id="node22" class="node">
<title>Node22</title>
<g id="a_node22"><a xlink:title=" ">
<polygon fill="none" stroke="#bfbfbf" points="104,-185 104,-204 150,-204 150,-185 104,-185"/>
<text text-anchor="middle" x="127" y="-192" font-family="Helvetica,sans-Serif" font-size="10.00">chrono</text>
</a>
</g>
</g>
<!-- Node1&#45;&gt;Node22 -->
<g id="edge73" class="edge">
<title>Node1&#45;&gt;Node22</title>
<path fill="none" stroke="midnightblue" d="M167.79,-645.91C104.13,-635.54 0,-606.9 0,-530.5 0,-530.5 0,-530.5 0,-327.5 0,-270.63 61.98,-228.79 99.35,-208.74"/>
<polygon fill="midnightblue" stroke="midnightblue" points="100.99,-211.83 108.26,-204.12 97.77,-205.62 100.99,-211.83"/>
</g>
<!-- Node31 -->
<g id="node31" class="node">
<title>Node31</title>
<g id="a_node31"><a xlink:href="future_8hpp.html" target="_top" xlink:title=" ">
<polygon fill="none" stroke="black" points="676,-581.5 676,-600.5 792,-600.5 792,-581.5 676,-581.5"/>
<text text-anchor="middle" x="734" y="-588.5" font-family="Helvetica,sans-Serif" font-size="10.00">yaclib/async/future.hpp</text>
</a>
</g>
</g>
<!-- Node1&#45;&gt;Node31 -->
<g id="edge44" class="edge">
<title>Node1&#45;&gt;Node31</title>
<path fill="none" stroke="midnightblue" d="M264.27,-645.96C356.85,-635.32 559.59,-612.03 665.89,-599.82"/>
<polygon fill="midnightblue" stroke="midnightblue" points="666.34,-603.3 675.87,-598.68 665.54,-596.34 666.34,-603.3"/>
</g>
<!-- Node3 -->
<g id="node3" class="node">
<title>Node3</title>
<g id="a_node3"><a xlink:href="base__core_8hpp.html" target="_top" xlink:title=" ">
<polygon fill="none" stroke="black" points="955,-313.5 955,-343.5 1051,-343.5 1051,-313.5 955,-313.5"/>
<text text-anchor="start" x="963" y="-331.5" font-family="Helvetica,sans-Serif" font-size="10.00">yaclib/async/detail</text>
<text text-anchor="middle" x="1003" y="-320.5" font-family="Helvetica,sans-Serif" font-size="10.00">/base_core.hpp</text>
</a>
</g>
</g>
<!-- Node2&#45;&gt;Node3 -->
<g id="edge2" class="edge">
<title>Node2&#45;&gt;Node3</title>
<path fill="none" stroke="midnightblue" d="M409.78,-393.08C506.09,-389.51 740.15,-377.97 944.88,-344"/>
<polygon fill="midnightblue" stroke="midnightblue" points="945.63,-347.43 954.92,-342.32 944.47,-340.52 945.63,-347.43"/>
</g>
<!-- Node9 -->
<g id="node9" class="node">
<title>Node9</title>
<g id="a_node9"><a xlink:title=" ">
<polygon fill="none" stroke="#bfbfbf" points="555,-56.5 555,-75.5 617,-75.5 617,-56.5 555,-56.5"/>
<text text-anchor="middle" x="586" y="-63.5" font-family="Helvetica,sans-Serif" font-size="10.00">type_traits</text>
</a>
</g>
</g>
<!-- Node2&#45;&gt;Node9 -->
<g id="edge43" class="edge">
<title>Node2&#45;&gt;Node9</title>
<path fill="none" stroke="midnightblue" d="M320.48,-393.76C239.41,-389.81 76,-368.68 76,-262.5 76,-262.5 76,-262.5 76,-193.5 76,-97.1 423.58,-73.65 544.85,-68.41"/>
<polygon fill="midnightblue" stroke="midnightblue" points="545.02,-71.9 554.86,-67.99 544.73,-64.91 545.02,-71.9"/>
</g>
<!-- Node17 -->
<g id="node17" class="node">
<title>Node17</title>
<g id="a_node17"><a xlink:href="atomic__counter_8hpp.html" target="_top" xlink:title=" ">
<polygon fill="none" stroke="black" points="675,-313.5 675,-343.5 779,-343.5 779,-313.5 675,-313.5"/>
<text text-anchor="start" x="683" y="-331.5" font-family="Helvetica,sans-Serif" font-size="10.00">yaclib/util/detail</text>
<text text-anchor="middle" x="727" y="-320.5" font-family="Helvetica,sans-Serif" font-size="10.00">/atomic_counter.hpp</text>
</a>
</g>
</g>
<!-- Node2&#45;&gt;Node17 -->
<g id="edge21" class="edge">
<title>Node2&#45;&gt;Node17</title>
<path fill="none" stroke="midnightblue" d="M409.75,-386.46C473.89,-374.95 592.2,-353.7 664.81,-340.67"/>
<polygon fill="midnightblue" stroke="midnightblue" points="665.52,-344.09 674.75,-338.88 664.29,-337.21 665.52,-344.09"/>
</g>
<!-- Node2&#45;&gt;Node19 -->
<g id="edge41" class="edge">
<title>Node2&#45;&gt;Node19</title>
<path fill="none" stroke="midnightblue" d="M327.23,-380.47C311.19,-372.41 294.12,-360.54 285,-344 278.35,-331.93 278.6,-325.2 285,-313 293.77,-296.27 310.87,-283.99 326.32,-275.72"/>
<polygon fill="midnightblue" stroke="midnightblue" points="328.24,-278.68 335.64,-271.09 325.13,-272.41 328.24,-278.68"/>
</g>
<!-- Node20 -->
<g id="node20" class="node">
<title>Node20</title>
<g id="a_node20"><a xlink:href="default__event_8hpp.html" target="_top" xlink:title=" ">
<polygon fill="none" stroke="black" points="142,-313.5 142,-343.5 238,-343.5 238,-313.5 142,-313.5"/>
<text text-anchor="start" x="150" y="-331.5" font-family="Helvetica,sans-Serif" font-size="10.00">yaclib/util/detail</text>
<text text-anchor="middle" x="190" y="-320.5" font-family="Helvetica,sans-Serif" font-size="10.00">/default_event.hpp</text>
</a>
</g>
</g>
<!-- Node2&#45;&gt;Node20 -->
<g id="edge26" class="edge">
<title>Node2&#45;&gt;Node20</title>
<path fill="none" stroke="midnightblue" d="M327.03,-380.4C300.77,-370.64 265.64,-357.59 237.52,-347.15"/>
<polygon fill="midnightblue" stroke="midnightblue" points="238.49,-343.78 227.9,-343.58 236.05,-350.34 238.49,-343.78"/>
</g>
<!-- Node25 -->
<g id="node25" class="node">
<title>Node25</title>
<g id="a_node25"><a xlink:href="set__one__deleter_8hpp.html" target="_top" xlink:title=" ">
<polygon fill="none" stroke="black" points="359.5,-313.5 359.5,-343.5 466.5,-343.5 466.5,-313.5 359.5,-313.5"/>
<text text-anchor="start" x="367.5" y="-331.5" font-family="Helvetica,sans-Serif" font-size="10.00">yaclib/util/detail</text>
<text text-anchor="middle" x="413" y="-320.5" font-family="Helvetica,sans-Serif" font-size="10.00">/set_one_deleter.hpp</text>
</a>
</g>
</g>
<!-- Node2&#45;&gt;Node25 -->
<g id="edge33" class="edge">
<title>Node2&#45;&gt;Node25</title>
<path fill="none" stroke="midnightblue" d="M375.42,-380.4C381.58,-372.05 389.53,-361.29 396.52,-351.81"/>
<polygon fill="midnightblue" stroke="midnightblue" points="399.48,-353.7 402.61,-343.58 393.85,-349.54 399.48,-353.7"/>
</g>
<!-- Node26 -->
<g id="node26" class="node">
<title>Node26</title>
<g id="a_node26"><a xlink:href="type__traits_8hpp.html" target="_top" xlink:title=" ">
<polygon fill="none" stroke="black" points="555.5,-252 555.5,-271 678.5,-271 678.5,-252 555.5,-252"/>
<text text-anchor="middle" x="617" y="-259" font-family="Helvetica,sans-Serif" font-size="10.00">yaclib/util/type_traits.hpp</text>
</a>
</g>
</g>
<!-- Node2&#45;&gt;Node26 -->
<g id="edge34" class="edge">
<title>Node2&#45;&gt;Node26</title>
<path fill="none" stroke="midnightblue" d="M397.62,-380.46C419.7,-370.72 449.41,-357.18 475,-344 517.95,-321.87 566.46,-293.2 594.22,-276.43"/>
<polygon fill="midnightblue" stroke="midnightblue" points="596.39,-279.21 603.12,-271.03 592.76,-273.22 596.39,-279.21"/>
</g>
<!-- Node30 -->
<g id="node30" class="node">
<title>Node30</title>
<g id="a_node30"><a xlink:title=" ">
<polygon fill="none" stroke="#bfbfbf" points="294.5,-319 294.5,-338 341.5,-338 341.5,-319 294.5,-319"/>
<text text-anchor="middle" x="318" y="-326" font-family="Helvetica,sans-Serif" font-size="10.00">iterator</text>
</a>
</g>
</g>
<!-- Node2&#45;&gt;Node30 -->
<g id="edge42" class="edge">
<title>Node2&#45;&gt;Node30</title>
<path fill="none" stroke="midnightblue" d="M354.8,-380.4C347.62,-370.46 337.96,-357.11 330.34,-346.57"/>
<polygon fill="midnightblue" stroke="midnightblue" points="332.98,-344.25 324.29,-338.19 327.31,-348.35 332.98,-344.25"/>
</g>
<!-- Node4 -->
<g id="node4" class="node">
<title>Node4</title>
<g id="a_node4"><a xlink:href="inline__core_8hpp.html" target="_top" xlink:title=" ">
<polygon fill="none" stroke="black" points="1257,-246.5 1257,-276.5 1353,-276.5 1353,-246.5 1257,-246.5"/>
<text text-anchor="start" x="1265" y="-264.5" font-family="Helvetica,sans-Serif" font-size="10.00">yaclib/async/detail</text>
<text text-anchor="middle" x="1305" y="-253.5" font-family="Helvetica,sans-Serif" font-size="10.00">/inline_core.hpp</text>
</a>
</g>
</g>
<!-- Node3&#45;&gt;Node4 -->
<g id="edge3" class="edge">
<title>Node3&#45;&gt;Node4</title>
<path fill="none" stroke="midnightblue" d="M1051.03,-318.28C1098.4,-309.03 1173.1,-294.04 1246.9,-277.2"/>
<polygon fill="midnightblue" stroke="midnightblue" points="1247.87,-280.57 1256.84,-274.92 1246.31,-273.74 1247.87,-280.57"/>
</g>
<!-- Node8 -->
<g id="node8" class="node">
<title>Node8</title>
<g id="a_node8"><a xlink:href="ref_8hpp.html" target="_top" xlink:title=" ">
<polygon fill="none" stroke="black" points="874.5,-56.5 874.5,-75.5 963.5,-75.5 963.5,-56.5 874.5,-56.5"/>
<text text-anchor="middle" x="919" y="-63.5" font-family="Helvetica,sans-Serif" font-size="10.00">yaclib/util/ref.hpp</text>
</a>
</g>
</g>
<!-- Node3&#45;&gt;Node8 -->
<g id="edge19" class="edge">
<title>Node3&#45;&gt;Node8</title>
<path fill="none" stroke="midnightblue" d="M998.64,-313.25C993.55,-296.89 984.72,-269.32 976,-246 958.63,-199.53 947.13,-190.55 933,-143 927.34,-123.94 923.54,-101.47 921.34,-85.93"/>
<polygon fill="midnightblue" stroke="midnightblue" points="924.75,-85.03 919.97,-75.57 917.81,-85.95 924.75,-85.03"/>
</g>
<!-- Node11 -->
<g id="node11" class="node">
<title>Node11</title>
<g id="a_node11"><a xlink:href="executor_8hpp.html" target="_top" xlink:title=" ">
<polygon fill="none" stroke="black" points="1099.5,-252 1099.5,-271 1238.5,-271 1238.5,-252 1099.5,-252"/>
<text text-anchor="middle" x="1169" y="-259" font-family="Helvetica,sans-Serif" font-size="10.00">yaclib/executor/executor.hpp</text>
</a>
</g>
</g>
<!-- Node3&#45;&gt;Node11 -->
<g id="edge10" class="edge">
<title>Node3&#45;&gt;Node11</title>
<path fill="none" stroke="midnightblue" d="M1039.02,-313.4C1068.53,-301.84 1109.86,-285.66 1137.94,-274.66"/>
<polygon fill="midnightblue" stroke="midnightblue" points="1139.24,-277.91 1147.27,-271.01 1136.69,-271.39 1139.24,-277.91"/>
</g>
<!-- Node12 -->
<g id="node12" class="node">
<title>Node12</title>
<g id="a_node12"><a xlink:href="intrusive__ptr_8hpp.html" target="_top" xlink:title=" ">
<polygon fill="none" stroke="black" points="984.5,-179.5 984.5,-209.5 1081.5,-209.5 1081.5,-179.5 984.5,-179.5"/>
<text text-anchor="start" x="992.5" y="-197.5" font-family="Helvetica,sans-Serif" font-size="10.00">yaclib/util/intrusive</text>
<text text-anchor="middle" x="1033" y="-186.5" font-family="Helvetica,sans-Serif" font-size="10.00">_ptr.hpp</text>
</a>
</g>
</g>
<!-- Node3&#45;&gt;Node12 -->
<g id="edge18" class="edge">
<title>Node3&#45;&gt;Node12</title>
<path fill="none" stroke="midnightblue" d="M1006.21,-313.37C1011.31,-290.94 1021.31,-246.92 1027.55,-219.49"/>
<polygon fill="midnightblue" stroke="midnightblue" points="1031.01,-220.05 1029.81,-209.52 1024.18,-218.5 1031.01,-220.05"/>
</g>
<!-- Node16 -->
<g id="node16" class="node">
<title>Node16</title>
<g id="a_node16"><a xlink:title=" ">
<polygon fill="none" stroke="#bfbfbf" points="773,-252 773,-271 865,-271 865,-252 773,-252"/>
<text text-anchor="middle" x="819" y="-259" font-family="Helvetica,sans-Serif" font-size="10.00">yaclib_std/atomic</text>
</a>
</g>
</g>
<!-- Node3&#45;&gt;Node16 -->
<g id="edge20" class="edge">
<title>Node3&#45;&gt;Node16</title>
<path fill="none" stroke="midnightblue" d="M963.07,-313.4C930.08,-301.74 883.75,-285.37 852.62,-274.38"/>
<polygon fill="midnightblue" stroke="midnightblue" points="853.68,-271.04 843.08,-271.01 851.34,-277.64 853.68,-271.04"/>
</g>
<!-- Node5 -->
<g id="node5" class="node">
<title>Node5</title>
<g id="a_node5"><a xlink:href="job_8hpp.html" target="_top" xlink:title=" ">
<polygon fill="none" stroke="black" points="1173.5,-185 1173.5,-204 1288.5,-204 1288.5,-185 1173.5,-185"/>
<text text-anchor="middle" x="1231" y="-192" font-family="Helvetica,sans-Serif" font-size="10.00">yaclib/executor/job.hpp</text>
</a>
</g>
</g>
<!-- Node4&#45;&gt;Node5 -->
<g id="edge4" class="edge">
<title>Node4&#45;&gt;Node5</title>
<path fill="none" stroke="midnightblue" d="M1288.94,-246.4C1277.06,-235.96 1260.89,-221.75 1248.64,-211"/>
<polygon fill="midnightblue" stroke="midnightblue" points="1250.72,-208.16 1240.9,-204.19 1246.1,-213.42 1250.72,-208.16"/>
</g>
<!-- Node6 -->
<g id="node6" class="node">
<title>Node6</title>
<g id="a_node6"><a xlink:href="node_8hpp.html" target="_top" xlink:title=" ">
<polygon fill="none" stroke="black" points="1252.5,-112.5 1252.5,-142.5 1335.5,-142.5 1335.5,-112.5 1252.5,-112.5"/>
<text text-anchor="start" x="1260.5" y="-130.5" font-family="Helvetica,sans-Serif" font-size="10.00">yaclib/util/detail</text>
<text text-anchor="middle" x="1294" y="-119.5" font-family="Helvetica,sans-Serif" font-size="10.00">/node.hpp</text>
</a>
</g>
</g>
<!-- Node5&#45;&gt;Node6 -->
<g id="edge5" class="edge">
<title>Node5&#45;&gt;Node6</title>
<path fill="none" stroke="midnightblue" d="M1239.5,-184.73C1248.09,-175.86 1261.71,-161.81 1273.19,-149.97"/>
<polygon fill="midnightblue" stroke="midnightblue" points="1275.9,-152.21 1280.34,-142.59 1270.87,-147.33 1275.9,-152.21"/>
</g>
<!-- Node7 -->
<g id="node7" class="node">
<title>Node7</title>
<g id="a_node7"><a xlink:href="func_8hpp.html" target="_top" xlink:title=" ">
<polygon fill="none" stroke="black" points="966.5,-118 966.5,-137 1063.5,-137 1063.5,-118 966.5,-118"/>
<text text-anchor="middle" x="1015" y="-125" font-family="Helvetica,sans-Serif" font-size="10.00">yaclib/util/func.hpp</text>
</a>
</g>
</g>
<!-- Node5&#45;&gt;Node7 -->
<g id="edge6" class="edge">
<title>Node5&#45;&gt;Node7</title>
<path fill="none" stroke="midnightblue" d="M1202.32,-184.87C1163.96,-173.33 1095.87,-152.84 1053.2,-140"/>
<polygon fill="midnightblue" stroke="midnightblue" points="1054.04,-136.59 1043.46,-137.06 1052.02,-143.3 1054.04,-136.59"/>
</g>
<!-- Node7&#45;&gt;Node8 -->
<g id="edge7" class="edge">
<title>Node7&#45;&gt;Node8</title>
<path fill="none" stroke="midnightblue" d="M1001.25,-117.98C985.63,-108.3 959.94,-92.37 941.42,-80.89"/>
<polygon fill="midnightblue" stroke="midnightblue" points="943.07,-77.8 932.73,-75.51 939.38,-83.75 943.07,-77.8"/>
</g>
<!-- Node7&#45;&gt;Node9 -->
<g id="edge8" class="edge">
<title>Node7&#45;&gt;Node9</title>
<path fill="none" stroke="midnightblue" d="M966.21,-119.73C881.09,-107.93 706.95,-83.78 627.35,-72.74"/>
<polygon fill="midnightblue" stroke="midnightblue" points="627.61,-69.24 617.22,-71.33 626.65,-76.17 627.61,-69.24"/>
</g>
<!-- Node10 -->
<g id="node10" class="node">
<title>Node10</title>
<g id="a_node10"><a xlink:title=" ">
<polygon fill="none" stroke="#bfbfbf" points="1072.5,-56.5 1072.5,-75.5 1111.5,-75.5 1111.5,-56.5 1072.5,-56.5"/>
<text text-anchor="middle" x="1092" y="-63.5" font-family="Helvetica,sans-Serif" font-size="10.00">utility</text>
</a>
</g>
</g>
<!-- Node7&#45;&gt;Node10 -->
<g id="edge9" class="edge">
<title>Node7&#45;&gt;Node10</title>
<path fill="none" stroke="midnightblue" d="M1026.03,-117.98C1038.27,-108.52 1058.23,-93.1 1072.99,-81.69"/>
<polygon fill="midnightblue" stroke="midnightblue" points="1075.22,-84.39 1080.99,-75.51 1070.94,-78.85 1075.22,-84.39"/>
</g>
<!-- Node11&#45;&gt;Node5 -->
<g id="edge11" class="edge">
<title>Node11&#45;&gt;Node5</title>
<path fill="none" stroke="midnightblue" d="M1177.36,-251.73C1187.12,-241.5 1203.47,-224.36 1215.55,-211.69"/>
<polygon fill="midnightblue" stroke="midnightblue" points="1218.4,-213.78 1222.77,-204.13 1213.34,-208.95 1218.4,-213.78"/>
</g>
<!-- Node11&#45;&gt;Node12 -->
<g id="edge12" class="edge">
<title>Node11&#45;&gt;Node12</title>
<path fill="none" stroke="midnightblue" d="M1150.94,-251.87C1130.8,-242.24 1097.63,-226.39 1071.59,-213.94"/>
<polygon fill="midnightblue" stroke="midnightblue" points="1072.88,-210.68 1062.35,-209.53 1069.86,-217 1072.88,-210.68"/>
</g>
<!-- Node12&#45;&gt;Node8 -->
<g id="edge13" class="edge">
<title>Node12&#45;&gt;Node8</title>
<path fill="none" stroke="midnightblue" d="M1005.14,-179.31C989.8,-170.45 971.24,-157.91 958,-143 942.81,-125.9 931.77,-101.82 925.39,-85.38"/>
<polygon fill="midnightblue" stroke="midnightblue" points="928.61,-84 921.87,-75.83 922.04,-86.42 928.61,-84"/>
</g>
<!-- Node12&#45;&gt;Node9 -->
<g id="edge14" class="edge">
<title>Node12&#45;&gt;Node9</title>
<path fill="none" stroke="midnightblue" d="M984.37,-179.47C927.66,-163.14 831.09,-135.42 748,-112 706.75,-100.37 659.54,-87.28 626.76,-78.23"/>
<polygon fill="midnightblue" stroke="midnightblue" points="627.65,-74.84 617.08,-75.56 625.78,-81.59 627.65,-74.84"/>
</g>
<!-- Node13 -->
<g id="node13" class="node">
<title>Node13</title>
<g id="a_node13"><a xlink:href="intrusive__ptr__impl_8hpp.html" target="_top" xlink:title=" ">
<polygon fill="none" stroke="black" points="1120,-112.5 1120,-142.5 1234,-142.5 1234,-112.5 1120,-112.5"/>
<text text-anchor="start" x="1128" y="-130.5" font-family="Helvetica,sans-Serif" font-size="10.00">yaclib/util/detail</text>
<text text-anchor="middle" x="1177" y="-119.5" font-family="Helvetica,sans-Serif" font-size="10.00">/intrusive_ptr_impl.hpp</text>
</a>
</g>
</g>
<!-- Node12&#45;&gt;Node13 -->
<g id="edge15" class="edge">
<title>Node12&#45;&gt;Node13</title>
<path fill="none" stroke="midnightblue" d="M1064.25,-179.4C1085.47,-169.81 1113.75,-157.05 1136.68,-146.7"/>
<polygon fill="midnightblue" stroke="midnightblue" points="1138.14,-149.88 1145.82,-142.58 1135.26,-143.5 1138.14,-149.88"/>
</g>
<!-- Node14 -->
<g id="node14" class="node">
<title>Node14</title>
<g id="a_node14"><a xlink:href="log_8hpp.html" target="_top" xlink:title=" ">
<polygon fill="none" stroke="black" points="1260.5,-56.5 1260.5,-75.5 1335.5,-75.5 1335.5,-56.5 1260.5,-56.5"/>
<text text-anchor="middle" x="1298" y="-63.5" font-family="Helvetica,sans-Serif" font-size="10.00">yaclib/log.hpp</text>
</a>
</g>
</g>
<!-- Node13&#45;&gt;Node14 -->
<g id="edge16" class="edge">
<title>Node13&#45;&gt;Node14</title>
<path fill="none" stroke="midnightblue" d="M1205.68,-112.4C1225.52,-102.64 1251.76,-89.74 1271.19,-80.18"/>
<polygon fill="midnightblue" stroke="midnightblue" points="1272.96,-83.21 1280.39,-75.66 1269.88,-76.93 1272.96,-83.21"/>
</g>
<!-- Node15 -->
<g id="node15" class="node">
<title>Node15</title>
<g id="a_node15"><a xlink:title=" ">
<polygon fill="none" stroke="#bfbfbf" points="1265,-0.5 1265,-19.5 1331,-19.5 1331,-0.5 1265,-0.5"/>
<text text-anchor="middle" x="1298" y="-7.5" font-family="Helvetica,sans-Serif" font-size="10.00">string_view</text>
</a>
</g>
</g>
<!-- Node14&#45;&gt;Node15 -->
<g id="edge17" class="edge">
<title>Node14&#45;&gt;Node15</title>
<path fill="none" stroke="midnightblue" d="M1298,-56.08C1298,-49.01 1298,-38.86 1298,-29.99"/>
<polygon fill="midnightblue" stroke="midnightblue" points="1301.5,-29.75 1298,-19.75 1294.5,-29.75 1301.5,-29.75"/>
</g>
<!-- Node17&#45;&gt;Node10 -->
<g id="edge24" class="edge">
<title>Node17&#45;&gt;Node10</title>
<path fill="none" stroke="midnightblue" d="M729.59,-313.26C733.2,-296.17 740.93,-267.19 755,-246 779.73,-208.77 789.52,-197.96 830,-179 928.87,-132.68 992.11,-216.33 1073,-143 1088.87,-128.61 1092.4,-103.16 1092.77,-85.71"/>
<polygon fill="midnightblue" stroke="midnightblue" points="1096.27,-85.55 1092.66,-75.59 1089.27,-85.63 1096.27,-85.55"/>
</g>
<!-- Node17&#45;&gt;Node16 -->
<g id="edge25" class="edge">
<title>Node17&#45;&gt;Node16</title>
<path fill="none" stroke="midnightblue" d="M746.96,-313.4C762.25,-302.6 783.25,-287.76 798.64,-276.89"/>
<polygon fill="midnightblue" stroke="midnightblue" points="800.81,-279.64 806.96,-271.01 796.77,-273.92 800.81,-279.64"/>
</g>
<!-- Node17&#45;&gt;Node18 -->
<g id="edge22" class="edge">
<title>Node17&#45;&gt;Node18</title>
<path fill="none" stroke="midnightblue" d="M676.51,-313.48C633.75,-301.6 573.23,-284.79 533.56,-273.77"/>
<polygon fill="midnightblue" stroke="midnightblue" points="534.28,-270.33 523.7,-271.03 532.4,-277.08 534.28,-270.33"/>
</g>
<!-- Node17&#45;&gt;Node19 -->
<g id="edge23" class="edge">
<title>Node17&#45;&gt;Node19</title>
<path fill="none" stroke="midnightblue" d="M674.89,-318.34C617.38,-308.24 522.08,-291.48 440,-277 424.53,-274.27 407.43,-271.25 392.86,-268.67"/>
<polygon fill="midnightblue" stroke="midnightblue" points="393.22,-265.18 382.76,-266.88 392,-272.07 393.22,-265.18"/>
</g>
<!-- Node20&#45;&gt;Node18 -->
<g id="edge27" class="edge">
<title>Node20&#45;&gt;Node18</title>
<path fill="none" stroke="midnightblue" d="M238.01,-317.2C294.05,-305.18 386.28,-285.39 443.12,-273.2"/>
<polygon fill="midnightblue" stroke="midnightblue" points="443.91,-276.61 452.95,-271.09 442.44,-269.77 443.91,-276.61"/>
</g>
<!-- Node20&#45;&gt;Node21 -->
<g id="edge28" class="edge">
<title>Node20&#45;&gt;Node21</title>
<path fill="none" stroke="midnightblue" d="M192.6,-313.4C194.05,-305.56 195.89,-295.6 197.56,-286.57"/>
<polygon fill="midnightblue" stroke="midnightblue" points="201.03,-287.05 199.4,-276.58 194.14,-285.77 201.03,-287.05"/>
</g>
<!-- Node21&#45;&gt;Node8 -->
<g id="edge29" class="edge">
<title>Node21&#45;&gt;Node8</title>
<path fill="none" stroke="midnightblue" d="M248.83,-248.82C286.21,-239.22 339.79,-224.82 386,-210 505.97,-171.51 530.24,-144.39 652,-112 724.13,-92.81 809.48,-80.12 863.92,-73.24"/>
<polygon fill="midnightblue" stroke="midnightblue" points="864.56,-76.69 874.05,-71.98 863.69,-69.74 864.56,-76.69"/>
</g>
<!-- Node21&#45;&gt;Node22 -->
<g id="edge30" class="edge">
<title>Node21&#45;&gt;Node22</title>
<path fill="none" stroke="midnightblue" d="M185.73,-246.4C173.68,-235.96 157.29,-221.75 144.88,-211"/>
<polygon fill="midnightblue" stroke="midnightblue" points="146.88,-208.1 137.03,-204.19 142.3,-213.39 146.88,-208.1"/>
</g>
<!-- Node23 -->
<g id="node23" class="node">
<title>Node23</title>
<g id="a_node23"><a xlink:title=" ">
<polygon fill="none" stroke="#bfbfbf" points="275,-179.5 275,-209.5 377,-209.5 377,-179.5 275,-179.5"/>
<text text-anchor="start" x="283" y="-197.5" font-family="Helvetica,sans-Serif" font-size="10.00">yaclib_std/condition</text>
<text text-anchor="middle" x="326" y="-186.5" font-family="Helvetica,sans-Serif" font-size="10.00">_variable</text>
</a>
</g>
</g>
<!-- Node21&#45;&gt;Node23 -->
<g id="edge31" class="edge">
<title>Node21&#45;&gt;Node23</title>
<path fill="none" stroke="midnightblue" d="M228.91,-246.4C246.86,-236.98 270.67,-224.5 290.22,-214.26"/>
<polygon fill="midnightblue" stroke="midnightblue" points="291.91,-217.32 299.15,-209.58 288.66,-211.12 291.91,-217.32"/>
</g>
<!-- Node24 -->
<g id="node24" class="node">
<title>Node24</title>
<g id="a_node24"><a xlink:title=" ">
<polygon fill="none" stroke="#bfbfbf" points="168.5,-185 168.5,-204 257.5,-204 257.5,-185 168.5,-185"/>
<text text-anchor="middle" x="213" y="-192" font-family="Helvetica,sans-Serif" font-size="10.00">yaclib_std/mutex</text>
</a>
</g>
</g>
<!-- Node21&#45;&gt;Node24 -->
<g id="edge32" class="edge">
<title>Node21&#45;&gt;Node24</title>
<path fill="none" stroke="midnightblue" d="M204.39,-246.4C205.98,-236.96 208.1,-224.45 209.84,-214.19"/>
<polygon fill="midnightblue" stroke="midnightblue" points="213.31,-214.64 211.53,-204.19 206.41,-213.47 213.31,-214.64"/>
</g>
<!-- Node26&#45;&gt;Node9 -->
<g id="edge40" class="edge">
<title>Node26&#45;&gt;Node9</title>
<path fill="none" stroke="midnightblue" d="M603.89,-251.89C591.72,-243.04 574.42,-228.03 567,-210 549.6,-167.69 566.7,-112.95 577.93,-85.07"/>
<polygon fill="midnightblue" stroke="midnightblue" points="581.19,-86.35 581.86,-75.77 574.74,-83.62 581.19,-86.35"/>
</g>
<!-- Node27 -->
<g id="node27" class="node">
<title>Node27</title>
<g id="a_node27"><a xlink:href="fwd_8hpp.html" target="_top" xlink:title=" ">
<polygon fill="none" stroke="black" points="661,-118 661,-137 739,-137 739,-118 661,-118"/>
<text text-anchor="middle" x="700" y="-125" font-family="Helvetica,sans-Serif" font-size="10.00">yaclib/fwd.hpp</text>
</a>
</g>
</g>
<!-- Node26&#45;&gt;Node27 -->
<g id="edge35" class="edge">
<title>Node26&#45;&gt;Node27</title>
<path fill="none" stroke="midnightblue" d="M638.38,-251.98C655.64,-243.9 678.99,-230 691,-210 702.49,-190.88 703.28,-164.64 702.17,-147.15"/>
<polygon fill="midnightblue" stroke="midnightblue" points="705.65,-146.73 701.26,-137.09 698.68,-147.36 705.65,-146.73"/>
</g>
<!-- Node28 -->
<g id="node28" class="node">
<title>Node28</title>
<g id="a_node28"><a xlink:href="type__traits__impl_8hpp.html" target="_top" xlink:title=" ">
<polygon fill="none" stroke="black" points="576,-179.5 576,-209.5 682,-209.5 682,-179.5 576,-179.5"/>
<text text-anchor="start" x="584" y="-197.5" font-family="Helvetica,sans-Serif" font-size="10.00">yaclib/util/detail</text>
<text text-anchor="middle" x="629" y="-186.5" font-family="Helvetica,sans-Serif" font-size="10.00">/type_traits_impl.hpp</text>
</a>
</g>
</g>
<!-- Node26&#45;&gt;Node28 -->
<g id="edge36" class="edge">
<title>Node26&#45;&gt;Node28</title>
<path fill="none" stroke="midnightblue" d="M618.62,-251.73C620.13,-243.54 622.46,-230.92 624.53,-219.71"/>
<polygon fill="midnightblue" stroke="midnightblue" points="628.03,-220.06 626.4,-209.59 621.14,-218.79 628.03,-220.06"/>
</g>
<!-- Node29 -->
<g id="node29" class="node">
<title>Node29</title>
<g id="a_node29"><a xlink:title=" ">
<polygon fill="none" stroke="#bfbfbf" points="839,-185 839,-204 897,-204 897,-185 839,-185"/>
<text text-anchor="middle" x="868" y="-192" font-family="Helvetica,sans-Serif" font-size="10.00">exception</text>
</a>
</g>
</g>
<!-- Node26&#45;&gt;Node29 -->
<g id="edge39" class="edge">
<title>Node26&#45;&gt;Node29</title>
<path fill="none" stroke="midnightblue" d="M650.07,-251.94C696.18,-240 779.64,-218.38 828.81,-205.65"/>
<polygon fill="midnightblue" stroke="midnightblue" points="829.95,-208.97 838.76,-203.07 828.2,-202.19 829.95,-208.97"/>
</g>
<!-- Node28&#45;&gt;Node9 -->
<g id="edge38" class="edge">
<title>Node28&#45;&gt;Node9</title>
<path fill="none" stroke="midnightblue" d="M624.23,-179.48C616.43,-156.51 600.92,-110.89 592.24,-85.37"/>
<polygon fill="midnightblue" stroke="midnightblue" points="595.52,-84.13 588.99,-75.79 588.89,-86.38 595.52,-84.13"/>
</g>
<!-- Node28&#45;&gt;Node27 -->
<g id="edge37" class="edge">
<title>Node28&#45;&gt;Node27</title>
<path fill="none" stroke="midnightblue" d="M644.41,-179.4C655.81,-168.96 671.33,-154.75 683.07,-144"/>
<polygon fill="midnightblue" stroke="midnightblue" points="685.49,-146.53 690.5,-137.19 680.76,-141.37 685.49,-146.53"/>
</g>
<!-- Node31&#45;&gt;Node11 -->
<g id="edge54" class="edge">
<title>Node31&#45;&gt;Node11</title>
<path fill="none" stroke="midnightblue" d="M792.21,-585.33C910.75,-574.2 1169,-541.07 1169,-463.5 1169,-463.5 1169,-463.5 1169,-394.5 1169,-354.16 1169,-306.88 1169,-281.28"/>
<polygon fill="midnightblue" stroke="midnightblue" points="1172.5,-281.15 1169,-271.15 1165.5,-281.15 1172.5,-281.15"/>
</g>
<!-- Node31&#45;&gt;Node26 -->
<g id="edge58" class="edge">
<title>Node31&#45;&gt;Node26</title>
<path fill="none" stroke="midnightblue" d="M730.87,-581.24C715.2,-537.39 645.19,-341.4 623.45,-280.57"/>
<polygon fill="midnightblue" stroke="midnightblue" points="626.75,-279.37 620.08,-271.13 620.15,-281.73 626.75,-279.37"/>
</g>
<!-- Node32 -->
<g id="node32" class="node">
<title>Node32</title>
<g id="a_node32"><a xlink:href="result__core_8hpp.html" target="_top" xlink:title=" ">
<polygon fill="none" stroke="black" points="1031,-380.5 1031,-410.5 1127,-410.5 1127,-380.5 1031,-380.5"/>
<text text-anchor="start" x="1039" y="-398.5" font-family="Helvetica,sans-Serif" font-size="10.00">yaclib/async/detail</text>
<text text-anchor="middle" x="1079" y="-387.5" font-family="Helvetica,sans-Serif" font-size="10.00">/result_core.hpp</text>
</a>
</g>
</g>
<!-- Node31&#45;&gt;Node32 -->
<g id="edge45" class="edge">
<title>Node31&#45;&gt;Node32</title>
<path fill="none" stroke="midnightblue" d="M767.86,-581.43C795.39,-573.79 834.81,-561.3 867,-545 940.05,-508.01 1016.52,-448.44 1054.53,-417.18"/>
<polygon fill="midnightblue" stroke="midnightblue" points="1057.01,-419.67 1062.47,-410.59 1052.54,-414.28 1057.01,-419.67"/>
</g>
<!-- Node35 -->
<g id="node35" class="node">
<title>Node35</title>
<g id="a_node35"><a xlink:href="helper_8hpp.html" target="_top" xlink:title=" ">
<polygon fill="none" stroke="black" points="754,-386 754,-405 858,-405 858,-386 754,-386"/>
<text text-anchor="middle" x="806" y="-393" font-family="Helvetica,sans-Serif" font-size="10.00">yaclib/util/helper.hpp</text>
</a>
</g>
</g>
<!-- Node31&#45;&gt;Node35 -->
<g id="edge55" class="edge">
<title>Node31&#45;&gt;Node35</title>
<path fill="none" stroke="midnightblue" d="M733.24,-581.37C731.57,-558.18 729.48,-493.2 753,-447 760.26,-432.74 773.2,-420.29 784.47,-411.32"/>
<polygon fill="midnightblue" stroke="midnightblue" points="786.76,-413.98 792.65,-405.17 782.56,-408.38 786.76,-413.98"/>
</g>
<!-- Node36 -->
<g id="node36" class="node">
<title>Node36</title>
<g id="a_node36"><a xlink:href="future__impl_8hpp.html" target="_top" xlink:title=" ">
<polygon fill="none" stroke="black" points="762,-514.5 762,-544.5 858,-544.5 858,-514.5 762,-514.5"/>
<text text-anchor="start" x="770" y="-532.5" font-family="Helvetica,sans-Serif" font-size="10.00">yaclib/async/detail</text>
<text text-anchor="middle" x="810" y="-521.5" font-family="Helvetica,sans-Serif" font-size="10.00">/future_impl.hpp</text>
</a>
</g>
</g>
<!-- Node31&#45;&gt;Node36 -->
<g id="edge59" class="edge">
<title>Node31&#45;&gt;Node36</title>
<path fill="none" stroke="midnightblue" d="M744.89,-581.48C755.09,-573.49 770.72,-561.25 784.11,-550.77"/>
<polygon fill="midnightblue" stroke="midnightblue" points="786.37,-553.44 792.09,-544.52 782.06,-547.93 786.37,-553.44"/>
</g>
<!-- Node32&#45;&gt;Node3 -->
<g id="edge46" class="edge">
<title>Node32&#45;&gt;Node3</title>
<path fill="none" stroke="midnightblue" d="M1062.51,-380.4C1052.15,-371.54 1038.62,-359.96 1027.07,-350.09"/>
<polygon fill="midnightblue" stroke="midnightblue" points="1029.33,-347.42 1019.46,-343.58 1024.78,-352.74 1029.33,-347.42"/>
</g>
<!-- Node32&#45;&gt;Node4 -->
<g id="edge47" class="edge">
<title>Node32&#45;&gt;Node4</title>
<path fill="none" stroke="midnightblue" d="M1103.19,-380.37C1143.97,-356.56 1226.43,-308.39 1272.32,-281.59"/>
<polygon fill="midnightblue" stroke="midnightblue" points="1274.12,-284.59 1280.99,-276.52 1270.59,-278.55 1274.12,-284.59"/>
</g>
<!-- Node32&#45;&gt;Node10 -->
<g id="edge53" class="edge">
<title>Node32&#45;&gt;Node10</title>
<path fill="none" stroke="midnightblue" d="M1127.19,-394.44C1212.45,-391.53 1381,-371.93 1381,-262.5 1381,-262.5 1381,-262.5 1381,-193.5 1381,-153.9 1376.15,-136.45 1345,-112 1310.72,-85.1 1181.45,-73.05 1122.11,-68.85"/>
<polygon fill="midnightblue" stroke="midnightblue" points="1122.1,-65.34 1111.88,-68.16 1121.62,-72.33 1122.1,-65.34"/>
</g>
<!-- Node32&#45;&gt;Node12 -->
<g id="edge48" class="edge">
<title>Node32&#45;&gt;Node12</title>
<path fill="none" stroke="midnightblue" d="M1075.69,-380.19C1067.88,-346.41 1048.24,-261.44 1038.56,-219.57"/>
<polygon fill="midnightblue" stroke="midnightblue" points="1041.94,-218.64 1036.28,-209.68 1035.12,-220.21 1041.94,-218.64"/>
</g>
<!-- Node33 -->
<g id="node33" class="node">
<title>Node33</title>
<g id="a_node33"><a xlink:href="result_8hpp.html" target="_top" xlink:title=" ">
<polygon fill="none" stroke="black" points="835,-319 835,-338 937,-338 937,-319 835,-319"/>
<text text-anchor="middle" x="886" y="-326" font-family="Helvetica,sans-Serif" font-size="10.00">yaclib/util/result.hpp</text>
</a>
</g>
</g>
<!-- Node32&#45;&gt;Node33 -->
<g id="edge49" class="edge">
<title>Node32&#45;&gt;Node33</title>
<path fill="none" stroke="midnightblue" d="M1037.12,-380.4C1002.36,-368.69 953.49,-352.23 920.84,-341.23"/>
<polygon fill="midnightblue" stroke="midnightblue" points="921.85,-337.88 911.26,-338.01 919.62,-344.52 921.85,-337.88"/>
</g>
<!-- Node33&#45;&gt;Node26 -->
<g id="edge50" class="edge">
<title>Node33&#45;&gt;Node26</title>
<path fill="none" stroke="midnightblue" d="M850.56,-318.94C802.17,-307.24 715.41,-286.28 662.34,-273.46"/>
<polygon fill="midnightblue" stroke="midnightblue" points="663.06,-270.03 652.52,-271.08 661.42,-276.83 663.06,-270.03"/>
</g>
<!-- Node33&#45;&gt;Node29 -->
<g id="edge51" class="edge">
<title>Node33&#45;&gt;Node29</title>
<path fill="none" stroke="midnightblue" d="M884.82,-318.84C881.93,-297.67 874.47,-242.95 870.53,-214.03"/>
<polygon fill="midnightblue" stroke="midnightblue" points="873.98,-213.46 869.16,-204.02 867.05,-214.4 873.98,-213.46"/>
</g>
<!-- Node34 -->
<g id="node34" class="node">
<title>Node34</title>
<g id="a_node34"><a xlink:title=" ">
<polygon fill="none" stroke="#bfbfbf" points="921,-252 921,-271 967,-271 967,-252 921,-252"/>
<text text-anchor="middle" x="944" y="-259" font-family="Helvetica,sans-Serif" font-size="10.00">variant</text>
</a>
</g>
</g>
<!-- Node33&#45;&gt;Node34 -->
<g id="edge52" class="edge">
<title>Node33&#45;&gt;Node34</title>
<path fill="none" stroke="midnightblue" d="M893.82,-318.73C902.95,-308.5 918.24,-291.36 929.55,-278.69"/>
<polygon fill="midnightblue" stroke="midnightblue" points="932.26,-280.92 936.3,-271.13 927.03,-276.26 932.26,-280.92"/>
</g>
<!-- Node35&#45;&gt;Node12 -->
<g id="edge57" class="edge">
<title>Node35&#45;&gt;Node12</title>
<path fill="none" stroke="midnightblue" d="M805.12,-385.61C803.38,-370.27 798.68,-338.06 788,-313 780.46,-295.31 769.57,-295.4 764,-277 760.01,-263.81 755.2,-256.6 764,-246 777.33,-229.93 899.12,-212.13 974.18,-202.54"/>
<polygon fill="midnightblue" stroke="midnightblue" points="974.96,-205.97 984.45,-201.25 974.09,-199.03 974.96,-205.97"/>
</g>
<!-- Node35&#45;&gt;Node17 -->
<g id="edge56" class="edge">
<title>Node35&#45;&gt;Node17</title>
<path fill="none" stroke="midnightblue" d="M795.35,-385.73C784.26,-376.61 766.5,-362 751.87,-349.96"/>
<polygon fill="midnightblue" stroke="midnightblue" points="754.07,-347.24 744.12,-343.59 749.62,-352.65 754.07,-347.24"/>
</g>
<!-- Node36&#45;&gt;Node14 -->
<g id="edge69" class="edge">
<title>Node36&#45;&gt;Node14</title>
<path fill="none" stroke="midnightblue" d="M858.04,-529.3C1001.85,-528.97 1419,-506.95 1419,-262.5 1419,-262.5 1419,-262.5 1419,-193.5 1419,-139.66 1361.05,-99.75 1325.36,-80.28"/>
<polygon fill="midnightblue" stroke="midnightblue" points="1326.86,-77.12 1316.38,-75.56 1323.6,-83.31 1326.86,-77.12"/>
</g>
<!-- Node36&#45;&gt;Node33 -->
<g id="edge70" class="edge">
<title>Node36&#45;&gt;Node33</title>
<path fill="none" stroke="midnightblue" d="M832.57,-514.47C844.84,-505.58 859.09,-492.96 867,-478 889.31,-435.81 889.39,-377.74 887.65,-348.28"/>
<polygon fill="midnightblue" stroke="midnightblue" points="891.13,-347.88 886.91,-338.16 884.15,-348.39 891.13,-347.88"/>
</g>
<!-- Node37 -->
<g id="node37" class="node">
<title>Node37</title>
<g id="a_node37"><a xlink:href="wait_8hpp.html" target="_top" xlink:title=" ">
<polygon fill="none" stroke="black" points="461.5,-453 461.5,-472 562.5,-472 562.5,-453 461.5,-453"/>
<text text-anchor="middle" x="512" y="-460" font-family="Helvetica,sans-Serif" font-size="10.00">yaclib/algo/wait.hpp</text>
</a>
</g>
</g>
<!-- Node36&#45;&gt;Node37 -->
<g id="edge60" class="edge">
<title>Node36&#45;&gt;Node37</title>
<path fill="none" stroke="midnightblue" d="M761.79,-517.98C706.58,-505.94 616.62,-486.32 561.06,-474.2"/>
<polygon fill="midnightblue" stroke="midnightblue" points="561.62,-470.74 551.1,-472.03 560.13,-477.58 561.62,-470.74"/>
</g>
<!-- Node38 -->
<g id="node38" class="node">
<title>Node38</title>
<g id="a_node38"><a xlink:href="core_8hpp.html" target="_top" xlink:title=" ">
<polygon fill="none" stroke="black" points="762,-447.5 762,-477.5 858,-477.5 858,-447.5 762,-447.5"/>
<text text-anchor="start" x="770" y="-465.5" font-family="Helvetica,sans-Serif" font-size="10.00">yaclib/async/detail</text>
<text text-anchor="middle" x="810" y="-454.5" font-family="Helvetica,sans-Serif" font-size="10.00">/core.hpp</text>
</a>
</g>
</g>
<!-- Node36&#45;&gt;Node38 -->
<g id="edge66" class="edge">
<title>Node36&#45;&gt;Node38</title>
<path fill="none" stroke="midnightblue" d="M810,-514.4C810,-506.64 810,-496.81 810,-487.86"/>
<polygon fill="midnightblue" stroke="midnightblue" points="813.5,-487.58 810,-477.58 806.5,-487.58 813.5,-487.58"/>
</g>
<!-- Node37&#45;&gt;Node2 -->
<g id="edge61" class="edge">
<title>Node37&#45;&gt;Node2</title>
<path fill="none" stroke="midnightblue" d="M492.48,-452.87C470.52,-443.16 434.22,-427.11 405.97,-414.61"/>
<polygon fill="midnightblue" stroke="midnightblue" points="407.29,-411.37 396.73,-410.53 404.46,-417.77 407.29,-411.37"/>
</g>
<!-- Node37&#45;&gt;Node18 -->
<g id="edge63" class="edge">
<title>Node37&#45;&gt;Node18</title>
<path fill="none" stroke="midnightblue" d="M512.69,-452.72C514.32,-429.63 517.65,-365.41 509,-313 507.19,-302.06 503.54,-290.21 500.18,-280.75"/>
<polygon fill="midnightblue" stroke="midnightblue" points="503.4,-279.39 496.62,-271.25 496.85,-281.84 503.4,-279.39"/>
</g>
<!-- Node37&#45;&gt;Node19 -->
<g id="edge65" class="edge">
<title>Node37&#45;&gt;Node19</title>
<path fill="none" stroke="midnightblue" d="M512.34,-452.96C512.87,-428.22 511.1,-355.54 475,-313 454.15,-288.43 419.14,-275.47 392.85,-268.86"/>
<polygon fill="midnightblue" stroke="midnightblue" points="393.42,-265.4 382.89,-266.56 391.84,-272.22 393.42,-265.4"/>
</g>
<!-- Node37&#45;&gt;Node20 -->
<g id="edge64" class="edge">
<title>Node37&#45;&gt;Node20</title>
<path fill="none" stroke="midnightblue" d="M461.25,-453.78C419.62,-446.27 359.8,-432.76 311,-411 275.15,-395.02 238.37,-368.52 214.91,-350.09"/>
<polygon fill="midnightblue" stroke="midnightblue" points="216.9,-347.2 206.9,-343.7 212.54,-352.68 216.9,-347.2"/>
</g>
<!-- Node37&#45;&gt;Node31 -->
<g id="edge62" class="edge">
<title>Node37&#45;&gt;Node31</title>
<path fill="none" stroke="midnightblue" d="M526.77,-472.15C552.39,-487.12 606.75,-518.79 653,-545 671.95,-555.74 693.52,-567.71 709.63,-576.6"/>
<polygon fill="midnightblue" stroke="midnightblue" points="707.98,-579.69 718.43,-581.45 711.36,-573.56 707.98,-579.69"/>
</g>
<!-- Node38&#45;&gt;Node17 -->
<g id="edge68" class="edge">
<title>Node38&#45;&gt;Node17</title>
<path fill="none" stroke="midnightblue" d="M784.18,-447.43C770.52,-438.69 754.62,-426.22 745,-411 734.14,-393.82 729.77,-371 728.05,-353.87"/>
<polygon fill="midnightblue" stroke="midnightblue" points="731.51,-353.26 727.26,-343.56 724.53,-353.8 731.51,-353.26"/>
</g>
<!-- Node38&#45;&gt;Node32 -->
<g id="edge67" class="edge">
<title>Node38&#45;&gt;Node32</title>
<path fill="none" stroke="midnightblue" d="M858.09,-449.88C903.76,-438.84 972.47,-422.24 1021.12,-410.49"/>
<polygon fill="midnightblue" stroke="midnightblue" points="1021.97,-413.88 1030.87,-408.13 1020.33,-407.08 1021.97,-413.88"/>
</g>
</g>
</svg>
