<?xml version="1.0" encoding="UTF-8" standalone="no"?>
<!DOCTYPE svg PUBLIC "-//W3C//DTD SVG 1.1//EN"
 "http://www.w3.org/Graphics/SVG/1.1/DTD/svg11.dtd">
<!-- Generated by graphviz version 3.0.0 (20220413.0106)
 -->
<!-- Title: include/yaclib/algo/detail/wait_impl.hpp Pages: 1 -->
<!--zoomable 441 -->
<svg id="main" version="1.1" xmlns="http://www.w3.org/2000/svg" xmlns:xlink="http://www.w3.org/1999/xlink" xml:space="preserve" onload="init(evt)">
<style type="text/css"><![CDATA[
.edge:hover path { stroke: red; }
.edge:hover polygon { stroke: red; fill: red; }
]]></style>
<script type="text/javascript"><![CDATA[
var edges = document.getElementsByTagName('g');
if (edges && edges.length) {
  for (var i=0;i<edges.length;i++) {
    if (edges[i].id.substr(0,4)=='edge') {
      edges[i].setAttribute('class','edge');
    }
  }
}
]]></script>
        <defs>
                <circle id="rim" cx="0" cy="0" r="7"/>
                <circle id="rim2" cx="0" cy="0" r="3.5"/>
                <g id="zoomPlus">
                        <use xlink:href="#rim" fill="#404040">
                                <set attributeName="fill" to="#808080" begin="zoomplus.mouseover" end="zoomplus.mouseout"/>
                        </use>
                        <path d="M-4,0h8M0,-4v8" fill="none" stroke="white" stroke-width="1.5" pointer-events="none"/>
                </g>
                <g id="zoomMin">
                        <use xlink:href="#rim" fill="#404040">
                                <set attributeName="fill" to="#808080" begin="zoomminus.mouseover" end="zoomminus.mouseout"/>
                        </use>
                        <path d="M-4,0h8" fill="none" stroke="white" stroke-width="1.5" pointer-events="none"/>
                </g>
                <g id="dirArrow">
                        <path fill="none" stroke="white" stroke-width="1.5" d="M0,-3.0v7 M-2.5,-0.5L0,-3.0L2.5,-0.5"/>
                </g>
               <g id="resetDef">
                       <use xlink:href="#rim2" fill="#404040">
                               <set attributeName="fill" to="#808080" begin="reset.mouseover" end="reset.mouseout"/>
                       </use>
               </g>
        </defs>

<script type="text/javascript">
var viewWidth = 1275;
var viewHeight = 441;
var sectionId = 'dynsection-1';
</script>
<script xlink:href="svgpan.js"/>
<svg id="graph" class="graph">
<g id="viewport">
<title>include/yaclib/algo/detail/wait_impl.hpp</title>
<!-- Node1 -->
<g id="node1" class="node">
<title>Node1</title>
<g id="a_node1"><a xlink:title=" ">
<polygon fill="#bfbfbf" stroke="black" points="1053.93,-402.5 1053.93,-432.5 1158.93,-432.5 1158.93,-402.5 1053.93,-402.5"/>
<text text-anchor="start" x="1061.93" y="-420.5" font-family="Helvetica,sans-Serif" font-size="10.00">include/yaclib/algo</text>
<text text-anchor="middle" x="1106.43" y="-409.5" font-family="Helvetica,sans-Serif" font-size="10.00">/detail/wait_impl.hpp</text>
</a>
</g>
</g>
<!-- Node2 -->
<g id="node2" class="node">
<title>Node2</title>
<g id="a_node2"><a xlink:href="wait_8hpp.html" target="_top" xlink:title=" ">
<polygon fill="none" stroke="black" points="609.43,-335.5 609.43,-365.5 705.43,-365.5 705.43,-335.5 609.43,-335.5"/>
<text text-anchor="start" x="617.43" y="-353.5" font-family="Helvetica,sans-Serif" font-size="10.00">include/yaclib/algo</text>
<text text-anchor="middle" x="657.43" y="-342.5" font-family="Helvetica,sans-Serif" font-size="10.00">/wait.hpp</text>
</a>
</g>
</g>
<!-- Node1&#45;&gt;Node2 -->
<g id="edge1" class="edge">
<title>Node1&#45;&gt;Node2</title>
<path fill="none" stroke="midnightblue" d="M1043.46,-407.38C952.75,-394.25 787.27,-370.3 705.62,-358.48"/>
<polygon fill="midnightblue" stroke="midnightblue" points="1043.21,-410.88 1053.6,-408.85 1044.21,-403.96 1043.21,-410.88"/>
</g>
<!-- Node10 -->
<g id="node10" class="node">
<title>Node10</title>
<g id="a_node10"><a xlink:href="wait__for_8hpp.html" target="_top" xlink:title=" ">
<polygon fill="none" stroke="black" points="1039.43,-134.5 1039.43,-164.5 1135.43,-164.5 1135.43,-134.5 1039.43,-134.5"/>
<text text-anchor="start" x="1047.43" y="-152.5" font-family="Helvetica,sans-Serif" font-size="10.00">include/yaclib/algo</text>
<text text-anchor="middle" x="1087.43" y="-141.5" font-family="Helvetica,sans-Serif" font-size="10.00">/wait_for.hpp</text>
</a>
</g>
</g>
<!-- Node1&#45;&gt;Node10 -->
<g id="edge29" class="edge">
<title>Node1&#45;&gt;Node10</title>
<path fill="none" stroke="midnightblue" d="M1104.69,-392.07C1100.79,-337.57 1091.5,-207.52 1088.43,-164.55"/>
<polygon fill="midnightblue" stroke="midnightblue" points="1101.21,-392.47 1105.41,-402.2 1108.19,-391.97 1101.21,-392.47"/>
</g>
<!-- Node13 -->
<g id="node13" class="node">
<title>Node13</title>
<g id="a_node13"><a xlink:href="wait__until_8hpp.html" target="_top" xlink:title=" ">
<polygon fill="none" stroke="black" points="1153.43,-134.5 1153.43,-164.5 1249.43,-164.5 1249.43,-134.5 1153.43,-134.5"/>
<text text-anchor="start" x="1161.43" y="-152.5" font-family="Helvetica,sans-Serif" font-size="10.00">include/yaclib/algo</text>
<text text-anchor="middle" x="1201.43" y="-141.5" font-family="Helvetica,sans-Serif" font-size="10.00">/wait_until.hpp</text>
</a>
</g>
</g>
<!-- Node1&#45;&gt;Node13 -->
<g id="edge30" class="edge">
<title>Node1&#45;&gt;Node13</title>
<path fill="none" stroke="midnightblue" d="M1114.92,-392.74C1134.23,-338.66 1181,-207.7 1196.41,-164.55"/>
<polygon fill="midnightblue" stroke="midnightblue" points="1111.61,-391.6 1111.54,-402.2 1118.2,-393.96 1111.61,-391.6"/>
</g>
<!-- Node22 -->
<g id="node22" class="node">
<title>Node22</title>
<g id="a_node22"><a xlink:href="wait__impl_8cpp.html" target="_top" xlink:title=" ">
<polygon fill="none" stroke="black" points="1153.93,-341 1153.93,-360 1266.93,-360 1266.93,-341 1153.93,-341"/>
<text text-anchor="middle" x="1210.43" y="-348" font-family="Helvetica,sans-Serif" font-size="10.00">src/algo/wait_impl.cpp</text>
</a>
</g>
</g>
<!-- Node1&#45;&gt;Node22 -->
<g id="edge31" class="edge">
<title>Node1&#45;&gt;Node22</title>
<path fill="none" stroke="midnightblue" d="M1137.67,-396.97C1157.39,-384.65 1181.88,-369.35 1196.82,-360.01"/>
<polygon fill="midnightblue" stroke="midnightblue" points="1135.62,-394.13 1129,-402.4 1139.33,-400.06 1135.62,-394.13"/>
</g>
<!-- Node3 -->
<g id="node3" class="node">
<title>Node3</title>
<g id="a_node3"><a xlink:href="future__impl_8hpp.html" target="_top" xlink:title=" ">
<polygon fill="none" stroke="black" points="517.43,-268.5 517.43,-298.5 629.43,-298.5 629.43,-268.5 517.43,-268.5"/>
<text text-anchor="start" x="525.43" y="-286.5" font-family="Helvetica,sans-Serif" font-size="10.00">include/yaclib/async</text>
<text text-anchor="middle" x="573.43" y="-275.5" font-family="Helvetica,sans-Serif" font-size="10.00">/detail/future_impl.hpp</text>
</a>
</g>
</g>
<!-- Node2&#45;&gt;Node3 -->
<g id="edge2" class="edge">
<title>Node2&#45;&gt;Node3</title>
<path fill="none" stroke="midnightblue" d="M631.16,-329.17C618.31,-319.23 603.17,-307.51 591.62,-298.58"/>
<polygon fill="midnightblue" stroke="midnightblue" points="629.15,-332.04 639.2,-335.4 633.44,-326.51 629.15,-332.04"/>
</g>
<!-- Node4 -->
<g id="node4" class="node">
<title>Node4</title>
<g id="a_node4"><a xlink:href="future_8hpp.html" target="_top" xlink:title=" ">
<polygon fill="none" stroke="black" points="521.43,-201.5 521.43,-231.5 625.43,-231.5 625.43,-201.5 521.43,-201.5"/>
<text text-anchor="start" x="529.43" y="-219.5" font-family="Helvetica,sans-Serif" font-size="10.00">include/yaclib/async</text>
<text text-anchor="middle" x="573.43" y="-208.5" font-family="Helvetica,sans-Serif" font-size="10.00">/future.hpp</text>
</a>
</g>
</g>
<!-- Node3&#45;&gt;Node4 -->
<g id="edge3" class="edge">
<title>Node3&#45;&gt;Node4</title>
<path fill="none" stroke="midnightblue" d="M573.43,-258.11C573.43,-249.15 573.43,-239.32 573.43,-231.58"/>
<polygon fill="midnightblue" stroke="midnightblue" points="569.93,-258.4 573.43,-268.4 576.93,-258.4 569.93,-258.4"/>
</g>
<!-- Node4&#45;&gt;Node2 -->
<g id="edge9" class="edge">
<title>Node4&#45;&gt;Node2</title>
<path fill="none" stroke="midnightblue" d="M607.7,-237.4C619.02,-245.54 630.69,-255.92 638.43,-268 651.83,-288.92 655.81,-318.26 656.97,-335.43"/>
<polygon fill="midnightblue" stroke="midnightblue" points="609.42,-234.33 599.18,-231.61 605.49,-240.13 609.42,-234.33"/>
</g>
<!-- Node5 -->
<g id="node5" class="node">
<title>Node5</title>
<g id="a_node5"><a xlink:href="when__impl_8hpp.html" target="_top" xlink:title=" ">
<polygon fill="none" stroke="black" points="297.43,-134.5 297.43,-164.5 407.43,-164.5 407.43,-134.5 297.43,-134.5"/>
<text text-anchor="start" x="305.43" y="-152.5" font-family="Helvetica,sans-Serif" font-size="10.00">include/yaclib/algo</text>
<text text-anchor="middle" x="352.43" y="-141.5" font-family="Helvetica,sans-Serif" font-size="10.00">/detail/when_impl.hpp</text>
</a>
</g>
</g>
<!-- Node4&#45;&gt;Node5 -->
<g id="edge4" class="edge">
<title>Node4&#45;&gt;Node5</title>
<path fill="none" stroke="midnightblue" d="M515.9,-198.58C480.01,-188.02 434.34,-174.59 400.41,-164.61"/>
<polygon fill="midnightblue" stroke="midnightblue" points="515.17,-202.01 525.75,-201.48 517.14,-195.3 515.17,-202.01"/>
</g>
<!-- Node6 -->
<g id="node6" class="node">
<title>Node6</title>
<g id="a_node6"><a xlink:href="when__all_8hpp.html" target="_top" xlink:title=" ">
<polygon fill="none" stroke="black" points="336.43,-67.5 336.43,-97.5 432.43,-97.5 432.43,-67.5 336.43,-67.5"/>
<text text-anchor="start" x="344.43" y="-85.5" font-family="Helvetica,sans-Serif" font-size="10.00">include/yaclib/algo</text>
<text text-anchor="middle" x="384.43" y="-74.5" font-family="Helvetica,sans-Serif" font-size="10.00">/when_all.hpp</text>
</a>
</g>
</g>
<!-- Node4&#45;&gt;Node6 -->
<g id="edge14" class="edge">
<title>Node4&#45;&gt;Node6</title>
<path fill="none" stroke="midnightblue" d="M517.62,-197.92C496.67,-189.8 473.36,-178.84 454.43,-165 428.38,-145.96 405.57,-115.43 393.52,-97.64"/>
<polygon fill="midnightblue" stroke="midnightblue" points="516.46,-201.22 527.06,-201.45 518.92,-194.66 516.46,-201.22"/>
</g>
<!-- Node8 -->
<g id="node8" class="node">
<title>Node8</title>
<g id="a_node8"><a xlink:href="when__any_8hpp.html" target="_top" xlink:title=" ">
<polygon fill="none" stroke="black" points="222.43,-67.5 222.43,-97.5 318.43,-97.5 318.43,-67.5 222.43,-67.5"/>
<text text-anchor="start" x="230.43" y="-85.5" font-family="Helvetica,sans-Serif" font-size="10.00">include/yaclib/algo</text>
<text text-anchor="middle" x="270.43" y="-74.5" font-family="Helvetica,sans-Serif" font-size="10.00">/when_any.hpp</text>
</a>
</g>
</g>
<!-- Node4&#45;&gt;Node8 -->
<g id="edge15" class="edge">
<title>Node4&#45;&gt;Node8</title>
<path fill="none" stroke="midnightblue" d="M511.17,-212.39C437.11,-207.38 319.56,-194.85 288.43,-165 270.13,-147.45 268.44,-115.81 269.2,-97.54"/>
<polygon fill="midnightblue" stroke="midnightblue" points="511.11,-215.89 521.32,-213.05 511.56,-208.91 511.11,-215.89"/>
</g>
<!-- Node4&#45;&gt;Node10 -->
<g id="edge10" class="edge">
<title>Node4&#45;&gt;Node10</title>
<path fill="none" stroke="midnightblue" d="M635.63,-211.38C723.94,-204.91 890.48,-190.41 1030.43,-165 1033.34,-164.47 1036.33,-163.88 1039.33,-163.24"/>
<polygon fill="midnightblue" stroke="midnightblue" points="635.24,-207.9 625.51,-212.11 635.74,-214.88 635.24,-207.9"/>
</g>
<!-- Node11 -->
<g id="node11" class="node">
<title>Node11</title>
<g id="a_node11"><a xlink:href="wait__group_8hpp.html" target="_top" xlink:title=" ">
<polygon fill="none" stroke="black" points="463.43,-134.5 463.43,-164.5 559.43,-164.5 559.43,-134.5 463.43,-134.5"/>
<text text-anchor="start" x="471.43" y="-152.5" font-family="Helvetica,sans-Serif" font-size="10.00">include/yaclib/algo</text>
<text text-anchor="middle" x="511.43" y="-141.5" font-family="Helvetica,sans-Serif" font-size="10.00">/wait_group.hpp</text>
</a>
</g>
</g>
<!-- Node4&#45;&gt;Node11 -->
<g id="edge11" class="edge">
<title>Node4&#45;&gt;Node11</title>
<path fill="none" stroke="midnightblue" d="M552.95,-194.02C543.71,-184.34 533.06,-173.17 524.86,-164.58"/>
<polygon fill="midnightblue" stroke="midnightblue" points="550.54,-196.58 559.98,-201.4 555.61,-191.74 550.54,-196.58"/>
</g>
<!-- Node4&#45;&gt;Node13 -->
<g id="edge13" class="edge">
<title>Node4&#45;&gt;Node13</title>
<path fill="none" stroke="midnightblue" d="M635.9,-213.26C741.37,-208.76 961.19,-196.2 1144.43,-165 1147.35,-164.5 1150.34,-163.93 1153.35,-163.31"/>
<polygon fill="midnightblue" stroke="midnightblue" points="635.6,-209.77 625.75,-213.69 635.89,-216.77 635.6,-209.77"/>
</g>
<!-- Node14 -->
<g id="node14" class="node">
<title>Node14</title>
<g id="a_node14"><a xlink:href="contract_8hpp.html" target="_top" xlink:title=" ">
<polygon fill="none" stroke="black" points="15.43,-134.5 15.43,-164.5 119.43,-164.5 119.43,-134.5 15.43,-134.5"/>
<text text-anchor="start" x="23.43" y="-152.5" font-family="Helvetica,sans-Serif" font-size="10.00">include/yaclib/async</text>
<text text-anchor="middle" x="67.43" y="-141.5" font-family="Helvetica,sans-Serif" font-size="10.00">/contract.hpp</text>
</a>
</g>
</g>
<!-- Node4&#45;&gt;Node14 -->
<g id="edge16" class="edge">
<title>Node4&#45;&gt;Node14</title>
<path fill="none" stroke="midnightblue" d="M511.26,-210.82C424.92,-203.79 264.03,-188.72 128.43,-165 125.54,-164.49 122.57,-163.93 119.59,-163.33"/>
<polygon fill="midnightblue" stroke="midnightblue" points="511.16,-214.33 521.41,-211.64 511.73,-207.35 511.16,-214.33"/>
</g>
<!-- Node15 -->
<g id="node15" class="node">
<title>Node15</title>
<g id="a_node15"><a xlink:href="simple_8cpp.html" target="_top" xlink:title=" ">
<polygon fill="none" stroke="black" points="16.93,-67.5 16.93,-97.5 117.93,-97.5 117.93,-67.5 16.93,-67.5"/>
<text text-anchor="start" x="24.93" y="-85.5" font-family="Helvetica,sans-Serif" font-size="10.00">test/example/async</text>
<text text-anchor="middle" x="67.43" y="-74.5" font-family="Helvetica,sans-Serif" font-size="10.00">/simple.cpp</text>
</a>
</g>
</g>
<!-- Node4&#45;&gt;Node15 -->
<g id="edge28" class="edge">
<title>Node4&#45;&gt;Node15</title>
<path fill="none" stroke="midnightblue" d="M511.25,-214.59C371.08,-211.9 39.99,-201.68 6.43,-165 -13.73,-142.96 19.31,-114.5 44.1,-97.71"/>
<polygon fill="midnightblue" stroke="midnightblue" points="511.35,-218.09 521.41,-214.78 511.48,-211.09 511.35,-218.09"/>
</g>
<!-- Node16 -->
<g id="node16" class="node">
<title>Node16</title>
<g id="a_node16"><a xlink:href="run_8hpp.html" target="_top" xlink:title=" ">
<polygon fill="none" stroke="black" points="137.43,-134.5 137.43,-164.5 241.43,-164.5 241.43,-134.5 137.43,-134.5"/>
<text text-anchor="start" x="145.43" y="-152.5" font-family="Helvetica,sans-Serif" font-size="10.00">include/yaclib/async</text>
<text text-anchor="middle" x="189.43" y="-141.5" font-family="Helvetica,sans-Serif" font-size="10.00">/run.hpp</text>
</a>
</g>
</g>
<!-- Node4&#45;&gt;Node16 -->
<g id="edge18" class="edge">
<title>Node4&#45;&gt;Node16</title>
<path fill="none" stroke="midnightblue" d="M511.25,-206.73C447.01,-197.41 343.93,-181.73 255.43,-165 250.93,-164.15 246.28,-163.22 241.61,-162.26"/>
<polygon fill="midnightblue" stroke="midnightblue" points="510.82,-210.2 521.21,-208.17 511.82,-203.27 510.82,-210.2"/>
</g>
<!-- Node17 -->
<g id="node17" class="node">
<title>Node17</title>
<g id="a_node17"><a xlink:href="await_8hpp.html" target="_top" xlink:title=" ">
<polygon fill="none" stroke="black" points="810.43,-67.5 810.43,-97.5 928.43,-97.5 928.43,-67.5 810.43,-67.5"/>
<text text-anchor="start" x="818.43" y="-85.5" font-family="Helvetica,sans-Serif" font-size="10.00">include/yaclib/coroutine</text>
<text text-anchor="middle" x="869.43" y="-74.5" font-family="Helvetica,sans-Serif" font-size="10.00">/await.hpp</text>
</a>
</g>
</g>
<!-- Node4&#45;&gt;Node17 -->
<g id="edge22" class="edge">
<title>Node4&#45;&gt;Node17</title>
<path fill="none" stroke="midnightblue" d="M635.85,-211.95C707.89,-206.54 820.32,-193.68 850.43,-165 868.84,-147.46 870.96,-115.82 870.46,-97.55"/>
<polygon fill="midnightblue" stroke="midnightblue" points="635.26,-208.48 625.53,-212.69 635.76,-215.46 635.26,-208.48"/>
</g>
<!-- Node18 -->
<g id="node18" class="node">
<title>Node18</title>
<g id="a_node18"><a xlink:href="await__awaiter_8hpp.html" target="_top" xlink:title=" ">
<polygon fill="none" stroke="black" points="897.43,-134.5 897.43,-164.5 1021.43,-164.5 1021.43,-134.5 897.43,-134.5"/>
<text text-anchor="start" x="905.43" y="-152.5" font-family="Helvetica,sans-Serif" font-size="10.00">include/yaclib/coroutine</text>
<text text-anchor="middle" x="959.43" y="-141.5" font-family="Helvetica,sans-Serif" font-size="10.00">/detail/await_awaiter.hpp</text>
</a>
</g>
</g>
<!-- Node4&#45;&gt;Node18 -->
<g id="edge23" class="edge">
<title>Node4&#45;&gt;Node18</title>
<path fill="none" stroke="midnightblue" d="M635.73,-205.86C698.38,-196.04 797.72,-180.15 883.43,-165 887.93,-164.2 892.57,-163.37 897.24,-162.51"/>
<polygon fill="midnightblue" stroke="midnightblue" points="634.95,-202.44 625.61,-207.44 636.03,-209.35 634.95,-202.44"/>
</g>
<!-- Node20 -->
<g id="node20" class="node">
<title>Node20</title>
<g id="a_node20"><a xlink:href="future__traits_8hpp.html" target="_top" xlink:title=" ">
<polygon fill="none" stroke="black" points="577.43,-134.5 577.43,-164.5 695.43,-164.5 695.43,-134.5 577.43,-134.5"/>
<text text-anchor="start" x="585.43" y="-152.5" font-family="Helvetica,sans-Serif" font-size="10.00">include/yaclib/coroutine</text>
<text text-anchor="middle" x="636.43" y="-141.5" font-family="Helvetica,sans-Serif" font-size="10.00">/future_traits.hpp</text>
</a>
</g>
</g>
<!-- Node4&#45;&gt;Node20 -->
<g id="edge26" class="edge">
<title>Node4&#45;&gt;Node20</title>
<path fill="none" stroke="midnightblue" d="M594.25,-194.02C603.63,-184.34 614.45,-173.17 622.79,-164.58"/>
<polygon fill="midnightblue" stroke="midnightblue" points="591.55,-191.78 587.1,-201.4 596.57,-196.65 591.55,-191.78"/>
</g>
<!-- Node21 -->
<g id="node21" class="node">
<title>Node21</title>
<g id="a_node21"><a xlink:href="future__impl_8cpp.html" target="_top" xlink:title=" ">
<polygon fill="none" stroke="black" points="713.43,-140 713.43,-159 841.43,-159 841.43,-140 713.43,-140"/>
<text text-anchor="middle" x="777.43" y="-147" font-family="Helvetica,sans-Serif" font-size="10.00">src/async/future_impl.cpp</text>
</a>
</g>
</g>
<!-- Node4&#45;&gt;Node21 -->
<g id="edge27" class="edge">
<title>Node4&#45;&gt;Node21</title>
<path fill="none" stroke="midnightblue" d="M627,-198.43C666.79,-185.75 719.37,-169 750.66,-159.03"/>
<polygon fill="midnightblue" stroke="midnightblue" points="625.91,-195.11 617.44,-201.48 628.04,-201.77 625.91,-195.11"/>
</g>
<!-- Node5&#45;&gt;Node6 -->
<g id="edge5" class="edge">
<title>Node5&#45;&gt;Node6</title>
<path fill="none" stroke="midnightblue" d="M363.86,-125.28C368.42,-116.02 373.52,-105.66 377.5,-97.58"/>
<polygon fill="midnightblue" stroke="midnightblue" points="360.65,-123.88 359.37,-134.4 366.93,-126.97 360.65,-123.88"/>
</g>
<!-- Node5&#45;&gt;Node8 -->
<g id="edge7" class="edge">
<title>Node5&#45;&gt;Node8</title>
<path fill="none" stroke="midnightblue" d="M326.78,-128.17C314.24,-118.23 299.46,-106.51 288.19,-97.58"/>
<polygon fill="midnightblue" stroke="midnightblue" points="324.63,-130.93 334.64,-134.4 328.98,-125.44 324.63,-130.93"/>
</g>
<!-- Node7 -->
<g id="node7" class="node">
<title>Node7</title>
<g id="a_node7"><a xlink:href="when__all_8cpp.html" target="_top" xlink:title=" ">
<polygon fill="none" stroke="black" points="305.93,-0.5 305.93,-30.5 406.93,-30.5 406.93,-0.5 305.93,-0.5"/>
<text text-anchor="start" x="313.93" y="-18.5" font-family="Helvetica,sans-Serif" font-size="10.00">test/example/async</text>
<text text-anchor="middle" x="356.43" y="-7.5" font-family="Helvetica,sans-Serif" font-size="10.00">/when_all.cpp</text>
</a>
</g>
</g>
<!-- Node6&#45;&gt;Node7 -->
<g id="edge6" class="edge">
<title>Node6&#45;&gt;Node7</title>
<path fill="none" stroke="midnightblue" d="M374.3,-57.99C370.35,-48.8 365.94,-38.58 362.49,-30.58"/>
<polygon fill="midnightblue" stroke="midnightblue" points="371.18,-59.6 378.36,-67.4 377.61,-56.83 371.18,-59.6"/>
</g>
<!-- Node9 -->
<g id="node9" class="node">
<title>Node9</title>
<g id="a_node9"><a xlink:href="when__any_8cpp.html" target="_top" xlink:title=" ">
<polygon fill="none" stroke="black" points="159.93,-0.5 159.93,-30.5 260.93,-30.5 260.93,-0.5 159.93,-0.5"/>
<text text-anchor="start" x="167.93" y="-18.5" font-family="Helvetica,sans-Serif" font-size="10.00">test/example/async</text>
<text text-anchor="middle" x="210.43" y="-7.5" font-family="Helvetica,sans-Serif" font-size="10.00">/when_any.cpp</text>
</a>
</g>
</g>
<!-- Node8&#45;&gt;Node9 -->
<g id="edge8" class="edge">
<title>Node8&#45;&gt;Node9</title>
<path fill="none" stroke="midnightblue" d="M250.61,-60.02C241.67,-50.34 231.36,-39.17 223.42,-30.58"/>
<polygon fill="midnightblue" stroke="midnightblue" points="248.06,-62.42 257.41,-67.4 253.2,-57.67 248.06,-62.42"/>
</g>
<!-- Node12 -->
<g id="node12" class="node">
<title>Node12</title>
<g id="a_node12"><a xlink:href="wait__group_8cpp.html" target="_top" xlink:title=" ">
<polygon fill="none" stroke="black" points="451.93,-73 451.93,-92 570.93,-92 570.93,-73 451.93,-73"/>
<text text-anchor="middle" x="511.43" y="-80" font-family="Helvetica,sans-Serif" font-size="10.00">src/algo/wait_group.cpp</text>
</a>
</g>
</g>
<!-- Node11&#45;&gt;Node12 -->
<g id="edge12" class="edge">
<title>Node11&#45;&gt;Node12</title>
<path fill="none" stroke="midnightblue" d="M511.43,-124.25C511.43,-113.02 511.43,-100.38 511.43,-92.19"/>
<polygon fill="midnightblue" stroke="midnightblue" points="507.93,-124.4 511.43,-134.4 514.93,-124.4 507.93,-124.4"/>
</g>
<!-- Node14&#45;&gt;Node15 -->
<g id="edge17" class="edge">
<title>Node14&#45;&gt;Node15</title>
<path fill="none" stroke="midnightblue" d="M67.43,-124.11C67.43,-115.15 67.43,-105.32 67.43,-97.58"/>
<polygon fill="midnightblue" stroke="midnightblue" points="63.93,-124.4 67.43,-134.4 70.93,-124.4 63.93,-124.4"/>
</g>
<!-- Node16&#45;&gt;Node7 -->
<g id="edge20" class="edge">
<title>Node16&#45;&gt;Node7</title>
<path fill="none" stroke="midnightblue" d="M190.8,-124.18C193.05,-106.25 198.82,-82.41 213.43,-67 237.53,-41.59 275.18,-28.95 305.81,-22.67"/>
<polygon fill="midnightblue" stroke="midnightblue" points="187.31,-123.9 189.83,-134.19 194.28,-124.58 187.31,-123.9"/>
</g>
<!-- Node16&#45;&gt;Node9 -->
<g id="edge21" class="edge">
<title>Node16&#45;&gt;Node9</title>
<path fill="none" stroke="midnightblue" d="M182.13,-124.52C178.24,-108.09 175.24,-85.92 180.43,-67 184.1,-53.63 192.34,-40.21 199.26,-30.57"/>
<polygon fill="midnightblue" stroke="midnightblue" points="178.8,-125.63 184.73,-134.4 185.57,-123.84 178.8,-125.63"/>
</g>
<!-- Node16&#45;&gt;Node15 -->
<g id="edge19" class="edge">
<title>Node16&#45;&gt;Node15</title>
<path fill="none" stroke="midnightblue" d="M153.91,-129.57C134.72,-119.35 111.43,-106.94 93.85,-97.58"/>
<polygon fill="midnightblue" stroke="midnightblue" points="152.49,-132.78 162.96,-134.4 155.78,-126.6 152.49,-132.78"/>
</g>
<!-- Node18&#45;&gt;Node17 -->
<g id="edge24" class="edge">
<title>Node18&#45;&gt;Node17</title>
<path fill="none" stroke="midnightblue" d="M931.67,-128.45C917.83,-118.45 901.41,-106.6 888.92,-97.58"/>
<polygon fill="midnightblue" stroke="midnightblue" points="929.75,-131.38 939.9,-134.4 933.84,-125.7 929.75,-131.38"/>
</g>
<!-- Node19 -->
<g id="node19" class="node">
<title>Node19</title>
<g id="a_node19"><a xlink:href="await__awaiter_8cpp.html" target="_top" xlink:title=" ">
<polygon fill="none" stroke="black" points="946.93,-67.5 946.93,-97.5 1045.93,-97.5 1045.93,-67.5 946.93,-67.5"/>
<text text-anchor="start" x="954.93" y="-85.5" font-family="Helvetica,sans-Serif" font-size="10.00">src/coroutine/await</text>
<text text-anchor="middle" x="996.43" y="-74.5" font-family="Helvetica,sans-Serif" font-size="10.00">_awaiter.cpp</text>
</a>
</g>
</g>
<!-- Node18&#45;&gt;Node19 -->
<g id="edge25" class="edge">
<title>Node18&#45;&gt;Node19</title>
<path fill="none" stroke="midnightblue" d="M972.48,-125.58C977.79,-116.24 983.77,-105.75 988.42,-97.58"/>
<polygon fill="midnightblue" stroke="midnightblue" points="969.36,-123.97 967.46,-134.4 975.45,-127.44 969.36,-123.97"/>
</g>
</g>
</svg>
        <g id="navigator" transform="translate(0 0)" fill="#404254">
                <rect fill="#f2f5e9" fill-opacity="0.5" stroke="#606060" stroke-width=".5" x="0" y="0" width="60" height="60"/>
                <use id="zoomplus" xlink:href="#zoomPlus" x="17" y="9" onmousedown="handleZoom(evt,'in')"/>
                <use id="zoomminus" xlink:href="#zoomMin" x="42" y="9" onmousedown="handleZoom(evt,'out')"/>
                <use id="reset" xlink:href="#resetDef" x="30" y="36" onmousedown="handleReset()"/>
                <g id="arrowUp" xlink:href="#dirArrow" transform="translate(30 24)" onmousedown="handlePan(0,-1)">
                  <use xlink:href="#rim" fill="#404040">
                        <set attributeName="fill" to="#808080" begin="arrowUp.mouseover" end="arrowUp.mouseout"/>
                  </use>
                  <path fill="none" stroke="white" stroke-width="1.5" d="M0,-3.0v7 M-2.5,-0.5L0,-3.0L2.5,-0.5"/>
                </g>
                <g id="arrowRight" xlink:href="#dirArrow" transform="rotate(90) translate(36 -43)" onmousedown="handlePan(1,0)">
                  <use xlink:href="#rim" fill="#404040">
                        <set attributeName="fill" to="#808080" begin="arrowRight.mouseover" end="arrowRight.mouseout"/>
                  </use>
                  <path fill="none" stroke="white" stroke-width="1.5" d="M0,-3.0v7 M-2.5,-0.5L0,-3.0L2.5,-0.5"/>
                </g>
                <g id="arrowDown" xlink:href="#dirArrow" transform="rotate(180) translate(-30 -48)" onmousedown="handlePan(0,1)">
                  <use xlink:href="#rim" fill="#404040">
                        <set attributeName="fill" to="#808080" begin="arrowDown.mouseover" end="arrowDown.mouseout"/>
                  </use>
                  <path fill="none" stroke="white" stroke-width="1.5" d="M0,-3.0v7 M-2.5,-0.5L0,-3.0L2.5,-0.5"/>
                </g>
                <g id="arrowLeft" xlink:href="#dirArrow" transform="rotate(270) translate(-36 17)" onmousedown="handlePan(-1,0)">
                  <use xlink:href="#rim" fill="#404040">
                        <set attributeName="fill" to="#808080" begin="arrowLeft.mouseover" end="arrowLeft.mouseout"/>
                  </use>
                  <path fill="none" stroke="white" stroke-width="1.5" d="M0,-3.0v7 M-2.5,-0.5L0,-3.0L2.5,-0.5"/>
                </g>
        </g>
        <svg viewBox="0 0 15 15" width="100%" height="30px" preserveAspectRatio="xMaxYMin meet">
         <g id="arrow_out" transform="scale(0.3 0.3)">
          <a xlink:href="wait__impl_8hpp__dep__incl_org.svg" target="_base">
           <rect id="button" ry="5" rx="5" y="6" x="6" height="38" width="38"
                fill="#f2f5e9" fill-opacity="0.5" stroke="#606060" stroke-width="1.0"/>
           <path id="arrow"
             d="M 11.500037,31.436501 C 11.940474,20.09759 22.043105,11.32322 32.158766,21.979434 L 37.068811,17.246167 C 37.068811,17.246167 37.088388,32 37.088388,32 L 22.160133,31.978069 C 22.160133,31.978069 26.997745,27.140456 26.997745,27.140456 C 18.528582,18.264221 13.291696,25.230495 11.500037,31.436501 z"
             style="fill:#404040;"/>
          </a>
         </g>
        </svg>
</svg>
