<?xml version="1.0" encoding="UTF-8" standalone="no"?>
<!DOCTYPE svg PUBLIC "-//W3C//DTD SVG 1.1//EN"
 "http://www.w3.org/Graphics/SVG/1.1/DTD/svg11.dtd">
<!-- Generated by graphviz version 3.0.0 (20220413.0106)
 -->
<!-- Title: include/yaclib/algo/wait_until.hpp Pages: 1 -->
<svg width="1369pt" height="676pt"
 viewBox="0.00 0.00 1369.00 676.00" xmlns="http://www.w3.org/2000/svg" xmlns:xlink="http://www.w3.org/1999/xlink">
<g id="graph0" class="graph" transform="scale(1 1) rotate(0) translate(4 672)">
<title>include/yaclib/algo/wait_until.hpp</title>
<!-- Node1 -->
<g id="node1" class="node">
<title>Node1</title>
<g id="a_node1"><a xlink:title=" ">
<polygon fill="#bfbfbf" stroke="black" points="1237,-637.5 1237,-667.5 1333,-667.5 1333,-637.5 1237,-637.5"/>
<text text-anchor="start" x="1245" y="-655.5" font-family="Helvetica,sans-Serif" font-size="10.00">include/yaclib/algo</text>
<text text-anchor="middle" x="1285" y="-644.5" font-family="Helvetica,sans-Serif" font-size="10.00">/wait_until.hpp</text>
</a>
</g>
</g>
<!-- Node2 -->
<g id="node2" class="node">
<title>Node2</title>
<g id="a_node2"><a xlink:href="wait__impl_8hpp.html" target="_top" xlink:title=" ">
<polygon fill="none" stroke="black" points="940.5,-380.5 940.5,-410.5 1029.5,-410.5 1029.5,-380.5 940.5,-380.5"/>
<text text-anchor="start" x="948.5" y="-398.5" font-family="Helvetica,sans-Serif" font-size="10.00">yaclib/algo/detail</text>
<text text-anchor="middle" x="985" y="-387.5" font-family="Helvetica,sans-Serif" font-size="10.00">/wait_impl.hpp</text>
</a>
</g>
</g>
<!-- Node1&#45;&gt;Node2 -->
<g id="edge1" class="edge">
<title>Node1&#45;&gt;Node2</title>
<path fill="none" stroke="midnightblue" d="M1268.44,-637.43C1218.35,-594.85 1068.23,-467.24 1009.21,-417.08"/>
<polygon fill="midnightblue" stroke="midnightblue" points="1011.39,-414.34 1001.51,-410.53 1006.86,-419.67 1011.39,-414.34"/>
</g>
<!-- Node19 -->
<g id="node19" class="node">
<title>Node19</title>
<g id="a_node19"><a xlink:title=" ">
<polygon fill="none" stroke="#bfbfbf" points="1033.5,-252 1033.5,-271 1082.5,-271 1082.5,-252 1033.5,-252"/>
<text text-anchor="middle" x="1058" y="-259" font-family="Helvetica,sans-Serif" font-size="10.00">cstddef</text>
</a>
</g>
</g>
<!-- Node1&#45;&gt;Node19 -->
<g id="edge73" class="edge">
<title>Node1&#45;&gt;Node19</title>
<path fill="none" stroke="midnightblue" d="M1285,-637.34C1285,-614.75 1285,-569.15 1285,-530.5 1285,-530.5 1285,-530.5 1285,-394.5 1285,-350.3 1263.86,-338.85 1228,-313 1226.58,-311.98 1141.73,-287.02 1092.46,-272.58"/>
<polygon fill="midnightblue" stroke="midnightblue" points="1093.4,-269.21 1082.82,-269.76 1091.43,-275.93 1093.4,-269.21"/>
</g>
<!-- Node21 -->
<g id="node21" class="node">
<title>Node21</title>
<g id="a_node21"><a xlink:href="mutex__event_8hpp.html" target="_top" xlink:title=" ">
<polygon fill="none" stroke="black" points="1116.5,-246.5 1116.5,-276.5 1209.5,-276.5 1209.5,-246.5 1116.5,-246.5"/>
<text text-anchor="start" x="1124.5" y="-264.5" font-family="Helvetica,sans-Serif" font-size="10.00">yaclib/util/detail</text>
<text text-anchor="middle" x="1163" y="-253.5" font-family="Helvetica,sans-Serif" font-size="10.00">/mutex_event.hpp</text>
</a>
</g>
</g>
<!-- Node1&#45;&gt;Node21 -->
<g id="edge71" class="edge">
<title>Node1&#45;&gt;Node21</title>
<path fill="none" stroke="midnightblue" d="M1292.51,-637.42C1303.58,-615.31 1323,-570.79 1323,-530.5 1323,-530.5 1323,-530.5 1323,-394.5 1323,-356.74 1324.76,-340.61 1299,-313 1287.63,-300.82 1251.69,-287.74 1219.6,-277.94"/>
<polygon fill="midnightblue" stroke="midnightblue" points="1220.39,-274.52 1209.8,-275.01 1218.38,-281.23 1220.39,-274.52"/>
</g>
<!-- Node22 -->
<g id="node22" class="node">
<title>Node22</title>
<g id="a_node22"><a xlink:title=" ">
<polygon fill="none" stroke="#bfbfbf" points="1214,-185 1214,-204 1260,-204 1260,-185 1214,-185"/>
<text text-anchor="middle" x="1237" y="-192" font-family="Helvetica,sans-Serif" font-size="10.00">chrono</text>
</a>
</g>
</g>
<!-- Node1&#45;&gt;Node22 -->
<g id="edge72" class="edge">
<title>Node1&#45;&gt;Node22</title>
<path fill="none" stroke="midnightblue" d="M1301.49,-637.3C1323.84,-616.37 1361,-574.9 1361,-530.5 1361,-530.5 1361,-530.5 1361,-394.5 1361,-315.69 1290.09,-242.27 1255.51,-211.16"/>
<polygon fill="midnightblue" stroke="midnightblue" points="1257.4,-208.16 1247.57,-204.19 1252.78,-213.42 1257.4,-208.16"/>
</g>
<!-- Node31 -->
<g id="node31" class="node">
<title>Node31</title>
<g id="a_node31"><a xlink:href="future_8hpp.html" target="_top" xlink:title=" ">
<polygon fill="none" stroke="black" points="538,-581.5 538,-600.5 654,-600.5 654,-581.5 538,-581.5"/>
<text text-anchor="middle" x="596" y="-588.5" font-family="Helvetica,sans-Serif" font-size="10.00">yaclib/async/future.hpp</text>
</a>
</g>
</g>
<!-- Node1&#45;&gt;Node31 -->
<g id="edge44" class="edge">
<title>Node1&#45;&gt;Node31</title>
<path fill="none" stroke="midnightblue" d="M1236.82,-647.34C1116.62,-636.96 803.15,-609.89 664.12,-597.88"/>
<polygon fill="midnightblue" stroke="midnightblue" points="664.28,-594.38 654.01,-597.01 663.67,-601.36 664.28,-594.38"/>
</g>
<!-- Node3 -->
<g id="node3" class="node">
<title>Node3</title>
<g id="a_node3"><a xlink:href="base__core_8hpp.html" target="_top" xlink:title=" ">
<polygon fill="none" stroke="black" points="386,-313.5 386,-343.5 482,-343.5 482,-313.5 386,-313.5"/>
<text text-anchor="start" x="394" y="-331.5" font-family="Helvetica,sans-Serif" font-size="10.00">yaclib/async/detail</text>
<text text-anchor="middle" x="434" y="-320.5" font-family="Helvetica,sans-Serif" font-size="10.00">/base_core.hpp</text>
</a>
</g>
</g>
<!-- Node2&#45;&gt;Node3 -->
<g id="edge2" class="edge">
<title>Node2&#45;&gt;Node3</title>
<path fill="none" stroke="midnightblue" d="M940.41,-392.15C855.09,-387.17 662.76,-373.65 492.01,-344.01"/>
<polygon fill="midnightblue" stroke="midnightblue" points="492.55,-340.55 482.09,-342.26 491.34,-347.44 492.55,-340.55"/>
</g>
<!-- Node9 -->
<g id="node9" class="node">
<title>Node9</title>
<g id="a_node9"><a xlink:title=" ">
<polygon fill="none" stroke="#bfbfbf" points="713,-56.5 713,-75.5 775,-75.5 775,-56.5 713,-56.5"/>
<text text-anchor="middle" x="744" y="-63.5" font-family="Helvetica,sans-Serif" font-size="10.00">type_traits</text>
</a>
</g>
</g>
<!-- Node2&#45;&gt;Node9 -->
<g id="edge43" class="edge">
<title>Node2&#45;&gt;Node9</title>
<path fill="none" stroke="midnightblue" d="M1029.73,-390.62C1091.75,-384.36 1199.47,-370.02 1228,-344 1283.83,-293.08 1316.53,-237.74 1269,-179 1207.89,-103.47 898.1,-76.68 785.22,-69.34"/>
<polygon fill="midnightblue" stroke="midnightblue" points="785.44,-65.84 775.24,-68.71 784.99,-72.83 785.44,-65.84"/>
</g>
<!-- Node17 -->
<g id="node17" class="node">
<title>Node17</title>
<g id="a_node17"><a xlink:href="atomic__counter_8hpp.html" target="_top" xlink:title=" ">
<polygon fill="none" stroke="black" points="620,-313.5 620,-343.5 724,-343.5 724,-313.5 620,-313.5"/>
<text text-anchor="start" x="628" y="-331.5" font-family="Helvetica,sans-Serif" font-size="10.00">yaclib/util/detail</text>
<text text-anchor="middle" x="672" y="-320.5" font-family="Helvetica,sans-Serif" font-size="10.00">/atomic_counter.hpp</text>
</a>
</g>
</g>
<!-- Node2&#45;&gt;Node17 -->
<g id="edge21" class="edge">
<title>Node2&#45;&gt;Node17</title>
<path fill="none" stroke="midnightblue" d="M940.49,-385.26C886.45,-374.03 795,-355.04 734.07,-342.39"/>
<polygon fill="midnightblue" stroke="midnightblue" points="734.69,-338.94 724.18,-340.34 733.26,-345.8 734.69,-338.94"/>
</g>
<!-- Node2&#45;&gt;Node19 -->
<g id="edge41" class="edge">
<title>Node2&#45;&gt;Node19</title>
<path fill="none" stroke="midnightblue" d="M1029.72,-380.88C1047.37,-373.07 1065.83,-361.28 1076,-344 1087.68,-324.17 1077.94,-297.57 1068.86,-280.24"/>
<polygon fill="midnightblue" stroke="midnightblue" points="1071.73,-278.21 1063.76,-271.23 1065.64,-281.65 1071.73,-278.21"/>
</g>
<!-- Node20 -->
<g id="node20" class="node">
<title>Node20</title>
<g id="a_node20"><a xlink:href="default__event_8hpp.html" target="_top" xlink:title=" ">
<polygon fill="none" stroke="black" points="1123,-313.5 1123,-343.5 1219,-343.5 1219,-313.5 1123,-313.5"/>
<text text-anchor="start" x="1131" y="-331.5" font-family="Helvetica,sans-Serif" font-size="10.00">yaclib/util/detail</text>
<text text-anchor="middle" x="1171" y="-320.5" font-family="Helvetica,sans-Serif" font-size="10.00">/default_event.hpp</text>
</a>
</g>
</g>
<!-- Node2&#45;&gt;Node20 -->
<g id="edge26" class="edge">
<title>Node2&#45;&gt;Node20</title>
<path fill="none" stroke="midnightblue" d="M1025.36,-380.4C1053.51,-370.56 1091.26,-357.37 1121.27,-346.88"/>
<polygon fill="midnightblue" stroke="midnightblue" points="1122.43,-350.18 1130.72,-343.58 1120.12,-343.57 1122.43,-350.18"/>
</g>
<!-- Node25 -->
<g id="node25" class="node">
<title>Node25</title>
<g id="a_node25"><a xlink:href="set__one__deleter_8hpp.html" target="_top" xlink:title=" ">
<polygon fill="none" stroke="black" points="894.5,-313.5 894.5,-343.5 1001.5,-343.5 1001.5,-313.5 894.5,-313.5"/>
<text text-anchor="start" x="902.5" y="-331.5" font-family="Helvetica,sans-Serif" font-size="10.00">yaclib/util/detail</text>
<text text-anchor="middle" x="948" y="-320.5" font-family="Helvetica,sans-Serif" font-size="10.00">/set_one_deleter.hpp</text>
</a>
</g>
</g>
<!-- Node2&#45;&gt;Node25 -->
<g id="edge33" class="edge">
<title>Node2&#45;&gt;Node25</title>
<path fill="none" stroke="midnightblue" d="M976.97,-380.4C972.32,-372.22 966.34,-361.73 961.03,-352.39"/>
<polygon fill="midnightblue" stroke="midnightblue" points="964,-350.54 956.01,-343.58 957.92,-354 964,-350.54"/>
</g>
<!-- Node26 -->
<g id="node26" class="node">
<title>Node26</title>
<g id="a_node26"><a xlink:href="type__traits_8hpp.html" target="_top" xlink:title=" ">
<polygon fill="none" stroke="black" points="778.5,-252 778.5,-271 901.5,-271 901.5,-252 778.5,-252"/>
<text text-anchor="middle" x="840" y="-259" font-family="Helvetica,sans-Serif" font-size="10.00">yaclib/util/type_traits.hpp</text>
</a>
</g>
</g>
<!-- Node2&#45;&gt;Node26 -->
<g id="edge34" class="edge">
<title>Node2&#45;&gt;Node26</title>
<path fill="none" stroke="midnightblue" d="M945.02,-380.45C925.51,-372.12 902.71,-360.02 886,-344 867.18,-325.95 853.87,-298.5 846.57,-280.53"/>
<polygon fill="midnightblue" stroke="midnightblue" points="849.83,-279.26 842.97,-271.19 843.3,-281.78 849.83,-279.26"/>
</g>
<!-- Node30 -->
<g id="node30" class="node">
<title>Node30</title>
<g id="a_node30"><a xlink:title=" ">
<polygon fill="none" stroke="#bfbfbf" points="1019.5,-319 1019.5,-338 1066.5,-338 1066.5,-319 1019.5,-319"/>
<text text-anchor="middle" x="1043" y="-326" font-family="Helvetica,sans-Serif" font-size="10.00">iterator</text>
</a>
</g>
</g>
<!-- Node2&#45;&gt;Node30 -->
<g id="edge42" class="edge">
<title>Node2&#45;&gt;Node30</title>
<path fill="none" stroke="midnightblue" d="M997.59,-380.4C1006.63,-370.26 1018.85,-356.57 1028.33,-345.94"/>
<polygon fill="midnightblue" stroke="midnightblue" points="1031.2,-347.99 1035.24,-338.19 1025.97,-343.33 1031.2,-347.99"/>
</g>
<!-- Node4 -->
<g id="node4" class="node">
<title>Node4</title>
<g id="a_node4"><a xlink:href="inline__core_8hpp.html" target="_top" xlink:title=" ">
<polygon fill="none" stroke="black" points="338,-246.5 338,-276.5 434,-276.5 434,-246.5 338,-246.5"/>
<text text-anchor="start" x="346" y="-264.5" font-family="Helvetica,sans-Serif" font-size="10.00">yaclib/async/detail</text>
<text text-anchor="middle" x="386" y="-253.5" font-family="Helvetica,sans-Serif" font-size="10.00">/inline_core.hpp</text>
</a>
</g>
</g>
<!-- Node3&#45;&gt;Node4 -->
<g id="edge3" class="edge">
<title>Node3&#45;&gt;Node4</title>
<path fill="none" stroke="midnightblue" d="M423.58,-313.4C417.42,-305.05 409.47,-294.29 402.48,-284.81"/>
<polygon fill="midnightblue" stroke="midnightblue" points="405.15,-282.54 396.39,-276.58 399.52,-286.7 405.15,-282.54"/>
</g>
<!-- Node8 -->
<g id="node8" class="node">
<title>Node8</title>
<g id="a_node8"><a xlink:href="ref_8hpp.html" target="_top" xlink:title=" ">
<polygon fill="none" stroke="black" points="513.5,-56.5 513.5,-75.5 602.5,-75.5 602.5,-56.5 513.5,-56.5"/>
<text text-anchor="middle" x="558" y="-63.5" font-family="Helvetica,sans-Serif" font-size="10.00">yaclib/util/ref.hpp</text>
</a>
</g>
</g>
<!-- Node3&#45;&gt;Node8 -->
<g id="edge19" class="edge">
<title>Node3&#45;&gt;Node8</title>
<path fill="none" stroke="midnightblue" d="M450.28,-313.29C481.55,-284.77 549.12,-216.93 574,-143 580.5,-123.69 573.75,-100.69 567.13,-85.09"/>
<polygon fill="midnightblue" stroke="midnightblue" points="570.11,-83.21 562.73,-75.61 563.76,-86.15 570.11,-83.21"/>
</g>
<!-- Node11 -->
<g id="node11" class="node">
<title>Node11</title>
<g id="a_node11"><a xlink:href="executor_8hpp.html" target="_top" xlink:title=" ">
<polygon fill="none" stroke="black" points="180.5,-252 180.5,-271 319.5,-271 319.5,-252 180.5,-252"/>
<text text-anchor="middle" x="250" y="-259" font-family="Helvetica,sans-Serif" font-size="10.00">yaclib/executor/executor.hpp</text>
</a>
</g>
</g>
<!-- Node3&#45;&gt;Node11 -->
<g id="edge10" class="edge">
<title>Node3&#45;&gt;Node11</title>
<path fill="none" stroke="midnightblue" d="M394.07,-313.4C361.08,-301.74 314.75,-285.37 283.62,-274.38"/>
<polygon fill="midnightblue" stroke="midnightblue" points="284.68,-271.04 274.08,-271.01 282.34,-277.64 284.68,-271.04"/>
</g>
<!-- Node12 -->
<g id="node12" class="node">
<title>Node12</title>
<g id="a_node12"><a xlink:href="intrusive__ptr_8hpp.html" target="_top" xlink:title=" ">
<polygon fill="none" stroke="black" points="201.5,-179.5 201.5,-209.5 298.5,-209.5 298.5,-179.5 201.5,-179.5"/>
<text text-anchor="start" x="209.5" y="-197.5" font-family="Helvetica,sans-Serif" font-size="10.00">yaclib/util/intrusive</text>
<text text-anchor="middle" x="250" y="-186.5" font-family="Helvetica,sans-Serif" font-size="10.00">_ptr.hpp</text>
</a>
</g>
</g>
<!-- Node3&#45;&gt;Node12 -->
<g id="edge18" class="edge">
<title>Node3&#45;&gt;Node12</title>
<path fill="none" stroke="midnightblue" d="M441.1,-313.19C448.76,-295.51 457.96,-265.38 443,-246 440.87,-243.24 364.79,-223.9 308.8,-209.98"/>
<polygon fill="midnightblue" stroke="midnightblue" points="309.5,-206.55 298.95,-207.54 307.82,-213.34 309.5,-206.55"/>
</g>
<!-- Node16 -->
<g id="node16" class="node">
<title>Node16</title>
<g id="a_node16"><a xlink:title=" ">
<polygon fill="none" stroke="#bfbfbf" points="630,-252 630,-271 722,-271 722,-252 630,-252"/>
<text text-anchor="middle" x="676" y="-259" font-family="Helvetica,sans-Serif" font-size="10.00">yaclib_std/atomic</text>
</a>
</g>
</g>
<!-- Node3&#45;&gt;Node16 -->
<g id="edge20" class="edge">
<title>Node3&#45;&gt;Node16</title>
<path fill="none" stroke="midnightblue" d="M482.1,-314.58C526.64,-302.62 592.18,-285.01 634.48,-273.65"/>
<polygon fill="midnightblue" stroke="midnightblue" points="635.43,-277.02 644.18,-271.05 633.62,-270.26 635.43,-277.02"/>
</g>
<!-- Node5 -->
<g id="node5" class="node">
<title>Node5</title>
<g id="a_node5"><a xlink:href="job_8hpp.html" target="_top" xlink:title=" ">
<polygon fill="none" stroke="black" points="319.5,-185 319.5,-204 434.5,-204 434.5,-185 319.5,-185"/>
<text text-anchor="middle" x="377" y="-192" font-family="Helvetica,sans-Serif" font-size="10.00">yaclib/executor/job.hpp</text>
</a>
</g>
</g>
<!-- Node4&#45;&gt;Node5 -->
<g id="edge4" class="edge">
<title>Node4&#45;&gt;Node5</title>
<path fill="none" stroke="midnightblue" d="M384.05,-246.4C382.74,-236.96 381.01,-224.45 379.59,-214.19"/>
<polygon fill="midnightblue" stroke="midnightblue" points="383.04,-213.62 378.2,-204.19 376.11,-214.58 383.04,-213.62"/>
</g>
<!-- Node6 -->
<g id="node6" class="node">
<title>Node6</title>
<g id="a_node6"><a xlink:href="node_8hpp.html" target="_top" xlink:title=" ">
<polygon fill="none" stroke="black" points="328.5,-112.5 328.5,-142.5 411.5,-142.5 411.5,-112.5 328.5,-112.5"/>
<text text-anchor="start" x="336.5" y="-130.5" font-family="Helvetica,sans-Serif" font-size="10.00">yaclib/util/detail</text>
<text text-anchor="middle" x="370" y="-119.5" font-family="Helvetica,sans-Serif" font-size="10.00">/node.hpp</text>
</a>
</g>
</g>
<!-- Node5&#45;&gt;Node6 -->
<g id="edge5" class="edge">
<title>Node5&#45;&gt;Node6</title>
<path fill="none" stroke="midnightblue" d="M376.06,-184.73C375.17,-176.54 373.81,-163.92 372.61,-152.71"/>
<polygon fill="midnightblue" stroke="midnightblue" points="376.07,-152.16 371.52,-142.59 369.11,-152.91 376.07,-152.16"/>
</g>
<!-- Node7 -->
<g id="node7" class="node">
<title>Node7</title>
<g id="a_node7"><a xlink:href="func_8hpp.html" target="_top" xlink:title=" ">
<polygon fill="none" stroke="black" points="468.5,-118 468.5,-137 565.5,-137 565.5,-118 468.5,-118"/>
<text text-anchor="middle" x="517" y="-125" font-family="Helvetica,sans-Serif" font-size="10.00">yaclib/util/func.hpp</text>
</a>
</g>
</g>
<!-- Node5&#45;&gt;Node7 -->
<g id="edge6" class="edge">
<title>Node5&#45;&gt;Node7</title>
<path fill="none" stroke="midnightblue" d="M395.59,-184.87C419.54,-173.75 461.39,-154.32 489.15,-141.43"/>
<polygon fill="midnightblue" stroke="midnightblue" points="490.74,-144.55 498.33,-137.17 487.79,-138.2 490.74,-144.55"/>
</g>
<!-- Node7&#45;&gt;Node8 -->
<g id="edge7" class="edge">
<title>Node7&#45;&gt;Node8</title>
<path fill="none" stroke="midnightblue" d="M522.87,-117.98C528.96,-109.14 538.64,-95.09 546.3,-83.98"/>
<polygon fill="midnightblue" stroke="midnightblue" points="549.34,-85.73 552.14,-75.51 543.58,-81.76 549.34,-85.73"/>
</g>
<!-- Node7&#45;&gt;Node9 -->
<g id="edge8" class="edge">
<title>Node7&#45;&gt;Node9</title>
<path fill="none" stroke="midnightblue" d="M549.52,-117.98C590.01,-107.36 659.19,-89.23 703.19,-77.7"/>
<polygon fill="midnightblue" stroke="midnightblue" points="704.21,-81.05 712.99,-75.13 702.43,-74.28 704.21,-81.05"/>
</g>
<!-- Node10 -->
<g id="node10" class="node">
<title>Node10</title>
<g id="a_node10"><a xlink:title=" ">
<polygon fill="none" stroke="#bfbfbf" points="420.5,-56.5 420.5,-75.5 459.5,-75.5 459.5,-56.5 420.5,-56.5"/>
<text text-anchor="middle" x="440" y="-63.5" font-family="Helvetica,sans-Serif" font-size="10.00">utility</text>
</a>
</g>
</g>
<!-- Node7&#45;&gt;Node10 -->
<g id="edge9" class="edge">
<title>Node7&#45;&gt;Node10</title>
<path fill="none" stroke="midnightblue" d="M505.97,-117.98C493.73,-108.52 473.77,-93.1 459.01,-81.69"/>
<polygon fill="midnightblue" stroke="midnightblue" points="461.06,-78.85 451.01,-75.51 456.78,-84.39 461.06,-78.85"/>
</g>
<!-- Node11&#45;&gt;Node5 -->
<g id="edge11" class="edge">
<title>Node11&#45;&gt;Node5</title>
<path fill="none" stroke="midnightblue" d="M266.86,-251.87C288.4,-240.84 325.9,-221.66 351.08,-208.77"/>
<polygon fill="midnightblue" stroke="midnightblue" points="352.76,-211.84 360.07,-204.17 349.57,-205.61 352.76,-211.84"/>
</g>
<!-- Node11&#45;&gt;Node12 -->
<g id="edge12" class="edge">
<title>Node11&#45;&gt;Node12</title>
<path fill="none" stroke="midnightblue" d="M250,-251.73C250,-243.54 250,-230.92 250,-219.71"/>
<polygon fill="midnightblue" stroke="midnightblue" points="253.5,-219.59 250,-209.59 246.5,-219.59 253.5,-219.59"/>
</g>
<!-- Node12&#45;&gt;Node8 -->
<g id="edge13" class="edge">
<title>Node12&#45;&gt;Node8</title>
<path fill="none" stroke="midnightblue" d="M257.74,-179.41C268.76,-160.78 290.8,-128.42 319,-112 349.61,-94.18 442.77,-80.39 503.33,-73"/>
<polygon fill="midnightblue" stroke="midnightblue" points="503.99,-76.45 513.5,-71.78 503.15,-69.5 503.99,-76.45"/>
</g>
<!-- Node12&#45;&gt;Node9 -->
<g id="edge14" class="edge">
<title>Node12&#45;&gt;Node9</title>
<path fill="none" stroke="midnightblue" d="M298.7,-181.29C302.51,-180.47 306.31,-179.69 310,-179 426.37,-157.06 460.13,-175.49 574,-143 628.09,-127.56 687.19,-98 719.5,-80.65"/>
<polygon fill="midnightblue" stroke="midnightblue" points="721.52,-83.53 728.63,-75.68 718.17,-77.38 721.52,-83.53"/>
</g>
<!-- Node13 -->
<g id="node13" class="node">
<title>Node13</title>
<g id="a_node13"><a xlink:href="intrusive__ptr__impl_8hpp.html" target="_top" xlink:title=" ">
<polygon fill="none" stroke="black" points="114,-112.5 114,-142.5 228,-142.5 228,-112.5 114,-112.5"/>
<text text-anchor="start" x="122" y="-130.5" font-family="Helvetica,sans-Serif" font-size="10.00">yaclib/util/detail</text>
<text text-anchor="middle" x="171" y="-119.5" font-family="Helvetica,sans-Serif" font-size="10.00">/intrusive_ptr_impl.hpp</text>
</a>
</g>
</g>
<!-- Node12&#45;&gt;Node13 -->
<g id="edge15" class="edge">
<title>Node12&#45;&gt;Node13</title>
<path fill="none" stroke="midnightblue" d="M232.86,-179.4C222.09,-170.54 208.02,-158.96 196.02,-149.09"/>
<polygon fill="midnightblue" stroke="midnightblue" points="198.05,-146.23 188.11,-142.58 193.61,-151.63 198.05,-146.23"/>
</g>
<!-- Node14 -->
<g id="node14" class="node">
<title>Node14</title>
<g id="a_node14"><a xlink:href="log_8hpp.html" target="_top" xlink:title=" ">
<polygon fill="none" stroke="black" points="46.5,-56.5 46.5,-75.5 121.5,-75.5 121.5,-56.5 46.5,-56.5"/>
<text text-anchor="middle" x="84" y="-63.5" font-family="Helvetica,sans-Serif" font-size="10.00">yaclib/log.hpp</text>
</a>
</g>
</g>
<!-- Node13&#45;&gt;Node14 -->
<g id="edge16" class="edge">
<title>Node13&#45;&gt;Node14</title>
<path fill="none" stroke="midnightblue" d="M150.38,-112.4C136.7,-103.04 118.79,-90.79 105.02,-81.38"/>
<polygon fill="midnightblue" stroke="midnightblue" points="106.89,-78.41 96.66,-75.66 102.94,-84.19 106.89,-78.41"/>
</g>
<!-- Node15 -->
<g id="node15" class="node">
<title>Node15</title>
<g id="a_node15"><a xlink:title=" ">
<polygon fill="none" stroke="#bfbfbf" points="51,-0.5 51,-19.5 117,-19.5 117,-0.5 51,-0.5"/>
<text text-anchor="middle" x="84" y="-7.5" font-family="Helvetica,sans-Serif" font-size="10.00">string_view</text>
</a>
</g>
</g>
<!-- Node14&#45;&gt;Node15 -->
<g id="edge17" class="edge">
<title>Node14&#45;&gt;Node15</title>
<path fill="none" stroke="midnightblue" d="M84,-56.08C84,-49.01 84,-38.86 84,-29.99"/>
<polygon fill="midnightblue" stroke="midnightblue" points="87.5,-29.75 84,-19.75 80.5,-29.75 87.5,-29.75"/>
</g>
<!-- Node17&#45;&gt;Node10 -->
<g id="edge24" class="edge">
<title>Node17&#45;&gt;Node10</title>
<path fill="none" stroke="midnightblue" d="M694.8,-313.25C718.09,-296.89 748.54,-269.31 731,-246 696.23,-199.81 660.23,-230.04 606,-210 538.65,-185.11 504.93,-198.19 459,-143 445.57,-126.86 441.43,-102.55 440.26,-85.79"/>
<polygon fill="midnightblue" stroke="midnightblue" points="443.74,-85.44 439.84,-75.59 436.75,-85.72 443.74,-85.44"/>
</g>
<!-- Node17&#45;&gt;Node16 -->
<g id="edge25" class="edge">
<title>Node17&#45;&gt;Node16</title>
<path fill="none" stroke="midnightblue" d="M672.87,-313.4C673.45,-303.96 674.22,-291.45 674.85,-281.19"/>
<polygon fill="midnightblue" stroke="midnightblue" points="678.34,-281.39 675.46,-271.19 671.36,-280.96 678.34,-281.39"/>
</g>
<!-- Node18 -->
<g id="node18" class="node">
<title>Node18</title>
<g id="a_node18"><a xlink:title=" ">
<polygon fill="none" stroke="#bfbfbf" points="920,-252 920,-271 1008,-271 1008,-252 920,-252"/>
<text text-anchor="middle" x="964" y="-259" font-family="Helvetica,sans-Serif" font-size="10.00">yaclib/config.hpp</text>
</a>
</g>
</g>
<!-- Node17&#45;&gt;Node18 -->
<g id="edge22" class="edge">
<title>Node17&#45;&gt;Node18</title>
<path fill="none" stroke="midnightblue" d="M724.42,-317.35C772.97,-307.72 847.11,-292.47 911,-277 915.34,-275.95 919.87,-274.8 924.37,-273.62"/>
<polygon fill="midnightblue" stroke="midnightblue" points="925.33,-276.98 934.09,-271.01 923.52,-270.22 925.33,-276.98"/>
</g>
<!-- Node17&#45;&gt;Node19 -->
<g id="edge23" class="edge">
<title>Node17&#45;&gt;Node19</title>
<path fill="none" stroke="midnightblue" d="M724.04,-323.06C792.12,-316.54 914.76,-302.31 1017,-277 1020.05,-276.24 1023.2,-275.35 1026.32,-274.38"/>
<polygon fill="midnightblue" stroke="midnightblue" points="1027.73,-277.61 1036.11,-271.13 1025.52,-270.96 1027.73,-277.61"/>
</g>
<!-- Node20&#45;&gt;Node18 -->
<g id="edge27" class="edge">
<title>Node20&#45;&gt;Node18</title>
<path fill="none" stroke="midnightblue" d="M1126.34,-313.48C1088.91,-301.72 1036.11,-285.14 1001.01,-274.12"/>
<polygon fill="midnightblue" stroke="midnightblue" points="1001.75,-270.69 991.16,-271.03 999.65,-277.36 1001.75,-270.69"/>
</g>
<!-- Node20&#45;&gt;Node21 -->
<g id="edge28" class="edge">
<title>Node20&#45;&gt;Node21</title>
<path fill="none" stroke="midnightblue" d="M1169.26,-313.4C1168.3,-305.56 1167.07,-295.6 1165.96,-286.57"/>
<polygon fill="midnightblue" stroke="midnightblue" points="1169.43,-286.07 1164.73,-276.58 1162.48,-286.93 1169.43,-286.07"/>
</g>
<!-- Node21&#45;&gt;Node8 -->
<g id="edge29" class="edge">
<title>Node21&#45;&gt;Node8</title>
<path fill="none" stroke="midnightblue" d="M1116.28,-250.77C1069.5,-240.49 1001.22,-223.89 978,-210 926.47,-179.18 938.42,-139.42 885,-112 838.71,-88.24 693.55,-75.55 613.08,-70.17"/>
<polygon fill="midnightblue" stroke="midnightblue" points="612.85,-66.65 602.65,-69.49 612.4,-73.64 612.85,-66.65"/>
</g>
<!-- Node21&#45;&gt;Node22 -->
<g id="edge30" class="edge">
<title>Node21&#45;&gt;Node22</title>
<path fill="none" stroke="midnightblue" d="M1179.06,-246.4C1190.94,-235.96 1207.11,-221.75 1219.36,-211"/>
<polygon fill="midnightblue" stroke="midnightblue" points="1221.9,-213.42 1227.1,-204.19 1217.28,-208.16 1221.9,-213.42"/>
</g>
<!-- Node23 -->
<g id="node23" class="node">
<title>Node23</title>
<g id="a_node23"><a xlink:title=" ">
<polygon fill="none" stroke="#bfbfbf" points="987,-179.5 987,-209.5 1089,-209.5 1089,-179.5 987,-179.5"/>
<text text-anchor="start" x="995" y="-197.5" font-family="Helvetica,sans-Serif" font-size="10.00">yaclib_std/condition</text>
<text text-anchor="middle" x="1038" y="-186.5" font-family="Helvetica,sans-Serif" font-size="10.00">_variable</text>
</a>
</g>
</g>
<!-- Node21&#45;&gt;Node23 -->
<g id="edge31" class="edge">
<title>Node21&#45;&gt;Node23</title>
<path fill="none" stroke="midnightblue" d="M1135.88,-246.4C1117.78,-236.98 1093.77,-224.5 1074.07,-214.26"/>
<polygon fill="midnightblue" stroke="midnightblue" points="1075.56,-211.08 1065.07,-209.58 1072.33,-217.3 1075.56,-211.08"/>
</g>
<!-- Node24 -->
<g id="node24" class="node">
<title>Node24</title>
<g id="a_node24"><a xlink:title=" ">
<polygon fill="none" stroke="#bfbfbf" points="1106.5,-185 1106.5,-204 1195.5,-204 1195.5,-185 1106.5,-185"/>
<text text-anchor="middle" x="1151" y="-192" font-family="Helvetica,sans-Serif" font-size="10.00">yaclib_std/mutex</text>
</a>
</g>
</g>
<!-- Node21&#45;&gt;Node24 -->
<g id="edge32" class="edge">
<title>Node21&#45;&gt;Node24</title>
<path fill="none" stroke="midnightblue" d="M1160.4,-246.4C1158.65,-236.96 1156.34,-224.45 1154.45,-214.19"/>
<polygon fill="midnightblue" stroke="midnightblue" points="1157.86,-213.39 1152.61,-204.19 1150.98,-214.66 1157.86,-213.39"/>
</g>
<!-- Node26&#45;&gt;Node9 -->
<g id="edge40" class="edge">
<title>Node26&#45;&gt;Node9</title>
<path fill="none" stroke="midnightblue" d="M829.68,-251.81C819.14,-242.45 802.97,-226.64 793,-210 768.46,-169.04 754.05,-114.08 747.77,-85.7"/>
<polygon fill="midnightblue" stroke="midnightblue" points="751.12,-84.65 745.63,-75.59 744.28,-86.1 751.12,-84.65"/>
</g>
<!-- Node27 -->
<g id="node27" class="node">
<title>Node27</title>
<g id="a_node27"><a xlink:href="fwd_8hpp.html" target="_top" xlink:title=" ">
<polygon fill="none" stroke="black" points="798,-118 798,-137 876,-137 876,-118 798,-118"/>
<text text-anchor="middle" x="837" y="-125" font-family="Helvetica,sans-Serif" font-size="10.00">yaclib/fwd.hpp</text>
</a>
</g>
</g>
<!-- Node26&#45;&gt;Node27 -->
<g id="edge35" class="edge">
<title>Node26&#45;&gt;Node27</title>
<path fill="none" stroke="midnightblue" d="M830.43,-251.94C820.87,-242.7 806.79,-226.98 801,-210 796.55,-196.96 796.8,-192.12 801,-179 805.07,-166.28 813.65,-154.03 821.41,-144.78"/>
<polygon fill="midnightblue" stroke="midnightblue" points="824.12,-147 828.15,-137.21 818.89,-142.35 824.12,-147"/>
</g>
<!-- Node28 -->
<g id="node28" class="node">
<title>Node28</title>
<g id="a_node28"><a xlink:href="type__traits__impl_8hpp.html" target="_top" xlink:title=" ">
<polygon fill="none" stroke="black" points="810,-179.5 810,-209.5 916,-209.5 916,-179.5 810,-179.5"/>
<text text-anchor="start" x="818" y="-197.5" font-family="Helvetica,sans-Serif" font-size="10.00">yaclib/util/detail</text>
<text text-anchor="middle" x="863" y="-186.5" font-family="Helvetica,sans-Serif" font-size="10.00">/type_traits_impl.hpp</text>
</a>
</g>
</g>
<!-- Node26&#45;&gt;Node28 -->
<g id="edge36" class="edge">
<title>Node26&#45;&gt;Node28</title>
<path fill="none" stroke="midnightblue" d="M843.1,-251.73C846.06,-243.37 850.65,-230.4 854.68,-219.02"/>
<polygon fill="midnightblue" stroke="midnightblue" points="857.98,-220.18 858.01,-209.59 851.38,-217.85 857.98,-220.18"/>
</g>
<!-- Node29 -->
<g id="node29" class="node">
<title>Node29</title>
<g id="a_node29"><a xlink:title=" ">
<polygon fill="none" stroke="#bfbfbf" points="615,-185 615,-204 673,-204 673,-185 615,-185"/>
<text text-anchor="middle" x="644" y="-192" font-family="Helvetica,sans-Serif" font-size="10.00">exception</text>
</a>
</g>
</g>
<!-- Node26&#45;&gt;Node29 -->
<g id="edge39" class="edge">
<title>Node26&#45;&gt;Node29</title>
<path fill="none" stroke="midnightblue" d="M813.97,-251.87C779.46,-240.42 718.42,-220.18 679.65,-207.32"/>
<polygon fill="midnightblue" stroke="midnightblue" points="680.42,-203.89 669.82,-204.06 678.21,-210.53 680.42,-203.89"/>
</g>
<!-- Node28&#45;&gt;Node9 -->
<g id="edge38" class="edge">
<title>Node28&#45;&gt;Node9</title>
<path fill="none" stroke="midnightblue" d="M873.56,-179.2C885,-161.8 899.78,-132.24 885,-112 862.43,-81.11 818.42,-70.93 785.54,-67.82"/>
<polygon fill="midnightblue" stroke="midnightblue" points="785.54,-64.31 775.3,-67.04 785.01,-71.29 785.54,-64.31"/>
</g>
<!-- Node28&#45;&gt;Node27 -->
<g id="edge37" class="edge">
<title>Node28&#45;&gt;Node27</title>
<path fill="none" stroke="midnightblue" d="M857.36,-179.4C853.51,-169.76 848.37,-156.91 844.21,-146.54"/>
<polygon fill="midnightblue" stroke="midnightblue" points="847.44,-145.18 840.48,-137.19 840.94,-147.78 847.44,-145.18"/>
</g>
<!-- Node31&#45;&gt;Node11 -->
<g id="edge54" class="edge">
<title>Node31&#45;&gt;Node11</title>
<path fill="none" stroke="midnightblue" d="M537.86,-589.05C394.95,-585.14 38,-565.19 38,-463.5 38,-463.5 38,-463.5 38,-394.5 38,-322.58 127.01,-288.44 189.68,-273.32"/>
<polygon fill="midnightblue" stroke="midnightblue" points="190.53,-276.71 199.49,-271.05 188.96,-269.89 190.53,-276.71"/>
</g>
<!-- Node31&#45;&gt;Node26 -->
<g id="edge58" class="edge">
<title>Node31&#45;&gt;Node26</title>
<path fill="none" stroke="midnightblue" d="M624.25,-581.47C669.21,-565.95 752,-528.53 752,-463.5 752,-463.5 752,-463.5 752,-394.5 752,-345.04 795.3,-300.02 821.15,-277.55"/>
<polygon fill="midnightblue" stroke="midnightblue" points="823.46,-280.18 828.85,-271.07 818.95,-274.83 823.46,-280.18"/>
</g>
<!-- Node32 -->
<g id="node32" class="node">
<title>Node32</title>
<g id="a_node32"><a xlink:href="result__core_8hpp.html" target="_top" xlink:title=" ">
<polygon fill="none" stroke="black" points="336,-380.5 336,-410.5 432,-410.5 432,-380.5 336,-380.5"/>
<text text-anchor="start" x="344" y="-398.5" font-family="Helvetica,sans-Serif" font-size="10.00">yaclib/async/detail</text>
<text text-anchor="middle" x="384" y="-387.5" font-family="Helvetica,sans-Serif" font-size="10.00">/result_core.hpp</text>
</a>
</g>
</g>
<!-- Node31&#45;&gt;Node32 -->
<g id="edge45" class="edge">
<title>Node31&#45;&gt;Node32</title>
<path fill="none" stroke="midnightblue" d="M574.77,-581.45C556.72,-573.58 530.68,-560.76 511,-545 464,-507.37 421.13,-450.54 399.25,-419.22"/>
<polygon fill="midnightblue" stroke="midnightblue" points="401.96,-416.98 393.4,-410.73 396.19,-420.95 401.96,-416.98"/>
</g>
<!-- Node35 -->
<g id="node35" class="node">
<title>Node35</title>
<g id="a_node35"><a xlink:href="helper_8hpp.html" target="_top" xlink:title=" ">
<polygon fill="none" stroke="black" points="450,-386 450,-405 554,-405 554,-386 450,-386"/>
<text text-anchor="middle" x="502" y="-393" font-family="Helvetica,sans-Serif" font-size="10.00">yaclib/util/helper.hpp</text>
</a>
</g>
</g>
<!-- Node31&#45;&gt;Node35 -->
<g id="edge55" class="edge">
<title>Node31&#45;&gt;Node35</title>
<path fill="none" stroke="midnightblue" d="M582.09,-581.28C569.7,-573.03 551.64,-559.73 539,-545 516.71,-519.02 509.73,-511.1 501,-478 495.49,-457.1 496.91,-432.13 498.95,-415.38"/>
<polygon fill="midnightblue" stroke="midnightblue" points="502.45,-415.64 500.39,-405.25 495.52,-414.66 502.45,-415.64"/>
</g>
<!-- Node36 -->
<g id="node36" class="node">
<title>Node36</title>
<g id="a_node36"><a xlink:href="future__impl_8hpp.html" target="_top" xlink:title=" ">
<polygon fill="none" stroke="black" points="548,-514.5 548,-544.5 644,-544.5 644,-514.5 548,-514.5"/>
<text text-anchor="start" x="556" y="-532.5" font-family="Helvetica,sans-Serif" font-size="10.00">yaclib/async/detail</text>
<text text-anchor="middle" x="596" y="-521.5" font-family="Helvetica,sans-Serif" font-size="10.00">/future_impl.hpp</text>
</a>
</g>
</g>
<!-- Node31&#45;&gt;Node36 -->
<g id="edge59" class="edge">
<title>Node31&#45;&gt;Node36</title>
<path fill="none" stroke="midnightblue" d="M596,-581.48C596,-574.47 596,-564.19 596,-554.7"/>
<polygon fill="midnightblue" stroke="midnightblue" points="599.5,-554.52 596,-544.52 592.5,-554.52 599.5,-554.52"/>
</g>
<!-- Node32&#45;&gt;Node3 -->
<g id="edge46" class="edge">
<title>Node32&#45;&gt;Node3</title>
<path fill="none" stroke="midnightblue" d="M394.85,-380.4C401.34,-371.96 409.72,-361.07 417.06,-351.52"/>
<polygon fill="midnightblue" stroke="midnightblue" points="419.85,-353.64 423.17,-343.58 414.3,-349.37 419.85,-353.64"/>
</g>
<!-- Node32&#45;&gt;Node4 -->
<g id="edge47" class="edge">
<title>Node32&#45;&gt;Node4</title>
<path fill="none" stroke="midnightblue" d="M381.29,-380.36C378.53,-364.11 374.91,-336.62 377,-313 377.77,-304.27 379.28,-294.78 380.85,-286.42"/>
<polygon fill="midnightblue" stroke="midnightblue" points="384.29,-287.05 382.81,-276.56 377.42,-285.68 384.29,-287.05"/>
</g>
<!-- Node32&#45;&gt;Node10 -->
<g id="edge53" class="edge">
<title>Node32&#45;&gt;Node10</title>
<path fill="none" stroke="midnightblue" d="M335.88,-394.82C249.25,-392.6 76,-374.2 76,-262.5 76,-262.5 76,-262.5 76,-193.5 76,-155.05 75.13,-136.21 105,-112 151.5,-74.3 336.67,-68.11 409.93,-67.15"/>
<polygon fill="midnightblue" stroke="midnightblue" points="410.34,-70.65 420.3,-67.04 410.26,-63.65 410.34,-70.65"/>
</g>
<!-- Node32&#45;&gt;Node12 -->
<g id="edge48" class="edge">
<title>Node32&#45;&gt;Node12</title>
<path fill="none" stroke="midnightblue" d="M335.95,-387.09C277.54,-375.23 181.42,-345.86 138,-277 130.65,-265.35 130.52,-257.57 138,-246 150.14,-227.21 171.13,-215.34 191.69,-207.87"/>
<polygon fill="midnightblue" stroke="midnightblue" points="193,-211.12 201.38,-204.65 190.79,-204.48 193,-211.12"/>
</g>
<!-- Node33 -->
<g id="node33" class="node">
<title>Node33</title>
<g id="a_node33"><a xlink:href="result_8hpp.html" target="_top" xlink:title=" ">
<polygon fill="none" stroke="black" points="500,-319 500,-338 602,-338 602,-319 500,-319"/>
<text text-anchor="middle" x="551" y="-326" font-family="Helvetica,sans-Serif" font-size="10.00">yaclib/util/result.hpp</text>
</a>
</g>
</g>
<!-- Node32&#45;&gt;Node33 -->
<g id="edge49" class="edge">
<title>Node32&#45;&gt;Node33</title>
<path fill="none" stroke="midnightblue" d="M420.24,-380.4C449.93,-368.84 491.51,-352.66 519.75,-341.66"/>
<polygon fill="midnightblue" stroke="midnightblue" points="521.09,-344.9 529.14,-338.01 518.56,-338.37 521.09,-344.9"/>
</g>
<!-- Node33&#45;&gt;Node26 -->
<g id="edge50" class="edge">
<title>Node33&#45;&gt;Node26</title>
<path fill="none" stroke="midnightblue" d="M585.87,-318.95C594.1,-316.96 602.86,-314.88 611,-313 672.72,-298.74 744,-283.16 790.43,-273.13"/>
<polygon fill="midnightblue" stroke="midnightblue" points="791.19,-276.55 800.23,-271.02 789.72,-269.7 791.19,-276.55"/>
</g>
<!-- Node33&#45;&gt;Node29 -->
<g id="edge51" class="edge">
<title>Node33&#45;&gt;Node29</title>
<path fill="none" stroke="midnightblue" d="M557.1,-318.84C572.28,-297.3 611.94,-241 632.01,-212.52"/>
<polygon fill="midnightblue" stroke="midnightblue" points="635.1,-214.21 638,-204.02 629.38,-210.18 635.1,-214.21"/>
</g>
<!-- Node34 -->
<g id="node34" class="node">
<title>Node34</title>
<g id="a_node34"><a xlink:title=" ">
<polygon fill="none" stroke="#bfbfbf" points="528,-252 528,-271 574,-271 574,-252 528,-252"/>
<text text-anchor="middle" x="551" y="-259" font-family="Helvetica,sans-Serif" font-size="10.00">variant</text>
</a>
</g>
</g>
<!-- Node33&#45;&gt;Node34 -->
<g id="edge52" class="edge">
<title>Node33&#45;&gt;Node34</title>
<path fill="none" stroke="midnightblue" d="M551,-318.73C551,-309.18 551,-293.62 551,-281.28"/>
<polygon fill="midnightblue" stroke="midnightblue" points="554.5,-281.13 551,-271.13 547.5,-281.13 554.5,-281.13"/>
</g>
<!-- Node35&#45;&gt;Node12 -->
<g id="edge57" class="edge">
<title>Node35&#45;&gt;Node12</title>
<path fill="none" stroke="midnightblue" d="M471.98,-385.99C393.89,-363.55 189.18,-302.75 171,-277 163.05,-265.75 164.38,-258.08 171,-246 178.31,-232.66 190.8,-222.33 203.73,-214.59"/>
<polygon fill="midnightblue" stroke="midnightblue" points="205.63,-217.54 212.69,-209.64 202.24,-211.41 205.63,-217.54"/>
</g>
<!-- Node35&#45;&gt;Node17 -->
<g id="edge56" class="edge">
<title>Node35&#45;&gt;Node17</title>
<path fill="none" stroke="midnightblue" d="M524.57,-385.87C550.3,-376.03 593.04,-359.69 625.9,-347.13"/>
<polygon fill="midnightblue" stroke="midnightblue" points="627.22,-350.37 635.31,-343.53 624.72,-343.83 627.22,-350.37"/>
</g>
<!-- Node36&#45;&gt;Node14 -->
<g id="edge69" class="edge">
<title>Node36&#45;&gt;Node14</title>
<path fill="none" stroke="midnightblue" d="M547.98,-528.9C406.33,-527.35 0,-502.01 0,-262.5 0,-262.5 0,-262.5 0,-193.5 0,-146.84 40.15,-104.23 64.94,-82.38"/>
<polygon fill="midnightblue" stroke="midnightblue" points="67.33,-84.93 72.67,-75.78 62.79,-79.61 67.33,-84.93"/>
</g>
<!-- Node36&#45;&gt;Node33 -->
<g id="edge70" class="edge">
<title>Node36&#45;&gt;Node33</title>
<path fill="none" stroke="midnightblue" d="M603.46,-514.32C611.08,-498.03 620.99,-470.51 615,-447 605.12,-408.2 579.53,-368.38 563.86,-346.5"/>
<polygon fill="midnightblue" stroke="midnightblue" points="566.57,-344.27 557.83,-338.28 560.92,-348.41 566.57,-344.27"/>
</g>
<!-- Node37 -->
<g id="node37" class="node">
<title>Node37</title>
<g id="a_node37"><a xlink:href="wait_8hpp.html" target="_top" xlink:title=" ">
<polygon fill="none" stroke="black" points="798.5,-453 798.5,-472 899.5,-472 899.5,-453 798.5,-453"/>
<text text-anchor="middle" x="849" y="-460" font-family="Helvetica,sans-Serif" font-size="10.00">yaclib/algo/wait.hpp</text>
</a>
</g>
</g>
<!-- Node36&#45;&gt;Node37 -->
<g id="edge60" class="edge">
<title>Node36&#45;&gt;Node37</title>
<path fill="none" stroke="midnightblue" d="M644.18,-516.12C690.97,-504.1 761.31,-486.03 806.19,-474.5"/>
<polygon fill="midnightblue" stroke="midnightblue" points="807.09,-477.88 815.91,-472 805.35,-471.1 807.09,-477.88"/>
</g>
<!-- Node38 -->
<g id="node38" class="node">
<title>Node38</title>
<g id="a_node38"><a xlink:href="core_8hpp.html" target="_top" xlink:title=" ">
<polygon fill="none" stroke="black" points="510,-447.5 510,-477.5 606,-477.5 606,-447.5 510,-447.5"/>
<text text-anchor="start" x="518" y="-465.5" font-family="Helvetica,sans-Serif" font-size="10.00">yaclib/async/detail</text>
<text text-anchor="middle" x="558" y="-454.5" font-family="Helvetica,sans-Serif" font-size="10.00">/core.hpp</text>
</a>
</g>
</g>
<!-- Node36&#45;&gt;Node38 -->
<g id="edge66" class="edge">
<title>Node36&#45;&gt;Node38</title>
<path fill="none" stroke="midnightblue" d="M587.75,-514.4C582.97,-506.22 576.84,-495.73 571.38,-486.39"/>
<polygon fill="midnightblue" stroke="midnightblue" points="574.3,-484.44 566.23,-477.58 568.25,-487.98 574.3,-484.44"/>
</g>
<!-- Node37&#45;&gt;Node2 -->
<g id="edge61" class="edge">
<title>Node37&#45;&gt;Node2</title>
<path fill="none" stroke="midnightblue" d="M867.06,-452.87C887.2,-443.24 920.37,-427.39 946.41,-414.94"/>
<polygon fill="midnightblue" stroke="midnightblue" points="948.14,-418 955.65,-410.53 945.12,-411.68 948.14,-418"/>
</g>
<!-- Node37&#45;&gt;Node18 -->
<g id="edge63" class="edge">
<title>Node37&#45;&gt;Node18</title>
<path fill="none" stroke="midnightblue" d="M846.26,-452.87C839.09,-428.49 822.3,-357.97 852,-313 860.85,-299.61 897.99,-284.51 927.11,-274.34"/>
<polygon fill="midnightblue" stroke="midnightblue" points="928.3,-277.63 936.63,-271.09 926.03,-271.01 928.3,-277.63"/>
</g>
<!-- Node37&#45;&gt;Node19 -->
<g id="edge65" class="edge">
<title>Node37&#45;&gt;Node19</title>
<path fill="none" stroke="midnightblue" d="M850.01,-452.87C853.51,-424.29 866.05,-333.44 886,-313 928.18,-269.8 959.39,-295.08 1017,-277 1019.61,-276.18 1022.31,-275.3 1025.01,-274.4"/>
<polygon fill="midnightblue" stroke="midnightblue" points="1026.36,-277.63 1034.68,-271.07 1024.09,-271.01 1026.36,-277.63"/>
</g>
<!-- Node37&#45;&gt;Node20 -->
<g id="edge64" class="edge">
<title>Node37&#45;&gt;Node20</title>
<path fill="none" stroke="midnightblue" d="M896.35,-452.95C935.59,-444.91 992.29,-431.11 1039,-411 1077.67,-394.35 1118.34,-367.65 1144.14,-349.37"/>
<polygon fill="midnightblue" stroke="midnightblue" points="1146.21,-352.2 1152.3,-343.53 1142.13,-346.51 1146.21,-352.2"/>
</g>
<!-- Node37&#45;&gt;Node31 -->
<g id="edge62" class="edge">
<title>Node37&#45;&gt;Node31</title>
<path fill="none" stroke="midnightblue" d="M842.74,-472.11C830.16,-488.81 800.05,-525.62 766,-545 734.86,-562.73 696.55,-573.66 664.18,-580.3"/>
<polygon fill="midnightblue" stroke="midnightblue" points="663.48,-576.87 654.34,-582.22 664.82,-583.74 663.48,-576.87"/>
</g>
<!-- Node38&#45;&gt;Node17 -->
<g id="edge68" class="edge">
<title>Node38&#45;&gt;Node17</title>
<path fill="none" stroke="midnightblue" d="M570.2,-447.37C590.08,-424.35 629.62,-378.57 653.14,-351.34"/>
<polygon fill="midnightblue" stroke="midnightblue" points="656,-353.38 659.89,-343.52 650.7,-348.81 656,-353.38"/>
</g>
<!-- Node38&#45;&gt;Node32 -->
<g id="edge67" class="edge">
<title>Node38&#45;&gt;Node32</title>
<path fill="none" stroke="midnightblue" d="M520.24,-447.4C494.14,-437.64 459.21,-424.59 431.25,-414.15"/>
<polygon fill="midnightblue" stroke="midnightblue" points="432.27,-410.8 421.68,-410.58 429.82,-417.35 432.27,-410.8"/>
</g>
</g>
</svg>
