<?xml version="1.0" encoding="UTF-8" standalone="no"?>
<!DOCTYPE svg PUBLIC "-//W3C//DTD SVG 1.1//EN"
 "http://www.w3.org/Graphics/SVG/1.1/DTD/svg11.dtd">
<!-- Generated by graphviz version 3.0.0 (20220413.0106)
 -->
<!-- Title: include/yaclib/algo/detail/wait_group_impl.hpp Pages: 1 -->
<svg width="749pt" height="419pt"
 viewBox="0.00 0.00 748.99 419.00" xmlns="http://www.w3.org/2000/svg" xmlns:xlink="http://www.w3.org/1999/xlink">
<g id="graph0" class="graph" transform="scale(1 1) rotate(0) translate(4 415)">
<title>include/yaclib/algo/detail/wait_group_impl.hpp</title>
<!-- Node1 -->
<g id="node1" class="node">
<title>Node1</title>
<g id="a_node1"><a xlink:title=" ">
<polygon fill="#bfbfbf" stroke="black" points="449.5,-380.5 449.5,-410.5 583.5,-410.5 583.5,-380.5 449.5,-380.5"/>
<text text-anchor="start" x="457.5" y="-398.5" font-family="Helvetica,sans-Serif" font-size="10.00">include/yaclib/algo</text>
<text text-anchor="middle" x="516.5" y="-387.5" font-family="Helvetica,sans-Serif" font-size="10.00">/detail/wait_group_impl.hpp</text>
</a>
</g>
</g>
<!-- Node2 -->
<g id="node2" class="node">
<title>Node2</title>
<g id="a_node2"><a xlink:href="base__core_8hpp.html" target="_top" xlink:title=" ">
<polygon fill="none" stroke="black" points="172.5,-313.5 172.5,-343.5 268.5,-343.5 268.5,-313.5 172.5,-313.5"/>
<text text-anchor="start" x="180.5" y="-331.5" font-family="Helvetica,sans-Serif" font-size="10.00">yaclib/async/detail</text>
<text text-anchor="middle" x="220.5" y="-320.5" font-family="Helvetica,sans-Serif" font-size="10.00">/base_core.hpp</text>
</a>
</g>
</g>
<!-- Node1&#45;&gt;Node2 -->
<g id="edge1" class="edge">
<title>Node1&#45;&gt;Node2</title>
<path fill="none" stroke="midnightblue" d="M452.64,-380.48C400.96,-369.13 328.8,-353.28 278.7,-342.28"/>
<polygon fill="midnightblue" stroke="midnightblue" points="279.19,-338.81 268.67,-340.08 277.69,-345.64 279.19,-338.81"/>
</g>
<!-- Node8 -->
<g id="node8" class="node">
<title>Node8</title>
<g id="a_node8"><a xlink:title=" ">
<polygon fill="none" stroke="#bfbfbf" points="447.5,-56.5 447.5,-75.5 509.5,-75.5 509.5,-56.5 447.5,-56.5"/>
<text text-anchor="middle" x="478.5" y="-63.5" font-family="Helvetica,sans-Serif" font-size="10.00">type_traits</text>
</a>
</g>
</g>
<!-- Node1&#45;&gt;Node8 -->
<g id="edge29" class="edge">
<title>Node1&#45;&gt;Node8</title>
<path fill="none" stroke="midnightblue" d="M509.53,-380.24C498.56,-356.44 478.5,-306.86 478.5,-262.5 478.5,-262.5 478.5,-262.5 478.5,-193.5 478.5,-155.2 478.5,-110.38 478.5,-85.7"/>
<polygon fill="midnightblue" stroke="midnightblue" points="482,-85.59 478.5,-75.59 475,-85.59 482,-85.59"/>
</g>
<!-- Node16 -->
<g id="node16" class="node">
<title>Node16</title>
<g id="a_node16"><a xlink:href="type__traits_8hpp.html" target="_top" xlink:title=" ">
<polygon fill="none" stroke="black" points="536,-185 536,-204 659,-204 659,-185 536,-185"/>
<text text-anchor="middle" x="597.5" y="-192" font-family="Helvetica,sans-Serif" font-size="10.00">yaclib/util/type_traits.hpp</text>
</a>
</g>
</g>
<!-- Node1&#45;&gt;Node16 -->
<g id="edge20" class="edge">
<title>Node1&#45;&gt;Node16</title>
<path fill="none" stroke="midnightblue" d="M518.91,-380.35C521.96,-363.85 527.88,-335.91 536.5,-313 550.53,-275.71 573.53,-235.04 586.92,-212.67"/>
<polygon fill="midnightblue" stroke="midnightblue" points="589.98,-214.38 592.17,-204.01 583.99,-210.75 589.98,-214.38"/>
</g>
<!-- Node20 -->
<g id="node20" class="node">
<title>Node20</title>
<g id="a_node20"><a xlink:title=" ">
<polygon fill="none" stroke="#bfbfbf" points="545,-319 545,-338 594,-338 594,-319 545,-319"/>
<text text-anchor="middle" x="569.5" y="-326" font-family="Helvetica,sans-Serif" font-size="10.00">cstddef</text>
</a>
</g>
</g>
<!-- Node1&#45;&gt;Node20 -->
<g id="edge27" class="edge">
<title>Node1&#45;&gt;Node20</title>
<path fill="none" stroke="midnightblue" d="M528,-380.4C536.18,-370.36 547.21,-356.84 555.84,-346.25"/>
<polygon fill="midnightblue" stroke="midnightblue" points="558.8,-348.16 562.41,-338.19 553.38,-343.73 558.8,-348.16"/>
</g>
<!-- Node21 -->
<g id="node21" class="node">
<title>Node21</title>
<g id="a_node21"><a xlink:title=" ">
<polygon fill="none" stroke="#bfbfbf" points="612,-319 612,-338 659,-338 659,-319 612,-319"/>
<text text-anchor="middle" x="635.5" y="-326" font-family="Helvetica,sans-Serif" font-size="10.00">iterator</text>
</a>
</g>
</g>
<!-- Node1&#45;&gt;Node21 -->
<g id="edge28" class="edge">
<title>Node1&#45;&gt;Node21</title>
<path fill="none" stroke="midnightblue" d="M542.32,-380.4C562.74,-369.24 591.05,-353.78 611.09,-342.83"/>
<polygon fill="midnightblue" stroke="midnightblue" points="612.83,-345.87 619.93,-338.01 609.47,-339.73 612.83,-345.87"/>
</g>
<!-- Node3 -->
<g id="node3" class="node">
<title>Node3</title>
<g id="a_node3"><a xlink:href="inline__core_8hpp.html" target="_top" xlink:title=" ">
<polygon fill="none" stroke="black" points="351.5,-246.5 351.5,-276.5 447.5,-276.5 447.5,-246.5 351.5,-246.5"/>
<text text-anchor="start" x="359.5" y="-264.5" font-family="Helvetica,sans-Serif" font-size="10.00">yaclib/async/detail</text>
<text text-anchor="middle" x="399.5" y="-253.5" font-family="Helvetica,sans-Serif" font-size="10.00">/inline_core.hpp</text>
</a>
</g>
</g>
<!-- Node2&#45;&gt;Node3 -->
<g id="edge2" class="edge">
<title>Node2&#45;&gt;Node3</title>
<path fill="none" stroke="midnightblue" d="M259.34,-313.4C286.32,-303.6 322.44,-290.48 351.27,-280.02"/>
<polygon fill="midnightblue" stroke="midnightblue" points="352.53,-283.28 360.74,-276.58 350.14,-276.7 352.53,-283.28"/>
</g>
<!-- Node7 -->
<g id="node7" class="node">
<title>Node7</title>
<g id="a_node7"><a xlink:href="ref_8hpp.html" target="_top" xlink:title=" ">
<polygon fill="none" stroke="black" points="0,-56.5 0,-75.5 89,-75.5 89,-56.5 0,-56.5"/>
<text text-anchor="middle" x="44.5" y="-63.5" font-family="Helvetica,sans-Serif" font-size="10.00">yaclib/util/ref.hpp</text>
</a>
</g>
</g>
<!-- Node2&#45;&gt;Node7 -->
<g id="edge18" class="edge">
<title>Node2&#45;&gt;Node7</title>
<path fill="none" stroke="midnightblue" d="M172.48,-325.06C137.5,-320.56 91.95,-308.53 66.5,-277 20.93,-220.54 32.67,-125.85 40.35,-85.8"/>
<polygon fill="midnightblue" stroke="midnightblue" points="43.81,-86.33 42.4,-75.83 36.96,-84.92 43.81,-86.33"/>
</g>
<!-- Node10 -->
<g id="node10" class="node">
<title>Node10</title>
<g id="a_node10"><a xlink:href="executor_8hpp.html" target="_top" xlink:title=" ">
<polygon fill="none" stroke="black" points="84,-252 84,-271 223,-271 223,-252 84,-252"/>
<text text-anchor="middle" x="153.5" y="-259" font-family="Helvetica,sans-Serif" font-size="10.00">yaclib/executor/executor.hpp</text>
</a>
</g>
</g>
<!-- Node2&#45;&gt;Node10 -->
<g id="edge9" class="edge">
<title>Node2&#45;&gt;Node10</title>
<path fill="none" stroke="midnightblue" d="M205.96,-313.4C195.31,-303.06 180.84,-289.02 169.8,-278.31"/>
<polygon fill="midnightblue" stroke="midnightblue" points="172.08,-275.65 162.46,-271.19 167.2,-280.67 172.08,-275.65"/>
</g>
<!-- Node11 -->
<g id="node11" class="node">
<title>Node11</title>
<g id="a_node11"><a xlink:href="intrusive__ptr_8hpp.html" target="_top" xlink:title=" ">
<polygon fill="none" stroke="black" points="89,-179.5 89,-209.5 186,-209.5 186,-179.5 89,-179.5"/>
<text text-anchor="start" x="97" y="-197.5" font-family="Helvetica,sans-Serif" font-size="10.00">yaclib/util/intrusive</text>
<text text-anchor="middle" x="137.5" y="-186.5" font-family="Helvetica,sans-Serif" font-size="10.00">_ptr.hpp</text>
</a>
</g>
</g>
<!-- Node2&#45;&gt;Node11 -->
<g id="edge17" class="edge">
<title>Node2&#45;&gt;Node11</title>
<path fill="none" stroke="midnightblue" d="M172.22,-324.78C138.8,-320.08 96.52,-307.91 74.5,-277 59.23,-255.56 82.35,-231.83 104.76,-215.53"/>
<polygon fill="midnightblue" stroke="midnightblue" points="107,-218.24 113.23,-209.67 103.01,-212.48 107,-218.24"/>
</g>
<!-- Node15 -->
<g id="node15" class="node">
<title>Node15</title>
<g id="a_node15"><a xlink:title=" ">
<polygon fill="none" stroke="#bfbfbf" points="241.5,-252 241.5,-271 333.5,-271 333.5,-252 241.5,-252"/>
<text text-anchor="middle" x="287.5" y="-259" font-family="Helvetica,sans-Serif" font-size="10.00">yaclib_std/atomic</text>
</a>
</g>
</g>
<!-- Node2&#45;&gt;Node15 -->
<g id="edge19" class="edge">
<title>Node2&#45;&gt;Node15</title>
<path fill="none" stroke="midnightblue" d="M235.04,-313.4C245.69,-303.06 260.16,-289.02 271.2,-278.31"/>
<polygon fill="midnightblue" stroke="midnightblue" points="273.8,-280.67 278.54,-271.19 268.92,-275.65 273.8,-280.67"/>
</g>
<!-- Node4 -->
<g id="node4" class="node">
<title>Node4</title>
<g id="a_node4"><a xlink:href="job_8hpp.html" target="_top" xlink:title=" ">
<polygon fill="none" stroke="black" points="269,-185 269,-204 384,-204 384,-185 269,-185"/>
<text text-anchor="middle" x="326.5" y="-192" font-family="Helvetica,sans-Serif" font-size="10.00">yaclib/executor/job.hpp</text>
</a>
</g>
</g>
<!-- Node3&#45;&gt;Node4 -->
<g id="edge3" class="edge">
<title>Node3&#45;&gt;Node4</title>
<path fill="none" stroke="midnightblue" d="M383.66,-246.4C371.94,-235.96 355.98,-221.75 343.91,-211"/>
<polygon fill="midnightblue" stroke="midnightblue" points="346.06,-208.23 336.26,-204.19 341.41,-213.46 346.06,-208.23"/>
</g>
<!-- Node5 -->
<g id="node5" class="node">
<title>Node5</title>
<g id="a_node5"><a xlink:href="node_8hpp.html" target="_top" xlink:title=" ">
<polygon fill="none" stroke="black" points="367,-112.5 367,-142.5 450,-142.5 450,-112.5 367,-112.5"/>
<text text-anchor="start" x="375" y="-130.5" font-family="Helvetica,sans-Serif" font-size="10.00">yaclib/util/detail</text>
<text text-anchor="middle" x="408.5" y="-119.5" font-family="Helvetica,sans-Serif" font-size="10.00">/node.hpp</text>
</a>
</g>
</g>
<!-- Node4&#45;&gt;Node5 -->
<g id="edge4" class="edge">
<title>Node4&#45;&gt;Node5</title>
<path fill="none" stroke="midnightblue" d="M337.56,-184.73C349.07,-175.61 367.5,-161 382.69,-148.96"/>
<polygon fill="midnightblue" stroke="midnightblue" points="385.06,-151.54 390.73,-142.59 380.72,-146.06 385.06,-151.54"/>
</g>
<!-- Node6 -->
<g id="node6" class="node">
<title>Node6</title>
<g id="a_node6"><a xlink:href="func_8hpp.html" target="_top" xlink:title=" ">
<polygon fill="none" stroke="black" points="213,-118 213,-137 310,-137 310,-118 213,-118"/>
<text text-anchor="middle" x="261.5" y="-125" font-family="Helvetica,sans-Serif" font-size="10.00">yaclib/util/func.hpp</text>
</a>
</g>
</g>
<!-- Node4&#45;&gt;Node6 -->
<g id="edge5" class="edge">
<title>Node4&#45;&gt;Node6</title>
<path fill="none" stroke="midnightblue" d="M317.73,-184.73C307.4,-174.4 290.04,-157.04 277.33,-144.33"/>
<polygon fill="midnightblue" stroke="midnightblue" points="279.67,-141.72 270.13,-137.13 274.72,-146.67 279.67,-141.72"/>
</g>
<!-- Node6&#45;&gt;Node7 -->
<g id="edge6" class="edge">
<title>Node6&#45;&gt;Node7</title>
<path fill="none" stroke="midnightblue" d="M230.41,-117.98C192.22,-107.5 127.33,-89.71 85.2,-78.16"/>
<polygon fill="midnightblue" stroke="midnightblue" points="86.1,-74.78 75.53,-75.51 84.25,-81.53 86.1,-74.78"/>
</g>
<!-- Node6&#45;&gt;Node8 -->
<g id="edge7" class="edge">
<title>Node6&#45;&gt;Node8</title>
<path fill="none" stroke="midnightblue" d="M292.59,-117.98C330.78,-107.5 395.67,-89.71 437.8,-78.16"/>
<polygon fill="midnightblue" stroke="midnightblue" points="438.75,-81.53 447.47,-75.51 436.9,-74.78 438.75,-81.53"/>
</g>
<!-- Node9 -->
<g id="node9" class="node">
<title>Node9</title>
<g id="a_node9"><a xlink:title=" ">
<polygon fill="none" stroke="#bfbfbf" points="242,-56.5 242,-75.5 281,-75.5 281,-56.5 242,-56.5"/>
<text text-anchor="middle" x="261.5" y="-63.5" font-family="Helvetica,sans-Serif" font-size="10.00">utility</text>
</a>
</g>
</g>
<!-- Node6&#45;&gt;Node9 -->
<g id="edge8" class="edge">
<title>Node6&#45;&gt;Node9</title>
<path fill="none" stroke="midnightblue" d="M261.5,-117.98C261.5,-109.58 261.5,-96.48 261.5,-85.66"/>
<polygon fill="midnightblue" stroke="midnightblue" points="265,-85.51 261.5,-75.51 258,-85.51 265,-85.51"/>
</g>
<!-- Node10&#45;&gt;Node4 -->
<g id="edge10" class="edge">
<title>Node10&#45;&gt;Node4</title>
<path fill="none" stroke="midnightblue" d="M176.47,-251.87C206.67,-240.52 259.9,-220.52 294.16,-207.65"/>
<polygon fill="midnightblue" stroke="midnightblue" points="295.58,-210.86 303.71,-204.06 293.12,-204.3 295.58,-210.86"/>
</g>
<!-- Node10&#45;&gt;Node11 -->
<g id="edge11" class="edge">
<title>Node10&#45;&gt;Node11</title>
<path fill="none" stroke="midnightblue" d="M151.34,-251.73C149.3,-243.46 146.16,-230.66 143.38,-219.37"/>
<polygon fill="midnightblue" stroke="midnightblue" points="146.76,-218.46 140.97,-209.59 139.96,-220.14 146.76,-218.46"/>
</g>
<!-- Node11&#45;&gt;Node7 -->
<g id="edge12" class="edge">
<title>Node11&#45;&gt;Node7</title>
<path fill="none" stroke="midnightblue" d="M112.65,-179.45C98.87,-170.55 82.37,-157.93 71.5,-143 58.91,-125.71 51.73,-102 47.99,-85.68"/>
<polygon fill="midnightblue" stroke="midnightblue" points="51.38,-84.81 45.92,-75.73 44.53,-86.24 51.38,-84.81"/>
</g>
<!-- Node11&#45;&gt;Node8 -->
<g id="edge13" class="edge">
<title>Node11&#45;&gt;Node8</title>
<path fill="none" stroke="midnightblue" d="M186.19,-185.5C224.01,-178.01 276.99,-164.66 319.5,-143 339.23,-132.95 339.23,-122.91 358.5,-112 383.66,-97.76 414.19,-86.38 438.16,-78.63"/>
<polygon fill="midnightblue" stroke="midnightblue" points="439.51,-81.87 448,-75.53 437.41,-75.19 439.51,-81.87"/>
</g>
<!-- Node12 -->
<g id="node12" class="node">
<title>Node12</title>
<g id="a_node12"><a xlink:href="intrusive__ptr__impl_8hpp.html" target="_top" xlink:title=" ">
<polygon fill="none" stroke="black" points="80.5,-112.5 80.5,-142.5 194.5,-142.5 194.5,-112.5 80.5,-112.5"/>
<text text-anchor="start" x="88.5" y="-130.5" font-family="Helvetica,sans-Serif" font-size="10.00">yaclib/util/detail</text>
<text text-anchor="middle" x="137.5" y="-119.5" font-family="Helvetica,sans-Serif" font-size="10.00">/intrusive_ptr_impl.hpp</text>
</a>
</g>
</g>
<!-- Node11&#45;&gt;Node12 -->
<g id="edge14" class="edge">
<title>Node11&#45;&gt;Node12</title>
<path fill="none" stroke="midnightblue" d="M137.5,-179.4C137.5,-171.64 137.5,-161.81 137.5,-152.86"/>
<polygon fill="midnightblue" stroke="midnightblue" points="141,-152.58 137.5,-142.58 134,-152.58 141,-152.58"/>
</g>
<!-- Node13 -->
<g id="node13" class="node">
<title>Node13</title>
<g id="a_node13"><a xlink:href="log_8hpp.html" target="_top" xlink:title=" ">
<polygon fill="none" stroke="black" points="107,-56.5 107,-75.5 182,-75.5 182,-56.5 107,-56.5"/>
<text text-anchor="middle" x="144.5" y="-63.5" font-family="Helvetica,sans-Serif" font-size="10.00">yaclib/log.hpp</text>
</a>
</g>
</g>
<!-- Node12&#45;&gt;Node13 -->
<g id="edge15" class="edge">
<title>Node12&#45;&gt;Node13</title>
<path fill="none" stroke="midnightblue" d="M139.16,-112.4C140.09,-104.47 141.27,-94.46 142.28,-85.86"/>
<polygon fill="midnightblue" stroke="midnightblue" points="145.79,-86 143.48,-75.66 138.84,-85.18 145.79,-86"/>
</g>
<!-- Node14 -->
<g id="node14" class="node">
<title>Node14</title>
<g id="a_node14"><a xlink:title=" ">
<polygon fill="none" stroke="#bfbfbf" points="111.5,-0.5 111.5,-19.5 177.5,-19.5 177.5,-0.5 111.5,-0.5"/>
<text text-anchor="middle" x="144.5" y="-7.5" font-family="Helvetica,sans-Serif" font-size="10.00">string_view</text>
</a>
</g>
</g>
<!-- Node13&#45;&gt;Node14 -->
<g id="edge16" class="edge">
<title>Node13&#45;&gt;Node14</title>
<path fill="none" stroke="midnightblue" d="M144.5,-56.08C144.5,-49.01 144.5,-38.86 144.5,-29.99"/>
<polygon fill="midnightblue" stroke="midnightblue" points="148,-29.75 144.5,-19.75 141,-29.75 148,-29.75"/>
</g>
<!-- Node16&#45;&gt;Node8 -->
<g id="edge26" class="edge">
<title>Node16&#45;&gt;Node8</title>
<path fill="none" stroke="midnightblue" d="M585.34,-184.98C572.28,-175.53 551.27,-159.42 535.5,-143 517.54,-124.31 500.15,-99.92 489.4,-83.88"/>
<polygon fill="midnightblue" stroke="midnightblue" points="492.31,-81.93 483.88,-75.51 486.46,-85.78 492.31,-81.93"/>
</g>
<!-- Node17 -->
<g id="node17" class="node">
<title>Node17</title>
<g id="a_node17"><a xlink:href="fwd_8hpp.html" target="_top" xlink:title=" ">
<polygon fill="none" stroke="black" points="636.5,-56.5 636.5,-75.5 714.5,-75.5 714.5,-56.5 636.5,-56.5"/>
<text text-anchor="middle" x="675.5" y="-63.5" font-family="Helvetica,sans-Serif" font-size="10.00">yaclib/fwd.hpp</text>
</a>
</g>
</g>
<!-- Node16&#45;&gt;Node17 -->
<g id="edge21" class="edge">
<title>Node16&#45;&gt;Node17</title>
<path fill="none" stroke="midnightblue" d="M659.18,-186.89C687.33,-180.44 718.18,-167.78 735.5,-143 743.39,-131.71 741.66,-124.32 735.5,-112 728.77,-98.54 715.89,-88.07 703.79,-80.62"/>
<polygon fill="midnightblue" stroke="midnightblue" points="705.22,-77.41 694.8,-75.52 701.77,-83.5 705.22,-77.41"/>
</g>
<!-- Node18 -->
<g id="node18" class="node">
<title>Node18</title>
<g id="a_node18"><a xlink:href="type__traits__impl_8hpp.html" target="_top" xlink:title=" ">
<polygon fill="none" stroke="black" points="544.5,-112.5 544.5,-142.5 650.5,-142.5 650.5,-112.5 544.5,-112.5"/>
<text text-anchor="start" x="552.5" y="-130.5" font-family="Helvetica,sans-Serif" font-size="10.00">yaclib/util/detail</text>
<text text-anchor="middle" x="597.5" y="-119.5" font-family="Helvetica,sans-Serif" font-size="10.00">/type_traits_impl.hpp</text>
</a>
</g>
</g>
<!-- Node16&#45;&gt;Node18 -->
<g id="edge22" class="edge">
<title>Node16&#45;&gt;Node18</title>
<path fill="none" stroke="midnightblue" d="M597.5,-184.73C597.5,-176.54 597.5,-163.92 597.5,-152.71"/>
<polygon fill="midnightblue" stroke="midnightblue" points="601,-152.59 597.5,-142.59 594,-152.59 601,-152.59"/>
</g>
<!-- Node19 -->
<g id="node19" class="node">
<title>Node19</title>
<g id="a_node19"><a xlink:title=" ">
<polygon fill="none" stroke="#bfbfbf" points="668.5,-118 668.5,-137 726.5,-137 726.5,-118 668.5,-118"/>
<text text-anchor="middle" x="697.5" y="-125" font-family="Helvetica,sans-Serif" font-size="10.00">exception</text>
</a>
</g>
</g>
<!-- Node16&#45;&gt;Node19 -->
<g id="edge25" class="edge">
<title>Node16&#45;&gt;Node19</title>
<path fill="none" stroke="midnightblue" d="M610.99,-184.73C627.55,-173.96 655.88,-155.55 675.59,-142.74"/>
<polygon fill="midnightblue" stroke="midnightblue" points="677.75,-145.51 684.23,-137.13 673.94,-139.64 677.75,-145.51"/>
</g>
<!-- Node18&#45;&gt;Node8 -->
<g id="edge24" class="edge">
<title>Node18&#45;&gt;Node8</title>
<path fill="none" stroke="midnightblue" d="M569.3,-112.4C549.78,-102.64 523.97,-89.74 504.87,-80.18"/>
<polygon fill="midnightblue" stroke="midnightblue" points="506.33,-77 495.82,-75.66 503.19,-83.26 506.33,-77"/>
</g>
<!-- Node18&#45;&gt;Node17 -->
<g id="edge23" class="edge">
<title>Node18&#45;&gt;Node17</title>
<path fill="none" stroke="midnightblue" d="M615.98,-112.4C628.02,-103.22 643.7,-91.26 655.94,-81.92"/>
<polygon fill="midnightblue" stroke="midnightblue" points="658.32,-84.51 664.15,-75.66 654.08,-78.94 658.32,-84.51"/>
</g>
</g>
</svg>
