<?xml version="1.0" encoding="UTF-8" standalone="no"?>
<!DOCTYPE svg PUBLIC "-//W3C//DTD SVG 1.1//EN"
 "http://www.w3.org/Graphics/SVG/1.1/DTD/svg11.dtd">
<!-- Generated by graphviz version 3.0.0 (20220413.0106)
 -->
<!-- Title: include/yaclib/algo/detail/when_any_impl.hpp Pages: 1 -->
<svg width="1157pt" height="486pt"
 viewBox="0.00 0.00 1156.50 486.00" xmlns="http://www.w3.org/2000/svg" xmlns:xlink="http://www.w3.org/1999/xlink">
<g id="graph0" class="graph" transform="scale(1 1) rotate(0) translate(4 482)">
<title>include/yaclib/algo/detail/when_any_impl.hpp</title>
<!-- Node1 -->
<g id="node1" class="node">
<title>Node1</title>
<g id="a_node1"><a xlink:title=" ">
<polygon fill="#bfbfbf" stroke="black" points="738,-447.5 738,-477.5 869,-477.5 869,-447.5 738,-447.5"/>
<text text-anchor="start" x="746" y="-465.5" font-family="Helvetica,sans-Serif" font-size="10.00">include/yaclib/algo</text>
<text text-anchor="middle" x="803.5" y="-454.5" font-family="Helvetica,sans-Serif" font-size="10.00">/detail/when_any_impl.hpp</text>
</a>
</g>
</g>
<!-- Node2 -->
<g id="node2" class="node">
<title>Node2</title>
<g id="a_node2"><a xlink:href="when__policy_8hpp.html" target="_top" xlink:title=" ">
<polygon fill="none" stroke="black" points="0,-386 0,-405 137,-405 137,-386 0,-386"/>
<text text-anchor="middle" x="68.5" y="-393" font-family="Helvetica,sans-Serif" font-size="10.00">yaclib/algo/when_policy.hpp</text>
</a>
</g>
</g>
<!-- Node1&#45;&gt;Node2 -->
<g id="edge1" class="edge">
<title>Node1&#45;&gt;Node2</title>
<path fill="none" stroke="midnightblue" d="M737.58,-458.48C619.66,-452.62 364.96,-437.85 151.5,-411 142.23,-409.83 132.41,-408.35 122.91,-406.77"/>
<polygon fill="midnightblue" stroke="midnightblue" points="123.2,-403.27 112.75,-405.04 122.02,-410.17 123.2,-403.27"/>
</g>
<!-- Node3 -->
<g id="node3" class="node">
<title>Node3</title>
<g id="a_node3"><a xlink:href="inline__core_8hpp.html" target="_top" xlink:title=" ">
<polygon fill="none" stroke="black" points="231.5,-246.5 231.5,-276.5 327.5,-276.5 327.5,-246.5 231.5,-246.5"/>
<text text-anchor="start" x="239.5" y="-264.5" font-family="Helvetica,sans-Serif" font-size="10.00">yaclib/async/detail</text>
<text text-anchor="middle" x="279.5" y="-253.5" font-family="Helvetica,sans-Serif" font-size="10.00">/inline_core.hpp</text>
</a>
</g>
</g>
<!-- Node1&#45;&gt;Node3 -->
<g id="edge2" class="edge">
<title>Node1&#45;&gt;Node3</title>
<path fill="none" stroke="midnightblue" d="M737.98,-454.62C617.22,-440.61 366.36,-404.82 306.5,-344 291.36,-328.62 284.71,-304.57 281.79,-286.58"/>
<polygon fill="midnightblue" stroke="midnightblue" points="285.24,-285.98 280.44,-276.54 278.3,-286.92 285.24,-285.98"/>
</g>
<!-- Node9 -->
<g id="node9" class="node">
<title>Node9</title>
<g id="a_node9"><a xlink:title=" ">
<polygon fill="none" stroke="#bfbfbf" points="230,-56.5 230,-75.5 269,-75.5 269,-56.5 230,-56.5"/>
<text text-anchor="middle" x="249.5" y="-63.5" font-family="Helvetica,sans-Serif" font-size="10.00">utility</text>
</a>
</g>
</g>
<!-- Node1&#45;&gt;Node9 -->
<g id="edge47" class="edge">
<title>Node1&#45;&gt;Node9</title>
<path fill="none" stroke="midnightblue" d="M737.92,-461.68C575.12,-460.36 165.5,-445.51 165.5,-329.5 165.5,-329.5 165.5,-329.5 165.5,-193.5 165.5,-146.84 205.65,-104.23 230.44,-82.38"/>
<polygon fill="midnightblue" stroke="midnightblue" points="232.83,-84.93 238.17,-75.78 228.29,-79.61 232.83,-84.93"/>
</g>
<!-- Node10 -->
<g id="node10" class="node">
<title>Node10</title>
<g id="a_node10"><a xlink:href="result__core_8hpp.html" target="_top" xlink:title=" ">
<polygon fill="none" stroke="black" points="507.5,-380.5 507.5,-410.5 603.5,-410.5 603.5,-380.5 507.5,-380.5"/>
<text text-anchor="start" x="515.5" y="-398.5" font-family="Helvetica,sans-Serif" font-size="10.00">yaclib/async/detail</text>
<text text-anchor="middle" x="555.5" y="-387.5" font-family="Helvetica,sans-Serif" font-size="10.00">/result_core.hpp</text>
</a>
</g>
</g>
<!-- Node1&#45;&gt;Node10 -->
<g id="edge9" class="edge">
<title>Node1&#45;&gt;Node10</title>
<path fill="none" stroke="midnightblue" d="M749.99,-447.48C709.87,-436.96 655.01,-422.58 613.78,-411.77"/>
<polygon fill="midnightblue" stroke="midnightblue" points="614.43,-408.33 603.87,-409.18 612.66,-415.1 614.43,-408.33"/>
</g>
<!-- Node13 -->
<g id="node13" class="node">
<title>Node13</title>
<g id="a_node13"><a xlink:href="intrusive__ptr_8hpp.html" target="_top" xlink:title=" ">
<polygon fill="none" stroke="black" points="540,-179.5 540,-209.5 637,-209.5 637,-179.5 540,-179.5"/>
<text text-anchor="start" x="548" y="-197.5" font-family="Helvetica,sans-Serif" font-size="10.00">yaclib/util/intrusive</text>
<text text-anchor="middle" x="588.5" y="-186.5" font-family="Helvetica,sans-Serif" font-size="10.00">_ptr.hpp</text>
</a>
</g>
</g>
<!-- Node1&#45;&gt;Node13 -->
<g id="edge43" class="edge">
<title>Node1&#45;&gt;Node13</title>
<path fill="none" stroke="midnightblue" d="M786.98,-447.3C762.91,-426.16 717.48,-384.54 684.5,-344 650.77,-302.52 618.5,-248.75 601.32,-218.61"/>
<polygon fill="midnightblue" stroke="midnightblue" points="604.25,-216.69 596.29,-209.7 598.16,-220.13 604.25,-216.69"/>
</g>
<!-- Node15 -->
<g id="node15" class="node">
<title>Node15</title>
<g id="a_node15"><a xlink:href="log_8hpp.html" target="_top" xlink:title=" ">
<polygon fill="none" stroke="black" points="721,-56.5 721,-75.5 796,-75.5 796,-56.5 721,-56.5"/>
<text text-anchor="middle" x="758.5" y="-63.5" font-family="Helvetica,sans-Serif" font-size="10.00">yaclib/log.hpp</text>
</a>
</g>
</g>
<!-- Node1&#45;&gt;Node15 -->
<g id="edge37" class="edge">
<title>Node1&#45;&gt;Node15</title>
<path fill="none" stroke="midnightblue" d="M869.31,-456.04C943.16,-448.88 1057.36,-434.41 1093.5,-411 1130.18,-387.24 1148.5,-373.2 1148.5,-329.5 1148.5,-329.5 1148.5,-329.5 1148.5,-193.5 1148.5,-122.29 910.26,-85.12 806.19,-72.28"/>
<polygon fill="midnightblue" stroke="midnightblue" points="806.6,-68.8 796.25,-71.07 805.76,-75.75 806.6,-68.8"/>
</g>
<!-- Node17 -->
<g id="node17" class="node">
<title>Node17</title>
<g id="a_node17"><a xlink:title=" ">
<polygon fill="none" stroke="#bfbfbf" points="937.5,-252 937.5,-271 1029.5,-271 1029.5,-252 937.5,-252"/>
<text text-anchor="middle" x="983.5" y="-259" font-family="Helvetica,sans-Serif" font-size="10.00">yaclib_std/atomic</text>
</a>
</g>
</g>
<!-- Node1&#45;&gt;Node17 -->
<g id="edge48" class="edge">
<title>Node1&#45;&gt;Node17</title>
<path fill="none" stroke="midnightblue" d="M806.34,-447.3C812.82,-418.39 831.23,-352.13 870.5,-313 889.13,-294.44 915.77,-282.08 938.51,-274.24"/>
<polygon fill="midnightblue" stroke="midnightblue" points="939.88,-277.47 948.31,-271.05 937.72,-270.82 939.88,-277.47"/>
</g>
<!-- Node18 -->
<g id="node18" class="node">
<title>Node18</title>
<g id="a_node18"><a xlink:href="result_8hpp.html" target="_top" xlink:title=" ">
<polygon fill="none" stroke="black" points="693.5,-319 693.5,-338 795.5,-338 795.5,-319 693.5,-319"/>
<text text-anchor="middle" x="744.5" y="-326" font-family="Helvetica,sans-Serif" font-size="10.00">yaclib/util/result.hpp</text>
</a>
</g>
</g>
<!-- Node1&#45;&gt;Node18 -->
<g id="edge44" class="edge">
<title>Node1&#45;&gt;Node18</title>
<path fill="none" stroke="midnightblue" d="M797.19,-447.37C786.37,-423.18 764.34,-373.88 752.48,-347.35"/>
<polygon fill="midnightblue" stroke="midnightblue" points="755.62,-345.8 748.34,-338.1 749.23,-348.66 755.62,-345.8"/>
</g>
<!-- Node20 -->
<g id="node20" class="node">
<title>Node20</title>
<g id="a_node20"><a xlink:href="fwd_8hpp.html" target="_top" xlink:title=" ">
<polygon fill="none" stroke="black" points="862.5,-118 862.5,-137 940.5,-137 940.5,-118 862.5,-118"/>
<text text-anchor="middle" x="901.5" y="-125" font-family="Helvetica,sans-Serif" font-size="10.00">yaclib/fwd.hpp</text>
</a>
</g>
</g>
<!-- Node1&#45;&gt;Node20 -->
<g id="edge36" class="edge">
<title>Node1&#45;&gt;Node20</title>
<path fill="none" stroke="midnightblue" d="M869.36,-461.08C959.57,-456.64 1110.5,-433.64 1110.5,-329.5 1110.5,-329.5 1110.5,-329.5 1110.5,-260.5 1110.5,-185.29 1012.56,-151.2 950.77,-137.17"/>
<polygon fill="midnightblue" stroke="midnightblue" points="951.33,-133.71 940.81,-135.01 949.84,-140.55 951.33,-133.71"/>
</g>
<!-- Node22 -->
<g id="node22" class="node">
<title>Node22</title>
<g id="a_node22"><a xlink:title=" ">
<polygon fill="none" stroke="#bfbfbf" points="929.5,-185 929.5,-204 987.5,-204 987.5,-185 929.5,-185"/>
<text text-anchor="middle" x="958.5" y="-192" font-family="Helvetica,sans-Serif" font-size="10.00">exception</text>
</a>
</g>
</g>
<!-- Node1&#45;&gt;Node22 -->
<g id="edge46" class="edge">
<title>Node1&#45;&gt;Node22</title>
<path fill="none" stroke="midnightblue" d="M869,-454.77C933.15,-444.01 1025.25,-416.12 1053.5,-344 1069.57,-302.97 1063.89,-282.02 1038.5,-246 1026.71,-229.28 1007.46,-216.87 990.79,-208.54"/>
<polygon fill="midnightblue" stroke="midnightblue" points="991.89,-205.19 981.36,-204.11 988.92,-211.53 991.89,-205.19"/>
</g>
<!-- Node24 -->
<g id="node24" class="node">
<title>Node24</title>
<g id="a_node24"><a xlink:href="atomic__counter_8hpp.html" target="_top" xlink:title=" ">
<polygon fill="none" stroke="black" points="851.5,-380.5 851.5,-410.5 955.5,-410.5 955.5,-380.5 851.5,-380.5"/>
<text text-anchor="start" x="859.5" y="-398.5" font-family="Helvetica,sans-Serif" font-size="10.00">yaclib/util/detail</text>
<text text-anchor="middle" x="903.5" y="-387.5" font-family="Helvetica,sans-Serif" font-size="10.00">/atomic_counter.hpp</text>
</a>
</g>
</g>
<!-- Node1&#45;&gt;Node24 -->
<g id="edge38" class="edge">
<title>Node1&#45;&gt;Node24</title>
<path fill="none" stroke="midnightblue" d="M825.2,-447.4C839.22,-438.28 857.67,-426.29 873.14,-416.24"/>
<polygon fill="midnightblue" stroke="midnightblue" points="875.37,-418.96 881.84,-410.58 871.55,-413.09 875.37,-418.96"/>
</g>
<!-- Node26 -->
<g id="node26" class="node">
<title>Node26</title>
<g id="a_node26"><a xlink:title=" ">
<polygon fill="none" stroke="#bfbfbf" points="995,-319 995,-338 1044,-338 1044,-319 995,-319"/>
<text text-anchor="middle" x="1019.5" y="-326" font-family="Helvetica,sans-Serif" font-size="10.00">cstddef</text>
</a>
</g>
</g>
<!-- Node1&#45;&gt;Node26 -->
<g id="edge45" class="edge">
<title>Node1&#45;&gt;Node26</title>
<path fill="none" stroke="midnightblue" d="M869.25,-451.31C900.41,-444 936.79,-431.66 964.5,-411 986.8,-394.38 1002.99,-365.9 1011.82,-347.39"/>
<polygon fill="midnightblue" stroke="midnightblue" points="1015.12,-348.6 1016.06,-338.04 1008.74,-345.71 1015.12,-348.6"/>
</g>
<!-- Node4 -->
<g id="node4" class="node">
<title>Node4</title>
<g id="a_node4"><a xlink:href="job_8hpp.html" target="_top" xlink:title=" ">
<polygon fill="none" stroke="black" points="352,-185 352,-204 467,-204 467,-185 352,-185"/>
<text text-anchor="middle" x="409.5" y="-192" font-family="Helvetica,sans-Serif" font-size="10.00">yaclib/executor/job.hpp</text>
</a>
</g>
</g>
<!-- Node3&#45;&gt;Node4 -->
<g id="edge3" class="edge">
<title>Node3&#45;&gt;Node4</title>
<path fill="none" stroke="midnightblue" d="M307.71,-246.4C330.22,-235.14 361.5,-219.5 383.42,-208.54"/>
<polygon fill="midnightblue" stroke="midnightblue" points="385.11,-211.61 392.49,-204.01 381.98,-205.35 385.11,-211.61"/>
</g>
<!-- Node5 -->
<g id="node5" class="node">
<title>Node5</title>
<g id="a_node5"><a xlink:href="node_8hpp.html" target="_top" xlink:title=" ">
<polygon fill="none" stroke="black" points="302,-112.5 302,-142.5 385,-142.5 385,-112.5 302,-112.5"/>
<text text-anchor="start" x="310" y="-130.5" font-family="Helvetica,sans-Serif" font-size="10.00">yaclib/util/detail</text>
<text text-anchor="middle" x="343.5" y="-119.5" font-family="Helvetica,sans-Serif" font-size="10.00">/node.hpp</text>
</a>
</g>
</g>
<!-- Node4&#45;&gt;Node5 -->
<g id="edge4" class="edge">
<title>Node4&#45;&gt;Node5</title>
<path fill="none" stroke="midnightblue" d="M400.6,-184.73C391.51,-175.78 377.05,-161.54 364.96,-149.63"/>
<polygon fill="midnightblue" stroke="midnightblue" points="367.39,-147.11 357.81,-142.59 362.47,-152.1 367.39,-147.11"/>
</g>
<!-- Node6 -->
<g id="node6" class="node">
<title>Node6</title>
<g id="a_node6"><a xlink:href="func_8hpp.html" target="_top" xlink:title=" ">
<polygon fill="none" stroke="black" points="403,-118 403,-137 500,-137 500,-118 403,-118"/>
<text text-anchor="middle" x="451.5" y="-125" font-family="Helvetica,sans-Serif" font-size="10.00">yaclib/util/func.hpp</text>
</a>
</g>
</g>
<!-- Node4&#45;&gt;Node6 -->
<g id="edge5" class="edge">
<title>Node4&#45;&gt;Node6</title>
<path fill="none" stroke="midnightblue" d="M415.16,-184.73C421.59,-174.79 432.22,-158.34 440.33,-145.79"/>
<polygon fill="midnightblue" stroke="midnightblue" points="443.44,-147.43 445.93,-137.13 437.56,-143.63 443.44,-147.43"/>
</g>
<!-- Node7 -->
<g id="node7" class="node">
<title>Node7</title>
<g id="a_node7"><a xlink:href="ref_8hpp.html" target="_top" xlink:title=" ">
<polygon fill="none" stroke="black" points="484,-56.5 484,-75.5 573,-75.5 573,-56.5 484,-56.5"/>
<text text-anchor="middle" x="528.5" y="-63.5" font-family="Helvetica,sans-Serif" font-size="10.00">yaclib/util/ref.hpp</text>
</a>
</g>
</g>
<!-- Node6&#45;&gt;Node7 -->
<g id="edge6" class="edge">
<title>Node6&#45;&gt;Node7</title>
<path fill="none" stroke="midnightblue" d="M462.53,-117.98C474.77,-108.52 494.73,-93.1 509.49,-81.69"/>
<polygon fill="midnightblue" stroke="midnightblue" points="511.72,-84.39 517.49,-75.51 507.44,-78.85 511.72,-84.39"/>
</g>
<!-- Node8 -->
<g id="node8" class="node">
<title>Node8</title>
<g id="a_node8"><a xlink:title=" ">
<polygon fill="none" stroke="#bfbfbf" points="623.5,-56.5 623.5,-75.5 685.5,-75.5 685.5,-56.5 623.5,-56.5"/>
<text text-anchor="middle" x="654.5" y="-63.5" font-family="Helvetica,sans-Serif" font-size="10.00">type_traits</text>
</a>
</g>
</g>
<!-- Node6&#45;&gt;Node8 -->
<g id="edge7" class="edge">
<title>Node6&#45;&gt;Node8</title>
<path fill="none" stroke="midnightblue" d="M480.58,-117.98C516.08,-107.57 576.25,-89.94 615.67,-78.38"/>
<polygon fill="midnightblue" stroke="midnightblue" points="616.86,-81.68 625.47,-75.51 614.89,-74.96 616.86,-81.68"/>
</g>
<!-- Node6&#45;&gt;Node9 -->
<g id="edge8" class="edge">
<title>Node6&#45;&gt;Node9</title>
<path fill="none" stroke="midnightblue" d="M422.56,-117.98C384.47,-106.76 317.84,-87.13 279.32,-75.78"/>
<polygon fill="midnightblue" stroke="midnightblue" points="279.83,-72.28 269.25,-72.82 277.85,-79 279.83,-72.28"/>
</g>
<!-- Node10&#45;&gt;Node3 -->
<g id="edge23" class="edge">
<title>Node10&#45;&gt;Node3</title>
<path fill="none" stroke="midnightblue" d="M507.23,-392.37C461.3,-388.32 391.92,-376.75 341.5,-344 319.28,-329.57 301.92,-304.32 291.29,-285.74"/>
<polygon fill="midnightblue" stroke="midnightblue" points="294.23,-283.82 286.36,-276.72 288.09,-287.18 294.23,-283.82"/>
</g>
<!-- Node10&#45;&gt;Node9 -->
<g id="edge35" class="edge">
<title>Node10&#45;&gt;Node9</title>
<path fill="none" stroke="midnightblue" d="M507.09,-391.38C455.34,-386.55 371.91,-374.37 306.5,-344 253.56,-319.41 203.5,-320.88 203.5,-262.5 203.5,-262.5 203.5,-262.5 203.5,-193.5 203.5,-152.4 225.21,-108.07 238.8,-84.34"/>
<polygon fill="midnightblue" stroke="midnightblue" points="241.95,-85.89 244.04,-75.5 235.93,-82.32 241.95,-85.89"/>
</g>
<!-- Node11 -->
<g id="node11" class="node">
<title>Node11</title>
<g id="a_node11"><a xlink:href="base__core_8hpp.html" target="_top" xlink:title=" ">
<polygon fill="none" stroke="black" points="473.5,-313.5 473.5,-343.5 569.5,-343.5 569.5,-313.5 473.5,-313.5"/>
<text text-anchor="start" x="481.5" y="-331.5" font-family="Helvetica,sans-Serif" font-size="10.00">yaclib/async/detail</text>
<text text-anchor="middle" x="521.5" y="-320.5" font-family="Helvetica,sans-Serif" font-size="10.00">/base_core.hpp</text>
</a>
</g>
</g>
<!-- Node10&#45;&gt;Node11 -->
<g id="edge10" class="edge">
<title>Node10&#45;&gt;Node11</title>
<path fill="none" stroke="midnightblue" d="M548.12,-380.4C543.89,-372.3 538.47,-361.94 533.63,-352.69"/>
<polygon fill="midnightblue" stroke="midnightblue" points="536.6,-350.82 528.86,-343.58 530.4,-354.06 536.6,-350.82"/>
</g>
<!-- Node10&#45;&gt;Node13 -->
<g id="edge24" class="edge">
<title>Node10&#45;&gt;Node13</title>
<path fill="none" stroke="midnightblue" d="M563.19,-380.31C568.25,-370.4 574.63,-356.72 578.5,-344 591.29,-301.91 591.49,-250.12 590.19,-220.15"/>
<polygon fill="midnightblue" stroke="midnightblue" points="593.67,-219.6 589.64,-209.8 586.68,-219.97 593.67,-219.6"/>
</g>
<!-- Node10&#45;&gt;Node18 -->
<g id="edge25" class="edge">
<title>Node10&#45;&gt;Node18</title>
<path fill="none" stroke="midnightblue" d="M596.51,-380.4C630.41,-368.74 677.99,-352.37 709.97,-341.38"/>
<polygon fill="midnightblue" stroke="midnightblue" points="711.45,-344.57 719.76,-338.01 709.17,-337.95 711.45,-344.57"/>
</g>
<!-- Node11&#45;&gt;Node3 -->
<g id="edge11" class="edge">
<title>Node11&#45;&gt;Node3</title>
<path fill="none" stroke="midnightblue" d="M473.4,-314.58C434.22,-304.06 378.79,-289.17 337.22,-278"/>
<polygon fill="midnightblue" stroke="midnightblue" points="338.08,-274.61 327.51,-275.4 336.26,-281.37 338.08,-274.61"/>
</g>
<!-- Node11&#45;&gt;Node7 -->
<g id="edge21" class="edge">
<title>Node11&#45;&gt;Node7</title>
<path fill="none" stroke="midnightblue" d="M473.3,-317.74C450.77,-310.51 425.97,-298.09 412.5,-277 405.08,-265.39 405.58,-257.92 412.5,-246 428.69,-218.11 453.41,-233.49 475.5,-210 508.97,-174.41 521.72,-115.84 526.24,-85.9"/>
<polygon fill="midnightblue" stroke="midnightblue" points="529.76,-85.99 527.63,-75.61 522.82,-85.05 529.76,-85.99"/>
</g>
<!-- Node12 -->
<g id="node12" class="node">
<title>Node12</title>
<g id="a_node12"><a xlink:href="executor_8hpp.html" target="_top" xlink:title=" ">
<polygon fill="none" stroke="black" points="422,-252 422,-271 561,-271 561,-252 422,-252"/>
<text text-anchor="middle" x="491.5" y="-259" font-family="Helvetica,sans-Serif" font-size="10.00">yaclib/executor/executor.hpp</text>
</a>
</g>
</g>
<!-- Node11&#45;&gt;Node12 -->
<g id="edge12" class="edge">
<title>Node11&#45;&gt;Node12</title>
<path fill="none" stroke="midnightblue" d="M514.99,-313.4C510.54,-303.76 504.61,-290.91 499.82,-280.54"/>
<polygon fill="midnightblue" stroke="midnightblue" points="502.88,-278.81 495.51,-271.19 496.53,-281.74 502.88,-278.81"/>
</g>
<!-- Node11&#45;&gt;Node13 -->
<g id="edge20" class="edge">
<title>Node11&#45;&gt;Node13</title>
<path fill="none" stroke="midnightblue" d="M539.47,-313.43C550.07,-304.18 562.86,-291.2 570.5,-277 580.08,-259.21 584.56,-236.61 586.66,-219.73"/>
<polygon fill="midnightblue" stroke="midnightblue" points="590.16,-219.88 587.72,-209.57 583.2,-219.15 590.16,-219.88"/>
</g>
<!-- Node11&#45;&gt;Node17 -->
<g id="edge22" class="edge">
<title>Node11&#45;&gt;Node17</title>
<path fill="none" stroke="midnightblue" d="M569.6,-321.21C640.07,-311.92 775.5,-293.83 890.5,-277 902.37,-275.26 915.09,-273.33 927.18,-271.45"/>
<polygon fill="midnightblue" stroke="midnightblue" points="927.83,-274.9 937.17,-269.9 926.75,-267.98 927.83,-274.9"/>
</g>
<!-- Node12&#45;&gt;Node4 -->
<g id="edge13" class="edge">
<title>Node12&#45;&gt;Node4</title>
<path fill="none" stroke="midnightblue" d="M480.44,-251.73C467.16,-241.21 444.67,-223.38 428.57,-210.62"/>
<polygon fill="midnightblue" stroke="midnightblue" points="430.39,-207.6 420.38,-204.13 426.05,-213.08 430.39,-207.6"/>
</g>
<!-- Node12&#45;&gt;Node13 -->
<g id="edge14" class="edge">
<title>Node12&#45;&gt;Node13</title>
<path fill="none" stroke="midnightblue" d="M504.58,-251.73C518.45,-242.44 540.8,-227.46 558.96,-215.3"/>
<polygon fill="midnightblue" stroke="midnightblue" points="561.12,-218.06 567.47,-209.59 557.22,-212.25 561.12,-218.06"/>
</g>
<!-- Node13&#45;&gt;Node7 -->
<g id="edge15" class="edge">
<title>Node13&#45;&gt;Node7</title>
<path fill="none" stroke="midnightblue" d="M581.85,-179.48C570.91,-156.41 549.12,-110.48 537.05,-85.03"/>
<polygon fill="midnightblue" stroke="midnightblue" points="540.12,-83.32 532.67,-75.79 533.79,-86.32 540.12,-83.32"/>
</g>
<!-- Node13&#45;&gt;Node8 -->
<g id="edge16" class="edge">
<title>Node13&#45;&gt;Node8</title>
<path fill="none" stroke="midnightblue" d="M595.82,-179.48C607.9,-156.31 632.03,-110.07 645.27,-84.69"/>
<polygon fill="midnightblue" stroke="midnightblue" points="648.39,-86.27 649.91,-75.79 642.19,-83.04 648.39,-86.27"/>
</g>
<!-- Node14 -->
<g id="node14" class="node">
<title>Node14</title>
<g id="a_node14"><a xlink:href="intrusive__ptr__impl_8hpp.html" target="_top" xlink:title=" ">
<polygon fill="none" stroke="black" points="692.5,-112.5 692.5,-142.5 806.5,-142.5 806.5,-112.5 692.5,-112.5"/>
<text text-anchor="start" x="700.5" y="-130.5" font-family="Helvetica,sans-Serif" font-size="10.00">yaclib/util/detail</text>
<text text-anchor="middle" x="749.5" y="-119.5" font-family="Helvetica,sans-Serif" font-size="10.00">/intrusive_ptr_impl.hpp</text>
</a>
</g>
</g>
<!-- Node13&#45;&gt;Node14 -->
<g id="edge17" class="edge">
<title>Node13&#45;&gt;Node14</title>
<path fill="none" stroke="midnightblue" d="M623.43,-179.4C647.38,-169.73 679.35,-156.82 705.1,-146.43"/>
<polygon fill="midnightblue" stroke="midnightblue" points="706.67,-149.57 714.63,-142.58 704.05,-143.07 706.67,-149.57"/>
</g>
<!-- Node14&#45;&gt;Node15 -->
<g id="edge18" class="edge">
<title>Node14&#45;&gt;Node15</title>
<path fill="none" stroke="midnightblue" d="M751.63,-112.4C752.85,-104.38 754.38,-94.23 755.69,-85.57"/>
<polygon fill="midnightblue" stroke="midnightblue" points="759.16,-86.07 757.19,-75.66 752.23,-85.02 759.16,-86.07"/>
</g>
<!-- Node16 -->
<g id="node16" class="node">
<title>Node16</title>
<g id="a_node16"><a xlink:title=" ">
<polygon fill="none" stroke="#bfbfbf" points="725.5,-0.5 725.5,-19.5 791.5,-19.5 791.5,-0.5 725.5,-0.5"/>
<text text-anchor="middle" x="758.5" y="-7.5" font-family="Helvetica,sans-Serif" font-size="10.00">string_view</text>
</a>
</g>
</g>
<!-- Node15&#45;&gt;Node16 -->
<g id="edge19" class="edge">
<title>Node15&#45;&gt;Node16</title>
<path fill="none" stroke="midnightblue" d="M758.5,-56.08C758.5,-49.01 758.5,-38.86 758.5,-29.99"/>
<polygon fill="midnightblue" stroke="midnightblue" points="762,-29.75 758.5,-19.75 755,-29.75 762,-29.75"/>
</g>
<!-- Node19 -->
<g id="node19" class="node">
<title>Node19</title>
<g id="a_node19"><a xlink:href="type__traits_8hpp.html" target="_top" xlink:title=" ">
<polygon fill="none" stroke="black" points="758,-252 758,-271 881,-271 881,-252 758,-252"/>
<text text-anchor="middle" x="819.5" y="-259" font-family="Helvetica,sans-Serif" font-size="10.00">yaclib/util/type_traits.hpp</text>
</a>
</g>
</g>
<!-- Node18&#45;&gt;Node19 -->
<g id="edge26" class="edge">
<title>Node18&#45;&gt;Node19</title>
<path fill="none" stroke="midnightblue" d="M754.61,-318.73C766.65,-308.31 786.95,-290.71 801.65,-277.97"/>
<polygon fill="midnightblue" stroke="midnightblue" points="804.28,-280.32 809.55,-271.13 799.7,-275.03 804.28,-280.32"/>
</g>
<!-- Node18&#45;&gt;Node22 -->
<g id="edge33" class="edge">
<title>Node18&#45;&gt;Node22</title>
<path fill="none" stroke="midnightblue" d="M775.21,-318.99C812.14,-308.4 871.52,-290.1 890.5,-277 915.42,-259.79 936.37,-231.09 948.18,-212.74"/>
<polygon fill="midnightblue" stroke="midnightblue" points="951.18,-214.55 953.49,-204.21 945.23,-210.85 951.18,-214.55"/>
</g>
<!-- Node23 -->
<g id="node23" class="node">
<title>Node23</title>
<g id="a_node23"><a xlink:title=" ">
<polygon fill="none" stroke="#bfbfbf" points="693.5,-252 693.5,-271 739.5,-271 739.5,-252 693.5,-252"/>
<text text-anchor="middle" x="716.5" y="-259" font-family="Helvetica,sans-Serif" font-size="10.00">variant</text>
</a>
</g>
</g>
<!-- Node18&#45;&gt;Node23 -->
<g id="edge34" class="edge">
<title>Node18&#45;&gt;Node23</title>
<path fill="none" stroke="midnightblue" d="M740.72,-318.73C736.53,-308.99 729.63,-292.98 724.27,-280.53"/>
<polygon fill="midnightblue" stroke="midnightblue" points="727.39,-278.93 720.22,-271.13 720.96,-281.7 727.39,-278.93"/>
</g>
<!-- Node19&#45;&gt;Node8 -->
<g id="edge32" class="edge">
<title>Node19&#45;&gt;Node8</title>
<path fill="none" stroke="midnightblue" d="M805.47,-251.94C778.23,-234.63 717.83,-192.85 683.5,-143 671.26,-125.23 663.31,-101.61 658.88,-85.45"/>
<polygon fill="midnightblue" stroke="midnightblue" points="662.23,-84.43 656.36,-75.61 655.45,-86.16 662.23,-84.43"/>
</g>
<!-- Node19&#45;&gt;Node20 -->
<g id="edge27" class="edge">
<title>Node19&#45;&gt;Node20</title>
<path fill="none" stroke="midnightblue" d="M835.49,-251.87C850,-243.21 870.85,-228.5 882.5,-210 894.63,-190.74 899.03,-164.53 900.62,-147.09"/>
<polygon fill="midnightblue" stroke="midnightblue" points="904.11,-147.27 901.31,-137.05 897.13,-146.79 904.11,-147.27"/>
</g>
<!-- Node21 -->
<g id="node21" class="node">
<title>Node21</title>
<g id="a_node21"><a xlink:href="type__traits__impl_8hpp.html" target="_top" xlink:title=" ">
<polygon fill="none" stroke="black" points="767.5,-179.5 767.5,-209.5 873.5,-209.5 873.5,-179.5 767.5,-179.5"/>
<text text-anchor="start" x="775.5" y="-197.5" font-family="Helvetica,sans-Serif" font-size="10.00">yaclib/util/detail</text>
<text text-anchor="middle" x="820.5" y="-186.5" font-family="Helvetica,sans-Serif" font-size="10.00">/type_traits_impl.hpp</text>
</a>
</g>
</g>
<!-- Node19&#45;&gt;Node21 -->
<g id="edge28" class="edge">
<title>Node19&#45;&gt;Node21</title>
<path fill="none" stroke="midnightblue" d="M819.63,-251.73C819.76,-243.54 819.96,-230.92 820.13,-219.71"/>
<polygon fill="midnightblue" stroke="midnightblue" points="823.63,-219.64 820.28,-209.59 816.63,-219.53 823.63,-219.64"/>
</g>
<!-- Node19&#45;&gt;Node22 -->
<g id="edge31" class="edge">
<title>Node19&#45;&gt;Node22</title>
<path fill="none" stroke="midnightblue" d="M837.96,-251.87C861.74,-240.75 903.29,-221.32 930.85,-208.43"/>
<polygon fill="midnightblue" stroke="midnightblue" points="932.39,-211.57 939.97,-204.17 929.42,-205.23 932.39,-211.57"/>
</g>
<!-- Node21&#45;&gt;Node8 -->
<g id="edge30" class="edge">
<title>Node21&#45;&gt;Node8</title>
<path fill="none" stroke="midnightblue" d="M824.13,-179.37C827.78,-161.59 830.92,-131.07 815.5,-112 807.83,-102.5 740.68,-86.05 695.56,-75.89"/>
<polygon fill="midnightblue" stroke="midnightblue" points="696.26,-72.46 685.73,-73.69 694.73,-79.29 696.26,-72.46"/>
</g>
<!-- Node21&#45;&gt;Node20 -->
<g id="edge29" class="edge">
<title>Node21&#45;&gt;Node20</title>
<path fill="none" stroke="midnightblue" d="M838.08,-179.4C851.21,-168.86 869.13,-154.48 882.57,-143.69"/>
<polygon fill="midnightblue" stroke="midnightblue" points="885.06,-146.18 890.67,-137.19 880.68,-140.72 885.06,-146.18"/>
</g>
<!-- Node24&#45;&gt;Node9 -->
<g id="edge41" class="edge">
<title>Node24&#45;&gt;Node9</title>
<path fill="none" stroke="midnightblue" d="M851.16,-393.05C749.81,-389.49 530.9,-378.01 464.5,-344 350.7,-285.71 278.91,-136.61 256.8,-84.95"/>
<polygon fill="midnightblue" stroke="midnightblue" points="260.03,-83.59 252.94,-75.72 253.57,-86.3 260.03,-83.59"/>
</g>
<!-- Node24&#45;&gt;Node17 -->
<g id="edge42" class="edge">
<title>Node24&#45;&gt;Node17</title>
<path fill="none" stroke="midnightblue" d="M892.98,-380.27C881.76,-363.19 867.28,-334.21 880.5,-313 892.42,-293.89 913.9,-281.81 934.18,-274.27"/>
<polygon fill="midnightblue" stroke="midnightblue" points="935.35,-277.57 943.68,-271.03 933.09,-270.95 935.35,-277.57"/>
</g>
<!-- Node25 -->
<g id="node25" class="node">
<title>Node25</title>
<g id="a_node25"><a xlink:title=" ">
<polygon fill="none" stroke="#bfbfbf" points="889.5,-319 889.5,-338 977.5,-338 977.5,-319 889.5,-319"/>
<text text-anchor="middle" x="933.5" y="-326" font-family="Helvetica,sans-Serif" font-size="10.00">yaclib/config.hpp</text>
</a>
</g>
</g>
<!-- Node24&#45;&gt;Node25 -->
<g id="edge39" class="edge">
<title>Node24&#45;&gt;Node25</title>
<path fill="none" stroke="midnightblue" d="M910.01,-380.4C914.46,-370.76 920.39,-357.91 925.18,-347.54"/>
<polygon fill="midnightblue" stroke="midnightblue" points="928.47,-348.74 929.49,-338.19 922.12,-345.81 928.47,-348.74"/>
</g>
<!-- Node24&#45;&gt;Node26 -->
<g id="edge40" class="edge">
<title>Node24&#45;&gt;Node26</title>
<path fill="none" stroke="midnightblue" d="M928.67,-380.4C948.48,-369.29 975.92,-353.92 995.44,-342.98"/>
<polygon fill="midnightblue" stroke="midnightblue" points="997.31,-345.95 1004.32,-338.01 993.88,-339.84 997.31,-345.95"/>
</g>
</g>
</svg>
