<?xml version="1.0" encoding="UTF-8" standalone="no"?>
<!DOCTYPE svg PUBLIC "-//W3C//DTD SVG 1.1//EN"
 "http://www.w3.org/Graphics/SVG/1.1/DTD/svg11.dtd">
<!-- Generated by graphviz version 3.0.0 (20220413.0106)
 -->
<!-- Title: include/yaclib/algo/detail/when_all_impl.hpp Pages: 1 -->
<svg width="1081pt" height="486pt"
 viewBox="0.00 0.00 1081.00 486.00" xmlns="http://www.w3.org/2000/svg" xmlns:xlink="http://www.w3.org/1999/xlink">
<g id="graph0" class="graph" transform="scale(1 1) rotate(0) translate(4 482)">
<title>include/yaclib/algo/detail/when_all_impl.hpp</title>
<!-- Node1 -->
<g id="node1" class="node">
<title>Node1</title>
<g id="a_node1"><a xlink:title=" ">
<polygon fill="#bfbfbf" stroke="black" points="703.5,-447.5 703.5,-477.5 828.5,-477.5 828.5,-447.5 703.5,-447.5"/>
<text text-anchor="start" x="711.5" y="-465.5" font-family="Helvetica,sans-Serif" font-size="10.00">include/yaclib/algo</text>
<text text-anchor="middle" x="766" y="-454.5" font-family="Helvetica,sans-Serif" font-size="10.00">/detail/when_all_impl.hpp</text>
</a>
</g>
</g>
<!-- Node2 -->
<g id="node2" class="node">
<title>Node2</title>
<g id="a_node2"><a xlink:href="inline__core_8hpp.html" target="_top" xlink:title=" ">
<polygon fill="none" stroke="black" points="313,-246.5 313,-276.5 409,-276.5 409,-246.5 313,-246.5"/>
<text text-anchor="start" x="321" y="-264.5" font-family="Helvetica,sans-Serif" font-size="10.00">yaclib/async/detail</text>
<text text-anchor="middle" x="361" y="-253.5" font-family="Helvetica,sans-Serif" font-size="10.00">/inline_core.hpp</text>
</a>
</g>
</g>
<!-- Node1&#45;&gt;Node2 -->
<g id="edge1" class="edge">
<title>Node1&#45;&gt;Node2</title>
<path fill="none" stroke="midnightblue" d="M703.27,-449.72C665.47,-441.43 616.89,-428.65 576,-411 524.14,-388.61 514.52,-376.04 468,-344 439.31,-324.24 407.72,-299.83 386.35,-282.9"/>
<polygon fill="midnightblue" stroke="midnightblue" points="388.42,-280.07 378.41,-276.58 384.06,-285.55 388.42,-280.07"/>
</g>
<!-- Node7 -->
<g id="node7" class="node">
<title>Node7</title>
<g id="a_node7"><a xlink:title=" ">
<polygon fill="none" stroke="#bfbfbf" points="176,-56.5 176,-75.5 238,-75.5 238,-56.5 176,-56.5"/>
<text text-anchor="middle" x="207" y="-63.5" font-family="Helvetica,sans-Serif" font-size="10.00">type_traits</text>
</a>
</g>
</g>
<!-- Node1&#45;&gt;Node7 -->
<g id="edge43" class="edge">
<title>Node1&#45;&gt;Node7</title>
<path fill="none" stroke="midnightblue" d="M703.41,-459.97C566.38,-456.05 243.84,-443.56 140,-411 71.3,-389.46 0,-401.5 0,-329.5 0,-329.5 0,-329.5 0,-193.5 0,-116.66 105.14,-85.09 165.55,-73.3"/>
<polygon fill="midnightblue" stroke="midnightblue" points="166.37,-76.71 175.56,-71.44 165.09,-69.82 166.37,-76.71"/>
</g>
<!-- Node8 -->
<g id="node8" class="node">
<title>Node8</title>
<g id="a_node8"><a xlink:title=" ">
<polygon fill="none" stroke="#bfbfbf" points="708.5,-56.5 708.5,-75.5 747.5,-75.5 747.5,-56.5 708.5,-56.5"/>
<text text-anchor="middle" x="728" y="-63.5" font-family="Helvetica,sans-Serif" font-size="10.00">utility</text>
</a>
</g>
</g>
<!-- Node1&#45;&gt;Node8 -->
<g id="edge44" class="edge">
<title>Node1&#45;&gt;Node8</title>
<path fill="none" stroke="midnightblue" d="M762.6,-447.34C757.14,-423.27 747,-372.8 747,-329.5 747,-329.5 747,-329.5 747,-193.5 747,-154.77 738.18,-110.11 732.56,-85.57"/>
<polygon fill="midnightblue" stroke="midnightblue" points="735.89,-84.44 730.18,-75.52 729.08,-86.06 735.89,-84.44"/>
</g>
<!-- Node9 -->
<g id="node9" class="node">
<title>Node9</title>
<g id="a_node9"><a xlink:href="result__core_8hpp.html" target="_top" xlink:title=" ">
<polygon fill="none" stroke="black" points="585,-380.5 585,-410.5 681,-410.5 681,-380.5 585,-380.5"/>
<text text-anchor="start" x="593" y="-398.5" font-family="Helvetica,sans-Serif" font-size="10.00">yaclib/async/detail</text>
<text text-anchor="middle" x="633" y="-387.5" font-family="Helvetica,sans-Serif" font-size="10.00">/result_core.hpp</text>
</a>
</g>
</g>
<!-- Node1&#45;&gt;Node9 -->
<g id="edge8" class="edge">
<title>Node1&#45;&gt;Node9</title>
<path fill="none" stroke="midnightblue" d="M737.14,-447.4C717.71,-437.9 691.88,-425.28 670.81,-414.98"/>
<polygon fill="midnightblue" stroke="midnightblue" points="672.32,-411.82 661.8,-410.58 669.25,-418.11 672.32,-411.82"/>
</g>
<!-- Node16 -->
<g id="node16" class="node">
<title>Node16</title>
<g id="a_node16"><a xlink:title=" ">
<polygon fill="none" stroke="#bfbfbf" points="775,-252 775,-271 867,-271 867,-252 775,-252"/>
<text text-anchor="middle" x="821" y="-259" font-family="Helvetica,sans-Serif" font-size="10.00">yaclib_std/atomic</text>
</a>
</g>
</g>
<!-- Node1&#45;&gt;Node16 -->
<g id="edge46" class="edge">
<title>Node1&#45;&gt;Node16</title>
<path fill="none" stroke="midnightblue" d="M769.96,-447.19C779.73,-411.83 805,-320.39 815.89,-281"/>
<polygon fill="midnightblue" stroke="midnightblue" points="819.26,-281.93 818.55,-271.36 812.51,-280.07 819.26,-281.93"/>
</g>
<!-- Node19 -->
<g id="node19" class="node">
<title>Node19</title>
<g id="a_node19"><a xlink:href="fwd_8hpp.html" target="_top" xlink:title=" ">
<polygon fill="none" stroke="black" points="101,-118 101,-137 179,-137 179,-118 101,-118"/>
<text text-anchor="middle" x="140" y="-125" font-family="Helvetica,sans-Serif" font-size="10.00">yaclib/fwd.hpp</text>
</a>
</g>
</g>
<!-- Node1&#45;&gt;Node19 -->
<g id="edge35" class="edge">
<title>Node1&#45;&gt;Node19</title>
<path fill="none" stroke="midnightblue" d="M703.3,-456.73C526.71,-442.45 38,-396.86 38,-329.5 38,-329.5 38,-329.5 38,-260.5 38,-208.57 88.04,-164.63 118.02,-142.96"/>
<polygon fill="midnightblue" stroke="midnightblue" points="120.05,-145.81 126.24,-137.21 116.04,-140.07 120.05,-145.81"/>
</g>
<!-- Node23 -->
<g id="node23" class="node">
<title>Node23</title>
<g id="a_node23"><a xlink:href="atomic__counter_8hpp.html" target="_top" xlink:title=" ">
<polygon fill="none" stroke="black" points="813,-380.5 813,-410.5 917,-410.5 917,-380.5 813,-380.5"/>
<text text-anchor="start" x="821" y="-398.5" font-family="Helvetica,sans-Serif" font-size="10.00">yaclib/util/detail</text>
<text text-anchor="middle" x="865" y="-387.5" font-family="Helvetica,sans-Serif" font-size="10.00">/atomic_counter.hpp</text>
</a>
</g>
</g>
<!-- Node1&#45;&gt;Node23 -->
<g id="edge36" class="edge">
<title>Node1&#45;&gt;Node23</title>
<path fill="none" stroke="midnightblue" d="M787.48,-447.4C801.36,-438.28 819.63,-426.29 834.94,-416.24"/>
<polygon fill="midnightblue" stroke="midnightblue" points="837.12,-418.99 843.56,-410.58 833.28,-413.14 837.12,-418.99"/>
</g>
<!-- Node25 -->
<g id="node25" class="node">
<title>Node25</title>
<g id="a_node25"><a xlink:title=" ">
<polygon fill="none" stroke="#bfbfbf" points="1013.5,-319 1013.5,-338 1062.5,-338 1062.5,-319 1013.5,-319"/>
<text text-anchor="middle" x="1038" y="-326" font-family="Helvetica,sans-Serif" font-size="10.00">cstddef</text>
</a>
</g>
</g>
<!-- Node1&#45;&gt;Node25 -->
<g id="edge42" class="edge">
<title>Node1&#45;&gt;Node25</title>
<path fill="none" stroke="midnightblue" d="M828.6,-447.64C859.09,-439.43 895.63,-427.4 926,-411 945.18,-400.65 946.54,-393.04 964,-380 981.13,-367.2 1001.2,-353.59 1016.12,-343.72"/>
<polygon fill="midnightblue" stroke="midnightblue" points="1018.23,-346.52 1024.66,-338.11 1014.38,-340.67 1018.23,-346.52"/>
</g>
<!-- Node26 -->
<g id="node26" class="node">
<title>Node26</title>
<g id="a_node26"><a xlink:title=" ">
<polygon fill="none" stroke="#bfbfbf" points="973,-386 973,-405 1011,-405 1011,-386 973,-386"/>
<text text-anchor="middle" x="992" y="-393" font-family="Helvetica,sans-Serif" font-size="10.00">array</text>
</a>
</g>
</g>
<!-- Node1&#45;&gt;Node26 -->
<g id="edge41" class="edge">
<title>Node1&#45;&gt;Node26</title>
<path fill="none" stroke="midnightblue" d="M828.9,-447.7C866.99,-438.69 916.31,-425.86 959,-411 960.86,-410.35 962.76,-409.64 964.67,-408.9"/>
<polygon fill="midnightblue" stroke="midnightblue" points="966.16,-412.07 974.05,-405 963.47,-405.61 966.16,-412.07"/>
</g>
<!-- Node27 -->
<g id="node27" class="node">
<title>Node27</title>
<g id="a_node27"><a xlink:title=" ">
<polygon fill="none" stroke="#bfbfbf" points="1029,-386 1029,-405 1073,-405 1073,-386 1029,-386"/>
<text text-anchor="middle" x="1051" y="-393" font-family="Helvetica,sans-Serif" font-size="10.00">vector</text>
</a>
</g>
</g>
<!-- Node1&#45;&gt;Node27 -->
<g id="edge45" class="edge">
<title>Node1&#45;&gt;Node27</title>
<path fill="none" stroke="midnightblue" d="M828.67,-453.35C880.74,-445.56 956.34,-431.87 1020,-411 1021.67,-410.45 1023.37,-409.84 1025.06,-409.18"/>
<polygon fill="midnightblue" stroke="midnightblue" points="1026.77,-412.26 1034.57,-405.08 1024,-405.83 1026.77,-412.26"/>
</g>
<!-- Node3 -->
<g id="node3" class="node">
<title>Node3</title>
<g id="a_node3"><a xlink:href="job_8hpp.html" target="_top" xlink:title=" ">
<polygon fill="none" stroke="black" points="354.5,-185 354.5,-204 469.5,-204 469.5,-185 354.5,-185"/>
<text text-anchor="middle" x="412" y="-192" font-family="Helvetica,sans-Serif" font-size="10.00">yaclib/executor/job.hpp</text>
</a>
</g>
</g>
<!-- Node2&#45;&gt;Node3 -->
<g id="edge2" class="edge">
<title>Node2&#45;&gt;Node3</title>
<path fill="none" stroke="midnightblue" d="M372.07,-246.4C379.94,-236.36 390.55,-222.84 398.85,-212.25"/>
<polygon fill="midnightblue" stroke="midnightblue" points="401.76,-214.22 405.18,-204.19 396.25,-209.9 401.76,-214.22"/>
</g>
<!-- Node4 -->
<g id="node4" class="node">
<title>Node4</title>
<g id="a_node4"><a xlink:href="node_8hpp.html" target="_top" xlink:title=" ">
<polygon fill="none" stroke="black" points="235.5,-112.5 235.5,-142.5 318.5,-142.5 318.5,-112.5 235.5,-112.5"/>
<text text-anchor="start" x="243.5" y="-130.5" font-family="Helvetica,sans-Serif" font-size="10.00">yaclib/util/detail</text>
<text text-anchor="middle" x="277" y="-119.5" font-family="Helvetica,sans-Serif" font-size="10.00">/node.hpp</text>
</a>
</g>
</g>
<!-- Node3&#45;&gt;Node4 -->
<g id="edge3" class="edge">
<title>Node3&#45;&gt;Node4</title>
<path fill="none" stroke="midnightblue" d="M394.07,-184.87C374.08,-175.24 341.15,-159.39 315.3,-146.94"/>
<polygon fill="midnightblue" stroke="midnightblue" points="316.66,-143.71 306.14,-142.53 313.63,-150.02 316.66,-143.71"/>
</g>
<!-- Node5 -->
<g id="node5" class="node">
<title>Node5</title>
<g id="a_node5"><a xlink:href="func_8hpp.html" target="_top" xlink:title=" ">
<polygon fill="none" stroke="black" points="375.5,-118 375.5,-137 472.5,-137 472.5,-118 375.5,-118"/>
<text text-anchor="middle" x="424" y="-125" font-family="Helvetica,sans-Serif" font-size="10.00">yaclib/util/func.hpp</text>
</a>
</g>
</g>
<!-- Node3&#45;&gt;Node5 -->
<g id="edge4" class="edge">
<title>Node3&#45;&gt;Node5</title>
<path fill="none" stroke="midnightblue" d="M413.62,-184.73C415.38,-175.18 418.26,-159.62 420.53,-147.28"/>
<polygon fill="midnightblue" stroke="midnightblue" points="424.03,-147.6 422.41,-137.13 417.15,-146.33 424.03,-147.6"/>
</g>
<!-- Node6 -->
<g id="node6" class="node">
<title>Node6</title>
<g id="a_node6"><a xlink:href="ref_8hpp.html" target="_top" xlink:title=" ">
<polygon fill="none" stroke="black" points="456.5,-56.5 456.5,-75.5 545.5,-75.5 545.5,-56.5 456.5,-56.5"/>
<text text-anchor="middle" x="501" y="-63.5" font-family="Helvetica,sans-Serif" font-size="10.00">yaclib/util/ref.hpp</text>
</a>
</g>
</g>
<!-- Node5&#45;&gt;Node6 -->
<g id="edge5" class="edge">
<title>Node5&#45;&gt;Node6</title>
<path fill="none" stroke="midnightblue" d="M435.03,-117.98C447.27,-108.52 467.23,-93.1 481.99,-81.69"/>
<polygon fill="midnightblue" stroke="midnightblue" points="484.22,-84.39 489.99,-75.51 479.94,-78.85 484.22,-84.39"/>
</g>
<!-- Node5&#45;&gt;Node7 -->
<g id="edge6" class="edge">
<title>Node5&#45;&gt;Node7</title>
<path fill="none" stroke="midnightblue" d="M392.91,-117.98C354.72,-107.5 289.83,-89.71 247.7,-78.16"/>
<polygon fill="midnightblue" stroke="midnightblue" points="248.6,-74.78 238.03,-75.51 246.75,-81.53 248.6,-74.78"/>
</g>
<!-- Node5&#45;&gt;Node8 -->
<g id="edge7" class="edge">
<title>Node5&#45;&gt;Node8</title>
<path fill="none" stroke="midnightblue" d="M467.56,-117.98C530.35,-105.68 644.68,-83.31 698.5,-72.77"/>
<polygon fill="midnightblue" stroke="midnightblue" points="699.28,-76.19 708.42,-70.83 697.93,-69.32 699.28,-76.19"/>
</g>
<!-- Node9&#45;&gt;Node2 -->
<g id="edge22" class="edge">
<title>Node9&#45;&gt;Node2</title>
<path fill="none" stroke="midnightblue" d="M604.15,-380.5C554.78,-356.54 454.1,-307.68 399.04,-280.96"/>
<polygon fill="midnightblue" stroke="midnightblue" points="400.49,-277.77 389.96,-276.56 397.43,-284.07 400.49,-277.77"/>
</g>
<!-- Node9&#45;&gt;Node8 -->
<g id="edge34" class="edge">
<title>Node9&#45;&gt;Node8</title>
<path fill="none" stroke="midnightblue" d="M648.02,-380.23C670.16,-357.55 709,-310.89 709,-262.5 709,-262.5 709,-262.5 709,-193.5 709,-154.77 717.82,-110.11 723.44,-85.57"/>
<polygon fill="midnightblue" stroke="midnightblue" points="726.92,-86.06 725.82,-75.52 720.11,-84.44 726.92,-86.06"/>
</g>
<!-- Node10 -->
<g id="node10" class="node">
<title>Node10</title>
<g id="a_node10"><a xlink:href="base__core_8hpp.html" target="_top" xlink:title=" ">
<polygon fill="none" stroke="black" points="547,-313.5 547,-343.5 643,-343.5 643,-313.5 547,-313.5"/>
<text text-anchor="start" x="555" y="-331.5" font-family="Helvetica,sans-Serif" font-size="10.00">yaclib/async/detail</text>
<text text-anchor="middle" x="595" y="-320.5" font-family="Helvetica,sans-Serif" font-size="10.00">/base_core.hpp</text>
</a>
</g>
</g>
<!-- Node9&#45;&gt;Node10 -->
<g id="edge9" class="edge">
<title>Node9&#45;&gt;Node10</title>
<path fill="none" stroke="midnightblue" d="M624.75,-380.4C619.97,-372.22 613.84,-361.73 608.38,-352.39"/>
<polygon fill="midnightblue" stroke="midnightblue" points="611.3,-350.44 603.23,-343.58 605.25,-353.98 611.3,-350.44"/>
</g>
<!-- Node12 -->
<g id="node12" class="node">
<title>Node12</title>
<g id="a_node12"><a xlink:href="intrusive__ptr_8hpp.html" target="_top" xlink:title=" ">
<polygon fill="none" stroke="black" points="557.5,-179.5 557.5,-209.5 654.5,-209.5 654.5,-179.5 557.5,-179.5"/>
<text text-anchor="start" x="565.5" y="-197.5" font-family="Helvetica,sans-Serif" font-size="10.00">yaclib/util/intrusive</text>
<text text-anchor="middle" x="606" y="-186.5" font-family="Helvetica,sans-Serif" font-size="10.00">_ptr.hpp</text>
</a>
</g>
</g>
<!-- Node9&#45;&gt;Node12 -->
<g id="edge23" class="edge">
<title>Node9&#45;&gt;Node12</title>
<path fill="none" stroke="midnightblue" d="M639.91,-380.31C644.35,-370.4 649.69,-356.72 652,-344 654.47,-330.44 654.56,-326.54 652,-313 645.56,-278.91 629.49,-242.03 618.16,-218.86"/>
<polygon fill="midnightblue" stroke="midnightblue" points="621.24,-217.19 613.64,-209.81 614.98,-220.32 621.24,-217.19"/>
</g>
<!-- Node17 -->
<g id="node17" class="node">
<title>Node17</title>
<g id="a_node17"><a xlink:href="result_8hpp.html" target="_top" xlink:title=" ">
<polygon fill="none" stroke="black" points="209,-319 209,-338 311,-338 311,-319 209,-319"/>
<text text-anchor="middle" x="260" y="-326" font-family="Helvetica,sans-Serif" font-size="10.00">yaclib/util/result.hpp</text>
</a>
</g>
</g>
<!-- Node9&#45;&gt;Node17 -->
<g id="edge24" class="edge">
<title>Node9&#45;&gt;Node17</title>
<path fill="none" stroke="midnightblue" d="M584.62,-386.07C516.47,-374.19 392.33,-352.56 318.9,-339.76"/>
<polygon fill="midnightblue" stroke="midnightblue" points="319.34,-336.29 308.89,-338.02 318.14,-343.18 319.34,-336.29"/>
</g>
<!-- Node10&#45;&gt;Node2 -->
<g id="edge10" class="edge">
<title>Node10&#45;&gt;Node2</title>
<path fill="none" stroke="midnightblue" d="M546.8,-314.11C509.67,-303.8 458.22,-289.5 418.87,-278.57"/>
<polygon fill="midnightblue" stroke="midnightblue" points="419.71,-275.18 409.14,-275.87 417.84,-281.92 419.71,-275.18"/>
</g>
<!-- Node10&#45;&gt;Node6 -->
<g id="edge20" class="edge">
<title>Node10&#45;&gt;Node6</title>
<path fill="none" stroke="midnightblue" d="M593.5,-313.37C591.33,-296.64 586.38,-268.25 576,-246 567.55,-227.87 558.3,-227.71 549,-210 526.95,-168.02 512.08,-113.9 505.26,-85.8"/>
<polygon fill="midnightblue" stroke="midnightblue" points="508.6,-84.7 502.91,-75.77 501.79,-86.3 508.6,-84.7"/>
</g>
<!-- Node11 -->
<g id="node11" class="node">
<title>Node11</title>
<g id="a_node11"><a xlink:href="executor_8hpp.html" target="_top" xlink:title=" ">
<polygon fill="none" stroke="black" points="427.5,-252 427.5,-271 566.5,-271 566.5,-252 427.5,-252"/>
<text text-anchor="middle" x="497" y="-259" font-family="Helvetica,sans-Serif" font-size="10.00">yaclib/executor/executor.hpp</text>
</a>
</g>
</g>
<!-- Node10&#45;&gt;Node11 -->
<g id="edge11" class="edge">
<title>Node10&#45;&gt;Node11</title>
<path fill="none" stroke="midnightblue" d="M573.74,-313.4C557.3,-302.5 534.66,-287.48 518.23,-276.58"/>
<polygon fill="midnightblue" stroke="midnightblue" points="520.09,-273.62 509.83,-271.01 516.22,-279.45 520.09,-273.62"/>
</g>
<!-- Node10&#45;&gt;Node12 -->
<g id="edge19" class="edge">
<title>Node10&#45;&gt;Node12</title>
<path fill="none" stroke="midnightblue" d="M600.1,-313.13C603.37,-303.14 607.31,-289.44 609,-277 611.59,-257.96 610.59,-236.21 609.08,-219.97"/>
<polygon fill="midnightblue" stroke="midnightblue" points="612.53,-219.28 607.99,-209.71 605.57,-220.02 612.53,-219.28"/>
</g>
<!-- Node10&#45;&gt;Node16 -->
<g id="edge21" class="edge">
<title>Node10&#45;&gt;Node16</title>
<path fill="none" stroke="midnightblue" d="M643.21,-313.64C684.38,-301.79 742.89,-284.97 781.38,-273.89"/>
<polygon fill="midnightblue" stroke="midnightblue" points="782.55,-277.2 791.2,-271.07 780.62,-270.47 782.55,-277.2"/>
</g>
<!-- Node11&#45;&gt;Node3 -->
<g id="edge12" class="edge">
<title>Node11&#45;&gt;Node3</title>
<path fill="none" stroke="midnightblue" d="M485.54,-251.73C471.64,-241.11 448.02,-223.05 431.31,-210.26"/>
<polygon fill="midnightblue" stroke="midnightblue" points="433.35,-207.42 423.28,-204.13 429.1,-212.98 433.35,-207.42"/>
</g>
<!-- Node11&#45;&gt;Node12 -->
<g id="edge13" class="edge">
<title>Node11&#45;&gt;Node12</title>
<path fill="none" stroke="midnightblue" d="M511.7,-251.73C527.49,-242.32 553.09,-227.05 573.63,-214.8"/>
<polygon fill="midnightblue" stroke="midnightblue" points="575.58,-217.72 582.37,-209.59 571.99,-211.7 575.58,-217.72"/>
</g>
<!-- Node12&#45;&gt;Node6 -->
<g id="edge14" class="edge">
<title>Node12&#45;&gt;Node6</title>
<path fill="none" stroke="midnightblue" d="M591.68,-179.33C581.88,-169.43 568.78,-155.75 558,-143 541.45,-123.42 523.97,-99.59 512.81,-83.89"/>
<polygon fill="midnightblue" stroke="midnightblue" points="515.64,-81.84 507.01,-75.68 509.92,-85.87 515.64,-81.84"/>
</g>
<!-- Node12&#45;&gt;Node7 -->
<g id="edge15" class="edge">
<title>Node12&#45;&gt;Node7</title>
<path fill="none" stroke="midnightblue" d="M557.21,-189.81C507.38,-184.56 428.78,-172.08 367,-143 346.97,-133.57 347.28,-122.88 328,-112 302.61,-97.67 271.78,-86.28 247.6,-78.55"/>
<polygon fill="midnightblue" stroke="midnightblue" points="248.6,-75.2 238.01,-75.56 246.52,-81.88 248.6,-75.2"/>
</g>
<!-- Node13 -->
<g id="node13" class="node">
<title>Node13</title>
<g id="a_node13"><a xlink:href="intrusive__ptr__impl_8hpp.html" target="_top" xlink:title=" ">
<polygon fill="none" stroke="black" points="567,-112.5 567,-142.5 681,-142.5 681,-112.5 567,-112.5"/>
<text text-anchor="start" x="575" y="-130.5" font-family="Helvetica,sans-Serif" font-size="10.00">yaclib/util/detail</text>
<text text-anchor="middle" x="624" y="-119.5" font-family="Helvetica,sans-Serif" font-size="10.00">/intrusive_ptr_impl.hpp</text>
</a>
</g>
</g>
<!-- Node12&#45;&gt;Node13 -->
<g id="edge16" class="edge">
<title>Node12&#45;&gt;Node13</title>
<path fill="none" stroke="midnightblue" d="M609.91,-179.4C612.1,-171.47 614.9,-161.38 617.42,-152.27"/>
<polygon fill="midnightblue" stroke="midnightblue" points="620.81,-153.15 620.1,-142.58 614.06,-151.28 620.81,-153.15"/>
</g>
<!-- Node14 -->
<g id="node14" class="node">
<title>Node14</title>
<g id="a_node14"><a xlink:href="log_8hpp.html" target="_top" xlink:title=" ">
<polygon fill="none" stroke="black" points="586.5,-56.5 586.5,-75.5 661.5,-75.5 661.5,-56.5 586.5,-56.5"/>
<text text-anchor="middle" x="624" y="-63.5" font-family="Helvetica,sans-Serif" font-size="10.00">yaclib/log.hpp</text>
</a>
</g>
</g>
<!-- Node13&#45;&gt;Node14 -->
<g id="edge17" class="edge">
<title>Node13&#45;&gt;Node14</title>
<path fill="none" stroke="midnightblue" d="M624,-112.4C624,-104.47 624,-94.46 624,-85.86"/>
<polygon fill="midnightblue" stroke="midnightblue" points="627.5,-85.66 624,-75.66 620.5,-85.66 627.5,-85.66"/>
</g>
<!-- Node15 -->
<g id="node15" class="node">
<title>Node15</title>
<g id="a_node15"><a xlink:title=" ">
<polygon fill="none" stroke="#bfbfbf" points="591,-0.5 591,-19.5 657,-19.5 657,-0.5 591,-0.5"/>
<text text-anchor="middle" x="624" y="-7.5" font-family="Helvetica,sans-Serif" font-size="10.00">string_view</text>
</a>
</g>
</g>
<!-- Node14&#45;&gt;Node15 -->
<g id="edge18" class="edge">
<title>Node14&#45;&gt;Node15</title>
<path fill="none" stroke="midnightblue" d="M624,-56.08C624,-49.01 624,-38.86 624,-29.99"/>
<polygon fill="midnightblue" stroke="midnightblue" points="627.5,-29.75 624,-19.75 620.5,-29.75 627.5,-29.75"/>
</g>
<!-- Node18 -->
<g id="node18" class="node">
<title>Node18</title>
<g id="a_node18"><a xlink:href="type__traits_8hpp.html" target="_top" xlink:title=" ">
<polygon fill="none" stroke="black" points="69.5,-252 69.5,-271 192.5,-271 192.5,-252 69.5,-252"/>
<text text-anchor="middle" x="131" y="-259" font-family="Helvetica,sans-Serif" font-size="10.00">yaclib/util/type_traits.hpp</text>
</a>
</g>
</g>
<!-- Node17&#45;&gt;Node18 -->
<g id="edge25" class="edge">
<title>Node17&#45;&gt;Node18</title>
<path fill="none" stroke="midnightblue" d="M242.87,-318.87C220.99,-307.84 182.91,-288.66 157.33,-275.77"/>
<polygon fill="midnightblue" stroke="midnightblue" points="158.71,-272.54 148.2,-271.17 155.56,-278.79 158.71,-272.54"/>
</g>
<!-- Node21 -->
<g id="node21" class="node">
<title>Node21</title>
<g id="a_node21"><a xlink:title=" ">
<polygon fill="none" stroke="#bfbfbf" points="266,-185 266,-204 324,-204 324,-185 266,-185"/>
<text text-anchor="middle" x="295" y="-192" font-family="Helvetica,sans-Serif" font-size="10.00">exception</text>
</a>
</g>
</g>
<!-- Node17&#45;&gt;Node21 -->
<g id="edge32" class="edge">
<title>Node17&#45;&gt;Node21</title>
<path fill="none" stroke="midnightblue" d="M262.3,-318.84C267.91,-297.67 282.42,-242.95 290.09,-214.03"/>
<polygon fill="midnightblue" stroke="midnightblue" points="293.56,-214.58 292.74,-204.02 286.79,-212.79 293.56,-214.58"/>
</g>
<!-- Node22 -->
<g id="node22" class="node">
<title>Node22</title>
<g id="a_node22"><a xlink:title=" ">
<polygon fill="none" stroke="#bfbfbf" points="211,-252 211,-271 257,-271 257,-252 211,-252"/>
<text text-anchor="middle" x="234" y="-259" font-family="Helvetica,sans-Serif" font-size="10.00">variant</text>
</a>
</g>
</g>
<!-- Node17&#45;&gt;Node22 -->
<g id="edge33" class="edge">
<title>Node17&#45;&gt;Node22</title>
<path fill="none" stroke="midnightblue" d="M256.49,-318.73C252.6,-308.99 246.19,-292.98 241.21,-280.53"/>
<polygon fill="midnightblue" stroke="midnightblue" points="244.41,-279.11 237.45,-271.13 237.92,-281.71 244.41,-279.11"/>
</g>
<!-- Node18&#45;&gt;Node7 -->
<g id="edge31" class="edge">
<title>Node18&#45;&gt;Node7</title>
<path fill="none" stroke="midnightblue" d="M124.36,-251.97C106.46,-227.87 60.59,-158.01 92,-112 108.48,-87.85 140.05,-76.66 165.94,-71.47"/>
<polygon fill="midnightblue" stroke="midnightblue" points="166.67,-74.9 175.91,-69.71 165.45,-68.01 166.67,-74.9"/>
</g>
<!-- Node18&#45;&gt;Node19 -->
<g id="edge26" class="edge">
<title>Node18&#45;&gt;Node19</title>
<path fill="none" stroke="midnightblue" d="M130.89,-251.92C130.78,-237.04 130.84,-205.52 133,-179 133.87,-168.35 135.47,-156.51 136.93,-146.97"/>
<polygon fill="midnightblue" stroke="midnightblue" points="140.39,-147.47 138.51,-137.05 133.48,-146.37 140.39,-147.47"/>
</g>
<!-- Node20 -->
<g id="node20" class="node">
<title>Node20</title>
<g id="a_node20"><a xlink:href="type__traits__impl_8hpp.html" target="_top" xlink:title=" ">
<polygon fill="none" stroke="black" points="142,-179.5 142,-209.5 248,-209.5 248,-179.5 142,-179.5"/>
<text text-anchor="start" x="150" y="-197.5" font-family="Helvetica,sans-Serif" font-size="10.00">yaclib/util/detail</text>
<text text-anchor="middle" x="195" y="-186.5" font-family="Helvetica,sans-Serif" font-size="10.00">/type_traits_impl.hpp</text>
</a>
</g>
</g>
<!-- Node18&#45;&gt;Node20 -->
<g id="edge27" class="edge">
<title>Node18&#45;&gt;Node20</title>
<path fill="none" stroke="midnightblue" d="M139.63,-251.73C148.36,-242.86 162.2,-228.81 173.86,-216.97"/>
<polygon fill="midnightblue" stroke="midnightblue" points="176.61,-219.17 181.13,-209.59 171.62,-214.26 176.61,-219.17"/>
</g>
<!-- Node18&#45;&gt;Node21 -->
<g id="edge30" class="edge">
<title>Node18&#45;&gt;Node21</title>
<path fill="none" stroke="midnightblue" d="M152.78,-251.87C181.28,-240.57 231.43,-220.7 263.92,-207.82"/>
<polygon fill="midnightblue" stroke="midnightblue" points="265.39,-211 273.39,-204.06 262.81,-204.49 265.39,-211"/>
</g>
<!-- Node20&#45;&gt;Node7 -->
<g id="edge29" class="edge">
<title>Node20&#45;&gt;Node7</title>
<path fill="none" stroke="midnightblue" d="M196.33,-179.48C198.49,-156.72 202.76,-111.7 205.19,-86.06"/>
<polygon fill="midnightblue" stroke="midnightblue" points="208.71,-86.07 206.17,-75.79 201.74,-85.41 208.71,-86.07"/>
</g>
<!-- Node20&#45;&gt;Node19 -->
<g id="edge28" class="edge">
<title>Node20&#45;&gt;Node19</title>
<path fill="none" stroke="midnightblue" d="M183.07,-179.4C174.49,-169.26 162.9,-155.57 153.91,-144.94"/>
<polygon fill="midnightblue" stroke="midnightblue" points="156.49,-142.57 147.36,-137.19 151.14,-147.09 156.49,-142.57"/>
</g>
<!-- Node23&#45;&gt;Node8 -->
<g id="edge39" class="edge">
<title>Node23&#45;&gt;Node8</title>
<path fill="none" stroke="midnightblue" d="M869.74,-380.48C878.06,-353.51 892.89,-292.95 876,-246 850.06,-173.9 781.08,-110.22 747.26,-82.18"/>
<polygon fill="midnightblue" stroke="midnightblue" points="749.05,-79.12 739.08,-75.53 744.64,-84.56 749.05,-79.12"/>
</g>
<!-- Node23&#45;&gt;Node16 -->
<g id="edge40" class="edge">
<title>Node23&#45;&gt;Node16</title>
<path fill="none" stroke="midnightblue" d="M860.29,-380.37C852.26,-356.29 835.94,-307.31 827.07,-280.7"/>
<polygon fill="midnightblue" stroke="midnightblue" points="830.35,-279.48 823.87,-271.1 823.71,-281.69 830.35,-279.48"/>
</g>
<!-- Node24 -->
<g id="node24" class="node">
<title>Node24</title>
<g id="a_node24"><a xlink:title=" ">
<polygon fill="none" stroke="#bfbfbf" points="908,-319 908,-338 996,-338 996,-319 908,-319"/>
<text text-anchor="middle" x="952" y="-326" font-family="Helvetica,sans-Serif" font-size="10.00">yaclib/config.hpp</text>
</a>
</g>
</g>
<!-- Node23&#45;&gt;Node24 -->
<g id="edge37" class="edge">
<title>Node23&#45;&gt;Node24</title>
<path fill="none" stroke="midnightblue" d="M883.88,-380.4C898.11,-369.76 917.6,-355.2 932.08,-344.38"/>
<polygon fill="midnightblue" stroke="midnightblue" points="934.45,-346.98 940.36,-338.19 930.26,-341.38 934.45,-346.98"/>
</g>
<!-- Node23&#45;&gt;Node25 -->
<g id="edge38" class="edge">
<title>Node23&#45;&gt;Node25</title>
<path fill="none" stroke="midnightblue" d="M906.32,-380.42C934.34,-370.67 972.13,-357.13 1005,-344 1006.6,-343.36 1008.23,-342.69 1009.88,-342.01"/>
<polygon fill="midnightblue" stroke="midnightblue" points="1011.43,-345.15 1019.25,-338 1008.68,-338.72 1011.43,-345.15"/>
</g>
</g>
</svg>
