<?xml version="1.0" encoding="UTF-8" standalone="no"?>
<!DOCTYPE svg PUBLIC "-//W3C//DTD SVG 1.1//EN"
 "http://www.w3.org/Graphics/SVG/1.1/DTD/svg11.dtd">
<!-- Generated by graphviz version 3.0.0 (20220413.0106)
 -->
<!-- Title: include/yaclib/algo/detail/when_impl.hpp Pages: 1 -->
<svg width="1343pt" height="676pt"
 viewBox="0.00 0.00 1343.07 676.00" xmlns="http://www.w3.org/2000/svg" xmlns:xlink="http://www.w3.org/1999/xlink">
<g id="graph0" class="graph" transform="scale(1 1) rotate(0) translate(4 672)">
<title>include/yaclib/algo/detail/when_impl.hpp</title>
<!-- Node1 -->
<g id="node1" class="node">
<title>Node1</title>
<g id="a_node1"><a xlink:title=" ">
<polygon fill="#bfbfbf" stroke="black" points="586.07,-637.5 586.07,-667.5 696.07,-667.5 696.07,-637.5 586.07,-637.5"/>
<text text-anchor="start" x="594.07" y="-655.5" font-family="Helvetica,sans-Serif" font-size="10.00">include/yaclib/algo</text>
<text text-anchor="middle" x="641.07" y="-644.5" font-family="Helvetica,sans-Serif" font-size="10.00">/detail/when_impl.hpp</text>
</a>
</g>
</g>
<!-- Node2 -->
<g id="node2" class="node">
<title>Node2</title>
<g id="a_node2"><a xlink:href="future_8hpp.html" target="_top" xlink:title=" ">
<polygon fill="none" stroke="black" points="583.07,-581.5 583.07,-600.5 699.07,-600.5 699.07,-581.5 583.07,-581.5"/>
<text text-anchor="middle" x="641.07" y="-588.5" font-family="Helvetica,sans-Serif" font-size="10.00">yaclib/async/future.hpp</text>
</a>
</g>
</g>
<!-- Node1&#45;&gt;Node2 -->
<g id="edge1" class="edge">
<title>Node1&#45;&gt;Node2</title>
<path fill="none" stroke="midnightblue" d="M641.07,-637.4C641.07,-629.47 641.07,-619.46 641.07,-610.86"/>
<polygon fill="midnightblue" stroke="midnightblue" points="644.57,-610.66 641.07,-600.66 637.57,-610.66 644.57,-610.66"/>
</g>
<!-- Node11 -->
<g id="node11" class="node">
<title>Node11</title>
<g id="a_node11"><a xlink:title=" ">
<polygon fill="none" stroke="#bfbfbf" points="257.57,-56.5 257.57,-75.5 296.57,-75.5 296.57,-56.5 257.57,-56.5"/>
<text text-anchor="middle" x="277.07" y="-63.5" font-family="Helvetica,sans-Serif" font-size="10.00">utility</text>
</a>
</g>
</g>
<!-- Node1&#45;&gt;Node11 -->
<g id="edge71" class="edge">
<title>Node1&#45;&gt;Node11</title>
<path fill="none" stroke="midnightblue" d="M585.96,-652.05C437.1,-652.05 38.07,-641.68 38.07,-530.5 38.07,-530.5 38.07,-530.5 38.07,-193.5 38.07,-154.25 41.95,-137.16 72.07,-112 98.39,-90.02 196.8,-76.04 247.08,-70.17"/>
<polygon fill="midnightblue" stroke="midnightblue" points="247.78,-73.62 257.33,-69.01 247,-66.66 247.78,-73.62"/>
</g>
<!-- Node27 -->
<g id="node27" class="node">
<title>Node27</title>
<g id="a_node27"><a xlink:title=" ">
<polygon fill="none" stroke="#bfbfbf" points="1000.57,-252 1000.57,-271 1049.57,-271 1049.57,-252 1000.57,-252"/>
<text text-anchor="middle" x="1025.07" y="-259" font-family="Helvetica,sans-Serif" font-size="10.00">cstddef</text>
</a>
</g>
</g>
<!-- Node1&#45;&gt;Node27 -->
<g id="edge70" class="edge">
<title>Node1&#45;&gt;Node27</title>
<path fill="none" stroke="midnightblue" d="M696.11,-647.71C860.26,-635.67 1335.07,-595.24 1335.07,-530.5 1335.07,-530.5 1335.07,-530.5 1335.07,-394.5 1335.07,-350.3 1315.49,-336.53 1278.07,-313 1194.2,-260.26 1153.07,-305.15 1058.07,-277 1055.93,-276.36 1053.74,-275.62 1051.56,-274.82"/>
<polygon fill="midnightblue" stroke="midnightblue" points="1052.82,-271.55 1042.23,-271.02 1050.17,-278.03 1052.82,-271.55"/>
</g>
<!-- Node3 -->
<g id="node3" class="node">
<title>Node3</title>
<g id="a_node3"><a xlink:href="result__core_8hpp.html" target="_top" xlink:title=" ">
<polygon fill="none" stroke="black" points="398.07,-380.5 398.07,-410.5 494.07,-410.5 494.07,-380.5 398.07,-380.5"/>
<text text-anchor="start" x="406.07" y="-398.5" font-family="Helvetica,sans-Serif" font-size="10.00">yaclib/async/detail</text>
<text text-anchor="middle" x="446.07" y="-387.5" font-family="Helvetica,sans-Serif" font-size="10.00">/result_core.hpp</text>
</a>
</g>
</g>
<!-- Node2&#45;&gt;Node3 -->
<g id="edge2" class="edge">
<title>Node2&#45;&gt;Node3</title>
<path fill="none" stroke="midnightblue" d="M616.43,-581.47C578.15,-566.84 505.16,-533.07 470.07,-478 459.02,-460.65 452.89,-438.02 449.59,-421.01"/>
<polygon fill="midnightblue" stroke="midnightblue" points="452.97,-420.01 447.82,-410.75 446.08,-421.2 452.97,-420.01"/>
</g>
<!-- Node12 -->
<g id="node12" class="node">
<title>Node12</title>
<g id="a_node12"><a xlink:href="executor_8hpp.html" target="_top" xlink:title=" ">
<polygon fill="none" stroke="black" points="104.57,-252 104.57,-271 243.57,-271 243.57,-252 104.57,-252"/>
<text text-anchor="middle" x="174.07" y="-259" font-family="Helvetica,sans-Serif" font-size="10.00">yaclib/executor/executor.hpp</text>
</a>
</g>
</g>
<!-- Node2&#45;&gt;Node12 -->
<g id="edge35" class="edge">
<title>Node2&#45;&gt;Node12</title>
<path fill="none" stroke="midnightblue" d="M583,-589.21C438.82,-585.69 76.07,-566.59 76.07,-463.5 76.07,-463.5 76.07,-463.5 76.07,-394.5 76.07,-343.28 124.22,-299.01 153.02,-277.12"/>
<polygon fill="midnightblue" stroke="midnightblue" points="155.28,-279.8 161.26,-271.05 151.13,-274.16 155.28,-279.8"/>
</g>
<!-- Node19 -->
<g id="node19" class="node">
<title>Node19</title>
<g id="a_node19"><a xlink:href="type__traits_8hpp.html" target="_top" xlink:title=" ">
<polygon fill="none" stroke="black" points="778.57,-252 778.57,-271 901.57,-271 901.57,-252 778.57,-252"/>
<text text-anchor="middle" x="840.07" y="-259" font-family="Helvetica,sans-Serif" font-size="10.00">yaclib/util/type_traits.hpp</text>
</a>
</g>
</g>
<!-- Node2&#45;&gt;Node19 -->
<g id="edge43" class="edge">
<title>Node2&#45;&gt;Node19</title>
<path fill="none" stroke="midnightblue" d="M645.7,-581.39C656.03,-561.33 680.07,-509.69 680.07,-463.5 680.07,-463.5 680.07,-463.5 680.07,-394.5 680.07,-357.31 674.33,-340.77 699.07,-313 716.94,-292.95 743.35,-280.86 768.49,-273.57"/>
<polygon fill="midnightblue" stroke="midnightblue" points="769.66,-276.88 778.41,-270.91 767.84,-270.12 769.66,-276.88"/>
</g>
<!-- Node24 -->
<g id="node24" class="node">
<title>Node24</title>
<g id="a_node24"><a xlink:href="helper_8hpp.html" target="_top" xlink:title=" ">
<polygon fill="none" stroke="black" points="708.07,-386 708.07,-405 812.07,-405 812.07,-386 708.07,-386"/>
<text text-anchor="middle" x="760.07" y="-393" font-family="Helvetica,sans-Serif" font-size="10.00">yaclib/util/helper.hpp</text>
</a>
</g>
</g>
<!-- Node2&#45;&gt;Node24 -->
<g id="edge36" class="edge">
<title>Node2&#45;&gt;Node24</title>
<path fill="none" stroke="midnightblue" d="M654.3,-581.35C666.02,-573.14 682.93,-559.88 694.07,-545 725.25,-503.34 745.76,-444.63 754.79,-415.06"/>
<polygon fill="midnightblue" stroke="midnightblue" points="758.22,-415.83 757.69,-405.25 751.5,-413.85 758.22,-415.83"/>
</g>
<!-- Node28 -->
<g id="node28" class="node">
<title>Node28</title>
<g id="a_node28"><a xlink:href="future__impl_8hpp.html" target="_top" xlink:title=" ">
<polygon fill="none" stroke="black" points="555.07,-514.5 555.07,-544.5 651.07,-544.5 651.07,-514.5 555.07,-514.5"/>
<text text-anchor="start" x="563.07" y="-532.5" font-family="Helvetica,sans-Serif" font-size="10.00">yaclib/async/detail</text>
<text text-anchor="middle" x="603.07" y="-521.5" font-family="Helvetica,sans-Serif" font-size="10.00">/future_impl.hpp</text>
</a>
</g>
</g>
<!-- Node2&#45;&gt;Node28 -->
<g id="edge44" class="edge">
<title>Node2&#45;&gt;Node28</title>
<path fill="none" stroke="midnightblue" d="M635.63,-581.48C630.91,-574.09 623.88,-563.08 617.55,-553.17"/>
<polygon fill="midnightblue" stroke="midnightblue" points="620.36,-551.07 612.03,-544.52 614.46,-554.83 620.36,-551.07"/>
</g>
<!-- Node4 -->
<g id="node4" class="node">
<title>Node4</title>
<g id="a_node4"><a xlink:href="base__core_8hpp.html" target="_top" xlink:title=" ">
<polygon fill="none" stroke="black" points="398.07,-313.5 398.07,-343.5 494.07,-343.5 494.07,-313.5 398.07,-313.5"/>
<text text-anchor="start" x="406.07" y="-331.5" font-family="Helvetica,sans-Serif" font-size="10.00">yaclib/async/detail</text>
<text text-anchor="middle" x="446.07" y="-320.5" font-family="Helvetica,sans-Serif" font-size="10.00">/base_core.hpp</text>
</a>
</g>
</g>
<!-- Node3&#45;&gt;Node4 -->
<g id="edge3" class="edge">
<title>Node3&#45;&gt;Node4</title>
<path fill="none" stroke="midnightblue" d="M446.07,-380.4C446.07,-372.64 446.07,-362.81 446.07,-353.86"/>
<polygon fill="midnightblue" stroke="midnightblue" points="449.57,-353.58 446.07,-343.58 442.57,-353.58 449.57,-353.58"/>
</g>
<!-- Node5 -->
<g id="node5" class="node">
<title>Node5</title>
<g id="a_node5"><a xlink:href="inline__core_8hpp.html" target="_top" xlink:title=" ">
<polygon fill="none" stroke="black" points="262.07,-246.5 262.07,-276.5 358.07,-276.5 358.07,-246.5 262.07,-246.5"/>
<text text-anchor="start" x="270.07" y="-264.5" font-family="Helvetica,sans-Serif" font-size="10.00">yaclib/async/detail</text>
<text text-anchor="middle" x="310.07" y="-253.5" font-family="Helvetica,sans-Serif" font-size="10.00">/inline_core.hpp</text>
</a>
</g>
</g>
<!-- Node3&#45;&gt;Node5 -->
<g id="edge22" class="edge">
<title>Node3&#45;&gt;Node5</title>
<path fill="none" stroke="midnightblue" d="M411.07,-380.37C393.06,-371.83 371.68,-359.56 356.07,-344 339.53,-327.5 327.06,-303.83 319.31,-286.24"/>
<polygon fill="midnightblue" stroke="midnightblue" points="322.39,-284.55 315.29,-276.69 315.94,-287.27 322.39,-284.55"/>
</g>
<!-- Node3&#45;&gt;Node11 -->
<g id="edge34" class="edge">
<title>Node3&#45;&gt;Node11</title>
<path fill="none" stroke="midnightblue" d="M397.99,-394.73C319.38,-392.18 165.09,-374.27 95.07,-277 52.23,-217.48 49.87,-169.74 95.07,-112 113.64,-88.28 200.49,-75.34 247.19,-69.99"/>
<polygon fill="midnightblue" stroke="midnightblue" points="247.76,-73.44 257.32,-68.87 246.99,-66.49 247.76,-73.44"/>
</g>
<!-- Node13 -->
<g id="node13" class="node">
<title>Node13</title>
<g id="a_node13"><a xlink:href="intrusive__ptr_8hpp.html" target="_top" xlink:title=" ">
<polygon fill="none" stroke="black" points="375.57,-179.5 375.57,-209.5 472.57,-209.5 472.57,-179.5 375.57,-179.5"/>
<text text-anchor="start" x="383.57" y="-197.5" font-family="Helvetica,sans-Serif" font-size="10.00">yaclib/util/intrusive</text>
<text text-anchor="middle" x="424.07" y="-186.5" font-family="Helvetica,sans-Serif" font-size="10.00">_ptr.hpp</text>
</a>
</g>
</g>
<!-- Node3&#45;&gt;Node13 -->
<g id="edge23" class="edge">
<title>Node3&#45;&gt;Node13</title>
<path fill="none" stroke="midnightblue" d="M422.19,-380.41C409.82,-371.66 395.91,-359.19 389.07,-344 370.14,-301.93 393.17,-248.38 409.82,-218.43"/>
<polygon fill="midnightblue" stroke="midnightblue" points="412.96,-219.99 414.95,-209.58 406.91,-216.48 412.96,-219.99"/>
</g>
<!-- Node18 -->
<g id="node18" class="node">
<title>Node18</title>
<g id="a_node18"><a xlink:href="result_8hpp.html" target="_top" xlink:title=" ">
<polygon fill="none" stroke="black" points="512.07,-319 512.07,-338 614.07,-338 614.07,-319 512.07,-319"/>
<text text-anchor="middle" x="563.07" y="-326" font-family="Helvetica,sans-Serif" font-size="10.00">yaclib/util/result.hpp</text>
</a>
</g>
</g>
<!-- Node3&#45;&gt;Node18 -->
<g id="edge24" class="edge">
<title>Node3&#45;&gt;Node18</title>
<path fill="none" stroke="midnightblue" d="M471.46,-380.4C491.44,-369.29 519.12,-353.92 538.8,-342.98"/>
<polygon fill="midnightblue" stroke="midnightblue" points="540.72,-345.92 547.76,-338.01 537.32,-339.8 540.72,-345.92"/>
</g>
<!-- Node4&#45;&gt;Node5 -->
<g id="edge4" class="edge">
<title>Node4&#45;&gt;Node5</title>
<path fill="none" stroke="midnightblue" d="M416.56,-313.4C396.69,-303.9 370.28,-291.28 348.73,-280.98"/>
<polygon fill="midnightblue" stroke="midnightblue" points="350.06,-277.73 339.53,-276.58 347.04,-284.05 350.06,-277.73"/>
</g>
<!-- Node9 -->
<g id="node9" class="node">
<title>Node9</title>
<g id="a_node9"><a xlink:href="ref_8hpp.html" target="_top" xlink:title=" ">
<polygon fill="none" stroke="black" points="476.57,-56.5 476.57,-75.5 565.57,-75.5 565.57,-56.5 476.57,-56.5"/>
<text text-anchor="middle" x="521.07" y="-63.5" font-family="Helvetica,sans-Serif" font-size="10.00">yaclib/util/ref.hpp</text>
</a>
</g>
</g>
<!-- Node4&#45;&gt;Node9 -->
<g id="edge20" class="edge">
<title>Node4&#45;&gt;Node9</title>
<path fill="none" stroke="midnightblue" d="M451.33,-313.32C462.57,-282.61 489.27,-207.54 506.07,-143 511.09,-123.71 515.33,-101.28 518.01,-85.81"/>
<polygon fill="midnightblue" stroke="midnightblue" points="521.53,-85.95 519.74,-75.51 514.63,-84.79 521.53,-85.95"/>
</g>
<!-- Node4&#45;&gt;Node12 -->
<g id="edge11" class="edge">
<title>Node4&#45;&gt;Node12</title>
<path fill="none" stroke="midnightblue" d="M398.07,-316.03C347.7,-303.99 269.12,-285.21 219.67,-273.4"/>
<polygon fill="midnightblue" stroke="midnightblue" points="220.43,-269.98 209.89,-271.06 218.8,-276.79 220.43,-269.98"/>
</g>
<!-- Node4&#45;&gt;Node13 -->
<g id="edge19" class="edge">
<title>Node4&#45;&gt;Node13</title>
<path fill="none" stroke="midnightblue" d="M443.72,-313.37C439.98,-290.94 432.64,-246.92 428.07,-219.49"/>
<polygon fill="midnightblue" stroke="midnightblue" points="431.51,-218.81 426.41,-209.52 424.6,-219.96 431.51,-218.81"/>
</g>
<!-- Node17 -->
<g id="node17" class="node">
<title>Node17</title>
<g id="a_node17"><a xlink:title=" ">
<polygon fill="none" stroke="#bfbfbf" points="528.07,-252 528.07,-271 620.07,-271 620.07,-252 528.07,-252"/>
<text text-anchor="middle" x="574.07" y="-259" font-family="Helvetica,sans-Serif" font-size="10.00">yaclib_std/atomic</text>
</a>
</g>
</g>
<!-- Node4&#45;&gt;Node17 -->
<g id="edge21" class="edge">
<title>Node4&#45;&gt;Node17</title>
<path fill="none" stroke="midnightblue" d="M473.85,-313.4C496.01,-302.14 526.81,-286.5 548.4,-275.54"/>
<polygon fill="midnightblue" stroke="midnightblue" points="549.99,-278.66 557.32,-271.01 546.82,-272.41 549.99,-278.66"/>
</g>
<!-- Node6 -->
<g id="node6" class="node">
<title>Node6</title>
<g id="a_node6"><a xlink:href="job_8hpp.html" target="_top" xlink:title=" ">
<polygon fill="none" stroke="black" points="179.57,-185 179.57,-204 294.57,-204 294.57,-185 179.57,-185"/>
<text text-anchor="middle" x="237.07" y="-192" font-family="Helvetica,sans-Serif" font-size="10.00">yaclib/executor/job.hpp</text>
</a>
</g>
</g>
<!-- Node5&#45;&gt;Node6 -->
<g id="edge5" class="edge">
<title>Node5&#45;&gt;Node6</title>
<path fill="none" stroke="midnightblue" d="M294.23,-246.4C282.51,-235.96 266.55,-221.75 254.48,-211"/>
<polygon fill="midnightblue" stroke="midnightblue" points="256.63,-208.23 246.84,-204.19 251.98,-213.46 256.63,-208.23"/>
</g>
<!-- Node7 -->
<g id="node7" class="node">
<title>Node7</title>
<g id="a_node7"><a xlink:href="node_8hpp.html" target="_top" xlink:title=" ">
<polygon fill="none" stroke="black" points="104.57,-112.5 104.57,-142.5 187.57,-142.5 187.57,-112.5 104.57,-112.5"/>
<text text-anchor="start" x="112.57" y="-130.5" font-family="Helvetica,sans-Serif" font-size="10.00">yaclib/util/detail</text>
<text text-anchor="middle" x="146.07" y="-119.5" font-family="Helvetica,sans-Serif" font-size="10.00">/node.hpp</text>
</a>
</g>
</g>
<!-- Node6&#45;&gt;Node7 -->
<g id="edge6" class="edge">
<title>Node6&#45;&gt;Node7</title>
<path fill="none" stroke="midnightblue" d="M224.8,-184.73C211.91,-175.53 191.2,-160.73 174.25,-148.63"/>
<polygon fill="midnightblue" stroke="midnightblue" points="175.97,-145.55 165.8,-142.59 171.9,-151.25 175.97,-145.55"/>
</g>
<!-- Node8 -->
<g id="node8" class="node">
<title>Node8</title>
<g id="a_node8"><a xlink:href="func_8hpp.html" target="_top" xlink:title=" ">
<polygon fill="none" stroke="black" points="376.57,-118 376.57,-137 473.57,-137 473.57,-118 376.57,-118"/>
<text text-anchor="middle" x="425.07" y="-125" font-family="Helvetica,sans-Serif" font-size="10.00">yaclib/util/func.hpp</text>
</a>
</g>
</g>
<!-- Node6&#45;&gt;Node8 -->
<g id="edge7" class="edge">
<title>Node6&#45;&gt;Node8</title>
<path fill="none" stroke="midnightblue" d="M262.04,-184.87C295,-173.47 353.19,-153.35 390.4,-140.49"/>
<polygon fill="midnightblue" stroke="midnightblue" points="392,-143.64 400.3,-137.06 389.71,-137.02 392,-143.64"/>
</g>
<!-- Node8&#45;&gt;Node9 -->
<g id="edge8" class="edge">
<title>Node8&#45;&gt;Node9</title>
<path fill="none" stroke="midnightblue" d="M438.83,-117.98C454.44,-108.3 480.14,-92.37 498.66,-80.89"/>
<polygon fill="midnightblue" stroke="midnightblue" points="500.69,-83.75 507.34,-75.51 497,-77.8 500.69,-83.75"/>
</g>
<!-- Node10 -->
<g id="node10" class="node">
<title>Node10</title>
<g id="a_node10"><a xlink:title=" ">
<polygon fill="none" stroke="#bfbfbf" points="894.07,-56.5 894.07,-75.5 956.07,-75.5 956.07,-56.5 894.07,-56.5"/>
<text text-anchor="middle" x="925.07" y="-63.5" font-family="Helvetica,sans-Serif" font-size="10.00">type_traits</text>
</a>
</g>
</g>
<!-- Node8&#45;&gt;Node10 -->
<g id="edge9" class="edge">
<title>Node8&#45;&gt;Node10</title>
<path fill="none" stroke="midnightblue" d="M473.93,-120.69C572.24,-108.99 792.38,-82.79 883.92,-71.9"/>
<polygon fill="midnightblue" stroke="midnightblue" points="884.4,-75.36 893.92,-70.71 883.57,-68.41 884.4,-75.36"/>
</g>
<!-- Node8&#45;&gt;Node11 -->
<g id="edge10" class="edge">
<title>Node8&#45;&gt;Node11</title>
<path fill="none" stroke="midnightblue" d="M403.87,-117.98C378.27,-107.68 335.09,-90.32 306.34,-78.76"/>
<polygon fill="midnightblue" stroke="midnightblue" points="307.4,-75.42 296.82,-74.94 304.79,-81.92 307.4,-75.42"/>
</g>
<!-- Node12&#45;&gt;Node6 -->
<g id="edge12" class="edge">
<title>Node12&#45;&gt;Node6</title>
<path fill="none" stroke="midnightblue" d="M182.57,-251.73C192.58,-241.4 209.41,-224.04 221.73,-211.33"/>
<polygon fill="midnightblue" stroke="midnightblue" points="224.26,-213.74 228.71,-204.13 219.24,-208.87 224.26,-213.74"/>
</g>
<!-- Node12&#45;&gt;Node13 -->
<g id="edge13" class="edge">
<title>Node12&#45;&gt;Node13</title>
<path fill="none" stroke="midnightblue" d="M207.01,-251.94C247.2,-241.49 315.88,-223.63 365.24,-210.8"/>
<polygon fill="midnightblue" stroke="midnightblue" points="366.35,-214.13 375.14,-208.22 364.59,-207.35 366.35,-214.13"/>
</g>
<!-- Node13&#45;&gt;Node9 -->
<g id="edge14" class="edge">
<title>Node13&#45;&gt;Node9</title>
<path fill="none" stroke="midnightblue" d="M444.48,-179.3C456.77,-170.01 472.12,-157.02 483.07,-143 497.08,-125.07 508,-101.16 514.47,-84.99"/>
<polygon fill="midnightblue" stroke="midnightblue" points="517.75,-86.2 518.07,-75.61 511.22,-83.69 517.75,-86.2"/>
</g>
<!-- Node13&#45;&gt;Node10 -->
<g id="edge15" class="edge">
<title>Node13&#45;&gt;Node10</title>
<path fill="none" stroke="midnightblue" d="M472.79,-180.86C535.16,-164.71 646.58,-135.98 742.07,-112 790.8,-99.76 846.92,-86.02 884.03,-76.97"/>
<polygon fill="midnightblue" stroke="midnightblue" points="885.08,-80.32 893.97,-74.55 883.42,-73.52 885.08,-80.32"/>
</g>
<!-- Node14 -->
<g id="node14" class="node">
<title>Node14</title>
<g id="a_node14"><a xlink:href="intrusive__ptr__impl_8hpp.html" target="_top" xlink:title=" ">
<polygon fill="none" stroke="black" points="206.07,-112.5 206.07,-142.5 320.07,-142.5 320.07,-112.5 206.07,-112.5"/>
<text text-anchor="start" x="214.07" y="-130.5" font-family="Helvetica,sans-Serif" font-size="10.00">yaclib/util/detail</text>
<text text-anchor="middle" x="263.07" y="-119.5" font-family="Helvetica,sans-Serif" font-size="10.00">/intrusive_ptr_impl.hpp</text>
</a>
</g>
</g>
<!-- Node13&#45;&gt;Node14 -->
<g id="edge16" class="edge">
<title>Node13&#45;&gt;Node14</title>
<path fill="none" stroke="midnightblue" d="M389.14,-179.4C365.19,-169.73 333.23,-156.82 307.47,-146.43"/>
<polygon fill="midnightblue" stroke="midnightblue" points="308.52,-143.07 297.94,-142.58 305.9,-149.57 308.52,-143.07"/>
</g>
<!-- Node15 -->
<g id="node15" class="node">
<title>Node15</title>
<g id="a_node15"><a xlink:href="log_8hpp.html" target="_top" xlink:title=" ">
<polygon fill="none" stroke="black" points="93.57,-56.5 93.57,-75.5 168.57,-75.5 168.57,-56.5 93.57,-56.5"/>
<text text-anchor="middle" x="131.07" y="-63.5" font-family="Helvetica,sans-Serif" font-size="10.00">yaclib/log.hpp</text>
</a>
</g>
</g>
<!-- Node14&#45;&gt;Node15 -->
<g id="edge17" class="edge">
<title>Node14&#45;&gt;Node15</title>
<path fill="none" stroke="midnightblue" d="M231.79,-112.4C209.84,-102.51 180.73,-89.38 159.45,-79.79"/>
<polygon fill="midnightblue" stroke="midnightblue" points="160.84,-76.58 150.28,-75.66 157.96,-82.96 160.84,-76.58"/>
</g>
<!-- Node16 -->
<g id="node16" class="node">
<title>Node16</title>
<g id="a_node16"><a xlink:title=" ">
<polygon fill="none" stroke="#bfbfbf" points="98.07,-0.5 98.07,-19.5 164.07,-19.5 164.07,-0.5 98.07,-0.5"/>
<text text-anchor="middle" x="131.07" y="-7.5" font-family="Helvetica,sans-Serif" font-size="10.00">string_view</text>
</a>
</g>
</g>
<!-- Node15&#45;&gt;Node16 -->
<g id="edge18" class="edge">
<title>Node15&#45;&gt;Node16</title>
<path fill="none" stroke="midnightblue" d="M131.07,-56.08C131.07,-49.01 131.07,-38.86 131.07,-29.99"/>
<polygon fill="midnightblue" stroke="midnightblue" points="134.57,-29.75 131.07,-19.75 127.57,-29.75 134.57,-29.75"/>
</g>
<!-- Node18&#45;&gt;Node19 -->
<g id="edge25" class="edge">
<title>Node18&#45;&gt;Node19</title>
<path fill="none" stroke="midnightblue" d="M599.57,-318.94C649.5,-307.22 739.11,-286.19 793.72,-273.38"/>
<polygon fill="midnightblue" stroke="midnightblue" points="794.56,-276.78 803.49,-271.08 792.96,-269.96 794.56,-276.78"/>
</g>
<!-- Node22 -->
<g id="node22" class="node">
<title>Node22</title>
<g id="a_node22"><a xlink:title=" ">
<polygon fill="none" stroke="#bfbfbf" points="560.07,-185 560.07,-204 618.07,-204 618.07,-185 560.07,-185"/>
<text text-anchor="middle" x="589.07" y="-192" font-family="Helvetica,sans-Serif" font-size="10.00">exception</text>
</a>
</g>
</g>
<!-- Node18&#45;&gt;Node22 -->
<g id="edge32" class="edge">
<title>Node18&#45;&gt;Node22</title>
<path fill="none" stroke="midnightblue" d="M551.9,-318.87C541.15,-309.79 525.6,-294.42 519.07,-277 514.24,-264.1 512.8,-258.27 519.07,-246 527.55,-229.43 544.28,-217.05 559.26,-208.69"/>
<polygon fill="midnightblue" stroke="midnightblue" points="561.01,-211.73 568.27,-204.01 557.79,-205.52 561.01,-211.73"/>
</g>
<!-- Node23 -->
<g id="node23" class="node">
<title>Node23</title>
<g id="a_node23"><a xlink:title=" ">
<polygon fill="none" stroke="#bfbfbf" points="638.07,-252 638.07,-271 684.07,-271 684.07,-252 638.07,-252"/>
<text text-anchor="middle" x="661.07" y="-259" font-family="Helvetica,sans-Serif" font-size="10.00">variant</text>
</a>
</g>
</g>
<!-- Node18&#45;&gt;Node23 -->
<g id="edge33" class="edge">
<title>Node18&#45;&gt;Node23</title>
<path fill="none" stroke="midnightblue" d="M576.29,-318.73C592.53,-307.96 620.29,-289.55 639.6,-276.74"/>
<polygon fill="midnightblue" stroke="midnightblue" points="641.67,-279.57 648.07,-271.13 637.8,-273.74 641.67,-279.57"/>
</g>
<!-- Node19&#45;&gt;Node10 -->
<g id="edge31" class="edge">
<title>Node19&#45;&gt;Node10</title>
<path fill="none" stroke="midnightblue" d="M852.09,-251.85C863.83,-242.76 881.31,-227.38 891.07,-210 913.81,-169.52 921.4,-114.35 923.89,-85.82"/>
<polygon fill="midnightblue" stroke="midnightblue" points="927.4,-85.88 924.66,-75.65 920.42,-85.36 927.4,-85.88"/>
</g>
<!-- Node20 -->
<g id="node20" class="node">
<title>Node20</title>
<g id="a_node20"><a xlink:href="fwd_8hpp.html" target="_top" xlink:title=" ">
<polygon fill="none" stroke="black" points="751.07,-118 751.07,-137 829.07,-137 829.07,-118 751.07,-118"/>
<text text-anchor="middle" x="790.07" y="-125" font-family="Helvetica,sans-Serif" font-size="10.00">yaclib/fwd.hpp</text>
</a>
</g>
</g>
<!-- Node19&#45;&gt;Node20 -->
<g id="edge26" class="edge">
<title>Node19&#45;&gt;Node20</title>
<path fill="none" stroke="midnightblue" d="M817.71,-251.91C800.41,-243.92 777.66,-230.2 767.07,-210 756.23,-189.32 767.7,-162.93 777.96,-145.87"/>
<polygon fill="midnightblue" stroke="midnightblue" points="781.19,-147.32 783.69,-137.02 775.32,-143.52 781.19,-147.32"/>
</g>
<!-- Node21 -->
<g id="node21" class="node">
<title>Node21</title>
<g id="a_node21"><a xlink:href="type__traits__impl_8hpp.html" target="_top" xlink:title=" ">
<polygon fill="none" stroke="black" points="776.07,-179.5 776.07,-209.5 882.07,-209.5 882.07,-179.5 776.07,-179.5"/>
<text text-anchor="start" x="784.07" y="-197.5" font-family="Helvetica,sans-Serif" font-size="10.00">yaclib/util/detail</text>
<text text-anchor="middle" x="829.07" y="-186.5" font-family="Helvetica,sans-Serif" font-size="10.00">/type_traits_impl.hpp</text>
</a>
</g>
</g>
<!-- Node19&#45;&gt;Node21 -->
<g id="edge27" class="edge">
<title>Node19&#45;&gt;Node21</title>
<path fill="none" stroke="midnightblue" d="M838.59,-251.73C837.2,-243.54 835.07,-230.92 833.17,-219.71"/>
<polygon fill="midnightblue" stroke="midnightblue" points="836.58,-218.86 831.46,-209.59 829.68,-220.03 836.58,-218.86"/>
</g>
<!-- Node19&#45;&gt;Node22 -->
<g id="edge30" class="edge">
<title>Node19&#45;&gt;Node22</title>
<path fill="none" stroke="midnightblue" d="M807,-251.94C760.89,-240 677.44,-218.38 628.26,-205.65"/>
<polygon fill="midnightblue" stroke="midnightblue" points="628.87,-202.19 618.32,-203.07 627.12,-208.97 628.87,-202.19"/>
</g>
<!-- Node21&#45;&gt;Node10 -->
<g id="edge29" class="edge">
<title>Node21&#45;&gt;Node10</title>
<path fill="none" stroke="midnightblue" d="M839.71,-179.48C857.45,-156.1 893.01,-109.25 912.15,-84.02"/>
<polygon fill="midnightblue" stroke="midnightblue" points="915.15,-85.87 918.4,-75.79 909.57,-81.64 915.15,-85.87"/>
</g>
<!-- Node21&#45;&gt;Node20 -->
<g id="edge28" class="edge">
<title>Node21&#45;&gt;Node20</title>
<path fill="none" stroke="midnightblue" d="M820.61,-179.4C814.71,-169.56 806.8,-156.38 800.51,-145.89"/>
<polygon fill="midnightblue" stroke="midnightblue" points="803.44,-143.97 795.29,-137.19 797.43,-147.57 803.44,-143.97"/>
</g>
<!-- Node24&#45;&gt;Node13 -->
<g id="edge42" class="edge">
<title>Node24&#45;&gt;Node13</title>
<path fill="none" stroke="midnightblue" d="M743.59,-385.99C729.05,-377.5 708.73,-363 699.07,-344 679.3,-305.1 721.95,-278.71 693.07,-246 679.28,-230.37 557.98,-212.44 483.05,-202.7"/>
<polygon fill="midnightblue" stroke="midnightblue" points="483.17,-199.19 472.81,-201.39 482.28,-206.13 483.17,-199.19"/>
</g>
<!-- Node25 -->
<g id="node25" class="node">
<title>Node25</title>
<g id="a_node25"><a xlink:href="atomic__counter_8hpp.html" target="_top" xlink:title=" ">
<polygon fill="none" stroke="black" points="708.07,-313.5 708.07,-343.5 812.07,-343.5 812.07,-313.5 708.07,-313.5"/>
<text text-anchor="start" x="716.07" y="-331.5" font-family="Helvetica,sans-Serif" font-size="10.00">yaclib/util/detail</text>
<text text-anchor="middle" x="760.07" y="-320.5" font-family="Helvetica,sans-Serif" font-size="10.00">/atomic_counter.hpp</text>
</a>
</g>
</g>
<!-- Node24&#45;&gt;Node25 -->
<g id="edge37" class="edge">
<title>Node24&#45;&gt;Node25</title>
<path fill="none" stroke="midnightblue" d="M760.07,-385.73C760.07,-377.54 760.07,-364.92 760.07,-353.71"/>
<polygon fill="midnightblue" stroke="midnightblue" points="763.57,-353.59 760.07,-343.59 756.57,-353.59 763.57,-353.59"/>
</g>
<!-- Node25&#45;&gt;Node11 -->
<g id="edge40" class="edge">
<title>Node25&#45;&gt;Node11</title>
<path fill="none" stroke="midnightblue" d="M753.68,-313.21C745.58,-296.07 730.43,-267.03 712.07,-246 680.44,-209.77 671.33,-197.86 627.07,-179 520.16,-133.44 474.33,-190.07 368.07,-143 363.82,-141.12 320.29,-104.07 295.01,-82.41"/>
<polygon fill="midnightblue" stroke="midnightblue" points="297.08,-79.58 287.21,-75.73 292.53,-84.89 297.08,-79.58"/>
</g>
<!-- Node25&#45;&gt;Node17 -->
<g id="edge41" class="edge">
<title>Node25&#45;&gt;Node17</title>
<path fill="none" stroke="midnightblue" d="M719.71,-313.4C686.36,-301.74 639.53,-285.37 608.06,-274.38"/>
<polygon fill="midnightblue" stroke="midnightblue" points="609.01,-271 598.42,-271.01 606.7,-277.61 609.01,-271"/>
</g>
<!-- Node26 -->
<g id="node26" class="node">
<title>Node26</title>
<g id="a_node26"><a xlink:title=" ">
<polygon fill="none" stroke="#bfbfbf" points="1067.07,-252 1067.07,-271 1155.07,-271 1155.07,-252 1067.07,-252"/>
<text text-anchor="middle" x="1111.07" y="-259" font-family="Helvetica,sans-Serif" font-size="10.00">yaclib/config.hpp</text>
</a>
</g>
</g>
<!-- Node25&#45;&gt;Node26 -->
<g id="edge38" class="edge">
<title>Node25&#45;&gt;Node26</title>
<path fill="none" stroke="midnightblue" d="M812.17,-319.38C884.87,-307.92 1013.02,-287.28 1059.07,-277 1063.52,-276.01 1068.14,-274.87 1072.73,-273.68"/>
<polygon fill="midnightblue" stroke="midnightblue" points="1073.86,-277 1082.6,-271.02 1072.03,-270.24 1073.86,-277"/>
</g>
<!-- Node25&#45;&gt;Node27 -->
<g id="edge39" class="edge">
<title>Node25&#45;&gt;Node27</title>
<path fill="none" stroke="midnightblue" d="M812.11,-314.74C864.83,-301.8 944.9,-282.16 990.35,-271.02"/>
<polygon fill="midnightblue" stroke="midnightblue" points="991.44,-274.35 1000.32,-268.57 989.77,-267.56 991.44,-274.35"/>
</g>
<!-- Node28&#45;&gt;Node15 -->
<g id="edge68" class="edge">
<title>Node28&#45;&gt;Node15</title>
<path fill="none" stroke="midnightblue" d="M555,-523.15C412.14,-505.93 0.07,-446.15 0.07,-329.5 0.07,-329.5 0.07,-329.5 0.07,-193.5 0.07,-155.74 -1.1,-140.15 24.07,-112 39.55,-94.69 62.78,-83.84 83.64,-77.15"/>
<polygon fill="midnightblue" stroke="midnightblue" points="84.75,-80.47 93.34,-74.27 82.75,-73.76 84.75,-80.47"/>
</g>
<!-- Node28&#45;&gt;Node18 -->
<g id="edge69" class="edge">
<title>Node28&#45;&gt;Node18</title>
<path fill="none" stroke="midnightblue" d="M600.2,-514.19C593.11,-478.91 574.79,-387.78 566.84,-348.25"/>
<polygon fill="midnightblue" stroke="midnightblue" points="570.26,-347.47 564.85,-338.36 563.39,-348.85 570.26,-347.47"/>
</g>
<!-- Node29 -->
<g id="node29" class="node">
<title>Node29</title>
<g id="a_node29"><a xlink:href="wait_8hpp.html" target="_top" xlink:title=" ">
<polygon fill="none" stroke="black" points="1011.57,-453 1011.57,-472 1112.57,-472 1112.57,-453 1011.57,-453"/>
<text text-anchor="middle" x="1062.07" y="-460" font-family="Helvetica,sans-Serif" font-size="10.00">yaclib/algo/wait.hpp</text>
</a>
</g>
</g>
<!-- Node28&#45;&gt;Node29 -->
<g id="edge45" class="edge">
<title>Node28&#45;&gt;Node29</title>
<path fill="none" stroke="midnightblue" d="M651.33,-521.67C735.52,-509.74 909.06,-485.17 1001.31,-472.1"/>
<polygon fill="midnightblue" stroke="midnightblue" points="1001.92,-475.55 1011.34,-470.69 1000.94,-468.62 1001.92,-475.55"/>
</g>
<!-- Node38 -->
<g id="node38" class="node">
<title>Node38</title>
<g id="a_node38"><a xlink:href="core_8hpp.html" target="_top" xlink:title=" ">
<polygon fill="none" stroke="black" points="479.07,-447.5 479.07,-477.5 575.07,-477.5 575.07,-447.5 479.07,-447.5"/>
<text text-anchor="start" x="487.07" y="-465.5" font-family="Helvetica,sans-Serif" font-size="10.00">yaclib/async/detail</text>
<text text-anchor="middle" x="527.07" y="-454.5" font-family="Helvetica,sans-Serif" font-size="10.00">/core.hpp</text>
</a>
</g>
</g>
<!-- Node28&#45;&gt;Node38 -->
<g id="edge65" class="edge">
<title>Node28&#45;&gt;Node38</title>
<path fill="none" stroke="midnightblue" d="M586.58,-514.4C576.22,-505.54 562.69,-493.96 551.14,-484.09"/>
<polygon fill="midnightblue" stroke="midnightblue" points="553.41,-481.42 543.53,-477.58 548.86,-486.74 553.41,-481.42"/>
</g>
<!-- Node29&#45;&gt;Node2 -->
<g id="edge61" class="edge">
<title>Node29&#45;&gt;Node2</title>
<path fill="none" stroke="midnightblue" d="M1033.7,-472.02C960.08,-494.15 762.82,-553.42 679.29,-578.52"/>
<polygon fill="midnightblue" stroke="midnightblue" points="678.25,-575.17 669.68,-581.4 680.26,-581.88 678.25,-575.17"/>
</g>
<!-- Node29&#45;&gt;Node26 -->
<g id="edge62" class="edge">
<title>Node29&#45;&gt;Node26</title>
<path fill="none" stroke="midnightblue" d="M1067.33,-452.9C1073.08,-443.11 1082.12,-426.47 1087.07,-411 1101.57,-365.75 1107.58,-309.81 1109.85,-281.24"/>
<polygon fill="midnightblue" stroke="midnightblue" points="1113.35,-281.31 1110.58,-271.08 1106.37,-280.8 1113.35,-281.31"/>
</g>
<!-- Node29&#45;&gt;Node27 -->
<g id="edge64" class="edge">
<title>Node29&#45;&gt;Node27</title>
<path fill="none" stroke="midnightblue" d="M1064.53,-452.71C1070.68,-429.07 1084.85,-362.58 1065.07,-313 1059.88,-299.98 1050.19,-287.61 1041.65,-278.37"/>
<polygon fill="midnightblue" stroke="midnightblue" points="1044.06,-275.84 1034.58,-271.12 1039.05,-280.72 1044.06,-275.84"/>
</g>
<!-- Node30 -->
<g id="node30" class="node">
<title>Node30</title>
<g id="a_node30"><a xlink:href="wait__impl_8hpp.html" target="_top" xlink:title=" ">
<polygon fill="none" stroke="black" points="972.57,-380.5 972.57,-410.5 1061.57,-410.5 1061.57,-380.5 972.57,-380.5"/>
<text text-anchor="start" x="980.57" y="-398.5" font-family="Helvetica,sans-Serif" font-size="10.00">yaclib/algo/detail</text>
<text text-anchor="middle" x="1017.07" y="-387.5" font-family="Helvetica,sans-Serif" font-size="10.00">/wait_impl.hpp</text>
</a>
</g>
</g>
<!-- Node29&#45;&gt;Node30 -->
<g id="edge46" class="edge">
<title>Node29&#45;&gt;Node30</title>
<path fill="none" stroke="midnightblue" d="M1056,-452.73C1050.04,-444.12 1040.69,-430.61 1032.64,-418.99"/>
<polygon fill="midnightblue" stroke="midnightblue" points="1035.4,-416.82 1026.83,-410.59 1029.64,-420.8 1035.4,-416.82"/>
</g>
<!-- Node31 -->
<g id="node31" class="node">
<title>Node31</title>
<g id="a_node31"><a xlink:href="default__event_8hpp.html" target="_top" xlink:title=" ">
<polygon fill="none" stroke="black" points="1173.07,-313.5 1173.07,-343.5 1269.07,-343.5 1269.07,-313.5 1173.07,-313.5"/>
<text text-anchor="start" x="1181.07" y="-331.5" font-family="Helvetica,sans-Serif" font-size="10.00">yaclib/util/detail</text>
<text text-anchor="middle" x="1221.07" y="-320.5" font-family="Helvetica,sans-Serif" font-size="10.00">/default_event.hpp</text>
</a>
</g>
</g>
<!-- Node29&#45;&gt;Node31 -->
<g id="edge63" class="edge">
<title>Node29&#45;&gt;Node31</title>
<path fill="none" stroke="midnightblue" d="M1084.95,-452.98C1105.76,-444.48 1136.57,-429.96 1159.07,-411 1178.99,-394.22 1196.41,-369.96 1207.67,-352.28"/>
<polygon fill="midnightblue" stroke="midnightblue" points="1210.69,-354.05 1212.98,-343.7 1204.74,-350.36 1210.69,-354.05"/>
</g>
<!-- Node30&#45;&gt;Node4 -->
<g id="edge47" class="edge">
<title>Node30&#45;&gt;Node4</title>
<path fill="none" stroke="midnightblue" d="M972.43,-390.99C868.2,-382.65 610.29,-361.2 504.24,-343.98"/>
<polygon fill="midnightblue" stroke="midnightblue" points="504.61,-340.5 494.16,-342.28 503.44,-347.4 504.61,-340.5"/>
</g>
<!-- Node30&#45;&gt;Node10 -->
<g id="edge60" class="edge">
<title>Node30&#45;&gt;Node10</title>
<path fill="none" stroke="midnightblue" d="M1061.76,-391.63C1128.01,-386.44 1247.73,-373.21 1278.07,-344 1304.87,-318.2 1297.07,-299.69 1297.07,-262.5 1297.07,-262.5 1297.07,-262.5 1297.07,-193.5 1297.07,-124.23 1062.93,-85.25 966.16,-72.1"/>
<polygon fill="midnightblue" stroke="midnightblue" points="966.52,-68.62 956.15,-70.76 965.6,-75.55 966.52,-68.62"/>
</g>
<!-- Node30&#45;&gt;Node19 -->
<g id="edge57" class="edge">
<title>Node30&#45;&gt;Node19</title>
<path fill="none" stroke="midnightblue" d="M972.25,-391.67C936.92,-387.04 888.96,-375 860.07,-344 844.28,-327.05 840.39,-299.72 839.71,-281.44"/>
<polygon fill="midnightblue" stroke="midnightblue" points="843.21,-281.37 839.62,-271.4 836.21,-281.43 843.21,-281.37"/>
</g>
<!-- Node30&#45;&gt;Node25 -->
<g id="edge48" class="edge">
<title>Node30&#45;&gt;Node25</title>
<path fill="none" stroke="midnightblue" d="M972.31,-383.18C930.77,-372.67 868.57,-356.94 822.22,-345.22"/>
<polygon fill="midnightblue" stroke="midnightblue" points="822.85,-341.77 812.29,-342.71 821.13,-348.55 822.85,-341.77"/>
</g>
<!-- Node30&#45;&gt;Node27 -->
<g id="edge58" class="edge">
<title>Node30&#45;&gt;Node27</title>
<path fill="none" stroke="midnightblue" d="M1029.68,-380.19C1037.21,-370.66 1046.07,-357.45 1050.07,-344 1056.71,-321.71 1045.78,-296.07 1036.34,-279.6"/>
<polygon fill="midnightblue" stroke="midnightblue" points="1039.32,-277.75 1031.11,-271.05 1033.35,-281.41 1039.32,-277.75"/>
</g>
<!-- Node30&#45;&gt;Node31 -->
<g id="edge49" class="edge">
<title>Node30&#45;&gt;Node31</title>
<path fill="none" stroke="midnightblue" d="M1061.09,-380.48C1092.22,-370.56 1134.13,-357.2 1167.25,-346.65"/>
<polygon fill="midnightblue" stroke="midnightblue" points="1168.32,-349.98 1176.79,-343.61 1166.2,-343.31 1168.32,-349.98"/>
</g>
<!-- Node36 -->
<g id="node36" class="node">
<title>Node36</title>
<g id="a_node36"><a xlink:href="set__one__deleter_8hpp.html" target="_top" xlink:title=" ">
<polygon fill="none" stroke="black" points="868.57,-313.5 868.57,-343.5 975.57,-343.5 975.57,-313.5 868.57,-313.5"/>
<text text-anchor="start" x="876.57" y="-331.5" font-family="Helvetica,sans-Serif" font-size="10.00">yaclib/util/detail</text>
<text text-anchor="middle" x="922.07" y="-320.5" font-family="Helvetica,sans-Serif" font-size="10.00">/set_one_deleter.hpp</text>
</a>
</g>
</g>
<!-- Node30&#45;&gt;Node36 -->
<g id="edge56" class="edge">
<title>Node30&#45;&gt;Node36</title>
<path fill="none" stroke="midnightblue" d="M996.46,-380.4C983.14,-371.28 965.61,-359.29 950.92,-349.24"/>
<polygon fill="midnightblue" stroke="midnightblue" points="952.88,-346.33 942.65,-343.58 948.92,-352.11 952.88,-346.33"/>
</g>
<!-- Node37 -->
<g id="node37" class="node">
<title>Node37</title>
<g id="a_node37"><a xlink:title=" ">
<polygon fill="none" stroke="#bfbfbf" points="993.57,-319 993.57,-338 1040.57,-338 1040.57,-319 993.57,-319"/>
<text text-anchor="middle" x="1017.07" y="-326" font-family="Helvetica,sans-Serif" font-size="10.00">iterator</text>
</a>
</g>
</g>
<!-- Node30&#45;&gt;Node37 -->
<g id="edge59" class="edge">
<title>Node30&#45;&gt;Node37</title>
<path fill="none" stroke="midnightblue" d="M1017.07,-380.4C1017.07,-371.06 1017.07,-358.71 1017.07,-348.52"/>
<polygon fill="midnightblue" stroke="midnightblue" points="1020.57,-348.19 1017.07,-338.19 1013.57,-348.19 1020.57,-348.19"/>
</g>
<!-- Node31&#45;&gt;Node26 -->
<g id="edge50" class="edge">
<title>Node31&#45;&gt;Node26</title>
<path fill="none" stroke="midnightblue" d="M1197.2,-313.4C1178.5,-302.34 1152.64,-287.06 1134.14,-276.13"/>
<polygon fill="midnightblue" stroke="midnightblue" points="1135.86,-273.08 1125.47,-271.01 1132.3,-279.11 1135.86,-273.08"/>
</g>
<!-- Node32 -->
<g id="node32" class="node">
<title>Node32</title>
<g id="a_node32"><a xlink:href="mutex__event_8hpp.html" target="_top" xlink:title=" ">
<polygon fill="none" stroke="black" points="1172.57,-246.5 1172.57,-276.5 1265.57,-276.5 1265.57,-246.5 1172.57,-246.5"/>
<text text-anchor="start" x="1180.57" y="-264.5" font-family="Helvetica,sans-Serif" font-size="10.00">yaclib/util/detail</text>
<text text-anchor="middle" x="1219.07" y="-253.5" font-family="Helvetica,sans-Serif" font-size="10.00">/mutex_event.hpp</text>
</a>
</g>
</g>
<!-- Node31&#45;&gt;Node32 -->
<g id="edge51" class="edge">
<title>Node31&#45;&gt;Node32</title>
<path fill="none" stroke="midnightblue" d="M1220.64,-313.4C1220.4,-305.64 1220.1,-295.81 1219.82,-286.86"/>
<polygon fill="midnightblue" stroke="midnightblue" points="1223.31,-286.46 1219.51,-276.58 1216.32,-286.68 1223.31,-286.46"/>
</g>
<!-- Node32&#45;&gt;Node9 -->
<g id="edge52" class="edge">
<title>Node32&#45;&gt;Node9</title>
<path fill="none" stroke="midnightblue" d="M1172.31,-247.98C1169.53,-247.29 1166.77,-246.63 1164.07,-246 1085.9,-227.76 1061.28,-240.61 987.07,-210 913.8,-179.78 912.21,-140.03 838.07,-112 750.4,-78.86 640.7,-69.85 576.02,-67.57"/>
<polygon fill="midnightblue" stroke="midnightblue" points="575.75,-64.06 565.65,-67.24 575.54,-71.05 575.75,-64.06"/>
</g>
<!-- Node33 -->
<g id="node33" class="node">
<title>Node33</title>
<g id="a_node33"><a xlink:title=" ">
<polygon fill="none" stroke="#bfbfbf" points="1103.07,-185 1103.07,-204 1149.07,-204 1149.07,-185 1103.07,-185"/>
<text text-anchor="middle" x="1126.07" y="-192" font-family="Helvetica,sans-Serif" font-size="10.00">chrono</text>
</a>
</g>
</g>
<!-- Node32&#45;&gt;Node33 -->
<g id="edge53" class="edge">
<title>Node32&#45;&gt;Node33</title>
<path fill="none" stroke="midnightblue" d="M1198.89,-246.4C1183.44,-235.6 1162.21,-220.76 1146.66,-209.89"/>
<polygon fill="midnightblue" stroke="midnightblue" points="1148.45,-206.87 1138.24,-204.01 1144.44,-212.6 1148.45,-206.87"/>
</g>
<!-- Node34 -->
<g id="node34" class="node">
<title>Node34</title>
<g id="a_node34"><a xlink:title=" ">
<polygon fill="none" stroke="#bfbfbf" points="1167.07,-179.5 1167.07,-209.5 1269.07,-209.5 1269.07,-179.5 1167.07,-179.5"/>
<text text-anchor="start" x="1175.07" y="-197.5" font-family="Helvetica,sans-Serif" font-size="10.00">yaclib_std/condition</text>
<text text-anchor="middle" x="1218.07" y="-186.5" font-family="Helvetica,sans-Serif" font-size="10.00">_variable</text>
</a>
</g>
</g>
<!-- Node32&#45;&gt;Node34 -->
<g id="edge54" class="edge">
<title>Node32&#45;&gt;Node34</title>
<path fill="none" stroke="midnightblue" d="M1218.86,-246.4C1218.74,-238.64 1218.59,-228.81 1218.45,-219.86"/>
<polygon fill="midnightblue" stroke="midnightblue" points="1221.94,-219.52 1218.29,-209.58 1214.94,-219.63 1221.94,-219.52"/>
</g>
<!-- Node35 -->
<g id="node35" class="node">
<title>Node35</title>
<g id="a_node35"><a xlink:title=" ">
<polygon fill="none" stroke="#bfbfbf" points="995.57,-185 995.57,-204 1084.57,-204 1084.57,-185 995.57,-185"/>
<text text-anchor="middle" x="1040.07" y="-192" font-family="Helvetica,sans-Serif" font-size="10.00">yaclib_std/mutex</text>
</a>
</g>
</g>
<!-- Node32&#45;&gt;Node35 -->
<g id="edge55" class="edge">
<title>Node32&#45;&gt;Node35</title>
<path fill="none" stroke="midnightblue" d="M1180.23,-246.4C1148.27,-234.79 1103.45,-218.51 1073.17,-207.52"/>
<polygon fill="midnightblue" stroke="midnightblue" points="1074.09,-204.13 1063.5,-204.01 1071.7,-210.71 1074.09,-204.13"/>
</g>
<!-- Node38&#45;&gt;Node3 -->
<g id="edge66" class="edge">
<title>Node38&#45;&gt;Node3</title>
<path fill="none" stroke="midnightblue" d="M509.5,-447.4C498.46,-438.54 484.03,-426.96 471.73,-417.09"/>
<polygon fill="midnightblue" stroke="midnightblue" points="473.6,-414.11 463.61,-410.58 469.22,-419.56 473.6,-414.11"/>
</g>
<!-- Node38&#45;&gt;Node25 -->
<g id="edge67" class="edge">
<title>Node38&#45;&gt;Node25</title>
<path fill="none" stroke="midnightblue" d="M552.01,-447.37C594.05,-423.56 679.07,-375.39 726.38,-348.59"/>
<polygon fill="midnightblue" stroke="midnightblue" points="728.34,-351.5 735.32,-343.52 724.89,-345.41 728.34,-351.5"/>
</g>
</g>
</svg>
